<svg xmlns="http://www.w3.org/2000/svg" width="83.183" height="80.944" viewBox="0 0 83.183 80.944">
  <g id="img-intro4" transform="translate(-2213.187 1097.593)">
    <g id="Grupo_128176" data-name="Grupo 128176" transform="translate(2213.187 -1097.593)">
      <path id="Trazado_165197" data-name="Trazado 165197" d="M2213.187-1026.759v-66.419c.022-.081.049-.161.065-.243a4.907,4.907,0,0,1,3.247-3.867,11.061,11.061,0,0,1,1.167-.306h32.377a.415.415,0,0,0,.079.05,1.378,1.378,0,0,1,1,1.6,1.392,1.392,0,0,1-1.443,1.1l-27.376,0c-1.364,0-2.728-.006-4.092,0a2.229,2.229,0,0,0-2.278,2.291c0,1.184,0,2.367,0,3.551q0,30.7-.017,61.394a2.433,2.433,0,0,0,2.552,2.532c5.737-.046,11.475-.018,17.212-.018h2.506c1.792,0,3.583-.012,5.375.006a1.35,1.35,0,0,1,1.313,1.555,1.426,1.426,0,0,1-1.016,1.168h10.495c-.2-.138-.41-.264-.6-.413-1.72-1.348-3.421-2.719-5.157-4.045a9.209,9.209,0,0,0-5.062-1.919c-1.1-.072-2.208-.058-3.313-.058q-8.733-.008-17.468,0a1.363,1.363,0,0,1-1.506-1.5q0-4.367,0-8.734c0-1.278.035-2.556.038-3.834,0-.817-.038-1.635-.038-2.452q-.006-8.029,0-16.057,0-8.326,0-16.652,0-5.487.005-10.974a1.388,1.388,0,0,1,1.57-1.575c.7,0,1.407,0,2.111,0,5.812,0,11.624.009,17.436,0a12.465,12.465,0,0,1,7.338,2.219c.994.693,1.911,1.5,2.858,2.259.737.593,1.466,1.2,2.206,1.8.084-.061.155-.106.22-.159,1.28-1.045,2.562-2.086,3.838-3.136a12.452,12.452,0,0,1,8.012-2.969c2.855-.023,5.71-.012,8.566-.012q5.695,0,11.389.008a1.812,1.812,0,0,1,.714.125,1.369,1.369,0,0,1,.809,1.395q-.006,29.337.01,58.675a1.5,1.5,0,0,1-1.6,1.59q-9.87-.038-19.74-.007a11.479,11.479,0,0,0-1.78.152,10.689,10.689,0,0,0-5.108,2.478c-1.6,1.31-3.247,2.566-4.831,3.812h10.372a1.6,1.6,0,0,1-.858-.812,1.382,1.382,0,0,1,1.349-1.926h24.538c.277,0,.555.016.831-.005a2.093,2.093,0,0,0,1.56-.689,2.666,2.666,0,0,0,.575-1.772q-.014-23.067,0-46.134c0-.421.052-.843.05-1.264,0-.58-.05-1.16-.05-1.739q-.006-7.9,0-15.8a2.238,2.238,0,0,0-2.353-2.344c-1.472,0-2.944.005-4.415,0-2.281-.011-4.561-.037-6.842-.044-.783,0-1.565.043-2.348.044q-5.9.007-11.805,0-3.04,0-6.079,0a1.377,1.377,0,0,1-1.336-1.038,1.377,1.377,0,0,1,.669-1.528c.127-.072.267-.122.4-.182h32.378a1.435,1.435,0,0,0,.18.056,4.837,4.837,0,0,1,4.054,3.47c.107.331.164.677.245,1.017v66.1c-.025.056-.072.112-.072.168a3.935,3.935,0,0,1-.723,2.144,5.134,5.134,0,0,1-3.5,2.295h4.3v5.694h-83.183v-5.694h4.3a.111.111,0,0,0-.081-.061,4.9,4.9,0,0,1-3.9-3.2A10.724,10.724,0,0,1,2213.187-1026.759Zm72.352-4.787v-56.291h-.243q-9.166,0-18.332,0a9.34,9.34,0,0,0-5.786,1.9c-1.66,1.267-3.254,2.62-4.867,3.946a.563.563,0,0,0-.149.385c-.017.778,0,1.557-.022,2.335a1.25,1.25,0,0,1-.764,1.132,1.357,1.357,0,0,1-1.964-1.2c-.028-.756,0-1.515-.017-2.271a.635.635,0,0,0-.2-.424q-2.2-1.822-4.431-3.617a9.793,9.793,0,0,0-6.3-2.188q-9.006,0-18.012,0h-.469v56.291h.514c6.068,0,12.136-.01,18.2,0a12.188,12.188,0,0,1,7.138,2.238c1.14.8,2.212,1.7,3.315,2.559.069.053.143.1.249.174v-.979q0-2.575,0-5.151a1.49,1.49,0,0,1,.349-1.064,1.37,1.37,0,0,1,1.488-.37,1.339,1.339,0,0,1,.9,1.334c.008,1.952.007,3.9.01,5.855v.4c.916-.722,1.775-1.384,2.618-2.066a12.865,12.865,0,0,1,8.354-2.932q8.99.01,17.98,0Z" transform="translate(-2213.187 1097.593)" fill="#1d272b"/>
      <path id="Trazado_165198" data-name="Trazado 165198" d="M2570.757-727.949a6.847,6.847,0,0,1-1.172,5.781,6.9,6.9,0,0,1-5.191,2.848,6,6,0,0,1-4.422,4.963,5.981,5.981,0,0,1-6.366-1.971,5.971,5.971,0,0,1-6.337,1.981,6.008,6.008,0,0,1-4.451-4.969,6.9,6.9,0,0,1-5.188-2.849,6.82,6.82,0,0,1-1.175-5.779c-2.648-1.158-4.118-3.135-4.006-6.049a5.976,5.976,0,0,1,3.892-5.445,6.889,6.889,0,0,1,.813-6.639,6.863,6.863,0,0,1,5.986-2.956,6.125,6.125,0,0,1,10.464-1.823c.21-.207.414-.421.631-.62a6.072,6.072,0,0,1,9.677,2.11.486.486,0,0,0,.528.353,6.951,6.951,0,0,1,6.8,5.721,6.723,6.723,0,0,1-.264,3.5c-.038.109-.075.219-.118.345a6.018,6.018,0,0,1,3.9,5.8A5.962,5.962,0,0,1,2570.757-727.949Zm-15.768-5.654h0q0,6.669,0,13.339a3.212,3.212,0,0,0,1.009,2.436,3.186,3.186,0,0,0,3.485.745,3.219,3.219,0,0,0,2.173-2.759.578.578,0,0,0-.172-.43c-.549-.5-1.12-.985-1.683-1.474a1.38,1.38,0,0,1-.208-1.989,1.379,1.379,0,0,1,2-.1c.534.458,1.083.9,1.583,1.394a1.259,1.259,0,0,0,1.187.355c.073-.013.147-.025.221-.035a4.229,4.229,0,0,0,3.5-5.141c-.065-.26-.174-.326-.431-.324-1.429.013-2.857.008-4.286.005a1.387,1.387,0,0,1-1.252-.635,1.3,1.3,0,0,1-.07-1.364,1.293,1.293,0,0,1,1.21-.747c1.885-.021,3.772.007,5.655-.074a3.1,3.1,0,0,0,2.871-2.054,3.182,3.182,0,0,0-.577-3.46,3.452,3.452,0,0,0-2.856-1.16c-1.652.022-3.3,0-4.958.008a1.407,1.407,0,0,1-1.208-.532,1.307,1.307,0,0,1-.148-1.442,1.282,1.282,0,0,1,1.229-.765c1.461,0,2.921-.007,4.382,0a.449.449,0,0,0,.469-.282,4.067,4.067,0,0,0-.2-4.253,4.076,4.076,0,0,0-3.83-1.928.632.632,0,0,0-.512.254c-.5.621-1.018,1.233-1.537,1.839a1.382,1.382,0,0,1-1.944.2,1.392,1.392,0,0,1-.158-1.973c.469-.566.934-1.136,1.422-1.685a.448.448,0,0,0,.083-.538,3.332,3.332,0,0,0-3.69-2.1,3.349,3.349,0,0,0-2.762,3.353Q2554.989-740.257,2554.989-733.6Zm-2.762.025h0q0-6.7,0-13.4a3.345,3.345,0,0,0-2.769-3.285,3.341,3.341,0,0,0-3.682,2.116.432.432,0,0,0,.076.511c.479.543.937,1.105,1.4,1.66a1.4,1.4,0,0,1-.116,2,1.382,1.382,0,0,1-1.986-.229c-.48-.57-.95-1.15-1.439-1.713a.826.826,0,0,0-.44-.315,4.037,4.037,0,0,0-3.945,1.868,4.05,4.05,0,0,0-.239,4.25.514.514,0,0,0,.546.319q2.159-.02,4.319,0a1.328,1.328,0,0,1,1.307.937,1.369,1.369,0,0,1-.467,1.516,1.631,1.631,0,0,1-1.056.286c-1.812.008-3.626-.017-5.437.041a3.3,3.3,0,0,0-3.1,2.928,3.283,3.283,0,0,0,2.2,3.505,5.648,5.648,0,0,0,1.629.253c1.652.032,3.305,0,4.958.015a1.33,1.33,0,0,1,1.316,1.594,1.482,1.482,0,0,1-1.448,1.15c-1.439,0-2.879.008-4.318-.005a.33.33,0,0,0-.388.3,4.233,4.233,0,0,0,4.2,5.213.807.807,0,0,0,.452-.18c.622-.518,1.224-1.061,1.842-1.585a1.373,1.373,0,0,1,1.995.108,1.382,1.382,0,0,1-.22,1.988c-.556.481-1.1.971-1.67,1.44a.494.494,0,0,0-.187.5,3.372,3.372,0,0,0,4.163,2.83,3.414,3.414,0,0,0,2.521-3.395C2552.21-724.771,2552.227-729.175,2552.227-733.579Z" transform="translate(-2512.016 775.108)" fill="#1d272b"/>
    </g>
  </g>
</svg>
