<svg id="img1" xmlns="http://www.w3.org/2000/svg" xmlns:xlink="http://www.w3.org/1999/xlink" width="453.878" height="301.059" viewBox="0 0 453.878 301.059">
  <defs>
    <linearGradient id="linear-gradient" y1="0.5" x2="1" y2="0.5" gradientUnits="objectBoundingBox">
      <stop offset="0.494" stop-color="#ebeff2"/>
      <stop offset="1" stop-color="#fff"/>
    </linearGradient>
    <linearGradient id="linear-gradient-3" x1="0.73" y1="0.758" x2="-0.115" y2="-0.571" gradientUnits="objectBoundingBox">
      <stop offset="0" stop-color="#f5f5f5"/>
      <stop offset="0.25" stop-color="#f5f5f5"/>
      <stop offset="1" stop-color="#a7b3cf"/>
    </linearGradient>
    <linearGradient id="linear-gradient-4" x1="0.688" y1="1.104" x2="0.376" y2="-0.135" xlink:href="#linear-gradient-3"/>
    <clipPath id="clip-path">
      <path id="Trazado_150181" data-name="Trazado 150181" d="M-2318.433,1408.422c-294.729-2.81-340.641,3.245-342.356-14.495s-11.058-254.918,59.6-267.95,257.818-23,272.145,57.119S-2318.433,1408.422-2318.433,1408.422Z" transform="translate(2662.136 -1117.15)" fill="none"/>
    </clipPath>
    <linearGradient id="linear-gradient-5" x1="0.5" y1="0" x2="0.5" y2="1" xlink:href="#linear-gradient-3"/>
    <radialGradient id="radial-gradient" cx="0.5" cy="0.5" r="0.5" gradientUnits="objectBoundingBox">
      <stop offset="0" stop-color="#f5f5f5"/>
      <stop offset="0.25" stop-color="#f5f5f5"/>
      <stop offset="1" stop-color="#4c5872"/>
    </radialGradient>
  </defs>
  <path id="Trazado_151846" data-name="Trazado 151846" d="M471.716,383.8c17.036-18.563,21.883-42.656,12.862-63.93-5.7-13.45-16.648-25.946-18.048-39.972-2.8-28.043,32.481-50.714,39.8-78.333,3.217-12.138-.293-26.279-14.082-33.652-13.62-7.282-33.06-5.8-48.479-.7S415.3,180.477,400.5,186.445s-33.033,9.658-48.668,4.908c-15.836-4.812-24.819-16.94-29.85-28.761s-7.5-24.411-16.088-35.12c-14.153-17.65-44.328-27.273-72.449-24.783s-53.245,16.131-66.722,34.053-15.832,39.6-9.123,59.392c3.4,10.039,9.009,19.653,12.066,29.75s3.337,21.148-3.488,30.243c-14.271,19.018-51.92,21.67-71.635,37.979-16.272,13.461-16.782,34-7.548,50.556s26.589,29.984,43.892,42.763c80.708,1.951,162.862,2.08,243.569,4.031C405.823,392.214,440.386,385.122,471.716,383.8Z" transform="translate(-80.961 -96.362)" fill="#a4a4b4" opacity="0.354" style="mix-blend-mode: multiply;isolation: isolate"/>
  <path id="Trazado_151847" data-name="Trazado 151847" d="M359.21,189.2c-.213,22.828,21.487,42.7,17.711,65.21-2.019,12.046-11.2,24.258-5.864,35.245,4.719,9.722,18.237,11.408,28.572,8.247,24.193-7.4,38.9-32.13,45.93-56.433,6.615-22.859,8.256-48.393-2.337-69.7-8.536-17.169-28.231-32.327-48.23-30.924C376.674,142.13,359.371,172.008,359.21,189.2Z" transform="translate(3.031 -93.219)" fill="#a4a4b4" opacity="0.31" style="mix-blend-mode: multiply;isolation: isolate"/>
  <path id="Trazado_151848" data-name="Trazado 151848" d="M119.2,155.625c-16.16,26.962-16.889,62.5-1.847,90.1,4.753,8.721,11.173,16.849,19.84,21.7s19.85,5.931,28.477,1.01c13.084-7.464,15.978-25.067,14.936-40.095s-4.446-30.781,1.341-44.688c3.773-9.065,11.016-16.133,17.442-23.556s12.424-16.088,12.756-25.9c.861-25.438-26.147-23.538-42.423-18.255C148.944,122.683,130.467,136.829,119.2,155.625Z" transform="translate(-73.235 -93.235)" fill="#a4a4b4" opacity="0.31" style="mix-blend-mode: multiply;isolation: isolate"/>
  <g id="Grupo_107069" data-name="Grupo 107069" transform="translate(9.041)" style="mix-blend-mode: multiply;isolation: isolate">
    <path id="Trazado_151849" data-name="Trazado 151849" d="M465.591,387.377l-1.735-1.14c4.775-3.754,12.4-12.361,9.817-27.835-1.148-6.888-4-13.693-6.749-20.273-1.229-2.94-2.5-5.98-3.611-9-11.842-32.208-6.662-67.738,14.211-97.478,1.854-2.639,3.86-5.288,5.8-7.848,5.753-7.591,11.7-15.442,14.259-23.923,4.486-14.881-4.382-26.035-14.52-30.1-9.726-3.9-23.456-3.306-37.665,1.637-5.2,1.807-10.251,4.019-15.137,6.157a163.993,163.993,0,0,1-20.3,7.817c-28.2,8.14-63.468,1.222-82.024-16.089-8.918-8.319-13.953-18.374-18.822-28.1-1.886-3.768-3.838-7.664-5.983-11.393-6.673-11.591-18.887-26.141-39.177-29.621-17.828-3.06-35.885,3.665-47.89,9.844-22.97,11.823-39.161,27.834-45.594,45.084-4.336,11.633-4.511,24.293-4.68,36.537-.251,18.234-.512,37.089-14.826,52.274-6.512,6.908-15.469,12.419-24.129,17.75-8.112,4.992-16.5,10.154-22.753,16.411C89.913,292.269,86.44,312.34,94.553,333.16c7.29,18.706,22.151,35.3,36.522,51.356l-1.975.914c-14.465-16.156-29.423-32.863-36.809-51.814-8.307-21.317-4.7-41.915,9.882-56.511,6.418-6.423,14.915-11.651,23.131-16.709,8.544-5.258,17.379-10.7,23.712-17.414,13.917-14.763,14.162-32.531,14.421-51.342.171-12.35.346-25.119,4.762-36.96,6.572-17.626,23.085-33.97,46.495-46.021,12.4-6.383,31.111-13.32,49.8-10.113,21.254,3.646,33.92,18.663,40.8,30.619,2.168,3.765,4.128,7.68,6.024,11.467,4.808,9.6,9.778,19.528,18.472,27.638,17.937,16.735,52.025,23.421,79.29,15.553a162.126,162.126,0,0,0,19.956-7.692c4.933-2.16,10.033-4.392,15.333-6.235,14.908-5.185,29.426-5.767,39.833-1.592,10.871,4.36,20.412,16.214,15.672,31.935-2.63,8.718-8.66,16.677-14.494,24.374-1.932,2.549-3.93,5.185-5.766,7.8C459,261.79,453.887,296.885,465.584,328.7c1.1,2.991,2.365,6.017,3.589,8.944,2.782,6.649,5.659,13.524,6.834,20.559C478.7,374.344,470.635,383.411,465.591,387.377Z" transform="translate(-87.906 -97.739)" fill="#a4a4b4"/>
  </g>
  <g id="Grupo_127486" data-name="Grupo 127486" transform="translate(84.494)">
    <g id="Grupo_91912" data-name="Grupo 91912" transform="translate(0 30.999)">
      <rect id="Rectángulo_34130" data-name="Rectángulo 34130" width="20.834" height="3.145" transform="translate(45.211 3.931)" fill="#fff"/>
      <rect id="Rectángulo_34131" data-name="Rectángulo 34131" width="16.117" height="3.145" transform="translate(7.079 3.931)" fill="#fff"/>
      <rect id="Rectángulo_34132" data-name="Rectángulo 34132" width="16.51" height="3.145" transform="translate(106.535 3.931)" fill="#d8dee8"/>
      <rect id="Rectángulo_34133" data-name="Rectángulo 34133" width="16.51" height="3.145" transform="translate(161.569 3.931)" fill="#fff"/>
      <g id="Grupo_91900" data-name="Grupo 91900" transform="translate(39.314)">
        <rect id="Rectángulo_34134" data-name="Rectángulo 34134" width="20.834" height="81.372" transform="translate(11.007 12.186)" fill="#d8dee8"/>
        <rect id="Rectángulo_34135" data-name="Rectángulo 34135" width="11.007" height="81.372" transform="translate(0 12.186)" fill="#97a6b7"/>
        <rect id="Rectángulo_34136" data-name="Rectángulo 34136" width="3.538" height="16.903" transform="translate(4.717)" fill="#97a6b7"/>
        <rect id="Rectángulo_34137" data-name="Rectángulo 34137" width="3.538" height="16.903" transform="translate(23.193)" fill="#d8dee8"/>
      </g>
      <g id="Grupo_91901" data-name="Grupo 91901" transform="translate(153.314)">
        <rect id="Rectángulo_34138" data-name="Rectángulo 34138" width="20.441" height="81.372" transform="translate(11.007 12.186)" fill="#d8dee8"/>
        <rect id="Rectángulo_34139" data-name="Rectángulo 34139" width="11.007" height="81.372" transform="translate(0 12.186)" fill="#97a6b7"/>
        <rect id="Rectángulo_34140" data-name="Rectángulo 34140" width="3.931" height="16.903" transform="translate(4.324)" fill="#97a6b7"/>
        <rect id="Rectángulo_34141" data-name="Rectángulo 34141" width="3.931" height="16.903" transform="translate(22.8)" fill="#d8dee8"/>
      </g>
      <g id="Grupo_91902" data-name="Grupo 91902" transform="translate(98.279)">
        <rect id="Rectángulo_34142" data-name="Rectángulo 34142" width="20.048" height="81.372" transform="translate(11.793 12.186)" fill="#d8dee8"/>
        <rect id="Rectángulo_34143" data-name="Rectángulo 34143" width="11.793" height="81.372" transform="translate(0 12.186)" fill="#97a6b7"/>
        <rect id="Rectángulo_34144" data-name="Rectángulo 34144" width="3.538" height="16.903" transform="translate(4.717)" fill="#97a6b7"/>
        <rect id="Rectángulo_34145" data-name="Rectángulo 34145" width="3.538" height="16.903" transform="translate(23.193)" fill="#d8dee8"/>
      </g>
      <g id="Grupo_91903" data-name="Grupo 91903" transform="translate(1.576)">
        <rect id="Rectángulo_34146" data-name="Rectángulo 34146" width="17.297" height="81.372" transform="translate(9.434 12.186)" fill="#d8dee8"/>
        <rect id="Rectángulo_34147" data-name="Rectángulo 34147" width="9.434" height="81.372" transform="translate(0 12.186)" fill="#97a6b7"/>
        <rect id="Rectángulo_34148" data-name="Rectángulo 34148" width="3.145" height="16.903" transform="translate(3.931)" fill="#97a6b7"/>
        <rect id="Rectángulo_34149" data-name="Rectángulo 34149" width="3.931" height="16.903" transform="translate(19.262)" fill="#d8dee8"/>
      </g>
      <path id="Trazado_150963" data-name="Trazado 150963" d="M590.078,1767.207l-50.3-4.573V1611.809l50.3-2.649Z" transform="translate(-537.871 -1521.5)" fill="#d8dee8"/>
      <path id="Trazado_150964" data-name="Trazado 150964" d="M569.5,1588.078,522.25,1589.7V1581l47.253-1.869Z" transform="translate(-522.25 -1494.737)" fill="#97a6b7"/>
      <path id="Trazado_150965" data-name="Trazado 150965" d="M569.5,2184.6l-47.253-.159v-8.7l47.253-.087Z" transform="translate(-522.25 -2026.41)" fill="#97a6b7"/>
      <path id="Trazado_150966" data-name="Trazado 150966" d="M1126,1754.039l-137.566,5.383V1600.33L1126,1602.984Z" transform="translate(-937.752 -1513.63)" fill="#fff"/>
      <path id="Trazado_150967" data-name="Trazado 150967" d="M1101.314,1582.987l-144.425-.161v-9.365l144.425.656Z" transform="translate(-909.636 -1489.682)" fill="#d8dee8"/>
      <path id="Trazado_150968" data-name="Trazado 150968" d="M1101.314,2159.089l-144.425,3.29v-8.991l144.425-2.814Z" transform="translate(-909.636 -2004.053)" fill="#d8dee8"/>
      <path id="Trazado_150969" data-name="Trazado 150969" d="M1101.314,2980.87l-144.425,7.93v-1.5l144.425-7.851Z" transform="translate(-909.636 -2742.816)" fill="#d8dee8"/>
      <g id="Grupo_91907" data-name="Grupo 91907" transform="translate(59.828 102.2)">
        <g id="Grupo_91904" data-name="Grupo 91904" transform="translate(0 0.205)">
          <path id="Trazado_150970" data-name="Trazado 150970" d="M1104.949,1784.208l-32.391.552v-39.894l32.391-.079Z" transform="translate(-1072.558 -1744.788)" fill="#d8dee8"/>
        </g>
        <g id="Grupo_91905" data-name="Grupo 91905" transform="translate(45.728 0.104)">
          <path id="Trazado_150971" data-name="Trazado 150971" d="M1524.423,1782.626l-31.248.53v-39.226l31.248-.07Z" transform="translate(-1493.175 -1743.861)" fill="#d8dee8"/>
        </g>
        <g id="Grupo_91906" data-name="Grupo 91906" transform="translate(89.933)">
          <path id="Trazado_150972" data-name="Trazado 150972" d="M1930.257,1781.029l-30.486.515V1742.97l30.486-.069Z" transform="translate(-1899.772 -1742.901)" fill="#d8dee8"/>
        </g>
      </g>
      <g id="Grupo_91910" data-name="Grupo 91910" transform="translate(59.828 182.02)">
        <g id="Grupo_91908" data-name="Grupo 91908" transform="translate(0 2.911)">
          <path id="Trazado_150973" data-name="Trazado 150973" d="M1104.949,2542.927l-32.391,1.538v-39.521l32.391-1.069Z" transform="translate(-1072.558 -2503.875)" fill="#d8dee8"/>
        </g>
        <g id="Grupo_91909" data-name="Grupo 91909" transform="translate(89.933)">
          <path id="Trazado_150974" data-name="Trazado 150974" d="M1930.257,2514.869l-30.486,1.445V2478.1l30.486-1Z" transform="translate(-1899.772 -2477.097)" fill="#d8dee8"/>
        </g>
      </g>
      <path id="Trazado_150975" data-name="Trazado 150975" d="M988.435,1663.093s27.7,3.73,39.632,22.159c11.825,18.267,38.508,10.622,61.753,15.4,22.841,4.7,36.444,15.855,36.444,15.855l-137.829,3.078Z" transform="translate(-937.753 -1569.569)" fill="#97a6b7" opacity="0.1" style="mix-blend-mode: multiply;isolation: isolate"/>
      <path id="Trazado_150976" data-name="Trazado 150976" d="M988.435,2530.544s27.7,2.787,39.632,20.81c11.825,17.865,38.508,9.312,61.753,13.3,22.841,3.918,36.444,14.616,36.444,14.616l-137.829,7.767Z" transform="translate(-937.753 -2342.713)" fill="#97a6b7" opacity="0.1" style="mix-blend-mode: multiply;isolation: isolate"/>
      <path id="Trazado_150977" data-name="Trazado 150977" d="M1524.423,2479.824l-31.248,1.615v-56.822l31.248-.948Z" transform="translate(-1387.619 -2247.458)" fill="#e4e9f2"/>
      <path id="Trazado_150978" data-name="Trazado 150978" d="M1491.888,2383.694l-40.774,1.278v-8.079l40.774-1.156Z" transform="translate(-1350.13 -2204.737)" fill="#d8dee8"/>
      <g id="Grupo_91911" data-name="Grupo 91911" transform="translate(89.17 227.228)">
        <path id="Trazado_150979" data-name="Trazado 150979" d="M1464.458,2897.621l-48.4,2.49v-4.781l48.4-2.4Z" transform="translate(-1408.06 -2892.927)" fill="url(#linear-gradient)"/>
        <path id="Trazado_150980" data-name="Trazado 150980" d="M1425.294,2938.492l-58.3,3.12v-4.79l58.3-3.015Z" transform="translate(-1364.323 -2929.362)" fill="#d8dee8"/>
        <path id="Trazado_150981" data-name="Trazado 150981" d="M1406.474,2980.126l-64.02,3.536v-4.794l64.02-3.422Z" transform="translate(-1342.454 -2966.474)" fill="url(#linear-gradient)"/>
      </g>
    </g>
    <g id="Grupo_91916" data-name="Grupo 91916" transform="translate(206.702 73)">
      <g id="Grupo_91915" data-name="Grupo 91915" transform="translate(0)">
        <path id="Trazado_150989" data-name="Trazado 150989" d="M597.977,645.575a13.363,13.363,0,0,1-7.272-1.881,140.6,140.6,0,0,1-25.269-19.151c-11.2-10.915-17.629-22.009-19.037-32.9l-.022-.171-.273-46.487c0-9.187,5.992-16.645,17.243-21.545,9.3-4.049,21.615-6.055,34.631-5.678,12.864.372,24.767,3.026,33.577,7.449,10.473,5.257,15.968,12.646,15.968,21.4l-.249,44.419-.02.164c-1.286,10.433-7.205,21.216-17.666,32.122A145.886,145.886,0,0,1,605.2,643.288,13.842,13.842,0,0,1,597.977,645.575Z" transform="translate(-546.104 -517.713)" fill="#364246"/>
        <path id="Trazado_150990" data-name="Trazado 150990" d="M627.078,645.575a13.052,13.052,0,0,1-7.176-1.881,138.923,138.923,0,0,1-24.935-19.151c-11.049-10.915-17.4-22.009-18.785-32.9l-.022-.171-.269-46.487c0-9.187,5.913-16.645,17.015-21.545,9.172-4.049,21.33-6.055,34.173-5.678,12.694.372,24.44,3.026,33.134,7.449,10.335,5.257,15.757,12.646,15.757,21.4l-.246,44.419-.02.164c-1.269,10.433-7.11,21.216-17.433,32.122a144.352,144.352,0,0,1-24.063,19.973A13.533,13.533,0,0,1,627.078,645.575Z" transform="translate(-572.652 -517.713)" fill="#1d272b"/>
        <path id="Trazado_150991" data-name="Trazado 150991" d="M604.122,568.424l.271,46.252c3.045,23.6,30.779,42.706,42.858,49.965a10.664,10.664,0,0,0,11.32-.3c11.827-7.782,38.042-27.375,40.843-50.065l.249-44.3C699.664,537.111,604.122,534.107,604.122,568.424Z" transform="translate(-597.814 -541.122)" fill="url(#linear-gradient-3)"/>
        <path id="Trazado_150992" data-name="Trazado 150992" d="M728.006,728.312a1.651,1.651,0,0,1-.9-.237,131.279,131.279,0,0,1-23-17.559c-9.06-8.9-14.285-17.552-15.483-25.678l-.266-45.486c.011-4.365,3.466-8.1,10.238-11.088,7.56-3.337,18.3-5.088,29.408-4.824,11,.261,21.424,2.476,28.645,6.059,6.387,3.169,9.616,6.906,9.627,11.119l-.248,43.912c-1.118,7.863-6.022,16.341-14.633,25.252a136.411,136.411,0,0,1-22.5,18.251A1.711,1.711,0,0,1,728.006,728.312Z" transform="translate(-672.894 -611.923)" fill="#1d272b"/>
        <path id="Trazado_150993" data-name="Trazado 150993" d="M742.456,748.744a127.582,127.582,0,0,1-21.747-16.736c-8.514-8.379-13.441-16.42-14.6-23.86l-.264-45.222c.008-3.121,2.876-5.983,8.5-8.475,7.162-3.171,17.423-4.842,28.106-4.6,10.581.238,20.554,2.327,27.408,5.719,5.325,2.635,8.019,5.509,8.027,8.552l-.247,43.75c-1.087,7.219-5.734,15.113-13.861,23.508A132.479,132.479,0,0,1,742.456,748.744Z" transform="translate(-688.479 -635.463)" fill="url(#linear-gradient-4)"/>
      </g>
      <path id="Trazado_150994" data-name="Trazado 150994" d="M876.132,900.038a4.557,4.557,0,0,1-3.857-2.011L859.79,878.611a4.234,4.234,0,0,1,1.32-5.51,3.8,3.8,0,0,1,5.5.515L875.8,887.1l13.706-25.8a7.092,7.092,0,0,1,7.353-3.476c2.828.621,3.974,3.28,2.51,5.891l-19.05,33.962a4.783,4.783,0,0,1-4.025,2.362Z" transform="translate(-825.202 -820.729)" fill="#008f85"/>
    </g>
    <g id="Grupo_128301" data-name="Grupo 128301" transform="translate(-34.117 4.208)">
      <g id="Grupo_90984" data-name="Grupo 90984" transform="translate(0 0)" clip-path="url(#clip-path)">
        <g id="Grupo_91824" data-name="Grupo 91824" transform="translate(4.634 7.702)">
          <path id="Trazado_150872" data-name="Trazado 150872" d="M1106.556,1116.436c-11.036-47.648-28.571-139.371-28.571-139.371l-99.327-1.073C962.9,985.059,965.9,1096,961.99,1106.727s-45.657,77.76-41.286,101.71c4.386,23.945,42.514,4.391,42.514,4.391s34.648-52.665,43.685-65.816c10.186-14.82,13.188-24.5,13.188-24.5,11.219-21.651,16.57-57.466,16.57-57.466,1.708,36.909,15.165,66.184,13.728,72.048,0,0,17.883,79.157,23.747,85.023s32.075,5.856,42.1-12.711C1116.233,1209.405,1113.821,1147.845,1106.556,1116.436Z" transform="translate(-889.92 -720.004)" fill="url(#linear-gradient-5)"/>
          <path id="Trazado_150873" data-name="Trazado 150873" d="M998.254,999.307c7.19-4.406,58.274,3.208,81.926-11-1.368-7.043-2.167-11.238-2.167-11.238l-99.327-1.073c-15.753,9.067-12.757,120.01-16.668,130.735-3.857,10.579-44.459,75.841-41.406,100.637l47.926-2.573c.155-.231.3-.455.455-.688-8.021-1.21-26.654-5.032-27.773-14.659-1.428-12.285,18.194-3.491,18.158-13.253-.042-9.777-8.876-19.552-3.97-25.415s27.831-7.656,27.123-24.84-9.061-35.75,0-49.436,22.55-20.521,19.715-36.154S990.266,1004.192,998.254,999.307Z" transform="translate(-889.948 -720.004)" fill="url(#radial-gradient)"/>
          <path id="Trazado_150874" data-name="Trazado 150874" d="M1162.527,1260.3c5.863,5.858,32.075,5.856,42.1-12.711,0,0-.242-6.045-.795-15.3-4.459,1.847-27.005,10.712-34.012,4.563-7.779-6.846,8.434-29.317,4.726-45.934s-16.937-15.775-20.094-29.392,9.613-23.381,5.674-33.152-18.6-34.207-15.669-44.959-10.832-18.926-10.832-18.926-3.884,18.2-8.4,41.732c2.265,35.484,14.956,63.355,13.559,69.06C1138.779,1175.28,1156.662,1254.437,1162.527,1260.3Z" transform="translate(-978.31 -758.191)" fill="#7999c6"/>
          <path id="Trazado_150875" data-name="Trazado 150875" d="M1149,1202.652s30.589,28.489,45.6,33.225" transform="translate(-988.572 -817.812)" fill="none" stroke="#5179aa" stroke-linecap="round" stroke-miterlimit="10" stroke-width="2.579"/>
          <path id="Trazado_150876" data-name="Trazado 150876" d="M1157.326,1248.207s35.168,9.362,48.858,14.21" transform="translate(-992.165 -837.469)" fill="none" stroke="#5179aa" stroke-linecap="round" stroke-miterlimit="10" stroke-width="2.579"/>
          <g id="Grupo_91823" data-name="Grupo 91823" transform="translate(38.811 0)">
            <g id="Grupo_91822" data-name="Grupo 91822">
              <path id="Trazado_150877" data-name="Trazado 150877" d="M999.348,677.267a4.171,4.171,0,0,1-4.168,4.164H974.388a4.169,4.169,0,0,1-4.168-4.164h0a4.166,4.166,0,0,1,4.168-4.162H995.18a4.168,4.168,0,0,1,4.168,4.162Z" transform="translate(-950.237 -589.303)" fill="#00111c"/>
              <path id="Trazado_150878" data-name="Trazado 150878" d="M1064.962,678.217a4.164,4.164,0,0,1-4.168,4.161H1040a4.162,4.162,0,0,1-4.168-4.161h0a4.165,4.165,0,0,1,4.168-4.166h20.792a4.166,4.166,0,0,1,4.168,4.166Z" transform="translate(-978.55 -589.711)" fill="#00111c"/>
              <path id="Trazado_150879" data-name="Trazado 150879" d="M956.986,681.379v12.706l62.544.486-1.559-13.193Z" transform="translate(-944.526 -592.873)" fill="#00111c"/>
              <g id="Grupo_91821" data-name="Grupo 91821">
                <path id="Trazado_150880" data-name="Trazado 150880" d="M1202.132,834.766s37.637-6.95,42.765-5.158,14.168,17.35-.486,27.607-64.956,27.511-67.232,22.379S1179.115,838.433,1202.132,834.766Z" transform="translate(-1039.308 -656.709)" fill="url(#linear-gradient-5)"/>
                <path id="Trazado_150881" data-name="Trazado 150881" d="M1198.979,716.621s11.732,4.846,15.391,9.9-1.324,71.174-10.927,87.26S1198.979,716.621,1198.979,716.621Z" transform="translate(-1048.358 -608.081)" fill="url(#linear-gradient-5)"/>
                <path id="Trazado_150882" data-name="Trazado 150882" d="M1008.553,825.936a17.594,17.594,0,0,1-17.59,17.6h-38.3a17.6,17.6,0,0,1-17.594-17.6V712.841a17.59,17.59,0,0,1,17.594-17.587h38.3a17.588,17.588,0,0,1,17.59,17.587Z" transform="translate(-935.068 -598.86)" fill="#db8804"/>
                <path id="Trazado_150883" data-name="Trazado 150883" d="M976.194,825.936V712.841a17.584,17.584,0,0,0-17.588-17.587h-5.945a17.59,17.59,0,0,0-17.594,17.587V825.936a17.6,17.6,0,0,0,17.594,17.6h5.945A17.589,17.589,0,0,0,976.194,825.936Z" transform="translate(-935.068 -598.86)" fill="#f7b242"/>
                <g id="Grupo_91816" data-name="Grupo 91816" transform="translate(5.367 207.787)">
                  <path id="Trazado_150884" data-name="Trazado 150884" d="M953.8,907.936a7.452,7.452,0,1,0-7.453-7.452A7.457,7.457,0,0,0,953.8,907.936Z" transform="translate(-945.301 -891.992)" fill="#a2c2e7"/>
                  <path id="Trazado_150885" data-name="Trazado 150885" d="M953.005,893.284a6.412,6.412,0,1,1-6.414,6.411,6.414,6.414,0,0,1,6.414-6.411m0-2.081a8.493,8.493,0,1,0,8.491,8.492,8.5,8.5,0,0,0-8.491-8.492Z" transform="translate(-944.509 -891.203)" fill="#00111c"/>
                </g>
                <g id="Grupo_91819" data-name="Grupo 91819" transform="translate(9.201 99.05)">
                  <g id="Grupo_91818" data-name="Grupo 91818">
                    <g id="Grupo_91817" data-name="Grupo 91817">
                      <path id="Trazado_150886" data-name="Trazado 150886" d="M1120.992,958.842s-.015,14.381-3.442,15.416c0,0-58.765,14.444-104.2-7l-1.277-13.328Z" transform="translate(-977.497 -809.531)" fill="#1d272b"/>
                      <path id="Trazado_150887" data-name="Trazado 150887" d="M1045.8,699.926s-42.661,9.571-48.476,16.4,11.234,62.971,12.822,69.327-6.246,54.949-4.659,61.829,73.716,18.687,108.618,1.754c0,0,1.959-74.707,1.959-76.3s9.522-64.74-6.762-65.464c-4.244-.182-22.319-7.55-22.319-7.55Z" transform="translate(-970.614 -699.926)" fill="#ecedea"/>
                      <path id="Trazado_150888" data-name="Trazado 150888" d="M1012.441,852.163c1.588,6.875,73.716,18.687,108.618,1.754,0,0,1.959-74.707,1.959-76.3s9.522-64.74-6.762-65.464a27.374,27.374,0,0,1-5.658-1.384l-9.786,8.17h-47.18s-32.095,10.543-34.862,18.609c-1.521,4.439-1.767,26.079-2.771,48.769.53,1.881.919,3.282,1.1,4.013C1018.687,796.676,1010.853,845.284,1012.441,852.163Z" transform="translate(-977.564 -704.607)" fill="url(#linear-gradient-5)"/>
                      <path id="Trazado_150889" data-name="Trazado 150889" d="M1079.922,976.545s35.02-21.747,5.13-41.955c-19.913-13.455-156.457,32.364-130.54-25.473" transform="translate(-951.252 -790.196)" fill="none" stroke="#1d272d" stroke-linecap="round" stroke-miterlimit="10" stroke-width="7.736"/>
                      <path id="Trazado_150890" data-name="Trazado 150890" d="M1193.482,711.742s5.487,83.132,6.457,117.119c0,0,9.169-79.3,2.081-107.435C1199.642,711.96,1199.034,711.742,1193.482,711.742Z" transform="translate(-1055.779 -705.025)" fill="#1d272b"/>
                      <path id="Trazado_150891" data-name="Trazado 150891" d="M1013.35,716.24s40.107,64.268-3.286,121.767c0,0-5.954,6.671,0,9.364,0,0,33.669-26.052,29.277-77.158,0,0-5.012-38.768-19.608-56.176C1019.732,714.037,1014.722,711.423,1013.35,716.24Z" transform="translate(-975.488 -705.71)" fill="#1d272b"/>
                      <path id="Trazado_150892" data-name="Trazado 150892" d="M1101.33,797.28h-21.86V782.7h21.86Z" transform="translate(-1006.581 -735.644)" fill="#008f85"/>
                      <rect id="Rectángulo_34024" data-name="Rectángulo 34024" width="17.925" height="2.263" transform="translate(76.067 53.213)" fill="#1d272b"/>
                      <path id="Trazado_150893" data-name="Trazado 150893" d="M1101.52,770.918l-1.459,9.409h-3.988l-.3-9.409Z" transform="translate(-1013.616 -730.56)" fill="#1d272b"/>
                    </g>
                  </g>
                </g>
                <path id="Trazado_150894" data-name="Trazado 150894" d="M1115.422,536.384c-3.075-2.5-14.311-9.162-32.035-10.632-12.22-1.006-24.672,10.772-33.432,21.256-6.567,7.868-3.173,31.7-1.379,42.275,0,0-3.218,31.371-.371,40.184,0,0,51.3,10.6,57.29,9.54s14.123-6.7,16.934-12.338,2.579-33.676,2.579-33.676S1122.828,542.386,1115.422,536.384Z" transform="translate(-982.975 -525.691)" fill="#ecedea"/>
                <path id="Trazado_150895" data-name="Trazado 150895" d="M1121.979,575.953s1.012-20.163-3.173-24.925-31.391-5.135-37.942-2.572-8.756,29.957-8.392,37.518c0,0-13.195-7.206-15.02-4.586s15.391,5.341,14.285,8.376-12.089,1.974-12.82,5.8,13.555-1.763,14.29,1.219,2.567,1.223-.735,4.484-17.221,5.46-12.824,7.656,16.935-5.012,16.529-1.954-21.292,9.644-17.259,11.665,18-5.336,17.612-2.025-20.938,9.7-15.067,10.35c5.889.655,11.421-2.847,15.067,0,2.654,2.078,1.275,10.517.311,16.329,14.294,2.684,30.309,5.423,33.5,4.859,4.928-.869,11.279-4.834,14.959-9.343.331-8.918,1.3-32.321-1.992-47.608Z" transform="translate(-987.819 -534.835)" fill="url(#linear-gradient-5)"/>
                <path id="Trazado_150896" data-name="Trazado 150896" d="M1136.355,582.111a31.6,31.6,0,0,1,.29,14.008,17.369,17.369,0,0,0,.286,8.465c1.359,4,2.756,22.069-2.347,30.458-3.6,5.9-24.56,11.052-34.722,0-8.438-9.171-9.575-28.935-9.34-35.517s2.037-24.347,18.855-22.768C1125.019,578.222,1135.555,575.613,1136.355,582.111Z" transform="translate(-1002.138 -547.684)" fill="#fca977"/>
                <path id="Trazado_150897" data-name="Trazado 150897" d="M1123.383,592.588s3.406.557.94,2.321-8.882.624-12.582,1.326c0,0,.582-1.293,3.049-2.523S1123.383,592.588,1123.383,592.588Z" transform="translate(-1011.305 -554.557)" fill="#1a1715"/>
                <path id="Trazado_150898" data-name="Trazado 150898" d="M1159.388,595.8s-2.292.555-.634,2.316,5.013.439,7.5,1.146a1.2,1.2,0,0,0,.037-2.2C1164.635,595.834,1159.388,595.8,1159.388,595.8Z" transform="translate(-1031.333 -555.946)" fill="#1a1715"/>
                <path id="Trazado_150899" data-name="Trazado 150899" d="M1124.935,613.371c0,1.653.769,3,1.705,3s1.706-1.346,1.706-3-.762-3-1.706-3S1124.935,611.712,1124.935,613.371Z" transform="translate(-1016.999 -562.232)" fill="#1a1715"/>
                <path id="Trazado_150900" data-name="Trazado 150900" d="M1161.244,613.371c0,1.653.537,3,1.2,3s1.208-1.346,1.208-3-.537-3-1.208-3S1161.244,611.713,1161.244,613.371Z" transform="translate(-1032.667 -562.232)" fill="#1a1715"/>
                <path id="Trazado_150901" data-name="Trazado 150901" d="M1105.144,610.533s-.551,9.784,1.877,11.912,22.4-2.721,23.818-3.633c0,0,12.971,3.7,13.084,2.949s1.183-10.157.569-13.341l-33.072-.837Z" transform="translate(-1008.435 -561.028)" fill="#8e2f2b" opacity="0.5" style="mix-blend-mode: multiply;isolation: isolate"/>
                <g id="Grupo_91820" data-name="Grupo 91820" transform="translate(95.039 46.249)">
                  <path id="Trazado_150902" data-name="Trazado 150902" d="M1117.184,607.049l-.12,0h0Z" transform="translate(-1108.641 -607.047)" fill="#1d272b"/>
                  <path id="Trazado_150903" data-name="Trazado 150903" d="M1144.6,608.251l-1.885-.069c.156,1.323,1.124,10.5-1.5,11.642,0,0-8.831-2.3-12.01-2.3s-17.769,4.5-21.05,3.489-2.371-10.7-2.371-10.7l4.838-3.237-7.832,3.237s-2.381,12.858,2.88,13.957,21.38-5.312,24.68-4.394,11.468,3.715,12.878,2.774S1144.6,608.251,1144.6,608.251Z" transform="translate(-1102.248 -607.06)" fill="#1d272b"/>
                </g>
                <path id="Trazado_150904" data-name="Trazado 150904" d="M1090.544,612.317s9.884-4.535,13.812-5.42,33.66-.7,35.188,0c0,0,1.008,1.43-1.9,1.718,0,0-26.776-1.7-33.29,0l-13.428,5.041Z" transform="translate(-1002.159 -560.476)" fill="#1d272b"/>
                <path id="Trazado_150905" data-name="Trazado 150905" d="M1137.6,633.074a10.027,10.027,0,0,0-6.717,0c-4.69,1.437-15.733,8.163-16.054,10.855s6.4,17.589,14.015,19.664c5.518,1.508,15.251-1.965,19.275-15.7,0,0,.815-5.823-.995-8.974S1137.6,633.074,1137.6,633.074Z" transform="translate(-1012.635 -571.791)" fill="#eeebf5"/>
                <path id="Trazado_150906" data-name="Trazado 150906" d="M1105.986,642.419s-13.337-8.41-14.872-9.9l.16,3.28,13.328,8.125Z" transform="translate(-1002.405 -571.791)" fill="#eeebf5"/>
                <path id="Trazado_150907" data-name="Trazado 150907" d="M1112.244,667.923s-10.984-1.137-13.5-1.943l.89,1.943,13.306,2.107Z" transform="translate(-1005.695 -586.228)" fill="#eeebf5"/>
                <path id="Trazado_150908" data-name="Trazado 150908" d="M1120.167,693.665l6.315,9.035s-8,18.527-27.976,20.73-60.29-19.786-60.29-19.786l5.456-12.855s40.127,20.461,56.844,16.4C1118.974,702.7,1120.167,693.665,1120.167,693.665Z" transform="translate(-979.578 -596.933)" fill="#008f85"/>
                <path id="Trazado_150909" data-name="Trazado 150909" d="M1082.351,711.76l-39.765-16.506-4.37,10.317s28.355,15.463,49.291,19.153Z" transform="translate(-979.578 -598.86)" fill="#008f85"/>
                <path id="Trazado_150910" data-name="Trazado 150910" d="M1103.388,707.184c-16.717,4.066-56.844-16.4-56.844-16.4l-1.672,3.928c10.961,5.561,39.946,19.269,55.92,17.512,12.764-1.41,20.636-9.469,24.657-15.118l-2.411-3.446S1121.846,702.7,1103.388,707.184Z" transform="translate(-982.451 -596.933)" fill="#1d272b"/>
                <path id="Trazado_150911" data-name="Trazado 150911" d="M986.129,728.585s10.264-2.936,17.59,11.2,12.74,64.2,12.74,64.2,46.329,62.34,50.639,64.439-.67,16.188-13.69,18.331c-8.911,1.468-62-47.853-66.448-55.889,0,0-2.2,1.466-16.226-71.624C968.3,746.539,973.786,728.33,986.129,728.585Z" transform="translate(-950.214 -613.134)" fill="#ecedea"/>
                <path id="Trazado_150912" data-name="Trazado 150912" d="M1280.284,823.772s-4.739,17.213,6.345,22.744l17.512-10.694s10.179,1.767,13.024,1.485,18.789-6.873,20.208-9.142-.488-10.273-2.2-13.686-10.053-3.324-12.613-3.886-7.954-.286-10.228,0-4.264,2.558-5.119,4.261-8.538,6.049-10.532,6.9S1280.284,823.772,1280.284,823.772Z" transform="translate(-1083.6 -648.488)" fill="#f7b242"/>
              </g>
            </g>
            <path id="Trazado_150913" data-name="Trazado 150913" d="M1026.069,838.906s-26.747,4.506-26.367,19.97" transform="translate(-962.957 -660.849)" fill="none" stroke="#868695" stroke-linecap="round" stroke-miterlimit="10" stroke-width="2.579"/>
            <line id="Línea_1693" data-name="Línea 1693" x1="29.745" y1="2.771" transform="translate(30.618 172.604)" fill="none" stroke="#868695" stroke-linecap="round" stroke-miterlimit="10" stroke-width="2.579"/>
            <path id="Trazado_150914" data-name="Trazado 150914" d="M1009.066,811.8s-21.443-14.509-27.123-18.269" transform="translate(-955.295 -641.269)" fill="none" stroke="#868695" stroke-linecap="round" stroke-miterlimit="10" stroke-width="2.579"/>
          </g>
          <path id="Trazado_150915" data-name="Trazado 150915" d="M1370.529,786.633s9.893,7.694,5.5,19.784l-81.286,15.755-.593-4.51Z" transform="translate(-1051.205 -638.292)" fill="#1d272b"/>
          <path id="Trazado_150916" data-name="Trazado 150916" d="M1337.176,810.488s3.52.8,4.892,2.425,2.687,6.4,1.468,8.277-5.634-2.53-6.36-4.115c0,0-3.444.111-5.37-1" transform="translate(-1067.456 -648.586)" fill="#f7b242"/>
          <path id="Trazado_150917" data-name="Trazado 150917" d="M1355.029,834.214a2.194,2.194,0,0,0,2.193,2.2h0a2.2,2.2,0,0,0,2.2-2.2v-9.284a2.193,2.193,0,0,0-2.2-2.2h0a2.191,2.191,0,0,0-2.193,2.2Z" transform="translate(-1077.477 -653.869)" fill="#f7b242"/>
          <path id="Trazado_150918" data-name="Trazado 150918" d="M1362.127,831.787a2.2,2.2,0,0,0,2.2,2.2h0a2.2,2.2,0,0,0,2.2-2.2v-9.282a2.2,2.2,0,0,0-2.2-2.2h0a2.2,2.2,0,0,0-2.2,2.2Z" transform="translate(-1080.54 -652.824)" fill="#f7b242"/>
          <path id="Trazado_150919" data-name="Trazado 150919" d="M1369.873,829.977a2.2,2.2,0,0,0,2.192,2.194h0a2.2,2.2,0,0,0,2.205-2.194v-9.288a2.2,2.2,0,0,0-2.205-2.2h0a2.192,2.192,0,0,0-2.192,2.2Z" transform="translate(-1083.882 -652.04)" fill="#f7b242"/>
          <path id="Trazado_150920" data-name="Trazado 150920" d="M1377.607,829.165a2.2,2.2,0,0,0,2.2,2.2h0a2.2,2.2,0,0,0,2.2-2.2v-9.28a2.2,2.2,0,0,0-2.2-2.205h0a2.2,2.2,0,0,0-2.2,2.205Z" transform="translate(-1087.22 -651.689)" fill="#f7b242"/>
          <path id="Trazado_150921" data-name="Trazado 150921" d="M1220.335,842.555s-18.567,4.37-25.9,22.451-6.356,175.908-39.528,198.625c0,0-48.432,26.568-38.086-40.311,9.018-58.283,22.864-78.428,22.864-78.428" transform="translate(-974.061 -662.423)" fill="none" stroke="#1d272d" stroke-linecap="round" stroke-miterlimit="10" stroke-width="7.736"/>
          <path id="Trazado_150922" data-name="Trazado 150922" d="M1121.488,975.992l13.18,16.59s2.26-.134,6.719,2.447,7.451,1.636,8.339,4.656,1.485,2.307.9,4.257,4.862,5.33,4.508,8.8-7.35,6.968-12.369,9.224c-1.264.562-9.673,1.384-13.155-.682s-7.61-15.3-9.376-18.307-16.186-14.861-16.186-14.861A34.54,34.54,0,0,1,1121.488,975.992Z" transform="translate(-969.176 -720.004)" fill="#f7b242"/>
          <path id="Trazado_150923" data-name="Trazado 150923" d="M915.5,1419.553s25.371,24.348,26.9,25.5.619,4.133-.4,5.325-61.78-23.965-65.5-25.537-8.485-2.94-9.522-4.887,2.423-12.833,9.1-20.923l20.015-41.115s-.211-6,3.789-6.444c0,0,23.894,13.954,44.53,19.752,0,0-4.386,7.177-8.128,10.544C928.28,1388.962,915.5,1419.553,915.5,1419.553Z" transform="translate(-866.796 -882.029)" fill="#00111c"/>
          <path id="Trazado_150924" data-name="Trazado 150924" d="M1232.457,1434.314s34.647,6,36.556,6.1,2.83,3.078,2.638,4.635-64.614,14.674-68.576,15.451-8.681,2.305-10.632,1.268-5.163-12-4.148-22.44l-6.4-45.279s-3.522-4.854-.453-7.461c0,0,27.6-1.783,47.963-8.519,0,0,.371,8.405-.85,13.291C1225.941,1401.806,1232.457,1434.314,1232.457,1434.314Z" transform="translate(-1002.031 -893.509)" fill="#00111c"/>
          <path id="Trazado_150925" data-name="Trazado 150925" d="M1003.334,1209.52s7.583,24.245,14.962,43.982" transform="translate(-925.715 -820.775)" fill="none" stroke="#5179aa" stroke-linecap="round" stroke-miterlimit="10" stroke-width="2.579"/>
          <path id="Trazado_150926" data-name="Trazado 150926" d="M981.943,1240.6s18.094,30.567,27.123,37.06" transform="translate(-916.484 -834.188)" fill="none" stroke="#5179aa" stroke-linecap="round" stroke-miterlimit="10" stroke-width="2.579"/>
        </g>
      </g>
    </g>
    <g id="Grupo_128302" data-name="Grupo 128302" transform="translate(-56.32 154.06)">
      <g id="Grupo_90783" data-name="Grupo 90783" transform="translate(14.097 12.319)">
        <g id="Grupo_90780" data-name="Grupo 90780" transform="translate(49.482 6.461)">
          <path id="Trazado_149804" data-name="Trazado 149804" d="M224.556,159.767a4.2,4.2,0,0,1-.912-.391c-3.551-1.989-6.743-3.891-6.775-3.91a.272.272,0,0,1,.279-.468c.031.019,3.218,1.917,6.762,3.9.831.465,1.468.537,1.894.214,1.038-.788.937-3.857.3-6.482-.81-3.342-5.771-4.922-7.62-4.831a16.936,16.936,0,0,0-4.12.824.272.272,0,0,1-.181-.514,17.174,17.174,0,0,1,4.274-.854c2.343-.115,7.351,1.839,8.177,5.247.507,2.091.972,5.928-.5,7.045A1.72,1.72,0,0,1,224.556,159.767Z" transform="translate(-214.002 -147.252)" fill="#efebe9"/>
        </g>
        <g id="Grupo_90781" data-name="Grupo 90781" transform="translate(0 7.755)">
          <path id="Trazado_149805" data-name="Trazado 149805" d="M109.862,160.717a16.475,16.475,0,0,1-1.778-.6c-2.744-1.12-4.512-2.8-5.254-5-.692-2.046-.638-3.429.164-4.228,1.6-1.594,5.771-.164,8.815.881.431.148.838.287,1.208.408,3.9,1.275,5.869.576,5.889.569a.272.272,0,1,1,.189.511c-.086.032-2.17.767-6.247-.561-.373-.121-.782-.262-1.216-.411-2.745-.942-6.892-2.366-8.253-1.01-.632.629-.643,1.863-.032,3.667.69,2.04,2.353,3.61,4.944,4.668,5.213,2.126,13.307,1.584,17.062-.323a.273.273,0,1,1,.247.486C122.13,161.532,115.22,162.215,109.862,160.717Z" transform="translate(-102.348 -150.173)" fill="#97e8ce"/>
        </g>
        <path id="Trazado_149806" data-name="Trazado 149806" d="M175.8,147.485l-3.329-7.479a.547.547,0,0,0-.334-.3c-1.63-.507-2.912-1.491-8.4-5.491-5.747-4.186-11.865,1.273-15.165,3.18-2.464,1.423-8.156,4.338-10.1,5.329a.552.552,0,0,0-.146.876l6.465,6.684a.555.555,0,0,0,.453.165c4.288-.41,4.71.9,10.708,1.713,6.119.831,10.006-.472,13.171-2.794a7.726,7.726,0,0,1,6.07-1.117A.552.552,0,0,0,175.8,147.485Z" transform="translate(-122.294 -132.674)" fill="#b2f2ef"/>
        <path id="Trazado_149807" data-name="Trazado 149807" d="M144.8,146.305a.755.755,0,0,1,.2-1.2c2.6-1.337,6.129-3.177,7.967-4.239.546-.316,1.148-.71,1.784-1.128,2.628-1.727,6.228-4.091,9.555-3.16a6.43,6.43,0,0,1,2.046,1.015l1.077.785c4.058,2.958,5.581,4.069,7.046,4.674a.752.752,0,0,1,.4.39l1.792,4.026a.757.757,0,0,1-.633,1.061,8.435,8.435,0,0,0-4.3,1.578c-3.276,2.4-6.972,3.173-11.983,2.492a32.849,32.849,0,0,1-4.791-1l-.632-.178a13.344,13.344,0,0,0-4.8-.611.755.755,0,0,1-.58-.229Z" transform="translate(-125.867 -134.732)" fill="#00a79e"/>
        <g id="Grupo_90782" data-name="Grupo 90782" transform="translate(19.2 2.959)">
          <path id="Trazado_149808" data-name="Trazado 149808" d="M153.564,144.442c.581-.336,1.219-.755,1.894-1.2,2.747-1.8,6.51-4.275,9.945-3.315a6.617,6.617,0,0,1,2.1,1.044l1.139.831c4.3,3.136,5.912,4.31,7.48,4.957a.18.18,0,0,0,.093.01l-.2-.453c-1.46-.655-3.11-1.858-7.159-4.809l-1.138-.83a6.963,6.963,0,0,0-2.219-1.1c-3.594-1.006-7.436,1.518-10.244,3.362-.67.44-1.3.855-1.875,1.186-1.775,1.025-5.044,2.738-7.711,4.114l.264.273C148.588,147.145,151.8,145.459,153.564,144.442Z" transform="translate(-145.671 -139.351)" fill="#008f85"/>
          <path id="Trazado_149809" data-name="Trazado 149809" d="M179.485,152.268c-1.528-.631-3.127-1.8-7.406-4.916l-1.139-.83a6.966,6.966,0,0,0-2.219-1.1c-3.594-1.006-7.437,1.518-10.25,3.366-.667.438-1.3.852-1.868,1.182-1.528.883-4.164,2.275-6.57,3.524l.263.273c2.383-1.237,4.975-2.607,6.488-3.482.58-.335,1.214-.752,1.894-1.2,2.748-1.8,6.51-4.276,9.945-3.315a6.6,6.6,0,0,1,2.1,1.045l1.141.831c4.3,3.135,5.911,4.309,7.478,4.956a.179.179,0,0,0,.238-.1A.182.182,0,0,0,179.485,152.268Z" transform="translate(-148.1 -142.604)" fill="#008f85"/>
          <path id="Trazado_149810" data-name="Trazado 149810" d="M174.16,152.366a6.967,6.967,0,0,0-2.219-1.1c-3.594-1.005-7.436,1.519-10.25,3.367-.667.438-1.3.852-1.868,1.182-1.289.745-3.368,1.853-5.431,2.931l.008.009a.757.757,0,0,0,.366.206c2-1.046,3.987-2.108,5.238-2.831.58-.335,1.214-.752,1.894-1.2,2.747-1.8,6.51-4.276,9.945-3.315a6.6,6.6,0,0,1,2.1,1.044l1.139.83c2.211,1.612,3.711,2.705,4.859,3.475q.244-.064.485-.114c-1.174-.771-2.731-1.906-5.131-3.655Z" transform="translate(-150.527 -145.858)" fill="#008f85"/>
          <path id="Trazado_149811" data-name="Trazado 149811" d="M180.617,158.209a6.959,6.959,0,0,0-2.219-1.1c-3.594-1.005-7.437,1.519-10.243,3.361-.67.44-1.3.855-1.876,1.187-.477.276-1.062.6-1.714.956.17.042.341.087.513.134.518-.284.988-.547,1.383-.775.583-.337,1.22-.755,1.894-1.2,2.748-1.8,6.51-4.276,9.945-3.315a6.61,6.61,0,0,1,2.1,1.044l1.141.832c.836.609,1.569,1.143,2.221,1.615.121-.066.241-.128.363-.186-.688-.5-1.47-1.067-2.372-1.724Z" transform="translate(-156.192 -149.111)" fill="#008f85"/>
          <path id="Trazado_149812" data-name="Trazado 149812" d="M185.962,164.053a6.984,6.984,0,0,0-2.219-1.1c-3.594-1-7.436,1.519-10.243,3.362-.26.171-.512.335-.76.5.163.035.331.07.506.105l.454-.3c2.747-1.8,6.51-4.275,9.944-3.315a6.6,6.6,0,0,1,2.1,1.045l1.115.813c.106-.071.211-.146.316-.22l-.078-.057Z" transform="translate(-160.744 -152.365)" fill="#008f85"/>
        </g>
      </g>
      <g id="Grupo_90787" data-name="Grupo 90787" transform="translate(30.165 20.519)">
        <g id="Grupo_90784" data-name="Grupo 90784" transform="translate(49.482 6.461)">
          <path id="Trazado_149813" data-name="Trazado 149813" d="M260.812,178.269a4.2,4.2,0,0,1-.912-.391c-3.551-1.989-6.743-3.89-6.775-3.909a.273.273,0,0,1,.279-.468c.032.019,3.219,1.917,6.763,3.9.831.465,1.468.538,1.894.214,1.038-.788.937-3.857.3-6.482-.81-3.342-5.771-4.922-7.621-4.831a16.9,16.9,0,0,0-4.12.824.273.273,0,0,1-.181-.515,17.184,17.184,0,0,1,4.274-.854c2.343-.115,7.351,1.839,8.177,5.247.507,2.091.972,5.928-.5,7.045A1.719,1.719,0,0,1,260.812,178.269Z" transform="translate(-250.258 -165.754)" fill="#efebe9"/>
        </g>
        <g id="Grupo_90785" data-name="Grupo 90785" transform="translate(0 7.755)">
          <path id="Trazado_149814" data-name="Trazado 149814" d="M146.118,179.219a16.258,16.258,0,0,1-1.778-.6c-2.744-1.12-4.512-2.8-5.255-5-.692-2.046-.638-3.429.164-4.228,1.6-1.594,5.771-.164,8.815.881.431.148.838.287,1.208.408,3.9,1.276,5.87.576,5.889.569a.273.273,0,0,1,.189.511c-.087.032-2.17.767-6.247-.562-.372-.121-.782-.262-1.215-.411-2.745-.941-6.892-2.366-8.253-1.01-.632.629-.643,1.863-.032,3.667.689,2.04,2.353,3.61,4.944,4.668,5.213,2.126,13.307,1.584,17.062-.323a.273.273,0,1,1,.247.486C158.386,180.034,151.476,180.717,146.118,179.219Z" transform="translate(-138.604 -168.675)" fill="#9de2f5"/>
        </g>
        <path id="Trazado_149815" data-name="Trazado 149815" d="M212.06,165.987l-3.329-7.479a.544.544,0,0,0-.334-.3c-1.63-.507-2.912-1.492-8.4-5.491-5.748-4.186-11.865,1.273-15.165,3.18-2.464,1.423-8.156,4.338-10.1,5.329a.552.552,0,0,0-.146.876l6.465,6.684a.556.556,0,0,0,.453.165c4.288-.411,4.71.9,10.708,1.713,6.119.831,10.006-.472,13.171-2.794a7.726,7.726,0,0,1,6.07-1.117A.551.551,0,0,0,212.06,165.987Z" transform="translate(-158.55 -151.176)" fill="#b2f2ef"/>
        <path id="Trazado_149816" data-name="Trazado 149816" d="M181.056,164.808a.756.756,0,0,1,.2-1.2c2.6-1.337,6.13-3.177,7.967-4.239.546-.316,1.148-.711,1.784-1.129,2.628-1.726,6.228-4.091,9.555-3.16A6.425,6.425,0,0,1,202.6,156.1l1.077.785c4.058,2.958,5.581,4.068,7.046,4.673a.752.752,0,0,1,.4.39l1.792,4.026a.757.757,0,0,1-.633,1.06,8.435,8.435,0,0,0-4.3,1.578c-3.276,2.4-6.972,3.173-11.983,2.492a32.924,32.924,0,0,1-4.791-1l-.631-.177a13.346,13.346,0,0,0-4.8-.612.755.755,0,0,1-.58-.229Z" transform="translate(-162.124 -153.234)" fill="#00a79e"/>
        <g id="Grupo_90786" data-name="Grupo 90786" transform="translate(19.2 2.959)">
          <path id="Trazado_149817" data-name="Trazado 149817" d="M189.82,162.945c.582-.336,1.218-.754,1.894-1.2,2.747-1.8,6.51-4.276,9.945-3.315a6.608,6.608,0,0,1,2.1,1.045l1.139.83c4.3,3.136,5.913,4.31,7.48,4.957a.176.176,0,0,0,.094.01l-.2-.453c-1.46-.655-3.11-1.858-7.159-4.809l-1.138-.83a6.972,6.972,0,0,0-2.219-1.1c-3.594-1.005-7.437,1.518-10.244,3.362-.67.44-1.3.855-1.875,1.186-1.775,1.025-5.044,2.738-7.711,4.114l.264.273C184.844,165.647,188.061,163.961,189.82,162.945Z" transform="translate(-181.927 -157.853)" fill="#008f85"/>
          <path id="Trazado_149818" data-name="Trazado 149818" d="M215.741,170.77c-1.527-.631-3.127-1.8-7.406-4.916l-1.138-.829a6.961,6.961,0,0,0-2.219-1.1c-3.594-1.005-7.436,1.519-10.25,3.366-.667.438-1.3.852-1.868,1.182-1.528.883-4.164,2.275-6.57,3.524l.264.273c2.383-1.237,4.975-2.607,6.488-3.482.58-.335,1.214-.752,1.894-1.2,2.747-1.805,6.51-4.276,9.945-3.315a6.606,6.606,0,0,1,2.1,1.044l1.141.831c4.3,3.136,5.911,4.309,7.478,4.956a.178.178,0,0,0,.237-.1A.182.182,0,0,0,215.741,170.77Z" transform="translate(-184.356 -161.106)" fill="#008f85"/>
          <path id="Trazado_149819" data-name="Trazado 149819" d="M210.416,170.869a6.966,6.966,0,0,0-2.219-1.1c-3.594-1.005-7.437,1.519-10.251,3.367-.667.438-1.3.852-1.868,1.182-1.289.745-3.368,1.853-5.431,2.931l.008.009a.754.754,0,0,0,.366.205c2-1.046,3.988-2.108,5.238-2.831.58-.335,1.214-.751,1.894-1.2,2.747-1.8,6.51-4.276,9.945-3.315a6.61,6.61,0,0,1,2.1,1.044l1.139.83c2.212,1.612,3.711,2.705,4.86,3.475.162-.043.324-.081.485-.114-1.174-.771-2.731-1.906-5.131-3.655Z" transform="translate(-186.783 -164.36)" fill="#008f85"/>
          <path id="Trazado_149820" data-name="Trazado 149820" d="M216.874,176.712a6.969,6.969,0,0,0-2.219-1.1c-3.594-1.006-7.436,1.518-10.243,3.361-.669.44-1.3.855-1.876,1.187-.477.275-1.062.6-1.714.956.17.042.341.087.513.133.518-.284.988-.547,1.383-.775.583-.337,1.22-.755,1.894-1.2,2.747-1.8,6.51-4.276,9.945-3.315a6.614,6.614,0,0,1,2.1,1.044l1.141.832c.836.609,1.569,1.143,2.221,1.615q.181-.1.363-.186c-.688-.5-1.47-1.067-2.372-1.724Z" transform="translate(-192.449 -167.614)" fill="#008f85"/>
          <path id="Trazado_149821" data-name="Trazado 149821" d="M222.219,182.555a6.966,6.966,0,0,0-2.219-1.1c-3.594-1.005-7.436,1.518-10.243,3.361-.26.171-.512.335-.76.5.163.035.331.07.506.105l.453-.3c2.748-1.8,6.51-4.275,9.945-3.315a6.6,6.6,0,0,1,2.1,1.045l1.115.813c.106-.071.211-.146.315-.22l-.078-.057Z" transform="translate(-197.001 -170.868)" fill="#008f85"/>
        </g>
      </g>
      <g id="Grupo_90795" data-name="Grupo 90795" transform="translate(0 0)">
        <g id="Grupo_90788" data-name="Grupo 90788" transform="translate(15.748 6.316)">
          <rect id="Rectángulo_33170" data-name="Rectángulo 33170" width="6.242" height="6.242" transform="translate(7.873 5.932) rotate(161.881)" fill="#cfd8dc"/>
          <rect id="Rectángulo_33171" data-name="Rectángulo 33171" width="4.244" height="6.242" transform="matrix(-0.95, 0.311, -0.311, -0.95, 6.924, 6.243)" fill="#37474f"/>
          <rect id="Rectángulo_33172" data-name="Rectángulo 33172" width="1.698" height="6.242" transform="translate(5.714 6.639) rotate(161.882)" fill="#fff"/>
        </g>
        <path id="Trazado_149822" data-name="Trazado 149822" d="M93.6,106.116l1.646,5.03a1.8,1.8,0,0,1-1.15,2.268l-8.258,2.7a1.8,1.8,0,0,1-2.267-1.149l-.435-1.329a1.8,1.8,0,0,0-2.268-1.149l-9.776,3.2-.559-1.708,20.8-9.012A1.8,1.8,0,0,1,93.6,106.116Z" transform="translate(-70.538 -104.877)" fill="#fff"/>
        <g id="Grupo_90790" data-name="Grupo 90790" transform="translate(14.934 10.626)">
          <rect id="Rectángulo_33173" data-name="Rectángulo 33173" width="11.485" height="4.394" rx="1.662" transform="translate(0 3.572) rotate(-18.119)" fill="#37474f"/>
          <g id="Grupo_90789" data-name="Grupo 90789" transform="translate(1.196 0.989)">
            <path id="Trazado_149823" data-name="Trazado 149823" d="M126,131.109a.474.474,0,0,1,.6.3l.683,2.088a.474.474,0,0,1-.9.3l-.683-2.088A.474.474,0,0,1,126,131.109Z" transform="translate(-117.368 -131.086)" fill="#2a383e"/>
            <path id="Trazado_149824" data-name="Trazado 149824" d="M122.252,132.335a.474.474,0,0,1,.6.3l.683,2.088a.474.474,0,1,1-.9.3l-.683-2.088A.475.475,0,0,1,122.252,132.335Z" transform="translate(-115.281 -131.768)" fill="#2a383e"/>
            <path id="Trazado_149825" data-name="Trazado 149825" d="M118.5,133.562a.474.474,0,0,1,.6.3l.683,2.088a.474.474,0,0,1-.9.3l-.683-2.088A.474.474,0,0,1,118.5,133.562Z" transform="translate(-113.194 -132.451)" fill="#2a383e"/>
            <path id="Trazado_149826" data-name="Trazado 149826" d="M114.756,134.788a.474.474,0,0,1,.6.3l.683,2.088a.474.474,0,1,1-.9.3l-.683-2.088A.474.474,0,0,1,114.756,134.788Z" transform="translate(-111.107 -133.134)" fill="#2a383e"/>
            <path id="Trazado_149827" data-name="Trazado 149827" d="M111.008,136.014a.474.474,0,0,1,.6.3l.683,2.088a.474.474,0,1,1-.9.295l-.683-2.088A.475.475,0,0,1,111.008,136.014Z" transform="translate(-109.021 -133.817)" fill="#2a383e"/>
            <path id="Trazado_149828" data-name="Trazado 149828" d="M107.26,137.241a.474.474,0,0,1,.6.3l.683,2.088a.474.474,0,0,1-.9.3l-.683-2.088A.474.474,0,0,1,107.26,137.241Z" transform="translate(-106.934 -134.5)" fill="#2a383e"/>
          </g>
        </g>
        <path id="Trazado_149829" data-name="Trazado 149829" d="M75.292,112.653c2.445-.725,4.905-1.626,7.456-1.556a2.259,2.259,0,0,1,1.272.322,6.212,6.212,0,0,1,.887,1.084,2.887,2.887,0,0,0,2.35.842,8.541,8.541,0,0,0,2.488-.667,4.993,4.993,0,0,0,2.671-1.76c1.165-1.914.242-4.151-1.342-5.836l.264-.114a1.8,1.8,0,0,1,2.268,1.15l1.646,5.03a1.8,1.8,0,0,1-1.15,2.268l-8.258,2.7a1.8,1.8,0,0,1-2.267-1.149l-.435-1.329a1.8,1.8,0,0,0-2.268-1.149l-9.776,3.2-.559-1.708,1.241-.538A22.3,22.3,0,0,0,75.292,112.653Z" transform="translate(-70.538 -104.877)" fill="#cfd8dc"/>
        <g id="Grupo_90792" data-name="Grupo 90792" transform="translate(11.122 15.222)">
          <g id="Grupo_90791" data-name="Grupo 90791">
            <path id="Trazado_149830" data-name="Trazado 149830" d="M95.87,157.069c-1.677-7.237,6.113-15.076,6.113-15.076l2.224-.728,4.013-1.313,2.224-.728s10.917,1.717,13.84,8.547,7.351,27.214,5.752,29.707c-.78,1.214-3.914,3.434-7.859,5.128q-.241.1-.485.2a21.79,21.79,0,0,1-3.021.988q-.255.063-.507.122c-4.184.966-8.023,1.027-9.37.51C106.027,183.365,97.55,164.308,95.87,157.069Z" transform="translate(-95.633 -139.225)" fill="#cfd8dc"/>
            <path id="Trazado_149831" data-name="Trazado 149831" d="M121.426,183.8c.472-.154.944-.328,1.4-.516q.235-.1.467-.2c3.848-1.653,6.68-3.736,7.268-4.621.326-.724.22-4.647-1.4-12.555a99.355,99.355,0,0,0-4.439-15.956c-2.352-5.495-10.86-7.394-12.556-7.722l-7.837,2.564c-1.173,1.264-6.914,7.828-5.564,13.651a99.468,99.468,0,0,0,5.853,15.493c3.366,7.339,5.6,10.565,6.29,10.956.995.367,4.511.373,8.595-.569q.241-.056.487-.117C120.47,184.1,120.953,183.959,121.426,183.8Z" transform="translate(-97.263 -140.903)" fill="#fff"/>
          </g>
          <path id="Trazado_149832" data-name="Trazado 149832" d="M124.708,178.6c-2.75-7.567-5.4-15.34-6.6-19.341a34.191,34.191,0,0,1-1.148-14.237l2.742-.9a34.168,34.168,0,0,1,7.489,12.162c1.4,3.935,3.853,11.773,6.108,19.5,1.044,3.579,1.847,6.453,2.445,8.686-.592.3-1.211.586-1.853.862q-.241.1-.485.2a21.791,21.791,0,0,1-3.021.988q-.255.063-.507.122c-.681.157-1.352.29-2.005.4C127.032,184.891,125.981,182.1,124.708,178.6Z" transform="translate(-107.345 -141.951)" fill="#bdbdbd"/>
        </g>
        <g id="Grupo_90794" data-name="Grupo 90794" transform="translate(13.745 29.017)">
          <path id="Trazado_149833" data-name="Trazado 149833" d="M106.31,191.748a72.428,72.428,0,0,0,25.764-8.43l-3.606-12.966a72.508,72.508,0,0,1-26.914,8.807Z" transform="translate(-101.553 -170.352)" fill="#ebfdff"/>
          <g id="Grupo_90793" data-name="Grupo 90793" transform="translate(11.347 7.423)">
            <path id="Trazado_149834" data-name="Trazado 149834" d="M127.158,191.346q1.22-.32,2.427-.683l-.823-2.467q1.686-.506,3.346-1.095l.795,2.476q1.188-.421,2.362-.884.53,1.7,1.053,3.374-1.161.457-2.335.872l.764,2.379q-1.613.57-3.252,1.064l-.791-2.37q-1.193.359-2.4.677Z" transform="translate(-127.158 -187.101)" fill="#0090b8"/>
          </g>
        </g>
      </g>
      <g id="Grupo_90798" data-name="Grupo 90798" transform="translate(2.922 30.389)">
        <path id="Trazado_149835" data-name="Trazado 149835" d="M90.7,207.832l8.357,96.1a5.774,5.774,0,0,0,5.752,5.274h53.756a5.775,5.775,0,0,0,5.753-5.274l8.357-96.1Z" transform="translate(-84.685 -192.593)" fill="#d93328"/>
        <path id="Trazado_149836" data-name="Trazado 149836" d="M159.578,224.689H109.825a7.729,7.729,0,0,0-7.7,8.4l6.922,74.568a3.793,3.793,0,0,0,3.778,3.464h49.632a3.792,3.792,0,0,0,3.792-3.793l-2.881-78.845A3.793,3.793,0,0,0,159.578,224.689Z" transform="translate(-91.032 -201.98)" fill="#b42218"/>
        <path id="Trazado_149837" data-name="Trazado 149837" d="M131.779,328.535H121.8a2.48,2.48,0,0,0-2.471,2.695l2.7,31.1a2.476,2.476,0,0,0,3.489,2.044q3.614-1.643,7.584-3.134a3.792,3.792,0,0,0,2.464-3.547V332.324A3.789,3.789,0,0,0,131.779,328.535Z" transform="translate(-100.621 -259.804)" fill="#d93328"/>
        <path id="Trazado_149838" data-name="Trazado 149838" d="M169.005,173.447H79.257a2.337,2.337,0,0,0-2.126,2.524l.109,10.252a2.326,2.326,0,0,0,2.126,2.462H168.9a2.327,2.327,0,0,0,2.127-2.462l.109-10.252A2.338,2.338,0,0,0,169.005,173.447Z" transform="translate(-77.131 -173.447)" fill="#b42218"/>
        <g id="Grupo_90796" data-name="Grupo 90796" transform="translate(4.019 3.989)">
          <path id="Trazado_149839" data-name="Trazado 149839" d="M117.916,182.447h-30.4a1.32,1.32,0,0,0-1.32,1.335l.049,4.62a1.321,1.321,0,0,0,1.321,1.306h8.553a.692.692,0,0,0,.508-.209c2.232-2.386,10.207-4.433,21.359-5.7a.682.682,0,0,0,.606-.675h0A.68.68,0,0,0,117.916,182.447Z" transform="translate(-86.199 -182.447)" fill="#d93328"/>
        </g>
        <g id="Grupo_90797" data-name="Grupo 90797" transform="translate(22.876 29.063)">
          <path id="Trazado_149840" data-name="Trazado 149840" d="M184.359,264.721c-.516-.3-1.028-.56-1.494-.887a.673.673,0,0,1-.19-.571,2.893,2.893,0,0,0-1.98-3.348c-.144-.042-.342-.219-.35-.344-.038-.565-.017-1.134-.017-1.692a9.566,9.566,0,0,0,1.812-18.827c2.473-.236,6.905,2.876,8.7,6.157a12.624,12.624,0,0,1,.726,10.754A12.6,12.6,0,0,1,201.7,272.211c.615-5.7-1.411-9.807-7.007-11.4C190.5,259.624,187.046,261.23,184.359,264.721Z" transform="translate(-157.466 -239.034)" fill="#f8f8f8"/>
          <path id="Trazado_149841" data-name="Trazado 149841" d="M174.91,308.881a12.546,12.546,0,0,1-19.31-.475,12.513,12.513,0,0,1-11.671,4.495,11.729,11.729,0,0,1-7.133-3.739c4.188,2.989,8.486,3.387,12.541,0,3.672-3.063,4.16-7.079,2.43-11.5.5-.291.994-.607,1.518-.871a.6.6,0,0,1,.481.13,2.849,2.849,0,0,0,3.793,0,.632.632,0,0,1,.539-.065c.511.253.993.563,1.492.855-1.93,4.973-1.149,9.321,3.4,12.323C167.115,312.775,171.2,311.993,174.91,308.881Z" transform="translate(-133.23 -271.187)" fill="#f8f8f8"/>
          <path id="Trazado_149842" data-name="Trazado 149842" d="M146.775,264.639a9.665,9.665,0,0,0-11.62-3.634,9.417,9.417,0,0,0-4.928,4.576,9.838,9.838,0,0,0-.745,6.622c-2.325-5.428.844-14.888,9.881-16.379-3.106-8.918,3.414-16.037,9.516-16.8a9.9,9.9,0,0,0-5.383,3.651,9.3,9.3,0,0,0-1.843,6.278,9.654,9.654,0,0,0,8.94,8.917c0,.559.027,1.13-.017,1.694a.677.677,0,0,1-.373.42,2.89,2.89,0,0,0-1.814,3.283.682.682,0,0,1-.211.546C147.746,264.118,147.27,264.356,146.775,264.639Z" transform="translate(-128.748 -239.027)" fill="#f8f8f8"/>
          <path id="Trazado_149843" data-name="Trazado 149843" d="M159.728,301.574a11.87,11.87,0,0,1-7.238-11.786c.019-.37.121-.567.534-.459.693.182,1.4.316,2.075.551a.837.837,0,0,1,.442.625,8.87,8.87,0,0,0,4.559,7.863.686.686,0,0,1,.311.529C160.224,299.774,159.974,300.638,159.728,301.574Z" transform="translate(-141.957 -267.02)" fill="#f8f8f8"/>
          <path id="Trazado_149844" data-name="Trazado 149844" d="M196.121,289.375a11.7,11.7,0,0,1-7.128,12.34c-.235-.927-.486-1.83-.673-2.746-.026-.128.232-.369.408-.474a8.8,8.8,0,0,0,4.3-6.028,10.059,10.059,0,0,0,.173-1.769c.009-.346.089-.57.436-.661C194.447,289.823,195.257,289.605,196.121,289.375Z" transform="translate(-161.918 -267.062)" fill="#f8f8f8"/>
          <path id="Trazado_149845" data-name="Trazado 149845" d="M177.495,267.994c-.686.67-1.32,1.311-1.988,1.915a.606.606,0,0,1-.55.007,8.918,8.918,0,0,0-9.206-.008.658.658,0,0,1-.6-.029c-.656-.588-1.272-1.22-1.909-1.844C166.658,265.077,172.967,264.487,177.495,267.994Z" transform="translate(-147.956 -253.815)" fill="#f8f8f8"/>
        </g>
      </g>
    </g>
  </g>
  <path id="Trazado_166049" data-name="Trazado 166049" d="M3.779-4.509V0H1.143V-12.8H6.135a5.776,5.776,0,0,1,2.536.527,3.886,3.886,0,0,1,1.683,1.5,4.178,4.178,0,0,1,.589,2.21A3.674,3.674,0,0,1,9.655-5.594,5.363,5.363,0,0,1,6.091-4.509Zm0-2.136H6.135a2.316,2.316,0,0,0,1.6-.492,1.79,1.79,0,0,0,.549-1.406,2.111,2.111,0,0,0-.554-1.521,2.068,2.068,0,0,0-1.529-.6H3.779ZM17.49-4.685h-2.1V0H12.753V-12.8h4.755a5.375,5.375,0,0,1,3.5,1.011,3.488,3.488,0,0,1,1.23,2.856,3.937,3.937,0,0,1-.567,2.184,3.866,3.866,0,0,1-1.718,1.393L22.72-.123V0H19.89ZM15.39-6.82h2.127a2.178,2.178,0,0,0,1.538-.505A1.806,1.806,0,0,0,19.6-8.719a1.933,1.933,0,0,0-.514-1.424,2.137,2.137,0,0,0-1.578-.519H15.39Zm19.362.712a7.725,7.725,0,0,1-.668,3.313A5.03,5.03,0,0,1,32.172-.6,5.288,5.288,0,0,1,29.32.176a5.324,5.324,0,0,1-2.839-.765,5.08,5.08,0,0,1-1.934-2.184,7.5,7.5,0,0,1-.694-3.265v-.633A7.685,7.685,0,0,1,24.535-10,5.072,5.072,0,0,1,26.459-12.2a5.3,5.3,0,0,1,2.843-.769,5.3,5.3,0,0,1,2.843.769A5.072,5.072,0,0,1,34.071-10a7.663,7.663,0,0,1,.681,3.318Zm-2.672-.58a5.385,5.385,0,0,0-.721-3.059A2.349,2.349,0,0,0,29.3-10.793,2.349,2.349,0,0,0,27.255-9.76a5.324,5.324,0,0,0-.729,3.028v.624a5.453,5.453,0,0,0,.721,3.041A2.342,2.342,0,0,0,29.32-1.986a2.321,2.321,0,0,0,2.039-1.042,5.421,5.421,0,0,0,.721-3.037ZM46.714-4.263a4.528,4.528,0,0,1-1.525,3.252A5.355,5.355,0,0,1,41.563.176a4.816,4.816,0,0,1-3.872-1.657,6.793,6.793,0,0,1-1.411-4.548v-.782a7.671,7.671,0,0,1,.65-3.252,4.874,4.874,0,0,1,1.859-2.158,5.207,5.207,0,0,1,2.808-.751,5.217,5.217,0,0,1,3.568,1.187,4.866,4.866,0,0,1,1.564,3.331H44.095a2.673,2.673,0,0,0-.69-1.8,2.555,2.555,0,0,0-1.806-.558,2.24,2.24,0,0,0-1.973.945,5.3,5.3,0,0,0-.672,2.931v.967a5.667,5.667,0,0,0,.628,3.032,2.2,2.2,0,0,0,1.982.958,2.6,2.6,0,0,0,1.824-.558,2.521,2.521,0,0,0,.69-1.727Zm9.431-1.283H51.082v3.428h5.941V0H48.445V-12.8h8.561v2.136H51.082v3.05h5.063ZM58.57,0V-12.8h3.938a5.98,5.98,0,0,1,3.019.76,5.3,5.3,0,0,1,2.079,2.162,6.669,6.669,0,0,1,.747,3.186V-6.1a6.688,6.688,0,0,1-.734,3.173,5.256,5.256,0,0,1-2.07,2.153A6.025,6.025,0,0,1,62.534,0Zm2.637-10.661v8.543h1.274a2.863,2.863,0,0,0,2.364-1.011,4.567,4.567,0,0,0,.835-2.892V-6.7a4.64,4.64,0,0,0-.809-2.958,2.854,2.854,0,0,0-2.364-1.006ZM73.072,0H70.436V-12.8h2.637Zm5.889-12.8,3.287,9.281,3.27-9.281H88.98V0H86.335V-3.5L86.6-9.536,83.145,0H81.334L77.889-9.527,78.152-3.5V0H75.516V-12.8ZM94.087,0H91.45V-12.8h2.637Zm10.143-5.546H99.167v3.428h5.941V0H96.53V-12.8h8.561v2.136H99.167v3.05h5.063ZM117.062,0h-2.637l-5.133-8.42V0h-2.637V-12.8h2.637l5.142,8.438V-12.8h2.628ZM129-10.661h-3.92V0H122.44V-10.661h-3.867V-12.8H129Zm11.769,4.553a7.725,7.725,0,0,1-.668,3.313,5.03,5.03,0,0,1-1.912,2.2,5.288,5.288,0,0,1-2.852.773A5.324,5.324,0,0,1,132.5-.589a5.08,5.08,0,0,1-1.934-2.184,7.5,7.5,0,0,1-.694-3.265v-.633A7.685,7.685,0,0,1,130.548-10a5.072,5.072,0,0,1,1.925-2.206,5.3,5.3,0,0,1,2.843-.769,5.3,5.3,0,0,1,2.843.769A5.072,5.072,0,0,1,140.084-10a7.663,7.663,0,0,1,.681,3.318Zm-2.672-.58a5.385,5.385,0,0,0-.721-3.059,2.349,2.349,0,0,0-2.057-1.046,2.349,2.349,0,0,0-2.048,1.033,5.324,5.324,0,0,0-.729,3.028v.624a5.453,5.453,0,0,0,.721,3.041,2.342,2.342,0,0,0,2.074,1.081,2.321,2.321,0,0,0,2.039-1.042,5.421,5.421,0,0,0,.721-3.037Zm11.224,3.331A1.353,1.353,0,0,0,148.79-4.5a6.917,6.917,0,0,0-1.9-.844,13.458,13.458,0,0,1-2.171-.875,3.547,3.547,0,0,1-2.18-3.173,3.09,3.09,0,0,1,.584-1.85,3.812,3.812,0,0,1,1.679-1.27,6.318,6.318,0,0,1,2.457-.457,5.751,5.751,0,0,1,2.443.5,3.891,3.891,0,0,1,1.666,1.4,3.668,3.668,0,0,1,.593,2.057h-2.637a1.726,1.726,0,0,0-.554-1.367,2.276,2.276,0,0,0-1.556-.488,2.432,2.432,0,0,0-1.5.409,1.289,1.289,0,0,0-.536,1.077,1.235,1.235,0,0,0,.628,1.046,7.1,7.1,0,0,0,1.85.791,7.994,7.994,0,0,1,3.278,1.679,3.343,3.343,0,0,1,1.028,2.5,3.08,3.08,0,0,1-1.257,2.606,5.5,5.5,0,0,1-3.384.945,6.534,6.534,0,0,1-2.689-.541,4.256,4.256,0,0,1-1.85-1.481,3.793,3.793,0,0,1-.637-2.18h2.646q0,2.118,2.531,2.118a2.462,2.462,0,0,0,1.468-.382A1.244,1.244,0,0,0,149.317-3.357Z" transform="translate(259 31.863)" fill="#008f85"/>
  <path id="Trazado_166050" data-name="Trazado 166050" d="M1.206,0V-13.508H5.362a6.312,6.312,0,0,1,3.187.8,5.6,5.6,0,0,1,2.194,2.282,7.039,7.039,0,0,1,.789,3.363v.622a7.059,7.059,0,0,1-.775,3.349A5.548,5.548,0,0,1,8.572-.816,6.359,6.359,0,0,1,5.39,0ZM3.989-11.253v9.018H5.334A3.022,3.022,0,0,0,7.83-3.3a4.821,4.821,0,0,0,.881-3.052v-.714a4.9,4.9,0,0,0-.854-3.122,3.012,3.012,0,0,0-2.5-1.062Zm17.692,5.4H16.337v3.618h6.271V0H13.554V-13.508H22.59v2.254H16.337v3.219h5.344ZM36.6-2.783h-4.88L30.792,0H27.832L32.86-13.508h2.579L40.5,0H37.536ZM32.471-5.038h3.377l-1.7-5.056ZM48.762-3.544a1.428,1.428,0,0,0-.557-1.211,7.3,7.3,0,0,0-2-.891,14.205,14.205,0,0,1-2.292-.923,3.744,3.744,0,0,1-2.3-3.349,3.262,3.262,0,0,1,.617-1.953A4.024,4.024,0,0,1,44-13.211a6.669,6.669,0,0,1,2.593-.482,6.071,6.071,0,0,1,2.579.524,4.107,4.107,0,0,1,1.758,1.48,3.872,3.872,0,0,1,.626,2.171H48.771a1.821,1.821,0,0,0-.584-1.443,2.4,2.4,0,0,0-1.642-.515,2.567,2.567,0,0,0-1.586.431,1.361,1.361,0,0,0-.566,1.136,1.3,1.3,0,0,0,.663,1.1,7.494,7.494,0,0,0,1.953.835A8.438,8.438,0,0,1,50.469-6.2a3.529,3.529,0,0,1,1.085,2.635A3.251,3.251,0,0,1,50.228-.812a5.808,5.808,0,0,1-3.572,1,6.9,6.9,0,0,1-2.839-.571,4.492,4.492,0,0,1-1.953-1.563,4,4,0,0,1-.673-2.3h2.792q0,2.236,2.672,2.236a2.6,2.6,0,0,0,1.549-.4A1.313,1.313,0,0,0,48.762-3.544Zm12.8-2.31H56.221v3.618h6.271V0H53.438V-13.508h9.036v2.254H56.221v3.219h5.344Zm5.344,1.095V0H64.125V-13.508h5.27a6.1,6.1,0,0,1,2.677.557,4.1,4.1,0,0,1,1.777,1.582,4.41,4.41,0,0,1,.622,2.333A3.878,3.878,0,0,1,73.11-5.905a5.661,5.661,0,0,1-3.762,1.146Zm0-2.254h2.486a2.445,2.445,0,0,0,1.684-.52,1.89,1.89,0,0,0,.58-1.484,2.228,2.228,0,0,0-.584-1.6,2.183,2.183,0,0,0-1.614-.631H66.908Zm16.477,3.47a1.428,1.428,0,0,0-.557-1.211,7.3,7.3,0,0,0-2-.891,14.206,14.206,0,0,1-2.292-.923,3.744,3.744,0,0,1-2.3-3.349,3.262,3.262,0,0,1,.617-1.953,4.024,4.024,0,0,1,1.772-1.341,6.669,6.669,0,0,1,2.593-.482,6.071,6.071,0,0,1,2.579.524,4.107,4.107,0,0,1,1.758,1.48,3.872,3.872,0,0,1,.626,2.171H83.394a1.821,1.821,0,0,0-.584-1.443,2.4,2.4,0,0,0-1.642-.515,2.567,2.567,0,0,0-1.586.431,1.361,1.361,0,0,0-.566,1.136,1.3,1.3,0,0,0,.663,1.1,7.494,7.494,0,0,0,1.953.835A8.438,8.438,0,0,1,85.092-6.2a3.529,3.529,0,0,1,1.085,2.635A3.251,3.251,0,0,1,84.851-.812a5.808,5.808,0,0,1-3.572,1A6.9,6.9,0,0,1,78.44-.385a4.492,4.492,0,0,1-1.953-1.563,4,4,0,0,1-.673-2.3h2.792q0,2.236,2.672,2.236a2.6,2.6,0,0,0,1.549-.4A1.313,1.313,0,0,0,83.385-3.544ZM91.02,0H88.237V-13.508H91.02Zm10.205-2.783h-4.88L95.417,0H92.458l5.028-13.508h2.579L105.122,0h-2.959ZM97.1-5.038h3.377l-1.7-5.056Z" transform="translate(259 49.863)" fill="#1d272b"/>
  <rect id="Rectángulo_34968" data-name="Rectángulo 34968" width="4" height="53" transform="translate(250 7.863)" fill="#d93328"/>
</svg>
