<svg xmlns="http://www.w3.org/2000/svg" xmlns:xlink="http://www.w3.org/1999/xlink" width="256.577" height="392" viewBox="0 0 256.577 392">
  <defs>
    <linearGradient id="linear-gradient" x1="0.5" x2="0.5" y2="1" gradientUnits="objectBoundingBox">
      <stop offset="0" stop-color="#f5f5f5"/>
      <stop offset="0.25" stop-color="#f5f5f5"/>
      <stop offset="1" stop-color="#eeeef2"/>
    </linearGradient>
    <linearGradient id="linear-gradient-2" x1="0.5" x2="0.5" y2="1" gradientUnits="objectBoundingBox">
      <stop offset="0" stop-color="#fff"/>
      <stop offset="1" stop-color="#f8f8f8"/>
    </linearGradient>
    <radialGradient id="radial-gradient" cx="0.076" cy="0.019" r="1.465" gradientTransform="translate(0.001)" gradientUnits="objectBoundingBox">
      <stop offset="0" stop-color="#f6f6f7"/>
      <stop offset="0.477" stop-color="#f9f9fa"/>
      <stop offset="0.715" stop-color="#fff"/>
    </radialGradient>
  </defs>
  <g id="img7" transform="translate(0.001)">
    <path id="Trazado_165336" data-name="Trazado 165336" d="M302.689,470.552c9.667-24.285,12.417-55.8,7.3-83.634-3.236-17.6-9.447-33.942-10.241-52.291-1.588-36.686,18.431-66.344,22.584-102.475,1.825-15.879-.166-34.378-7.991-44.024-7.729-9.527-18.759-7.582-27.509-.91s-16.153,17.352-24.554,25.16-18.744,12.635-27.616,6.421c-8.986-6.295-14.083-22.161-16.938-37.625s-4.257-31.934-9.129-45.944c-8.031-23.09-25.153-35.679-41.11-32.421s-30.213,21.1-37.86,44.548-8.984,51.8-5.177,77.7c1.931,13.133,5.112,25.71,6.846,38.919s1.893,27.666-1.979,39.564c-8.1,24.879-29.461,28.348-40.648,49.684-9.233,17.609-9.523,44.482-4.283,66.137S99.472,458.584,109.29,475.3c45.8,2.552,92.413,2.721,138.209,5.273C265.3,481.565,284.911,472.287,302.689,470.552Z" transform="translate(-80.962 -100.196)" fill="#a4a4b4" opacity="0.354" style="mix-blend-mode: multiply;isolation: isolate"/>
    <path id="Trazado_165337" data-name="Trazado 165337" d="M359.21,166.424c-.113,12.1,11.385,22.622,9.384,34.551-1.07,6.382-5.934,12.853-3.107,18.674,2.5,5.151,9.662,6.044,15.139,4.37,12.818-3.921,20.609-17.024,24.335-29.9,3.5-12.112,4.375-25.64-1.238-36.931-4.523-9.1-14.958-17.128-25.554-16.385C368.462,141.483,359.294,157.314,359.21,166.424Z" transform="translate(-151.185 -67.348)" fill="#a4a4b4" opacity="0.31" style="mix-blend-mode: multiply;isolation: isolate"/>
    <path id="Trazado_165338" data-name="Trazado 165338" d="M112.811,133.913a45.8,45.8,0,0,0-.914,44.567c2.351,4.314,5.527,8.334,9.814,10.733s9.819,2.934,14.086.5c6.472-3.692,7.9-12.4,7.388-19.833s-2.2-15.226.663-22.1c1.866-4.484,5.449-7.98,8.628-11.652s6.146-7.958,6.31-12.812c.426-12.583-12.934-11.643-20.985-9.03A45.756,45.756,0,0,0,112.811,133.913Z" transform="translate(-81.535 -105.777)" fill="#a4a4b4" opacity="0.31" style="mix-blend-mode: multiply;isolation: isolate"/>
    <g id="Grupo_128378" data-name="Grupo 128378" transform="translate(3.203 0)" style="mix-blend-mode: multiply;isolation: isolate">
      <path id="Trazado_151849" data-name="Trazado 151849" d="M304.8,476.236l-1-1.489c2.742-4.906,7.12-16.153,5.638-36.375a246.411,246.411,0,0,0-3.876-26.492c-.706-3.842-1.436-7.814-2.074-11.759-6.8-42.089-3.826-88.519,8.161-127.383,1.065-3.449,2.217-6.91,3.331-10.256,3.3-9.92,6.72-20.18,8.189-31.262,2.576-19.447-2.516-34.023-8.338-39.336-5.585-5.1-13.47-4.32-21.63,2.139a106.61,106.61,0,0,0-8.693,8.046c-3.708,3.694-7.542,7.512-11.659,10.215-16.2,10.638-36.448,1.6-47.1-21.026-5.121-10.871-8.013-24.01-10.809-36.718-1.083-4.923-2.2-10.016-3.436-14.888-3.832-15.147-10.846-34.161-22.5-38.709-10.238-4-20.607,4.789-27.5,12.864-13.191,15.45-22.489,36.374-26.183,58.916-2.49,15.2-2.59,31.746-2.688,47.747-.144,23.828-.294,48.468-8.514,68.311-3.74,9.027-8.883,16.229-13.856,23.2-4.658,6.523-9.475,13.269-13.066,21.445-8.136,18.526-10.131,44.756-5.472,71.963,4.187,24.445,12.721,46.135,20.974,67.112l-1.134,1.195c-8.307-21.113-16.9-42.945-21.138-67.71-4.771-27.857-2.7-54.774,5.675-73.848,3.686-8.393,8.565-15.226,13.284-21.835,4.907-6.871,9.98-13.976,13.617-22.756,7.992-19.293,8.133-42.511,8.281-67.093.1-16.139.2-32.826,2.735-48.3,3.774-23.034,13.257-44.391,26.7-60.14,7.123-8.342,17.866-17.407,28.6-13.215,12.206,4.764,19.479,24.389,23.431,40.012,1.245,4.92,2.371,10.037,3.459,14.985,2.761,12.546,5.615,25.52,10.608,36.117,10.3,21.869,29.876,30.607,45.534,20.324,4.012-2.635,7.8-6.406,11.46-10.051a107.466,107.466,0,0,1,8.805-8.148c8.561-6.775,16.9-7.536,22.875-2.081,6.243,5.7,11.722,21.188,9,41.733-1.51,11.393-4.973,21.793-8.323,31.852-1.109,3.331-2.257,6.775-3.311,10.193-11.84,38.388-14.778,84.249-8.061,125.823.631,3.909,1.358,7.863,2.061,11.688a249.322,249.322,0,0,1,3.924,26.866C312.326,459.206,307.7,471.054,304.8,476.236Z" transform="translate(-87.906 -97.739)" fill="#a4a4b4"/>
    </g>
    <g id="Grupo_128379" data-name="Grupo 128379" transform="translate(21.177 51.277)">
      <g id="Grupo_121036" data-name="Grupo 121036" transform="translate(0 48.061)">
        <path id="Trazado_158690" data-name="Trazado 158690" d="M598.9,236.216c-.8-1.679-6.036,15.25-6.036,15.25l-.794-5.56L586.2,241.3s-2.859,3.495-3.495,5.878-6.99,30.818-5.719,35.266.635,14.138,6.99,17.951,13.026-7.466,16.045-10.961S602.081,242.888,598.9,236.216Z" transform="translate(-576.814 -236.099)" fill="url(#linear-gradient)"/>
        <path id="Trazado_158691" data-name="Trazado 158691" d="M589.281,248.951s-1.112,14.3.318,15.886-2.542,20.175-.953,21.287,4.289-8.9,3.177-12.232,2.7,3.177,2.7-.159,1.748-16.839-5.4-25.417" transform="translate(-573.713 -232.79)" fill="#868695"/>
      </g>
      <g id="Grupo_121037" data-name="Grupo 121037" transform="translate(4.187 47.232)">
        <path id="Trazado_158692" data-name="Trazado 158692" d="M594.61,254.128c-.457-.1-2.135.381-4,.6a9.36,9.36,0,0,1-3.724-.165c-5.3-1.589-6.774-5.516-6.774-5.516,1.627-1.7,6.049-13.6,6.049-13.6l4.88.991,2.135.432c-.178,1.093-.292,2.122-.369,3.1v.013a47.592,47.592,0,0,0,.089,7.358C593.034,249.527,595.817,254.369,594.61,254.128Z" transform="translate(-580.109 -235.446)" fill="#db8804"/>
        <path id="Trazado_158693" data-name="Trazado 158693" d="M591.667,236.658c-.178,1.093-.292,2.122-.368,3.1v.013a1.5,1.5,0,0,1-.242.14c-2.707,1.347-5.4-2.224-5.4-2.224l3.876-1.461Z" transform="translate(-578.606 -235.235)" fill="#f7b242"/>
        <path id="Trazado_158694" data-name="Trazado 158694" d="M593.09,252.166c-.458-.1-2.135.381-4,.6a3.461,3.461,0,0,1-.445-3.457c-.953-1.525-2.923-6.214-2.923-6.214-.076-1.436,3.012,1.347,4.13,2.059a2.018,2.018,0,0,0,1.525.229C591.515,247.566,594.3,252.408,593.09,252.166Z" transform="translate(-578.59 -233.485)" fill="#f7b242"/>
      </g>
      <g id="Grupo_121038" data-name="Grupo 121038" transform="translate(2.224 25.125)">
        <path id="Trazado_158695" data-name="Trazado 158695" d="M598.618,229.913l-2.175,6.711c-2.162,6.722-3.134,5.982-6.734,7.221-3.365,1.163-6.167-4.75-6.65-7.5-.426-2.319-4.659-6.559-4.49-8.571.067-.812.634-.4,1.791,1.1a13.818,13.818,0,0,0,3.21,2.9c1-2.266-4.558-8.141-3.125-10.4.7-1.1,3.947,8.042,5.456,8.163,0,0,.44-.789-.792-5.4-.7-2.647-1.451-5.367-.787-5.962,1.215-1.075,1.73,4.724,4.72,10.617,0,0-.253-2.976-.671-5.717-.394-2.5-1.022-4.8.108-4.869.926-.06,1.432,3.861,1.85,6.347a28.179,28.179,0,0,0,3.305,9.451,9.889,9.889,0,0,0,.75,1.16C597.166,228.509,598.618,229.913,598.618,229.913Z" transform="translate(-578.564 -218.051)" fill="#db8804"/>
        <path id="Trazado_158696" data-name="Trazado 158696" d="M591.765,231.768s-2.844,1.261-3.4,3.57a3.839,3.839,0,0,1,2.653-4.73A9.934,9.934,0,0,0,591.765,231.768Z" transform="translate(-575.945 -214.65)" fill="#f7b242"/>
      </g>
      <g id="Grupo_121039" data-name="Grupo 121039" transform="translate(8.647 43.447)">
        <path id="Trazado_158697" data-name="Trazado 158697" d="M664.357,262.064a64.64,64.64,0,0,1-.953,8.2q-.648,3.775-1.525,7.511v.013a180.222,180.222,0,0,1-5.49,18.758A72.353,72.353,0,0,1,652,307.56c-.839,1.538-2.3,2.885-2.516,4.677-.369,3,.852,3.114-1.258,5.706-1.373,1.69-.521,4.168.33,6.176.407.966.8,1.932,1.169,2.91,6.126,15.759,7.79,32.14,6.278,48.991-.737,8.184-1.779,16.343-2.758,24.5-.508,4.156-1.754,9.2-.915,13.382.915,4.613-1.119,48.89-7.244,73.061a62.693,62.693,0,0,1-2.974,9.188l-9.7-.28s-4.232-53.808-4.448-74.98c-.14-14.5-3.063-33.855-4.893-44.62-.851-4.969-1.462-8.121-1.462-8.121s2.338,33.245,2.338,40.667a77.193,77.193,0,0,1-2.122,15.886s4.664,51.253,3.177,74.129l-9.417.6-.534.038s-.191-.521-.521-1.5c-.9-2.605-2.885-8.477-5.21-16.165-.089-.28-.165-.559-.242-.813-.025-.076-.038-.14-.063-.216q-.572-1.887-1.106-3.774c-.508-1.716-1-3.444-1.487-5.172q-.324-1.163-.648-2.364c-.241-.826-.457-1.652-.673-2.478-.432-1.652-.877-3.342-1.309-5.045-1.08-4.27-2.122-8.693-3.063-13.141-.369-1.779-.737-3.558-1.068-5.338-.178-.89-.33-1.779-.5-2.669-3.368-18.86-4.321-28.365-4.588-32.623a28.669,28.669,0,0,1-.076-2.961,183.182,183.182,0,0,1-10.8-52.944c-.712-16.114,2.948-27.73,6.329-34.821a38.67,38.67,0,0,1,5.109-8.388.14.14,0,0,1-.026-.051c-.165-.47-1.385-4.016-.394-4.613a8,8,0,0,0,.8-.546,11.162,11.162,0,0,0,1.106-.94s-1.042-6.634-2.008-15.771c-1.792-16.839-3.33-42.154,2.44-49.944,4.27-5.782,12.48-4.817,15.022-4.384a25.315,25.315,0,0,1,4.956,2.427c5.681,3.241,13.9,8.578,13.9,8.578s11.4-2.071,17.817-1.373a12.309,12.309,0,0,1,1.881.318c5.719,1.487,10.8,4.448,13.344,14.2A18.4,18.4,0,0,1,664.357,262.064Z" transform="translate(-583.619 -232.468)" fill="url(#linear-gradient-2)"/>
        <path id="Trazado_158698" data-name="Trazado 158698" d="M641.64,241.852c-10.116,2.44-23.918,10.84-27.082,10.332-3.978-.635-6.354-6.519-3.025-4.143s14.615-1.423,14.615-1.423-11.285.788-13.827-3.66a21.775,21.775,0,0,1-2.4-8.311c5.681,3.241,13.9,8.578,13.9,8.578S635.222,241.153,641.64,241.852Z" transform="translate(-576.495 -231.878)" fill="url(#linear-gradient)"/>
        <path id="Trazado_158699" data-name="Trazado 158699" d="M601.721,301.734c.991.432-7.155.877-13.052-.61a38.669,38.669,0,0,1,5.109-8.388S600.285,301.1,601.721,301.734Z" transform="translate(-582.251 -216.144)" fill="#868695"/>
        <path id="Trazado_158700" data-name="Trazado 158700" d="M634.23,296.582c-.966.686-25.9,18.262-41.049-4.384a11.151,11.151,0,0,0,1.106-.94s-1.042-6.634-2.008-15.771c1.893,5.935,5.706,14.373,13.713,19.952C617.773,303.661,633.493,296.9,634.23,296.582Z" transform="translate(-581.273 -220.817)" fill="#868695"/>
        <path id="Trazado_158701" data-name="Trazado 158701" d="M642.753,462.388a62.66,62.66,0,0,1-2.974,9.188l-9.7-.28s-4.232-53.808-4.448-74.98c-.14-14.5-3.063-33.855-4.893-44.62-.852-4.969-1.462-8.121-1.462-8.121s2.338,33.245,2.338,40.667a77.2,77.2,0,0,1-2.122,15.886s4.664,51.253,3.177,74.129l-9.417.6a11.3,11.3,0,0,1-1.055-1.462c-2.847-4.562-4-11.717-5.211-16.165-.089-.279-.165-.559-.241-.813-.025-.076-.038-.14-.064-.216q-.572-1.887-1.106-3.774c-.508-1.716-1-3.444-1.487-5.172q-.324-1.163-.648-2.364c-.242-.826-.458-1.652-.674-2.478-.458-1.677-.89-3.355-1.309-5.045q-1.678-6.539-3.063-13.141c-.369-1.779-.737-3.558-1.068-5.338-.178-.889-.331-1.779-.5-2.669-3.368-18.859-4.321-28.365-4.588-32.623,1,1.029,1.855,1.944,2.465,2.656,3.495,4.13,2.224,12.391,8.9,14.615s9.214-12.073,9.214-16.2-11.12-16.839-8.9-18.745,7.307-12.391,7.307-12.391-13.026,6.354-15.568,1.906,7.625-2.224,9.849-2.224,9.532-2.542,5.719-4.13-12.073-1.589-13.344-3.495,6.99-6.037,9.849-4.766c.991.445-.419-.546-.6-.712-1.284-1.144-2.847-2.033-4.207-3.076-1.983-1.525-4.156-3.037-5.6-5.109-.686-.991-2.618-5.21.5-4.092.775.267,1.4.9,2.2,1.055.381.076.775.051,1.156.127,1.449.33,2,2.16,3.253,2.923a5.091,5.091,0,0,0,3.2.356,4.336,4.336,0,0,0-1.716-1.7c-1.957-1.334-3.914-2.656-5.859-3.991-.013-.013-3.94-3.164-1.678-3.368,2.529-.229,4.677,1.894,7.18,2.3,2.059.343,4.207-.508,6.253-.089a16.147,16.147,0,0,1,2.821,1.08c4.562,1.868,9.773,1.106,14.539-.178q-3.3,2.9-6.57,5.82c2.974-.483,6.99-2.4,9.836-2.148-.216,4.1-8.273,8.642-11.361,10.8,2.872.991,6.2,1.716,8.782,3.228a14.166,14.166,0,0,0-3.292,8.324c-.991,9.836-1.957,20,1.055,29.407.813,2.58,1.932,5.083,2.338,7.752.419,2.847.013,5.77.534,8.6s2.389,5.77,5.249,6.138a2.582,2.582,0,0,1,1.246.3c1.106.788-.089,2.4-.89,3.495-1.665,2.237-1.347,5.414-.14,7.917s3.164,4.537,4.8,6.774a4.056,4.056,0,0,1,.94,2.021,5.027,5.027,0,0,1-1.093,2.859c-1.957,3.292-2.593,7.168-3.2,10.929a11.217,11.217,0,0,0-.114,4.41c.229.89.661,1.716.928,2.593.851,2.8-.1,5.846.47,8.718C639.3,457.267,641.432,459.656,642.753,462.388Z" transform="translate(-581.281 -207.89)" fill="url(#linear-gradient)"/>
        <path id="Trazado_158702" data-name="Trazado 158702" d="M653.438,256.078a64.661,64.661,0,0,1-.953,8.2q-.648,3.775-1.525,7.511v.013a180.172,180.172,0,0,1-5.49,18.758,72.354,72.354,0,0,1-4.385,11.018c-.839,1.538-2.3,2.885-2.516,4.677-.369,3,.851,3.114-1.258,5.706-1.372,1.69-.521,4.168.331,6.176.406.966.8,1.932,1.169,2.91-.915,1.474-1.855,2.351-2.8,2.465-7.943.953-8.578-4.13-4.448-6.354s4.766-7.625,4.766-7.625-6.99,5.083-10.167,5.083-4.3-5.4,5.871-12.391c7.485-5.134,14.284-40.9,20.969-47.657C653.171,255.062,653.311,255.57,653.438,256.078Z" transform="translate(-572.699 -226.483)" fill="#868695"/>
      </g>
      <g id="Grupo_121040" data-name="Grupo 121040" transform="translate(33.519 292.104)">
        <path id="Trazado_158703" data-name="Trazado 158703" d="M624.03,454.167c-1.508-1.6-1.882-21.277-2.572-24.848,0,0-3.218-1.826-9.849-.953-6.037.794-8.42,3.495-8.42,3.495.8,2.162,6.87,18.124,6.222,21.247-.548,2.643-3.389,6.037-1.112,10.272h17.854A8.769,8.769,0,0,0,624.03,454.167Z" transform="translate(-603.189 -428.13)" fill="#db8804"/>
        <path id="Trazado_158704" data-name="Trazado 158704" d="M607.763,451.39s4.871-6.325,14.827-1.271c0,0,.423,4.448-4.237,3.6S610.94,456.261,607.763,451.39Z" transform="translate(-601.95 -422.705)" fill="#f7b242"/>
      </g>
      <g id="Grupo_121041" data-name="Grupo 121041" transform="translate(55.282 291.306)">
        <path id="Trazado_158705" data-name="Trazado 158705" d="M633.98,452.007c-1.238-1.623,2.754-19.576,3.015-21.882,0,0-2.067-1.736-6.99-2.383-6.037-.794-9.69.635-9.69.635.443,2.762,2.1,22.4,1.591,25.96-1.059,7.4,1.69,9.214,1.69,9.214H641.45C646.552,455.062,636.068,454.744,633.98,452.007Z" transform="translate(-620.314 -427.502)" fill="#db8804"/>
        <path id="Trazado_158706" data-name="Trazado 158706" d="M624.718,451.273s5.93-5.842,15.294-.267c0,0-.043,3.444-4.7,2.6S627.895,456.144,624.718,451.273Z" transform="translate(-619.121 -421.789)" fill="#f7b242"/>
      </g>
      <g id="Grupo_121047" data-name="Grupo 121047" transform="translate(35.964 0)">
        <path id="Trazado_158707" data-name="Trazado 158707" d="M625.048,209.482c9.138.1,18.64,9.744,19.063,15.886s-5.506,23.3-17.792,22.664-19.574-19.17-18.947-24.782S615.623,209.377,625.048,209.482Z" transform="translate(-604.512 -195.247)" fill="#a7c6ce"/>
        <path id="Trazado_158708" data-name="Trazado 158708" d="M632.74,221.14s3.711-4.313,4.562.334c.985,5.383-3.778,7.944-4.872,6.292S632.74,221.14,632.74,221.14Z" transform="translate(-597.827 -192.583)" fill="#ff8b66"/>
        <path id="Trazado_158709" data-name="Trazado 158709" d="M611.427,222.953s-4.321-3.7-4.458,1.021c-.16,5.471,4.936,7.282,5.768,5.482S611.427,222.953,611.427,222.953Z" transform="translate(-604.612 -191.972)" fill="#ff8b66"/>
        <path id="Trazado_158710" data-name="Trazado 158710" d="M626.583,245.1c8.91-.679,13.5-6.88,12.166-24.336-.685-9-5.687-14.178-15.667-13.418s-13.762,6.6-13.076,15.606C611.433,241.708,617.378,245.8,626.583,245.1Z" transform="translate(-603.81 -195.845)" fill="#ff8b66"/>
        <path id="Trazado_158711" data-name="Trazado 158711" d="M612.685,224.642A2.116,2.116,0,1,0,614.9,223.2,1.892,1.892,0,0,0,612.685,224.642Z" transform="translate(-603.064 -191.535)" fill="#db614d"/>
        <path id="Trazado_158712" data-name="Trazado 158712" d="M627.136,224.034a2.116,2.116,0,1,0,1.812-1.925A1.893,1.893,0,0,0,627.136,224.034Z" transform="translate(-599.152 -191.834)" fill="#db614d"/>
        <g id="Grupo_121042" data-name="Grupo 121042" transform="translate(12.526 21.184)">
          <path id="Trazado_158713" data-name="Trazado 158713" d="M615.227,217.465a.445.445,0,0,0,.535-.122,5.117,5.117,0,0,1,3.333-1.5.447.447,0,0,0-.039-.893,5.976,5.976,0,0,0-3.985,1.829.447.447,0,0,0,.156.686Z" transform="translate(-614.97 -214.95)" fill="#0c476b"/>
        </g>
        <g id="Grupo_121043" data-name="Grupo 121043" transform="translate(25.433 20.459)">
          <path id="Trazado_158714" data-name="Trazado 158714" d="M625.384,215.252a.444.444,0,0,0,.235.039,5.136,5.136,0,0,1,3.524.979.446.446,0,0,0,.6-.663,5.957,5.957,0,0,0-4.217-1.2.447.447,0,0,0-.14.849Z" transform="translate(-625.126 -214.38)" fill="#0c476b"/>
        </g>
        <path id="Trazado_158715" data-name="Trazado 158715" d="M616.238,221.08c.085,1.107.651,1.966,1.266,1.918s1.045-.981.961-2.087-.651-1.966-1.266-1.919S616.154,219.974,616.238,221.08Z" transform="translate(-602.103 -192.671)" fill="#1a4850"/>
        <path id="Trazado_158716" data-name="Trazado 158716" d="M626.126,220.367c.084,1.107.651,1.966,1.265,1.919s1.046-.982.961-2.088-.651-1.966-1.266-1.919S626.041,219.26,626.126,220.367Z" transform="translate(-599.424 -192.865)" fill="#1a4850"/>
        <path id="Trazado_158717" data-name="Trazado 158717" d="M627.163,228.448s-5.49,1.2-8.459-.074c0,0,1.928,3.987,4.931,3.387A4.452,4.452,0,0,0,627.163,228.448Z" transform="translate(-601.432 -190.13)" fill="#1a4850"/>
        <path id="Trazado_158718" data-name="Trazado 158718" d="M619.713,220.648s-1.019-2.664-2.074-2.387-1.69,2.674-1.69,2.674l-1.646-.718,1.6.086s.639-2.5,1.7-2.582C619.1,217.6,619.713,220.648,619.713,220.648Z" transform="translate(-602.624 -193.016)" fill="#1a4850"/>
        <path id="Trazado_158719" data-name="Trazado 158719" d="M625.388,220.452s.6-2.787,1.689-2.673,2.074,2.387,2.074,2.387l1.519-.959-1.566.328s-1.01-2.373-2.068-2.3C625.528,217.346,625.388,220.452,625.388,220.452Z" transform="translate(-599.621 -193.146)" fill="#1a4850"/>
        <g id="Grupo_121044" data-name="Grupo 121044" transform="translate(19.717 30.232)">
          <path id="Trazado_158720" data-name="Trazado 158720" d="M621.818,225.943a2.788,2.788,0,0,0,.648.207l.181-.947c-.806-.154-1.015-.629-1.05-1a1.191,1.191,0,0,1,.517-1.15q.25-.1.553.3l.766-.585a1.385,1.385,0,0,0-1.67-.614,2.116,2.116,0,0,0-1.126,2.135A1.975,1.975,0,0,0,621.818,225.943Z" transform="translate(-620.628 -222.069)" fill="#db614d"/>
        </g>
        <path id="Trazado_158721" data-name="Trazado 158721" d="M612.373,220.645l-1.116,4.491s-3.333-.891-1.867-6.211S612.373,220.645,612.373,220.645Z" transform="translate(-604.056 -193.228)" fill="#0c476b"/>
        <path id="Trazado_158722" data-name="Trazado 158722" d="M624.89,209.209s-10.829,19.473-16.542,16.813c0,0-1.519-20.834,15.018-20.834s19.811,9.309,19.762,18.528c0,0-2.311,3.41-4.357,2.925C638.771,226.641,641.338,209.6,624.89,209.209Z" transform="translate(-604.247 -196.41)" fill="#0c476b"/>
        <path id="Trazado_158723" data-name="Trazado 158723" d="M616.018,228.91s-7.414-4.553-8.739-11.782" transform="translate(-604.527 -193.176)" fill="none" stroke="#ffd5a2" stroke-linecap="round" stroke-miterlimit="10" stroke-width="0.5"/>
        <path id="Trazado_158724" data-name="Trazado 158724" d="M629.9,230.061s7.731-7.1,8.259-17.183" transform="translate(-598.398 -194.327)" fill="none" stroke="#ffd5a2" stroke-linecap="round" stroke-miterlimit="10" stroke-width="0.5"/>
        <path id="Trazado_158725" data-name="Trazado 158725" d="M611.216,229.061c2.939,10.406,23.193,15.78,27.324-1.933" transform="translate(-603.46 -190.467)" fill="none" stroke="#ffd5a2" stroke-linecap="round" stroke-miterlimit="10" stroke-width="0.5"/>
        <path id="Trazado_158726" data-name="Trazado 158726" d="M624.275,221.153c5.5-.351,11.331,4.871,12.073,8.366s-3.6,11.862-10.7,12.391c-6.565.491-12.5-7.307-12.5-11.013S619.3,221.47,624.275,221.153Z" transform="translate(-602.935 -192.09)" fill="#fff"/>
        <path id="Trazado_158727" data-name="Trazado 158727" d="M620.363,222.55a3.781,3.781,0,0,1,4.077-.159" transform="translate(-600.983 -191.899)" fill="none" stroke="#ffd5a2" stroke-linecap="round" stroke-linejoin="round" stroke-width="0.5"/>
        <path id="Trazado_158728" data-name="Trazado 158728" d="M612.331,222.246a2.661,2.661,0,0,0,.381.178.039.039,0,0,1-.025.013S612.547,222.36,612.331,222.246Z" transform="translate(-603.158 -191.79)" fill="#4ba6c6"/>
        <g id="Grupo_121045" data-name="Grupo 121045" transform="translate(2.616 21.971)">
          <path id="Trazado_158729" data-name="Trazado 158729" d="M632.155,217.886l.211,4.184a15.777,15.777,0,0,0,4.448-1.8c.5-.325,1.483-2.965,1.219-3.495C638.033,216.774,636.179,217.833,632.155,217.886Z" transform="translate(-600.405 -215.243)" fill="#23687a"/>
          <path id="Trazado_158730" data-name="Trazado 158730" d="M611.7,218.242a28.646,28.646,0,0,1-4.395-.635s-.371,2.436.105,3.443,4.184,1.535,4.184,1.535Z" transform="translate(-607.172 -215.017)" fill="#23687a"/>
          <path id="Trazado_158731" data-name="Trazado 158731" d="M637.567,222.727c-.038.953-2.9,2.5-4.029,2.593s-4.867-3.469-8.756-3.546-7.066,3.495-7.981,3.813a2.1,2.1,0,0,1-.979-.064,13.45,13.45,0,0,1-4.537-2.084c-.445-.585-.292-5.935.356-6.036a106.61,106.61,0,0,1,11.514-1.068l1.08-.038c1.334-.038,2.593-.051,3.775-.051a66.264,66.264,0,0,1,9.086.483C638.049,216.97,637.6,221.774,637.567,222.727Z" transform="translate(-606.126 -215.386)" fill="#008f85" opacity="0.25"/>
          <path id="Trazado_158732" data-name="Trazado 158732" d="M623.155,216.316l-7.333,9.188a13.449,13.449,0,0,1-4.537-2.084c-.445-.585-.292-5.935.356-6.037A106.593,106.593,0,0,1,623.155,216.316Z" transform="translate(-606.126 -215.367)" fill="#fff" opacity="0.25"/>
          <path id="Trazado_158733" data-name="Trazado 158733" d="M626,216.246l-7.549,5.592s2.122-2.91,3.774-5.541C623.56,216.259,624.818,216.246,626,216.246Z" transform="translate(-604.117 -215.386)" fill="#fff" opacity="0.25"/>
          <path id="Trazado_158734" data-name="Trazado 158734" d="M637.968,216.734c-.852-1.271-5.554-1.22-12.709-1.118-6.354.1-13.344,1.118-14.3,1.855-.864.674-.763,4.486-.356,6.138.013,0,.013,0,0,.013a4.042,4.042,0,0,0,.14.419c.534,1.271,5.4,2.961,6.57,2.859s3.711-3.99,7.727-4.245c4.3-.254,6.837,3.076,8.006,3.609s4.384-1.169,5.185-2.44c.038-.063.076-.14.114-.216V223.6C639,222.085,638.768,217.942,637.968,216.734Zm-26.053,1.525c.47-.521,3.864-1.055,12.658-1.423s12.175.216,12.543.585c.331.318.419,3.749.216,4.867a.838.838,0,0,1-.1.318c-.318.432-3.025,2.338-3.66,2.122s-4.08-3.342-8.477-3.228-7.511,3.647-8.146,3.914c-.419.178-2.351-.534-3.686-1.182a2.662,2.662,0,0,1-.381-.178.013.013,0,0,0-.013-.013,2.86,2.86,0,0,1-.9-.585C611.7,222.974,611.47,218.755,611.915,218.259Z" transform="translate(-606.324 -215.569)" fill="#1d272b"/>
          <path id="Trazado_158735" data-name="Trazado 158735" d="M637.476,221.607a1.973,1.973,0,0,1-.318.534c.2-1.118.114-4.55-.216-4.867-.369-.369-3.762-.953-12.543-.585s-12.188.9-12.658,1.423c-.445.5-.216,4.715.051,5.2a2.448,2.448,0,0,1-.585-.534c-.369-.534-.318-3.863-.051-4.766.216-.724,4.448-1.639,13.192-1.855s12.391.381,12.811.8S637.794,220.717,637.476,221.607Z" transform="translate(-606.15 -215.422)" fill="#4ba6c6"/>
          <path id="Trazado_158736" data-name="Trazado 158736" d="M638.284,222.178c-.038.076-.076.153-.114.216-.8,1.271-4.028,2.961-5.185,2.44s-3.711-3.863-8.006-3.609c-4.016.254-6.558,4.13-7.727,4.245s-6.037-1.589-6.57-2.859a4.064,4.064,0,0,1-.14-.419,3.546,3.546,0,0,0,1.309,1.258c1.22.585,4.766,1.8,5.3,1.538s4.067-4.232,8.21-4.13c4.118.114,7.193,3.342,7.879,3.6C633.8,224.669,636.81,223.373,638.284,222.178Z" transform="translate(-606.259 -214.138)" fill="#4ba6c6"/>
        </g>
        <path id="Trazado_158737" data-name="Trazado 158737" d="M646.5,214.376c-1.589-2.071-1.118-4.613-3.495-7.625s-10.815-9.048-18.745-8.426c-8.108.635-5.872,3.978-10.32,5.554-4.448,1.6-7.473,10.65-6.837,11.921s-2.224,2.694-1.906,11.438a17.135,17.135,0,0,0,1.284,6.2,9.686,9.686,0,0,0,4.079,4.893.158.158,0,0,1,.038.025c-.165,1.106,2.706,4.764,2.707,4.766a7.582,7.582,0,0,0-1.876,1.754c-.271,1.248,1.488,2.323,2.276,3.186a38.773,38.773,0,0,1,2.557,3.684,5.777,5.777,0,0,0,3.538,2.57,8.9,8.9,0,0,0,3.547-.518c3.806-.971,7.759-.782,11.647-.985,1.267-.067,5.181.131,6.1-.834,1.068-1.117-.925-2.407-1.9-3.138.953,0,1.271-6.2,2.707-6.99s4.448-7.778,5.083-10.319,0-5.566.941-6.99C648.887,223.107,648.086,216.435,646.5,214.376Zm-18.631,33.157a13.715,13.715,0,0,1-2.389.038,11.821,11.821,0,0,1-2.351-.432c-9.519-2.669-14.208-16.216-12.7-22.126,1.754-6.824,8.9-6.824,15.581-7.307,6.977-.5,13.014,1.118,15.4,6.507C643.8,229.627,640.537,246.224,627.867,247.533Z" transform="translate(-605.098 -198.281)" fill="url(#linear-gradient-2)"/>
        <path id="Trazado_158738" data-name="Trazado 158738" d="M641.079,219.461c-3.075-8.578-7.629-5.826-16.521-6.456-14.647-1.04-16.95,7.188-16,13.657s6.783,13.031,6.783,13.031l-2.652-2.229s6.879,10.191,11.116,10.058a17.233,17.233,0,0,0,15.572-10.163l-2.546,2.538S644.142,228.039,641.079,219.461ZM627,243.569c-12.658,1.309-19.177-15.7-17.436-22.519s8.9-6.825,15.581-7.307c6.977-.5,13.014,1.118,15.4,6.507C642.935,225.663,639.669,242.26,627,243.569Z" transform="translate(-604.23 -194.317)" fill="#868695"/>
        <path id="Trazado_158739" data-name="Trazado 158739" d="M612.606,213.693s3.283-2.012,5.083-2.012,5.93.106,8.048-.107,5.4-.529,7.52.318,3.495,1.378,3.495,1.378-5.508-3.6-9.532-3.284-5.931.318-7.625.318S613.877,211.469,612.606,213.693Z" transform="translate(-603.084 -195.116)" fill="#1d272b"/>
        <path id="Trazado_158740" data-name="Trazado 158740" d="M636.43,218.732a20.707,20.707,0,0,1-.741,8.9A7.615,7.615,0,0,0,636.43,218.732Z" transform="translate(-596.831 -192.742)" fill="#1d272b"/>
        <path id="Trazado_158741" data-name="Trazado 158741" d="M610.289,232.047a9.686,9.686,0,0,1-4.079-4.893,10.685,10.685,0,0,1,.94-5.668s0,4.232,1.589,6.456A8,8,0,0,1,610.289,232.047Z" transform="translate(-604.83 -191.996)" fill="#1d272b"/>
        <g id="Grupo_121046" data-name="Grupo 121046" transform="translate(0 48.858)">
          <path id="Trazado_158742" data-name="Trazado 158742" d="M624.844,239.624a.541.541,0,0,0-.1.585,1.17,1.17,0,0,0,.394.47,2.985,2.985,0,0,1-1.4.559c-.648.178-.61.026-1.093.635-.635.788-1.233,1.6-1.843,2.4-.953,1.258-1.893,2.529-2.809,3.8-.292.381-.559.775-.839,1.156-6.176,8.718-11.6,18.783-10.675,29.814,1.449,9.455,1.245,19.076,1.042,28.391-.152,6.939-.318,14.132.229,21.172.788,3.114.14,6.748-.5,10.268a38.008,38.008,0,0,0-.775,6.3,18.141,18.141,0,0,0,2.44,8.032l-1.068.674a19.346,19.346,0,0,1-2.643-8.705,38.75,38.75,0,0,1,.8-6.532c.6-3.38,1.233-6.875.483-9.836-.559-7.218-.394-14.437-.241-21.414.2-9.252.407-18.821-1.03-28.2-.928-11.018,4.207-21.109,10.332-29.9.521-.75,1.055-1.5,1.6-2.237.724-1,1.462-1.983,2.2-2.961.635-.851,1.246-1.7,1.919-2.529.635-.775,1.335-.813,2.224-1.258a.385.385,0,0,0,.229-.216c.038-.178-.191-.292-.33-.407a.722.722,0,0,1,.025-1.106c.191-.114.47-.229.432-.445a.409.409,0,0,0-.153-.229,1.834,1.834,0,0,1-.559-1.182,11.824,11.824,0,0,0,2.351.432c.038.407.025.851.089,1.284.038.33.063.724-.2.928C625.213,239.484,625,239.5,624.844,239.624Z" transform="translate(-605.113 -236.726)" fill="#1d272b"/>
        </g>
      </g>
      <g id="Grupo_121048" data-name="Grupo 121048" transform="translate(23.438 63.251)">
        <path id="Trazado_158743" data-name="Trazado 158743" d="M661.1,258.389c-.153,10.014-13.814,50.834-26.688,52.74-4.7.7-10.23-2.58-15.441-7.142-.013-.013-.026-.025-.038-.025-9.036-7.93-17.093-19.711-18.2-21.427-1.741-2.694-6.3-9.684-5.35-14.132s4.245-4.6,4.245-4.6,1.36,1.106,2.313,1.741,8.172,7.79,9.913,8.731c1.754.966,13.509,9.379,13.509,9.379s1.589-4.766,3.495-4.6a3.279,3.279,0,0,0,3.495-2.072,113.6,113.6,0,0,1,5.821-12.861c4.74-8.731,12.086-18.237,20.944-15.631.038,0,.47.025.94.928v.013C660.582,250.459,661.192,252.9,661.1,258.389Z" transform="translate(-595.257 -248.052)" fill="url(#linear-gradient)"/>
        <path id="Trazado_158744" data-name="Trazado 158744" d="M631.963,277.052c-1.424-.153-6.2-1.271-7.625-1.271s-3.66,2.542-3.813,3.813,5.566,4.6,7.625,7.625-1.118,5.719-3.025,1.906a58.905,58.905,0,0,0-6.177-8.9s1.589-4.766,3.5-4.6a3.279,3.279,0,0,0,3.495-2.071A113.6,113.6,0,0,1,631.76,260.7C629.332,267.673,633.374,277.2,631.963,277.052Z" transform="translate(-588.84 -244.627)" fill="#868695"/>
        <path id="Trazado_158745" data-name="Trazado 158745" d="M656.048,258.1c-.153,10.014-13.814,50.834-26.688,52.74-4.7.7-10.23-2.58-15.441-7.142,2.478,1.411,8.667,4.778,12.416,5.4,4.766.8,10.319-3.495,10.65-6.354.3-2.859-1.118-6.672.635-6.672s5.389-.953,5.389-3.025c0-2.021,15.441-31.25,12-43.908C655.527,250.165,656.137,252.605,656.048,258.1Z" transform="translate(-590.202 -247.758)" fill="#1d272b"/>
      </g>
      <g id="Grupo_121049" data-name="Grupo 121049" transform="translate(13.252 59.274)">
        <path id="Trazado_158746" data-name="Trazado 158746" d="M590.418,246.519c.052-.539,1-.962,1-.962a5.087,5.087,0,0,0,1.418,2.394,11.708,11.708,0,0,1,3.133,3.968c.929,1.8,1.984,7.879,1.984,7.879s-5.583-5.842-5.747-6.9S590.418,246.519,590.418,246.519Z" transform="translate(-586.382 -244.749)" fill="#f7b242"/>
        <path id="Trazado_158747" data-name="Trazado 158747" d="M609.733,270.84s-1.483,9.319-8.366,11.438c0,0-6.1-14.018-6.347-15.226-.052-.339-.11-.563-.11-.563-6.469-3.961-6.051-7.513-6.051-7.513s-2.121-.962-.426-3.392a2.9,2.9,0,0,1-.838-1.765c-.033-.469,1.489-1.717,1.489-1.717s-.848-1.508-.4-1.8a4.074,4.074,0,0,1,2.637-.4,13.6,13.6,0,0,0-2.219-2.351c-2.032-1.1-2.905-3.36.015-2.4,1.459.466,5.489,4.416,6.677,6.3,1.216,1.867,3.321,9.033,3.947,10.229C600.359,262.895,609.733,270.84,609.733,270.84Z" transform="translate(-587.242 -244.922)" fill="#db8804"/>
        <path id="Trazado_158748" data-name="Trazado 158748" d="M588.687,250.585a3.215,3.215,0,0,1,2.165.381C591.967,251.6,588.687,250.585,588.687,250.585Z" transform="translate(-586.85 -243.401)" fill="#4ba6c6"/>
        <path id="Trazado_158749" data-name="Trazado 158749" d="M588.179,253.311s1.6-.069,1.9.356S589.285,253.812,588.179,253.311Z" transform="translate(-586.988 -242.65)" fill="#4ba6c6"/>
        <path id="Trazado_158750" data-name="Trazado 158750" d="M595.51,264.14c-.108.079-.409.057-.834-.084-.052-.339-.111-.563-.111-.563-6.469-3.961-6.051-7.513-6.051-7.513l.813.214a43.969,43.969,0,0,0,3,4.692c1.074,1.265,2.14,2.43,3.434,1.981C597.071,262.418,596.088,263.656,595.51,264.14Z" transform="translate(-586.898 -241.926)" fill="#f7b242"/>
      </g>
    </g>
    <path id="Trazado_166051" data-name="Trazado 166051" d="M13.17-13.03H8.379V0H5.156V-13.03H.43v-2.61H13.17ZM18.434,0H15.211V-15.641h3.223Zm6.209-5.511V0H21.42V-15.641h6.1a7.059,7.059,0,0,1,3.1.645,4.75,4.75,0,0,1,2.057,1.832,5.107,5.107,0,0,1,.72,2.7,4.491,4.491,0,0,1-1.574,3.625,6.555,6.555,0,0,1-4.356,1.327Zm0-2.61h2.879a2.831,2.831,0,0,0,1.95-.6,2.188,2.188,0,0,0,.671-1.719,2.58,2.58,0,0,0-.677-1.858,2.528,2.528,0,0,0-1.869-.73H24.643Zm23.815.655a9.442,9.442,0,0,1-.816,4.05A6.148,6.148,0,0,1,45.305-.73a6.463,6.463,0,0,1-3.486.945A6.507,6.507,0,0,1,38.35-.72a6.209,6.209,0,0,1-2.363-2.669,9.172,9.172,0,0,1-.849-3.991v-.773a9.392,9.392,0,0,1,.833-4.066,6.2,6.2,0,0,1,2.353-2.7,6.471,6.471,0,0,1,3.475-.94,6.471,6.471,0,0,1,3.475.94,6.2,6.2,0,0,1,2.353,2.7,9.366,9.366,0,0,1,.833,4.055Zm-3.266-.709a6.582,6.582,0,0,0-.881-3.738A2.871,2.871,0,0,0,41.8-13.191a2.872,2.872,0,0,0-2.5,1.262,6.507,6.507,0,0,0-.892,3.7v.763a6.664,6.664,0,0,0,.881,3.717,2.863,2.863,0,0,0,2.535,1.321A2.837,2.837,0,0,0,44.312-3.7a6.626,6.626,0,0,0,.881-3.711ZM58.91-4.1a1.654,1.654,0,0,0-.645-1.4,8.454,8.454,0,0,0-2.32-1.031,16.448,16.448,0,0,1-2.653-1.069,4.335,4.335,0,0,1-2.664-3.878,3.777,3.777,0,0,1,.714-2.261A4.66,4.66,0,0,1,53.394-15.3a7.723,7.723,0,0,1,3-.559,7.029,7.029,0,0,1,2.986.607,4.755,4.755,0,0,1,2.036,1.713,4.483,4.483,0,0,1,.725,2.514H58.921a2.109,2.109,0,0,0-.677-1.67,2.782,2.782,0,0,0-1.9-.6,2.972,2.972,0,0,0-1.837.5,1.576,1.576,0,0,0-.655,1.316,1.509,1.509,0,0,0,.768,1.278,8.678,8.678,0,0,0,2.261.967,9.77,9.77,0,0,1,4.007,2.052,4.086,4.086,0,0,1,1.257,3.051A3.764,3.764,0,0,1,60.607-.94,6.725,6.725,0,0,1,56.472.215a7.986,7.986,0,0,1-3.287-.661,5.2,5.2,0,0,1-2.261-1.81,4.635,4.635,0,0,1-.779-2.664h3.233q0,2.589,3.094,2.589A3.01,3.01,0,0,0,58.266-2.8,1.52,1.52,0,0,0,58.91-4.1ZM69.8,0V-15.641h4.813a7.308,7.308,0,0,1,3.69.929,6.48,6.48,0,0,1,2.541,2.643,8.151,8.151,0,0,1,.913,3.894v.72a8.174,8.174,0,0,1-.9,3.878,6.424,6.424,0,0,1-2.53,2.632A7.363,7.363,0,0,1,74.647,0Zm3.223-13.03V-2.589h1.558a3.5,3.5,0,0,0,2.89-1.235,5.582,5.582,0,0,0,1.021-3.534v-.827A5.671,5.671,0,0,0,77.5-11.8a3.488,3.488,0,0,0-2.89-1.23ZM93.511-6.778H87.323v4.189h7.262V0H84.1V-15.641H94.563v2.61h-7.24V-9.3h6.188Z" transform="translate(132.942 59.448)" fill="#008f85"/>
    <path id="Trazado_166052" data-name="Trazado 166052" d="M5.459-3.06h8.087V0H1.65V-18.484H5.459ZM19.779,0H15.971V-18.484h3.809Zm8.506-18.484L33.033-5.078l4.723-13.406h5V0H38.937V-5.053l.381-8.722L34.328,0H31.713L26.736-13.762l.381,8.709V0H23.309V-18.484ZM49.893-6.513V0H46.084V-18.484h7.211a8.343,8.343,0,0,1,3.663.762,5.613,5.613,0,0,1,2.431,2.165,6.035,6.035,0,0,1,.851,3.193,5.307,5.307,0,0,1-1.86,4.285,7.746,7.746,0,0,1-5.148,1.568Zm0-3.085h3.4a3.345,3.345,0,0,0,2.3-.711,2.586,2.586,0,0,0,.793-2.031,3.049,3.049,0,0,0-.8-2.2,2.988,2.988,0,0,0-2.209-.863H49.893ZM66.9,0H63.1V-18.484H66.9Zm14.65-8.011H74.242V-3.06h8.582V0H70.434V-18.484H82.8V-15.4H74.242v4.405h7.313ZM89.1-3.06h9.318V0H84.335V-2.234L93.476-15.4H84.348v-3.085H98.211V-16.3Zm22.318-.749h-6.678L103.467,0h-4.05L106.3-18.484h3.529L116.746,0H112.7Zm-5.649-3.085h4.621l-2.323-6.919Z" transform="translate(132.942 82.498)" fill="#1d272b"/>
    <g id="Grupo_128380" data-name="Grupo 128380" transform="translate(65.882 244.475)">
      <g id="Grupo_90783" data-name="Grupo 90783" transform="translate(13.637 11.917)">
        <g id="Grupo_90780" data-name="Grupo 90780" transform="translate(47.867 6.25)">
          <path id="Trazado_149804" data-name="Trazado 149804" d="M224.212,159.359a4.065,4.065,0,0,1-.882-.378c-3.435-1.924-6.523-3.764-6.554-3.782a.264.264,0,1,1,.27-.453c.03.018,3.113,1.854,6.542,3.775.8.45,1.42.52,1.832.207,1-.762.906-3.731.291-6.271-.783-3.233-5.582-4.762-7.371-4.674a16.387,16.387,0,0,0-3.985.8.264.264,0,1,1-.175-.5,16.612,16.612,0,0,1,4.134-.826c2.267-.111,7.111,1.779,7.91,5.076.49,2.023.94,5.734-.484,6.815A1.664,1.664,0,0,1,224.212,159.359Z" transform="translate(-214.002 -147.252)" fill="#efebe9"/>
        </g>
        <g id="Grupo_90781" data-name="Grupo 90781" transform="translate(0 7.502)">
          <path id="Trazado_149805" data-name="Trazado 149805" d="M109.616,160.373a15.953,15.953,0,0,1-1.72-.585c-2.655-1.083-4.365-2.71-5.083-4.835-.669-1.979-.617-3.317.159-4.09,1.55-1.542,5.583-.159,8.527.852.417.143.81.278,1.169.395,3.771,1.234,5.678.557,5.7.55a.263.263,0,1,1,.183.494c-.084.031-2.1.742-6.043-.543-.361-.117-.756-.253-1.176-.4-2.655-.911-6.667-2.288-7.984-.977-.611.608-.622,1.8-.031,3.548.667,1.973,2.276,3.492,4.783,4.515,5.043,2.057,12.873,1.532,16.505-.312a.264.264,0,1,1,.239.47C121.485,161.162,114.8,161.822,109.616,160.373Z" transform="translate(-102.348 -150.173)" fill="#97e8ce"/>
        </g>
        <path id="Trazado_149806" data-name="Trazado 149806" d="M174.575,147l-3.22-7.235a.529.529,0,0,0-.323-.291c-1.576-.49-2.817-1.443-8.129-5.312-5.56-4.049-11.478,1.231-14.671,3.076-2.384,1.377-7.89,4.2-9.772,5.155a.534.534,0,0,0-.141.847l6.254,6.466a.537.537,0,0,0,.438.16c4.148-.4,4.557.869,10.359,1.657,5.92.8,9.68-.457,12.741-2.7a7.474,7.474,0,0,1,5.872-1.081A.534.534,0,0,0,174.575,147Z" transform="translate(-122.812 -132.674)" fill="#b2f2ef"/>
        <path id="Trazado_149807" data-name="Trazado 149807" d="M144.792,145.981a.731.731,0,0,1,.191-1.158c2.515-1.294,5.929-3.073,7.707-4.1.529-.305,1.11-.687,1.726-1.092,2.543-1.67,6.025-3.957,9.243-3.057a6.219,6.219,0,0,1,1.979.982l1.042.759c3.925,2.862,5.4,3.936,6.816,4.521a.727.727,0,0,1,.387.377l1.734,3.894a.732.732,0,0,1-.612,1.026,8.16,8.16,0,0,0-4.163,1.527c-3.169,2.325-6.745,3.069-11.592,2.411a31.777,31.777,0,0,1-4.635-.963l-.611-.172a12.909,12.909,0,0,0-4.645-.591.731.731,0,0,1-.561-.222Z" transform="translate(-126.478 -134.786)" fill="#00a79e"/>
        <g id="Grupo_90782" data-name="Grupo 90782" transform="translate(18.573 2.862)">
          <path id="Trazado_149808" data-name="Trazado 149808" d="M153.306,144.276c.562-.325,1.179-.73,1.832-1.159,2.658-1.745,6.3-4.136,9.62-3.207a6.4,6.4,0,0,1,2.034,1.01l1.1.8c4.162,3.034,5.719,4.169,7.236,4.8a.173.173,0,0,0,.09.01l-.195-.438c-1.412-.634-3.009-1.8-6.925-4.652l-1.1-.8a6.737,6.737,0,0,0-2.147-1.064c-3.477-.973-7.194,1.469-9.909,3.252-.648.425-1.26.827-1.814,1.148-1.717.992-4.879,2.649-7.459,3.98l.255.264C148.492,146.891,151.6,145.259,153.306,144.276Z" transform="translate(-145.671 -139.35)" fill="#008f85"/>
          <path id="Trazado_149809" data-name="Trazado 149809" d="M178.524,152.037c-1.478-.61-3.025-1.738-7.164-4.755l-1.1-.8a6.738,6.738,0,0,0-2.146-1.064c-3.477-.973-7.194,1.469-9.916,3.257-.646.424-1.256.824-1.807,1.143-1.478.854-4.028,2.2-6.355,3.409l.255.264c2.306-1.2,4.813-2.522,6.276-3.368.561-.324,1.175-.727,1.832-1.159,2.658-1.746,6.3-4.136,9.621-3.207a6.387,6.387,0,0,1,2.034,1.011l1.1.8c4.161,3.033,5.718,4.168,7.234,4.794a.173.173,0,0,0,.23-.1A.176.176,0,0,0,178.524,152.037Z" transform="translate(-148.164 -142.689)" fill="#008f85"/>
          <path id="Trazado_149810" data-name="Trazado 149810" d="M173.515,152.323a6.739,6.739,0,0,0-2.147-1.065c-3.477-.972-7.194,1.469-9.916,3.257-.646.424-1.256.824-1.807,1.143-1.247.721-3.258,1.792-5.254,2.835l.008.009a.733.733,0,0,0,.355.2c1.933-1.012,3.857-2.039,5.067-2.738.561-.324,1.175-.727,1.832-1.159,2.658-1.746,6.3-4.136,9.62-3.207a6.387,6.387,0,0,1,2.034,1.01l1.1.8c2.139,1.56,3.59,2.617,4.7,3.362q.236-.062.469-.11c-1.136-.746-2.642-1.844-4.964-3.536Z" transform="translate(-150.653 -146.027)" fill="#008f85"/>
          <path id="Trazado_149811" data-name="Trazado 149811" d="M180.094,158.166a6.731,6.731,0,0,0-2.146-1.065c-3.477-.972-7.194,1.469-9.908,3.252-.648.426-1.26.827-1.815,1.148-.461.267-1.028.582-1.658.925.165.041.33.084.5.129.5-.275.956-.529,1.338-.75.564-.326,1.18-.73,1.832-1.158,2.658-1.746,6.3-4.137,9.621-3.207a6.4,6.4,0,0,1,2.034,1.01l1.1.8c.809.589,1.518,1.106,2.149,1.562.117-.063.233-.123.351-.18-.666-.481-1.423-1.032-2.295-1.668Z" transform="translate(-156.465 -149.365)" fill="#008f85"/>
          <path id="Trazado_149812" data-name="Trazado 149812" d="M185.531,164.009a6.756,6.756,0,0,0-2.147-1.065c-3.476-.972-7.193,1.469-9.908,3.252-.251.165-.5.325-.735.479.158.034.32.068.49.1l.439-.288c2.658-1.745,6.3-4.136,9.62-3.207a6.389,6.389,0,0,1,2.034,1.011l1.079.786c.1-.069.2-.141.305-.213l-.076-.055Z" transform="translate(-161.136 -152.703)" fill="#008f85"/>
        </g>
      </g>
      <g id="Grupo_90787" data-name="Grupo 90787" transform="translate(29.181 19.849)">
        <g id="Grupo_90784" data-name="Grupo 90784" transform="translate(47.868 6.25)">
          <path id="Trazado_149813" data-name="Trazado 149813" d="M260.468,177.861a4.06,4.06,0,0,1-.882-.378c-3.435-1.924-6.523-3.763-6.554-3.782a.264.264,0,0,1,.27-.453c.031.018,3.114,1.855,6.542,3.775.8.45,1.42.52,1.832.207,1-.762.906-3.731.291-6.271-.783-3.232-5.582-4.762-7.372-4.673a16.355,16.355,0,0,0-3.985.8.264.264,0,0,1-.175-.5,16.622,16.622,0,0,1,4.135-.826c2.267-.111,7.111,1.779,7.91,5.076.49,2.023.94,5.734-.484,6.815A1.663,1.663,0,0,1,260.468,177.861Z" transform="translate(-250.258 -165.754)" fill="#efebe9"/>
        </g>
        <g id="Grupo_90785" data-name="Grupo 90785" transform="translate(0 7.502)">
          <path id="Trazado_149814" data-name="Trazado 149814" d="M145.873,178.875a15.732,15.732,0,0,1-1.72-.585c-2.655-1.083-4.365-2.71-5.083-4.835-.669-1.979-.617-3.317.159-4.09,1.549-1.542,5.582-.159,8.527.852.417.143.81.278,1.168.395,3.772,1.234,5.678.557,5.7.55a.264.264,0,0,1,.183.495c-.084.031-2.1.742-6.044-.544-.36-.117-.756-.253-1.176-.4-2.655-.911-6.667-2.288-7.984-.977-.611.608-.622,1.8-.031,3.548.667,1.973,2.276,3.492,4.783,4.515,5.043,2.057,12.873,1.533,16.505-.312a.264.264,0,1,1,.239.47C157.741,179.664,151.056,180.324,145.873,178.875Z" transform="translate(-138.604 -168.675)" fill="#9de2f5"/>
        </g>
        <path id="Trazado_149815" data-name="Trazado 149815" d="M210.832,165.5l-3.22-7.235a.527.527,0,0,0-.323-.29c-1.577-.49-2.817-1.443-8.129-5.312-5.56-4.049-11.478,1.231-14.671,3.076-2.384,1.377-7.89,4.2-9.772,5.155a.534.534,0,0,0-.141.847l6.254,6.466a.538.538,0,0,0,.438.16c4.148-.4,4.557.869,10.359,1.657,5.92.8,9.679-.457,12.741-2.7a7.474,7.474,0,0,1,5.872-1.081A.533.533,0,0,0,210.832,165.5Z" transform="translate(-159.068 -151.176)" fill="#b2f2ef"/>
        <path id="Trazado_149816" data-name="Trazado 149816" d="M181.049,164.483a.731.731,0,0,1,.19-1.158c2.515-1.294,5.93-3.073,7.707-4.1.529-.306,1.11-.688,1.726-1.092,2.543-1.67,6.025-3.957,9.243-3.057a6.214,6.214,0,0,1,1.979.982l1.042.76c3.925,2.861,5.4,3.936,6.816,4.521a.727.727,0,0,1,.387.377l1.734,3.895a.732.732,0,0,1-.612,1.025,8.159,8.159,0,0,0-4.163,1.527c-3.169,2.326-6.745,3.069-11.592,2.411a31.854,31.854,0,0,1-4.635-.963l-.61-.172a12.91,12.91,0,0,0-4.645-.592.73.73,0,0,1-.561-.221Z" transform="translate(-162.735 -153.288)" fill="#00a79e"/>
        <g id="Grupo_90786" data-name="Grupo 90786" transform="translate(18.573 2.863)">
          <path id="Trazado_149817" data-name="Trazado 149817" d="M189.562,162.778c.563-.325,1.179-.73,1.832-1.159,2.658-1.746,6.3-4.136,9.62-3.207a6.393,6.393,0,0,1,2.034,1.01l1.1.8c4.162,3.034,5.72,4.169,7.236,4.8a.169.169,0,0,0,.09.01l-.2-.438c-1.412-.634-3.009-1.8-6.925-4.652l-1.1-.8a6.743,6.743,0,0,0-2.146-1.064c-3.477-.972-7.194,1.469-9.909,3.252-.648.426-1.26.827-1.814,1.148-1.717.992-4.879,2.649-7.46,3.98l.255.264C184.749,165.393,187.861,163.762,189.562,162.778Z" transform="translate(-181.927 -157.853)" fill="#008f85"/>
          <path id="Trazado_149818" data-name="Trazado 149818" d="M214.78,170.54c-1.477-.61-3.025-1.738-7.164-4.755l-1.1-.8a6.733,6.733,0,0,0-2.147-1.065c-3.476-.972-7.194,1.469-9.916,3.256-.646.424-1.255.824-1.807,1.143-1.478.854-4.028,2.2-6.356,3.409l.255.264c2.306-1.2,4.813-2.522,6.276-3.368.561-.324,1.174-.727,1.832-1.158,2.658-1.746,6.3-4.137,9.621-3.207a6.39,6.39,0,0,1,2.034,1.01l1.1.8c4.161,3.034,5.718,4.168,7.234,4.794a.172.172,0,0,0,.229-.1A.176.176,0,0,0,214.78,170.54Z" transform="translate(-184.42 -161.191)" fill="#008f85"/>
          <path id="Trazado_149819" data-name="Trazado 149819" d="M209.771,170.825a6.74,6.74,0,0,0-2.146-1.065c-3.477-.972-7.194,1.469-9.916,3.257-.646.424-1.255.824-1.807,1.143-1.247.721-3.258,1.792-5.254,2.835l.008.009a.729.729,0,0,0,.354.2c1.934-1.012,3.858-2.039,5.067-2.738.561-.324,1.174-.727,1.832-1.159,2.658-1.746,6.3-4.136,9.62-3.207a6.393,6.393,0,0,1,2.034,1.01l1.1.8c2.14,1.56,3.59,2.617,4.7,3.362.157-.042.314-.078.469-.111-1.136-.746-2.642-1.843-4.964-3.536Z" transform="translate(-186.909 -164.529)" fill="#008f85"/>
          <path id="Trazado_149820" data-name="Trazado 149820" d="M216.351,176.668A6.742,6.742,0,0,0,214.2,175.6c-3.476-.973-7.194,1.469-9.908,3.252-.647.425-1.259.827-1.814,1.148-.461.266-1.028.581-1.658.925.165.041.33.084.5.129.5-.275.956-.529,1.338-.749.564-.326,1.18-.731,1.832-1.159,2.658-1.746,6.3-4.137,9.621-3.207a6.4,6.4,0,0,1,2.034,1.01l1.1.8c.809.589,1.518,1.106,2.148,1.562q.175-.1.351-.18c-.666-.481-1.422-1.032-2.295-1.668Z" transform="translate(-192.722 -167.867)" fill="#008f85"/>
          <path id="Trazado_149821" data-name="Trazado 149821" d="M221.787,182.512a6.739,6.739,0,0,0-2.146-1.064c-3.477-.972-7.194,1.469-9.908,3.252-.252.165-.5.325-.735.479.158.034.32.068.49.1l.439-.288c2.658-1.745,6.3-4.136,9.62-3.207a6.386,6.386,0,0,1,2.034,1.01l1.079.786c.1-.069.2-.141.3-.213l-.076-.055Z" transform="translate(-197.392 -171.206)" fill="#008f85"/>
        </g>
      </g>
      <g id="Grupo_90795" data-name="Grupo 90795" transform="translate(0 0)">
        <g id="Grupo_90788" data-name="Grupo 90788" transform="translate(15.234 6.11)">
          <rect id="Rectángulo_33170" data-name="Rectángulo 33170" width="6.038" height="6.038" transform="translate(7.616 5.739) rotate(161.881)" fill="#cfd8dc"/>
          <rect id="Rectángulo_33171" data-name="Rectángulo 33171" width="4.106" height="6.038" transform="matrix(-0.95, 0.311, -0.311, -0.95, 6.698, 6.039)" fill="#37474f"/>
          <rect id="Rectángulo_33172" data-name="Rectángulo 33172" width="1.642" height="6.038" transform="translate(5.527 6.422) rotate(161.882)" fill="#fff"/>
        </g>
        <path id="Trazado_149822" data-name="Trazado 149822" d="M92.852,106.076l1.592,4.866a1.74,1.74,0,0,1-1.112,2.194l-7.988,2.613a1.739,1.739,0,0,1-2.193-1.112l-.421-1.286a1.739,1.739,0,0,0-2.194-1.112l-9.457,3.094-.541-1.653,20.12-8.718A1.74,1.74,0,0,1,92.852,106.076Z" transform="translate(-70.538 -104.877)" fill="#fff"/>
        <g id="Grupo_90790" data-name="Grupo 90790" transform="translate(14.446 10.279)">
          <rect id="Rectángulo_33173" data-name="Rectángulo 33173" width="11.11" height="4.251" rx="1.662" transform="translate(0 3.455) rotate(-18.119)" fill="#37474f"/>
          <g id="Grupo_90789" data-name="Grupo 90789" transform="translate(1.157 0.957)">
            <path id="Trazado_149823" data-name="Trazado 149823" d="M125.99,131.108a.459.459,0,0,1,.579.294l.661,2.02a.459.459,0,0,1-.872.285l-.661-2.02A.459.459,0,0,1,125.99,131.108Z" transform="translate(-117.639 -131.086)" fill="#2a383e"/>
            <path id="Trazado_149824" data-name="Trazado 149824" d="M122.242,132.335a.459.459,0,0,1,.579.294l.661,2.02a.459.459,0,1,1-.872.286l-.661-2.02A.459.459,0,0,1,122.242,132.335Z" transform="translate(-115.498 -131.786)" fill="#2a383e"/>
            <path id="Trazado_149825" data-name="Trazado 149825" d="M118.494,133.561a.459.459,0,0,1,.579.293l.661,2.02a.459.459,0,0,1-.872.286l-.661-2.02A.459.459,0,0,1,118.494,133.561Z" transform="translate(-113.357 -132.487)" fill="#2a383e"/>
            <path id="Trazado_149826" data-name="Trazado 149826" d="M114.746,134.787a.459.459,0,0,1,.579.294l.661,2.02a.459.459,0,1,1-.872.286l-.661-2.02A.459.459,0,0,1,114.746,134.787Z" transform="translate(-111.216 -133.187)" fill="#2a383e"/>
            <path id="Trazado_149827" data-name="Trazado 149827" d="M111,136.014a.459.459,0,0,1,.579.294l.661,2.02a.459.459,0,1,1-.872.285l-.661-2.02A.459.459,0,0,1,111,136.014Z" transform="translate(-109.075 -133.888)" fill="#2a383e"/>
            <path id="Trazado_149828" data-name="Trazado 149828" d="M107.25,137.24a.459.459,0,0,1,.579.293l.661,2.02a.459.459,0,0,1-.872.286l-.661-2.02A.459.459,0,0,1,107.25,137.24Z" transform="translate(-106.934 -134.589)" fill="#2a383e"/>
          </g>
        </g>
        <path id="Trazado_149829" data-name="Trazado 149829" d="M75.137,112.4c2.366-.7,4.745-1.573,7.212-1.505a2.185,2.185,0,0,1,1.231.311,6.009,6.009,0,0,1,.858,1.048,2.793,2.793,0,0,0,2.273.815,8.262,8.262,0,0,0,2.406-.645,4.83,4.83,0,0,0,2.583-1.7c1.127-1.851.235-4.015-1.3-5.646l.255-.111a1.74,1.74,0,0,1,2.194,1.112l1.592,4.866a1.74,1.74,0,0,1-1.112,2.194l-7.988,2.613a1.739,1.739,0,0,1-2.193-1.112l-.421-1.286a1.739,1.739,0,0,0-2.194-1.112l-9.457,3.094-.541-1.653,1.2-.52A21.571,21.571,0,0,0,75.137,112.4Z" transform="translate(-70.538 -104.877)" fill="#cfd8dc"/>
        <g id="Grupo_90792" data-name="Grupo 90792" transform="translate(10.759 14.725)">
          <g id="Grupo_90791" data-name="Grupo 90791">
            <path id="Trazado_149830" data-name="Trazado 149830" d="M95.862,156.487c-1.622-7,5.914-14.583,5.914-14.583l2.151-.7,3.882-1.27,2.151-.7s10.561,1.661,13.389,8.268,7.111,26.326,5.564,28.738c-.755,1.175-3.786,3.322-7.6,4.961q-.233.1-.469.2a21.089,21.089,0,0,1-2.922.956q-.246.061-.49.118c-4.047.934-7.761.994-9.065.493C105.688,181.924,97.487,163.489,95.862,156.487Z" transform="translate(-95.633 -139.225)" fill="#cfd8dc"/>
            <path id="Trazado_149831" data-name="Trazado 149831" d="M120.68,182.448c.457-.149.913-.317,1.356-.5q.228-.093.452-.189c3.723-1.6,6.462-3.614,7.03-4.47.315-.7.213-4.5-1.358-12.145a96.107,96.107,0,0,0-4.294-15.435c-2.275-5.315-10.506-7.153-12.146-7.47l-7.581,2.481c-1.134,1.223-6.688,7.572-5.383,13.206a96.222,96.222,0,0,0,5.662,14.988c3.257,7.1,5.417,10.221,6.085,10.6.962.355,4.364.361,8.314-.551q.233-.055.471-.113C119.755,182.732,120.223,182.6,120.68,182.448Z" transform="translate(-97.305 -140.947)" fill="#fff"/>
          </g>
          <path id="Trazado_149832" data-name="Trazado 149832" d="M124.446,177.47c-2.66-7.32-5.227-14.839-6.387-18.71a33.076,33.076,0,0,1-1.111-13.772l2.653-.868a33.054,33.054,0,0,1,7.244,11.765c1.352,3.806,3.727,11.388,5.909,18.867,1.01,3.462,1.787,6.242,2.366,8.4-.572.287-1.172.567-1.792.833q-.233.1-.469.2a21.088,21.088,0,0,1-2.922.956q-.246.061-.49.118c-.658.152-1.308.28-1.94.388C126.694,183.561,125.677,180.859,124.446,177.47Z" transform="translate(-107.649 -142.021)" fill="#bdbdbd"/>
        </g>
        <g id="Grupo_90794" data-name="Grupo 90794" transform="translate(13.297 28.07)">
          <path id="Trazado_149833" data-name="Trazado 149833" d="M106.154,191.05a70.064,70.064,0,0,0,24.923-8.155l-3.488-12.543a70.141,70.141,0,0,1-26.036,8.519Z" transform="translate(-101.553 -170.352)" fill="#ebfdff"/>
          <g id="Grupo_90793" data-name="Grupo 90793" transform="translate(10.977 7.181)">
            <path id="Trazado_149834" data-name="Trazado 149834" d="M127.158,191.207q1.18-.31,2.348-.661l-.8-2.386q1.631-.489,3.236-1.059l.769,2.4q1.149-.407,2.285-.855l1.018,3.264q-1.123.442-2.259.844l.739,2.3q-1.561.552-3.146,1.029l-.765-2.293q-1.154.347-2.321.655Z" transform="translate(-127.158 -187.101)" fill="#0090b8"/>
          </g>
        </g>
      </g>
      <g id="Grupo_90798" data-name="Grupo 90798" transform="translate(2.826 29.397)">
        <path id="Trazado_149835" data-name="Trazado 149835" d="M90.7,207.832l8.085,92.962a5.586,5.586,0,0,0,5.565,5.1h52a5.586,5.586,0,0,0,5.565-5.1L170,207.832Z" transform="translate(-84.881 -193.091)" fill="#d93328"/>
        <path id="Trazado_149836" data-name="Trazado 149836" d="M157.7,224.689H109.573a7.476,7.476,0,0,0-7.448,8.124l6.7,72.135a3.669,3.669,0,0,0,3.655,3.351h48.013a3.669,3.669,0,0,0,3.668-3.669l-2.787-76.272A3.669,3.669,0,0,0,157.7,224.689Z" transform="translate(-91.393 -202.721)" fill="#b42218"/>
        <path id="Trazado_149837" data-name="Trazado 149837" d="M131.372,328.535h-9.655a2.4,2.4,0,0,0-2.39,2.607l2.616,30.085a2.4,2.4,0,0,0,3.375,1.978q3.5-1.59,7.336-3.032a3.668,3.668,0,0,0,2.384-3.431V332.2A3.665,3.665,0,0,0,131.372,328.535Z" transform="translate(-101.231 -262.047)" fill="#d93328"/>
        <path id="Trazado_149838" data-name="Trazado 149838" d="M166.007,173.447H79.188a2.261,2.261,0,0,0-2.057,2.442l.106,9.918a2.25,2.25,0,0,0,2.057,2.382H165.9a2.251,2.251,0,0,0,2.057-2.382l.106-9.918A2.261,2.261,0,0,0,166.007,173.447Z" transform="translate(-77.131 -173.447)" fill="#b42218"/>
        <g id="Grupo_90796" data-name="Grupo 90796" transform="translate(3.888 3.858)">
          <path id="Trazado_149839" data-name="Trazado 149839" d="M116.881,182.447h-29.4a1.277,1.277,0,0,0-1.277,1.291l.048,4.469a1.278,1.278,0,0,0,1.278,1.264H95.8a.669.669,0,0,0,.491-.2c2.159-2.308,9.874-4.288,20.662-5.512a.66.66,0,0,0,.586-.652h0A.658.658,0,0,0,116.881,182.447Z" transform="translate(-86.199 -182.447)" fill="#d93328"/>
        </g>
        <g id="Grupo_90797" data-name="Grupo 90797" transform="translate(22.129 28.115)">
          <path id="Trazado_149840" data-name="Trazado 149840" d="M184.227,263.883c-.5-.289-.995-.542-1.445-.858a.651.651,0,0,1-.184-.553,2.8,2.8,0,0,0-1.916-3.238c-.139-.041-.331-.212-.339-.333-.037-.547-.016-1.1-.016-1.637a9.254,9.254,0,0,0,1.753-18.213c2.392-.228,6.68,2.782,8.42,5.956a12.212,12.212,0,0,1,.7,10.4,12.193,12.193,0,0,1,9.8,15.719c.595-5.517-1.365-9.487-6.778-11.023C190.165,258.953,186.826,260.506,184.227,263.883Z" transform="translate(-158.212 -239.034)" fill="#f8f8f8"/>
          <path id="Trazado_149841" data-name="Trazado 149841" d="M173.666,308.486a12.137,12.137,0,0,1-18.679-.46,12.105,12.105,0,0,1-11.29,4.348,11.347,11.347,0,0,1-6.9-3.617c4.052,2.891,8.209,3.277,12.132,0,3.552-2.963,4.024-6.847,2.351-11.12.479-.281.961-.587,1.468-.842a.58.58,0,0,1,.465.126,2.756,2.756,0,0,0,3.669,0,.612.612,0,0,1,.521-.063c.494.245.961.545,1.443.827-1.867,4.811-1.111,9.017,3.285,11.921C166.126,312.253,170.076,311.5,173.666,308.486Z" transform="translate(-133.346 -272.022)" fill="#f8f8f8"/>
          <path id="Trazado_149842" data-name="Trazado 149842" d="M146.187,263.8a9.349,9.349,0,0,0-11.241-3.515,9.11,9.11,0,0,0-4.767,4.427,9.517,9.517,0,0,0-.72,6.406c-2.249-5.251.816-14.4,9.558-15.845a12.107,12.107,0,0,1,9.205-16.249,9.579,9.579,0,0,0-5.207,3.531,9,9,0,0,0-1.783,6.074,9.339,9.339,0,0,0,8.648,8.626c0,.541.026,1.093-.017,1.639a.655.655,0,0,1-.361.406,2.8,2.8,0,0,0-1.755,3.176.66.66,0,0,1-.2.528C147.126,263.3,146.665,263.53,146.187,263.8Z" transform="translate(-128.748 -239.027)" fill="#f8f8f8"/>
          <path id="Trazado_149843" data-name="Trazado 149843" d="M159.491,301.173a11.483,11.483,0,0,1-7-11.4c.019-.358.117-.549.517-.444.671.176,1.356.306,2.008.533a.809.809,0,0,1,.427.6,8.581,8.581,0,0,0,4.41,7.606.663.663,0,0,1,.3.511C159.971,299.432,159.729,300.268,159.491,301.173Z" transform="translate(-142.3 -267.747)" fill="#f8f8f8"/>
          <path id="Trazado_149844" data-name="Trazado 149844" d="M195.866,289.375a11.317,11.317,0,0,1-6.9,11.938c-.228-.9-.47-1.771-.651-2.657-.025-.124.224-.357.395-.458a8.509,8.509,0,0,0,4.159-5.831,9.729,9.729,0,0,0,.167-1.711c.009-.335.087-.551.421-.64C194.247,289.808,195.031,289.6,195.866,289.375Z" transform="translate(-162.78 -267.79)" fill="#f8f8f8"/>
          <path id="Trazado_149845" data-name="Trazado 149845" d="M177.03,267.915c-.664.648-1.277,1.269-1.923,1.853a.586.586,0,0,1-.532.007,8.627,8.627,0,0,0-8.906-.008.636.636,0,0,1-.58-.028c-.634-.569-1.23-1.18-1.846-1.784A11.273,11.273,0,0,1,177.03,267.915Z" transform="translate(-148.455 -254.199)" fill="#f8f8f8"/>
        </g>
      </g>
    </g>
    <g id="Grupo_128381" data-name="Grupo 128381" transform="translate(112.763 297.792)">
      <g id="Grupo_90350" data-name="Grupo 90350" transform="translate(46.639 0)">
        <path id="Trazado_149753" data-name="Trazado 149753" d="M2041.506,332.562c-3.419-.767-6.939-2.228-9.246-5.524a15.028,15.028,0,0,1-2.032-11.574c.675-2.891,2.195-5.5,2.3-8.51.063-1.765-.373-3.5-.4-5.27-.088-6.111,4.426-10.425,7.277-15.35a29.2,29.2,0,0,0,3.636-11.811c.162-1.74,1.807-2.485,2.784-1.248a20.426,20.426,0,0,0,4.565,4.2c3.187,2.163,6.681,3.471,10.041,5.16a55.183,55.183,0,0,1,7.9,4.863c3.954,2.91,7.931,6.96,8.754,12.669.3,2.073.163,4.283.849,6.2,1.611,4.5,6.73,5.1,8.963,9.155,2.136,3.873.676,9.59-2.205,12.583s-6.735,3.913-10.424,4.549c-5.9,1.018-11.845,1.565-17.788,2.013C2051.39,335.05,2046.545,333.692,2041.506,332.562Z" transform="translate(-2028.332 -260.055)" fill="#2e3c42"/>
        <path id="Trazado_149754" data-name="Trazado 149754" d="M2082.029,348.19c0,2.05,1.614,2.563,2.421,3.588a2.866,2.866,0,0,1,0,2.563c-.807,1.025-2.421,1.025-2.825,1.538-1.211,2.05-1.614,5.126-3.229,5.126-3.5.444-8.514,1.274-10.312-2.856a3.848,3.848,0,0,0-3.663-2.343,2.012,2.012,0,0,0-1.763,1.1c-4.843,10.251-14.528,7.689-21.388,3.588-4.035-2.05-5.65-7.176-4.439-12.814.807-3.076,2.421-5.126,4.843-4.1-5.466-4.339-6.014-13.452-3.362-20.5-2.779,4.23-6.257,8.214-6.18,13.585.025,1.767.461,3.5.4,5.27-.109,3.012-1.629,5.619-2.3,8.51a15.028,15.028,0,0,0,2.032,11.574c2.307,3.3,5.827,4.756,9.246,5.524,5.039,1.13,9.884,2.488,14.983,2.1,5.943-.448,11.886-.995,17.788-2.013,3.689-.636,7.542-1.556,10.424-4.549s4.341-8.71,2.205-12.583a7.375,7.375,0,0,0-.415-.663A4.863,4.863,0,0,1,2082.029,348.19Z" transform="translate(-2028.332 -295.031)" fill="#1d272b" opacity="0.72"/>
        <path id="Trazado_149755" data-name="Trazado 149755" d="M2037.714,254.041a8.99,8.99,0,0,0-.607-6.48,5.481,5.481,0,0,0-5.538-2.871,27.362,27.362,0,0,0-3.066,1.126,3.013,3.013,0,0,1-3.072-.439c-.92-.954-.564-2.63.375-3.565a8.646,8.646,0,0,1,3.527-1.75,6.385,6.385,0,0,0,3.345-2.02c.8-1.118.846-2.585,1.208-3.911s1.363-2.731,2.734-2.64c1.33.088,2.219,1.535,3.53,1.774a4.8,4.8,0,0,0,2.874-.833,3.045,3.045,0,0,1,2.9-.269,2.232,2.232,0,0,1,.823,2.312,6.3,6.3,0,0,1-1.16,2.313,12.362,12.362,0,0,0-2.371,4.614,7.884,7.884,0,0,0,2.388,6.653,23.292,23.292,0,0,0,6.052,4.1c-.182-.1-4.229,2.99-4.735,3.283a35.871,35.871,0,0,1-5.441,2.57c-.968.361-4.323,1.976-5.265,1.209C2035.436,258.577,2037.459,255.088,2037.714,254.041Z" transform="translate(-2024.896 -231.486)" fill="#2e3c42"/>
        <path id="Trazado_149756" data-name="Trazado 149756" d="M2043.375,252.559c-2.747-3.139.515-6.276,4.264-7.805a7.419,7.419,0,0,0,.846-1.5c-3.5-.006-7.268,2.856-9.724,5.721a4.428,4.428,0,0,1-1.538-3.076,17.45,17.45,0,0,0-.512,5.126c-2.869-3.347-7.965-.9-9.054,2.776a3.285,3.285,0,0,0,2.761.18,27.371,27.371,0,0,1,3.066-1.126,5.481,5.481,0,0,1,5.538,2.871,8.99,8.99,0,0,1,.607,6.48c-.131.535-.721,1.706-1.165,2.81a12.661,12.661,0,0,0,3.884-11.941,19.79,19.79,0,0,0,3.5,1.978A13.921,13.921,0,0,1,2043.375,252.559Z" transform="translate(-2026.812 -239.648)" fill="#263238" opacity="0.72"/>
        <path id="Trazado_149757" data-name="Trazado 149757" d="M2072.681,277.773l-.028-.03a1.91,1.91,0,0,1-.327.13q-1.208.418-2.419.833a7.112,7.112,0,0,1-3.8.612,6.736,6.736,0,0,0,3.061-1.435,8.43,8.43,0,0,0,2.612-2.923.18.18,0,0,0-.244-.244c-2.067,1.157-4.114,2.572-6.524,2.835a.114.114,0,0,0,0,.228,7.082,7.082,0,0,0,3.328-.912c.963-.476,1.9-1.011,2.836-1.54a8.584,8.584,0,0,1-2.067,2.178,6.329,6.329,0,0,1-3.766,1.542c-.164.006-.25.243-.088.325,1.422.72,3.029.242,4.444-.246q1.3-.447,2.6-.9a2.082,2.082,0,0,0,.614-.269A2.561,2.561,0,0,1,2072.681,277.773Z" transform="translate(-2052.652 -261.461)" fill="#fff"/>
      </g>
      <g id="Grupo_90351" data-name="Grupo 90351" transform="translate(67.637 58.363)">
        <path id="Trazado_149758" data-name="Trazado 149758" d="M2094.826,432.788h0a3.6,3.6,0,0,1-.583-5.049l3.4-4.293a3.6,3.6,0,0,1,5.049-.583h0a3.6,3.6,0,0,1,.583,5.049l-3.4,4.293A3.6,3.6,0,0,1,2094.826,432.788Z" transform="translate(-2093.469 -422.089)" fill="#cfd8dc"/>
        <path id="Trazado_149759" data-name="Trazado 149759" d="M2096.128,433.492h0a2.637,2.637,0,0,1-.427-3.693l4.313-5.438a2.636,2.636,0,0,1,3.693-.426h0a2.636,2.636,0,0,1,.426,3.692l-4.312,5.438A2.636,2.636,0,0,1,2096.128,433.492Z" transform="translate(-2094.625 -422.977)" fill="#fff"/>
        <path id="Trazado_149760" data-name="Trazado 149760" d="M2099.968,441.514h0a1.011,1.011,0,0,1-.164-1.421l2.7-3.411a1.012,1.012,0,0,1,1.421-.164h0a1.011,1.011,0,0,1,.164,1.421l-2.7,3.41A1.011,1.011,0,0,1,2099.968,441.514Z" transform="translate(-2097.712 -431.948)" fill="#bdbdbd"/>
        <path id="Trazado_149761" data-name="Trazado 149761" d="M2116.09,429.557l-.328-.26a.8.8,0,0,1-.13-1.126h0a.8.8,0,0,1,1.126-.13l.328.261a.8.8,0,0,1,.13,1.126h0A.8.8,0,0,1,2116.09,429.557Z" transform="translate(-2108.725 -426.097)" fill="#d32f2f"/>
      </g>
      <g id="Grupo_90352" data-name="Grupo 90352" transform="translate(0 10.681)">
        <path id="Trazado_149762" data-name="Trazado 149762" d="M1887.389,368.514c-4.343-.767-8.814-2.228-11.744-5.524a12.433,12.433,0,0,1-2.581-11.574c.857-2.891,2.788-5.5,2.925-8.51.081-1.765-.473-3.5-.5-5.269-.111-6.112,5.623-10.425,9.242-15.35a24.975,24.975,0,0,0,4.619-11.811,2.078,2.078,0,0,1,3.535-1.249,24.716,24.716,0,0,0,5.8,4.2c4.047,2.163,8.486,3.471,12.753,5.16a75.43,75.43,0,0,1,10.04,4.864c5.022,2.91,10.074,6.959,11.119,12.669.38,2.072.207,4.283,1.079,6.2,2.046,4.5,8.548,5.1,11.385,9.155,2.713,3.873.858,9.59-2.8,12.583s-8.553,3.913-13.239,4.549c-7.5,1.018-15.045,1.564-22.594,2.013C1899.942,371,1893.789,369.645,1887.389,368.514Z" transform="translate(-1872.582 -295.679)" fill="#37474f"/>
        <path id="Trazado_149763" data-name="Trazado 149763" d="M1937.061,326.1c2.05-1.025-2.05-5.126-.513-6.151,1.538-1.537,4.614-.513,7.176.513a85.3,85.3,0,0,1-9.405-6.769c-.178-.091-.359-.175-.534-.269a24.71,24.71,0,0,1-5.8-4.2,2.078,2.078,0,0,0-3.536,1.249,25.318,25.318,0,0,1-1.27,5.417C1924.963,322.081,1931.209,327.451,1937.061,326.1Z" transform="translate(-1907.687 -295.679)" fill="#263238" opacity="0.72"/>
        <path id="Trazado_149764" data-name="Trazado 149764" d="M1938.86,384.143c0,2.05,2.05,2.563,3.075,3.588a2.326,2.326,0,0,1,0,2.563c-1.025,1.025-3.075,1.025-3.588,1.538-1.538,2.05-2.05,5.125-4.1,5.125-5.126.513-12.814,1.538-13.839-5.125-2.05.512-4.613-1.025-6.151,1.025-6.151,10.251-18.453,7.688-27.166,3.588-5.126-2.05-7.176-7.176-5.638-12.814,1.025-3.075,3.075-5.126,6.151-4.1-6.942-4.339-7.639-13.452-4.27-20.5-3.529,4.23-7.947,8.213-7.85,13.585.032,1.766.585,3.5.5,5.269-.137,3.012-2.068,5.619-2.925,8.51a12.433,12.433,0,0,0,2.581,11.574c2.931,3.3,7.4,4.757,11.744,5.524,6.4,1.131,12.553,2.488,19.03,2.1,7.549-.448,15.1-1,22.594-2.013,4.686-.636,9.579-1.556,13.239-4.549s5.515-8.71,2.8-12.583a7.818,7.818,0,0,0-.528-.663A7.207,7.207,0,0,1,1938.86,384.143Z" transform="translate(-1872.582 -330.656)" fill="#263238" opacity="0.72"/>
        <path id="Trazado_149765" data-name="Trazado 149765" d="M1926.231,272.766a52.694,52.694,0,0,1,9.11-5.2,9.9,9.9,0,0,1,5.183-1.155,7.1,7.1,0,0,1,4.642,3.006,17.011,17.011,0,0,1,2.325,5.158,7.054,7.054,0,0,0-2.933-.45,2.411,2.411,0,0,0-2.139,1.793c-.117.718.2,1.519-.16,2.149a1.853,1.853,0,0,1-2.182.505,7.908,7.908,0,0,0-2.309-.691l.19,3.7a1.349,1.349,0,0,1-1.866-.066,4.788,4.788,0,0,1-1.018-1.8c-1.11-2.673-3.67-4.672-6.4-2.711-2.715,1.951,1.24,13.54-.842,15.506-2.638,2.492-5.424-9.171-5.568-11.24C1922,277.455,1923.122,274.978,1926.231,272.766Z" transform="translate(-1907.026 -266.368)" fill="#37474f"/>
        <path id="Trazado_149766" data-name="Trazado 149766" d="M1947.017,272.972c-1.716.555-3.54,1.522-3.513,3.557a.818.818,0,0,1-1.023.779,22.526,22.526,0,0,0-6.663-.839,7.915,7.915,0,0,0-5.122,2.286,15.314,15.314,0,0,0-3.052,4.57,14.771,14.771,0,0,0-1.314,8.313c1.086,3.495,2.688,6.924,4.239,5.458,2.082-1.966-1.874-13.556.842-15.506s5.29.038,6.4,2.711a4.785,4.785,0,0,0,1.018,1.8,1.349,1.349,0,0,0,1.866.066l-.19-3.7a7.91,7.91,0,0,1,2.309.691,1.852,1.852,0,0,0,2.181-.5c.364-.63.043-1.431.16-2.149a2.41,2.41,0,0,1,2.139-1.793,7.054,7.054,0,0,1,2.933.45A17.017,17.017,0,0,0,1947.9,274,8.754,8.754,0,0,0,1947.017,272.972Z" transform="translate(-1909.762 -270.95)" fill="#263238" opacity="0.72"/>
        <path id="Trazado_149767" data-name="Trazado 149767" d="M1928.925,312.329a.171.171,0,0,0-.333.045,4.157,4.157,0,0,1-4.935,4.373c-.16-.029-.231.215-.068.247a4.408,4.408,0,0,0,5.247-3.466c.291,1.53.4,3.284-.788,4.36a4.172,4.172,0,0,1-2.571,1.065,1.714,1.714,0,0,1-1.8-1.337c-.028-.219-.375-.228-.352,0a1.972,1.972,0,0,0,1.649,1.672,4.105,4.105,0,0,0,2.973-.852C1929.913,317.034,1929.4,314.343,1928.925,312.329Z" transform="translate(-1907.786 -298.172)" fill="#fff"/>
      </g>
      <g id="Grupo_90354" data-name="Grupo 90354" transform="translate(0.629 73.264)">
        <path id="Trazado_149768" data-name="Trazado 149768" d="M1886.409,472.81c-1.948.684-3.818-.512-5.52-1.306a6.934,6.934,0,0,0-2.706-.751,3.5,3.5,0,0,0-2.419.777,3.409,3.409,0,0,0-1.073,1.986,3.937,3.937,0,0,0,.317,2.32,5.284,5.284,0,0,0,1.582,1.938,8.716,8.716,0,0,0,2.495,1.27c1.683.593,3.586.991,4.865,2.333a4.01,4.01,0,0,1,.406.5c.126.184.429.01.3-.176-1.007-1.469-2.739-2.1-4.363-2.624a14.937,14.937,0,0,1-2.709-1.061,5.554,5.554,0,0,1-1.858-1.627,3.861,3.861,0,0,1-.746-2.211,3.256,3.256,0,0,1,.709-2.061c1.218-1.461,3.275-1,4.781-.312,1.713.778,3.458,1.949,5.434,1.58a3.13,3.13,0,0,0,.654-.22C1886.763,473.081,1886.619,472.737,1886.409,472.81Z" transform="translate(-1874.636 -470.751)" fill="#efebe9"/>
        <g id="Grupo_90353" data-name="Grupo 90353" transform="translate(9.63 0.922)">
          <path id="Trazado_149769" data-name="Trazado 149769" d="M1908.241,506.285a3.236,3.236,0,0,0-1.811-.3,6.954,6.954,0,0,1-.344.659c2.237.334,3.938,1.487,6.049,2.3,4.829,1.858,10.549.242,15.231,2.443q.1-.277.209-.554c-3.437-1.913-7.87-1.749-11.826-1.925A19.736,19.736,0,0,1,1908.241,506.285Z" transform="translate(-1906.087 -496.115)" fill="#b2f2ef"/>
          <path id="Trazado_149770" data-name="Trazado 149770" d="M1929.4,487.605c.294-.59.589-1.176.86-1.757.236-.509.462-1.051.671-1.613.049-.131.1-.264.144-.4a27.762,27.762,0,0,0,.968-3.422,9.2,9.2,0,0,1-2.657-.662c-6.517-2.921-13.81-5.731-20.675-2.621-.014.506-.045,1.018-.093,1.532-.006.069-.012.14-.019.209a29.857,29.857,0,0,1-.568,3.494c-.014.068-.03.138-.046.2s-.036.16-.056.24a12.023,12.023,0,0,1-.718,2.212,3.237,3.237,0,0,1,1.811.3,19.735,19.735,0,0,0,7.508,2.617c3.957.176,8.389.013,11.826,1.925.236-.591.509-1.177.793-1.759C1929.229,487.942,1929.313,487.772,1929.4,487.605Z" transform="translate(-1906.865 -475.158)" fill="#00a79e"/>
          <path id="Trazado_149771" data-name="Trazado 149771" d="M1928.083,475.53a23.962,23.962,0,0,0-12.607-1.5,8.821,8.821,0,0,0-3.362,1.081c0,.207,0,.415-.009.624,6.864-3.11,14.158-.3,20.674,2.621a9.2,9.2,0,0,0,2.658.662c.032-.148.062-.295.09-.44C1932.906,477.992,1930.569,476.547,1928.083,475.53Z" transform="translate(-1910.262 -473.763)" fill="#b2f2ef"/>
          <path id="Trazado_149772" data-name="Trazado 149772" d="M1934.214,489.047c-.046.133-.1.266-.144.4-.712-.431-1.382-.932-2.1-1.362a20.721,20.721,0,0,0-2.41-1.177,36.4,36.4,0,0,0-9.053-2.755,32.609,32.609,0,0,0-8.773-.067c.007-.07.013-.14.019-.209a23.783,23.783,0,0,1,4.615-.57,27.974,27.974,0,0,1,9.651,1.308,20.52,20.52,0,0,1,4.486,1.955A25.682,25.682,0,0,1,1934.214,489.047Z" transform="translate(-1910.008 -480.367)" fill="#008f85"/>
          <path id="Trazado_149773" data-name="Trazado 149773" d="M1931.149,502.521c-.083.168-.167.337-.25.505-1.441-.638-2.858-1.33-4.332-1.9a53.336,53.336,0,0,0-5.737-1.86,59.2,59.2,0,0,0-5.9-1.228c-1.727-.269-3.461-.4-5.2-.551.016-.067.032-.137.045-.2a37.482,37.482,0,0,1,5.214.294,44.758,44.758,0,0,1,5.9,1.073,48.149,48.149,0,0,1,5.841,1.87A34.063,34.063,0,0,1,1931.149,502.521Z" transform="translate(-1908.618 -490.074)" fill="#008f85"/>
        </g>
        <path id="Trazado_149774" data-name="Trazado 149774" d="M1992.352,498.309a3.705,3.705,0,0,0-2.6-1.816c-2.3-.577-4.758.093-7.008-.749a3.876,3.876,0,0,1-1.566-1.046,7.149,7.149,0,0,1-1.035-1.936c-.479-1.1-1.344-2.434-2.735-2.281a.176.176,0,1,0,.047.346c1.341-.211,2.074,1.3,2.481,2.312a4.951,4.951,0,0,0,1.814,2.558c1.845,1.171,4.148.828,6.214.923a6.042,6.042,0,0,1,3.292.92,2.071,2.071,0,0,1,.889,1.311c.113.733-.484.983-1.1,1.066-2.714.362-5.43.725-8.167.871a37.193,37.193,0,0,1-4.588-.017c-.779-.055-1.557-.133-2.329-.251-.749-.115-1.489-.277-2.244-.343-.1-.009-.146.153-.052.194a13.6,13.6,0,0,0,4.206.84,34.485,34.485,0,0,0,4.341.086,76.887,76.887,0,0,0,8.83-.957,1.635,1.635,0,0,0,1.378-.754A1.559,1.559,0,0,0,1992.352,498.309Z" transform="translate(-1943.304 -484.431)" fill="#efebe9"/>
      </g>
      <g id="Grupo_90356" data-name="Grupo 90356" transform="translate(72.929 64.74)">
        <path id="Trazado_149775" data-name="Trazado 149775" d="M2130.6,467.113a42.35,42.35,0,0,0-14.456-.323c-.606.091-1.208.2-1.811.311a4.6,4.6,0,0,1-1.825.073,1.522,1.522,0,0,1-1.18-2.183c.879-1.817,3.375-2.206,5.156-2.464,2.09-.3,4.436-.4,6.172-1.75.124-.1-.035-.288-.165-.214-1.86,1.066-3.943,1.243-6.024,1.529-1.869.257-4.195.666-5.319,2.365a1.913,1.913,0,0,0,.071,2.415,3.1,3.1,0,0,0,2.795.63c1.3-.2,2.579-.465,3.888-.607q1.9-.206,3.817-.236a41.665,41.665,0,0,1,8.786.8C2130.726,467.5,2130.822,467.158,2130.6,467.113Z" transform="translate(-2110.752 -455.147)" fill="#efebe9"/>
        <path id="Trazado_149776" data-name="Trazado 149776" d="M2228.065,446.516a20.322,20.322,0,0,0-2.329-.813q-2.613-.843-5.284-1.488-1.455-.349-2.921-.639c-.5-.1-1-.194-1.5-.276a7.2,7.2,0,0,0-1.486-.172.081.081,0,0,0-.021.158,6.9,6.9,0,0,0,1.184.273l1.2.233q1.2.235,2.386.509,2.319.534,4.6,1.21,1.17.346,2.328.73.551.183,1.1.374a3.38,3.38,0,0,1,.947.431.609.609,0,0,1,.267.784,1.009,1.009,0,0,1-.9.419,8.221,8.221,0,0,0-2.012-.164,2.473,2.473,0,0,0-1.521,1.062c-.306.478-.434,2.056-1.307,1.714-.2-.078-.333.247-.145.344.619.32,1.173-.227,1.375-.782a6.952,6.952,0,0,1,.345-1.01,2.068,2.068,0,0,1,.859-.83,1.989,1.989,0,0,1,1.105-.21c.419.04.821.183,1.243.207a1.268,1.268,0,0,0,1.357-.791C2229.083,447.182,2228.554,446.743,2228.065,446.516Z" transform="translate(-2182.709 -443.06)" fill="#efebe9"/>
        <g id="Grupo_90355" data-name="Grupo 90355" transform="translate(10.676)">
          <path id="Trazado_149777" data-name="Trazado 149777" d="M2174.519,472.461a3.062,3.062,0,0,0-1.683.415c.174.187.334.375.478.562,2.031-.541,4.574-.347,7.042-.523,5.648-.4,8.1-3.45,14.02-3.57q-.235-.221-.46-.445c-4.676-.112-7.784,1.516-10.918,2.753C2180.719,472.434,2177.682,472.486,2174.519,472.461Z" transform="translate(-2164.502 -460.938)" fill="#b2f2ef"/>
          <path id="Trazado_149778" data-name="Trazado 149778" d="M2174.847,449.732c-.437-.5-.869-.995-1.313-1.479-.389-.424-.825-.867-1.293-1.317-.11-.1-.22-.211-.333-.317-.955-.9-2.022-1.808-3.081-2.638a10.483,10.483,0,0,1-2.708.464c-8.082.263-16.616.867-18.26,5.315q.827.519,1.631,1.064l.218.148c1.22.835,2.389,1.7,3.458,2.549.066.051.131.1.193.154s.151.121.225.181a18.865,18.865,0,0,1,1.923,1.737,3.066,3.066,0,0,1,1.684-.415c3.163.025,6.2-.026,8.479-.808,3.133-1.237,6.242-2.865,10.918-2.753-.48-.479-.929-.968-1.365-1.457C2175.1,450.016,2174.971,449.873,2174.847,449.732Z" transform="translate(-2147.172 -443.654)" fill="#00a79e"/>
          <path id="Trazado_149779" data-name="Trazado 149779" d="M2157.936,443.406c-4.743.265-8.6,1.422-11.023,3.308a2.8,2.8,0,0,0-1.3,1.88q.344.209.686.424c1.644-4.447,10.178-5.052,18.26-5.315a10.482,10.482,0,0,0,2.708-.464c-.14-.111-.281-.22-.422-.327C2164.25,443.413,2160.911,443.24,2157.936,443.406Z" transform="translate(-2145.617 -442.912)" fill="#b2f2ef"/>
          <path id="Trazado_149780" data-name="Trazado 149780" d="M2175.6,451.6c.114.106.225.212.334.317-1.007-.047-2.061-.154-3.068-.2-1.086-.049-2.087-.006-3.1.032a46.574,46.574,0,0,0-9.781,1.244,20.628,20.628,0,0,0-6.587,2.96l-.219-.148a10.717,10.717,0,0,1,2.794-1.965,24.553,24.553,0,0,1,8.617-2.424,33.083,33.083,0,0,1,5.5-.219C2171.863,451.292,2173.7,451.32,2175.6,451.6Z" transform="translate(-2150.868 -448.639)" fill="#008f85"/>
          <path id="Trazado_149781" data-name="Trazado 149781" d="M2186.871,462.726c.125.141.25.284.376.426-1.779.064-3.6.083-5.327.2-2.2.152-4.314.39-6.325.711s-3.928.723-5.743,1.193c-1.582.41-3.01.918-4.469,1.409-.063-.051-.128-.1-.194-.154a26.982,26.982,0,0,1,4.2-1.588,44.069,44.069,0,0,1,5.572-1.3,63.731,63.731,0,0,1,6.413-.74C2183.129,462.772,2184.943,462.668,2186.871,462.726Z" transform="translate(-2159.197 -456.647)" fill="#008f85"/>
        </g>
      </g>
      <g id="Grupo_90358" data-name="Grupo 90358" transform="translate(41.167 76.667)">
        <path id="Trazado_149782" data-name="Trazado 149782" d="M2143.168,531.613a4.6,4.6,0,0,0,3.688.486,10.3,10.3,0,0,1,4.066-.334c2.621.547,4.487,2.735,7,3.538a3.635,3.635,0,0,0,3.649-.461,1.66,1.66,0,0,0,.584-1.452,1.389,1.389,0,0,0-1.138-.977,9.4,9.4,0,0,0-1.608-.16,7.215,7.215,0,0,1-1.557-.273,7.911,7.911,0,0,1-2.77-1.483,8.281,8.281,0,0,1-2.2-2.772,5.7,5.7,0,0,1-.672-3.418.1.1,0,0,1,.186,0,10.948,10.948,0,0,0,.905,3.277,8.254,8.254,0,0,0,2.107,2.587,7.458,7.458,0,0,0,3.082,1.513c1.031.228,2.187.039,3.158.51a1.634,1.634,0,0,1,.571,2.48,3.27,3.27,0,0,1-3.02,1.263c-2.825-.2-4.8-2.481-7.316-3.483a5.594,5.594,0,0,0-2.3-.424,17.285,17.285,0,0,0-2.574.422,5.026,5.026,0,0,1-4.038-.512C2142.787,531.794,2142.974,531.466,2143.168,531.613Z" transform="translate(-2114.151 -518.405)" fill="#efebe9"/>
        <path id="Trazado_149783" data-name="Trazado 149783" d="M2049.067,507.884c.271.768,1.544.884,2.208.967a10.768,10.768,0,0,0,3.409-.167c.074.1.151.2.216.305a5.153,5.153,0,0,1,.219,4.732c-.111.245.252.458.363.212a5.554,5.554,0,0,0-.365-5.34,20.025,20.025,0,0,0,2.469-.744c1.043-.384,2.068-.816,3.095-1.239s2.1-.745,3.121-1.169a.126.126,0,0,0-.067-.243,14.025,14.025,0,0,0-3.056.959c-1,.384-1.984.807-2.989,1.178a20.955,20.955,0,0,1-2.865.859,4.774,4.774,0,0,0-4.359-1.609C2049.86,506.687,2048.773,507.052,2049.067,507.884Zm.919-.792a3.524,3.524,0,0,1,1.122-.193,4.443,4.443,0,0,1,3.243,1.39,11.074,11.074,0,0,1-2.095.18,8.412,8.412,0,0,1-1.494-.151,2.733,2.733,0,0,1-1.1-.365C2049.184,507.6,2049.581,507.236,2049.987,507.092Z" transform="translate(-2049.018 -505.195)" fill="#efebe9"/>
        <g id="Grupo_90357" data-name="Grupo 90357" transform="translate(5.312 0.049)">
          <path id="Trazado_149784" data-name="Trazado 149784" d="M2088.458,538.227a3.408,3.408,0,0,1,1.872.462c-.193.208-.372.417-.531.625-2.26-.6-5.09-.386-7.834-.582-6.284-.447-9.013-3.838-15.6-3.972.175-.163.345-.328.512-.495,5.2-.124,8.661,1.687,12.146,3.063C2081.56,538.2,2084.939,538.255,2088.458,538.227Z" transform="translate(-2066.367 -525.408)" fill="#b2f2ef"/>
          <path id="Trazado_149785" data-name="Trazado 149785" d="M2069.973,512.941c.487-.555.966-1.106,1.46-1.645.433-.471.917-.964,1.438-1.465.122-.117.246-.235.372-.353,1.062-1,2.25-2.011,3.427-2.935a11.673,11.673,0,0,0,3.013.517c8.991.292,18.486.965,20.314,5.912-.613.385-1.22.781-1.814,1.184l-.243.164c-1.358.929-2.659,1.892-3.847,2.836-.073.056-.146.115-.215.171-.085.068-.168.134-.25.2a20.929,20.929,0,0,0-2.139,1.932,3.41,3.41,0,0,0-1.872-.462c-3.519.028-6.9-.029-9.434-.9-3.485-1.376-6.944-3.187-12.146-3.063.534-.533,1.033-1.076,1.518-1.621C2069.695,513.258,2069.835,513.1,2069.973,512.941Z" transform="translate(-2067.526 -506.179)" fill="#00a79e"/>
          <path id="Trazado_149786" data-name="Trazado 149786" d="M2106.618,505.9c5.276.3,9.564,1.582,12.263,3.68a3.112,3.112,0,0,1,1.441,2.091c-.256.155-.51.313-.763.472-1.828-4.947-11.323-5.62-20.315-5.912a11.669,11.669,0,0,1-3.013-.517q.235-.184.469-.364C2099.593,505.912,2103.307,505.719,2106.618,505.9Z" transform="translate(-2087.087 -505.354)" fill="#b2f2ef"/>
          <path id="Trazado_149787" data-name="Trazado 149787" d="M2084.2,515.025c-.125.118-.25.236-.371.353,1.12-.052,2.292-.172,3.412-.222,1.209-.055,2.322-.007,3.446.036a51.791,51.791,0,0,1,10.881,1.384,22.965,22.965,0,0,1,7.329,3.292l.242-.164a11.937,11.937,0,0,0-3.108-2.186,27.328,27.328,0,0,0-9.587-2.7,36.832,36.832,0,0,0-6.122-.243C2088.359,514.677,2086.314,514.708,2084.2,515.025Z" transform="translate(-2078.481 -511.726)" fill="#008f85"/>
          <path id="Trazado_149788" data-name="Trazado 149788" d="M2073.412,527.4c-.138.157-.278.316-.418.474,1.979.071,4,.092,5.926.225,2.446.169,4.8.434,7.036.791s4.369.8,6.389,1.328c1.759.456,3.349,1.021,4.972,1.567.07-.056.142-.115.215-.171a30.027,30.027,0,0,0-4.669-1.767,49.072,49.072,0,0,0-6.2-1.444,70.945,70.945,0,0,0-7.134-.823C2077.575,527.448,2075.557,527.332,2073.412,527.4Z" transform="translate(-2070.965 -520.634)" fill="#008f85"/>
        </g>
      </g>
      <g id="Grupo_90360" data-name="Grupo 90360" transform="translate(45.46 37.175)">
        <path id="Trazado_149796" data-name="Trazado 149796" d="M2024.007,352.892c1.178.306,2.125,1.151,3.225,1.331a11.842,11.842,0,0,1,9.5,8.254c.264.923.824,1.836,1.114,2.789a6.4,6.4,0,0,1,.334,1.783,1.137,1.137,0,0,1-.12.606.437.437,0,0,1-.59.143,1.361,1.361,0,0,1-.485-.537,17.113,17.113,0,0,1-1.031-2.918,8,8,0,0,0-2-3.126,29.309,29.309,0,0,1,2.327,6.832,7.017,7.017,0,0,1-.1,4.162,1.234,1.234,0,0,1-.574.709.667.667,0,0,1-.79-.45,3.267,3.267,0,0,1-.2-1.078,24.763,24.763,0,0,0-2.384-8.685,4.593,4.593,0,0,0,.711,2.477,9.542,9.542,0,0,1-.024,8.034c-.205.457-.594.97-1.036.859-.338-.084-.5-.48-.547-.824a5.783,5.783,0,0,1,.108-1.584,12.318,12.318,0,0,0,.124-1.919c-.01-.677-.075-1.337-.126-1.989a7.454,7.454,0,0,0-1.061-4.1c-.017,2.409.258,4.618-.472,6.84a1.469,1.469,0,0,1-.549.827,1.007,1.007,0,0,1-1.1-.054.85.85,0,0,1-.249-.88,23.036,23.036,0,0,0,.471-3.969,9.864,9.864,0,0,0-.3-2.309,1.557,1.557,0,0,0-.385-.506,11.866,11.866,0,0,0-.7,2.289,2.472,2.472,0,0,1-2.137,1.484c-.285.033-.606.025-.664-.072-.032-.054.025-.126.08-.2a3.273,3.273,0,0,0,.847-2.2,8.522,8.522,0,0,0-.742-1.887c-.295-.821-.4-1.957-.749-3.162a1.4,1.4,0,0,0-1.137-.629c-.456-.007-.912-.068-1.349-.041a3.09,3.09,0,0,1-.094-1.911,10.362,10.362,0,0,1,1.565-3.468A3.392,3.392,0,0,1,2024.007,352.892Z" transform="translate(-2021.044 -352.892)" fill="#00a79e"/>
        <path id="Trazado_149797" data-name="Trazado 149797" d="M2025.226,375.846c.681-.951,1.646-2.191,1.345-3.461a23.637,23.637,0,0,0-1.581-3.065c-.337-.782-.062-1.74-.15-2.8-1.138,1.649-2.375.82-3.673.79a.134.134,0,0,0-.11.061,2.537,2.537,0,0,0,.186,1.281c.436-.027.893.034,1.349.041a1.4,1.4,0,0,1,1.137.629c.352,1.205.454,2.341.749,3.162a8.52,8.52,0,0,1,.742,1.887,3.272,3.272,0,0,1-.847,2.2c-.055.071-.113.142-.081.2.049.083.288.1.533.084C2025.027,376.533,2025.021,376.225,2025.226,375.846Z" transform="translate(-2021.045 -362.344)" fill="#008f85"/>
        <path id="Trazado_149798" data-name="Trazado 149798" d="M2044.736,396.1a.844.844,0,0,1-.488-.668c-.49-2.092.556-3.735.133-5.9a1.413,1.413,0,0,0-.783-1.1.928.928,0,0,1,.23.343,9.89,9.89,0,0,1,.3,2.309,23.109,23.109,0,0,1-.471,3.969.851.851,0,0,0,.249.88A1,1,0,0,0,2044.736,396.1Z" transform="translate(-2036.692 -377.549)" fill="#008f85"/>
        <path id="Trazado_149799" data-name="Trazado 149799" d="M2059.009,387.063a2.942,2.942,0,0,0-.9-.969,24.655,24.655,0,0,1,2.219,8.334,3.274,3.274,0,0,0,.2,1.078.667.667,0,0,0,.79.45.679.679,0,0,0,.228-.155.863.863,0,0,1-.248-.343C2059.879,392.728,2060.126,389.733,2059.009,387.063Z" transform="translate(-2046.756 -375.927)" fill="#008f85"/>
        <path id="Trazado_149800" data-name="Trazado 149800" d="M2030.165,355.706c3.87-2.321,8.329,2.507,10.695,6.422a3.3,3.3,0,0,1,.683,1.555c.235.769.668,1.425.99,2.277-.055-.235-.12-.466-.19-.694-.289-.953-.849-1.866-1.113-2.789a11.843,11.843,0,0,0-9.5-8.254c-1.1-.18-2.047-1.026-3.225-1.331a3.718,3.718,0,0,0-.976.6,10.466,10.466,0,0,1,2.278.726C2030.539,354.63,2030.645,355.169,2030.165,355.706Z" transform="translate(-2025.545 -352.892)" fill="#00c1b9"/>
        <path id="Trazado_149801" data-name="Trazado 149801" d="M2065.4,382.115c-.27-.53-.79-1.4-1.354-1.229a8.052,8.052,0,0,1,1.74,2.863,17.1,17.1,0,0,0,1.03,2.918,1.355,1.355,0,0,0,.485.537.437.437,0,0,0,.589-.142,1.271,1.271,0,0,1-.491-.437C2066.493,385.189,2066.287,383.494,2065.4,382.115Z" transform="translate(-2050.876 -372.298)" fill="#008f85"/>
        <path id="Trazado_149802" data-name="Trazado 149802" d="M2053.23,394.929a12.29,12.29,0,0,1-.124,1.919,5.783,5.783,0,0,0-.108,1.584c.048.343.209.74.548.824l.021,0a.966.966,0,0,1-.122-.4c-.17-3.081.719-5.8-.285-8.466a2.008,2.008,0,0,0-.885-1.209,8.422,8.422,0,0,1,.829,3.756C2053.155,393.592,2053.22,394.252,2053.23,394.929Z" transform="translate(-2042.712 -378.071)" fill="#008f85"/>
      </g>
      <path id="Trazado_149803" data-name="Trazado 149803" d="M2088.663,282.875c-.2-.211-.388-.432-.569-.662-.351-.133-.7-.277-1.036-.427A14.483,14.483,0,0,0,2088.663,282.875Z" transform="translate(-2021.385 -266.384)" fill="#2e3c42"/>
    </g>
    <g id="Grupo_127521" data-name="Grupo 127521" transform="translate(124.192 120.552)">
      <g id="Grupo_18423" data-name="Grupo 18423" transform="translate(0 0)">
        <g id="Grupo_18421" data-name="Grupo 18421">
          <g id="Grupo_18420" data-name="Grupo 18420">
            <g id="Grupo_18419" data-name="Grupo 18419">
              <path id="Trazado_40936" data-name="Trazado 40936" d="M240.564,2168.691a22.971,22.971,0,1,1-22.97-22.97A22.97,22.97,0,0,1,240.564,2168.691Z" transform="translate(-194.623 -2145.721)" fill="#fff"/>
            </g>
          </g>
        </g>
        <path id="Trazado_40937" data-name="Trazado 40937" d="M240.831,2168.982a22.97,22.97,0,1,0-22.97,22.971A22.881,22.881,0,0,0,240.831,2168.982Z" transform="translate(-194.89 -2146.012)" fill="url(#radial-gradient)"/>
        <path id="Trazado_40938" data-name="Trazado 40938" d="M237.907,2171.5a17.533,17.533,0,1,0-17.533,17.533A17.467,17.467,0,0,0,237.907,2171.5Z" transform="translate(-197.334 -2148.452)" fill="none" stroke="#008f85" stroke-miterlimit="10" stroke-width="1.5"/>
        <g id="Grupo_18422" data-name="Grupo 18422" transform="translate(4.069 12.896)">
          <path id="Trazado_40939" data-name="Trazado 40939" d="M240.094,2164.488a22.973,22.973,0,0,1-39.549,22.875,22.9,22.9,0,0,0,39.549-22.875Z" transform="translate(-200.545 -2164.488)" fill="#eceef0"/>
        </g>
      </g>
      <g id="Grupo_117564" data-name="Grupo 117564" transform="translate(15.452 9.812)">
        <path id="Trazado_151106" data-name="Trazado 151106" d="M5474.785,937.374v-2.794c0-1.914,0-3.828,0-5.743,0-1.522.9-2.128,2.2-1.592a9.085,9.085,0,0,1,.916-1.224,1.191,1.191,0,0,1,.833-.217c.786.057,1.154.544,1.335,1.646,1.443-.595,2.367.07,2.392,1.583.1-.037.2-.066.285-.1a1.407,1.407,0,0,1,2.069,1.294c.024,2.913,0,5.826-.021,8.739-.006.781-.037,1.565-.118,2.341a5.271,5.271,0,0,1-1.73,3.242,1.24,1.24,0,0,0-.424.991c.016,1.381,0,2.762.022,4.143a1.323,1.323,0,0,0,.178.585c.327.6.309,1.1-.274,1.435a6.421,6.421,0,0,1-5.857.356c-1.022-.477-1.182-.947-.7-1.945a.866.866,0,0,0,.094-.363c.006-1.382.011-2.765-.007-4.147a.694.694,0,0,0-.22-.48,10.163,10.163,0,0,1-2.708-3.66c-.7-1.429-1.375-2.873-2.054-4.314a1.441,1.441,0,0,1,.151-1.618,1.194,1.194,0,0,1,1.365-.45,2.335,2.335,0,0,1,.949.687c.437.513.794,1.092,1.185,1.643Zm7.533,13.846a4.776,4.776,0,0,1-.252-1.007c-.008-1.593.051-3.188.015-4.78a1.185,1.185,0,0,1,.436-1.094,4.953,4.953,0,0,0,1.833-3.646c.058-.93-.007-1.866-.009-2.8,0-2.509.01-5.018-.016-7.527a1.252,1.252,0,0,0-.339-.888,1.072,1.072,0,0,0-.962-.136,1.341,1.341,0,0,0-.581.938c-.06,1.571-.022,3.146-.035,4.719a2.589,2.589,0,0,1-.145.586l-.231-.047c-.014-.225-.04-.449-.041-.674,0-1.935,0-3.87-.006-5.8,0-.252.034-.573-.1-.741-.216-.27-.552-.594-.849-.607a1.381,1.381,0,0,0-.892.537,1.363,1.363,0,0,0-.129.8c-.01,1.956,0,3.912-.011,5.868a4.608,4.608,0,0,1-.1.666l-.216-.006a5.335,5.335,0,0,1-.089-.687c-.007-2.339,0-4.678-.005-7.017a5.236,5.236,0,0,0-.02-.764.937.937,0,0,0-1.019-.844.887.887,0,0,0-.893.9c-.021.232-.014.467-.015.7,0,2.339,0,4.678-.008,7.017a4.811,4.811,0,0,1-.108.71l-.249-.012a5.306,5.306,0,0,1-.092-.691c-.007-2.084,0-4.167-.007-6.251,0-.8-.494-1.255-1.187-1.1-.62.142-.746.607-.745,1.167q.009,4.657,0,9.313a1.8,1.8,0,0,1-.159.5,1.689,1.689,0,0,1-.435-.306c-.541-.736-1.048-1.5-1.591-2.232-.329-.446-.749-.71-1.316-.379a.991.991,0,0,0-.319,1.4c.759,1.614,1.511,3.231,2.316,4.821a8.463,8.463,0,0,0,2.435,3.073.84.84,0,0,1,.23.6q.029,2.456,0,4.911a3.034,3.034,0,0,1-.261.775C5476.771,952.491,5481.658,952.495,5482.317,951.22Z" transform="translate(-5470.815 -925.801)" fill="#1d272b"/>
      </g>
    </g>
    <g id="Grupo_127522" data-name="Grupo 127522" transform="translate(124.192 173.045)">
      <g id="Grupo_18423-2" data-name="Grupo 18423" transform="translate(0 0)">
        <g id="Grupo_18421-2" data-name="Grupo 18421">
          <g id="Grupo_18420-2" data-name="Grupo 18420">
            <g id="Grupo_18419-2" data-name="Grupo 18419">
              <path id="Trazado_40936-2" data-name="Trazado 40936" d="M240.564,2168.691a22.971,22.971,0,1,1-22.97-22.97A22.97,22.97,0,0,1,240.564,2168.691Z" transform="translate(-194.623 -2145.721)" fill="#fff"/>
            </g>
          </g>
        </g>
        <path id="Trazado_40937-2" data-name="Trazado 40937" d="M240.831,2168.982a22.97,22.97,0,1,0-22.97,22.971A22.881,22.881,0,0,0,240.831,2168.982Z" transform="translate(-194.89 -2146.012)" fill="url(#radial-gradient)"/>
        <path id="Trazado_40938-2" data-name="Trazado 40938" d="M237.907,2171.5a17.533,17.533,0,1,0-17.533,17.533A17.467,17.467,0,0,0,237.907,2171.5Z" transform="translate(-197.334 -2148.452)" fill="none" stroke="#008f85" stroke-miterlimit="10" stroke-width="1.5"/>
        <g id="Grupo_18422-2" data-name="Grupo 18422" transform="translate(4.069 12.896)">
          <path id="Trazado_40939-2" data-name="Trazado 40939" d="M240.094,2164.488a22.973,22.973,0,0,1-39.549,22.875,22.9,22.9,0,0,0,39.549-22.875Z" transform="translate(-200.545 -2164.488)" fill="#eceef0"/>
        </g>
      </g>
      <g id="Grupo_117566" data-name="Grupo 117566" transform="translate(9.631 17.921)">
        <path id="Trazado_151094" data-name="Trazado 151094" d="M4985.354,976.678a9.887,9.887,0,0,1,.15-1.226,2.935,2.935,0,0,1,2.853-2.224q8.989-.012,17.977,0a2.928,2.928,0,0,1,2.963,2.884c.008.178.019.356.028.551a2.656,2.656,0,0,0,.264.037c1.018.031,1.1.109,1.1,1.11s0,2.007,0,3.01c0,.592-.244.869-.9.835a.718.718,0,0,0-.835.593,6.5,6.5,0,0,1-7.08,3.957,27.172,27.172,0,0,1-3.541-1.017,3.06,3.06,0,0,0-1.973,0,23.884,23.884,0,0,1-3.588,1.025,6.528,6.528,0,0,1-7.127-4.208.411.411,0,0,0-.494-.343,2.024,2.024,0,0,1-.686-.038.664.664,0,0,1-.456-.734c0-1.034,0-2.069,0-3.1,0-.936.128-1.065,1.082-1.091C4985.172,976.7,4985.251,976.687,4985.354,976.678Zm12.007-3.132c-2.963,0-5.927-.007-8.891,0a2.654,2.654,0,0,0-2.717,2.72c-.008,1.433-.047,2.867.021,4.3a5.034,5.034,0,0,0,.456,2,6.071,6.071,0,0,0,4.3,3.234,7.244,7.244,0,0,0,4.622-.557,4.855,4.855,0,0,1,4.356-.009,5.225,5.225,0,0,0,.645.241,6.933,6.933,0,0,0,5.291-.087,5.415,5.415,0,0,0,3.537-5.01c.035-1.3,0-2.6-.01-3.9a2.706,2.706,0,0,0-2.915-2.928Zm11.943,7.776c1.15.072,1.086.065,1.05-.906-.005-.164,0-.328,0-.492,0-.819,0-1.638,0-2.457,0-.363-.228-.453-.518-.429-.193.016-.523-.146-.527.24C5009.3,978.615,5009.3,979.952,5009.3,981.322Zm-23.9-.018v-4.232c-.865-.08-1.022-.016-1.03.42-.018.987-.04,1.975-.021,2.962.018.929.065.952,1.01.875C4985.374,981.328,4985.386,981.313,4985.4,981.3Z" transform="translate(-4984.01 -973.221)" fill="#1d272b"/>
        <path id="Trazado_151095" data-name="Trazado 151095" d="M5024.258,988.779q4.27,0,8.54,0c1.285,0,1.79.509,1.794,1.794,0,1.116-.041,2.235.013,3.349a4.553,4.553,0,0,1-3.806,4.7,6.361,6.361,0,0,1-3.58-.344q-.976-.345-1.953-.678a4.147,4.147,0,0,0-2.747.19,23.268,23.268,0,0,1-2.771.848,5.158,5.158,0,0,1-4.543-1.228,4.041,4.041,0,0,1-1.393-3.147c-.027-1.266-.007-2.534,0-3.8a1.484,1.484,0,0,1,1.666-1.679C5018.4,988.774,5021.33,988.779,5024.258,988.779Zm-.01.361q-4.393,0-8.785,0c-.911,0-1.291.378-1.294,1.285,0,1.3-.042,2.6.007,3.9a4.338,4.338,0,0,0,.362,1.7,4.767,4.767,0,0,0,4.7,2.342,20.651,20.651,0,0,0,3.11-.9,5.032,5.032,0,0,1,3.7.011c.457.182.925.342,1.39.5a5.758,5.758,0,0,0,3.529.241c1.8-.51,3.4-2.044,3.306-3.911-.065-1.3-.026-2.6-.035-3.894-.007-.9-.391-1.277-1.3-1.278Z" transform="translate(-5010.854 -987.241)" fill="#1d272b"/>
      </g>
    </g>
    <g id="Grupo_127523" data-name="Grupo 127523" transform="translate(180.09 120.552)">
      <g id="Grupo_18423-3" data-name="Grupo 18423" transform="translate(0 0)">
        <g id="Grupo_18421-3" data-name="Grupo 18421">
          <g id="Grupo_18420-3" data-name="Grupo 18420">
            <g id="Grupo_18419-3" data-name="Grupo 18419">
              <path id="Trazado_40936-3" data-name="Trazado 40936" d="M240.564,2168.691a22.971,22.971,0,1,1-22.97-22.97A22.97,22.97,0,0,1,240.564,2168.691Z" transform="translate(-194.623 -2145.721)" fill="#fff"/>
            </g>
          </g>
        </g>
        <path id="Trazado_40937-3" data-name="Trazado 40937" d="M240.831,2168.982a22.97,22.97,0,1,0-22.97,22.971A22.881,22.881,0,0,0,240.831,2168.982Z" transform="translate(-194.89 -2146.012)" fill="url(#radial-gradient)"/>
        <path id="Trazado_40938-3" data-name="Trazado 40938" d="M237.907,2171.5a17.533,17.533,0,1,0-17.533,17.533A17.467,17.467,0,0,0,237.907,2171.5Z" transform="translate(-197.334 -2148.452)" fill="none" stroke="#008f85" stroke-miterlimit="10" stroke-width="1.5"/>
        <g id="Grupo_18422-3" data-name="Grupo 18422" transform="translate(4.069 12.896)">
          <path id="Trazado_40939-3" data-name="Trazado 40939" d="M240.094,2164.488a22.973,22.973,0,0,1-39.549,22.875,22.9,22.9,0,0,0,39.549-22.875Z" transform="translate(-200.545 -2164.488)" fill="#eceef0"/>
        </g>
      </g>
      <g id="w1LOms" transform="translate(12.308 11.174)">
        <g id="Grupo_117565" data-name="Grupo 117565" transform="translate(0 0)">
          <path id="Trazado_157841" data-name="Trazado 157841" d="M5232.657,1730.638h-10.181c-.646,0-.713-.081-.657-.729.152-1.773.311-3.546.445-5.321a2.2,2.2,0,0,1,1.1-1.849c1.193-.725,2.362-1.488,3.551-2.222a.66.66,0,0,0,.357-.582c.132-2.283.3-4.564.412-6.848a3.8,3.8,0,0,1,3.982-3.819,21.089,21.089,0,0,1,2.758.067,3.71,3.71,0,0,1,3.219,3.637c.122,2.314.3,4.626.423,6.939a.725.725,0,0,0,.414.641c1.186.737,2.357,1.5,3.548,2.226a2.038,2.038,0,0,1,1.027,1.648q.24,2.774.467,5.551c.047.588-.031.66-.64.66Zm10.063-.734a2.192,2.192,0,0,0,.018-.25q-.207-2.593-.417-5.186a1.345,1.345,0,0,0-.7-1.074c-1.291-.8-2.579-1.607-3.85-2.438a.921.921,0,0,1-.4-.594c-.176-2.48-.321-4.963-.471-7.445a2.957,2.957,0,0,0-2.545-2.844,22.094,22.094,0,0,0-2.8-.072,3.064,3.064,0,0,0-3.132,2.973c-.146,2.436-.306,4.871-.441,7.308a.778.778,0,0,1-.419.694c-1.214.749-2.4,1.548-3.63,2.268a1.784,1.784,0,0,0-.958,1.6c-.049,1-.164,1.987-.244,2.981-.055.679-.1,1.36-.148,2.051h3.7v-.522c0-.89,0-1.781,0-2.672,0-.275-.092-.661.35-.664.466,0,.377.4.379.689.008.676,0,1.351,0,2.027v1.141h5.169a1.078,1.078,0,0,0,.043-.2q.005-3.34,0-6.68a.4.4,0,0,0-.1-.28,1.511,1.511,0,0,0-1.261-.052,1.619,1.619,0,0,1-2.03-.211,1.5,1.5,0,0,1-.169-1.979,1.544,1.544,0,0,0,.411-1.431,1.629,1.629,0,0,1,0-.368c.029-.407.218-.534.613-.4.639.216,1.275.44,1.913.662a2.932,2.932,0,0,0,2.028-.022c.705-.258,1.41-.517,2.12-.761.445-.153.652-.011.653.455,0,.367-.059.734-.053,1.1a.917.917,0,0,0,.153.529,1.605,1.605,0,0,1-2.14,2.375.56.56,0,0,0-.353-.118c-.34.066-.673.174-1,.264a1.058,1.058,0,0,0-.033.163c0,2.212,0,4.423-.01,6.634,0,.348.178.354.434.353,1.49-.006,2.979,0,4.469,0,.132,0,.264-.02.421-.032v-3.264c0-.285-.01-.6.391-.594s.341.323.342.579c0,.968,0,1.935,0,2.9,0,.2-.038.413.281.411C5240.444,1729.9,5241.563,1729.9,5242.72,1729.9Zm-12.86-10.9c-.047.5-.019.73.428.771a1.5,1.5,0,0,1,1.287,1.411c.047.649.095.717.752.772a6.827,6.827,0,0,0,.958-.039c.368-.022.511-.182.489-.586a1.508,1.508,0,0,1,1.134-1.539,5.046,5.046,0,0,1,.707-.08c.023-.23.045-.448.083-.834C5233.731,1719.935,5231.827,1720.2,5229.86,1719.008Zm-.713,2.324a.848.848,0,1,0,.838-.849A.824.824,0,0,0,5229.147,1721.333Zm7.042.014a.82.82,0,0,0-.819-.864.851.851,0,1,0-.024,1.7A.807.807,0,0,0,5236.188,1721.346Z" transform="translate(-5221.803 -1709.257)" fill="#1d272b"/>
          <path id="Trazado_157842" data-name="Trazado 157842" d="M5302.079,1763.662c.9,0,1.81,0,2.714,0,.872,0,1.1.219,1.1,1.074,0,.445.012.89,0,1.334a.717.717,0,0,1-.81.788c-.674.009-1.349.017-2.023,0a1.1,1.1,0,0,1-.595-.183.577.577,0,0,0-.815.019.814.814,0,0,1-.463.162c-.751.016-1.5.019-2.254,0a.635.635,0,0,1-.672-.668c-.02-.612-.023-1.227,0-1.839.018-.45.3-.666.872-.673.98-.014,1.962,0,2.943,0Zm-3.085,2.465c.449,0,.846-.012,1.241,0a2.093,2.093,0,0,0,1.563-.386.561.561,0,0,1,.537,0c.87.692,1.849.257,2.792.393v-1.682h-6.133Z" transform="translate(-5291.2 -1758.647)" fill="#1d272b"/>
        </g>
      </g>
    </g>
    <g id="Grupo_127524" data-name="Grupo 127524" transform="translate(183.738 173.045)">
      <g id="Grupo_18423-4" data-name="Grupo 18423" transform="translate(0 0)">
        <g id="Grupo_18421-4" data-name="Grupo 18421">
          <g id="Grupo_18420-4" data-name="Grupo 18420">
            <g id="Grupo_18419-4" data-name="Grupo 18419">
              <path id="Trazado_40936-4" data-name="Trazado 40936" d="M240.564,2168.691a22.971,22.971,0,1,1-22.97-22.97A22.97,22.97,0,0,1,240.564,2168.691Z" transform="translate(-194.623 -2145.721)" fill="#fff"/>
            </g>
          </g>
        </g>
        <path id="Trazado_40937-4" data-name="Trazado 40937" d="M240.831,2168.982a22.97,22.97,0,1,0-22.97,22.971A22.881,22.881,0,0,0,240.831,2168.982Z" transform="translate(-194.89 -2146.012)" fill="url(#radial-gradient)"/>
        <path id="Trazado_40938-4" data-name="Trazado 40938" d="M237.907,2171.5a17.533,17.533,0,1,0-17.533,17.533A17.467,17.467,0,0,0,237.907,2171.5Z" transform="translate(-197.334 -2148.452)" fill="none" stroke="#008f85" stroke-miterlimit="10" stroke-width="1.5"/>
        <g id="Grupo_18422-4" data-name="Grupo 18422" transform="translate(4.069 12.896)">
          <path id="Trazado_40939-4" data-name="Trazado 40939" d="M240.094,2164.488a22.973,22.973,0,0,1-39.549,22.875,22.9,22.9,0,0,0,39.549-22.875Z" transform="translate(-200.545 -2164.488)" fill="#eceef0"/>
        </g>
      </g>
      <g id="Grupo_117567" data-name="Grupo 117567" transform="translate(11.143 13.146)">
        <path id="Trazado_151096" data-name="Trazado 151096" d="M5043.892,673.605a8.115,8.115,0,0,1-.065,7.89,3.955,3.955,0,0,1,.916.95c.093.2-.181.633-.375.9-.673.913-1.122-.18-1.787-.2a14.141,14.141,0,0,1-19.036,0,6.058,6.058,0,0,1-1.457.49c-.183.016-.444-.46-.612-.747-.307-.529-.257-.591.855-1.32a8.072,8.072,0,0,1-.121-7.933c-1.053-.773-1.053-.773-.574-1.566.393-.648.405-.648,1.635-.043,2.17-1.733,4.356-3.437,6.5-5.2s4.231-1.833,6.4-.132q2.729,2.139,5.465,4.271a2.514,2.514,0,0,1,.409.358c.441.537.833.839,1.584.334.588-.4.767.333,1.016.708a.564.564,0,0,1-.207.911C5044.261,673.375,5044.093,673.483,5043.892,673.605Zm-21.25.295a7.078,7.078,0,0,0,.146,7.413c.375-.158.768-.493,1.145.042.506.719.526.971.038,1.557,4.7,4.922,13.944,4.547,18.217-.078-.8-.392-.328-.865-.088-1.342.33-.655.8-.415,1.242-.18a7.038,7.038,0,0,0,.109-7.434c-.433.138-.869.632-1.3-.039-.525-.82-.531-.9.176-1.6a8.982,8.982,0,0,0-.8-.809c-2-1.581-4-3.181-6.053-4.7a4.883,4.883,0,0,0-1.981-.782,4.25,4.25,0,0,0-3.513,1.252c-1.461,1.2-2.978,2.327-4.462,3.5-.611.482-1.2,1-1.807,1.5.772.673.782.721.356,1.44C5023.69,674.288,5023.69,674.288,5022.642,673.9Zm-.928-1.1,1.762,1.013c.17-.3.321-.563.494-.864l-1.761-1C5022.03,672.259,5021.891,672.5,5021.714,672.8Zm22.7,0c-.2-.314-.354-.571-.526-.848l-1.743,1c.181.307.327.559.5.853Zm-2.266,9.5,1.762,1c.188-.327.334-.576.494-.853l-1.76-1Zm-18.172,0-.516-.85-1.739,1,.5.847Z" transform="translate(-5021.228 -665.462)" fill="#1d272b"/>
        <path id="Trazado_151102" data-name="Trazado 151102" d="M5070.745,686.551a3.96,3.96,0,0,1,2.438.917c1.329,1.043,2.661,2.082,3.981,3.135.112.089.15.271.223.411-.158-.027-.354,0-.468-.089-1.231-.939-2.458-1.883-3.667-2.851a3.453,3.453,0,0,0-4.982-.031c-1.226.979-2.47,1.934-3.718,2.884-.11.084-.3.059-.459.085.074-.14.114-.323.229-.414,1.323-1.05,2.661-2.081,3.986-3.129A3.987,3.987,0,0,1,5070.745,686.551Z" transform="translate(-5058.912 -684.002)" fill="#1d272b"/>
        <path id="Trazado_151103" data-name="Trazado 151103" d="M5097.865,792.83a2.786,2.786,0,0,1,.5-.093c1.369-.008,2.737-.012,4.106,0a1.44,1.44,0,0,1,.49.211c-.159.073-.316.208-.477.21-1.368.017-2.737.014-4.105,0a2.531,2.531,0,0,1-.522-.115C5097.858,792.978,5097.862,792.9,5097.865,792.83Z" transform="translate(-5088.592 -777.347)" fill="#1d272b"/>
        <path id="Trazado_151104" data-name="Trazado 151104" d="M5097.5,812.017h5.241C5102.285,812.439,5097.893,812.424,5097.5,812.017Z" transform="translate(-5088.283 -794.302)" fill="#1d272b"/>
        <path id="Trazado_151105" data-name="Trazado 151105" d="M5106.4,802.418c-.483,0-.967.011-1.449-.009-.107,0-.209-.118-.313-.182.1-.075.192-.214.289-.215q1.479-.025,2.958,0c.1,0,.193.143.29.219-.109.063-.215.175-.325.18C5107.368,802.43,5106.884,802.419,5106.4,802.418Z" transform="translate(-5094.557 -785.496)" fill="#1d272b"/>
      </g>
    </g>
    <rect id="Rectángulo_34968" data-name="Rectángulo 34968" width="4.497" height="50" transform="translate(120.605 37.448)" fill="#d93328"/>
  </g>
</svg>
