<svg xmlns="http://www.w3.org/2000/svg" width="133.271" height="142.781" viewBox="0 0 133.271 142.781">
  <g id="img8" transform="translate(0 0)">
    <g id="Grupo_121010" data-name="Grupo 121010" transform="translate(0 0)">
      <path id="Trazado_158614" data-name="Trazado 158614" d="M1392.831,79.631c-2.143-.933-4.607-1.475-6.341-2.9a8.56,8.56,0,0,0-6.054-1.877c-17.007.057-34.014.032-51.021.031-2.713,0-3.344-.515-3.694-3.225q-2.441-18.857-4.846-37.718c-1.4-10.866-2.816-21.731-4.257-32.849-1.368,0-2.737.006-4.107,0-2.559-.015-3.31-.77-3.315-3.332,0-2.649-.016-5.3,0-7.947.016-2.077.9-2.978,2.978-3,2.919-.027,5.839-.007,8.942-.007v-1.6c0-5.484.026-10.968-.019-16.451a4.848,4.848,0,0,1,1.178-3.3c2.507-3.05,4.928-6.172,7.435-9.223a3.8,3.8,0,0,0,.941-2.636c-.05-4.554-.028-9.109-.018-13.663.005-2.215.83-3.057,3.009-3.064q6.481-.018,12.964,0c2.187.006,3.015.844,3.02,3.053.011,4.647-.029,9.3.038,13.941a3.777,3.777,0,0,0,.753,2.1q3.662,4.743,7.476,9.368a5.184,5.184,0,0,1,1.274,3.551c-.054,5.39-.022,10.781-.022,16.172v1.634h4.757c0-2.543-.018-5.082,0-7.62.053-6.161-.621-4.392,3.595-8.677,3.709-3.77,3.734-3.746,3.565-9.014-.006-.182-.043-.362-.089-.741-1.377,0-2.755.019-4.133,0-2.147-.037-3.015-1-2.878-3.151.765-12.031,9.808-20.578,21.848-20.615,7.481-.023,14.962-.007,22.444,0,2.459,0,3.244.792,3.249,3.26.006,2.7.016,5.391,0,8.086-.015,2.031-.861,2.877-2.883,2.9a43.554,43.554,0,0,1-5.154-.03,6.137,6.137,0,0,0-5.889,2.558l6.527,13.083-4.236,2.131-6.172-12.3c-1.152.921-2.233,1.763-3.28,2.644a1.5,1.5,0,0,0-.329.721,2,2,0,0,0-.013.555c.019,2.09-.51,4.4.213,6.206.7,1.751,2.681,3,4.117,4.444,2.028,2.046,4.041,4.11,6.126,6.1a4.38,4.38,0,0,1,1.5,3.572c-.079,1.941-.02,3.887-.02,6.017,2.635,0,5.172,0,7.709,0a15.943,15.943,0,0,1,1.81.033,2.268,2.268,0,0,1,2.3,2.334q.118,4.8-.007,9.615c-.041,1.475-.937,2.221-2.466,2.277-1.572.058-3.149.013-4.888.013-1.55,12.048-3.088,24-4.639,36.049,3.439.7,6.341,3.074,9.932,2.632a21.484,21.484,0,0,0,5.6-1.43,22.92,22.92,0,0,1,13.685-1.144c6.106,1.26,9.816,5.292,11.147,11.434a3.719,3.719,0,0,0,.255.618V67.083a3.339,3.339,0,0,0-.242.629,14.18,14.18,0,0,1-5.064,8.662,16.507,16.507,0,0,1-7.24,3.258h-7.528a75.269,75.269,0,0,0-7.2-2.405,13.889,13.889,0,0,0-5.727-.332,84.308,84.308,0,0,0-8.824,2.738Zm-71.4-78.472c2.973,23.037,5.93,45.951,8.893,68.911h51.005a16.382,16.382,0,0,1-.531-2.749c-.115-5.338-.23-10.678-.214-16.016A14.266,14.266,0,0,1,1394.1,36.849c.961-.074,1.927-.092,2.978-.139,1.529-11.89,3.047-23.687,4.571-35.536h-25.826c0,1.466.075,2.855-.025,4.232a1.8,1.8,0,0,0,1.224,2c4.126,2.014,8.253,4.034,12.292,6.214a7.369,7.369,0,0,1,3.64,7.426,7.632,7.632,0,0,1-5.772,6.587,8,8,0,0,1-5.666-.781c-1.837-.943-3.691-1.852-5.694-2.853v1.78c0,5.947.036,11.894-.011,17.84a9.451,9.451,0,0,1-9.74,9.8c-7.8.053-15.609.016-23.412.01a9.437,9.437,0,0,1-6.064-2.091c-2.683-2.149-3.623-5.041-3.62-8.365q.017-20,0-40V1.159Zm16.383-9.522c-.025.558-.066,1.056-.066,1.554q-.005,24.809,0,49.618a12.25,12.25,0,0,0,.14,2.081,4.427,4.427,0,0,0,4.667,3.64V27.34h4.744V48.6h4.76V27.378h4.8V48.566h4.8V27.354h4.662V48.582c2.841-.01,4.734-2,4.744-4.972.025-7.526,0-15.053.011-22.579,0-2.959,1.581-3.927,4.238-2.606,2.866,1.425,5.718,2.88,8.593,4.286a2.791,2.791,0,0,0,3.261-.283,2.558,2.558,0,0,0,.876-3.011,5.067,5.067,0,0,0-2.106-2.2c-4.309-2.266-8.683-4.411-13.052-6.562a2.959,2.959,0,0,1-1.829-2.973c.045-4.831.017-9.664.017-14.5v-1.55ZM1397.235,41.5c-1.066.053-2.135.07-3.2.163a9.379,9.379,0,0,0-8.662,8.829,9.193,9.193,0,0,0,6.857,9.62,18.946,18.946,0,0,0,12.642-1.134,15.347,15.347,0,0,1,13.224-.011,20.489,20.489,0,0,0,11.158,1.481,9.348,9.348,0,0,0,8.391-8.793,9.206,9.206,0,0,0-6.716-9.59,18.292,18.292,0,0,0-12.256.907,16.534,16.534,0,0,1-14.279.018A16.043,16.043,0,0,0,1397.235,41.5Zm-11.966,20.658c.07,1.433.042,3.01.243,4.557a9.134,9.134,0,0,0,7.943,7.973,19.96,19.96,0,0,0,11.3-1.389,15.041,15.041,0,0,1,12.844-.258,23.756,23.756,0,0,0,10.011,1.867c6.43-.044,11.287-5.039,9.871-12.984a22.866,22.866,0,0,1-2.449,1.574,20.391,20.391,0,0,1-17.013.442c-4.487-1.823-8.577-2-12.992.032-4.276,1.97-8.9,1.851-13.4.869C1389.48,64.377,1387.5,63.13,1385.269,62.163Zm-59.332-75.451h28.344V-29.734h-28.344Zm42.737-.027h28.585c0-1.741.06-3.366-.032-4.983a2.849,2.849,0,0,0-.692-1.678c-1.953-2.052-4.193-3.865-5.939-6.072a9.337,9.337,0,0,0-9.25-3.833c-2.283.3-4.887-.5-6.87.338s-3.382,3.081-5.035,4.709a2.057,2.057,0,0,0-.383.4,2.015,2.015,0,0,0-.367.856C1368.666-20.194,1368.675-16.808,1368.675-13.315Zm.262-30.815c5.908,0,11.7.009,17.5-.021a2,2,0,0,0,1.1-.489q4.532-3.585,9.025-7.219c.272-.22.645-.539.654-.822.058-1.88.031-3.763.031-5.666-4.524,0-8.852-.215-13.15.047A16.564,16.564,0,0,0,1368.936-44.13Zm40.093,35.806H1375.9V-3.78h33.129Zm-57.281-26.362c-1.875-2.349-3.525-4.47-5.25-6.527a1.959,1.959,0,0,0-1.33-.467c-1.993-.049-3.987-.029-5.981-.019-1.667.008-3.585-.469-4.934.2-1.4.691-2.255,2.491-3.332,3.82-.765.943-1.5,1.908-2.356,3Zm-16.311-11.9h9.347v-11.7h-9.347ZM1314.018-8.364v4.571h18.858V-8.364Zm71.194-26.307v-4.578h-9.31v4.578Zm21.463-19.045v-4.577h-4.551v4.577Z" transform="translate(-1309.189 63.149)" fill="#1d272b"/>
      <path id="Trazado_158615" data-name="Trazado 158615" d="M1581.084,133.077v4.544h-33.13v-4.544Z" transform="translate(-1481.243 -78.252)" fill="#008f85"/>
      <path id="Trazado_158616" data-name="Trazado 158616" d="M1403.132-34.036v-11.7h9.346v11.7Z" transform="translate(-1376.885 50.604)" fill="#008f85"/>
      <path id="Trazado_158617" data-name="Trazado 158617" d="M1326.471,132.936h18.858v4.571h-18.858Z" transform="translate(-1321.642 -78.15)" fill="#008f85"/>
      <path id="Trazado_158618" data-name="Trazado 158618" d="M1646.367-41.191h-4.551v-4.577h4.551Z" transform="translate(-1548.881 50.624)" fill="#008f85"/>
      <path id="Trazado_158619" data-name="Trazado 158619" d="M1641.8,328.934h4.564v4.574H1641.8Z" transform="translate(-1548.867 -219.387)" fill="#008f85"/>
      <path id="Trazado_158620" data-name="Trazado 158620" d="M1607.785,337.329h4.55v4.617h-4.55Z" transform="translate(-1524.358 -225.436)" fill="#008f85"/>
      <path id="Trazado_158621" data-name="Trazado 158621" d="M1697.282,342.034h-4.539V337.42h4.539Z" transform="translate(-1585.579 -225.502)" fill="#008f85"/>
      <path id="Trazado_158622" data-name="Trazado 158622" d="M1731.362,333.574h-4.552v-4.6h4.552Z" transform="translate(-1610.128 -219.413)" fill="#008f85"/>
    </g>
  </g>
</svg>
