<svg id="img9" xmlns="http://www.w3.org/2000/svg" width="146.879" height="158.458" viewBox="0 0 146.879 158.458">
  <path id="Trazado_114962" data-name="Trazado 114962" d="M-971.627,1476.161a35.568,35.568,0,0,1-3.771.432q-45.5.038-91.01.025c-.526,0-1.053,0-1.577-.037a2.514,2.514,0,0,1-2.667-2.8c-.043-2.571-.079-5.146.013-7.715.05-1.413-.483-1.844-1.836-1.8-2.16.079-4.325.04-6.488,0-2.084-.044-2.978-.942-3.006-3.021-.034-2.571-.013-5.143-.012-7.715q0-58.569,0-117.138c0-3.651.641-4.288,4.263-4.288l90.835,0c3.468,0,4.153.7,4.154,4.223,0,2.221.03,4.442-.016,6.663-.021,1.028.3,1.464,1.4,1.428,2.1-.07,4.207-.02,6.311,0,2.708.02,3.574.884,3.575,3.558,0,8.709.018,17.418-.022,26.128a2.889,2.889,0,0,0,1.205,2.5c9.353,7.705,16.788,16.853,21.164,28.3,2.814,7.358,3.007,14.914,2.023,22.614-.621,4.856-1.318,9.727-1.506,14.609a30.5,30.5,0,0,0,3.257,14.746,49.337,49.337,0,0,0,3.287,5.155c1.995,3.022,4.024,6.021,6.01,9.048,1.482,2.261,1.215,3.479-1.059,4.941q-10.466,6.728-20.943,13.436c-2.684,1.717-3.734,1.5-5.463-1.1-2.361-3.55-4.7-7.116-7.053-10.67C-970.932,1477.109-971.35,1476.553-971.627,1476.161Zm-19.988-43.154a9.2,9.2,0,0,0-1.2-1.472c-1.051-.856-2.139-1.628-1.029-2.878l-1.717-.426a7.5,7.5,0,0,1,1.392-1.222,9.139,9.139,0,0,1,1.916-.536l-.138-.6-4.175.911a5.434,5.434,0,0,1-.643-1.233c-.506-2.24-2.017-2.457-4.03-2.447-14.964.079-29.928.044-44.893.043-3.024,0-4.247-.777-4.239-2.68.008-1.8,1.246-2.565,4.147-2.564q22.8,0,45.595.023c1.311,0,2.113-.238,2.59-1.656a5.515,5.515,0,0,1,4.762-3.878,42.561,42.561,0,0,1,5.04-.038V1337.6h-88.455v2.564q0,58.309,0,116.618c0,2.265,0,2.262,2.312,2.261q41.562,0,83.123-.006c3.767,0,3.112.341,3.158-3.153.046-3.446-.334-6.95.162-10.328.679-4.63.477-8.764-3.263-12.083-.172-.153-.314-.339-.471-.509.846-.92,1.745-1.892.958-3.215a8.657,8.657,0,0,0-1.677-1.616l-.555.381C-990.453,1429.528-991.328,1431.338-991.615,1433.007Zm20.891-50.15-.614.346c-.032.441-.092.882-.094,1.323-.012,3.625-.1,7.252.038,10.87a5.307,5.307,0,0,0,1.182,3.081,20.84,20.84,0,0,1,4.824,9.213,54.658,54.658,0,0,1,1.459,8.962c.4,7.046-.472,13.881-4.558,19.935a4.028,4.028,0,0,1-3.658,1.957,5.757,5.757,0,0,1-4.647-2.747c-2.066-3.03-3.913-6.208-5.8-9.36-1.076-1.8-1.933-3.741-3.087-5.489a6.958,6.958,0,0,0-5.768-3.467c-1.255-.037-1.911.549-1.946,1.72-.106,3.509,2.008,6.049,3.985,8.584,1.955,2.508,4.11,4.859,6.1,7.346.184.23-.229.94-.391,1.524l1.714.279c0,3.74-.144,7.467.036,11.179.231,4.75.643,9.692,3.961,13.349,3.159,3.479,7.013,6.328,10.84,9.7,4.935-3.153,10.79-6.876,16.6-10.664a1.507,1.507,0,0,0,.272-1.4c-4.164-9.265-4.31-18.865-2.611-28.672.948-5.475,1.581-11,.675-16.556-1.332-8.167-5.15-15.227-10.17-21.641C-964.95,1388.936-967.929,1385.969-970.725,1382.857Zm-12.434,81.017a39.162,39.162,0,0,1-3.917.394q-36.726.036-73.452.021c-4.97,0-4.9,0-4.946,4.98-.016,1.723.578,2.111,2.2,2.108q42.248-.068,84.5-.034h1.835l.291-.544Zm5.944-38.757.36-.117v-75.109h-5.867v2.342c0,19.919.038,39.836-.047,59.754a10.452,10.452,0,0,0,2.07,6.937A46.514,46.514,0,0,1-977.214,1425.117Zm35.735,47.387-5.185-7.793-18.477,11.485,5.35,8.055Zm-29.894-42.354c3.2-4.87,2.569-19.836,0-22.422Z" transform="translate(1081.987 -1332.103)" fill="#1d272b"/>
  <path id="Trazado_114969" data-name="Trazado 114969" d="M-826.861,1610.7l.055.045c.287-1.67,1.162-3.479-1.328-4.495l.554-.381a8.617,8.617,0,0,1,1.678,1.616C-825.116,1608.8-826.015,1609.775-826.861,1610.7Z" transform="translate(917.179 -1509.837)" fill="#1d272b"/>
  <path id="Trazado_114971" data-name="Trazado 114971" d="M-1000.883,1504.47q-15.688,0-31.376,0a10.322,10.322,0,0,1-1.746-.066,2.734,2.734,0,0,1-2.388-2.794,2.794,2.794,0,0,1,2.7-2.489c.407-.031.818-.011,1.227-.011q31.373,0,62.749,0c2.861,0,4.1.808,4.11,2.653.006,1.828-1.327,2.711-4.081,2.71Q-985.284,1504.468-1000.883,1504.47Z" transform="translate(1052.389 -1440.523)" fill="#1d272b"/>
  <path id="Trazado_114973" data-name="Trazado 114973" d="M-1001.038,1659.259h-30.856c-.234,0-.468,0-.7,0-2.547-.021-3.772-.88-3.755-2.63s1.254-2.639,3.823-2.635c11.269.016,22.538.076,33.807.08q14.886.005,29.772-.081c1.526-.007,2.83.3,3.267,1.97.514,1.968-.812,3.39-3.1,3.384q-12.27-.036-24.541-.085C-995.9,1659.252-998.466,1659.259-1001.038,1659.259Z" transform="translate(1052.358 -1541.082)" fill="#1d272b"/>
  <path id="Trazado_114981" data-name="Trazado 114981" d="M-1001.038,1659.259h-30.856c-.234,0-.468,0-.7,0-2.547-.021-3.772-.88-3.755-2.63s1.254-2.639,3.823-2.635c11.269.016,22.538.076,33.807.08q14.886.005,29.772-.081c1.526-.007,2.83.3,3.267,1.97.514,1.968-.812,3.39-3.1,3.384q-12.27-.036-24.541-.085C-995.9,1659.252-998.466,1659.259-1001.038,1659.259Z" transform="translate(1052.358 -1551.97)" fill="#1d272b"/>
  <path id="Trazado_114974" data-name="Trazado 114974" d="M-964.361,1543.163H-987.5c-.643,0-1.289.023-1.927-.032a2.556,2.556,0,0,1-2.492-2.635,2.536,2.536,0,0,1,2.42-2.543,13.792,13.792,0,0,1,1.926-.029q23.669,0,47.337-.007a10.426,10.426,0,0,1,1.051.025,2.513,2.513,0,0,1,2.449,2.656,2.4,2.4,0,0,1-2.55,2.525c-3.447.063-6.9.039-10.344.042Q-957,1543.17-964.361,1543.163Z" transform="translate(1023.518 -1465.713)" fill="#1d272b"/>
  <path id="Trazado_114975" data-name="Trazado 114975" d="M-907.049,1383.074q6.042,0,12.084,0c2.187,0,3.436.965,3.437,2.618,0,1.688-1.163,2.71-3.391,2.714q-12.344.017-24.689-.078c-1.945-.014-2.994-1.039-2.969-2.69.024-1.595,1.129-2.544,3.1-2.554C-915.337,1383.06-911.193,1383.076-907.049,1383.074Z" transform="translate(978.495 -1365.192)" fill="#1d272b"/>
  <path id="Trazado_114976" data-name="Trazado 114976" d="M-907.137,1465.8c-4.086,0-8.171.011-12.257-.005-2.067-.007-3.158-.963-3.143-2.682.014-1.636,1.058-2.586,3.056-2.592q12.432-.04,24.864,0c1.869,0,3.119,1.1,3.124,2.588.006,1.607-1.238,2.68-3.213,2.689C-898.849,1465.816-902.993,1465.8-907.137,1465.8Z" transform="translate(978.467 -1415.464)" fill="#1d272b"/>
  <path id="Trazado_114977" data-name="Trazado 114977" d="M-907.114,1427.094c-4.084,0-8.169.007-12.253-.008-2.1-.007-3.213-.924-3.226-2.6-.013-1.646,1.139-2.618,3.21-2.621q12.253-.015,24.506.006c2.1,0,3.3.933,3.341,2.516.043,1.705-1.155,2.7-3.325,2.7C-898.945,1427.1-903.03,1427.1-907.114,1427.094Z" transform="translate(978.504 -1390.377)" fill="#1d272b"/>
  <path id="Trazado_114978" data-name="Trazado 114978" d="M-1024.259,1543.636a2.7,2.7,0,0,1-2.82-2.716,2.743,2.743,0,0,1,2.914-2.634,2.655,2.655,0,0,1,2.794,2.724A2.665,2.665,0,0,1-1024.259,1543.636Z" transform="translate(1046.339 -1465.963)" fill="#1d272b"/>
  <path id="Trazado_114979" data-name="Trazado 114979" d="M-1021.459,1578.938a2.629,2.629,0,0,1-2.762,2.736,2.8,2.8,0,0,1-2.978-2.594,2.891,2.891,0,0,1,2.835-2.774A2.71,2.71,0,0,1-1021.459,1578.938Z" transform="translate(1046.418 -1490.645)" fill="#1d272b"/>
  <path id="Trazado_114980" data-name="Trazado 114980" d="M-925.661,1628.572l3.24-.148.02.441c-1.732.512-2.706.406-3.213-.345Z" transform="translate(980.496 -1524.483)" fill="#1d272b"/>
  <g id="Grupo_91485" data-name="Grupo 91485" transform="translate(10.749 13.491)">
    <g id="Grupo_90944" data-name="Grupo 90944">
      <path id="Trazado_150122" data-name="Trazado 150122" d="M-2270.893,2433.324c4.139-6.239-2.374-13.756-2.374-13.756,5.487,9.773-4.567,15.921-8.351,17.812a2.373,2.373,0,0,1,1.842,2.311,2.368,2.368,0,0,1-.088.627c3.655-2.271,14.031-7.509,19.478,2.195C-2260.385,2442.514-2263.412,2433.039-2270.893,2433.324Z" transform="translate(2303.913 -2419.568)" fill="#d93328"/>
      <path id="Trazado_150123" data-name="Trazado 150123" d="M-2353.572,2557.649a2.365,2.365,0,0,1-1.707.727,2.363,2.363,0,0,1-1.707-.727c.183,4.354-.382,15.84-11.45,15.84,0,0,9.743,2,13.157-4.664,3.414,6.662,13.157,4.664,13.157,4.664C-2353.189,2573.489-2353.756,2562-2353.572,2557.649Z" transform="translate(2377.043 -2535.877)" fill="#d93328"/>
      <path id="Trazado_150124" data-name="Trazado 150124" d="M-2403.635,2439.692a2.373,2.373,0,0,1,1.842-2.311c-3.783-1.891-13.838-8.04-8.351-17.812,0,0-6.513,7.517-2.375,13.756-7.48-.285-10.506,9.19-10.506,9.19,5.446-9.7,15.822-4.466,19.476-2.195A2.419,2.419,0,0,1-2403.635,2439.692Z" transform="translate(2423.025 -2419.568)" fill="#d93328"/>
    </g>
    <g id="Grupo_90945" data-name="Grupo 90945" transform="translate(10.023 8.382)">
      <path id="Trazado_150125" data-name="Trazado 150125" d="M-2356.709,2536.372a9.066,9.066,0,0,1,.129-1.514,15.475,15.475,0,0,0-2.7-.512,11.733,11.733,0,0,0-.175,2.027,11.744,11.744,0,0,0,7.779,11.054,15.2,15.2,0,0,0,.9-2.6A8.993,8.993,0,0,1-2356.709,2536.372Z" transform="translate(2359.457 -2524.631)" fill="#d93328"/>
      <path id="Trazado_150126" data-name="Trazado 150126" d="M-2256.881,2536.372a11.781,11.781,0,0,0-.175-2.027,15.473,15.473,0,0,0-2.7.512,8.964,8.964,0,0,1,.13,1.514,8.994,8.994,0,0,1-5.929,8.456,15.024,15.024,0,0,0,.9,2.6A11.744,11.744,0,0,0-2256.881,2536.372Z" transform="translate(2280.363 -2524.631)" fill="#d93328"/>
      <path id="Trazado_150127" data-name="Trazado 150127" d="M-2331.955,2477.645a8.957,8.957,0,0,1,5.85-2.165,8.954,8.954,0,0,1,5.848,2.165,15.558,15.558,0,0,0,1.848-2.039,11.694,11.694,0,0,0-7.7-2.874,11.69,11.69,0,0,0-7.7,2.874A15.517,15.517,0,0,0-2331.955,2477.645Z" transform="translate(2337.846 -2472.732)" fill="#d93328"/>
    </g>
  </g>
</svg>
