<svg id="icon14" xmlns="http://www.w3.org/2000/svg" xmlns:xlink="http://www.w3.org/1999/xlink" width="79.155" height="79.153" viewBox="0 0 79.155 79.153">
  <defs>
    <radialGradient id="radial-gradient" cx="0.077" cy="0.019" r="1.465" gradientTransform="matrix(1, 0, 0, -1, 0, 9.666)" gradientUnits="objectBoundingBox">
      <stop offset="0" stop-color="#f4f4f5"/>
      <stop offset="0.477" stop-color="#f7f8fa"/>
      <stop offset="0.715" stop-color="#fff"/>
    </radialGradient>
  </defs>
  <g id="Group_18531" data-name="Group 18531">
    <g id="Group_18423" data-name="Group 18423">
      <g id="Group_18421" data-name="Group 18421">
        <g id="Group_18420" data-name="Group 18420">
          <g id="Group_18419" data-name="Group 18419">
            <path id="Path_40936" data-name="Path 40936" d="M201.954,554.407a39.577,39.577,0,1,1-39.578-39.575h0A39.576,39.576,0,0,1,201.954,554.407Z" transform="translate(-122.8 -514.832)" fill="#fff"/>
          </g>
        </g>
      </g>
      <path id="Path_40937" data-name="Path 40937" d="M201.953,554.407a39.42,39.42,0,1,0,0,.312Z" transform="translate(-122.799 -514.832)" fill="url(#radial-gradient)"/>
      <path id="Path_40938" data-name="Path 40938" d="M190.028,551.858a30.209,30.209,0,1,0-30.209,30.209h0a30.1,30.1,0,0,0,30.209-29.984Z" transform="translate(-120.122 -512.151)" fill="none" stroke="#1d272b" stroke-miterlimit="10" stroke-width="2"/>
      <g id="Group_18422" data-name="Group 18422" transform="translate(7.012 22.22)">
        <path id="Path_40939" data-name="Path 40939" d="M195.973,530.78a39.581,39.581,0,0,1-68.14,39.411,39.456,39.456,0,0,0,68.14-39.411Z" transform="translate(-127.833 -530.78)" fill="#e7e9eb"/>
      </g>
    </g>
  </g>
  <path id="Trazado_165746" data-name="Trazado 165746" d="M7134.282-1427.01a3.558,3.558,0,0,1-2.554-2.531,3.788,3.788,0,0,1-.1-.9q-.012-10.079-.012-20.158a3.1,3.1,0,0,1,1.721-2.907.878.878,0,0,0,.536-.912q-.023-6.4-.006-12.809a3.31,3.31,0,0,1,3.467-3.475q5.53-.01,11.06,0a3.293,3.293,0,0,1,3.39,3.407q.01,6.44-.007,12.879a.863.863,0,0,0,.529.913,3.03,3.03,0,0,1,1.718,2.833q.01,10.149,0,20.3a3.321,3.321,0,0,1-2.148,3.143c-.17.068-.338.143-.507.214Zm-.347-5.6a1.139,1.139,0,0,0-.065.216c-.005.56-.012,1.12-.009,1.679.006,1.065.408,1.463,1.493,1.464q7.454.007,14.908.006c1.128,0,1.526-.39,1.526-1.5q0-9.763,0-19.526c0-1.029-.354-1.379-1.389-1.38q-3.394,0-6.789,0c-2.823,0-5.646.005-8.468,0-.637,0-1.168.213-1.24.866a23.328,23.328,0,0,0-.021,2.5h.858q6.159,0,12.317,0c.979,0,1.366.377,1.367,1.338q.005,6.509,0,13.018c0,.927-.392,1.319-1.314,1.321-2.169.005-4.339,0-6.509,0Zm-.05-2.292h12.265v-11.107h-12.265Zm2.244-19.043h13.384v-4.392h-13.384Zm1.1-6.7v-.708c0-1.586-.007-3.173,0-4.76a1.07,1.07,0,0,1,1.128-1.219q4.479-.022,8.959-.005a1.058,1.058,0,0,1,1.1,1.17c.012,1.166,0,2.333,0,3.5v2h1.125c0-2.124,0-4.2,0-6.272,0-1.124-.39-1.517-1.516-1.519q-5.249-.009-10.5,0c-1.021,0-1.419.416-1.423,1.463q-.012,2.905-.005,5.81c0,.179.029.357.045.537Zm8.928-4.408h-6.638v4.4h6.638Zm-.921,24.676c0,.455,0,.91-.005,1.364a.317.317,0,0,1-.111.232c-.815.5-1.642.98-2.457,1.481a.5.5,0,0,1-.62.005c-.736-.5-1.486-.972-2.225-1.464a.191.191,0,0,0-.253-.007c-.389.26-.783.514-1.176.769a.784.784,0,0,1-.212.125c-.057.014-.128-.025-.193-.041a.693.693,0,0,1,.067-.172.5.5,0,0,1,.137-.09c.416-.271.829-.545,1.249-.809a.281.281,0,0,0,.155-.276c0-.792,0-1.585.016-2.377a.324.324,0,0,0-.176-.316c-.4-.245-.791-.5-1.184-.756a.537.537,0,0,1-.162-.125.74.74,0,0,1-.069-.206c.072,0,.159-.024.215.007.155.088.3.2.445.3.284.183.575.355.853.546a.235.235,0,0,0,.308-.01c.738-.48,1.484-.95,2.224-1.429a.334.334,0,0,1,.4-.009q1.257.753,2.524,1.493a.413.413,0,0,1,.228.4c-.006.455,0,.91,0,1.365Zm-.267-.041h-.015c0-.42,0-.841,0-1.261a.263.263,0,0,0-.146-.265c-.808-.473-1.61-.956-2.419-1.427a.274.274,0,0,0-.236,0q-1.094.685-2.174,1.392a.3.3,0,0,0-.116.21c-.012.84-.009,1.681-.018,2.521a.343.343,0,0,0,.169.325c.734.473,1.466.952,2.2,1.418a.293.293,0,0,0,.252,0c.79-.463,1.572-.938,2.359-1.4a.26.26,0,0,0,.137-.268C7144.96-1439.594,7144.964-1440.007,7144.964-1440.421Zm-7.173-3.036c0,.032-.012.108-.027.182a.676.676,0,0,1-.591.621.774.774,0,0,1-.748-.538.975.975,0,0,1,.15-.973.6.6,0,0,1,.964-.033A1.014,1.014,0,0,1,7137.791-1443.457Zm-.266-.028.039-.015a2.349,2.349,0,0,0-.181-.468.358.358,0,0,0-.65.024.754.754,0,0,0-.035.733.465.465,0,0,0,.5.285c.216-.049.278-.225.313-.415C7137.52-1443.388,7137.521-1443.437,7137.525-1443.485Zm.248,6.269a.715.715,0,0,1-.558.78.829.829,0,0,1-.872-.659.941.941,0,0,1,.308-.932.559.559,0,0,1,.75,0A1.01,1.01,0,0,1,7137.773-1437.216Zm-.263-.021.021-.006a2.532,2.532,0,0,0-.112-.37.456.456,0,0,0-.417-.293.419.419,0,0,0-.36.329,1.067,1.067,0,0,0-.047.383.561.561,0,0,0,.56.5c.213-.009.353-.215.355-.523Zm-2.454-.238c.225,0,.411,0,.6,0,.105,0,.148-.042.145-.148a2.18,2.18,0,0,1,.007-.391c.009-.057.08-.1.123-.157.043.052.122.1.123.155q.012.64-.005,1.28c0,.052-.083.1-.127.153-.042-.053-.114-.1-.121-.159a4.007,4.007,0,0,1-.006-.461h-.714a3.421,3.421,0,0,1-.005.445c-.01.07-.079.131-.121.2-.042-.06-.12-.118-.123-.18-.019-.44-.026-.881-.025-1.321,0-.056.069-.111.106-.167.049.053.135.1.14.161C7135.067-1437.879,7135.056-1437.686,7135.056-1437.474Zm.712-6c-.215.016-.406.023-.595.051-.041.006-.092.086-.1.138-.018.1,0,.208-.018.307-.011.05-.083.087-.127.129-.04-.046-.113-.091-.114-.138q-.01-.681.005-1.362c0-.048.074-.1.113-.143.045.049.125.1.129.148.015.21.006.422.006.653l.706-.046a4.26,4.26,0,0,1,.006-.509c.01-.075.088-.141.135-.211.041.068.116.135.117.2q.01.608-.016,1.217c0,.064-.083.125-.128.187a.65.65,0,0,1-.113-.2A3.061,3.061,0,0,1,7135.768-1443.472Zm4.636,3.037c0,.392.007.785-.006,1.177,0,.074-.072.2-.123.207-.139.018-.123-.111-.126-.206-.023-.8-.048-1.609-.062-2.414,0-.075.063-.208.113-.216.147-.024.146.115.147.214,0,.413,0,.826,0,1.238Zm4.223-1.138c-.021.032-.038.087-.064.092a.252.252,0,0,1-.167-.011c-.172-.1-.335-.214-.5-.32q-.8-.5-1.61-1c-.023-.014-.058-.022-.069-.043-.037-.065-.064-.134-.1-.2.077-.006.173-.046.228-.014.4.235.8.483,1.2.731.32.2.637.406.957.608.058.036.121.064.181.1Zm-2.306,3.787c-.038-.036-.1-.072-.1-.1a.3.3,0,0,1,.087-.183c.25-.169.506-.33.767-.481q.686-.4,1.383-.773c.059-.032.154,0,.232.006-.034.071-.048.173-.1.207-.359.215-.729.411-1.091.621-.338.2-.669.405-1,.607C7142.443-1437.847,7142.387-1437.821,7142.321-1437.786Z" transform="translate(-7103.589 1488.106)" fill="#1d272b"/>
</svg>
