<svg id="icon15" xmlns="http://www.w3.org/2000/svg" xmlns:xlink="http://www.w3.org/1999/xlink" width="79.155" height="79.154" viewBox="0 0 79.155 79.154">
  <defs>
    <radialGradient id="radial-gradient" cx="0.077" cy="0.019" r="1.465" gradientTransform="matrix(1, 0, 0, -1, 0, 9.666)" gradientUnits="objectBoundingBox">
      <stop offset="0" stop-color="#f4f4f5"/>
      <stop offset="0.477" stop-color="#f7f8fa"/>
      <stop offset="0.715" stop-color="#fff"/>
    </radialGradient>
  </defs>
  <g id="Group_18531" data-name="Group 18531">
    <g id="Group_18423" data-name="Group 18423">
      <g id="Group_18421" data-name="Group 18421">
        <g id="Group_18420" data-name="Group 18420">
          <g id="Group_18419" data-name="Group 18419">
            <path id="Path_40936" data-name="Path 40936" d="M201.954,554.407a39.577,39.577,0,1,1-39.578-39.575h0A39.576,39.576,0,0,1,201.954,554.407Z" transform="translate(-122.8 -514.832)" fill="#fff"/>
          </g>
        </g>
      </g>
      <path id="Path_40937" data-name="Path 40937" d="M201.953,554.407a39.42,39.42,0,1,0,0,.312Z" transform="translate(-122.799 -514.832)" fill="url(#radial-gradient)"/>
      <path id="Path_40938" data-name="Path 40938" d="M190.028,551.858a30.209,30.209,0,1,0-30.209,30.209h0a30.1,30.1,0,0,0,30.209-29.984Z" transform="translate(-120.122 -512.151)" fill="none" stroke="#1d272b" stroke-miterlimit="10" stroke-width="2"/>
      <g id="Group_18422" data-name="Group 18422" transform="translate(7.012 22.22)">
        <path id="Path_40939" data-name="Path 40939" d="M195.973,530.78a39.581,39.581,0,0,1-68.14,39.411,39.456,39.456,0,0,0,68.14-39.411Z" transform="translate(-127.833 -530.78)" fill="#e7e9eb"/>
      </g>
    </g>
  </g>
  <g id="eVtjHr" transform="translate(-5218.174 2586.305)">
    <g id="Grupo_128846" data-name="Grupo 128846" transform="translate(5243.889 -2565.959)">
      <path id="Trazado_165827" data-name="Trazado 165827" d="M5273.614-2551.11a14.866,14.866,0,0,1-15.035,14.875,14.86,14.86,0,0,1-14.69-14.926,14.872,14.872,0,0,1,15.092-14.8A14.879,14.879,0,0,1,5273.614-2551.11Zm-14.849-12.268a12.3,12.3,0,0,0-12.285,12.122,12.286,12.286,0,0,0,11.9,12.429,12.3,12.3,0,0,0,12.645-12.089A12.309,12.309,0,0,0,5258.766-2563.378Z" transform="translate(-5243.889 2565.959)" fill="#1d272b"/>
      <path id="Trazado_165828" data-name="Trazado 165828" d="M5599.451-1662.413a14.357,14.357,0,0,0,3.138.328,14.465,14.465,0,0,0,3.141-.327v.194q0,2.018,0,4.036c0,.239-.057.29-.323.29l-5.288.01h-.373c-.223,0-.295-.071-.3-.3q0-1.293,0-2.587,0-.725,0-1.45Zm.9,1.272c0-.214-.009-.429,0-.642a.282.282,0,0,0-.263-.3.265.265,0,0,0-.266.277c-.006.445-.007.89,0,1.334a.262.262,0,0,0,.271.271.258.258,0,0,0,.254-.283C5600.354-1660.7,5600.353-1660.922,5600.353-1661.141Z" transform="translate(-5587.728 1692.2)" fill="#1d272b"/>
      <path id="Trazado_165829" data-name="Trazado 165829" d="M5637.289-1508.061h3.761a.767.767,0,0,1,.015.1q0,1.655,0,3.31c0,.217-.066.282-.288.282h-3.228c-.2,0-.271-.064-.271-.246q0-1.7,0-3.392A.4.4,0,0,1,5637.289-1508.061Zm1.362,1.388c.219,0,.438,0,.658,0a.26.26,0,0,0,.29-.265.256.256,0,0,0-.292-.26q-.65,0-1.3,0a.258.258,0,0,0-.291.262.261.261,0,0,0,.292.263C5638.224-1506.671,5638.438-1506.674,5638.651-1506.673Z" transform="translate(-5624.309 1542.937)" fill="#1d272b"/>
      <path id="Trazado_165830" data-name="Trazado 165830" d="M5511.829-1977.983c0-.445,0-.889,0-1.334a.529.529,0,0,1,.576-.571h2.256a.527.527,0,0,1,.572.558q.006,1.341,0,2.682a.5.5,0,0,1-.533.559q-1.178.016-2.354,0a.5.5,0,0,1-.518-.558C5511.827-1977.093,5511.829-1977.538,5511.829-1977.983Zm1.09-.82c.093,0,.187.006.28,0a.3.3,0,0,0,.281-.306.291.291,0,0,0-.276-.29c-.186-.009-.373-.01-.56,0a.308.308,0,0,0-.293.3.3.3,0,0,0,.3.3C5512.744-1978.8,5512.832-1978.8,5512.919-1978.8Z" transform="translate(-5502.996 1999.209)" fill="#1d272b"/>
      <path id="Trazado_165831" data-name="Trazado 165831" d="M5646.432-1977.976c0,.434,0,.867,0,1.3a.527.527,0,0,1-.586.594q-1.136.009-2.272,0a.524.524,0,0,1-.551-.565c0-.52.014-1.041.015-1.561,0-.378-.019-.755-.013-1.133a.5.5,0,0,1,.388-.526.675.675,0,0,1,.178-.02h2.269a.517.517,0,0,1,.566.528c.013.459,0,.919,0,1.379Zm-2.241-1.422h0c-.093,0-.186,0-.279,0a.31.31,0,0,0-.3.286.3.3,0,0,0,.292.311c.186.009.372.01.558,0a.289.289,0,0,0,.281-.3.292.292,0,0,0-.291-.293C5644.363-1979.4,5644.277-1979.4,5644.191-1979.4Z" transform="translate(-5629.864 1999.205)" fill="#1d272b"/>
      <path id="Trazado_165832" data-name="Trazado 165832" d="M5774.137-1977.984c0-.417,0-.835,0-1.252,0-.455.195-.653.648-.653h2.174a.535.535,0,0,1,.587.594q0,1.31,0,2.619a.521.521,0,0,1-.573.587q-1.145.01-2.289,0a.506.506,0,0,1-.543-.55c0-.449,0-.9,0-1.347Zm1.141-.819h0c.1,0,.2.008.3,0a.281.281,0,0,0,.266-.3.276.276,0,0,0-.266-.295,5.4,5.4,0,0,0-.575,0,.3.3,0,0,0-.284.305.3.3,0,0,0,.3.291C5775.1-1978.8,5775.19-1978.8,5775.278-1978.8Z" transform="translate(-5756.656 1999.21)" fill="#1d272b"/>
      <path id="Trazado_165833" data-name="Trazado 165833" d="M5646.035-2287.036c0-.51,0-1.021,0-1.531a.505.505,0,0,1,.292-.494.515.515,0,0,1,.558.056.552.552,0,0,1,.2.48c0,1.01,0,2.02,0,3.03a.2.2,0,0,0,.134.22,1.564,1.564,0,0,1,.978,1.522,1.543,1.543,0,0,1-1.032,1.485,1.55,1.55,0,0,1-1.673-.284,1.622,1.622,0,0,1,.4-2.722.21.21,0,0,0,.143-.232C5646.031-2286.015,5646.035-2286.525,5646.035-2287.036Zm.267,2.058a1.615,1.615,0,0,0-.221.1c-.142.094-.281.192-.417.293a.3.3,0,0,0-.088.4.3.3,0,0,0,.405.092,5.613,5.613,0,0,0,.475-.324.253.253,0,0,0,.083-.338A1.073,1.073,0,0,0,5646.3-2284.978Z" transform="translate(-5631.699 2298.245)" fill="#1d272b"/>
      <path id="Trazado_165834" data-name="Trazado 165834" d="M5675.14-2435.239c0,.231,0,.461,0,.692a.688.688,0,0,1-.687.709.68.68,0,0,1-.687-.69q-.007-.709,0-1.417a.681.681,0,0,1,.695-.7.686.686,0,0,1,.68.7C5675.143-2435.711,5675.14-2435.475,5675.14-2435.239Z" transform="translate(-5659.589 2440.91)" fill="#1d272b"/>
      <path id="Trazado_165835" data-name="Trazado 165835" d="M5384.71-2092.514c-.229,0-.458,0-.687,0a.684.684,0,0,1-.709-.683.674.674,0,0,1,.7-.694c.466-.006.933-.006,1.4,0a.692.692,0,0,1,.714.7.7.7,0,0,1-.721.677C5385.171-2092.513,5384.94-2092.514,5384.71-2092.514Z" transform="translate(-5378.716 2109.459)" fill="#1d272b"/>
      <path id="Trazado_165836" data-name="Trazado 165836" d="M5922.3-2092.6c-.241,0-.482,0-.724,0a.694.694,0,0,1-.693-.687.677.677,0,0,1,.657-.685q.74-.023,1.48,0a.672.672,0,0,1,.673.7.693.693,0,0,1-.721.669c-.223-.02-.448,0-.672,0Z" transform="translate(-5898.563 2109.549)" fill="#1d272b"/>
      <path id="Trazado_165837" data-name="Trazado 165837" d="M5570.567-2416.148a.693.693,0,0,1,.565-.719.666.666,0,0,1,.739.394c.191.477.375.958.541,1.444a.682.682,0,0,1-.445.842.689.689,0,0,1-.86-.413c-.179-.452-.341-.912-.505-1.369A.913.913,0,0,1,5570.567-2416.148Z" transform="translate(-5559.798 2421.794)" fill="#1d272b"/>
      <path id="Trazado_165838" data-name="Trazado 165838" d="M5763.787-2416.133a2.007,2.007,0,0,1-.06.254c-.157.432-.315.864-.482,1.292a.677.677,0,0,1-1.087.314.676.676,0,0,1-.224-.738q.254-.7.524-1.4a.678.678,0,0,1,.756-.417A.694.694,0,0,1,5763.787-2416.133Z" transform="translate(-5744.822 2421.754)" fill="#1d272b"/>
      <path id="Trazado_165839" data-name="Trazado 165839" d="M5889.906-2282.92a.707.707,0,0,1-.654-.521.673.673,0,0,1,.354-.789q.685-.335,1.384-.64a.681.681,0,0,1,.845.346.675.675,0,0,1-.28.895c-.274.147-.562.269-.844.4-.173.081-.346.164-.523.236A2.163,2.163,0,0,1,5889.906-2282.92Z" transform="translate(-5867.954 2294.18)" fill="#1d272b"/>
      <path id="Trazado_165840" data-name="Trazado 165840" d="M5484.321-2363.33a1.917,1.917,0,0,1,.447.244c.351.338.683.7,1.013,1.053a.7.7,0,0,1-.031.975.7.7,0,0,1-.989-.047c-.32-.337-.645-.671-.961-1.012a.678.678,0,0,1-.136-.761.678.678,0,0,1,.635-.411Z" transform="translate(-5475.7 2370.01)" fill="#1d272b"/>
      <path id="Trazado_165841" data-name="Trazado 165841" d="M5387.551-2188.965l.979.178c.161.029.323.056.484.088a.7.7,0,0,1,.553.747.679.679,0,0,1-.747.607c-.519-.077-1.036-.173-1.549-.283a.668.668,0,0,1-.486-.742A.7.7,0,0,1,5387.551-2188.965Z" transform="translate(-5382.067 2201.394)" fill="#1d272b"/>
      <path id="Trazado_165842" data-name="Trazado 165842" d="M5836.614-2361.36a1.945,1.945,0,0,1-.225.441c-.319.362-.659.705-1,1.051a.7.7,0,0,1-.979.008.713.713,0,0,1-.009-.97q.494-.529,1-1.045a.658.658,0,0,1,.758-.139A.757.757,0,0,1,5836.614-2361.36Z" transform="translate(-5814.758 2368.798)" fill="#1d272b"/>
      <path id="Trazado_165843" data-name="Trazado 165843" d="M5920.111-2188.989a.709.709,0,0,1,.783.632.67.67,0,0,1-.557.721c-.478.092-.954.19-1.435.264a.663.663,0,0,1-.768-.512.635.635,0,0,1,.456-.809C5919.12-2188.826,5919.663-2188.9,5920.111-2188.989Z" transform="translate(-5895.886 2201.417)" fill="#1d272b"/>
      <path id="Trazado_165844" data-name="Trazado 165844" d="M5420.972-2282.878c-.162-.062-.327-.115-.483-.189-.386-.181-.771-.362-1.148-.562a.648.648,0,0,1-.256-.872.675.675,0,0,1,.848-.336q.7.307,1.384.644a.668.668,0,0,1,.343.793A.731.731,0,0,1,5420.972-2282.878Z" transform="translate(-5413.237 2294.153)" fill="#1d272b"/>
    </g>
  </g>
</svg>
