<svg id="icon16" xmlns="http://www.w3.org/2000/svg" xmlns:xlink="http://www.w3.org/1999/xlink" width="79.155" height="79.154" viewBox="0 0 79.155 79.154">
  <defs>
    <radialGradient id="radial-gradient" cx="0.077" cy="0.019" r="1.465" gradientTransform="matrix(1, 0, 0, -1, 0, 9.666)" gradientUnits="objectBoundingBox">
      <stop offset="0" stop-color="#f4f4f5"/>
      <stop offset="0.477" stop-color="#f7f8fa"/>
      <stop offset="0.715" stop-color="#fff"/>
    </radialGradient>
  </defs>
  <g id="Group_18531" data-name="Group 18531">
    <g id="Group_18423" data-name="Group 18423">
      <g id="Group_18421" data-name="Group 18421">
        <g id="Group_18420" data-name="Group 18420">
          <g id="Group_18419" data-name="Group 18419">
            <path id="Path_40936" data-name="Path 40936" d="M201.954,554.407a39.577,39.577,0,1,1-39.578-39.575h0A39.576,39.576,0,0,1,201.954,554.407Z" transform="translate(-122.8 -514.832)" fill="#fff"/>
          </g>
        </g>
      </g>
      <path id="Path_40937" data-name="Path 40937" d="M201.953,554.407a39.42,39.42,0,1,0,0,.312Z" transform="translate(-122.799 -514.832)" fill="url(#radial-gradient)"/>
      <path id="Path_40938" data-name="Path 40938" d="M190.028,551.858a30.209,30.209,0,1,0-30.209,30.209h0a30.1,30.1,0,0,0,30.209-29.984Z" transform="translate(-120.122 -512.151)" fill="none" stroke="#1d272b" stroke-miterlimit="10" stroke-width="2"/>
      <g id="Group_18422" data-name="Group 18422" transform="translate(7.012 22.22)">
        <path id="Path_40939" data-name="Path 40939" d="M195.973,530.78a39.581,39.581,0,0,1-68.14,39.411,39.456,39.456,0,0,0,68.14-39.411Z" transform="translate(-127.833 -530.78)" fill="#e7e9eb"/>
      </g>
    </g>
  </g>
  <g id="Grupo_128847" data-name="Grupo 128847" transform="translate(-4735.074 2048.424)">
    <path id="Trazado_165845" data-name="Trazado 165845" d="M4774.674-2024.506c-.742,1.087-1.484,2.155-2.207,3.237-1.817,2.721-3.55,5.495-5.122,8.366a44.9,44.9,0,0,0-3.055,6.628,9.74,9.74,0,0,0,.865,8.388,10.564,10.564,0,0,0,7.444,5.359,10.676,10.676,0,0,0,9.22-2.394,10.6,10.6,0,0,0,3.332-4.972,1.022,1.022,0,0,1,1.414-.735.991.991,0,0,1,.561,1.248,12.5,12.5,0,0,1-1.73,3.536,12.779,12.779,0,0,1-6.432,4.859,12.824,12.824,0,0,1-5.849.605,12.755,12.755,0,0,1-7.872-3.978,12.949,12.949,0,0,1-3.413-6.888,11.907,11.907,0,0,1,.708-6.179,49.492,49.492,0,0,1,3.653-7.61,132.632,132.632,0,0,1,7.577-11.678c.353-.492.719-.677,1.188-.522a1.271,1.271,0,0,1,.6.42q2.9,3.99,5.51,8.182a1,1,0,0,1-.06,1.19.975.975,0,0,1-1.148.3,1.237,1.237,0,0,1-.508-.418c-.583-.882-1.121-1.795-1.71-2.673-.941-1.4-1.91-2.791-2.868-4.185A.762.762,0,0,0,4774.674-2024.506Z" fill="#1d272b"/>
    <path id="Trazado_165846" data-name="Trazado 165846" d="M5084.688-1852.422a1,1,0,0,1-1.022-.878,1,1,0,0,1,.749-1.1c.419-.1.855-.151,1.27-.269a2.721,2.721,0,0,0,1.888-2.4,9.408,9.408,0,0,1,.208-1.985,4.63,4.63,0,0,1,3.8-3.485,1.147,1.147,0,0,1,1.251.332,1.02,1.02,0,0,1-.513,1.6c-.167.045-.339.069-.508.106a2.716,2.716,0,0,0-2.17,2.609,6.638,6.638,0,0,1-.281,2.185,4.743,4.743,0,0,1-3.878,3.184c-.214.035-.427.073-.641.106A1.042,1.042,0,0,1,5084.688-1852.422Z" transform="translate(-305.19 -156.11)" fill="#1d272b"/>
    <path id="Trazado_165847" data-name="Trazado 165847" d="M5124.009-1720.44a.987.987,0,0,1-.922,1.012,2.8,2.8,0,0,0-2.065,1.3,2.746,2.746,0,0,0-.408,1.3,10.225,10.225,0,0,1-.248,2.084,4.583,4.583,0,0,1-3.582,3.3c-.33.074-.665.125-1,.169a1.007,1.007,0,0,1-1.146-.82,1.012,1.012,0,0,1,.766-1.164c.354-.086.717-.127,1.071-.21a2.7,2.7,0,0,0,2.062-2.506,7.087,7.087,0,0,1,.265-2.187,4.733,4.733,0,0,1,3.774-3.235,1.185,1.185,0,0,1,1.061.172A.951.951,0,0,1,5124.009-1720.44Z" transform="translate(-334.54 -289.892)" fill="#1d272b"/>
  </g>
</svg>
