<svg xmlns="http://www.w3.org/2000/svg" xmlns:xlink="http://www.w3.org/1999/xlink" width="106.072" height="106.074" viewBox="0 0 106.072 106.074">
  <defs>
    <radialGradient id="radial-gradient" cx="0.077" cy="0.019" r="1.465" gradientTransform="matrix(1, 0, 0, -1, 0, 9.666)" gradientUnits="objectBoundingBox">
      <stop offset="0" stop-color="#f4f4f5"/>
      <stop offset="0.477" stop-color="#f7f8fa"/>
      <stop offset="0.715" stop-color="#fff"/>
    </radialGradient>
  </defs>
  <g id="icon9" transform="translate(106.072) rotate(90)">
    <g id="Group_18531" data-name="Group 18531">
      <g id="Group_18423" data-name="Group 18423">
        <g id="Group_18421" data-name="Group 18421">
          <g id="Group_18420" data-name="Group 18420">
            <g id="Group_18419" data-name="Group 18419">
              <path id="Path_40936" data-name="Path 40936" d="M228.872,567.866a53.036,53.036,0,1,1-53.038-53.034h0A53.034,53.034,0,0,1,228.872,567.866Z" transform="translate(-122.8 -514.832)" fill="#fff"/>
            </g>
          </g>
        </g>
        <path id="Path_40937" data-name="Path 40937" d="M228.87,567.866a52.825,52.825,0,1,0,0,.418Z" transform="translate(-122.798 -514.832)" fill="url(#radial-gradient)"/>
        <path id="Path_40938" data-name="Path 40938" d="M210.575,562.132a40.483,40.483,0,1,0-40.482,40.482h0a40.332,40.332,0,0,0,40.482-40.181Z" transform="translate(-116.895 -508.92)" fill="none" stroke="#1d272b" stroke-miterlimit="10" stroke-width="4"/>
        <g id="Group_18422" data-name="Group 18422" transform="translate(9.397 29.776)">
          <path id="Path_40939" data-name="Path 40939" d="M219.146,530.78a53.042,53.042,0,0,1-91.313,52.814,52.874,52.874,0,0,0,91.313-52.814Z" transform="translate(-127.833 -530.78)" fill="#e7e9eb"/>
        </g>
      </g>
    </g>
    <g id="Grupo_128645" data-name="Grupo 128645" transform="translate(31.143 30.468)">
      <path id="Trazado_165688" data-name="Trazado 165688" d="M3427.568,361.9c-2.763,1.994-4.818,1.3-6.125-1.865a13.568,13.568,0,0,1-2.585-.318,2.952,2.952,0,0,1-2.1-2.809,1.314,1.314,0,0,0-.907-1.376,3.281,3.281,0,0,1-1.965-3.645,1.754,1.754,0,0,0-.5-1.3,3.409,3.409,0,0,1,.914-5.942c.684-.295,1.369-.6,2.077-.827a3.34,3.34,0,0,1,4.512,3.5c-.058.7-.008,1.2.627,1.564a.843.843,0,0,1,.413.449c.365,1.894,1.772,3.054,3.005,4.337a2.132,2.132,0,0,0,.718.548,9.484,9.484,0,0,0,2.641.839,10.25,10.25,0,0,0,4.457-.3c1.475-.642,2.707-1.125,4.2-.354a.834.834,0,0,0,.673-.051c2.933-1.639,3.568-1.574,5.759.642,3.427-1.745,5.455.209,5.786,2.886,3.688.6,4.576,1.725,3.971,5.091a11.01,11.01,0,0,1,1.131.671,3.394,3.394,0,0,1-.531,5.706,18.113,18.113,0,0,1-2.662,1.04,3.414,3.414,0,0,1-4.407-3.586,2.859,2.859,0,0,0-.535-1.317c-.111-.2-.455-.3-.53-.5a4.5,4.5,0,0,0-2.761-2.446,5.056,5.056,0,0,0-2.235-.423,22.838,22.838,0,0,0-4.665.66c-1.548.267-3.1.161-4.678.821C3429.8,364.211,3428.505,363.214,3427.568,361.9Zm4.306-2.685c-.014-.275-.02-.691-.063-1.1-.083-.762-.5-1.368-1.274-1.14a1.9,1.9,0,0,0-1.069,1.223,4.2,4.2,0,0,0,.1,2.2,1.787,1.787,0,0,0,1.236,1.024c.317.033.78-.651,1.048-1.093C3432,360.087,3431.874,359.682,3431.874,359.212Zm-16.555-10a26.659,26.659,0,0,0,3.036-1.426,1.325,1.325,0,0,0,.192-1.291,1.56,1.56,0,0,0-1.293-.6,6.92,6.92,0,0,0-2.376.974,1.6,1.6,0,0,0-.5,1.329C3414.426,348.552,3414.958,348.845,3415.319,349.208Zm5.1,2.352a1.2,1.2,0,0,0-1.661-1.249,6.911,6.911,0,0,0-2.117,1.223,1.741,1.741,0,0,0-.306,1.57c.117.291,1.009.517,1.432.384a8.392,8.392,0,0,0,2.137-1.195A2.237,2.237,0,0,0,3420.418,351.56Zm30.736,9.905a1.1,1.1,0,0,0-1.583-1.118,10.74,10.74,0,0,0-2.251,1.734,1.121,1.121,0,0,0,.6,1.859C3448.746,364.148,3451.119,362.335,3451.155,361.465Zm-26.558-.553c.511-.157.812-.157.883-.286a30.842,30.842,0,0,0,1.613-3.135c.083-.2-.342-.81-.644-.918-.358-.128-1.066-.066-1.223.175a11.276,11.276,0,0,0-1.416,2.855C3423.709,359.941,3424.333,360.5,3424.6,360.912Zm-4.326-2.83c.985-.92,1.9-1.7,2.708-2.591.151-.166-.023-.879-.264-1.085a1.359,1.359,0,0,0-1.2-.265,11.023,11.023,0,0,0-2.242,1.738,1.386,1.386,0,0,0-.163,1.225C3419.236,357.443,3419.72,357.645,3420.271,358.082Zm23.031,1.611c.311.389.547.948.939,1.1a1.383,1.383,0,0,0,1.263-.354,8.1,8.1,0,0,0,1.241-2.384,1.465,1.465,0,0,0-.522-1.31,1.428,1.428,0,0,0-1.381.217A20.343,20.343,0,0,0,3443.3,359.693Zm-6.43-.226-.233-.267a7.133,7.133,0,0,0-.353-2.062,1.818,1.818,0,0,0-1.333-.892c-.312,0-.839.725-.9,1.179a7.836,7.836,0,0,0,.221,2.084c.1.75.508,1.377,1.272,1.165C3436.057,360.531,3436.434,359.887,3436.872,359.467Zm4.466-1.858c.023-.434.028-.558.036-.681.054-.8-.2-1.42-1.095-1.487-.834-.062-1.173.471-1.251,1.224-.068.658-.149,1.315-.188,1.974-.046.767.3,1.424,1.083,1.326a2.088,2.088,0,0,0,1.211-1.083A3.173,3.173,0,0,0,3441.338,357.609Zm8.648,10.9a24.559,24.559,0,0,0,2.979-1.34,1.327,1.327,0,0,0,.245-1.289,1.55,1.55,0,0,0-1.279-.63,6.948,6.948,0,0,0-2.407.944,1.585,1.585,0,0,0-.494,1.336C3449.091,367.9,3449.641,368.181,3449.986,368.512Z" transform="translate(-3409.781 -338.454)" fill="#1d272b"/>
      <path id="Trazado_165689" data-name="Trazado 165689" d="M3424.972,429.484a3.486,3.486,0,0,1,6.6-1.23c3.324-1.36,4.677-.754,5.829,2.619a6.561,6.561,0,0,1,1.652-.1,3.428,3.428,0,0,1,2.081,5.312c-1.013,1.273-1.9,2.841-3.852,2.991a3.292,3.292,0,0,1-3.379-1.8,2.754,2.754,0,0,0-1.144-.84c-.508-.26-1.176-.3-1.575-.657a2.59,2.59,0,0,0-2.058-.567,4.636,4.636,0,0,0-3.538,1.524c-1.286,1.261-2.926.755-4.405-.271-.446,1.839-1.451,3.088-3.372,3.182-1.69.082-2.778-.894-3.487-2.489-1.293,1.082-2.646,1.785-4.291.957-1.587-.8-2.073-2.162-1.871-4a3.757,3.757,0,0,1-3.573-1.6,3.278,3.278,0,0,1-.179-3.365c-.589-1.426-1.485-2.581-1.42-3.679.1-1.594.583-3.068.094-4.773-.395-1.38,1.045-3.055,2.51-3.217a12.153,12.153,0,0,1,4.181.195c2.083.517,2.857,2.826,1.908,4.835a3,3,0,0,0-.07,1.431c.027.362.322.742.258,1.066a4.956,4.956,0,0,0,.9,3.843,5.286,5.286,0,0,0,3.912,1.97,6.555,6.555,0,0,0,4.438-1.782C3421.979,428.244,3423,428.564,3424.972,429.484Zm15.146,4.444c-.572-.451-.9-.923-1.206-.9a2.526,2.526,0,0,0-1.705.58,8.356,8.356,0,0,0-1.209,2.654c-.038.127,1.188.872,1.3.768C3438.255,436.125,3439.091,435.094,3440.118,433.928Zm-21.25,1.307c0-.329.01-.659,0-.987-.029-.783-.321-1.417-1.2-1.429s-1.187.611-1.219,1.4c-.013.328,0,.658.008.987.023.977-.161,2.244,1.266,2.214C3419.057,437.392,3418.868,436.173,3418.868,435.235Zm-11.456-15.656c-.79.051-2.048-.326-2.126,1.078-.083,1.492,1.244,1.264,2.187,1.328.965.066,2.121.345,2.4-1.07C3410.04,420.028,3409.264,419.615,3407.412,419.579Zm-.078,12.428a18.777,18.777,0,0,0,2.856-1.021,1.441,1.441,0,0,0,.494-1.313,1.456,1.456,0,0,0-1.172-.782,7.5,7.5,0,0,0-2.567.8,1.521,1.521,0,0,0-.568,1.3C3406.439,431.369,3407,431.674,3407.334,432.007Zm17.764,2.021a30.569,30.569,0,0,0-2-2.915c-.178-.21-.992-.111-1.328.118a1.264,1.264,0,0,0-.342,1.176,10.8,10.8,0,0,0,1.458,2.432,1.374,1.374,0,0,0,1.221.216C3424.462,434.94,3424.7,434.471,3425.1,434.028Zm-10.964-.776a1.141,1.141,0,0,0-1.826-.875,9.35,9.35,0,0,0-1.838,2.163,1.14,1.14,0,0,0,1.1,1.7C3412.309,436.179,3414.176,434,3414.135,433.251Zm21.164-2.364c-.326-.391-.549-.911-.882-.995-.4-.1-1.151.029-1.3.306a11.9,11.9,0,0,0-1.1,2.865c-.071.287.342.882.671,1.027a1.269,1.269,0,0,0,1.193-.215A30.285,30.285,0,0,0,3435.3,430.887Zm-27.386-6.627c-.749.04-1.164.043-1.573.087-.751.08-1.262.445-1.224,1.266s.606,1.137,1.35,1.124a7.227,7.227,0,0,0,2.207-.2,1.608,1.608,0,0,0,.938-1.174c-.014-.379-.628-.8-1.061-1.072A.926.926,0,0,0,3407.913,424.26Zm21.678,6.6h.009c0-.33.008-.661,0-.991-.021-.76-.346-1.3-1.16-1.319-.83-.02-1.164.512-1.168,1.282a8.476,8.476,0,0,0,.064,2.217c.118.435.7,1.023,1.087,1.028s.883-.566,1.135-1C3429.736,431.774,3429.591,431.277,3429.591,430.864Z" transform="translate(-3402.983 -393.865)" fill="#1d272b"/>
      <path id="Trazado_165690" data-name="Trazado 165690" d="M3487.223,325.277c1.354-2.638,4.181-3.408,6.465-.738.228-.132.466-.273.708-.411a3.289,3.289,0,0,1,4.785,1.272,1.25,1.25,0,0,0,1.319.8,3.273,3.273,0,0,1,3.369,2.565,1.545,1.545,0,0,0,.9.9,3.388,3.388,0,0,1,1.778,5.728c-.522.589-1.063,1.165-1.64,1.7a3.376,3.376,0,0,1-5.577-1.349c-.174-.441-.686-.768-1.084-1.1-.625-.516-1.276-1-1.934-1.475-.386-.277-.8-.511-1.213-.752-.062-.037-.184.024-.243-.015-1.614-1.048-3.383-.693-5.122-.551a1.743,1.743,0,0,0-1.018.355c-2.015,1.962-4.52,1.571-5.824-.948-.266-.515-.523-1.036-.766-1.562a3.421,3.421,0,0,1,.569-4.124,3.466,3.466,0,0,1,3.917-.581C3486.794,325.069,3486.973,325.161,3487.223,325.277Zm15.347,10.572c.746,0,2.784-2.151,2.75-2.906a1.129,1.129,0,0,0-1.7-.947,9.9,9.9,0,0,0-2.093,2.217C3501.049,334.9,3501.725,335.848,3502.57,335.85Zm-15.117-5.779a32.224,32.224,0,0,0-1.7-2.97c-.16-.227-.907-.263-1.225-.092a1.276,1.276,0,0,0-.574,1.076,12.77,12.77,0,0,0,1.328,2.763,1.346,1.346,0,0,0,1.212.236C3486.846,330.971,3487.076,330.494,3487.453,330.071Zm10.157-3.109c-.362-.41-.59-.883-.937-1s-1.056-.048-1.221.2a12.736,12.736,0,0,0-1.39,2.749c-.1.274.267.905.583,1.085a1.277,1.277,0,0,0,1.211-.08A32.867,32.867,0,0,0,3497.609,326.962Zm4.371,2.7c-.4-.535-.582-1-.887-1.113a1.435,1.435,0,0,0-1.243.119,10.752,10.752,0,0,0-1.672,2.281,1.314,1.314,0,0,0,.218,1.217c.247.257,1.021.433,1.191.265C3500.437,331.6,3501.164,330.634,3501.98,329.662Zm-12.562-2.234h-.044c-.017.29-.044.579-.048.868-.01.754.267,1.332,1.091,1.385s1.2-.466,1.261-1.224a7.7,7.7,0,0,0,.037-2.223c-.1-.439-.719-1.106-1.033-1.069-.456.054-.945.591-1.229,1.043C3489.266,326.505,3489.417,327.014,3489.417,327.428Z" transform="translate(-3462.097 -322.878)" fill="#1d272b"/>
    </g>
  </g>
</svg>
