<svg xmlns="http://www.w3.org/2000/svg" xmlns:xlink="http://www.w3.org/1999/xlink" width="101.31" height="101.312" viewBox="0 0 101.31 101.312">
  <defs>
    <radialGradient id="radial-gradient" cx="0.077" cy="0.019" r="1.465" gradientTransform="matrix(1, 0, 0, -1, 0, 9.666)" gradientUnits="objectBoundingBox">
      <stop offset="0" stop-color="#f4f4f5"/>
      <stop offset="0.477" stop-color="#f7f8fa"/>
      <stop offset="0.715" stop-color="#fff"/>
    </radialGradient>
  </defs>
  <g id="icon2" transform="translate(101.31) rotate(90)">
    <g id="Group_18531" data-name="Group 18531">
      <g id="Group_18423" data-name="Group 18423">
        <g id="Group_18421" data-name="Group 18421">
          <g id="Group_18420" data-name="Group 18420">
            <g id="Group_18419" data-name="Group 18419">
              <path id="Path_40936" data-name="Path 40936" d="M224.11,565.485a50.655,50.655,0,1,1-50.657-50.653h0A50.654,50.654,0,0,1,224.11,565.485Z" transform="translate(-122.8 -514.832)" fill="#fff"/>
            </g>
          </g>
        </g>
        <path id="Path_40937" data-name="Path 40937" d="M224.109,565.485a50.454,50.454,0,1,0,0,.4Z" transform="translate(-122.798 -514.832)" fill="url(#radial-gradient)"/>
        <path id="Path_40938" data-name="Path 40938" d="M206.941,560.315a38.665,38.665,0,1,0-38.665,38.665h0A38.522,38.522,0,0,0,206.941,560.6Z" transform="translate(-117.466 -509.492)" fill="none" stroke="#1d272b" stroke-miterlimit="10" stroke-width="4"/>
        <g id="Group_18422" data-name="Group 18422" transform="translate(8.975 28.439)">
          <path id="Path_40939" data-name="Path 40939" d="M215.047,530.78a50.661,50.661,0,0,1-87.214,50.443,50.5,50.5,0,0,0,87.214-50.443Z" transform="translate(-127.833 -530.78)" fill="#e7e9eb"/>
        </g>
      </g>
    </g>
    <g id="jPDTPs" transform="translate(27.089 27.593)">
      <g id="Grupo_128637" data-name="Grupo 128637" transform="translate(0)">
        <path id="Trazado_165638" data-name="Trazado 165638" d="M46.692,99.543c-2.916,1.873-2.916,1.873-7.087,2.945,0,.615-.009,1.242.008,1.869a.779.779,0,0,0,.175.345c.318.48.663.943.959,1.435a3.342,3.342,0,0,1-.769,4.319,3.58,3.58,0,0,1-4.5.086,3.349,3.349,0,0,1-.953-4.249c.314-.558.7-1.074,1.054-1.612a.71.71,0,0,0,.159-.311c.015-.628.007-1.256.007-1.783-1.286-.39-2.549-.671-3.726-1.158s-2.247-1.172-3.455-1.819c-.348.363-.791.809-1.213,1.275a.879.879,0,0,0-.139.4c-.113.55-.19,1.109-.328,1.652a3.118,3.118,0,0,1-2.673,2.457,3.5,3.5,0,0,1-1.644-6.8,11.168,11.168,0,0,1,1.455-.289,1.229,1.229,0,0,0,.826-.415c.35-.369.728-.71,1.111-1.079a14.849,14.849,0,0,1-2.932-7.072c-.653,0-1.282-.007-1.909.007a.7.7,0,0,0-.311.158c-.49.326-.965.678-1.468.981a3.34,3.34,0,0,1-4.315-.781,3.576,3.576,0,0,1-.072-4.5,3.346,3.346,0,0,1,4.251-.939c.557.317,1.073.705,1.611,1.054a.764.764,0,0,0,.352.155c.6.016,1.2.007,1.859.007A14.882,14.882,0,0,1,25.974,78.8c-.458-.443-.895-.877-1.349-1.292a.855.855,0,0,0-.4-.155c-.55-.114-1.108-.193-1.653-.325a3.092,3.092,0,0,1-2.419-2.377A3.507,3.507,0,0,1,26.9,72.719a11.259,11.259,0,0,1,.284,1.415,1.266,1.266,0,0,0,.424.864c.371.346.711.726,1.075,1.1a14.878,14.878,0,0,1,7.068-2.933c0-.648.009-1.263-.008-1.878a.778.778,0,0,0-.165-.349c-.349-.539-.738-1.055-1.053-1.613a3.422,3.422,0,0,1,2.41-4.915,3.516,3.516,0,0,1,4.278,3.608,3.058,3.058,0,0,1-.262,1.042,7.69,7.69,0,0,1-.625,1.121c-.215.338-.47.651-.7.977a.218.218,0,0,0-.018.117c0,.615,0,1.231,0,1.888A14.868,14.868,0,0,1,46.671,76.1c.461-.469.923-.929,1.369-1.4a.727.727,0,0,0,.1-.339c.108-.551.193-1.107.322-1.654a3.455,3.455,0,0,1,5.472-1.811,3.583,3.583,0,0,1,.347,5.354,3.354,3.354,0,0,1-2.1.917,3.233,3.233,0,0,0-2.4,1.3,2.586,2.586,0,0,1-.4.332,14.912,14.912,0,0,1,2.943,7.092c.653,0,1.292.008,1.931-.008.1,0,.209-.1.307-.168.479-.319.943-.661,1.434-.96a3.34,3.34,0,0,1,4.319.753,3.566,3.566,0,0,1,.073,4.526,3.328,3.328,0,0,1-4.289.9c-.538-.293-1.027-.678-1.541-1.015a.775.775,0,0,0-.347-.168c-.615-.017-1.23-.008-1.883-.008a14.861,14.861,0,0,1-2.941,7.077c.464.452.917.9,1.387,1.338a.8.8,0,0,0,.37.119c.55.111,1.107.2,1.653.325a3.494,3.494,0,1,1-4.333,4.332c-.122-.521-.2-1.052-.322-1.572a1.418,1.418,0,0,0-.274-.589C47.5,100.348,47.091,99.956,46.692,99.543ZM27.755,96.89c-.818.811-1.588,1.594-2.385,2.349a1.426,1.426,0,0,1-.656.305c-.626.139-1.269.205-1.89.359a2.069,2.069,0,0,0-1.39,2.607,2.292,2.292,0,0,0,2.154,1.634,2,2,0,0,0,2.021-1.566c.158-.578.205-1.186.338-1.772a1.539,1.539,0,0,1,.315-.692c.574-.619,1.191-1.2,1.779-1.8a6.9,6.9,0,0,0,.492-.638,13.649,13.649,0,0,0,8.5,3.582c.01.159.023.276.023.394,0,1.073.006,2.146-.011,3.219,0,.126-.121.257-.2.375-.369.541-.788,1.054-1.107,1.623a1.982,1.982,0,0,0,.612,2.663,2.222,2.222,0,0,0,2.786-.1,2,2,0,0,0,.456-2.638,5.012,5.012,0,0,0-.715-1.065,2.164,2.164,0,0,1-.589-1.744c.048-.893.012-1.79.012-2.725a13.59,13.59,0,0,0,8.457-3.519c.813.821,1.6,1.6,2.369,2.407a1.343,1.343,0,0,1,.283.625c.136.627.185,1.276.362,1.89a2.02,2.02,0,0,0,2.516,1.419,2.271,2.271,0,0,0,1.721-2.124,2.043,2.043,0,0,0-1.555-2.076,2.642,2.642,0,0,0-.82-.183A3.23,3.23,0,0,1,49,98.284c-.426-.492-.92-.925-1.4-1.4a13.594,13.594,0,0,0,3.515-8.43c.179-.008.323-.019.467-.02.966,0,1.931-.015,2.9.01a1.341,1.341,0,0,1,.646.23c.529.339,1.012.756,1.557,1.062a2.046,2.046,0,0,0,2.878-.855,2.215,2.215,0,0,0-.379-2.634,1.946,1.946,0,0,0-2.524-.351c-.52.327-1,.716-1.521,1.046a1.426,1.426,0,0,1-.683.24c-.951.027-1.9.011-2.856.011h-.484A13.61,13.61,0,0,0,47.6,78.739c.815-.808,1.6-1.6,2.4-2.364a1.339,1.339,0,0,1,.623-.288c.627-.135,1.276-.182,1.89-.358a2.031,2.031,0,0,0,1.42-2.552,2.273,2.273,0,0,0-2.108-1.691,2.029,2.029,0,0,0-2.079,1.547,4.57,4.57,0,0,0-.239,1.177,2.358,2.358,0,0,1-.894,1.825c-.651.572-1.228,1.228-1.855,1.865A13.6,13.6,0,0,0,38.3,74.371c0-1.235-.006-2.413.009-3.592a.82.82,0,0,1,.192-.38c.37-.541.79-1.053,1.111-1.621a1.962,1.962,0,0,0-.5-2.592A2.222,2.222,0,0,0,36.3,66.14a1.987,1.987,0,0,0-.536,2.682c.31.544.725,1.027,1.067,1.554a1.268,1.268,0,0,1,.218.611c.025.79.01,1.582.011,2.373,0,.33,0,.661,0,1.015A13.6,13.6,0,0,0,28.595,77.9c-.8-.81-1.59-1.591-2.351-2.4a1.438,1.438,0,0,1-.3-.659c-.139-.626-.189-1.276-.369-1.888a2.006,2.006,0,0,0-2.451-1.408,2.26,2.26,0,0,0-1.779,2.115,2.013,2.013,0,0,0,1.577,2.092c.592.159,1.209.219,1.814.33a.92.92,0,0,1,.448.128c.857.827,1.7,1.672,2.565,2.534a13.6,13.6,0,0,0-3.518,8.452c-1.146,0-2.244.014-3.34-.011a1.428,1.428,0,0,1-.682-.242c-.565-.356-1.093-.773-1.666-1.117a1.8,1.8,0,0,0-2.106.19,2.216,2.216,0,0,0-.582,2.974,2.055,2.055,0,0,0,2.89.715,2.833,2.833,0,0,0,.707-.456,2.949,2.949,0,0,1,2.59-.825c.715.06,1.44.012,2.193.012A13.588,13.588,0,0,0,27.755,96.89Z" transform="translate(-14.196 -64.334)" fill="#1d272b"/>
        <path id="Trazado_165639" data-name="Trazado 165639" d="M70.828,108.962a3.565,3.565,0,0,0-7.125.091.657.657,0,0,0,.636.732.673.673,0,0,0,.7-.677,3.436,3.436,0,0,1,.052-.477,2.236,2.236,0,0,1,4.414.4c.04.5.292.774.7.756S70.833,109.468,70.828,108.962Zm-9.055,6.087a3.521,3.521,0,0,0-3.373,2.442,3.575,3.575,0,0,0,1.208,3.924.691.691,0,0,0,.973-.035.722.722,0,0,0-.134-1,3.4,3.4,0,0,1-.558-.623A2.19,2.19,0,0,1,60.23,117a2.214,2.214,0,0,1,2.8-.257.689.689,0,0,0,1.02-.136.68.68,0,0,0-.307-.984A3.39,3.39,0,0,0,61.773,115.049Zm9.834,7.965a3.572,3.572,0,0,0,2.809-5.623.674.674,0,0,0-1-.25c-.308.218-.312.587-.106,1a3.53,3.53,0,0,1,.414,1.192,2.174,2.174,0,0,1-1.38,2.189,2.212,2.212,0,0,1-2.546-.637.675.675,0,1,0-1,.872A3.581,3.581,0,0,0,71.607,123.014Zm-18.629,5.879c-.645-.012-1,.538-.692.971a6.926,6.926,0,0,0,1.183,1.22.624.624,0,0,0,.908-.189.693.693,0,0,0-.169-.9c-.29-.27-.548-.575-.838-.845A2.252,2.252,0,0,0,52.978,128.893ZM67.5,94.908c-.255.034-.509.055-.757.105a.636.636,0,0,0-.57.773c.059.364.341.541.771.525a9.39,9.39,0,0,1,1.117.02.666.666,0,0,0,.775-.472.645.645,0,0,0-.5-.824C68.059,94.97,67.777,94.949,67.5,94.908Zm-13.075,6.406c-.012-.65-.577-.975-1.019-.658a6.476,6.476,0,0,0-1.148,1.1.635.635,0,0,0,.128.955.717.717,0,0,0,.957-.2c.237-.268.521-.494.765-.757A3.549,3.549,0,0,0,54.423,101.315Zm26.7-.881c-.165.16-.4.3-.507.514a.609.609,0,0,0,.208.749,7.263,7.263,0,0,1,.785.785.7.7,0,0,0,.941.235.634.634,0,0,0,.173-.943,11.185,11.185,0,0,0-1.107-1.133A1.816,1.816,0,0,0,81.125,100.434ZM46.59,115.853c.039.28.058.562.121.834a.64.64,0,0,0,.718.5.651.651,0,0,0,.567-.71c0-.425,0-.851.014-1.276a.654.654,0,0,0-1.294-.189C46.653,115.288,46.631,115.57,46.59,115.853Zm41.754-.04-.025-.006c-.011-.187-.018-.375-.036-.562a1.433,1.433,0,0,0-.062-.274.654.654,0,0,0-1.287.2c0,.438,0,.877-.013,1.315a.656.656,0,0,0,.532.7.64.64,0,0,0,.746-.464C88.275,116.425,88.3,116.116,88.344,115.813Zm-5.419,13.722a2.507,2.507,0,0,0-.508-.5c-.28-.155-.535-.007-.747.218a10.1,10.1,0,0,1-.8.782.717.717,0,0,0-.211.955.626.626,0,0,0,.916.164,11.561,11.561,0,0,0,1.147-1.106C82.819,129.95,82.834,129.781,82.925,129.535Zm-15.409,7.272,0-.023c.187-.009.375-.013.561-.03a1.435,1.435,0,0,0,.274-.062.656.656,0,0,0-.2-1.291q-.636.006-1.273-.012a.641.641,0,0,0-.7.516.624.624,0,0,0,.474.768C66.931,136.744,67.226,136.764,67.516,136.807Z" transform="translate(-43.983 -92.448)" fill="#1d272b"/>
        <path id="Trazado_165640" data-name="Trazado 165640" d="M266.352,230.512c.006.506-.237.8-.631.822s-.657-.255-.7-.756a2.236,2.236,0,0,0-4.414-.4,3.434,3.434,0,0,0-.052.477.673.673,0,0,1-.7.677.657.657,0,0,1-.636-.732,3.565,3.565,0,0,1,7.125-.091Z" transform="translate(-239.508 -213.998)" fill="#1d272b"/>
        <path id="Trazado_165641" data-name="Trazado 165641" d="M194.773,345.172a3.394,3.394,0,0,1,1.973.575.68.68,0,0,1,.307.984.689.689,0,0,1-1.02.136,2.214,2.214,0,0,0-2.8.257,2.19,2.19,0,0,0-.34,2.759,3.4,3.4,0,0,0,.558.624.722.722,0,0,1,.134,1,.691.691,0,0,1-.973.035,3.575,3.575,0,0,1-1.208-3.924A3.523,3.523,0,0,1,194.773,345.172Z" transform="translate(-176.983 -322.572)" fill="#1d272b"/>
        <path id="Trazado_165642" data-name="Trazado 165642" d="M322.756,375.577a3.581,3.581,0,0,1-2.808-1.256.675.675,0,1,1,1-.872,2.212,2.212,0,0,0,2.546.638,2.174,2.174,0,0,0,1.38-2.189,3.529,3.529,0,0,0-.414-1.192c-.206-.415-.2-.784.106-1a.674.674,0,0,1,1,.25,3.572,3.572,0,0,1-2.809,5.623Z" transform="translate(-295.132 -345.011)" fill="#1d272b"/>
        <path id="Trazado_165643" data-name="Trazado 165643" d="M116.76,517.23a2.253,2.253,0,0,1,.392.26c.29.27.547.575.838.845a.693.693,0,0,1,.169.9.624.624,0,0,1-.908.189,6.93,6.93,0,0,1-1.183-1.22C115.755,517.767,116.114,517.217,116.76,517.23Z" transform="translate(-107.765 -480.785)" fill="#1d272b"/>
        <path id="Trazado_165644" data-name="Trazado 165644" d="M291.1,94.908c.28.041.562.062.833.126a.645.645,0,0,1,.5.824.666.666,0,0,1-.775.472,9.389,9.389,0,0,0-1.117-.02c-.43.016-.712-.161-.771-.525a.636.636,0,0,1,.57-.773C290.594,94.963,290.848,94.942,291.1,94.908Z" transform="translate(-267.589 -92.448)" fill="#1d272b"/>
        <path id="Trazado_165645" data-name="Trazado 165645" d="M117.31,165.6a3.551,3.551,0,0,1-.317.439c-.244.263-.528.489-.765.757a.717.717,0,0,1-.957.2.635.635,0,0,1-.128-.955,6.477,6.477,0,0,1,1.148-1.1C116.733,164.623,117.3,164.949,117.31,165.6Z" transform="translate(-106.87 -156.732)" fill="#1d272b"/>
        <path id="Trazado_165646" data-name="Trazado 165646" d="M469.3,163.577a1.817,1.817,0,0,1,.492.205,11.179,11.179,0,0,1,1.107,1.133.634.634,0,0,1-.173.943.7.7,0,0,1-.941-.235,7.254,7.254,0,0,0-.785-.785.609.609,0,0,1-.208-.749C468.893,163.881,469.131,163.737,469.3,163.577Z" transform="translate(-432.155 -155.591)" fill="#1d272b"/>
        <path id="Trazado_165647" data-name="Trazado 165647" d="M46.59,339.505c.041-.283.063-.565.125-.837a.654.654,0,0,1,1.294.189c-.011.425-.017.851-.014,1.276a.651.651,0,0,1-.567.71.64.64,0,0,1-.718-.5C46.648,340.067,46.629,339.785,46.59,339.505Z" transform="translate(-43.983 -316.1)" fill="#1d272b"/>
        <path id="Trazado_165648" data-name="Trazado 165648" d="M549.2,339.491c-.046.3-.069.613-.145.908a.64.64,0,0,1-.746.464.656.656,0,0,1-.532-.7c.009-.438.012-.877.013-1.315a.655.655,0,0,1,1.287-.2,1.434,1.434,0,0,1,.062.274c.018.186.025.374.036.561Z" transform="translate(-504.838 -316.126)" fill="#1d272b"/>
        <path id="Trazado_165649" data-name="Trazado 165649" d="M471.087,518.756c-.091.245-.106.415-.2.511a11.551,11.551,0,0,1-1.147,1.106.626.626,0,0,1-.916-.163.718.718,0,0,1,.211-.956,10.082,10.082,0,0,0,.8-.782c.213-.224.467-.373.747-.218A2.511,2.511,0,0,1,471.087,518.756Z" transform="translate(-432.145 -481.669)" fill="#1d272b"/>
        <path id="Trazado_165650" data-name="Trazado 165650" d="M291.136,599.382c-.29-.043-.586-.063-.869-.134a.624.624,0,0,1-.474-.768.641.641,0,0,1,.7-.516q.636.018,1.273.012a.656.656,0,0,1,.2,1.291,1.433,1.433,0,0,1-.274.062c-.186.017-.374.021-.561.03Z" transform="translate(-267.603 -555.023)" fill="#1d272b"/>
      </g>
    </g>
  </g>
</svg>
