<svg id="icon17" xmlns="http://www.w3.org/2000/svg" xmlns:xlink="http://www.w3.org/1999/xlink" width="79.155" height="79.154" viewBox="0 0 79.155 79.154">
  <defs>
    <radialGradient id="radial-gradient" cx="0.077" cy="0.019" r="1.465" gradientTransform="matrix(1, 0, 0, -1, 0, 9.666)" gradientUnits="objectBoundingBox">
      <stop offset="0" stop-color="#f4f4f5"/>
      <stop offset="0.477" stop-color="#f7f8fa"/>
      <stop offset="0.715" stop-color="#fff"/>
    </radialGradient>
  </defs>
  <g id="Group_18531" data-name="Group 18531">
    <g id="Group_18423" data-name="Group 18423">
      <g id="Group_18421" data-name="Group 18421">
        <g id="Group_18420" data-name="Group 18420">
          <g id="Group_18419" data-name="Group 18419">
            <path id="Path_40936" data-name="Path 40936" d="M201.954,554.407a39.577,39.577,0,1,1-39.578-39.575h0A39.576,39.576,0,0,1,201.954,554.407Z" transform="translate(-122.8 -514.832)" fill="#fff"/>
          </g>
        </g>
      </g>
      <path id="Path_40937" data-name="Path 40937" d="M201.953,554.407a39.42,39.42,0,1,0,0,.312Z" transform="translate(-122.799 -514.832)" fill="url(#radial-gradient)"/>
      <path id="Path_40938" data-name="Path 40938" d="M190.028,551.858a30.209,30.209,0,1,0-30.209,30.209h0a30.1,30.1,0,0,0,30.209-29.984Z" transform="translate(-120.122 -512.151)" fill="none" stroke="#1d272b" stroke-miterlimit="10" stroke-width="2"/>
      <g id="Group_18422" data-name="Group 18422" transform="translate(7.012 22.22)">
        <path id="Path_40939" data-name="Path 40939" d="M195.973,530.78a39.581,39.581,0,0,1-68.14,39.411,39.456,39.456,0,0,0,68.14-39.411Z" transform="translate(-127.833 -530.78)" fill="#e7e9eb"/>
      </g>
    </g>
  </g>
  <g id="mKUB3h" transform="translate(-6152.875 2004.828)">
    <g id="Grupo_128848" data-name="Grupo 128848" transform="translate(6171.667 -1983.395)">
      <path id="Trazado_165848" data-name="Trazado 165848" d="M6200.561-1975.6l3.654-3.661c-.29-.254-.595-.5-.877-.774a.633.633,0,0,1-.014-1.028c.578-.587,1.155-1.175,1.748-1.746a1.934,1.934,0,0,1,2.771-.005q1.4,1.354,2.75,2.755a1.876,1.876,0,0,1,.025,2.633c-.6.641-1.236,1.253-1.865,1.868a.615.615,0,0,1-.955-.013c-.287-.286-.553-.593-.816-.879l-.958.952c.31.3.623.611.933.92q1.282,1.28,2.561,2.562c.444.446.445.739.008,1.177q-.789.79-1.581,1.578c-.421.418-.73.415-1.157-.012q-1.341-1.34-2.68-2.682a1.18,1.18,0,0,0-.269-.212c.173.3.365.583.515.89a5.808,5.808,0,0,1-1.152,6.764q-8.784,8.785-17.569,17.569c-.137.136-.247.237-.168.484a1.9,1.9,0,0,1-.8,2.24,1.9,1.9,0,0,1-2.416-.308q-3.3-3.285-6.583-6.582c-1.132-1.133-2.273-2.259-3.4-3.4a1.909,1.909,0,0,1,.385-3.06,1.71,1.71,0,0,1,1.4-.173.588.588,0,0,0,.694-.206q5.353-5.372,10.718-10.73,3.4-3.4,6.8-6.8a5.769,5.769,0,0,1,6.76-1.129A16.547,16.547,0,0,1,6200.561-1975.6Zm-7.61,1.268c-.095.089-.2.183-.3.283q-5.862,5.863-11.727,11.723c-.152.151-.2.266-.075.456.664,1.032,1.247,2.124,1.99,3.094a19.667,19.667,0,0,0,6.767,5.661.309.309,0,0,0,.434-.056q5.9-5.919,11.821-11.824a.346.346,0,0,0,.08-.488,20.232,20.232,0,0,0-8.707-8.712C6193.152-1974.234,6193.07-1974.272,6192.95-1974.33Zm-4.121,22.293a22.2,22.2,0,0,1-9.04-9.025l-2.429,2.4,9.041,9.053Zm14.157-14.265c.09-.163.16-.276.218-.4a4.535,4.535,0,0,0-.977-5.311c-.812-.816-1.634-1.621-2.439-2.442a4.6,4.6,0,0,0-3.1-1.474,4.375,4.375,0,0,0-2.644.674A22.381,22.381,0,0,1,6202.986-1966.3Zm-29.4,9.679c-.2.149-.441.25-.53.428a.968.968,0,0,0,.018.63c.039.136.193.243.3.354q2.439,2.442,4.881,4.883,2.416,2.418,4.834,4.834c.354.352.728.368,1.01.074a.683.683,0,0,0-.1-.991q-4.94-4.944-9.887-9.882A3.038,3.038,0,0,0,6173.587-1956.623Zm11.813,8.037-9.076-9.077-.854.815,9.079,9.107Zm19.312-32.022,3.637,3.679,1.094-1.128c.078-.081.162-.158.233-.245a.6.6,0,0,0-.009-.857q-1.376-1.4-2.78-2.772a.567.567,0,0,0-.828-.025C6205.583-1981.509,6205.134-1981.034,6204.711-1980.608Zm-2.4,6.85,3.627-3.613-.8-.834-3.605,3.607Zm1.943,0,3.132,3.164.836-.8-3.149-3.149Z" transform="translate(-6171.667 1983.395)" fill="#1d272b"/>
    </g>
  </g>
</svg>
