<svg xmlns="http://www.w3.org/2000/svg" xmlns:xlink="http://www.w3.org/1999/xlink" width="101.893" height="101.894" viewBox="0 0 101.893 101.894">
  <defs>
    <radialGradient id="radial-gradient" cx="0.077" cy="0.019" r="1.465" gradientTransform="matrix(1, 0, 0, -1, 0, 9.666)" gradientUnits="objectBoundingBox">
      <stop offset="0" stop-color="#f4f4f5"/>
      <stop offset="0.477" stop-color="#f7f8fa"/>
      <stop offset="0.715" stop-color="#fff"/>
    </radialGradient>
  </defs>
  <g id="icon6" transform="translate(101.893) rotate(90)">
    <g id="Group_18531" data-name="Group 18531">
      <g id="Group_18423" data-name="Group 18423">
        <g id="Group_18421" data-name="Group 18421">
          <g id="Group_18420" data-name="Group 18420">
            <g id="Group_18419" data-name="Group 18419">
              <path id="Path_40936" data-name="Path 40936" d="M224.693,565.777a50.946,50.946,0,1,1-50.948-50.945h0A50.945,50.945,0,0,1,224.693,565.777Z" transform="translate(-122.8 -514.832)" fill="#fff"/>
            </g>
          </g>
        </g>
        <path id="Path_40937" data-name="Path 40937" d="M224.691,565.777a50.744,50.744,0,1,0,0,.4Z" transform="translate(-122.798 -514.832)" fill="url(#radial-gradient)"/>
        <path id="Path_40938" data-name="Path 40938" d="M207.385,560.537A38.888,38.888,0,1,0,168.5,599.424h0a38.743,38.743,0,0,0,38.887-38.6Z" transform="translate(-117.396 -509.422)" fill="none" stroke="#1d272b" stroke-miterlimit="10" stroke-width="4"/>
        <g id="Group_18422" data-name="Group 18422" transform="translate(9.027 28.603)">
          <path id="Path_40939" data-name="Path 40939" d="M215.548,530.78a50.952,50.952,0,0,1-87.715,50.733,50.79,50.79,0,0,0,87.715-50.733Z" transform="translate(-127.833 -530.78)" fill="#e7e9eb"/>
        </g>
      </g>
    </g>
    <g id="Grupo_128642" data-name="Grupo 128642" transform="translate(29.975 30.963)">
      <path id="Trazado_165671" data-name="Trazado 165671" d="M2289.562,798.859c2.711.667,5.369,1.184,7.924,2.017,1.027.335,1.818,1.379,2.736,2.073a3.29,3.29,0,0,0,1.128.649c3.935.933,5.323,4.15,3.221,7.622-.451.744-1.082,1.376-1.6,2.079-1.064,1.429-1.59,2.893-.6,4.644.2.351-.226,1.053-.364,1.593-.5-.164-1.223-.173-1.467-.519a5.111,5.111,0,0,1-.208-5.679c.468-.873,1.219-1.591,1.729-2.447a10.018,10.018,0,0,0,1.169-2.565,1.867,1.867,0,0,0-1.223-2.219,1.832,1.832,0,0,0-2.352.3,4.992,4.992,0,0,1-2.513.951,23.2,23.2,0,0,1-3.747.265,19.277,19.277,0,0,0-11.31,3.471,29.311,29.311,0,0,1-4.477,2.493,3.133,3.133,0,0,1-3.75-.321,3.18,3.18,0,0,1-.53-3.831,16.463,16.463,0,0,1,8.953-8.695C2284.522,799.76,2287.069,799.475,2289.562,798.859Zm.028,2.412c-5.758.108-10.038,2.739-13.3,7.245a7.883,7.883,0,0,0-1,2.136c-.313.939.207,1.253,1.06,1.05a5.331,5.331,0,0,0,1.381-.573c1.2-.685,2.418-1.342,3.541-2.136a20.47,20.47,0,0,1,11.8-3.583,36.5,36.5,0,0,0,3.875-.26,4.936,4.936,0,0,0,1.392-.659,6.14,6.14,0,0,0-1.058-1.264,5.219,5.219,0,0,0-1.818-.812C2293.518,801.986,2291.55,801.646,2289.59,801.271Z" transform="translate(-2260.024 -792.097)" fill="#1d272b"/>
      <path id="Trazado_165672" data-name="Trazado 165672" d="M2230.2,799.887a3.841,3.841,0,0,1,3.726,1.061c1.023.972,2.038,1.515,3.451.583.363-.24,1.13.133,1.712.224-.2.479-.27,1.1-.619,1.413-1.722,1.519-3.554,1.517-5.406-.07a4.528,4.528,0,0,0-3.41-1.193,4.868,4.868,0,0,1-4.464-2.094c-2.914-4.292-4.561-8.8-3.131-14.173a18.156,18.156,0,0,1,12.247-13.287,9.063,9.063,0,0,1,3.688-.382,2.628,2.628,0,0,1,2.166,3.884,12.2,12.2,0,0,1-2.073,2.791,26.241,26.241,0,0,1-2.848,2.639,17.75,17.75,0,0,0-5.641,8.7c-.489,1.508-1.042,3-1.618,4.473a7.524,7.524,0,0,1-.833,1.387c-.283.422-.94.948-.844,1.205a4.3,4.3,0,0,0,1.359,2A9.21,9.21,0,0,0,2230.2,799.887Zm-6.447-9.436a7.557,7.557,0,0,0,.136,1.866,16.312,16.312,0,0,0,1.087,2.225,10.641,10.641,0,0,0,1.35-1.936c.621-1.5,1.089-3.066,1.61-4.609a20.559,20.559,0,0,1,6.615-9.105,33.576,33.576,0,0,0,3.1-3.087,3.793,3.793,0,0,0,.475-1.331,4.344,4.344,0,0,0-1.477-.368,10.454,10.454,0,0,0-2.537.645C2227.606,777.3,2223.811,783.084,2223.757,790.452Z" transform="translate(-2221.54 -771.927)" fill="#1d272b"/>
      <path id="Trazado_165673" data-name="Trazado 165673" d="M2266.921,851.622a23.543,23.543,0,0,1-3.293,10.622c-2.438,4.274-6.312,6.65-10.915,7.867-1.2.317-2.58-.08-3.877-.13a2.567,2.567,0,0,0-1.075.084c-2.513,1.093-4.784,1.014-6.939-.945a6.933,6.933,0,0,0-2.821-1.2,7.316,7.316,0,0,1-3.9-2.34c-.459-.555-.638-1.246.034-1.609a1.693,1.693,0,0,1,1.587.184,7.744,7.744,0,0,0,3.388,1.765,13.572,13.572,0,0,1,3.4,1.714,3.963,3.963,0,0,0,4.21.5,1.13,1.13,0,0,0,.522-.713,5.833,5.833,0,0,1,2.415-3.644c4.175-3.394,8.017-7.034,9.441-12.537a15.587,15.587,0,0,1,1.708-3.886,2.737,2.737,0,0,1,5.052.2A23.344,23.344,0,0,1,2266.921,851.622Zm-2.414-.437a21.251,21.251,0,0,0-.422-2.183c-.1-.344-.474-.609-.725-.91a3.977,3.977,0,0,0-.886.785,8.611,8.611,0,0,0-.77,1.711,31.85,31.85,0,0,1-4.093,8.41,11.709,11.709,0,0,1-1.572,1.9c-1.326,1.2-2.765,2.278-4.087,3.484a20,20,0,0,0-2.158,2.421,1.189,1.189,0,0,0-.187,1.024c.1.222.608.362.932.357,3.889-.058,7-2.069,9.523-4.634C2263.229,860.331,2264.34,856.07,2264.507,851.185Z" transform="translate(-2230.638 -827.227)" fill="#1d272b"/>
    </g>
  </g>
</svg>
