<svg xmlns="http://www.w3.org/2000/svg" xmlns:xlink="http://www.w3.org/1999/xlink" width="186.718" height="268.625" viewBox="0 0 186.718 268.625">
  <defs>
    <linearGradient id="linear-gradient" x1="0.5" x2="0.5" y2="1" gradientUnits="objectBoundingBox">
      <stop offset="0" stop-color="#f5f5f5"/>
      <stop offset="0.25" stop-color="#f5f5f5"/>
      <stop offset="1" stop-color="#a7b3cf"/>
    </linearGradient>
    <linearGradient id="linear-gradient-2" x1="0.5" x2="0.5" y2="1" gradientUnits="objectBoundingBox">
      <stop offset="0" stop-color="#f5f5f5"/>
      <stop offset="0.25" stop-color="#f5f5f5"/>
      <stop offset="1" stop-color="#eeeef2"/>
    </linearGradient>
    <linearGradient id="linear-gradient-10" x1="0.73" y1="0.758" x2="-0.115" y2="-0.571" xlink:href="#linear-gradient"/>
    <linearGradient id="linear-gradient-11" x1="0.688" y1="1.104" x2="0.376" y2="-0.135" xlink:href="#linear-gradient"/>
  </defs>
  <g id="img21" transform="translate(0)">
    <path id="Trazado_165336" data-name="Trazado 165336" d="M235.678,359.26c6.745-16.946,8.664-38.938,5.093-58.358-2.258-12.278-6.592-23.684-7.146-36.488-1.108-25.6,12.861-46.294,15.759-71.505,1.274-11.08-.116-23.989-5.576-30.719-5.393-6.647-13.09-5.29-19.195-.635s-11.271,12.108-17.133,17.556-13.079,8.816-19.27,4.48c-6.27-4.392-9.827-15.464-11.819-26.254s-2.97-22.283-6.37-32.059c-5.6-16.111-17.552-24.9-28.686-22.623s-21.082,14.725-26.418,31.085-6.269,36.146-3.612,54.215c1.347,9.164,3.567,17.94,4.777,27.157s1.321,19.3-1.381,27.607c-5.651,17.36-20.557,19.781-28.363,34.669-6.443,12.287-6.645,31.038-2.989,46.149s10.528,27.371,17.379,39.035c31.956,1.781,64.484,1.9,96.44,3.68C209.588,366.944,223.273,360.47,235.678,359.26Z" transform="translate(-80.961 -100.832)" fill="#a4a4b4" opacity="0.354" style="mix-blend-mode: multiply;isolation: isolate"/>
    <path id="Trazado_165337" data-name="Trazado 165337" d="M359.209,158.666c-.079,8.44,7.944,15.785,6.548,24.109-.746,4.454-4.14,8.968-2.168,13.031,1.745,3.594,6.742,4.218,10.563,3.049,8.944-2.736,14.381-11.879,16.981-20.864,2.445-8.451,3.052-17.891-.864-25.77-3.156-6.348-10.437-11.951-17.831-11.433C365.666,141.263,359.269,152.309,359.209,158.666Z" transform="translate(-214.054 -89.533)" fill="#a4a4b4" opacity="0.31" style="mix-blend-mode: multiply;isolation: isolate"/>
    <path id="Trazado_165338" data-name="Trazado 165338" d="M110.921,127.49a31.959,31.959,0,0,0-.638,31.1,18.433,18.433,0,0,0,6.848,7.489,10.2,10.2,0,0,0,9.829.349c4.516-2.576,5.515-8.652,5.155-13.839s-1.535-10.624.463-15.424c1.3-3.129,3.8-5.568,6.02-8.131s4.288-5.553,4.4-8.94c.3-8.78-9.025-8.124-14.643-6.3A31.928,31.928,0,0,0,110.921,127.49Z" transform="translate(-89.098 -107.857)" fill="#a4a4b4" opacity="0.31" style="mix-blend-mode: multiply;isolation: isolate"/>
    <g id="Grupo_128378" data-name="Grupo 128378" transform="translate(2.235 0)" style="mix-blend-mode: multiply;isolation: isolate">
      <path id="Trazado_151849" data-name="Trazado 151849" d="M239.25,361.847l-.7-1.039c1.914-3.424,4.968-11.271,3.934-25.382a171.941,171.941,0,0,0-2.7-18.486c-.492-2.681-1-5.453-1.447-8.205-4.745-29.369-2.669-61.767,5.695-88.886.743-2.407,1.547-4.822,2.325-7.156,2.305-6.922,4.689-14.081,5.714-21.814,1.8-13.57-1.756-23.74-5.818-27.448-3.9-3.558-9.4-3.015-15.093,1.493a74.394,74.394,0,0,0-6.065,5.614,55.222,55.222,0,0,1-8.136,7.128c-11.3,7.423-25.433,1.114-32.868-14.671-3.574-7.586-5.591-16.754-7.542-25.621-.756-3.436-1.538-6.989-2.4-10.389-2.674-10.57-7.568-23.837-15.7-27.01-7.144-2.79-14.379,3.342-19.19,8.976-9.2,10.781-15.692,25.381-18.27,41.11-1.738,10.607-1.808,22.152-1.875,33.317-.1,16.627-.2,33.82-5.941,47.666-2.609,6.3-6.2,11.325-9.669,16.185-3.251,4.552-6.612,9.259-9.117,14.964-5.677,12.927-7.069,31.23-3.818,50.214,2.921,17.057,8.876,32.192,14.635,46.829l-.791.833c-5.8-14.732-11.79-29.966-14.75-47.247-3.329-19.438-1.885-38.22,3.96-51.53,2.572-5.857,5.977-10.624,9.269-15.236,3.424-4.794,6.964-9.752,9.5-15.879,5.577-13.462,5.675-29.664,5.779-46.817.068-11.261.139-22.905,1.908-33.7,2.633-16.073,9.25-30.975,18.631-41.964,4.97-5.821,12.466-12.146,19.957-9.221,8.517,3.325,13.592,17.018,16.35,27.92.869,3.433,1.654,7,2.414,10.456,1.927,8.754,3.918,17.807,7.4,25.2,7.188,15.26,20.847,21.357,31.773,14.182a54.635,54.635,0,0,0,8-7.014,74.984,74.984,0,0,1,6.144-5.686c5.974-4.728,11.791-5.259,15.962-1.452,4.356,3.976,8.179,14.785,6.28,29.12-1.054,7.95-3.47,15.207-5.808,22.226-.774,2.324-1.575,4.728-2.31,7.113-8.262,26.787-10.312,58.787-5.625,87.8.44,2.728.948,5.487,1.438,8.155a173.976,173.976,0,0,1,2.738,18.746C244.5,349.963,241.271,358.231,239.25,361.847Z" transform="translate(-87.906 -97.739)" fill="#a4a4b4"/>
    </g>
    <g id="Grupo_128828" data-name="Grupo 128828" transform="translate(21.708 19.625)">
      <g id="Grupo_121029" data-name="Grupo 121029" transform="translate(7.749 0)">
        <g id="Grupo_121028" data-name="Grupo 121028" transform="translate(0)">
          <path id="Trazado_158642" data-name="Trazado 158642" d="M1282.8,2070.448l-43.848-41.606,1.163-1.221,43.848,41.6Z" transform="translate(-1127.567 -1923.805)" fill="#b8d0da"/>
          <g id="Grupo_121027" data-name="Grupo 121027">
            <path id="Trazado_158643" data-name="Trazado 158643" d="M1051.589,2051.981s-.35,15.548-1.02,23.213-6.689,61.294-6.689,61.294-.788,16.177-4.2,20.435-13.241,1.7-16.066.849-2.821-105.791-2.821-105.791Z" transform="translate(-985.028 -1940.015)" fill="url(#linear-gradient)"/>
            <path id="Trazado_158644" data-name="Trazado 158644" d="M1023.618,2157.772a37.1,37.1,0,0,0,7.8,1.488c-1.191-5.771-3.982-22.237-3.438-26.6.642-5.11,9.581-60.871,11.709-63.851,1.389-1.943,7.557-6.1,11.668-8.749.157-4.534.236-8.076.236-8.076H1020.8S1020.8,2156.923,1023.618,2157.772Z" transform="translate(-985.028 -1940.015)" fill="url(#linear-gradient-2)"/>
            <path id="Trazado_158645" data-name="Trazado 158645" d="M983.3,2050.679s-3.627,20.009-6.1,31.075-14.609,74.065-18.974,76.192-18.965,2.743-18.41-2.291c1.572-14.308,6.509-74.809,6.509-79.492s.033-19.951,5.986-27.961C956,2043.223,983.3,2050.679,983.3,2050.679Z" transform="translate(-933.335 -1936.36)" fill="url(#linear-gradient)"/>
            <path id="Trazado_158646" data-name="Trazado 158646" d="M944.785,2147.009s.653-11.491-1.17-13.408-17.465-2.552-20.66,0-2.368,13.408-2.368,13.408h2.368s-.687-13.408,5.564-12.448,12.628.354,13.343.957c1.221,1.032-.036,11.491-.036,11.491Z" transform="translate(-920.491 -1993.207)" fill="#00111c"/>
            <path id="Trazado_158647" data-name="Trazado 158647" d="M1100.856,1964.774s13.976,9.084,15.06,11.191-.724,9.732-8.432,8.577-28.772-10.782-27.952-13.085S1092.484,1959.031,1100.856,1964.774Z" transform="translate(-1021.472 -1880.828)" fill="url(#linear-gradient-2)"/>
            <path id="Trazado_158648" data-name="Trazado 158648" d="M1113.432,1858.637s5.106,2.112,6.7,4.311-.576,31-4.759,38.01S1113.432,1858.637,1113.432,1858.637Z" transform="translate(-1045.255 -1811.36)" fill="url(#linear-gradient-2)"/>
            <g id="Grupo_121025" data-name="Grupo 121025" transform="translate(14.462 43.144)">
              <g id="Grupo_121024" data-name="Grupo 121024">
                <g id="Grupo_121023" data-name="Grupo 121023">
                  <path id="Trazado_158649" data-name="Trazado 158649" d="M1022.959,2036.4s-.005,6.268-1.5,6.718c0,0-25.593,6.288-45.383-3.052l-.558-5.8Z" transform="translate(-971.567 -1971.371)" fill="#1d272d"/>
                  <path id="Trazado_158650" data-name="Trazado 158650" d="M985.352,1846.285s-18.58,4.164-21.114,7.14,4.894,27.43,5.587,30.2-2.719,23.937-2.032,26.932,32.112,8.138,47.313.761c0,0,.852-32.54.852-33.229s4.148-28.2-2.944-28.514c-1.848-.083-9.721-3.29-9.721-3.29Z" transform="translate(-963.714 -1846.285)" fill="url(#linear-gradient)"/>
                  <path id="Trazado_158651" data-name="Trazado 158651" d="M975.724,1915.9c.693,2.993,32.112,8.138,47.313.76,0,0,.852-32.539.852-33.229s4.148-28.2-2.944-28.514a11.851,11.851,0,0,1-2.462-.6l-4.261,3.558H993.669s-13.983,4.594-15.188,8.1c-.661,1.934-.766,11.359-1.2,21.24.23.825.4,1.434.479,1.752C978.447,1891.732,975.037,1912.906,975.724,1915.9Z" transform="translate(-971.644 -1851.629)" fill="url(#linear-gradient)"/>
                  <path id="Trazado_158652" data-name="Trazado 158652" d="M1109.781,1855.031s2.389,36.208,2.812,51.012c0,0,3.993-34.544.909-46.8C1112.463,1855.124,1112.2,1855.031,1109.781,1855.031Z" transform="translate(-1060.91 -1852.105)" fill="#1d272d"/>
                  <path id="Trazado_158653" data-name="Trazado 158653" d="M974.655,1857.468s17.473,27.995-1.431,53.038c0,0-2.593,2.908,0,4.083,0,0,14.669-11.351,12.752-33.609,0,0-2.179-16.893-8.542-24.469C977.434,1856.511,975.252,1855.371,974.655,1857.468Z" transform="translate(-969.275 -1852.884)" fill="#1d272d"/>
                  <path id="Trazado_158654" data-name="Trazado 158654" d="M1034.927,1913.89h-9.521v-6.35h9.521Z" transform="translate(-1004.765 -1887.045)" fill="#008f85"/>
                  <rect id="Rectángulo_34390" data-name="Rectángulo 34390" width="7.805" height="0.988" transform="translate(22.025 23.176)" fill="#1d272b"/>
                  <path id="Trazado_158655" data-name="Trazado 158655" d="M1039.97,1898.824l-.631,4.1H1037.6l-.127-4.1Z" transform="translate(-1012.792 -1881.246)" fill="#1d272b"/>
                </g>
              </g>
            </g>
            <path id="Trazado_158656" data-name="Trazado 158656" d="M1030.9,1721.99c-1.344-1.087-6.241-3.991-13.96-4.629-5.318-.442-10.746,4.689-14.558,9.261-2.861,3.424-1.383,13.8-.6,18.413,0,0-1.4,13.661-.161,17.5,0,0,22.342,4.617,24.955,4.155a11.9,11.9,0,0,0,7.379-5.373c1.219-2.458,1.116-14.667,1.116-14.667S1034.12,1724.607,1030.9,1721.99Z" transform="translate(-972.005 -1717.334)" fill="url(#linear-gradient)"/>
            <path id="Trazado_158657" data-name="Trazado 158657" d="M1037.161,1745.679s.443-8.786-1.38-10.858-13.671-2.237-16.528-1.12-3.811,13.049-3.65,16.342c0,0-5.749-3.139-6.546-2s6.707,2.33,6.226,3.65-5.268.86-5.587,2.527,5.907-.766,6.223.529,1.12.535-.315,1.958-7.5,2.376-5.588,3.334,7.376-2.183,7.2-.851-9.274,4.2-7.519,5.078,7.843-2.323,7.672-.88-9.12,4.227-6.561,4.509,4.977-1.241,6.561,0c1.158.9.558,4.581.139,7.112,6.222,1.167,13.2,2.361,14.591,2.113a12.346,12.346,0,0,0,6.514-4.068c.142-3.883.567-14.078-.869-20.739Z" transform="translate(-977.462 -1727.768)" fill="#f5f5f5"/>
            <path id="Trazado_158658" data-name="Trazado 158658" d="M1053.534,1757.425a13.773,13.773,0,0,1,.127,6.1,7.536,7.536,0,0,0,.125,3.687c.591,1.741,1.2,9.614-1.021,13.266-1.57,2.571-10.7,4.815-15.128,0-3.675-4-4.169-12.6-4.07-15.468s.889-10.6,8.216-9.921C1048.592,1755.731,1053.182,1754.595,1053.534,1757.425Z" transform="translate(-993.536 -1742.43)" fill="#fca977"/>
            <path id="Trazado_158659" data-name="Trazado 158659" d="M1054.35,1766.85s1.484.238.407,1.008-3.87.266-5.48.578a2.819,2.819,0,0,1,1.332-1.1A11.621,11.621,0,0,1,1054.35,1766.85Z" transform="translate(-1004.07 -1750.282)" fill="#1a1715"/>
            <path id="Trazado_158660" data-name="Trazado 158660" d="M1084.172,1769.219s-1,.244-.273,1.01,2.179.192,3.267.5a.522.522,0,0,0,.016-.957C1086.456,1769.231,1084.172,1769.219,1084.172,1769.219Z" transform="translate(-1026.421 -1751.86)" fill="#1a1715"/>
            <path id="Trazado_158661" data-name="Trazado 158661" d="M1059.055,1781.311c0,.718.329,1.306.742,1.306s.742-.589.742-1.306-.333-1.307-.742-1.307S1059.055,1780.586,1059.055,1781.311Z" transform="translate(-1010.513 -1759.036)" fill="#1a1715"/>
            <path id="Trazado_158662" data-name="Trazado 158662" d="M1085.914,1781.311c0,.718.234,1.306.524,1.306s.526-.589.526-1.306-.235-1.307-.526-1.307S1085.914,1780.586,1085.914,1781.311Z" transform="translate(-1027.974 -1759.036)" fill="#1a1715"/>
            <path id="Trazado_158663" data-name="Trazado 158663" d="M1044.383,1779.22s-.241,4.262.816,5.19,9.76-1.185,10.374-1.582c0,0,5.654,1.61,5.7,1.285a30.861,30.861,0,0,0,.251-5.812l-14.408-.366Z" transform="translate(-1000.613 -1757.658)" fill="#8e2f2b" opacity="0.5" style="mix-blend-mode: multiply;isolation: isolate"/>
            <g id="Grupo_121026" data-name="Grupo 121026" transform="translate(43.036 20.142)">
              <path id="Trazado_158664" data-name="Trazado 158664" d="M1053.276,1777.539l-.053,0h0Z" transform="translate(-1049.554 -1777.535)" fill="#232c4a"/>
              <path id="Trazado_158665" data-name="Trazado 158665" d="M1060.7,1778.079l-.819-.029c.067.578.49,4.572-.658,5.07a35.1,35.1,0,0,0-5.225-1c-1.385,0-7.744,1.959-9.17,1.516s-1.034-4.659-1.034-4.659l2.1-1.407-3.409,1.407s-1.036,5.6,1.254,6.083,9.313-2.312,10.749-1.915,5,1.613,5.612,1.2S1060.7,1778.079,1060.7,1778.079Z" transform="translate(-1042.257 -1777.559)" fill="#1d272b"/>
            </g>
            <path id="Trazado_158666" data-name="Trazado 158666" d="M1033.59,1779.616a49.656,49.656,0,0,1,6.019-2.358c1.711-.389,14.66-.309,15.325,0,0,0,.44.617-.828.744,0,0-11.663-.74-14.5,0l-5.849,2.194Z" transform="translate(-993.541 -1757.034)" fill="#1d272b"/>
            <path id="Trazado_158667" data-name="Trazado 158667" d="M1061.486,1796.64a4.371,4.371,0,0,0-2.925,0c-2.043.629-6.855,3.558-6.992,4.729s2.785,7.66,6.1,8.565c2.4.655,6.646-.853,8.4-6.84,0,0,.357-2.538-.434-3.908S1061.486,1796.64,1061.486,1796.64Z" transform="translate(-1005.345 -1769.946)" fill="#eeebf5"/>
            <path id="Trazado_158668" data-name="Trazado 158668" d="M1040.5,1800.707s-5.812-3.666-6.48-4.309l.069,1.43,5.807,3.54Z" transform="translate(-994.155 -1769.945)" fill="#eeebf5"/>
            <path id="Trazado_158669" data-name="Trazado 158669" d="M1045.54,1822.01s-4.787-.5-5.888-.846l.391.846,5.8.915Z" transform="translate(-997.818 -1786.425)" fill="#eeebf5"/>
            <path id="Trazado_158670" data-name="Trazado 158670" d="M1030.561,1840.775l2.751,3.935s-3.483,8.069-12.186,9.029-26.263-8.621-26.263-8.621l2.375-5.6s17.482,8.911,24.761,7.142C1030.041,1844.71,1030.561,1840.775,1030.561,1840.775Z" transform="translate(-968.151 -1798.639)" fill="#1d272b"/>
            <path id="Trazado_158672" data-name="Trazado 158672" d="M1025.28,1846.662c-7.28,1.769-24.762-7.142-24.762-7.142l-.725,1.709c4.775,2.422,17.4,8.393,24.362,7.629a15.256,15.256,0,0,0,10.735-6.583l-1.048-1.5S1033.322,1844.71,1025.28,1846.662Z" transform="translate(-971.405 -1798.639)" fill="#008f85"/>
            <path id="Trazado_158673" data-name="Trazado 158673" d="M943.8,1909.694s5.952-29.369,4.48-36.152-6.116-6.714-6.116-6.714c-5.157-1.512-8.877,5.607-9.967,11.131-4.343,22.013-4.343,27.068-4.343,27.068s2.239,35.654,3.994,38.845,7.927,3.4,10.8,0Z" transform="translate(-925.391 -1816.674)" fill="url(#linear-gradient-2)"/>
            <path id="Trazado_158674" data-name="Trazado 158674" d="M1167.551,1995.953s-6.66,4.019-4.815,9.089l8.742,1.87a40.667,40.667,0,0,0,3.67,4.374c.98.762,4.177,2.256,5.306,1.962s4.542-3.708,5.026-5.3a3.637,3.637,0,0,0-.617-3.485,17.911,17.911,0,0,0-3.232-3.065,3.364,3.364,0,0,0-2.892-.19c-.78.282-4.518-.648-5.4-.974A65.8,65.8,0,0,1,1167.551,1995.953Z" transform="translate(-1076.638 -1902.733)" fill="#db8804"/>
            <path id="Trazado_158675" data-name="Trazado 158675" d="M947.8,2132.922c.118-.959,3.079-7.023,2.8-8.623s-.674-4.468,0-5.744,2.517-4.79,1.154-8.3.728-23.944.039-29.37a13.863,13.863,0,0,0-3.061-6.758c-2.386,7.8-2.406,16.984-2.406,20.429,0,4.683-4.936,65.184-6.508,79.492a2.61,2.61,0,0,0,1.684,2.606c2.661-8.764,6.787-28.438,7.83-32.236C950.642,2139.626,947.687,2133.876,947.8,2132.922Z" transform="translate(-933.336 -1954.75)" fill="#fff"/>
            <path id="Trazado_158676" data-name="Trazado 158676" d="M963.707,2162.07s7.816,19.8,13.752,26.5" transform="translate(-949.248 -2013.27)" fill="none" stroke="#5179aa" stroke-linecap="round" stroke-miterlimit="10" stroke-width="1.908"/>
            <path id="Trazado_158677" data-name="Trazado 158677" d="M973.542,2223.909s-6.958-6.031-9.835-11.608" transform="translate(-949.248 -2046.694)" fill="none" stroke="#5179aa" stroke-linecap="round" stroke-miterlimit="10" stroke-width="1.908"/>
            <path id="Trazado_158678" data-name="Trazado 158678" d="M1053.862,2212.3s-12.037,12.566-16.393,14.8" transform="translate(-996.176 -2046.694)" fill="none" stroke="#1d272d" stroke-linecap="round" stroke-miterlimit="10" stroke-width="1.908"/>
            <path id="Trazado_158679" data-name="Trazado 158679" d="M1048.588,2234.422s-12.552,9.633-19.045,10.909" transform="translate(-990.986 -2061.415)" fill="none" stroke="#1d272d" stroke-linecap="round" stroke-miterlimit="10" stroke-width="1.908"/>
            <path id="Trazado_158680" data-name="Trazado 158680" d="M950.9,2381.667s14.041,6.114,14.842,6.355.874,1.6.636,2.234-28.86-.458-30.617-.539-3.909.08-4.625-.556-.953-5.611.555-9.926l1.966-19.821s-.991-2.416.578-3.2c0,0,11.867,2.092,21.176,1.346a26.364,26.364,0,0,1-1.729,5.531C951.5,2367.236,950.9,2381.667,950.9,2381.667Z" transform="translate(-927.201 -2142.455)" fill="#db8804"/>
            <path id="Trazado_158681" data-name="Trazado 158681" d="M1033.451,2361.95s14.046,6.117,14.844,6.354.873,1.6.635,2.234-28.856-.456-30.613-.538-3.911.082-4.629-.556-.952-5.61.555-9.925l1.969-19.82s-.991-2.42.575-3.2c0,0,11.864,2.09,21.174,1.341a26.177,26.177,0,0,1-1.729,5.536C1034.049,2347.523,1033.451,2361.95,1033.451,2361.95Z" transform="translate(-979.939 -2129.337)" fill="#db8804"/>
            <path id="Trazado_158682" data-name="Trazado 158682" d="M939.793,2380.559" transform="translate(-933.335 -2158.657)" fill="#00111c"/>
          </g>
          <path id="Trazado_158683" data-name="Trazado 158683" d="M1225.262,2012.639l-14.22-13.491a1.464,1.464,0,1,0-2.016,2.124l14.222,13.5Z" transform="translate(-1108.752 -1904.59)" fill="#1d272d"/>
          <path id="Trazado_158684" data-name="Trazado 158684" d="M1333.25,2118.705l12.739,12.087,1.588-1.677-12.735-12.084Z" transform="translate(-1190.316 -1983.301)" fill="#db8804"/>
        </g>
        <line id="Línea_1699" data-name="Línea 1699" x1="6.098" y1="19.442" transform="translate(8.028 73.578)" fill="none" stroke="#1d272d" stroke-linecap="round" stroke-miterlimit="10" stroke-width="1.908"/>
      </g>
      <path id="Trazado_158685" data-name="Trazado 158685" d="M948.144,2091.962s-4.675-.957-8.485.479c0,0,.456,6.387,0,7.983s-2.529,6.381-1.573,7.819a2.329,2.329,0,0,0,2.392,1.278s2.07,2.309,3.832,1.557c0,0,3.035,1.06,3.833.149a2.259,2.259,0,0,0,2.389-.59c1.124-1.116,1.281-7.74.8-9.017s-1.277-2.953-1.866-4.23A38.213,38.213,0,0,1,948.144,2091.962Z" transform="translate(-924.285 -1966.411)" fill="#db8804"/>
      <path id="Trazado_158686" data-name="Trazado 158686" d="M940.271,2199.575V2173.4a6.385,6.385,0,0,0-6.382-6.385H903.712a6.382,6.382,0,0,0-6.38,6.385v26.177Z" transform="translate(-897.332 -2016.559)" fill="#008f85"/>
      <path id="Trazado_158687" data-name="Trazado 158687" d="M987.027,2173.078v26.5h12.929V2173.4a6.385,6.385,0,0,0-6.382-6.385S987.027,2167.012,987.027,2173.078Z" transform="translate(-956.032 -2016.559)" fill="#62a8a4"/>
      <rect id="Rectángulo_34391" data-name="Rectángulo 34391" width="30.01" height="3.673" transform="translate(0 179.343)" fill="#00111c"/>
      <rect id="Rectángulo_34392" data-name="Rectángulo 34392" width="12.928" height="3.673" transform="translate(30.995 179.343)" fill="#152a36"/>
      <path id="Trazado_158688" data-name="Trazado 158688" d="M996.566,2223.694c0,2.586,1.358,4.68,3.034,4.68s3.033-2.094,3.033-4.68-1.36-4.682-3.033-4.682S996.566,2221.108,996.566,2223.694Z" transform="translate(-962.323 -2051.161)" fill="#a2c2e7" stroke="#00111c" stroke-linejoin="round" stroke-width="2.712"/>
      <path id="Trazado_158689" data-name="Trazado 158689" d="M1005.633,2104.323s9.109,2.764,16.333,14.261c4.123,6.56,12.344,29.162,23.092,21.284s11.741-22.771,11.388-38.523c-.428-19.1,7.985-55.833,15.537-61.724" transform="translate(-967.531 -1931.79)" fill="none" stroke="#1d272d" stroke-linecap="round" stroke-linejoin="round" stroke-width="5.725"/>
    </g>
    <g id="Grupo_128829" data-name="Grupo 128829" transform="translate(79.517 167.457)">
      <g id="Grupo_91915" data-name="Grupo 91915" transform="translate(0)">
        <path id="Trazado_150989" data-name="Trazado 150989" d="M587.146,618.876a10.572,10.572,0,0,1-5.754-1.488A111.24,111.24,0,0,1,561.4,602.236c-8.859-8.636-13.948-17.414-15.062-26.033l-.017-.135-.216-36.78c0-7.269,4.741-13.169,13.642-17.047,7.354-3.2,17.1-4.79,27.4-4.492,10.178.295,19.6,2.394,26.566,5.894,8.286,4.16,12.634,10.005,12.634,16.935l-.2,35.144-.016.129c-1.018,8.254-5.7,16.786-13.977,25.414a115.425,115.425,0,0,1-19.293,15.8A10.951,10.951,0,0,1,587.146,618.876Z" transform="translate(-546.104 -517.713)" fill="#364246"/>
        <path id="Trazado_150990" data-name="Trazado 150990" d="M616.389,618.876a10.326,10.326,0,0,1-5.678-1.488,109.913,109.913,0,0,1-19.728-15.152c-8.741-8.636-13.764-17.414-14.863-26.033l-.017-.135-.213-36.78c0-7.269,4.678-13.169,13.462-17.047,7.257-3.2,16.876-4.79,27.037-4.492,10.043.295,19.337,2.394,26.215,5.894,8.177,4.16,12.467,10.005,12.467,16.935l-.194,35.144-.016.129c-1,8.254-5.625,16.786-13.793,25.414a114.21,114.21,0,0,1-19.038,15.8A10.707,10.707,0,0,1,616.389,618.876Z" transform="translate(-573.328 -517.713)" fill="#1d272b"/>
        <path id="Trazado_150991" data-name="Trazado 150991" d="M604.122,563.319l.215,36.594c2.409,18.671,24.352,33.788,33.909,39.532a8.437,8.437,0,0,0,8.956-.241c9.357-6.157,30.1-21.659,32.315-39.611l.2-35.047C679.714,538.545,604.122,536.168,604.122,563.319Z" transform="translate(-599.132 -541.719)" fill="url(#linear-gradient-10)"/>
        <path id="Trazado_150992" data-name="Trazado 150992" d="M719.727,706.409a1.306,1.306,0,0,1-.708-.187,103.864,103.864,0,0,1-18.2-13.892c-7.168-7.041-11.3-13.887-12.25-20.316l-.21-35.988c.009-3.453,2.742-6.408,8.1-8.773,5.981-2.64,14.476-4.025,23.267-3.816,8.7.207,16.95,1.959,22.663,4.794,5.054,2.508,7.608,5.464,7.617,8.8l-.2,34.743c-.885,6.221-4.765,12.929-11.577,19.979a107.925,107.925,0,0,1-17.8,14.44A1.354,1.354,0,0,1,719.727,706.409Z" transform="translate(-676.124 -614.322)" fill="#1d272b"/>
        <path id="Trazado_150993" data-name="Trazado 150993" d="M734.811,728.089a100.94,100.94,0,0,1-17.206-13.241c-6.736-6.629-10.634-12.991-11.551-18.877l-.209-35.779c.006-2.469,2.276-4.734,6.728-6.705,5.666-2.509,13.785-3.831,22.237-3.641,8.372.188,16.262,1.841,21.685,4.524,4.213,2.084,6.345,4.359,6.351,6.766l-.2,34.615c-.86,5.711-4.537,11.957-10.967,18.6A104.815,104.815,0,0,1,734.811,728.089Z" transform="translate(-692.106 -638.462)" fill="url(#linear-gradient-11)"/>
      </g>
      <path id="Trazado_150994" data-name="Trazado 150994" d="M872.606,891.2a3.605,3.605,0,0,1-3.052-1.591l-9.878-15.362a3.349,3.349,0,0,1,1.045-4.359,3,3,0,0,1,4.355.408l7.267,10.664,10.844-20.412a5.611,5.611,0,0,1,5.818-2.75,2.988,2.988,0,0,1,1.986,4.661l-15.072,26.871a3.785,3.785,0,0,1-3.185,1.869Z" transform="translate(-832.311 -828.447)" fill="#008f85"/>
    </g>
  </g>
</svg>
