<svg xmlns="http://www.w3.org/2000/svg" xmlns:xlink="http://www.w3.org/1999/xlink" width="304.619" height="261.814" viewBox="0 0 304.619 261.814">
  <defs>
    <clipPath id="clip-path">
      <rect id="Rectángulo_35656" data-name="Rectángulo 35656" width="241.779" height="223.181" transform="translate(0 0)" fill="#fff" stroke="#707070" stroke-width="1"/>
    </clipPath>
    <linearGradient id="linear-gradient" x1="0.5" x2="0.5" y2="1" gradientUnits="objectBoundingBox">
      <stop offset="0" stop-color="#f5f5f5"/>
      <stop offset="0.25" stop-color="#f5f5f5"/>
      <stop offset="1" stop-color="#a7b3cf"/>
    </linearGradient>
    <clipPath id="clip-path-2">
      <rect id="Rectángulo_35608" data-name="Rectángulo 35608" width="5.798" height="2.234" fill="none"/>
    </clipPath>
  </defs>
  <g id="img26" transform="translate(-1068.875 -12524.937)">
    <g id="Grupo_128802" data-name="Grupo 128802" transform="translate(1068.875 12524.937)">
      <path id="Trazado_151846" data-name="Trazado 151846" d="M339.532,347.03a63.828,63.828,0,0,0,8.511-55.581c-3.774-11.694-11.016-22.557-11.943-34.751-1.852-24.38,21.494-44.09,26.337-68.1,2.129-10.553-.194-22.847-9.319-29.257-9.013-6.331-21.876-5.039-32.079-.6s-18.837,11.532-28.634,16.721-21.859,8.4-32.2,4.267c-10.479-4.183-16.423-14.728-19.753-25S235.486,133.5,229.8,124.185c-9.365-15.345-29.333-23.711-47.941-21.546s-35.233,14.025-44.151,29.605-10.476,34.426-6.037,51.635c2.252,8.728,5.961,17.086,7.984,25.865s2.208,18.386-2.308,26.293c-9.443,16.534-34.356,18.839-47.4,33.019-10.768,11.7-11.105,29.561-4.995,43.953S102.548,339.076,114,350.185c53.406,1.7,107.769,1.808,161.175,3.5C295.929,354.349,318.8,348.183,339.532,347.03Z" transform="translate(-80.961 -97.443)" fill="#a4a4b4" opacity="0.354" style="mix-blend-mode: multiply;isolation: isolate"/>
      <path id="Trazado_151847" data-name="Trazado 151847" d="M359.21,180.38c-.175,18.671,17.574,34.921,14.485,53.335-1.652,9.852-9.159,19.84-4.8,28.827,3.86,7.952,14.916,9.331,23.369,6.746,19.787-6.053,31.814-26.279,37.566-46.157,5.41-18.7,6.753-39.58-1.911-57.01-6.982-14.042-23.09-26.44-39.447-25.293C373.493,141.879,359.341,166.316,359.21,180.38Z" transform="translate(-129.539 -96.691)" fill="#a4a4b4" opacity="0.31" style="mix-blend-mode: multiply;isolation: isolate"/>
      <path id="Trazado_151848" data-name="Trazado 151848" d="M116.9,147.8c-13.217,22.052-13.813,51.116-1.511,73.691,3.888,7.133,9.138,13.78,16.227,17.747s16.235,4.851,23.291.826c10.7-6.1,13.068-20.5,12.216-32.793s-3.636-25.176,1.1-36.55c3.086-7.414,9.01-13.195,14.266-19.266s10.161-13.159,10.433-21.185c.7-20.806-21.385-19.251-34.7-14.93A75.656,75.656,0,0,0,116.9,147.8Z" transform="translate(-79.303 -96.771)" fill="#a4a4b4" opacity="0.31" style="mix-blend-mode: multiply;isolation: isolate"/>
      <g id="Grupo_107069" data-name="Grupo 107069" transform="translate(7.395 0)" style="mix-blend-mode: multiply;isolation: isolate">
        <path id="Trazado_151849" data-name="Trazado 151849" d="M335.935,349.526l-1.14-.991c3.136-3.264,8.142-10.746,6.447-24.2-.754-5.988-2.624-11.9-4.432-17.624-.807-2.556-1.642-5.2-2.372-7.822a116.259,116.259,0,0,1,9.333-84.739c1.217-2.294,2.535-4.6,3.81-6.822,3.778-6.6,7.684-13.424,9.364-20.8,2.946-12.937-2.878-22.633-9.535-26.167-6.387-3.392-15.4-2.874-24.735,1.423-3.414,1.571-6.732,3.493-9.94,5.352a93.552,93.552,0,0,1-13.333,6.8c-18.522,7.076-41.68,1.062-53.866-13.987-5.856-7.232-9.163-15.973-12.361-24.426-1.239-3.275-2.52-6.663-3.929-9.9-4.382-10.077-12.4-22.725-25.728-25.75-11.708-2.66-23.566,3.186-31.45,8.557-15.085,10.278-25.718,24.2-29.942,39.192-2.848,10.112-2.962,21.119-3.074,31.763-.165,15.851-.336,32.242-9.736,45.442-4.276,6.005-10.158,10.8-15.846,15.43-5.327,4.339-10.836,8.827-14.942,14.266-9.3,12.324-11.585,29.773-6.257,47.872,4.788,16.262,14.547,30.69,23.985,44.645l-1.3.795c-9.5-14.045-19.323-28.568-24.173-45.043-5.455-18.531-3.09-36.437,6.49-49.126,4.215-5.583,9.8-10.129,15.191-14.525,5.611-4.571,11.413-9.3,15.572-15.138,9.139-12.834,9.3-28.28,9.47-44.632.112-10.736.227-21.837,3.127-32.13,4.316-15.323,15.16-29.53,30.534-40.006,8.145-5.549,20.431-11.579,32.706-8.791,13.958,3.169,22.276,16.224,26.795,26.617,1.424,3.273,2.711,6.677,3.956,9.968,3.157,8.346,6.422,16.976,12.131,24.026,11.779,14.548,34.165,20.361,52.07,13.52a92.511,92.511,0,0,0,13.106-6.686c3.239-1.877,6.589-3.818,10.07-5.421,9.79-4.507,19.324-5.013,26.159-1.384,7.139,3.791,13.4,14.1,10.292,27.762-1.727,7.579-5.687,14.5-9.518,21.189-1.269,2.216-2.581,4.507-3.787,6.781a114.831,114.831,0,0,0-9.218,83.7c.722,2.6,1.553,5.231,2.357,7.775,1.827,5.78,3.716,11.757,4.488,17.872C344.543,338.2,339.248,346.078,335.935,349.526Z" transform="translate(-87.906 -97.739)" fill="#a4a4b4"/>
      </g>
    </g>
    <g id="Enmascarar_grupo_188" data-name="Enmascarar grupo 188" transform="translate(1095.08 12563.569)" clip-path="url(#clip-path)">
      <g id="Grupo_128824" data-name="Grupo 128824" transform="translate(4.525 -52.491)">
        <g id="Grupo_128812" data-name="Grupo 128812" transform="translate(0 109.423)">
          <rect id="Rectángulo_35578" data-name="Rectángulo 35578" width="212.766" height="154.255" transform="translate(4.58 2.216)" fill="#e8f3fc"/>
          <rect id="Rectángulo_35579" data-name="Rectángulo 35579" width="212.766" height="5.91" transform="translate(4.58 134.604)" fill="#050505" opacity="0.16"/>
          <g id="Grupo_128803" data-name="Grupo 128803" transform="translate(146.147 13.298)">
            <rect id="Rectángulo_35580" data-name="Rectángulo 35580" width="62.5" height="33.245" transform="translate(0.443 0.443)" fill="#a7c1ce"/>
            <path id="Trazado_165763" data-name="Trazado 165763" d="M286.3,357.3H223.8a.443.443,0,0,1-.443-.443V323.61a.443.443,0,0,1,.443-.443h62.5a.443.443,0,0,1,.443.443v33.245A.443.443,0,0,1,286.3,357.3Zm-62.057-.887h61.614V324.054H224.241Z" transform="translate(-223.354 -323.167)" fill="#7d888c"/>
          </g>
          <g id="Grupo_128804" data-name="Grupo 128804" transform="translate(146.147 52.009)">
            <rect id="Rectángulo_35581" data-name="Rectángulo 35581" width="62.5" height="33.245" transform="translate(0.443 0.444)" fill="#a7c1ce"/>
            <path id="Trazado_165764" data-name="Trazado 165764" d="M286.3,400.964H223.8a.443.443,0,0,1-.443-.443V367.276a.443.443,0,0,1,.443-.443h62.5a.443.443,0,0,1,.443.443v33.245A.443.443,0,0,1,286.3,400.964Zm-62.057-.887h61.614V367.72H224.241Z" transform="translate(-223.354 -366.833)" fill="#7d888c"/>
          </g>
          <g id="Grupo_128805" data-name="Grupo 128805" transform="translate(146.147 91.608)">
            <rect id="Rectángulo_35582" data-name="Rectángulo 35582" width="62.5" height="33.245" transform="translate(0.443 0.443)" fill="#a7c1ce"/>
            <path id="Trazado_165765" data-name="Trazado 165765" d="M286.3,445.631H223.8a.443.443,0,0,1-.443-.443V411.943a.443.443,0,0,1,.443-.443h62.5a.443.443,0,0,1,.443.443v33.245A.443.443,0,0,1,286.3,445.631Zm-62.057-.886h61.614V412.387H224.241Z" transform="translate(-223.354 -411.5)" fill="#7d888c"/>
          </g>
          <g id="Grupo_128806" data-name="Grupo 128806" transform="translate(79.344 13.298)">
            <rect id="Rectángulo_35583" data-name="Rectángulo 35583" width="62.5" height="33.245" transform="translate(0.443 0.443)" fill="#a7c1ce"/>
            <path id="Trazado_165766" data-name="Trazado 165766" d="M210.943,357.3h-62.5a.443.443,0,0,1-.443-.443V323.61a.443.443,0,0,1,.443-.443h62.5a.443.443,0,0,1,.443.443v33.245A.443.443,0,0,1,210.943,357.3Zm-62.057-.887H210.5V324.054H148.887Z" transform="translate(-148 -323.167)" fill="#7d888c"/>
          </g>
          <g id="Grupo_128807" data-name="Grupo 128807" transform="translate(79.344 52.009)">
            <rect id="Rectángulo_35584" data-name="Rectángulo 35584" width="62.5" height="33.245" transform="translate(0.443 0.444)" fill="#a7c1ce"/>
            <path id="Trazado_165767" data-name="Trazado 165767" d="M210.943,400.964h-62.5a.443.443,0,0,1-.443-.443V367.276a.443.443,0,0,1,.443-.443h62.5a.443.443,0,0,1,.443.443v33.245A.443.443,0,0,1,210.943,400.964Zm-62.057-.887H210.5V367.72H148.887Z" transform="translate(-148 -366.833)" fill="#7d888c"/>
          </g>
          <rect id="Rectángulo_35585" data-name="Rectángulo 35585" width="62.5" height="33.245" transform="translate(79.787 92.051)" fill="#475054"/>
          <g id="Grupo_128808" data-name="Grupo 128808" transform="translate(11.378 13.298)">
            <rect id="Rectángulo_35586" data-name="Rectángulo 35586" width="62.5" height="33.245" transform="translate(0.443 0.443)" fill="#a7c1ce"/>
            <path id="Trazado_165768" data-name="Trazado 165768" d="M134.277,357.3h-62.5a.443.443,0,0,1-.443-.443V323.61a.442.442,0,0,1,.443-.443h62.5a.443.443,0,0,1,.443.443v33.245A.443.443,0,0,1,134.277,357.3Zm-62.057-.887h61.614V324.054H72.221Z" transform="translate(-71.334 -323.167)" fill="#7d888c"/>
          </g>
          <g id="Grupo_128809" data-name="Grupo 128809" transform="translate(11.378 52.009)">
            <rect id="Rectángulo_35587" data-name="Rectángulo 35587" width="62.5" height="33.245" transform="translate(0.443 0.444)" fill="#a7c1ce"/>
            <path id="Trazado_165769" data-name="Trazado 165769" d="M134.277,400.964h-62.5a.443.443,0,0,1-.443-.443V367.276a.443.443,0,0,1,.443-.443h62.5a.443.443,0,0,1,.443.443v33.245A.443.443,0,0,1,134.277,400.964Zm-62.057-.887h61.614V367.72H72.221Z" transform="translate(-71.334 -366.833)" fill="#7d888c"/>
          </g>
          <g id="Grupo_128810" data-name="Grupo 128810" transform="translate(11.378 91.608)">
            <rect id="Rectángulo_35588" data-name="Rectángulo 35588" width="62.5" height="33.245" transform="translate(0.443 0.443)" fill="#a7c1ce"/>
            <path id="Trazado_165770" data-name="Trazado 165770" d="M134.277,445.631h-62.5a.443.443,0,0,1-.443-.443V411.943a.443.443,0,0,1,.443-.443h62.5a.443.443,0,0,1,.443.443v33.245A.443.443,0,0,1,134.277,445.631Zm-62.057-.886h61.614V412.387H72.221Z" transform="translate(-71.334 -411.5)" fill="#7d888c"/>
          </g>
          <path id="Trazado_165771" data-name="Trazado 165771" d="M268.335,329.667h-21.5a1.111,1.111,0,0,0-1.108,1.108h0a1.112,1.112,0,0,0,1.108,1.108h21.5a1.111,1.111,0,0,0,1.108-1.108h0A1.111,1.111,0,0,0,268.335,329.667Z" transform="translate(-79.746 -310.606)" fill="#e8f3fc"/>
          <path id="Trazado_165772" data-name="Trazado 165772" d="M268.335,373.167h-21.5a1.111,1.111,0,0,0-1.108,1.108h0a1.112,1.112,0,0,0,1.108,1.108h21.5a1.111,1.111,0,0,0,1.108-1.108h0A1.111,1.111,0,0,0,268.335,373.167Z" transform="translate(-79.746 -315.543)" fill="#e8f3fc"/>
          <path id="Trazado_165773" data-name="Trazado 165773" d="M268.335,416.417h-21.5a1.111,1.111,0,0,0-1.108,1.108h0a1.112,1.112,0,0,0,1.108,1.108h21.5a1.111,1.111,0,0,0,1.108-1.108h0A1.111,1.111,0,0,0,268.335,416.417Z" transform="translate(-79.746 -320.45)" fill="#e8f3fc"/>
          <path id="Trazado_165774" data-name="Trazado 165774" d="M114.335,329.667h-21.5a1.111,1.111,0,0,0-1.108,1.108h0a1.112,1.112,0,0,0,1.108,1.108h21.5a1.111,1.111,0,0,0,1.108-1.108h0A1.111,1.111,0,0,0,114.335,329.667Z" transform="translate(-62.271 -310.606)" fill="#e8f3fc"/>
          <path id="Trazado_165775" data-name="Trazado 165775" d="M114.335,373.167h-21.5a1.111,1.111,0,0,0-1.108,1.108h0a1.112,1.112,0,0,0,1.108,1.108h21.5a1.111,1.111,0,0,0,1.108-1.108h0A1.111,1.111,0,0,0,114.335,373.167Z" transform="translate(-62.271 -315.543)" fill="#e8f3fc"/>
          <path id="Trazado_165776" data-name="Trazado 165776" d="M192.335,329.667h-21.5a1.111,1.111,0,0,0-1.108,1.108h0a1.112,1.112,0,0,0,1.108,1.108h21.5a1.111,1.111,0,0,0,1.108-1.108h0A1.111,1.111,0,0,0,192.335,329.667Z" transform="translate(-71.122 -310.606)" fill="#e8f3fc"/>
          <path id="Trazado_165777" data-name="Trazado 165777" d="M192.335,373.167h-21.5a1.111,1.111,0,0,0-1.108,1.108h0a1.112,1.112,0,0,0,1.108,1.108h21.5a1.111,1.111,0,0,0,1.108-1.108h0A1.111,1.111,0,0,0,192.335,373.167Z" transform="translate(-71.122 -315.543)" fill="#e8f3fc"/>
          <path id="Trazado_165778" data-name="Trazado 165778" d="M114.335,416.417h-21.5a1.111,1.111,0,0,0-1.108,1.108h0a1.112,1.112,0,0,0,1.108,1.108h21.5a1.111,1.111,0,0,0,1.108-1.108h0A1.111,1.111,0,0,0,114.335,416.417Z" transform="translate(-62.271 -320.45)" fill="#e8f3fc"/>
          <rect id="Rectángulo_35589" data-name="Rectángulo 35589" width="64.495" height="4.654" transform="translate(78.901 120.863)" fill="#a7c1ce"/>
          <path id="Trazado_165779" data-name="Trazado 165779" d="M150,442.817h59.692a31.013,31.013,0,0,0-12.115-7.092c-7.979-2.66-7.979-5.023-16.254-4.728S160.638,435.725,150,442.817Z" transform="translate(-68.883 -322.102)" fill="#fff"/>
          <path id="Trazado_165780" data-name="Trazado 165780" d="M166.625,443.508a29.15,29.15,0,0,0,9.752-2.992c4.156-2.383,3.435-3.491,9.032-3.269s11.082,6.262,11.082,6.262Z" transform="translate(-70.77 -322.811)" fill="#6d6d6d"/>
          <path id="Trazado_165781" data-name="Trazado 165781" d="M193.286,430.473a.436.436,0,0,0-.466.021,1.055,1.055,0,0,0-.316.374c-.047.082-.085.169-.126.255a2.485,2.485,0,0,0-.177-.229,4.434,4.434,0,0,0,.473-.845.845.845,0,0,0,.035-.749.592.592,0,0,0-.342-.24.574.574,0,0,0-.624.176.867.867,0,0,0-.108.274l-.21.786c-.059-.032-.121-.061-.182-.09a6.022,6.022,0,0,0,.226-.941.961.961,0,0,0-.016-.484.526.526,0,0,0-.977-.022,1.051,1.051,0,0,0-.063.309c-.028.277-.056.553-.084.83-.1-.022-.2-.04-.3-.056a.482.482,0,0,0,.015-.047,5.774,5.774,0,0,0,.059-.866,1.113,1.113,0,0,0-.03-.293.56.56,0,0,0-.266-.346.466.466,0,0,0-.431-.007.566.566,0,0,0-.263.394,1.714,1.714,0,0,0,0,.486q.029.306.057.612c-.121,0-.24.012-.359.027a3.85,3.85,0,0,1-.1-.779,2.629,2.629,0,0,0-.063-.762.976.976,0,0,0-1.641-.367,1.328,1.328,0,0,0-.258,1.176,3.91,3.91,0,0,0,.514,1.135c.053.091.107.183.161.274a2.419,2.419,0,0,0-.4,1.892c.095.661.336,1.293.464,1.949a5.776,5.776,0,0,1-.226,3.015,10.194,10.194,0,0,0-1,2.933,2.524,2.524,0,0,0,1.146,2.208,2.185,2.185,0,0,0,2.444-.115,3.814,3.814,0,0,0,1.037-1.691,36.791,36.791,0,0,0,1.8-6.409,6.405,6.405,0,0,0,.126-1.988,1.45,1.45,0,0,1,.168-.353c.094-.139.212-.262.3-.405a1.227,1.227,0,0,0,.182-.562A.526.526,0,0,0,193.286,430.473Z" transform="translate(-72.997 -321.718)" fill="#e6b89c"/>
          <path id="Trazado_165782" data-name="Trazado 165782" d="M176.735,430.473a.436.436,0,0,1,.466.021,1.055,1.055,0,0,1,.316.374c.047.082.085.169.126.255a2.491,2.491,0,0,1,.177-.229,4.436,4.436,0,0,1-.473-.845.845.845,0,0,1-.035-.749.593.593,0,0,1,.342-.24.574.574,0,0,1,.624.176.868.868,0,0,1,.108.274l.21.786c.059-.032.121-.061.182-.09a6.024,6.024,0,0,1-.226-.941.961.961,0,0,1,.016-.484.526.526,0,0,1,.977-.022,1.078,1.078,0,0,1,.063.309c.028.277.056.553.084.83.1-.022.2-.04.3-.056a.486.486,0,0,1-.015-.047,5.774,5.774,0,0,1-.059-.866,1.113,1.113,0,0,1,.03-.293.56.56,0,0,1,.266-.346.466.466,0,0,1,.431-.007.565.565,0,0,1,.262.394,1.653,1.653,0,0,1,0,.486l-.056.612c.121,0,.24.012.359.027a3.851,3.851,0,0,0,.1-.779,2.628,2.628,0,0,1,.063-.762.975.975,0,0,1,1.64-.367,1.325,1.325,0,0,1,.259,1.176,3.909,3.909,0,0,1-.514,1.135l-.161.274a2.419,2.419,0,0,1,.4,1.892c-.095.661-.337,1.293-.464,1.949a5.776,5.776,0,0,0,.226,3.015,10.22,10.22,0,0,1,1,2.933,2.524,2.524,0,0,1-1.146,2.208,2.185,2.185,0,0,1-2.444-.115,3.806,3.806,0,0,1-1.037-1.691,36.79,36.79,0,0,1-1.8-6.409,6.4,6.4,0,0,1-.126-1.988,1.45,1.45,0,0,0-.168-.353c-.094-.139-.212-.262-.3-.405a1.228,1.228,0,0,1-.183-.562A.528.528,0,0,1,176.735,430.473Z" transform="translate(-71.897 -321.718)" fill="#e6b89c"/>
          <path id="Trazado_165783" data-name="Trazado 165783" d="M188.706,432.7a.082.082,0,0,1-.062-.028,8.9,8.9,0,0,1-1.244-1.855.083.083,0,0,1,.152-.065,8.241,8.241,0,0,0,1.116,1.691,7.662,7.662,0,0,0,.286-2.457.082.082,0,0,1,.074-.09.078.078,0,0,1,.09.074,7.728,7.728,0,0,1-.333,2.67.082.082,0,0,1-.062.058Z" transform="translate(-73.126 -321.979)" fill="#050505"/>
          <path id="Trazado_165784" data-name="Trazado 165784" d="M189.534,433.724l-.827-1.1-.7,1.1v2.66h1.53Z" transform="translate(-73.195 -322.289)" fill="#d93328"/>
          <path id="Trazado_165785" data-name="Trazado 165785" d="M188.346,433.9h0a.062.062,0,0,0-.062.062v2.219a.062.062,0,0,0,.062.062h0a.062.062,0,0,0,.062-.062v-2.219A.063.063,0,0,0,188.346,433.9Z" transform="translate(-73.227 -322.434)" opacity="0.24" fill="url(#linear-gradient)"/>
          <path id="Trazado_165786" data-name="Trazado 165786" d="M188.7,433.9h0a.063.063,0,0,0-.062.062v2.219a.062.062,0,0,0,.062.062h0a.062.062,0,0,0,.062-.062v-2.219A.062.062,0,0,0,188.7,433.9Z" transform="translate(-73.268 -322.434)" opacity="0.24" fill="url(#linear-gradient)"/>
          <path id="Trazado_165787" data-name="Trazado 165787" d="M189.045,433.9h0a.063.063,0,0,0-.062.062v2.219a.062.062,0,0,0,.062.062h0a.062.062,0,0,0,.062-.062v-2.219A.062.062,0,0,0,189.045,433.9Z" transform="translate(-73.307 -322.434)" opacity="0.24" fill="url(#linear-gradient)"/>
          <g id="Grupo_128811" data-name="Grupo 128811" transform="translate(211.246 50.695)">
            <path id="Trazado_165788" data-name="Trazado 165788" d="M296.785,395.675a2.387,2.387,0,0,0,2.966,2.314,2.355,2.355,0,0,0,1.722-1.692,2.379,2.379,0,0,0-1.486-2.851V365.351H298.35v28.094A2.377,2.377,0,0,0,296.785,395.675Z" transform="translate(-296.785 -365.351)" fill="#bacff4"/>
            <path id="Trazado_165789" data-name="Trazado 165789" d="M297.915,399.357a1.376,1.376,0,1,0,1.377-1.377A1.376,1.376,0,0,0,297.915,399.357Z" transform="translate(-296.913 -369.054)" fill="#d93328"/>
            <rect id="Rectángulo_35590" data-name="Rectángulo 35590" width="0.616" height="28.588" rx="0.216" transform="translate(2.687 29.214) rotate(180)" fill="#d93328"/>
            <ellipse id="Elipse_4451" data-name="Elipse 4451" cx="0.945" cy="0.945" rx="0.945" ry="0.945" transform="translate(2.337 29.933)" fill="#fff" opacity="0.47"/>
          </g>
          <rect id="Rectángulo_35591" data-name="Rectángulo 35591" width="222.296" height="3.546" transform="translate(0 133.274)" fill="#fff"/>
          <rect id="Rectángulo_35592" data-name="Rectángulo 35592" width="212.766" height="5.91" transform="translate(4.58 1.33)" fill="#050505" opacity="0.16"/>
          <rect id="Rectángulo_35593" data-name="Rectángulo 35593" width="222.296" height="3.546" fill="#fff"/>
          <path id="Trazado_165790" data-name="Trazado 165790" d="M290.276,465.167h0a.778.778,0,0,0-.776.776v13.371a.778.778,0,0,0,.776.776h0a.778.778,0,0,0,.776-.776V465.943A.778.778,0,0,0,290.276,465.167Z" transform="translate(-84.713 -325.982)" fill="#050505" opacity="0.53"/>
          <path id="Trazado_165791" data-name="Trazado 165791" d="M287.359,465.167h0a.778.778,0,0,0-.776.776v13.371a.778.778,0,0,0,.776.776h0a.778.778,0,0,0,.776-.776V465.943A.777.777,0,0,0,287.359,465.167Z" transform="translate(-84.382 -325.982)" fill="#050505" opacity="0.53"/>
          <path id="Trazado_165792" data-name="Trazado 165792" d="M284.526,465.167h0a.778.778,0,0,0-.776.776v13.371a.778.778,0,0,0,.776.776h0a.778.778,0,0,0,.776-.776V465.943A.778.778,0,0,0,284.526,465.167Z" transform="translate(-84.06 -325.982)" fill="#050505" opacity="0.53"/>
          <path id="Trazado_165793" data-name="Trazado 165793" d="M230.276,465.167h0a.778.778,0,0,0-.776.776v13.371a.778.778,0,0,0,.776.776h0a.778.778,0,0,0,.776-.776V465.943A.778.778,0,0,0,230.276,465.167Z" transform="translate(-77.904 -325.982)" fill="#050505" opacity="0.53"/>
          <path id="Trazado_165794" data-name="Trazado 165794" d="M227.359,465.167h0a.778.778,0,0,0-.776.776v13.371a.778.778,0,0,0,.776.776h0a.778.778,0,0,0,.776-.776V465.943A.777.777,0,0,0,227.359,465.167Z" transform="translate(-77.573 -325.982)" fill="#050505" opacity="0.53"/>
          <path id="Trazado_165795" data-name="Trazado 165795" d="M224.526,465.167h0a.778.778,0,0,0-.776.776v13.371a.778.778,0,0,0,.776.776h0a.778.778,0,0,0,.776-.776V465.943A.778.778,0,0,0,224.526,465.167Z" transform="translate(-77.252 -325.982)" fill="#050505" opacity="0.53"/>
          <path id="Trazado_165796" data-name="Trazado 165796" d="M141.609,465.167h0a.778.778,0,0,0-.776.776v13.371a.778.778,0,0,0,.776.776h0a.778.778,0,0,0,.776-.776V465.943A.777.777,0,0,0,141.609,465.167Z" transform="translate(-67.843 -325.982)" fill="#050505" opacity="0.53"/>
          <path id="Trazado_165797" data-name="Trazado 165797" d="M138.693,465.167h0a.778.778,0,0,0-.776.776v13.371a.778.778,0,0,0,.776.776h0a.778.778,0,0,0,.776-.776V465.943A.778.778,0,0,0,138.693,465.167Z" transform="translate(-67.512 -325.982)" fill="#050505" opacity="0.53"/>
          <path id="Trazado_165798" data-name="Trazado 165798" d="M135.859,465.167h0a.778.778,0,0,0-.776.776v13.371a.778.778,0,0,0,.776.776h0a.778.778,0,0,0,.776-.776V465.943A.777.777,0,0,0,135.859,465.167Z" transform="translate(-67.19 -325.982)" fill="#050505" opacity="0.53"/>
          <rect id="Rectángulo_35594" data-name="Rectángulo 35594" width="1.551" height="14.923" rx="0.776" transform="translate(17.435 139.185)" fill="#050505" opacity="0.53"/>
          <path id="Trazado_165799" data-name="Trazado 165799" d="M76.026,465.167h0a.778.778,0,0,0-.776.776v13.371a.778.778,0,0,0,.776.776h0a.778.778,0,0,0,.776-.776V465.943A.778.778,0,0,0,76.026,465.167Z" transform="translate(-60.401 -325.982)" fill="#050505" opacity="0.53"/>
          <path id="Trazado_165800" data-name="Trazado 165800" d="M73.193,465.167h0a.777.777,0,0,0-.776.776v13.371a.778.778,0,0,0,.776.776h0a.778.778,0,0,0,.776-.776V465.943A.778.778,0,0,0,73.193,465.167Z" transform="translate(-60.079 -325.982)" fill="#050505" opacity="0.53"/>
        </g>
        <g id="Grupo_128820" data-name="Grupo 128820" transform="translate(2.315 202.596)">
          <path id="Trazado_165801" data-name="Trazado 165801" d="M361.021,453.659c-2.83,0-4.264-1.688-4.264-5.017V427.991h.669v20.651c0,2.966,1.143,4.348,3.595,4.348,2.834,0,3.261-.623,3.261-4.765,0-.514-.012-1.086-.025-1.7-.072-3.523-.163-7.907,1.64-9.747a2.783,2.783,0,0,1,2.064-.848h4.682v.668h-4.682a2.11,2.11,0,0,0-1.587.648c-1.605,1.639-1.514,6.047-1.448,9.265.013.613.025,1.192.025,1.709C364.951,452.434,364.435,453.659,361.021,453.659Z" transform="translate(-325.376 -413.638)" fill="#51799e"/>
          <rect id="Rectángulo_35595" data-name="Rectángulo 35595" width="23.187" height="4.682" rx="2.332" transform="translate(0.808)" fill="#008f85"/>
          <rect id="Rectángulo_35596" data-name="Rectángulo 35596" width="117.055" height="4.682" rx="2.332" transform="translate(24.33)" fill="#008f85"/>
          <rect id="Rectángulo_35597" data-name="Rectángulo 35597" width="21" height="24.971" transform="translate(44.284 29.43)" fill="#acc1d1"/>
          <rect id="Rectángulo_35598" data-name="Rectángulo 35598" width="21" height="11.426" transform="translate(44.284 15.607)" fill="#707b82"/>
          <path id="Trazado_165802" data-name="Trazado 165802" d="M404.609,419.22H355.28l14.213,9.7h21.069Z" transform="translate(-325.209 -412.643)" fill="#c7d0d8"/>
          <path id="Trazado_165803" data-name="Trazado 165803" d="M410.813,477.762,346.1,478.1l22.351-5.685h21.069Z" transform="translate(-324.167 -418.678)" fill="#c7d0d8"/>
          <path id="Trazado_165804" data-name="Trazado 165804" d="M361.589,423.567h36.661l6.3-4.348H355.217Z" transform="translate(-325.202 -412.643)" opacity="0.25"/>
          <rect id="Rectángulo_35599" data-name="Rectángulo 35599" width="142.584" height="4.459" transform="translate(0 3.456)" fill="url(#linear-gradient)"/>
          <rect id="Rectángulo_35600" data-name="Rectángulo 35600" width="65.437" height="5.016" transform="translate(21.766 59.195)" fill="#f2f3f4"/>
          <rect id="Rectángulo_35601" data-name="Rectángulo 35601" width="25.528" height="3.121" rx="1.554" transform="translate(42.166 26.699)" fill="#f2f3f4"/>
          <g id="Grupo_128816" data-name="Grupo 128816" transform="translate(46.465 31.99)">
            <rect id="Rectángulo_35602" data-name="Rectángulo 35602" width="8.456" height="16.096" rx="0.667" transform="translate(0 8.456) rotate(-90)" fill="#fff"/>
            <g id="Grupo_128815" data-name="Grupo 128815" transform="translate(1.459 2.87)">
              <rect id="Rectángulo_35603" data-name="Rectángulo 35603" width="6.283" height="2.647" rx="0.263" fill="#7aa2cc"/>
              <rect id="Rectángulo_35604" data-name="Rectángulo 35604" width="5.798" height="2.234" transform="translate(0.209 0.199)" fill="#d93328"/>
              <g id="Grupo_128814" data-name="Grupo 128814" transform="translate(0.199 0.209)">
                <g id="Grupo_128813" data-name="Grupo 128813" clip-path="url(#clip-path-2)">
                  <rect id="Rectángulo_35605" data-name="Rectángulo 35605" width="0.898" height="5.243" transform="translate(5.243 -0.583) rotate(49.414)" fill="#fff" opacity="0.26"/>
                  <rect id="Rectángulo_35606" data-name="Rectángulo 35606" width="0.603" height="5.243" transform="translate(3.62 -0.583) rotate(49.415)" fill="#fff" opacity="0.26"/>
                  <rect id="Rectángulo_35607" data-name="Rectángulo 35607" width="0.529" height="4.601" transform="translate(5.803 0.605) rotate(49.412)" fill="#fff" opacity="0.26"/>
                </g>
              </g>
            </g>
            <rect id="Rectángulo_35609" data-name="Rectángulo 35609" width="6.237" height="6.552" rx="0.531" transform="translate(8.543 0.978)" fill="#7aa2cc"/>
            <rect id="Rectángulo_35610" data-name="Rectángulo 35610" width="1.363" height="0.629" rx="0.156" transform="translate(9.146 1.581)" fill="#b5d6ff"/>
            <rect id="Rectángulo_35611" data-name="Rectángulo 35611" width="1.363" height="0.629" rx="0.156" transform="translate(10.849 1.581)" fill="#b5d6ff"/>
            <rect id="Rectángulo_35612" data-name="Rectángulo 35612" width="1.363" height="0.629" rx="0.156" transform="translate(12.54 1.581)" fill="#b5d6ff"/>
            <rect id="Rectángulo_35613" data-name="Rectángulo 35613" width="1.363" height="0.629" rx="0.156" transform="translate(9.146 2.511)" fill="#b5d6ff"/>
            <rect id="Rectángulo_35614" data-name="Rectángulo 35614" width="1.363" height="0.629" rx="0.156" transform="translate(10.849 2.511)" fill="#b5d6ff"/>
            <rect id="Rectángulo_35615" data-name="Rectángulo 35615" width="1.363" height="0.629" rx="0.156" transform="translate(12.54 2.511)" fill="#b5d6ff"/>
            <rect id="Rectángulo_35616" data-name="Rectángulo 35616" width="1.363" height="0.629" rx="0.156" transform="translate(9.146 3.481)" fill="#b5d6ff"/>
            <rect id="Rectángulo_35617" data-name="Rectángulo 35617" width="1.363" height="0.629" rx="0.156" transform="translate(10.849 3.481)" fill="#b5d6ff"/>
            <rect id="Rectángulo_35618" data-name="Rectángulo 35618" width="1.363" height="0.629" rx="0.156" transform="translate(12.54 3.481)" fill="#b5d6ff"/>
            <rect id="Rectángulo_35619" data-name="Rectángulo 35619" width="1.363" height="0.629" rx="0.156" transform="translate(9.146 4.438)" fill="#b5d6ff"/>
            <rect id="Rectángulo_35620" data-name="Rectángulo 35620" width="1.363" height="0.629" rx="0.156" transform="translate(10.849 4.438)" fill="#b5d6ff"/>
            <rect id="Rectángulo_35621" data-name="Rectángulo 35621" width="1.363" height="0.629" rx="0.156" transform="translate(12.54 4.438)" fill="#b5d6ff"/>
            <rect id="Rectángulo_35622" data-name="Rectángulo 35622" width="3.197" height="1.232" transform="translate(9.932 5.8)" fill="#f2f2f2"/>
            <rect id="Rectángulo_35623" data-name="Rectángulo 35623" width="2.385" height="0.105" rx="0.05" transform="translate(10.286 6.049)" opacity="0.41"/>
            <rect id="Rectángulo_35624" data-name="Rectángulo 35624" width="2.385" height="0.105" rx="0.05" transform="translate(10.286 6.246)" opacity="0.41"/>
            <rect id="Rectángulo_35625" data-name="Rectángulo 35625" width="1.979" height="0.105" rx="0.05" transform="translate(10.286 6.442)" opacity="0.41"/>
            <rect id="Rectángulo_35626" data-name="Rectángulo 35626" width="0.943" height="0.105" rx="0.05" transform="translate(10.286 6.691)" opacity="0.41"/>
          </g>
          <g id="Grupo_128817" data-name="Grupo 128817" transform="translate(45.97 43.99)">
            <rect id="Rectángulo_35627" data-name="Rectángulo 35627" width="8.12" height="5.227" fill="#d7e9f4"/>
            <rect id="Rectángulo_35628" data-name="Rectángulo 35628" width="5.771" height="1.12" rx="0.558" transform="translate(1.089 0.358)" fill="#175a8b"/>
            <rect id="Rectángulo_35629" data-name="Rectángulo 35629" width="4.585" height="0.257" rx="0.128" transform="translate(1.668 0.77)" fill="#fff"/>
            <rect id="Rectángulo_35630" data-name="Rectángulo 35630" width="6.942" height="0.175" rx="0.087" transform="translate(0.537 2.088)" opacity="0.17"/>
            <rect id="Rectángulo_35631" data-name="Rectángulo 35631" width="6.942" height="0.175" rx="0.087" transform="translate(0.537 2.508)" opacity="0.17"/>
            <rect id="Rectángulo_35632" data-name="Rectángulo 35632" width="6.942" height="0.175" rx="0.087" transform="translate(0.537 2.963)" opacity="0.17"/>
            <rect id="Rectángulo_35633" data-name="Rectángulo 35633" width="6.942" height="0.175" rx="0.087" transform="translate(0.537 3.384)" opacity="0.17"/>
            <rect id="Rectángulo_35634" data-name="Rectángulo 35634" width="4.616" height="0.175" rx="0.087" transform="translate(1.836 3.85)" opacity="0.17"/>
          </g>
          <g id="Grupo_128819" data-name="Grupo 128819" transform="translate(28.467 8.218)">
            <g id="Grupo_128818" data-name="Grupo 128818">
              <rect id="Rectángulo_35635" data-name="Rectángulo 35635" width="6.237" height="6.552" rx="0.531" transform="translate(0.251 0.251)" fill="#7aa2cc"/>
              <path id="Trazado_165805" data-name="Trazado 165805" d="M359.6,428.124h-5.527a.607.607,0,0,1-.606-.606v-5.84a.606.606,0,0,1,.606-.606H359.6a.607.607,0,0,1,.606.606v5.84A.607.607,0,0,1,359.6,428.124Zm-5.527-6.551a.1.1,0,0,0-.1.1v5.84a.1.1,0,0,0,.1.1H359.6a.1.1,0,0,0,.1-.1v-5.84a.1.1,0,0,0-.1-.1Z" transform="translate(-353.471 -421.071)" fill="#f2f2f2"/>
            </g>
            <rect id="Rectángulo_35636" data-name="Rectángulo 35636" width="1.363" height="0.629" rx="0.156" transform="translate(0.853 0.853)" fill="#b5d6ff"/>
            <rect id="Rectángulo_35637" data-name="Rectángulo 35637" width="1.363" height="0.629" rx="0.156" transform="translate(2.557 0.853)" fill="#b5d6ff"/>
            <rect id="Rectángulo_35638" data-name="Rectángulo 35638" width="1.363" height="0.629" rx="0.156" transform="translate(4.247 0.853)" fill="#b5d6ff"/>
            <rect id="Rectángulo_35639" data-name="Rectángulo 35639" width="1.363" height="0.629" rx="0.156" transform="translate(0.853 1.784)" fill="#b5d6ff"/>
            <rect id="Rectángulo_35640" data-name="Rectángulo 35640" width="1.363" height="0.629" rx="0.156" transform="translate(2.557 1.784)" fill="#b5d6ff"/>
            <rect id="Rectángulo_35641" data-name="Rectángulo 35641" width="1.363" height="0.629" rx="0.156" transform="translate(4.247 1.784)" fill="#b5d6ff"/>
            <rect id="Rectángulo_35642" data-name="Rectángulo 35642" width="1.363" height="0.629" rx="0.156" transform="translate(0.853 2.753)" fill="#b5d6ff"/>
            <rect id="Rectángulo_35643" data-name="Rectángulo 35643" width="1.363" height="0.629" rx="0.156" transform="translate(2.557 2.753)" fill="#b5d6ff"/>
            <rect id="Rectángulo_35644" data-name="Rectángulo 35644" width="1.363" height="0.629" rx="0.156" transform="translate(4.247 2.753)" fill="#b5d6ff"/>
            <rect id="Rectángulo_35645" data-name="Rectángulo 35645" width="1.363" height="0.629" rx="0.156" transform="translate(0.853 3.71)" fill="#b5d6ff"/>
            <rect id="Rectángulo_35646" data-name="Rectángulo 35646" width="1.363" height="0.629" rx="0.156" transform="translate(2.557 3.71)" fill="#b5d6ff"/>
            <rect id="Rectángulo_35647" data-name="Rectángulo 35647" width="1.363" height="0.629" rx="0.156" transform="translate(4.247 3.71)" fill="#b5d6ff"/>
            <rect id="Rectángulo_35648" data-name="Rectángulo 35648" width="3.197" height="1.232" transform="translate(1.64 5.072)" fill="#f2f2f2"/>
            <rect id="Rectángulo_35649" data-name="Rectángulo 35649" width="2.385" height="0.105" rx="0.05" transform="translate(1.993 5.321)" opacity="0.41"/>
            <rect id="Rectángulo_35650" data-name="Rectángulo 35650" width="2.385" height="0.105" rx="0.05" transform="translate(1.993 5.518)" opacity="0.41"/>
            <rect id="Rectángulo_35651" data-name="Rectángulo 35651" width="1.979" height="0.105" rx="0.05" transform="translate(1.993 5.715)" opacity="0.41"/>
            <rect id="Rectángulo_35652" data-name="Rectángulo 35652" width="0.943" height="0.105" rx="0.05" transform="translate(1.993 5.963)" opacity="0.41"/>
          </g>
        </g>
        <path id="Trazado_165806" data-name="Trazado 165806" d="M324.6,409.889s21.629-.71,28.721-.488,30.807,1.33,37.456.665c5.191-.52,66.489-.443,66.489-.443s1.995-14.184.443-14.628-3.989,2.66-5.984,6.427c0,0-21.277-5.319-35.683-5.1s-28.369,1.108-35.9.443S332.23,391.095,324.6,409.889Z" transform="translate(-319.413 -207.293)" fill="#1d272b"/>
        <path id="Trazado_165807" data-name="Trazado 165807" d="M351.953,399.847c-4.905-.035-9.069,4.148-13.974,4.2A36.849,36.849,0,0,1,355,397.561a73.441,73.441,0,0,1,11.026-.138,50.062,50.062,0,0,1,8.185.758,86.071,86.071,0,0,1-11.594,2.062l2.813.845-17.385,4.975a49.35,49.35,0,0,1,10.929-4.981,11.528,11.528,0,0,0-7.568-.291A1.658,1.658,0,0,1,351.953,399.847Z" transform="translate(-320.931 -207.557)" fill="#fff" opacity="0.28"/>
        <path id="Trazado_165808" data-name="Trazado 165808" d="M391.255,404.743a107.212,107.212,0,0,0,14.535-3.255c-5.765,0-11.627-.021-17.149-1.676l23.068-1.074c-.325.288.29.684.725.682l20.358-.111a181.668,181.668,0,0,0-24.048,3.638C402.982,404.219,397.067,405.78,391.255,404.743Z" transform="translate(-326.68 -207.722)" fill="#fff" opacity="0.28"/>
        <path id="Trazado_165809" data-name="Trazado 165809" d="M470.731,399.96c-.2-.334-.729-.157-1,.119-1.04,1.037-1.2,2.926-2.565,3.483a3.517,3.517,0,0,1-1.945.025c-6-1.091-12.1-2.811-18.1-1.751a64.559,64.559,0,0,1,13.938,2.768,32.777,32.777,0,0,0-7.3,1.7l13.089.391a1.091,1.091,0,0,0,1.3-.854Z" transform="translate(-333.315 -207.84)" fill="#fff" opacity="0.28"/>
        <g id="Grupo_128823" data-name="Grupo 128823" transform="translate(25.229 0)">
          <rect id="Rectángulo_35653" data-name="Rectángulo 35653" width="10.491" height="34.722" transform="matrix(1, -0.02, 0.02, 1, 64.768, 85.381)" fill="#868695"/>
          <rect id="Rectángulo_35654" data-name="Rectángulo 35654" width="10.491" height="105.404" transform="translate(0 6.637) rotate(-39.248)" fill="#868695"/>
          <g id="Grupo_128822" data-name="Grupo 128822" transform="translate(39.786 113.336)">
            <g id="Grupo_128821" data-name="Grupo 128821">
              <path id="Trazado_165810" data-name="Trazado 165810" d="M388.724,341.553c15.984-.23,29.088-3.591,30.66-7.684l-.036-14.068c-.173-4.23-14.025-7.453-31.041-7.207s-30.77,3.867-30.82,8.1l.37,14.064C359.545,338.8,372.741,341.784,388.724,341.553Z" transform="translate(-357.486 -312.58)" fill="#d7e9f4"/>
              <path id="Trazado_165811" data-name="Trazado 165811" d="M419.386,333.405l-.016-6.259c-.955-2.887-14.361-6.29-30.669-6.055s-29.883,2.941-31.006,6.945l.165,6.257c1.689,4.044,14.884,7.027,30.868,6.8S417.815,337.5,419.386,333.405Z" transform="translate(-357.51 -313.545)" fill="#515151" opacity="0.15"/>
              <path id="Trazado_165812" data-name="Trazado 165812" d="M419.412,335.114l-.016-6.259c-1.239-3.97-14.632-6.921-30.941-6.686s-29.612,3.572-30.735,7.576l.165,6.257c1.688,4.044,14.884,7.027,30.868,6.8S417.841,339.207,419.412,335.114Z" transform="translate(-357.513 -313.667)" fill="#fff"/>
            </g>
            <path id="Trazado_165813" data-name="Trazado 165813" d="M389.777,330.783c-7.312.343-13.3-.722-13.38-2.378s5.787-3.277,13.1-3.621,13.3.722,13.38,2.379S397.089,330.44,389.777,330.783Z" transform="translate(-359.632 -313.958)" fill="#f7b242"/>
            <path id="Trazado_165814" data-name="Trazado 165814" d="M390.083,338.5c-3.657.171-6.668-.684-6.726-1.911s2.861-2.361,6.518-2.533,6.668.684,6.726,1.911S393.74,338.332,390.083,338.5Z" transform="translate(-360.422 -315.015)" fill="#f7b242"/>
            <path id="Trazado_165815" data-name="Trazado 165815" d="M411.712,338.383c-5.957.28-10.85-.836-10.928-2.493s4.689-3.226,10.646-3.505,10.851.836,10.928,2.493S417.67,338.1,411.712,338.383Z" transform="translate(-362.399 -314.823)" fill="#f7b242"/>
            <path id="Trazado_165816" data-name="Trazado 165816" d="M368.989,339.632c-5.576-.125-10.066-1.572-10.029-3.23s4.589-2.9,10.165-2.774,10.066,1.572,10.029,3.23S374.565,339.757,368.989,339.632Z" transform="translate(-357.653 -314.968)" fill="#f7b242"/>
            <path id="Trazado_165817" data-name="Trazado 165817" d="M389.222,343.6c-5.147.241-9.353-.28-9.395-1.166s4.1-1.8,9.244-2.041,9.353.28,9.395,1.166S394.369,343.358,389.222,343.6Z" transform="translate(-360.021 -315.73)" fill="#f7b242"/>
          </g>
          <ellipse id="Elipse_4452" data-name="Elipse 4452" cx="5.929" cy="5.929" rx="5.929" ry="5.929" transform="translate(62.395 88.284) rotate(-68.813)" fill="#d7e9f4"/>
          <path id="Trazado_165818" data-name="Trazado 165818" d="M394.475,276.83a4.543,4.543,0,1,0-.406,6.412A4.543,4.543,0,0,0,394.475,276.83Z" transform="translate(-320.995 -195.013)" fill="#fff"/>
        </g>
      </g>
      <path id="Rectángulo_35655" data-name="Rectángulo 35655" d="M.436,0h229.2a.436.436,0,0,1,.436.436v0a.436.436,0,0,1-.436.436H.436A.436.436,0,0,1,0,.437v0A.436.436,0,0,1,.436,0Z" transform="translate(0.454 212.664)" fill="#1d272b"/>
    </g>
    <g id="Grupo_128825" data-name="Grupo 128825" transform="translate(1249.153 12645.737)">
      <path id="Trazado_150797" data-name="Trazado 150797" d="M227.414,412.223c-4.339,0-10.266-3.866-12.182-5.2l2.366-3.4c3.567,2.482,8.572,4.876,10.2,4.431,1.331-1.18,3.493-17.092,5.562-19.743l1.937,2.642c-.509,8.768-1.967,19.524-6.027,20.975A5.525,5.525,0,0,1,227.414,412.223Z" transform="translate(-204.255 -356.883)" fill="#dfebf4"/>
      <path id="Trazado_150798" data-name="Trazado 150798" d="M214.574,404.906s-3.543-4.306-3.806-4.85-1.118-.653-.918.027a6.307,6.307,0,0,0,.955,1.621l-3.96-2.745s-.525-.444-.807-.179.537.839.537.839l2.517,1.916-3.08-1.614s-.655-.3-.839.005.622.718.622.718l2.947,1.8-3.148-1.378s-.788-.345-.952.029.962.828.962.828l2.942,1.491-1.816-.344s-.322-.046-.259.231.473.382.473.382a63.264,63.264,0,0,0,6.115,2.728c.92.155.984.077.984.077l.513-1.469Z" transform="translate(-204.625 -356.521)" fill="#bc8364"/>
      <rect id="Rectángulo_34018" data-name="Rectángulo 34018" width="4.074" height="6.285" transform="matrix(-1, -0.017, 0.017, -1, 39.089, 31.508)" fill="#bc8364"/>
      <g id="Grupo_91805" data-name="Grupo 91805" transform="translate(34.21 118.994)">
        <path id="Trazado_150799" data-name="Trazado 150799" d="M247.26,472.925a4.945,4.945,0,0,0,0,2.641c.426,1.187,1.7.92,2.291,2.616v.188a1.614,1.614,0,0,1-1.509,1.617,3.913,3.913,0,0,0-2.331.625c-1.7,1.187-.3,5.106-2.6,5.03-1.366-.045-5.426,0-5.426,0s2.2-1.387,3.137-1.811,4.215-10.907,4.215-10.907Z" transform="translate(-237.682 -472.925)" fill="#bc8364"/>
        <path id="Trazado_150800" data-name="Trazado 150800" d="M247.768,475.875a3.859,3.859,0,0,1,1.783,2.2v.188a1.614,1.614,0,0,1-1.509,1.616c-.815.05-1.228.521-2.053,1.1-1.7,1.187-.581,4.633-2.881,4.558-1.366-.045-5.426,0-5.426,0s2.118-1.924,3.137-1.811C245,484.19,246.331,478.026,247.768,475.875Z" transform="translate(-237.682 -472.822)" fill="#d93328"/>
        <path id="Trazado_150801" data-name="Trazado 150801" d="M247.064,479.622a30.7,30.7,0,0,1,.012,5.877h.531s.356-4.761.911-5.811S247.064,479.622,247.064,479.622Z" transform="translate(-237.355 -472.706)" fill="#d93328"/>
      </g>
      <g id="Grupo_91806" data-name="Grupo 91806" transform="translate(22.924 117.37)">
        <path id="Trazado_150802" data-name="Trazado 150802" d="M236.863,471.356s-.934,3.078-.508,4.265,1.7.92,2.29,2.616v.188a1.614,1.614,0,0,1-1.509,1.616,3.915,3.915,0,0,0-2.331.625c-1.7,1.187-.3,5.106-2.6,5.031-1.366-.046-5.426,0-5.426,0s2.2-1.387,3.137-1.811,4.421-10.818,4.421-10.818Z" transform="translate(-226.776 -471.356)" fill="#bc8364"/>
        <path id="Trazado_150803" data-name="Trazado 150803" d="M236.862,475.875a3.859,3.859,0,0,1,1.783,2.2v.188a1.614,1.614,0,0,1-1.509,1.616c-.814.05-1.228.521-2.053,1.1-1.7,1.187-.581,4.633-2.881,4.558-1.366-.045-5.426,0-5.426,0s2.119-1.924,3.138-1.811C234.1,484.19,235.424,478.026,236.862,475.875Z" transform="translate(-226.776 -471.198)" fill="#d93328"/>
        <path id="Trazado_150804" data-name="Trazado 150804" d="M236.158,479.622a30.7,30.7,0,0,1,.012,5.877h.531s.356-4.761.911-5.811S236.158,479.622,236.158,479.622Z" transform="translate(-226.449 -471.082)" fill="#d93328"/>
      </g>
      <path id="Trazado_150805" data-name="Trazado 150805" d="M234,411.932a46.832,46.832,0,0,0,10.383,1.159c2.415,2.306,6.557,5.043,7.214,8.022.909,4.12-1.3,8.259-1.3,8.259l-2.334,19.4s6.257,1.306-.56,28.136l-3.284,3.656s1.415-23.8-.308-30.518c-4.324-16.862-2.365-22.786-3.521-23.711-2.1-1.68-2.347.259-2.347.259l-1.895,21.75s6.2,5.952.2,29.493l-2.665,2.231s-.024-23.652-1.719-30.381c-.783-3.114-4.98-21.155-3.144-27.624C229.638,418.846,232.949,413.567,234,411.932Z" transform="translate(-203.8 -356.059)" fill="#bc8364"/>
      <path id="Trazado_150806" data-name="Trazado 150806" d="M229.128,435.3l1.518,9.732h18.032l.806-14.346Z" transform="translate(-203.77 -355.405)" fill="#1d272b"/>
      <path id="Trazado_150807" data-name="Trazado 150807" d="M243.253,411.032c.079.515,6.353,7.623,6.846,8.211-10.186,2.73-19.171,1.417-20.077.434.991-2.727,4.716-7.983,4.716-7.983l-2.933-9.422a3.681,3.681,0,0,1-2.394-4.711c2.973-2.052,3.557-9.117,3.557-9.117l8.818-.254s6.945.767,7.862,1.43-.59,7.433-.59,7.433S242.837,408.276,243.253,411.032Z" transform="translate(-203.766 -356.887)" fill="#e6b89c"/>
      <path id="Trazado_150808" data-name="Trazado 150808" d="M249.579,442.2a43.716,43.716,0,0,1-9.646.753c-.082-.247-1.817-5.37-1.817-5.37l-.847,5.266c-2.251-.117-5.594.024-7.7-.743-1.237-6.567-1.964-15.363-.835-19.34a21.55,21.55,0,0,1,1.429-3.472,38.591,38.591,0,0,1,3.206-5.645c.258-.412.662-1.01.671-1.007a3.1,3.1,0,0,0,.517-1.085l-2.819-9.171c-3.536-1.192-2.284-4.95-2.284-4.95,2.973-2.052,3.557-9.118,3.557-9.118l8.818-.252s6.945.767,7.862,1.429-.448,7.687-.448,7.687-6.364,10.969-5.947,13.726c.068.446,4.785,5.839,6.367,7.655a7.481,7.481,0,0,1,1.948,3.254c.909,4.12-.632,8.981-.632,8.981Z" transform="translate(-203.804 -356.891)" fill="#fff"/>
      <path id="Trazado_150809" data-name="Trazado 150809" d="M237.229,399.772a6.582,6.582,0,0,0,7.1.351S240.3,404.958,237.229,399.772Z" transform="translate(-203.488 -356.483)" fill="#020202" opacity="0.23"/>
      <path id="Trazado_150810" data-name="Trazado 150810" d="M243.632,388.323l2.354.309-4.627,5.907,1.529.62-6.2,5.99-1.446-7.106,1.116-.247-1.116-5.618S242.475,388.137,243.632,388.323Z" transform="translate(-203.557 -356.887)" fill="#dfebf4"/>
      <path id="Trazado_150811" data-name="Trazado 150811" d="M243.583,388.329l-6.941,12.826.744-13.075A25.52,25.52,0,0,1,243.583,388.329Z" transform="translate(-203.508 -356.894)" fill="#d93328"/>
      <path id="Trazado_150812" data-name="Trazado 150812" d="M240.03,387.958c-.309-.008-3.536.823-3.536.823s1.174,1.1,3.261-.24c0,0,1.074,1.782,4.664.532C244.419,389.073,240.341,387.965,240.03,387.958Z" transform="translate(-203.513 -356.895)" fill="#4b4b4c" opacity="0.49"/>
      <path id="Trazado_150813" data-name="Trazado 150813" d="M242.671,386.48a22.236,22.236,0,0,1-2.646,1.051c-.309-.008-1.38-.99-1.38-.99l-2.217,2.258s1.222.71,3.31-.632c0,0,.719,1.43,4.625.955A8.572,8.572,0,0,1,242.671,386.48Z" transform="translate(-203.516 -356.947)" fill="#d93328"/>
      <path id="Trazado_150814" data-name="Trazado 150814" d="M235.8,402.2a.536.536,0,1,1,.545.526A.536.536,0,0,1,235.8,402.2Z" transform="translate(-203.538 -356.417)" fill="#666"/>
      <path id="Trazado_150815" data-name="Trazado 150815" d="M235.855,405.512a.536.536,0,1,1,.545.526A.535.535,0,0,1,235.855,405.512Z" transform="translate(-203.536 -356.302)" fill="#666"/>
      <path id="Trazado_150816" data-name="Trazado 150816" d="M235.915,408.825a.536.536,0,1,1,.545.527A.535.535,0,0,1,235.915,408.825Z" transform="translate(-203.534 -356.186)" fill="#666"/>
      <path id="Trazado_150817" data-name="Trazado 150817" d="M235.889,411.922a.536.536,0,1,1,.551.522A.536.536,0,0,1,235.889,411.922Z" transform="translate(-203.534 -356.078)" fill="#666"/>
      <path id="Trazado_150818" data-name="Trazado 150818" d="M235.977,415.235a.536.536,0,1,1,.551.522A.536.536,0,0,1,235.977,415.235Z" transform="translate(-203.531 -355.963)" fill="#666"/>
      <path id="Trazado_150819" data-name="Trazado 150819" d="M236.065,418.548a.536.536,0,1,1,.551.522A.536.536,0,0,1,236.065,418.548Z" transform="translate(-203.528 -355.847)" fill="#666"/>
      <path id="Trazado_150820" data-name="Trazado 150820" d="M236.341,422.283a.536.536,0,1,1,.549.522A.535.535,0,0,1,236.341,422.283Z" transform="translate(-203.519 -355.717)" fill="#666"/>
      <path id="Trazado_150821" data-name="Trazado 150821" d="M236.548,425.836a.536.536,0,1,1,.551.522A.537.537,0,0,1,236.548,425.836Z" transform="translate(-203.511 -355.593)" fill="#666"/>
      <path id="Trazado_150822" data-name="Trazado 150822" d="M236.637,429.029a.536.536,0,1,1,.55.522A.535.535,0,0,1,236.637,429.029Z" transform="translate(-203.508 -355.482)" fill="#666"/>
      <path id="Trazado_150823" data-name="Trazado 150823" d="M236.939,431.864a.536.536,0,1,1,.551.521A.537.537,0,0,1,236.939,431.864Z" transform="translate(-203.498 -355.383)" fill="#666"/>
      <path id="Trazado_150824" data-name="Trazado 150824" d="M237.147,435.3a.536.536,0,1,1,.551.522A.535.535,0,0,1,237.147,435.3Z" transform="translate(-203.491 -355.263)" fill="#666"/>
      <path id="Rectángulo_34019" data-name="Rectángulo 34019" d="M3.129,0h.515a3.13,3.13,0,0,1,3.13,3.13V8.84a0,0,0,0,1,0,0H0a0,0,0,0,1,0,0V3.129A3.129,3.129,0,0,1,3.129,0Z" transform="translate(43 73.071) rotate(-179.191)" fill="#dfebf4"/>
      <path id="Rectángulo_34020" data-name="Rectángulo 34020" d="M1.87,0H3.14A1.871,1.871,0,0,1,5.011,1.871V7.427a0,0,0,0,1,0,0H0a0,0,0,0,1,0,0V1.87A1.87,1.87,0,0,1,1.87,0Z" transform="matrix(-1, -0.014, 0.014, -1, 30.489, 71.937)" fill="#dfebf4"/>
      <path id="Trazado_150825" data-name="Trazado 150825" d="M246.379,379.119a1.037,1.037,0,0,0,.706-1.264c.622.06,1.082-.544,1.41-1.077q.185-.3.37-.605a1.676,1.676,0,0,0,.356-1.134,1.671,1.671,0,0,1-.1-.529c.053-.377.592-.585.553-.963-.016-.156-.134-.286-.16-.441-.08-.467.656-.744.633-1.217-.012-.245-.232-.437-.269-.68-.076-.5.628-.937.42-1.4-.064-.142-.2-.236-.279-.374-.2-.374.16-.821.116-1.245-.056-.546-.763-.881-.749-1.43.005-.216.128-.44.046-.641a.685.685,0,0,0-.243-.262l-.971-.728a1.489,1.489,0,0,0,1.271-.468,2.822,2.822,0,0,1,.36-.392,7.784,7.784,0,0,1,.741-.324c.511-.3.574-1,.579-1.6a1.926,1.926,0,0,0-.265-1.222.822.822,0,0,1-.33-.894.967.967,0,0,0-1.26-.85,1.172,1.172,0,0,0-.678-1.14,3.447,3.447,0,0,0-1.376-.292,1.407,1.407,0,0,0-.651.057.481.481,0,0,0-.31.519,1.031,1.031,0,0,1-.662-.011.923.923,0,0,0-.658.016c-.2.111-.259.445-.058.547a.534.534,0,0,0-.771.723,1.4,1.4,0,0,0-.953.065c-.278.168-.366.648-.078.8-.315.034-.352.485-.249.785s.237.677.006.894a3.122,3.122,0,0,0-1.266-.308,1.065,1.065,0,0,0-1.01.7,1.5,1.5,0,0,0-1.8-.065c-.615-.505-1.527-.181-2.245.16l-.787.376a1.883,1.883,0,0,0-.742.515,3.913,3.913,0,0,0-1.324.067,1.331,1.331,0,0,0-.948.854.908.908,0,0,1-.124.349.54.54,0,0,1-.3.159c-.314.08-.644.081-.952.179a.851.851,0,0,0-.64.653c-.021.214.077.449-.033.633-.075.123-.223.183-.312.3-.294.372.224.931.053,1.374-.1.246-.394.423-.36.684.022.159.165.272.232.418.18.392-.225.808-.246,1.24-.02.388.27.712.453,1.056a2.063,2.063,0,0,1,.2,1.368.831.831,0,0,0-.026.44c.081.227.357.3.54.456.379.319.31.907.434,1.386a3.294,3.294,0,0,0,1.28,1.592,25.119,25.119,0,0,0,5.4,3.645,8.445,8.445,0,0,0,6.35.457l-.241-.336a1.273,1.273,0,0,0,1.221-1,.854.854,0,0,1,.1-.343C245.907,379.173,246.165,379.173,246.379,379.119Z" transform="translate(-203.737 -357.942)" fill="#35302c"/>
      <path id="Trazado_150826" data-name="Trazado 150826" d="M246.793,378.428c.27.082-3.372,6.052-7.822,6.541-4.124.453-6.985-8.213-6.989-8.226-.063-.3-.818-5.705-1.08-8.356-.271-2.728,12.611-7.193,15.9.1.516,1.145.151,7.557.151,7.557s1.693-1.262,1.885,1.115C248.911,378.044,246.793,378.428,246.793,378.428Z" transform="translate(-203.708 -357.713)" fill="#bc8364"/>
      <path id="Trazado_150827" data-name="Trazado 150827" d="M241.656,373.321a.543.543,0,0,0,.59-.348.522.522,0,0,1-.157.44.363.363,0,0,0,.43-.107.407.407,0,0,1-.224.348,1.177,1.177,0,0,1-.416.117.163.163,0,0,1-.107-.006.173.173,0,0,1-.069-.117l-.069-.268" transform="translate(-203.334 -357.418)" fill="#1a1a1a"/>
      <path id="Trazado_150828" data-name="Trazado 150828" d="M240,374.26a1.1,1.1,0,1,1,1.226.949A1.1,1.1,0,0,1,240,374.26Z" transform="translate(-203.391 -357.416)" fill="#333"/>
      <path id="Trazado_150829" data-name="Trazado 150829" d="M233.472,374.278a.533.533,0,0,1-.554-.421.582.582,0,0,0,.113.484.343.343,0,0,1-.418-.149.437.437,0,0,0,.187.391,1.129,1.129,0,0,0,.4.159.164.164,0,0,0,.107,0,.2.2,0,0,0,.081-.12l.1-.283" transform="translate(-203.649 -357.387)" fill="#1a1a1a"/>
      <path id="Trazado_150830" data-name="Trazado 150830" d="M233.237,374.968a.981.981,0,1,1,1.073.88A.98.98,0,0,1,233.237,374.968Z" transform="translate(-203.627 -357.386)" fill="#333"/>
      <path id="Trazado_150831" data-name="Trazado 150831" d="M240.558,373.73a.323.323,0,1,1,.361.28A.324.324,0,0,1,240.558,373.73Z" transform="translate(-203.372 -357.404)" fill="#fff" opacity="0.43"/>
      <path id="Trazado_150832" data-name="Trazado 150832" d="M233.486,374.742a.267.267,0,1,1,.292.239A.267.267,0,0,1,233.486,374.742Z" transform="translate(-203.618 -357.366)" fill="#fff" opacity="0.43"/>
      <path id="Trazado_150833" data-name="Trazado 150833" d="M235.37,372.643a5.3,5.3,0,0,0-2.54.127,6.411,6.411,0,0,0-1.095.794l.8-1.217a4.887,4.887,0,0,1,2.461-.5A.562.562,0,0,1,235.37,372.643Z" transform="translate(-203.679 -357.457)" fill="#35302c"/>
      <path id="Trazado_150834" data-name="Trazado 150834" d="M239.116,371.874a5.3,5.3,0,0,1,2.515-.376,6.477,6.477,0,0,1,1.229.564l-1.022-1.036a4.887,4.887,0,0,0-2.511,0A.563.563,0,0,0,239.116,371.874Z" transform="translate(-203.426 -357.491)" fill="#35302c"/>
      <path id="Trazado_150835" data-name="Trazado 150835" d="M236.948,375.408l.242,2.253c.019.181-.229-.03-.411-.019-.241.016-.345.441-.324.653.035.347.316.492,1.7.222a.344.344,0,0,0,.269-.333C238.39,377.322,238.225,374.782,236.948,375.408Z" transform="translate(-203.515 -357.336)" fill="#1a1a1a" opacity="0.49"/>
      <path id="Trazado_150836" data-name="Trazado 150836" d="M237.124,375.322l.182,2.094s-.869-.047-.729.77c.059.343.381.473,1.784.2a.469.469,0,0,0,.369-.33c.049-.2.327-.225-.219-.913C237.868,376.329,238.362,374.892,237.124,375.322Z" transform="translate(-203.511 -357.338)" fill="#ba6565"/>
      <path id="Trazado_150837" data-name="Trazado 150837" d="M236.812,378.1a.624.624,0,0,0,.754-.1.2.2,0,0,0,.065-.109c.023-.124-.1-.209-.2-.235a.628.628,0,0,0-.477.018.437.437,0,0,0-.181.5" transform="translate(-203.504 -357.256)" fill="#fff" opacity="0.43"/>
      <path id="Trazado_150838" data-name="Trazado 150838" d="M239.931,376.457a.759.759,0,0,0,.272.755,1.669,1.669,0,0,0,.773.326,6.1,6.1,0,0,0,3.313-.4,2.119,2.119,0,0,0,.772-.44.836.836,0,0,0,.246-.814.852.852,0,0,0-.663-.526,2.509,2.509,0,0,0-.883.033l-2.756.435C240.57,375.9,240.052,376.035,239.931,376.457Z" transform="translate(-203.394 -357.335)" fill="#ba6565" opacity="0.52"/>
      <path id="Trazado_150839" data-name="Trazado 150839" d="M235.441,376.958a1.375,1.375,0,0,0-.525-.061,13.585,13.585,0,0,1-1.493-.076.822.822,0,0,0-.665.116.4.4,0,0,0-.06.493.69.69,0,0,0,.258.216,2.58,2.58,0,0,0,1.268.345,2.058,2.058,0,0,0,1.24-.41.432.432,0,0,0,.212-.375A.352.352,0,0,0,235.441,376.958Z" transform="translate(-203.648 -357.284)" fill="#ba6565" opacity="0.52"/>
      <g id="Grupo_91807" data-name="Grupo 91807" transform="translate(32.751 21.952)">
        <path id="Trazado_150840" data-name="Trazado 150840" d="M241.312,379.612s-1.8-.692-2.5-.375c-.649.295-.679.632-.679.632a.976.976,0,0,0-.765-.311,3.571,3.571,0,0,0-1.1.793s.691,2.521,2.525,2.22C241.11,382.191,241.312,379.612,241.312,379.612Z" transform="translate(-236.272 -379.154)" fill="#934c4c"/>
        <path id="Trazado_150841" data-name="Trazado 150841" d="M238.038,381.981a.951.951,0,0,0,.921-.2c.032-.03.065-.074.049-.115s-.1-.049-.158-.03a1.47,1.47,0,0,1-.975.093.223.223,0,0,0,.157.276" transform="translate(-236.216 -379.068)" fill="#fff" opacity="0.43"/>
        <path id="Trazado_150842" data-name="Trazado 150842" d="M241.329,379.54a12.718,12.718,0,0,1-5.057.8S238.127,383.121,241.329,379.54Z" transform="translate(-236.272 -379.141)" fill="#fff"/>
      </g>
      <path id="Trazado_150843" data-name="Trazado 150843" d="M245.573,372.057c-.027-.209.1-.424.041-.626a.938.938,0,0,0-.223-.306,1.277,1.277,0,0,1-.287-1.056c.008.368.018.738.026,1.107a.556.556,0,0,0,.067.307c.055.079.147.125.2.2.157.23-.088.516-.131.791a1.383,1.383,0,0,0,.266.808.7.7,0,0,1,0,.808c.161-.125.1-.389-.023-.551a1.781,1.781,0,0,1-.363-.488c-.1-.305.132-.65.016-.948s-.565-.434-.619-.763c-.037-.232.146-.469.069-.691-.063-.186-.274-.268-.435-.382a.961.961,0,0,1-.33-1.09.845.845,0,0,1-.829-.72.87.87,0,0,0-.055-.311.983.983,0,0,0-.215-.219,1.351,1.351,0,0,1-.247-1.076l-.661.051a2.373,2.373,0,0,0,.425,1.265c-.033-.2-.31-.224-.494-.319-.357-.185-.354-.689-.3-1.089a.724.724,0,0,1-.735-.265c-.011.31-.413.43-.723.412s-.676-.07-.88.164a.848.848,0,0,1-.165.188c-.188.119-.423-.094-.646-.072-.184.018-.312.19-.394.356a2.507,2.507,0,0,0-.249.856.42.42,0,0,1-.058.214c-.111.15-.439.224-.331.377.182-.068.181-.33.107-.509s-.191-.369-.129-.554a1.043,1.043,0,0,1,.215-.287.806.806,0,0,0,.124-.786c-.182.428-.978.119-1.228.511-.06.093-.075.213-.15.294-.212.227-.716-.009-.844.273-.029.063-.026.138-.061.2-.07.125-.255.122-.389.07a.926.926,0,0,0-.409-.122c-.24.026-.352.3-.482.5s-.471.348-.582.133a.615.615,0,0,1-.483.606c-.238.044-.556-.023-.661.195s.117.469,0,.662c-.086.144-.307.158-.391.3-.064.111-.022.249-.023.377a1.438,1.438,0,0,1-.24.605,4.05,4.05,0,0,0-.28,1.986l-.561-4.183a2.612,2.612,0,0,1,.874-2.868,10.078,10.078,0,0,1,1.763-1.51,7.976,7.976,0,0,1,1.934-.813,13.915,13.915,0,0,1,10.585.782,5.411,5.411,0,0,1,1.358.993,6.086,6.086,0,0,1,1.116,1.927,5.5,5.5,0,0,1,.467,1.784,7.355,7.355,0,0,1-.852,3.071,24.326,24.326,0,0,0-1.209,3.718c.167-.3-.34-.558-.389-.9-.028-.2.117-.388.162-.588.118-.513-.416-.973-.409-1.5a1.953,1.953,0,0,0,.012-.364C246.176,372.615,245.624,372.449,245.573,372.057Z" transform="translate(-203.714 -357.752)" fill="#35302c"/>
      <path id="Trazado_150844" data-name="Trazado 150844" d="M232.645,378.331a24.61,24.61,0,0,0,5.24.076c2.374-.295,9.15-2.867,9.15-2.867l-.236.389-3.152,1.261a17.826,17.826,0,0,0,.723,2.89l2.362-2.037s.094.206-.2.743-5.118,7.483-9.669,5.457C236.86,384.243,233.6,381.624,232.645,378.331Z" transform="translate(-203.648 -357.328)" fill="#eeebf5"/>
      <g id="Grupo_91813" data-name="Grupo 91813" transform="translate(1.068 34.637)">
        <path id="Trazado_150845" data-name="Trazado 150845" d="M219.478,391.416l-13.73,3.607a.124.124,0,0,0-.087.15l4.8,18.253a.124.124,0,0,0,.15.087l13.729-3.608a.121.121,0,0,0,.087-.149l-4.8-18.253A.121.121,0,0,0,219.478,391.416Z" transform="translate(-205.657 -391.412)" fill="#333"/>
        <rect id="Rectángulo_34021" data-name="Rectángulo 34021" width="12.28" height="17.587" transform="translate(1.187 4.012) rotate(-14.721)" fill="#fff"/>
        <g id="Grupo_91808" data-name="Grupo 91808" transform="translate(2.691 2.927)">
          <path id="Trazado_150846" data-name="Trazado 150846" d="M218.164,394.242l-9.87,2.592a.051.051,0,0,0-.035.062l.005.022a.052.052,0,0,0,.062.036l9.87-2.593a.05.05,0,0,0,.035-.061l-.005-.023A.051.051,0,0,0,218.164,394.242Z" transform="translate(-208.257 -394.24)" fill="#333" opacity="0.37"/>
          <path id="Trazado_150847" data-name="Trazado 150847" d="M218.276,394.667l-9.87,2.593a.051.051,0,0,0-.036.061l.006.022a.05.05,0,0,0,.061.036l9.87-2.593a.05.05,0,0,0,.036-.061l-.006-.022A.05.05,0,0,0,218.276,394.667Z" transform="translate(-208.253 -394.226)" fill="#333" opacity="0.37"/>
          <path id="Trazado_150848" data-name="Trazado 150848" d="M218.395,395.121l-9.87,2.593a.05.05,0,0,0-.035.061l.005.023a.051.051,0,0,0,.062.035l9.87-2.592a.051.051,0,0,0,.035-.062l-.005-.022A.051.051,0,0,0,218.395,395.121Z" transform="translate(-208.249 -394.21)" fill="#333" opacity="0.37"/>
          <path id="Trazado_150849" data-name="Trazado 150849" d="M218.507,395.547l-9.87,2.592a.051.051,0,0,0-.035.062l.005.022a.05.05,0,0,0,.062.035l9.869-2.592a.051.051,0,0,0,.036-.062l-.005-.022A.05.05,0,0,0,218.507,395.547Z" transform="translate(-208.245 -394.195)" fill="#333" opacity="0.37"/>
        </g>
        <g id="Grupo_91809" data-name="Grupo 91809" transform="translate(5.143 12.262)">
          <path id="Trazado_150850" data-name="Trazado 150850" d="M220.534,403.262l-9.87,2.592a.05.05,0,0,0-.035.062l.005.022a.052.052,0,0,0,.062.036l9.869-2.593a.05.05,0,0,0,.036-.061l-.005-.023A.05.05,0,0,0,220.534,403.262Z" transform="translate(-210.627 -403.26)" fill="#333" opacity="0.37"/>
          <path id="Trazado_150851" data-name="Trazado 150851" d="M220.646,403.687l-9.87,2.593a.05.05,0,0,0-.036.061l.006.022a.05.05,0,0,0,.061.036l9.87-2.593a.05.05,0,0,0,.036-.061l-.006-.022A.05.05,0,0,0,220.646,403.687Z" transform="translate(-210.623 -403.245)" fill="#333" opacity="0.37"/>
          <path id="Trazado_150852" data-name="Trazado 150852" d="M220.765,404.141l-9.87,2.593a.049.049,0,0,0-.035.061l.005.022a.051.051,0,0,0,.062.036l9.869-2.592a.051.051,0,0,0,.036-.062l-.005-.022A.051.051,0,0,0,220.765,404.141Z" transform="translate(-210.619 -403.23)" fill="#333" opacity="0.37"/>
          <path id="Trazado_150853" data-name="Trazado 150853" d="M220.877,404.566l-9.87,2.593a.052.052,0,0,0-.036.062l.006.022a.049.049,0,0,0,.061.035l9.87-2.592a.051.051,0,0,0,.036-.062l-.006-.022A.05.05,0,0,0,220.877,404.566Z" transform="translate(-210.615 -403.215)" fill="#333" opacity="0.37"/>
        </g>
        <g id="Grupo_91810" data-name="Grupo 91810" transform="translate(3.235 5.001)">
          <path id="Trazado_150854" data-name="Trazado 150854" d="M218.691,396.246l-9.87,2.592a.051.051,0,0,0-.036.062l.006.022a.05.05,0,0,0,.061.036l9.87-2.593a.05.05,0,0,0,.036-.061l-.006-.023A.05.05,0,0,0,218.691,396.246Z" transform="translate(-208.783 -396.244)" fill="#333" opacity="0.37"/>
          <path id="Trazado_150855" data-name="Trazado 150855" d="M218.8,396.671l-9.87,2.593a.05.05,0,0,0-.036.061l.006.022a.05.05,0,0,0,.061.036l9.87-2.592a.052.052,0,0,0,.036-.062l-.006-.022A.05.05,0,0,0,218.8,396.671Z" transform="translate(-208.779 -396.23)" fill="#333" opacity="0.37"/>
          <path id="Trazado_150856" data-name="Trazado 150856" d="M218.922,397.125l-9.87,2.593a.051.051,0,0,0-.036.061l.006.023a.049.049,0,0,0,.061.035l9.87-2.592a.051.051,0,0,0,.036-.062l-.006-.022A.05.05,0,0,0,218.922,397.125Z" transform="translate(-208.775 -396.214)" fill="#333" opacity="0.37"/>
          <path id="Trazado_150857" data-name="Trazado 150857" d="M219.034,397.551l-9.87,2.592a.051.051,0,0,0-.036.062l.006.022a.05.05,0,0,0,.061.036l9.87-2.593a.052.052,0,0,0,.036-.062l-.006-.022A.049.049,0,0,0,219.034,397.551Z" transform="translate(-208.771 -396.199)" fill="#333" opacity="0.37"/>
        </g>
        <g id="Grupo_91811" data-name="Grupo 91811" transform="translate(3.7 6.769)">
          <path id="Trazado_150858" data-name="Trazado 150858" d="M219.14,397.954l-9.87,2.593a.05.05,0,0,0-.036.061l.006.023a.05.05,0,0,0,.061.035l9.87-2.592a.052.052,0,0,0,.036-.062l-.006-.022A.051.051,0,0,0,219.14,397.954Z" transform="translate(-209.232 -397.953)" fill="#333" opacity="0.37"/>
          <path id="Trazado_150859" data-name="Trazado 150859" d="M219.251,398.38l-9.869,2.592a.051.051,0,0,0-.036.062l.005.022a.052.052,0,0,0,.062.036l9.87-2.593a.05.05,0,0,0,.035-.062l-.005-.022A.05.05,0,0,0,219.251,398.38Z" transform="translate(-209.228 -397.938)" fill="#333" opacity="0.37"/>
          <path id="Trazado_150860" data-name="Trazado 150860" d="M219.371,398.834l-9.87,2.592a.051.051,0,0,0-.036.062l.006.022a.05.05,0,0,0,.061.036l9.87-2.593a.05.05,0,0,0,.036-.061l-.006-.023A.05.05,0,0,0,219.371,398.834Z" transform="translate(-209.224 -397.922)" fill="#333" opacity="0.37"/>
          <path id="Trazado_150861" data-name="Trazado 150861" d="M219.483,399.259l-9.87,2.593a.05.05,0,0,0-.036.061l.006.022a.05.05,0,0,0,.061.036l9.87-2.593a.05.05,0,0,0,.036-.061l-.006-.022A.051.051,0,0,0,219.483,399.259Z" transform="translate(-209.22 -397.907)" fill="#333" opacity="0.37"/>
        </g>
        <g id="Grupo_91812" data-name="Grupo 91812" transform="translate(4.167 8.544)">
          <path id="Trazado_150862" data-name="Trazado 150862" d="M219.59,399.67l-9.869,2.593a.05.05,0,0,0-.036.061l.005.022a.051.051,0,0,0,.062.036l9.87-2.593a.049.049,0,0,0,.035-.061l-.005-.022A.051.051,0,0,0,219.59,399.67Z" transform="translate(-209.683 -399.668)" fill="#333" opacity="0.37"/>
          <path id="Trazado_150863" data-name="Trazado 150863" d="M219.7,400.1l-9.87,2.593a.05.05,0,0,0-.035.061l.005.023a.051.051,0,0,0,.062.035l9.87-2.592a.051.051,0,0,0,.035-.062l-.005-.022A.051.051,0,0,0,219.7,400.1Z" transform="translate(-209.679 -399.654)" fill="#333" opacity="0.37"/>
          <path id="Trazado_150864" data-name="Trazado 150864" d="M219.822,400.55l-9.87,2.592a.051.051,0,0,0-.036.062l.006.022a.05.05,0,0,0,.061.036l9.87-2.593a.052.052,0,0,0,.036-.062l-.006-.022A.05.05,0,0,0,219.822,400.55Z" transform="translate(-209.675 -399.638)" fill="#333" opacity="0.37"/>
          <path id="Trazado_150865" data-name="Trazado 150865" d="M219.933,400.975l-9.87,2.592a.051.051,0,0,0-.035.062l.005.022a.051.051,0,0,0,.062.036l9.87-2.593a.05.05,0,0,0,.035-.061l-.005-.022A.051.051,0,0,0,219.933,400.975Z" transform="translate(-209.671 -399.623)" fill="#333" opacity="0.37"/>
        </g>
        <rect id="Rectángulo_34022" data-name="Rectángulo 34022" width="3.008" height="1.45" transform="matrix(0.967, -0.254, 0.254, 0.967, 5.239, 1.193)" fill="#b3b3b3"/>
        <rect id="Rectángulo_34023" data-name="Rectángulo 34023" width="4.952" height="1.03" transform="matrix(0.967, -0.254, 0.254, 0.967, 4.561, 2.437)" fill="#b3b3b3"/>
      </g>
      <path id="Trazado_150866" data-name="Trazado 150866" d="M248.042,423.563s-2.6,5.058-3.04,5.528-.05,1.3.575.826a5.79,5.79,0,0,0,1.2-1.559l-.647,4.775s-.174.666.285.811.6-.846.6-.846l.6-3.107.066,3.493s.057.727.505.763.415-.872.415-.872l.22-3.452.365,3.455s.091.863.6.855.333-1.229.333-1.229L250,429.69l.7,1.8s.143.313.407.138.137-.593.137-.593-.275-5.827-.654-6.732-.5-.929-.5-.929l-1.911.156Z" transform="translate(-203.223 -355.66)" fill="#bc8364"/>
      <path id="Trazado_150867" data-name="Trazado 150867" d="M251.11,427.259l-4.071-.744c.019-.105,1.911-10.514,2.037-15.975.122-5.387-1.684-12.8-2.2-15.131l2.156-5.951c.82.216,4.316,15.313,4.183,21.177C253.082,416.424,251.19,426.819,251.11,427.259Z" transform="translate(-203.151 -356.843)" fill="#dfebf4"/>
    </g>
  </g>
</svg>
