<svg xmlns="http://www.w3.org/2000/svg" xmlns:xlink="http://www.w3.org/1999/xlink" width="392.917" height="311.321" viewBox="0 0 392.917 311.321">
  <defs>
    <linearGradient id="linear-gradient" x1="0.5" x2="0.5" y2="1" gradientUnits="objectBoundingBox">
      <stop offset="0" stop-color="#f5f5f5"/>
      <stop offset="0.25" stop-color="#f5f5f5"/>
      <stop offset="1" stop-color="#eeeef2"/>
    </linearGradient>
    <linearGradient id="linear-gradient-2" x1="0.5" x2="0.5" y2="1" gradientUnits="objectBoundingBox">
      <stop offset="0" stop-color="#f5f5f5"/>
      <stop offset="0.25" stop-color="#f5f5f5"/>
      <stop offset="1" stop-color="#a7b3cf"/>
    </linearGradient>
  </defs>
  <g id="img39" transform="translate(-260.091 -20688.242)">
    <g id="Grupo_128931" data-name="Grupo 128931" transform="translate(260.092 20688.242)">
      <path id="Trazado_151846" data-name="Trazado 151846" d="M432.93,394.553c15.345-19.273,19.711-44.286,11.586-66.374-5.137-13.964-15-26.938-16.256-41.5-2.521-29.115,29.257-52.652,35.85-81.326,2.9-12.6-.264-27.283-12.684-34.938-12.268-7.56-29.778-6.017-43.667-.722s-25.641,13.771-38.976,19.968-29.755,10.027-43.837,5.1c-14.264-5-22.355-17.588-26.887-29.86s-6.757-25.344-14.491-36.462c-12.748-18.324-39.929-28.316-65.258-25.73s-47.96,16.748-60.1,35.354-14.26,41.111-8.218,61.662c3.065,10.423,8.115,20.4,10.868,30.887s3.006,21.956-3.141,31.4c-12.855,19.744-46.766,22.5-64.525,39.43-14.657,13.975-15.117,35.3-6.8,52.488s23.95,31.13,39.536,44.4c72.7,2.025,146.7,2.16,219.393,4.185C373.577,403.293,404.71,395.93,432.93,394.553Z" transform="translate(-80.962 -91.244)" fill="#a4a4b4" opacity="0.354" style="mix-blend-mode: multiply;isolation: isolate"/>
      <path id="Trazado_151847" data-name="Trazado 151847" d="M359.209,164.511c-.084,11.193,8.415,20.935,6.936,31.975-.791,5.907-4.386,11.894-2.3,17.282,1.848,4.767,7.142,5.594,11.19,4.044,9.474-3.629,15.233-15.755,17.987-27.671,2.591-11.209,3.233-23.729-.915-34.178-3.343-8.419-11.056-15.851-18.888-15.163C366.048,141.429,359.272,156.079,359.209,164.511Z" transform="translate(-2.18 -67.169)" fill="#a4a4b4" opacity="0.31" style="mix-blend-mode: multiply;isolation: isolate"/>
      <path id="Trazado_151848" data-name="Trazado 151848" d="M115.8,141.476a57.67,57.67,0,0,0-1.35,60.427c3.474,5.849,8.165,11.3,14.5,14.553s14.507,3.978,20.812.678c9.562-5.006,11.677-16.812,10.916-26.891s-3.249-20.644.98-29.971c2.757-6.08,8.051-10.82,12.747-15.8s9.08-10.79,9.322-17.372c.629-17.061-19.109-15.786-31-12.243C137.535,119.382,124.031,128.87,115.8,141.476Z" transform="translate(-73.084 -112.66)" fill="#a4a4b4" opacity="0.31" style="mix-blend-mode: multiply;isolation: isolate"/>
      <g id="Grupo_107069" data-name="Grupo 107069" transform="translate(8.715 5.803)" style="mix-blend-mode: multiply;isolation: isolate">
        <path id="Trazado_151849" data-name="Trazado 151849" d="M427.336,398.38l-1.56-1.183c4.292-3.9,11.142-12.831,8.823-28.893-1.032-7.15-3.591-14.213-6.065-21.043-1.1-3.052-2.248-6.207-3.246-9.34C414.646,304.49,419.3,267.61,438.06,236.74c1.666-2.739,3.469-5.488,5.213-8.146,5.17-7.88,10.516-16.029,12.815-24.831,4.032-15.447-3.938-27.024-13.049-31.244-8.741-4.051-21.08-3.432-33.85,1.7-4.672,1.876-9.213,4.171-13.6,6.391a135.988,135.988,0,0,1-18.246,8.114c-25.348,8.449-57.04,1.269-73.716-16.7-8.014-8.635-12.54-19.072-16.916-29.165-1.7-3.911-3.449-7.956-5.377-11.826-6-12.032-16.974-27.134-35.209-30.747-16.022-3.176-32.25,3.8-43.04,10.218-20.644,12.272-35.195,28.892-40.976,46.8-3.9,12.074-4.054,25.216-4.206,37.926-.226,18.927-.46,38.5-13.324,54.26-5.852,7.17-13.9,12.891-21.685,18.424-7.29,5.181-14.829,10.54-20.448,17.034-12.733,14.716-15.855,35.55-8.563,57.16,6.552,19.417,19.908,36.645,32.823,53.307l-1.775.949c-13-16.77-26.443-34.111-33.081-53.782-7.466-22.127-4.228-43.507,8.881-58.657,5.768-6.667,13.4-12.094,20.789-17.343,7.679-5.457,15.618-11.1,21.31-18.075,12.507-15.324,12.727-33.767,12.96-53.292.153-12.819.311-26.074,4.28-38.364,5.906-18.3,20.746-35.26,41.785-47.769,11.147-6.626,27.959-13.826,44.758-10.5,19.1,3.784,30.484,19.372,36.669,31.782,1.948,3.908,3.71,7.972,5.414,11.9,4.321,9.965,8.788,20.27,16.6,28.688,16.12,17.37,46.756,24.311,71.259,16.144a134.46,134.46,0,0,0,17.935-7.984c4.433-2.242,9.017-4.559,13.78-6.472,13.4-5.382,26.445-5.986,35.8-1.653,9.77,4.526,18.344,16.83,14.084,33.149-2.363,9.049-7.783,17.31-13.026,25.3-1.736,2.646-3.532,5.382-5.182,8.1-18.529,30.492-23.128,66.919-12.615,99.942.987,3.1,2.126,6.246,3.226,9.284,2.5,6.9,5.086,14.038,6.141,21.34C439.116,384.852,431.87,394.263,427.336,398.38Z" transform="translate(-87.906 -97.739)" fill="#a4a4b4"/>
      </g>
    </g>
    <g id="Grupo_128935" data-name="Grupo 128935" transform="translate(303.436 20694.063)">
      <g id="Grupo_91555" data-name="Grupo 91555" transform="translate(0 0)">
        <path id="Trazado_150481" data-name="Trazado 150481" d="M593.251,562.6a18.872,18.872,0,0,1,18.872-18.872H772.609a16.626,16.626,0,0,1,16.6,15.781L801.06,792.184a12.261,12.261,0,0,1-12.022,12.882L605.1,808.409a11.638,11.638,0,0,1-11.849-11.636Z" transform="translate(-593.251 -508.49)" fill="#2a383e"/>
        <path id="Trazado_150482" data-name="Trazado 150482" d="M659.677,1862.027h-.006l-20.581-.266a12.693,12.693,0,0,1-12.481-12.643v-31.074a.439.439,0,1,1,.879,0v31.074a11.811,11.811,0,0,0,11.614,11.764l20.581.266a.439.439,0,0,1-.005.879Z" transform="translate(-620.945 -1566.063)" fill="#5c5e61"/>
        <path id="Trazado_150483" data-name="Trazado 150483" d="M627.048,1737.19a.439.439,0,0,1-.439-.439v-5.033a.439.439,0,1,1,.879,0v5.033A.439.439,0,0,1,627.048,1737.19Z" transform="translate(-620.945 -1494.396)" fill="#5c5e61"/>
        <g id="Grupo_91553" data-name="Grupo 91553" transform="translate(13.148 33.302)">
          <path id="Trazado_150484" data-name="Trazado 150484" d="M670.682,537.841a5.482,5.482,0,0,1,6.217-5.467c21.916,2.972,97.279,12.164,159.588,7.381a5.069,5.069,0,0,1,5.459,4.781l12.421,233.712a5.833,5.833,0,0,1-5.48,6.134c-26.206,1.551-134.131,7.546-172.626,3.514a4.621,4.621,0,0,1-4.135-4.574Z" transform="translate(-670.682 -532.323)" fill="#a4a4b4"/>
          <path id="Trazado_150485" data-name="Trazado 150485" d="M685.885,573.349a5.276,5.276,0,0,1,5.983-5.262c21.091,2.86,93.616,11.706,153.578,7.1a4.878,4.878,0,0,1,5.253,4.6L862.654,804.7a5.614,5.614,0,0,1-5.274,5.9c-25.219,1.493-129.08,7.262-166.125,3.381a4.447,4.447,0,0,1-3.98-4.4Z" transform="translate(-683.304 -561.974)" fill="url(#linear-gradient)"/>
          <g id="Grupo_91552" data-name="Grupo 91552" transform="translate(14.25 25.76)">
            <g id="Grupo_91531" data-name="Grupo 91531" transform="translate(13.088)" opacity="0.75">
              <path id="Trazado_150486" data-name="Trazado 150486" d="M831.786,689.254c.349,1.839,1.551,3.115,2.92,3.1l111.536-1.321c1.262-.015,2.271-1.461,2.244-3.214-.027-1.7-1.026-3.069-2.253-3.077l-111.539-.707C832.725,684.02,831.284,686.608,831.786,689.254Z" transform="translate(-831.686 -684.033)" fill="#2a383e"/>
            </g>
            <g id="Grupo_91536" data-name="Grupo 91536" transform="translate(0 18.608)">
              <g id="Grupo_91532" data-name="Grupo 91532" transform="translate(26.712)" opacity="0.6">
                <path id="Trazado_150487" data-name="Trazado 150487" d="M911.963,797.186c.144,1.256.64,2.128,1.206,2.117l46.048-.9c.521-.01.938-1,.926-2.2-.011-1.164-.423-2.1-.93-2.1l-46.05-.483C912.351,793.611,911.756,795.379,911.963,797.186Z" transform="translate(-911.922 -793.62)" fill="#2a383e"/>
              </g>
              <g id="Grupo_91533" data-name="Grupo 91533" transform="translate(25.982 15.289)" opacity="0.6">
                <path id="Trazado_150488" data-name="Trazado 150488" d="M907.7,887.23a2.378,2.378,0,0,0,2.151,2.117l82.163-.9a1.972,1.972,0,0,0,1.653-2.2,1.945,1.945,0,0,0-1.659-2.1l-82.165-.483C908.389,883.655,907.327,885.423,907.7,887.23Z" transform="translate(-907.623 -883.664)" fill="#2a383e"/>
              </g>
              <g id="Grupo_91534" data-name="Grupo 91534" transform="translate(25.483 30.927)" opacity="0.6">
                <path id="Trazado_150489" data-name="Trazado 150489" d="M904.768,979.326a2.579,2.579,0,0,0,2.445,2.117l93.4-.9a2.167,2.167,0,0,0-.008-4.3l-93.4-.483A2.782,2.782,0,0,0,904.768,979.326Z" transform="translate(-904.684 -975.76)" fill="#2a383e"/>
              </g>
              <g id="Grupo_91535" data-name="Grupo 91535" transform="translate(0 6.931)">
                <path id="Trazado_150490" data-name="Trazado 150490" d="M770.241,873.023h-.031l-11.444-.11a3.076,3.076,0,0,1-3.14-2.617l-1.006-9.6a2.086,2.086,0,0,1,.493-1.569,2.515,2.515,0,0,1,1.751-.864h0c.964-.065,2.322-.181,3.759-.3,3.027-.258,6.794-.579,8.914-.605a3.2,3.2,0,0,1,3.2,2.242c.6,2.2.544,6.377.43,10.822A2.828,2.828,0,0,1,770.241,873.023Zm-13.318-13.885a1.628,1.628,0,0,0-1.138.553,1.215,1.215,0,0,0-.292.912l1.006,9.6a2.2,2.2,0,0,0,2.274,1.83l11.444.11h.023a1.95,1.95,0,0,0,2.052-1.751c.111-4.378.165-8.48-.4-10.57a2.362,2.362,0,0,0-2.345-1.592c-2.088.026-5.837.345-8.85.6-1.441.123-2.8.239-3.774.305Z" transform="translate(-754.608 -853.461)" fill="#fff"/>
                <path id="Trazado_150491" data-name="Trazado 150491" d="M768.282,867.953c2.4-.164,7.63-.695,10.108-.726a2.216,2.216,0,0,1,2.217,1.532c.478,1.768.415,5.294.332,8.547a1.9,1.9,0,0,1-2.013,1.742l-9.145-.088a2.113,2.113,0,0,1-2.163-1.776l-.8-7.673A1.485,1.485,0,0,1,768.282,867.953Z" transform="translate(-764.735 -861.66)" fill="#fff" opacity="0.75"/>
                <path id="Trazado_150492" data-name="Trazado 150492" d="M773.931,842.614h0a1.757,1.757,0,0,1,2.423.659l2.257,4.046a.564.564,0,0,0,1.007-.044l5.6-12.465a.625.625,0,0,1,1.2.27,24.61,24.61,0,0,1-7.161,17.126s-3.357-1.3-6.061-7.242A1.843,1.843,0,0,1,773.931,842.614Z" transform="translate(-769.898 -834.441)" fill="#008f85"/>
              </g>
            </g>
            <g id="Grupo_91541" data-name="Grupo 91541" transform="translate(0.548 72.444)">
              <g id="Grupo_91537" data-name="Grupo 91537" transform="translate(26.712)" opacity="0.6">
                <path id="Trazado_150493" data-name="Trazado 150493" d="M915.255,1114.244a3.159,3.159,0,0,0,3.118,2.117l119.085-.9a2.162,2.162,0,1,0-.01-4.3l-119.088-.483A2.934,2.934,0,0,0,915.255,1114.244Z" transform="translate(-915.148 -1110.678)" fill="#2a383e"/>
              </g>
              <g id="Grupo_91538" data-name="Grupo 91538" transform="translate(25.982 15.289)" opacity="0.6">
                <path id="Trazado_150494" data-name="Trazado 150494" d="M910.9,1204.288c.17,1.256.753,2.128,1.418,2.117l54.183-.9c.613-.01,1.1-1,1.09-2.2-.013-1.164-.5-2.1-1.094-2.1l-54.185-.483C911.354,1200.714,910.654,1202.481,910.9,1204.288Z" transform="translate(-910.849 -1200.722)" fill="#2a383e"/>
              </g>
              <g id="Grupo_91539" data-name="Grupo 91539" transform="translate(25.483 30.927)" opacity="0.6">
                <path id="Trazado_150495" data-name="Trazado 150495" d="M907.994,1296.385a2.58,2.58,0,0,0,2.445,2.117l93.4-.9a2.168,2.168,0,0,0-.008-4.3l-93.4-.483A2.782,2.782,0,0,0,907.994,1296.385Z" transform="translate(-907.91 -1292.818)" fill="#2a383e"/>
              </g>
              <g id="Grupo_91540" data-name="Grupo 91540" transform="translate(0 6.931)">
                <path id="Trazado_150496" data-name="Trazado 150496" d="M773.467,1190.081h-.031l-11.444-.11a3.076,3.076,0,0,1-3.14-2.617l-1.006-9.6a2.087,2.087,0,0,1,.493-1.57,2.514,2.514,0,0,1,1.751-.864h0c.964-.066,2.322-.182,3.759-.3,3.027-.258,6.794-.578,8.914-.6a3.2,3.2,0,0,1,3.2,2.241c.6,2.2.544,6.377.43,10.822A2.828,2.828,0,0,1,773.467,1190.081ZM760.15,1176.2a1.629,1.629,0,0,0-1.138.553,1.213,1.213,0,0,0-.292.912l1.006,9.6a2.2,2.2,0,0,0,2.274,1.829l11.444.11h.023a1.95,1.95,0,0,0,2.052-1.751c.112-4.378.165-8.48-.4-10.57a2.361,2.361,0,0,0-2.345-1.592c-2.088.026-5.838.345-8.85.6-1.442.123-2.8.239-3.774.3Z" transform="translate(-757.835 -1170.52)" fill="#fff"/>
                <path id="Trazado_150497" data-name="Trazado 150497" d="M771.508,1185.011c2.4-.164,7.63-.694,10.108-.726a2.215,2.215,0,0,1,2.217,1.532c.478,1.768.415,5.294.332,8.547a1.9,1.9,0,0,1-2.013,1.742l-9.145-.088a2.112,2.112,0,0,1-2.163-1.776l-.8-7.673A1.486,1.486,0,0,1,771.508,1185.011Z" transform="translate(-767.961 -1178.718)" fill="#fff" opacity="0.75"/>
                <path id="Trazado_150498" data-name="Trazado 150498" d="M777.158,1159.672h0a1.757,1.757,0,0,1,2.423.659l2.257,4.047a.564.564,0,0,0,1.007-.043l5.6-12.465a.625.625,0,0,1,1.195.27,24.608,24.608,0,0,1-7.161,17.126s-3.357-1.3-6.061-7.242A1.842,1.842,0,0,1,777.158,1159.672Z" transform="translate(-773.124 -1151.5)" fill="#008f85"/>
              </g>
            </g>
            <g id="Grupo_91546" data-name="Grupo 91546" transform="translate(0.347 125.386)">
              <g id="Grupo_91542" data-name="Grupo 91542" transform="translate(26.712)" opacity="0.6">
                <path id="Trazado_150499" data-name="Trazado 150499" d="M914.074,1426.041a3.16,3.16,0,0,0,3.117,2.117l119.085-.9a2.162,2.162,0,1,0-.01-4.3l-119.088-.483A2.934,2.934,0,0,0,914.074,1426.041Z" transform="translate(-913.967 -1422.474)" fill="#2a383e"/>
              </g>
              <g id="Grupo_91543" data-name="Grupo 91543" transform="translate(25.982 15.289)" opacity="0.6">
                <path id="Trazado_150500" data-name="Trazado 150500" d="M909.742,1516.084a2.377,2.377,0,0,0,2.151,2.117l82.163-.9a1.972,1.972,0,0,0,1.653-2.2,1.945,1.945,0,0,0-1.659-2.1l-82.165-.483C910.433,1512.51,909.372,1514.277,909.742,1516.084Z" transform="translate(-909.668 -1512.518)" fill="#2a383e"/>
              </g>
              <g id="Grupo_91544" data-name="Grupo 91544" transform="translate(25.483 30.927)" opacity="0.6">
                <path id="Trazado_150501" data-name="Trazado 150501" d="M906.772,1608.18c.15,1.256.667,2.128,1.255,2.117l47.939-.9c.542-.01.976-1,.964-2.2-.011-1.164-.441-2.1-.968-2.1l-47.941-.483C907.175,1604.605,906.556,1606.373,906.772,1608.18Z" transform="translate(-906.728 -1604.614)" fill="#2a383e"/>
              </g>
              <g id="Grupo_91545" data-name="Grupo 91545" transform="translate(0 6.931)">
                <path id="Trazado_150502" data-name="Trazado 150502" d="M772.286,1501.877h-.031l-11.444-.11a3.077,3.077,0,0,1-3.14-2.617l-1.006-9.6a2.088,2.088,0,0,1,.493-1.57,2.515,2.515,0,0,1,1.751-.864h0c.964-.066,2.322-.181,3.759-.3,3.027-.258,6.794-.578,8.914-.605a3.2,3.2,0,0,1,3.2,2.242c.6,2.2.544,6.377.431,10.822A2.828,2.828,0,0,1,772.286,1501.877Zm-13.318-13.885a1.627,1.627,0,0,0-1.138.553,1.214,1.214,0,0,0-.292.912l1.006,9.6a2.2,2.2,0,0,0,2.274,1.829l11.445.11h.023a1.949,1.949,0,0,0,2.052-1.751c.112-4.378.165-8.48-.4-10.57a2.362,2.362,0,0,0-2.345-1.592c-2.088.026-5.837.345-8.85.6-1.441.123-2.8.239-3.774.305Z" transform="translate(-756.653 -1482.316)" fill="#fff"/>
                <path id="Trazado_150503" data-name="Trazado 150503" d="M770.326,1496.807c2.4-.164,7.63-.695,10.108-.725a2.215,2.215,0,0,1,2.217,1.532c.478,1.768.415,5.294.332,8.547a1.9,1.9,0,0,1-2.012,1.741l-9.146-.088a2.113,2.113,0,0,1-2.163-1.776l-.8-7.673A1.485,1.485,0,0,1,770.326,1496.807Z" transform="translate(-766.78 -1490.514)" fill="#fff" opacity="0.75"/>
                <path id="Trazado_150504" data-name="Trazado 150504" d="M775.976,1471.468h0a1.756,1.756,0,0,1,2.423.659l2.257,4.047a.564.564,0,0,0,1.007-.044l5.6-12.464a.625.625,0,0,1,1.2.27,24.609,24.609,0,0,1-7.161,17.126s-3.357-1.305-6.061-7.242A1.842,1.842,0,0,1,775.976,1471.468Z" transform="translate(-771.943 -1463.296)" fill="#008f85"/>
              </g>
            </g>
            <g id="Grupo_91551" data-name="Grupo 91551" transform="translate(0.014 181.614)">
              <g id="Grupo_91547" data-name="Grupo 91547" transform="translate(26.712)" opacity="0.6">
                <path id="Trazado_150505" data-name="Trazado 150505" d="M912.109,1757.184a3.159,3.159,0,0,0,3.117,2.117l119.085-.9a2.162,2.162,0,1,0-.01-4.3l-119.088-.483A2.934,2.934,0,0,0,912.109,1757.184Z" transform="translate(-912.002 -1753.618)" fill="#2a383e"/>
              </g>
              <g id="Grupo_91548" data-name="Grupo 91548" transform="translate(25.982 15.289)" opacity="0.6">
                <path id="Trazado_150506" data-name="Trazado 150506" d="M907.777,1847.229a2.378,2.378,0,0,0,2.151,2.117l82.163-.9a1.972,1.972,0,0,0,1.652-2.2,1.945,1.945,0,0,0-1.659-2.1l-82.165-.483C908.469,1843.653,907.408,1845.421,907.777,1847.229Z" transform="translate(-907.703 -1843.662)" fill="#2a383e"/>
              </g>
              <g id="Grupo_91549" data-name="Grupo 91549" transform="translate(25.483 30.927)" opacity="0.6">
                <path id="Trazado_150507" data-name="Trazado 150507" d="M904.831,1939.325c.235,1.256,1.043,2.128,1.963,2.116l74.979-.9c.848-.01,1.527-1,1.508-2.2-.018-1.164-.69-2.1-1.514-2.1l-74.981-.483C905.462,1935.75,904.494,1937.517,904.831,1939.325Z" transform="translate(-904.764 -1935.758)" fill="#fff"/>
              </g>
              <g id="Grupo_91550" data-name="Grupo 91550" transform="translate(0 6.931)">
                <path id="Trazado_150508" data-name="Trazado 150508" d="M770.321,1833.021h-.031l-11.444-.11a3.076,3.076,0,0,1-3.14-2.616l-1.006-9.6a2.087,2.087,0,0,1,.493-1.57,2.512,2.512,0,0,1,1.751-.864h0c.964-.066,2.322-.181,3.759-.3,3.027-.258,6.794-.579,8.914-.6a3.2,3.2,0,0,1,3.2,2.241c.6,2.2.544,6.377.431,10.822A2.828,2.828,0,0,1,770.321,1833.021ZM757,1819.136a1.629,1.629,0,0,0-1.138.553,1.215,1.215,0,0,0-.292.912l1.006,9.6a2.2,2.2,0,0,0,2.274,1.83l11.444.11h.023a1.949,1.949,0,0,0,2.052-1.751c.112-4.378.165-8.48-.4-10.571a2.361,2.361,0,0,0-2.345-1.592c-2.088.027-5.837.346-8.85.6-1.441.123-2.8.239-3.774.305Z" transform="translate(-754.689 -1813.46)" fill="#fff"/>
                <path id="Trazado_150509" data-name="Trazado 150509" d="M768.362,1827.951c2.4-.165,7.63-.695,10.108-.726a2.216,2.216,0,0,1,2.217,1.532c.478,1.768.415,5.293.332,8.547a1.9,1.9,0,0,1-2.013,1.742l-9.145-.088a2.113,2.113,0,0,1-2.163-1.776l-.8-7.674A1.485,1.485,0,0,1,768.362,1827.951Z" transform="translate(-764.815 -1821.658)" fill="#fff" opacity="0.75"/>
                <path id="Trazado_150510" data-name="Trazado 150510" d="M774.012,1802.612h0a1.756,1.756,0,0,1,2.423.659l2.257,4.047a.564.564,0,0,0,1.007-.044l5.6-12.465a.625.625,0,0,1,1.195.27,24.61,24.61,0,0,1-7.161,17.126s-3.357-1.3-6.061-7.242A1.842,1.842,0,0,1,774.012,1802.612Z" transform="translate(-769.978 -1794.44)" fill="#008f85"/>
              </g>
            </g>
          </g>
        </g>
        <path id="Trazado_150511" data-name="Trazado 150511" d="M1140.527,339.709c-5.8-4.033-10.838-3.953-14.386-2.906a7.077,7.077,0,0,0-5.027,7.441l1.53,16.7,18.209,1.616S1151.9,347.618,1140.527,339.709Zm-8.008,13.475a4.54,4.54,0,1,1,4.541-4.54A4.54,4.54,0,0,1,1132.52,353.184Z" transform="translate(-1031.459 -336.194)" fill="#333435"/>
        <g id="Grupo_91554" data-name="Grupo 91554" transform="translate(91.877 2.446)">
          <path id="Trazado_150512" data-name="Trazado 150512" d="M1135.47,365.878a.439.439,0,0,1-.437-.4l-.244-2.66a.439.439,0,1,1,.875-.08l.244,2.66a.44.44,0,0,1-.4.478Zm-.478-5.213a.439.439,0,0,1-.437-.4l-.185-2.019a6.756,6.756,0,0,1,4.79-7.088,13.612,13.612,0,0,1,6.655-.273.439.439,0,0,1-.177.861,12.753,12.753,0,0,0-6.23.255,5.875,5.875,0,0,0-4.164,6.166l.185,2.019a.439.439,0,0,1-.4.478Z" transform="translate(-1134.342 -350.598)" fill="#5c5e61"/>
        </g>
        <path id="Trazado_150513" data-name="Trazado 150513" d="M983.911,479.426v-8.4a5.125,5.125,0,0,1,5.3-5.121l57.9,1.984a4.984,4.984,0,0,1,4.8,4.682l.484,8.069Z" transform="translate(-917.577 -443.879)" fill="#333435"/>
        <path id="Trazado_150514" data-name="Trazado 150514" d="M1096.729,480.261h-2.489a.439.439,0,1,1,0-.879h2.489a.439.439,0,1,1,0,.879Z" transform="translate(-1008.807 -455.069)" fill="#5c5e61"/>
        <path id="Trazado_150515" data-name="Trazado 150515" d="M1000.218,487.978a.439.439,0,0,1-.439-.44v-3.4a4.765,4.765,0,0,1,4.76-4.76h9.154a.439.439,0,1,1,0,.879h-9.154a3.886,3.886,0,0,0-3.881,3.881v3.4A.439.439,0,0,1,1000.218,487.978Z" transform="translate(-930.751 -455.069)" fill="#5c5e61"/>
        <path id="Trazado_150516" data-name="Trazado 150516" d="M843.862,532.619a5.456,5.456,0,0,1,5.449-5.194l101.243,0a7.483,7.483,0,0,1,7.374,6.207l.086.495a6.427,6.427,0,0,1-6.332,7.523H847.813a4.178,4.178,0,0,1-4.174-4.379Z" transform="translate(-801.119 -494.952)" fill="#333435"/>
      </g>
    </g>
    <g id="Grupo_128934" data-name="Grupo 128934" transform="translate(275.474 20526.367)">
      <g id="Grupo_128932" data-name="Grupo 128932" transform="translate(164.895 161.875)">
        <path id="Rectángulo_35713" data-name="Rectángulo 35713" d="M4.333,0H27a4.333,4.333,0,0,1,4.333,4.333V60.506a0,0,0,0,1,0,0H0a0,0,0,0,1,0,0V4.333A4.333,4.333,0,0,1,4.333,0Z" transform="translate(19.289 243.721)" fill="#db8804"/>
        <path id="Trazado_165975" data-name="Trazado 165975" d="M240.739,317.061h0a16.407,16.407,0,0,1-16.406-16.406V276.643a12.993,12.993,0,0,0-12.994-12.994h-9.967a10.869,10.869,0,0,0-10.87,10.87v49.789a6.94,6.94,0,0,0,6.94,6.94h43.73a7.112,7.112,0,0,0,6.99-8.305A7.405,7.405,0,0,0,240.739,317.061Z" transform="translate(-129.18 -19.927)" fill="#db8804"/>
        <path id="Trazado_165976" data-name="Trazado 165976" d="M175.5,276.566c-.821,10.836,2.589,20.056,9.869,28.124-13.494,32.209-14.51,71.981,1.707,100.986,5.707,10.206,20.667,9.859,25.434-.819a97.5,97.5,0,0,0,7.644-49.59,43.907,43.907,0,0,0,8.142,21.217,36.107,36.107,0,0,0-2.517,25.628c4.021,14.773,24.644,15.513,30.035,1.183,12.261-32.58,5.546-73.082-14.689-103.538a33.374,33.374,0,0,0,4.873-29.422,75.826,75.826,0,0,0-11.473-46.441,30.815,30.815,0,0,0-1.664-28.31,25.734,25.734,0,0,0-2.45-28.1c-7.148-9.066-21.691-6.705-26.024,4a33.429,33.429,0,0,0-2.428,13.557,40.562,40.562,0,0,0-16.282,27.571h0a17.959,17.959,0,0,0-18.415,15.6l-1.7,12.864C163.01,260.412,171.909,271.272,175.5,276.566Z" transform="translate(-164.595 -161.875)" fill="url(#linear-gradient-2)"/>
        <path id="Trazado_165977" data-name="Trazado 165977" d="M209.71,180.2a22.692,22.692,0,0,1-8.779,16.354,10.878,10.878,0,0,1-17.137-5.362,20.97,20.97,0,0,1,2.912-18.332l19.8,5.3Z" transform="translate(-139.846 -146.553)" fill="#868695"/>
        <path id="Trazado_165978" data-name="Trazado 165978" d="M176.433,220.912a.461.461,0,0,1-.2-.043.483.483,0,0,1-.247-.639,38.006,38.006,0,0,0-1.581-34.1.482.482,0,1,1,.838-.474,38.978,38.978,0,0,1,1.626,34.975A.48.48,0,0,1,176.433,220.912Z" transform="translate(-151.714 -129.052)" fill="#241414"/>
        <path id="Trazado_165979" data-name="Trazado 165979" d="M199.774,194.316a37.294,37.294,0,0,1-22.611-7.63.482.482,0,0,1-.093-.678.491.491,0,0,1,.675-.093,36.335,36.335,0,0,0,25.082,7.306l.041,0a.483.483,0,0,1,.043.965Q201.338,194.317,199.774,194.316Z" transform="translate(-148.052 -128.476)" fill="#241414"/>
        <path id="Trazado_165980" data-name="Trazado 165980" d="M186.006,226.9a26.386,26.386,0,0,1-10.266-2.091.487.487,0,0,1-.256-.635.493.493,0,0,1,.635-.256A25.2,25.2,0,0,0,200.6,221.27a9.677,9.677,0,0,0,4.172-8.937,9.944,9.944,0,0,0-6.039-8.14,24.216,24.216,0,0,0-8.417-2.026c-.474-.029-.951-.041-1.427-.041a24.236,24.236,0,0,0-18.023,8,.479.479,0,0,1-.682.034.484.484,0,0,1-.034-.683,25.325,25.325,0,0,1,28.976-6.171,10.913,10.913,0,0,1,6.609,8.928,10.636,10.636,0,0,1-4.574,9.821A26.231,26.231,0,0,1,186.006,226.9Z" transform="translate(-157.748 -107.079)" fill="#241414"/>
        <path id="Trazado_165981" data-name="Trazado 165981" d="M176.142,222.469a.484.484,0,0,1-.026-.967L220.8,219.1a.514.514,0,0,1,.51.457.486.486,0,0,1-.455.51l-44.688,2.407Z" transform="translate(-149.884 -82.068)" fill="#1d272b"/>
        <path id="Trazado_165982" data-name="Trazado 165982" d="M176.295,224.747a.484.484,0,0,1-.026-.967l44.688-2.4a.516.516,0,0,1,.51.457.489.489,0,0,1-.457.51l-44.688,2.4Z" transform="translate(-149.668 -78.888)" fill="#1d272b"/>
        <path id="Trazado_165983" data-name="Trazado 165983" d="M190.048,260.749a.569.569,0,0,1-.125-.014.483.483,0,0,1-.342-.589,54.261,54.261,0,0,0-2.32-34.355.481.481,0,1,1,.888-.371,55.2,55.2,0,0,1,2.368,34.97A.483.483,0,0,1,190.048,260.749Z" transform="translate(-133.753 -73.66)" fill="#1d272b"/>
        <path id="Trazado_165984" data-name="Trazado 165984" d="M192.521,260.749a.568.568,0,0,1-.125-.014.483.483,0,0,1-.342-.589,54.294,54.294,0,0,0-2.32-34.355.483.483,0,1,1,.891-.371,55.281,55.281,0,0,1,2.366,34.97A.483.483,0,0,1,192.521,260.749Z" transform="translate(-130.303 -73.66)" fill="#1d272b"/>
        <path id="Trazado_165985" data-name="Trazado 165985" d="M236.833,185.925H198.7l-13.8,56.418h38.13Z" transform="translate(-136.993 -128.331)" fill="#241414"/>
        <path id="Trazado_165986" data-name="Trazado 165986" d="M187.655,229.866a.478.478,0,0,1-.278-.089.486.486,0,0,1-.12-.673,29.606,29.606,0,0,0,5.28-18.387.487.487,0,0,1,.457-.508h.026a.484.484,0,0,1,.481.46,30.562,30.562,0,0,1-5.453,18.99A.482.482,0,0,1,187.655,229.866Z" transform="translate(-133.825 -94.46)" fill="#1d272b"/>
        <path id="Trazado_165987" data-name="Trazado 165987" d="M190.242,229.866a.466.466,0,0,1-.275-.089.485.485,0,0,1-.122-.673,29.606,29.606,0,0,0,5.28-18.387.491.491,0,0,1,.457-.508h.026a.487.487,0,0,1,.484.46,30.565,30.565,0,0,1-5.455,18.99A.482.482,0,0,1,190.242,229.866Z" transform="translate(-130.216 -94.46)" fill="#1d272b"/>
        <path id="Trazado_165988" data-name="Trazado 165988" d="M217.318,179.4l-.812,3.518a159.052,159.052,0,0,1-26.32-6.183c-3.48-1.121-6.918-2.359-10.36-3.75l.388-3.633c3.515,1.43,7.11,2.706,10.7,3.865A166.643,166.643,0,0,0,217.318,179.4Z" transform="translate(-144.07 -151.444)" fill="#1d272b"/>
        <path id="Trazado_165989" data-name="Trazado 165989" d="M195.2,185.433a.47.47,0,0,1-.115-.012.481.481,0,0,1-.354-.584,24.257,24.257,0,0,0-5.024-21.224.485.485,0,0,1,.057-.68.491.491,0,0,1,.683.057,25.222,25.222,0,0,1,5.221,22.075A.48.48,0,0,1,195.2,185.433Z" transform="translate(-130.449 -160.555)" fill="#1d272b"/>
        <path id="Trazado_165990" data-name="Trazado 165990" d="M193.393,184.97a.619.619,0,0,1-.113-.012.481.481,0,0,1-.354-.584,24.237,24.237,0,0,0-5.024-21.224.485.485,0,0,1,.057-.683.494.494,0,0,1,.683.06,25.2,25.2,0,0,1,5.221,22.072A.481.481,0,0,1,193.393,184.97Z" transform="translate(-132.964 -161.201)" fill="#1d272b"/>
        <path id="Trazado_165991" data-name="Trazado 165991" d="M211.3,177.15l-.812,3.518c-1.274,5.489-9.354,9.2-10.087.426-7.036,8.851-16.813,2.28-16.234-6.609a13.016,13.016,0,0,1,.733-3.518A166.644,166.644,0,0,0,211.3,177.15Z" transform="translate(-138.051 -149.193)" fill="#1d272b"/>
        <path id="Trazado_165992" data-name="Trazado 165992" d="M187.655,191.538a.471.471,0,0,1-.417-.239.481.481,0,0,1,.17-.661,15.433,15.433,0,0,0,7.6-13.1.483.483,0,0,1,.484-.479h0a.481.481,0,0,1,.479.489,16.4,16.4,0,0,1-8.073,13.921A.488.488,0,0,1,187.655,191.538Z" transform="translate(-133.826 -140.692)" fill="#1d272b"/>
        <path id="Trazado_165993" data-name="Trazado 165993" d="M196.032,199.072c-.853,3.487-14.55,6.37-14.737,15.436s19.962,4.811,19.962,4.811,3.985-1.094,1.255-3.87a2.078,2.078,0,0,0,2.241-2.055c0-1.712-2.7-1.324-2.7-1.324,3.276-.627,3.451-3.135,2.021-3.515s-8.98,1.662-10.357,0,8.827-.728,9.138-3.446-7.986-1.264-7.986-1.264Z" transform="translate(-142.023 -109.994)" fill="#db8804"/>
        <path id="Trazado_165994" data-name="Trazado 165994" d="M185.032,203.844a.473.473,0,0,1-.376-.182.479.479,0,0,1,.079-.68,9.69,9.69,0,0,1,4.114-1.9.5.5,0,0,1,.57.378.488.488,0,0,1-.381.568,8.771,8.771,0,0,0-3.707,1.717A.483.483,0,0,1,185.032,203.844Z" transform="translate(-137.482 -107.206)" fill="#1d272b"/>
        <path id="Trazado_165995" data-name="Trazado 165995" d="M189.044,206.053a29.372,29.372,0,0,1-3.719-.235.483.483,0,1,1,.122-.958,28.627,28.627,0,0,0,9.9-.479.494.494,0,0,1,.577.366.485.485,0,0,1-.366.577A29.486,29.486,0,0,1,189.044,206.053Z" transform="translate(-136.99 -102.602)" fill="#1d272b"/>
        <path id="Trazado_165996" data-name="Trazado 165996" d="M188.779,207.589a31,31,0,0,1-3.36-.182.482.482,0,0,1-.426-.534.445.445,0,0,1,.532-.429,29.8,29.8,0,0,0,10.247-.651.49.49,0,0,1,.582.357.48.48,0,0,1-.354.584A30.9,30.9,0,0,1,188.779,207.589Z" transform="translate(-136.868 -100.635)" fill="#1d272b"/>
        <path id="Trazado_165997" data-name="Trazado 165997" d="M203.529,300.139H178.24a7.114,7.114,0,0,1-7.093-7.093h0a7.114,7.114,0,0,1,7.093-7.093h25.288a7.112,7.112,0,0,1,7.091,7.093h0A7.112,7.112,0,0,1,203.529,300.139Z" transform="translate(-156.175 11.181)" fill="#db8804"/>
        <path id="Trazado_165998" data-name="Trazado 165998" d="M178.329,305.45a.482.482,0,0,1-.481-.484V268.822a.483.483,0,0,1,.965,0v36.144A.484.484,0,0,1,178.329,305.45Z" transform="translate(-146.829 -13.383)" fill="#1d272b"/>
        <path id="Trazado_165999" data-name="Trazado 165999" d="M181.059,305.45a.482.482,0,0,1-.481-.484V268.822a.483.483,0,0,1,.965,0v36.144A.484.484,0,0,1,181.059,305.45Z" transform="translate(-143.021 -13.383)" fill="#1d272b"/>
        <path id="Trazado_166000" data-name="Trazado 166000" d="M178.329,297.372a.482.482,0,0,1-.481-.484v-9.313a.483.483,0,1,1,.965,0v9.313A.484.484,0,0,1,178.329,297.372Z" transform="translate(-146.829 12.768)" fill="#1d272b"/>
        <path id="Trazado_166001" data-name="Trazado 166001" d="M181.059,297.372a.482.482,0,0,1-.481-.484v-9.313a.483.483,0,1,1,.965,0v9.313A.484.484,0,0,1,181.059,297.372Z" transform="translate(-143.021 12.768)" fill="#1d272b"/>
        <path id="Trazado_166002" data-name="Trazado 166002" d="M225.59,318.549a21.883,21.883,0,0,1-21.883-21.885V272.651a7.46,7.46,0,0,0-2.206-5.314.493.493,0,0,1,0-.685.487.487,0,0,1,.687,0,8.438,8.438,0,0,1,2.483,6v24.012a20.919,20.919,0,0,0,20.918,20.918.484.484,0,1,1,0,.967Z" transform="translate(-114.031 -15.935)" fill="#1d272b"/>
        <path id="Trazado_166003" data-name="Trazado 166003" d="M185.294,269.59a15.957,15.957,0,0,1-9.675-3.515.483.483,0,0,1,.582-.771c5.843,4.428,12.462,4.406,18.162-.055a.492.492,0,0,1,.68.081.484.484,0,0,1-.084.68A15.625,15.625,0,0,1,185.294,269.59Z" transform="translate(-150.206 -17.836)" fill="#241414"/>
        <path id="Trazado_166004" data-name="Trazado 166004" d="M202.961,270.687a18.043,18.043,0,0,1-10.436-3.729.483.483,0,0,1,.558-.788c7.194,5.091,14.273,4.665,21.054-1.264a.483.483,0,0,1,.635.728C210.919,269,206.97,270.687,202.961,270.687Z" transform="translate(-126.641 -18.341)" fill="#241414"/>
        <path id="Trazado_166005" data-name="Trazado 166005" d="M192.136,254.518a.484.484,0,0,1-.441-.675l2.093-4.811a.482.482,0,1,1,.884.386l-1.585,3.64,2.546-1.188a.483.483,0,1,1,.407.876l-3.7,1.727A.468.468,0,0,1,192.136,254.518Z" transform="translate(-127.574 -40.72)" fill="#241414"/>
        <path id="Trazado_166006" data-name="Trazado 166006" d="M191.472,275.743a.492.492,0,0,1-.469-.357,36.444,36.444,0,0,1,.948-22.242.485.485,0,0,1,.62-.287.48.48,0,0,1,.285.62,35.481,35.481,0,0,0-.917,21.655.484.484,0,0,1-.34.594A.6.6,0,0,1,191.472,275.743Z" transform="translate(-130.291 -35.021)" fill="#241414"/>
        <path id="Trazado_166007" data-name="Trazado 166007" d="M178.627,313.446a.484.484,0,0,1-.438-.28c-11.619-25.147-12.172-58.278-1.482-88.622a.485.485,0,0,1,.915.321c-10.611,30.114-10.072,62.972,1.444,87.9a.477.477,0,0,1-.232.639A.494.494,0,0,1,178.627,313.446Z" transform="translate(-159.08 -74.913)" fill="#241414"/>
        <path id="Trazado_166008" data-name="Trazado 166008" d="M213.057,307.874l-1-.235c6.387-26.833,1.336-58.5-13.506-84.718l.888-.505C214.408,248.851,219.5,280.8,213.057,307.874Z" transform="translate(-117.955 -77.436)" fill="#1d272b"/>
        <path id="Trazado_166009" data-name="Trazado 166009" d="M185.643,284.129l-.936-.417a94.412,94.412,0,0,0,8.042-35.128l1.025.036A95.431,95.431,0,0,1,185.643,284.129Z" transform="translate(-137.262 -40.938)" fill="#fff"/>
        <path id="Trazado_166010" data-name="Trazado 166010" d="M175.372,261.976c-.273-.4-.572-.829-.9-1.293-4.023-5.762-11.5-16.483-9.124-34.561l1.7-12.862a18.408,18.408,0,0,1,18.3-16.054h.18a41.132,41.132,0,0,1,13.011-24.663l.687.757a40.087,40.087,0,0,0-12.74,24.5l-.06.462-.465-.017c-.2-.007-.41-.01-.613-.01a17.383,17.383,0,0,0-17.278,15.163l-1.7,12.862c-2.328,17.683,5.007,28.193,8.949,33.84.328.467.632.9.9,1.305Z" transform="translate(-164.895 -146.996)" fill="#1d272b"/>
      </g>
      <g id="Grupo_128933" data-name="Grupo 128933" transform="translate(246.662 169.922)">
        <path id="Trazado_166011" data-name="Trazado 166011" d="M244.243,228.069a53.52,53.52,0,0,1-26.433-23.052,12.953,12.953,0,0,1,.376-13.8A72.079,72.079,0,0,1,244.243,168.3l16.191,50.237Z" transform="translate(-205.379 -160.959)" fill="#fff"/>
        <path id="Trazado_166012" data-name="Trazado 166012" d="M235.153,317.061h0a16.405,16.405,0,0,0,16.406-16.406V276.643a12.993,12.993,0,0,1,12.994-12.994h9.969a10.871,10.871,0,0,1,10.87,10.87v49.789a6.942,6.942,0,0,1-6.94,6.94h-43.73a7.112,7.112,0,0,1-6.993-8.305A7.405,7.405,0,0,1,235.153,317.061Z" transform="translate(-189.167 -27.974)" fill="#db8804"/>
        <path id="Trazado_166013" data-name="Trazado 166013" d="M274.652,203.836q1.979.92,3.858,1.99c17.707,10.063,22.688,33.076,11.976,50.4a56.538,56.538,0,0,0-8.185,35.32,40.278,40.278,0,0,1,5.429,46.628,75.427,75.427,0,0,1,7.6,51.578c-3.63,17.335-25.631,22.566-37.169,9.129a111.2,111.2,0,0,1-22.731-102.339,67.364,67.364,0,0,1,1.93-74.562,50.113,50.113,0,0,1-14.435-43.527c2.079-13.37,19.481-17.477,27.41-6.511a48.48,48.48,0,0,1,6.559,12.654A25.152,25.152,0,0,1,274.652,203.836Z" transform="translate(-196.562 -164.668)" fill="url(#linear-gradient-2)"/>
        <path id="Trazado_166014" data-name="Trazado 166014" d="M234.746,178.062a13.117,13.117,0,0,1,4.071,22.637l-10.546-2.1-5.946-11.878,2.306-7.179Z" transform="translate(-196.562 -147.345)" fill="#868695"/>
        <path id="Trazado_166015" data-name="Trazado 166015" d="M231.244,222.774a.483.483,0,0,1-.055-.963l32.75-3.793a.5.5,0,0,1,.536.424.482.482,0,0,1-.422.534L231.3,222.769Z" transform="translate(-184.796 -91.622)" fill="#1d272b"/>
        <path id="Trazado_166016" data-name="Trazado 166016" d="M231.244,225.343a.483.483,0,0,1-.055-.963l32.75-3.793a.491.491,0,0,1,.536.424.479.479,0,0,1-.422.534L231.3,225.339Z" transform="translate(-184.796 -88.04)" fill="#1d272b"/>
        <path id="Trazado_166017" data-name="Trazado 166017" d="M246.392,299.363a.487.487,0,0,1-.4-.208,100.243,100.243,0,0,1-16.174-73.628.482.482,0,1,1,.951.16,99.278,99.278,0,0,0,16.023,72.919.483.483,0,0,1-.127.673A.476.476,0,0,1,246.392,299.363Z" transform="translate(-188.099 -81.708)" fill="#1d272b"/>
        <path id="Trazado_166018" data-name="Trazado 166018" d="M233.178,190.989a.49.49,0,0,1-.292-.1.481.481,0,0,1-.093-.675,22.616,22.616,0,0,1,22.312-8.585.484.484,0,1,1-.189.948,21.654,21.654,0,0,0-21.354,8.214A.474.474,0,0,1,233.178,190.989Z" transform="translate(-182.1 -142.939)" fill="#241414"/>
        <path id="Trazado_166019" data-name="Trazado 166019" d="M227.11,212.108a.613.613,0,0,1-.144-.022.48.48,0,0,1-.316-.6,64.678,64.678,0,0,1,13.09-23.593.485.485,0,0,1,.733.635,63.755,63.755,0,0,0-12.9,23.241A.481.481,0,0,1,227.11,212.108Z" transform="translate(-190.562 -133.868)" fill="#1d272b"/>
        <path id="Trazado_166020" data-name="Trazado 166020" d="M233.823,231.763a.48.48,0,0,1-.419-.244,64.912,64.912,0,0,1-7.534-20.741.481.481,0,0,1,.388-.558.466.466,0,0,1,.563.39,63.9,63.9,0,0,0,7.421,20.429.481.481,0,0,1-.182.659A.465.465,0,0,1,233.823,231.763Z" transform="translate(-191.628 -102.508)" fill="#1d272b"/>
        <path id="Trazado_166021" data-name="Trazado 166021" d="M231.052,318.549a.484.484,0,1,1,0-.967,20.927,20.927,0,0,0,20.918-20.918V272.651a8.428,8.428,0,0,1,2.483-6,.487.487,0,0,1,.687,0,.493.493,0,0,1,0,.685,7.45,7.45,0,0,0-2.206,5.314v24.012a21.892,21.892,0,0,1-21.883,21.885Z" transform="translate(-185.066 -23.983)" fill="#1d272b"/>
        <path id="Trazado_166022" data-name="Trazado 166022" d="M230.276,166.571c9.234-4.469,18.717,3.048,15.853,11.08a3.323,3.323,0,0,1-5.218,1.48c-1.686-1.406-3.116-3.6-1.669-6.626A15.291,15.291,0,0,0,230.276,166.571Z" transform="translate(-185.473 -165.235)" fill="#fff"/>
        <path id="Trazado_166023" data-name="Trazado 166023" d="M224.757,185.483a.481.481,0,0,1-.46-.338,18.026,18.026,0,0,1,3.992-17.652.484.484,0,0,1,.711.656,17.067,17.067,0,0,0-3.784,16.706.481.481,0,0,1-.46.627Z" transform="translate(-194.962 -162.3)" fill="#1d272b"/>
        <path id="Trazado_166024" data-name="Trazado 166024" d="M257.306,176.142l-33.985,12.274-1.295-5.428,33.5-11.288Z" transform="translate(-196.979 -156.218)" fill="#1d272b"/>
        <path id="Trazado_166025" data-name="Trazado 166025" d="M223.32,184.589c2.649,10.161,15.527,11.787,12.7-10.144l-13.99,4.715Z" transform="translate(-196.978 -152.39)" fill="#1d272b"/>
        <path id="Trazado_166026" data-name="Trazado 166026" d="M226.358,189.652a.473.473,0,0,1-.261-.077.484.484,0,0,1-.148-.666,15.65,15.65,0,0,0,1.753-13.015.481.481,0,1,1,.92-.283,16.6,16.6,0,0,1-1.856,13.815A.48.48,0,0,1,226.358,189.652Z" transform="translate(-191.613 -151.234)" fill="#fff"/>
        <path id="Trazado_166027" data-name="Trazado 166027" d="M239.083,205.2c-8.022,1.834-14.021-11.5-26.7-4.014a1.372,1.372,0,0,0,.821,2.548,8.787,8.787,0,0,0,2.024-.431c3.1-1.063,6.964,1.018,6.964,1.018a12.646,12.646,0,0,0-10.261,2.615.921.921,0,0,0,.611,1.652,24.585,24.585,0,0,1,5.692.311s-2.368.967-4.572,4.689a.92.92,0,0,0,1.178,1.305,23.7,23.7,0,0,1,5.151-1.691,17.4,17.4,0,0,0-2.538,2.447.92.92,0,0,0,1.109,1.425c3.554-1.779,6.5-2.6,9.988-1.281,4.533,1.71,9.622-1.111,9.622-1.111l1.2-9.576Z" transform="translate(-211.567 -118.297)" fill="#db8804"/>
        <path id="Trazado_166028" data-name="Trazado 166028" d="M215.134,204.655a.493.493,0,0,1-.393-.2.486.486,0,0,1,.11-.675,9.979,9.979,0,0,1,5.826-1.9.513.513,0,0,1,.536.484.484.484,0,0,1-.484.484h-.053a9.016,9.016,0,0,0-5.261,1.71A.476.476,0,0,1,215.134,204.655Z" transform="translate(-207.265 -114.12)" fill="#1d272b"/>
        <path id="Trazado_166029" data-name="Trazado 166029" d="M215.811,206.292a.484.484,0,0,1-.271-.884,9.5,9.5,0,0,1,5.79-1.7.477.477,0,0,1,.469.493.482.482,0,0,1-.481.472,2.152,2.152,0,0,1-.216,0,8.917,8.917,0,0,0-5.019,1.54A.5.5,0,0,1,215.811,206.292Z" transform="translate(-206.322 -111.593)" fill="#1d272b"/>
        <path id="Trazado_166030" data-name="Trazado 166030" d="M266.1,183.727a34,34,0,0,0-5.774,39.046,52.029,52.029,0,0,0-27.911-2.687c-13.846,2.474-14.246,22.4-.443,25.106a78.362,78.362,0,0,0,36.838-1.614,26.677,26.677,0,0,0,17.247-15.788,57.328,57.328,0,0,0,2.986-32.525Z" transform="translate(-197.261 -139.444)" fill="url(#linear-gradient-2)"/>
        <path id="Trazado_166031" data-name="Trazado 166031" d="M247.312,247.412a78.68,78.68,0,0,1-15.149-1.466,12.8,12.8,0,0,1-10.542-12.977,13.084,13.084,0,0,1,11-13.078,52.48,52.48,0,0,1,27.025,2.285,34.5,34.5,0,0,1,6.394-38.5.489.489,0,0,1,.685-.014.481.481,0,0,1,.01.68,33.549,33.549,0,0,0-5.692,38.5.476.476,0,0,1-.072.541.494.494,0,0,1-.532.127,51.659,51.659,0,0,0-27.65-2.661,12.137,12.137,0,0,0-10.2,12.136c-.038,4.655,2.493,10.6,9.763,12.022a78.3,78.3,0,0,0,36.606-1.607,26.328,26.328,0,0,0,16.933-15.5,56.65,56.65,0,0,0,2.96-32.25.485.485,0,0,1,.951-.189,57.667,57.667,0,0,1-3.013,32.8,27.3,27.3,0,0,1-17.558,16.073A79.1,79.1,0,0,1,247.312,247.412Z" transform="translate(-197.544 -139.724)" fill="#241414"/>
        <path id="Trazado_166032" data-name="Trazado 166032" d="M242.031,179.547H242a3.659,3.659,0,0,1-2.15-.85c-2.371-1.98-3.032-4.378-1.913-6.947a14.973,14.973,0,0,0-6.813-5,.481.481,0,0,1-.287-.618.476.476,0,0,1,.62-.287,15.393,15.393,0,0,1,7.443,5.6.48.48,0,0,1,.026.465c-1.08,2.258-.558,4.291,1.542,6.047a2.694,2.694,0,0,0,1.585.627.483.483,0,0,1-.026.965Z" transform="translate(-184.727 -164.429)" fill="#241414"/>
        <path id="Trazado_166033" data-name="Trazado 166033" d="M222.758,180.5a.481.481,0,0,1-.479-.424,33.74,33.74,0,0,1,.026-7.177.478.478,0,0,1,.479-.441l.043,0a.48.48,0,0,1,.438.524,32.808,32.808,0,0,0-.026,6.971.484.484,0,0,1-.419.539Z" transform="translate(-196.885 -155.158)" fill="#241414"/>
        <path id="Trazado_166034" data-name="Trazado 166034" d="M227.11,199.054a.482.482,0,0,1-.235-.06.488.488,0,0,1-.189-.659c.11-.194,2.517-4.5,4.045-6.619l-3.259-3.547a.482.482,0,1,1,.709-.654l3.53,3.841a.492.492,0,0,1,.031.623c-1.454,1.9-4.184,6.777-4.21,6.827A.481.481,0,0,1,227.11,199.054Z" transform="translate(-190.562 -134.377)" fill="#241414"/>
        <path id="Trazado_166035" data-name="Trazado 166035" d="M240.207,204.912a.482.482,0,0,1-.467-.366l-.929-3.7a.489.489,0,0,1,.163-.493.478.478,0,0,1,.517-.057l5.738,2.775a.485.485,0,0,1,.223.644.476.476,0,0,1-.647.225l-4.8-2.325.675,2.7a.48.48,0,0,1-.352.584A.4.4,0,0,1,240.207,204.912Z" transform="translate(-173.588 -116.41)" fill="#241414"/>
        <path id="Trazado_166036" data-name="Trazado 166036" d="M249.72,269a22.853,22.853,0,0,1-9.27-2.05.482.482,0,0,1,.393-.881,21.108,21.108,0,0,0,20.276-1.394.485.485,0,0,1,.5.831A23.041,23.041,0,0,1,249.72,269Z" transform="translate(-171.683 -26.64)" fill="#241414"/>
        <path id="Trazado_166037" data-name="Trazado 166037" d="M248.97,241.083a.484.484,0,0,1-.137-.948l2.491-.723-4.813-2.5a.483.483,0,1,1,.445-.857l5.881,3.06a.485.485,0,0,1-.086.893l-3.647,1.058A.519.519,0,0,1,248.97,241.083Z" transform="translate(-163.193 -66.542)" fill="#241414"/>
        <path id="Trazado_166038" data-name="Trazado 166038" d="M255.075,261.468a.5.5,0,0,1-.184-.036.485.485,0,0,1-.261-.632,39.949,39.949,0,0,0-7.337-41.977.484.484,0,0,1,.718-.649,40.913,40.913,0,0,1,7.51,43A.477.477,0,0,1,255.075,261.468Z" transform="translate(-161.913 -91.624)" fill="#241414"/>
        <path id="Trazado_166039" data-name="Trazado 166039" d="M253.433,285.157l-.951-.383a21.525,21.525,0,0,0,1.111-3.662,75.127,75.127,0,0,0-1.705-37.355l.977-.3a76.141,76.141,0,0,1,1.729,37.863A22.581,22.581,0,0,1,253.433,285.157Z" transform="translate(-155.33 -56.135)" fill="#1d272b"/>
        <path id="Trazado_166040" data-name="Trazado 166040" d="M259.4,266.848l-1.018-.122a57.522,57.522,0,0,1,8.116-23.112,36.843,36.843,0,0,0,4.413-28.339,33.968,33.968,0,0,0-16.2-21.344c-1.236-.7-2.519-1.367-3.82-1.971l-.237-.11-.048-.254a24.717,24.717,0,0,0-11.389-16.229l.529-.876a25.741,25.741,0,0,1,11.808,16.651c1.248.587,2.476,1.226,3.662,1.9A35,35,0,0,1,271.9,215.021a37.867,37.867,0,0,1-4.536,29.132A56.464,56.464,0,0,0,259.4,266.848Z" transform="translate(-173.01 -152.327)" fill="#1d272b"/>
      </g>
    </g>
  </g>
</svg>
