<svg id="img3" xmlns="http://www.w3.org/2000/svg" xmlns:xlink="http://www.w3.org/1999/xlink" width="79.155" height="79.154" viewBox="0 0 79.155 79.154">
  <defs>
    <radialGradient id="radial-gradient" cx="0.077" cy="0.019" r="1.465" gradientTransform="matrix(1, 0, 0, -1, 0, 9.666)" gradientUnits="objectBoundingBox">
      <stop offset="0" stop-color="#f4f4f5"/>
      <stop offset="0.477" stop-color="#f7f8fa"/>
      <stop offset="0.715" stop-color="#fff"/>
    </radialGradient>
  </defs>
  <g id="Group_18531" data-name="Group 18531">
    <g id="Group_18423" data-name="Group 18423">
      <g id="Group_18421" data-name="Group 18421">
        <g id="Group_18420" data-name="Group 18420">
          <g id="Group_18419" data-name="Group 18419">
            <path id="Path_40936" data-name="Path 40936" d="M201.954,554.407a39.577,39.577,0,1,1-39.578-39.575h0A39.576,39.576,0,0,1,201.954,554.407Z" transform="translate(-122.8 -514.832)" fill="#fff"/>
          </g>
        </g>
      </g>
      <path id="Path_40937" data-name="Path 40937" d="M201.953,554.407a39.42,39.42,0,1,0,0,.312Z" transform="translate(-122.799 -514.832)" fill="url(#radial-gradient)"/>
      <path id="Path_40938" data-name="Path 40938" d="M190.028,551.858a30.209,30.209,0,1,0-30.209,30.209h0a30.1,30.1,0,0,0,30.209-29.984Z" transform="translate(-120.122 -512.151)" fill="none" stroke="#1d272b" stroke-miterlimit="10" stroke-width="2"/>
      <g id="Group_18422" data-name="Group 18422" transform="translate(7.012 22.22)">
        <path id="Path_40939" data-name="Path 40939" d="M195.973,530.78a39.581,39.581,0,0,1-68.14,39.411,39.456,39.456,0,0,0,68.14-39.411Z" transform="translate(-127.833 -530.78)" fill="#e7e9eb"/>
      </g>
    </g>
  </g>
  <g id="ITJmF2.tif" transform="translate(-1722.709 359.75)">
    <g id="Grupo_127423" data-name="Grupo 127423" transform="translate(1744.004 -333.899)">
      <path id="Trazado_163301" data-name="Trazado 163301" d="M1745.949-327a21.62,21.62,0,0,1,.017-2.6,4.908,4.908,0,0,1,3.868-4.172,4.942,4.942,0,0,1,5.2,2.061,1.993,1.993,0,0,0,1.854.97,7.909,7.909,0,0,0,3.448-.7,6.244,6.244,0,0,1,4.621-.277,9.489,9.489,0,0,0,3.291.323,3.808,3.808,0,0,0,.9-.254c1.009-.3,2-.694,3.031-.9a5.33,5.33,0,0,1,4.278,1.063c.189.138.377.278.6.444.167-.243.326-.476.486-.708a1.86,1.86,0,0,1,2.144-.8,1.886,1.886,0,0,1,1.29,1.857c0,1.213,0,2.426,0,3.7.391,0,.764,0,1.137,0,.512.007.739.231.742.743.005.783.008,1.567,0,2.35a1.874,1.874,0,0,1-1.942,1.919c-.77.007-1.54,0-2.31,0a1.031,1.031,0,0,0-.132.027v.4q0,5.229-.007,10.458a.789.789,0,0,0,.278.637,3.116,3.116,0,0,1,.056,4.487,3.131,3.131,0,0,1-4.463-.051,3.108,3.108,0,0,1,.128-4.455.731.731,0,0,0,.252-.608c-.012-.9,0-1.8,0-2.723h-22.56c0,.993-.011,1.981.013,2.968,0,.132.165.276.279.389a3.131,3.131,0,0,1,.73,3.427,3.134,3.134,0,0,1-2.861,1.964,3.152,3.152,0,0,1-2.932-1.921,3.087,3.087,0,0,1,.72-3.456.862.862,0,0,0,.295-.708q-.013-5.17-.005-10.341v-.5h-2.3a1.909,1.909,0,0,1-2.089-2.088q0-1.018,0-2.037c0-.7.185-.888.872-.89Zm16.273-3.748a9.613,9.613,0,0,0-1.4.456,8.484,8.484,0,0,1-3.9.8,3.2,3.2,0,0,1-2.921-1.522,3.743,3.743,0,0,0-5.844-.43c-1.223,1.286-1.024,2.864-1,4.413h32.571c0-1.268,0-2.506,0-3.745a.574.574,0,0,0-.432-.586.57.57,0,0,0-.676.265c-.229.333-.452.671-.676,1.007-.477.714-.684.733-1.379.253-.662-.457-1.346-.884-2.045-1.281a4.058,4.058,0,0,0-.941-.251,2.09,2.09,0,0,0,1.329,1.274l-.388,1.17a3.3,3.3,0,0,1-2.257-2.409c-.271.076-.522.136-.767.217-.878.29-1.754.588-2.633.878a1.611,1.611,0,0,1-.455.1,10.61,10.61,0,0,1-3.905-.419,6.127,6.127,0,0,0-.924-.179c.224.626.4.8,1.291,1.3l-.382,1.14A3.344,3.344,0,0,1,1762.222-330.746Zm12.459,13.137v-4.35h-13.355a1.988,1.988,0,0,1,.216.58c.023.835.017,1.671.006,2.506a.6.6,0,0,1-.636.646q-1.86.015-3.72,0a.611.611,0,0,1-.651-.673c-.01-.561-.02-1.123,0-1.684.018-.463.082-.924.125-1.38h-4.493v4.354Zm6.924-8.11h-21.933c0,.518-.015,1.012,0,1.505a1.262,1.262,0,0,0,1.062.978h17.73c.809,0,1.618,0,2.427,0a.62.62,0,0,0,.705-.618C1781.618-324.467,1781.605-325.079,1781.605-325.719Zm-23.187,0h-13.16c0,.545,0,1.065,0,1.585,0,.716.18.9.9.9h11.189a1.262,1.262,0,0,0,1.064-.974C1758.433-324.7,1758.418-325.2,1758.418-325.718Zm-6.247,10.6h22.511v-1.209h-22.511Zm-1.3,3.809v-10.659h-1.2V-311.3Zm26.323,0v-10.646h-1.2V-311.3Zm-25.043,3.12a1.884,1.884,0,0,0-1.851-1.888,1.886,1.886,0,0,0-1.907,1.871,1.887,1.887,0,0,0,1.851,1.888A1.887,1.887,0,0,0,1752.15-308.184Zm26.322.007a1.883,1.883,0,0,0-1.844-1.894,1.883,1.883,0,0,0-1.913,1.864,1.886,1.886,0,0,0,1.844,1.895A1.886,1.886,0,0,0,1778.472-308.178ZM1760.3-319.5c0-.456,0-.885,0-1.313a.788.788,0,0,0-.065-.411c-.372-.53-.768-1.042-1.185-1.6-.422.565-.812,1.084-1.2,1.606a.326.326,0,0,0-.054.181c0,.506,0,1.012,0,1.537Z" transform="translate(-1744.004 333.899)" fill="#1d272b"/>
    </g>
  </g>
</svg>
