<svg id="icon12" xmlns="http://www.w3.org/2000/svg" xmlns:xlink="http://www.w3.org/1999/xlink" width="79.155" height="79.154" viewBox="0 0 79.155 79.154">
  <defs>
    <radialGradient id="radial-gradient" cx="0.077" cy="0.019" r="1.465" gradientTransform="matrix(1, 0, 0, -1, 0, 9.666)" gradientUnits="objectBoundingBox">
      <stop offset="0" stop-color="#f4f4f5"/>
      <stop offset="0.477" stop-color="#f7f8fa"/>
      <stop offset="0.715" stop-color="#fff"/>
    </radialGradient>
  </defs>
  <g id="Group_18531" data-name="Group 18531">
    <g id="Group_18423" data-name="Group 18423">
      <g id="Group_18421" data-name="Group 18421">
        <g id="Group_18420" data-name="Group 18420">
          <g id="Group_18419" data-name="Group 18419">
            <path id="Path_40936" data-name="Path 40936" d="M201.954,554.407a39.577,39.577,0,1,1-39.578-39.575h0A39.576,39.576,0,0,1,201.954,554.407Z" transform="translate(-122.8 -514.832)" fill="#fff"/>
          </g>
        </g>
      </g>
      <path id="Path_40937" data-name="Path 40937" d="M201.953,554.407a39.42,39.42,0,1,0,0,.312Z" transform="translate(-122.799 -514.832)" fill="url(#radial-gradient)"/>
      <path id="Path_40938" data-name="Path 40938" d="M190.028,551.858a30.209,30.209,0,1,0-30.209,30.209h0a30.1,30.1,0,0,0,30.209-29.984Z" transform="translate(-120.122 -512.151)" fill="none" stroke="#1d272b" stroke-miterlimit="10" stroke-width="2"/>
      <g id="Group_18422" data-name="Group 18422" transform="translate(7.012 22.22)">
        <path id="Path_40939" data-name="Path 40939" d="M195.973,530.78a39.581,39.581,0,0,1-68.14,39.411,39.456,39.456,0,0,0,68.14-39.411Z" transform="translate(-127.833 -530.78)" fill="#e7e9eb"/>
      </g>
    </g>
  </g>
  <g id="pkMZ1u.tif" transform="translate(-7213.223 469.118)">
    <g id="Grupo_128767" data-name="Grupo 128767" transform="translate(7236.365 -448.322)">
      <path id="Trazado_165727" data-name="Trazado 165727" d="M7461.85-410.76a5.96,5.96,0,0,1-.7-.3,2.238,2.238,0,0,1-1.2-2.04q-.006-12.413,0-24.827a5.262,5.262,0,0,1,4.392-5.043c.145-.022.289-.048.435-.064.345-.039.454-.179.431-.56-.479-.177-.564-.3-.565-.8q0-1.6,0-3.19c0-.543.189-.737.716-.738q2.806,0,5.611,0c.526,0,.716.2.717.738q0,1.6,0,3.19c0,.5-.086.623-.565.8-.023.392.085.521.47.56a5.288,5.288,0,0,1,4.791,5.29q0,12.193,0,24.387a2.355,2.355,0,0,1-1.853,2.549c-.021.007-.038.029-.057.044Zm-.735-5.87c0,1.133,0,2.219,0,3.305a1.228,1.228,0,0,0,1.4,1.389l11.261,0c.987,0,1.427-.443,1.427-1.437q0-6.236,0-12.471c0-3.925,0-7.85-.006-11.774a4.078,4.078,0,0,0-3.607-4.2c-.274-.044-.613-.009-.808-.159-.471-.364-1.013-.736-.864-1.483a.48.48,0,0,0-.019-.146h-3.49c0,.081-.011.14-.012.2a1.508,1.508,0,0,1-1.465,1.556,3.969,3.969,0,0,0-3.659,3.127,19.364,19.364,0,0,0-.158,2.88c-.006.14,0,.281,0,.435h.5q5.832,0,11.664,0c.565,0,.752.187.752.74q0,8.656,0,17.313c0,.532-.2.728-.728.729q-3.613,0-7.226,0Zm11.716-1.19v-16.389h-11.694v16.389Zm-7-29.312v2.308h4.647v-2.308Z" transform="translate(-7443.507 448.322)"/>
      <path id="Trazado_165728" data-name="Trazado 165728" d="M7285.65-225.837a1.863,1.863,0,0,1-1.338-1.326,2,2,0,0,1-.053-.47q-.006-5.28-.006-10.56a1.625,1.625,0,0,1,.9-1.523.46.46,0,0,0,.281-.478q-.012-3.355,0-6.71a1.734,1.734,0,0,1,1.816-1.82q2.9-.005,5.793,0a1.725,1.725,0,0,1,1.776,1.785q.005,3.374,0,6.747a.452.452,0,0,0,.277.478,1.586,1.586,0,0,1,.9,1.484q.006,5.317,0,10.634a1.74,1.74,0,0,1-1.126,1.647c-.089.036-.177.075-.266.112Zm-.182-2.936a.658.658,0,0,0-.034.113c0,.293-.006.587,0,.88,0,.558.214.767.782.767q3.905,0,7.81,0c.592,0,.8-.2.8-.788q0-5.115,0-10.229c0-.539-.186-.722-.728-.723q-1.778,0-3.557,0c-1.479,0-2.958,0-4.437,0-.333,0-.612.112-.649.454a12.206,12.206,0,0,0-.011,1.312h.449q3.226,0,6.453,0c.513,0,.715.2.716.7q0,3.41,0,6.82c0,.485-.205.691-.688.692-1.137,0-2.273,0-3.41,0Zm-.026-1.2h6.425v-5.819h-6.425Zm1.175-9.976h7.012v-2.3h-7.012Zm.575-3.509v-.371c0-.831,0-1.662,0-2.493a.561.561,0,0,1,.591-.638q2.347-.012,4.693,0a.555.555,0,0,1,.579.613c.006.611,0,1.222,0,1.833v1.048h.589c0-1.113,0-2.2,0-3.286,0-.589-.2-.795-.794-.8q-2.75,0-5.5,0c-.535,0-.744.218-.746.766q-.006,1.522,0,3.044c0,.094.015.187.024.281Zm4.677-2.309h-3.478v2.307h3.478Z" transform="translate(-7280.734 263.399)"/>
      <path id="Trazado_165729" data-name="Trazado 165729" d="M7246.323-422.046c.05-.806.177-.93.878-.931,1.65,0,3.3,0,4.98,0v1.166h-4.666c0,.391-.007.742,0,1.093a.59.59,0,0,1-.353.624.608.608,0,0,1-.725-.185c-.42-.427-.854-.841-1.266-1.276a.751.751,0,0,0-.6-.255c-2.115.01-4.23.007-6.346.005a1.74,1.74,0,0,1-1.857-1.855q0-3.484,0-6.969a1.737,1.737,0,0,1,1.752-1.738q7.024,0,14.048,0a1.732,1.732,0,0,1,1.805,1.8c0,1.125,0,2.25,0,3.374a.358.358,0,0,1-.029.087H7252.8v-.376c0-.978,0-1.956,0-2.934,0-.565-.21-.776-.774-.776q-6.859,0-13.718,0c-.561,0-.769.212-.769.781q0,3.32,0,6.639c0,.591.2.8.79.8,2.152,0,4.3.012,6.456-.009a1.222,1.222,0,0,1,1.088.455C7245.99-422.379,7246.133-422.248,7246.323-422.046Z" transform="translate(-7236.365 433.541)"/>
      <path id="Trazado_165730" data-name="Trazado 165730" d="M7324.181-397.5c0-.745,0-1.489,0-2.234,0-.482.206-.682.694-.684q1.355,0,2.709,0c.5,0,.7.2.7.715q0,2.234,0,4.467c0,.48-.208.681-.7.683q-1.355,0-2.71,0c-.507,0-.7-.2-.7-.714,0-.745,0-1.489,0-2.234Zm1.191-1.732v3.487h1.719v-3.487Z" transform="translate(-7317.722 403.945)"/>
      <path id="Trazado_165731" data-name="Trazado 165731" d="M7263.357-399.268h-1.815l-.035.551h-1.145a12.817,12.817,0,0,1,.012-1.292.5.5,0,0,1,.546-.444c.99-.005,1.979-.01,2.969,0a.547.547,0,0,1,.565.589,11.036,11.036,0,0,1-.007,1.172,1.107,1.107,0,0,1-.206.491,9.8,9.8,0,0,0-1.424,2.87c-.062.233-.1.474-.146.727H7261.5c.045-.314.066-.624.138-.921a10.316,10.316,0,0,1,1.471-3.129A3.733,3.733,0,0,0,7263.357-399.268Z" transform="translate(-7258.587 403.977)"/>
      <path id="Trazado_165732" data-name="Trazado 165732" d="M7391.706-400.189h1.037a1.431,1.431,0,0,1-.3,1.231c-1,1.294-1.977,2.61-2.951,3.926a4.635,4.635,0,0,0-.34.676h-1.048a1.437,1.437,0,0,1,.278-1.2c1.01-1.3,1.992-2.629,2.973-3.954A4.823,4.823,0,0,0,7391.706-400.189Z" transform="translate(-7376.926 403.727)"/>
      <path id="Trazado_165733" data-name="Trazado 165733" d="M7397.578-382.986h-1.124v-1.13h1.124Z" transform="translate(-7384.686 388.836)"/>
      <path id="Trazado_165734" data-name="Trazado 165734" d="M7429.512-352.174v1.129h-1.13v-1.129Z" transform="translate(-7414.267 359.242)"/>
      <path id="Trazado_165735" data-name="Trazado 165735" d="M7357.639-199.355v-1.134h-1.129v1.134Z" transform="translate(-7347.678 218.707)" fill="#fff"/>
      <path id="Trazado_165736" data-name="Trazado 165736" d="M7509.6-219.5c-.4,0-.751,0-1.1,0a.576.576,0,0,1-.657-.647q-.007-1.118,0-2.235a.569.569,0,0,1,.63-.637c.364-.007.728,0,1.129,0,0-.4,0-.758,0-1.121a.569.569,0,0,1,.629-.638q1.136-.01,2.272,0a.562.562,0,0,1,.618.611c.008.365,0,.73,0,1.147.377,0,.738,0,1.1,0a.578.578,0,0,1,.658.648q.009,1.118,0,2.235a.574.574,0,0,1-.633.637c-.354.008-.708.006-1.062.01-.009,0-.019.014-.063.051,0,.332,0,.7,0,1.058a.573.573,0,0,1-.628.641q-1.136.009-2.272,0a.563.563,0,0,1-.618-.612C7509.594-218.725,7509.6-219.09,7509.6-219.5Zm1.171-4.1c0,.214,0,.394,0,.575s.006.366,0,.549a.577.577,0,0,1-.64.63c-.363.006-.726,0-1.1,0v1.173c.376,0,.729,0,1.081,0a.579.579,0,0,1,.654.651c.005.361,0,.723,0,1.082h1.177c0-.38,0-.733,0-1.086a.578.578,0,0,1,.657-.647c.361,0,.722,0,1.073,0v-1.157a.562.562,0,0,0-.064-.012c-.33,0-.659,0-.989-.008-.465-.006-.671-.205-.678-.665-.005-.36,0-.721,0-1.087Z" transform="translate(-7487.881 241.221)"/>
      <path id="Trazado_165737" data-name="Trazado 165737" d="M7508.419-80.772v1.127h-8.183v-1.127Z" transform="translate(-7480.84 107.79)"/>
      <path id="Trazado_165738" data-name="Trazado 165738" d="M7538.048-112.652v1.131h-5.819v-1.131Z" transform="translate(-7510.48 137.326)"/>
      <path id="Trazado_165739" data-name="Trazado 165739" d="M7500.164-112.734h1.124v1.13h-1.124Z" transform="translate(-7480.772 137.402)"/>
      <path id="Trazado_165740" data-name="Trazado 165740" d="M7357.639-199.355h-1.129v-1.134h1.129Z" transform="translate(-7347.678 218.707)"/>
    </g>
  </g>
</svg>
