<svg id="icon13" xmlns="http://www.w3.org/2000/svg" xmlns:xlink="http://www.w3.org/1999/xlink" width="79.155" height="79.154" viewBox="0 0 79.155 79.154">
  <defs>
    <radialGradient id="radial-gradient" cx="0.077" cy="0.019" r="1.465" gradientTransform="matrix(1, 0, 0, -1, 0, 9.666)" gradientUnits="objectBoundingBox">
      <stop offset="0" stop-color="#f4f4f5"/>
      <stop offset="0.477" stop-color="#f7f8fa"/>
      <stop offset="0.715" stop-color="#fff"/>
    </radialGradient>
  </defs>
  <g id="Group_18531" data-name="Group 18531">
    <g id="Group_18423" data-name="Group 18423">
      <g id="Group_18421" data-name="Group 18421">
        <g id="Group_18420" data-name="Group 18420">
          <g id="Group_18419" data-name="Group 18419">
            <path id="Path_40936" data-name="Path 40936" d="M201.954,554.407a39.577,39.577,0,1,1-39.578-39.575h0A39.576,39.576,0,0,1,201.954,554.407Z" transform="translate(-122.8 -514.832)" fill="#fff"/>
          </g>
        </g>
      </g>
      <path id="Path_40937" data-name="Path 40937" d="M201.953,554.407a39.42,39.42,0,1,0,0,.312Z" transform="translate(-122.799 -514.832)" fill="url(#radial-gradient)"/>
      <path id="Path_40938" data-name="Path 40938" d="M190.028,551.858a30.209,30.209,0,1,0-30.209,30.209h0a30.1,30.1,0,0,0,30.209-29.984Z" transform="translate(-120.122 -512.151)" fill="none" stroke="#1d272b" stroke-miterlimit="10" stroke-width="2"/>
      <g id="Group_18422" data-name="Group 18422" transform="translate(7.012 22.22)">
        <path id="Path_40939" data-name="Path 40939" d="M195.973,530.78a39.581,39.581,0,0,1-68.14,39.411,39.456,39.456,0,0,0,68.14-39.411Z" transform="translate(-127.833 -530.78)" fill="#e7e9eb"/>
      </g>
    </g>
  </g>
  <g id="_6gOyny.tif" data-name="6gOyny.tif" transform="translate(-7945.54 1237.601)">
    <g id="Grupo_128784" data-name="Grupo 128784" transform="translate(7976.073 -1220.476)">
      <path id="Trazado_165741" data-name="Trazado 165741" d="M7976.073-1178.687v-26.852a.355.355,0,0,0,.058-.114,4.436,4.436,0,0,1,1.482-2.831c1.3-1.284,2.551-2.613,3.882-3.861a3.153,3.153,0,0,0,.79-2.74.4.4,0,0,0-.16-.233,1.472,1.472,0,0,1-.518-1.184c-.009-.849-.017-1.7,0-2.546a1.354,1.354,0,0,1,1.482-1.425q2.627,0,5.254,0a1.361,1.361,0,0,1,1.493,1.459c.013.834.009,1.669,0,2.5a1.478,1.478,0,0,1-.511,1.187c-.072.06-.164.15-.167.23a3.155,3.155,0,0,0,.753,2.712c1.386,1.315,2.706,2.7,4.063,4.045a4.4,4.4,0,0,1,1.383,3.234q.005,12.991,0,25.982a2.89,2.89,0,0,1-.674,1.909,3.49,3.49,0,0,1-1.554.944h-14.819a10.486,10.486,0,0,1-1.1-.539A2.918,2.918,0,0,1,7976.073-1178.687Zm1.38-23.813h.518q5.4,0,10.809,0a2.673,2.673,0,0,1,.512.039.6.6,0,0,1,.525.639.591.591,0,0,1-.55.615,4.059,4.059,0,0,1-.514.033q-5.4,0-10.809,0h-.517v13.883h16.6v-13.883c-.192,0-.36,0-.528,0-.559-.011-1.118-.006-1.675-.045a.546.546,0,0,1-.515-.589.57.57,0,0,1,.461-.637,2.759,2.759,0,0,1,.6-.055c.552-.007,1.1,0,1.687,0,0-.863-.011-1.652,0-2.441a3.256,3.256,0,0,0-1.036-2.5c-1.347-1.314-2.662-2.662-3.994-3.992a3.534,3.534,0,0,1-1.168-2.417c-.015-.382-.042-.763-.063-1.141h-4.153c-.007.149-.023.264-.017.377a4.146,4.146,0,0,1-1.417,3.41c-1.313,1.246-2.563,2.558-3.846,3.835a2.544,2.544,0,0,0-.891,1.583C7977.406-1204.719,7977.453-1203.641,7977.453-1202.5Zm16.6,16.583h-16.66v.451q0,3.063,0,6.126c0,1.254.527,1.777,1.783,1.777h13.088c1.258,0,1.786-.522,1.787-1.773q0-2.8,0-5.609Zm-11.087-33.242v2.8h5.523v-2.8Z" transform="translate(-7976.073 1220.476)" fill="#1d272b"/>
      <path id="Trazado_165742" data-name="Trazado 165742" d="M8040.972-960.305c0,.4-.02.806,0,1.207a1.609,1.609,0,0,0,1.012,1.436,1.7,1.7,0,0,0,1.754-.178c.094-.065.175-.149.27-.214a.625.625,0,0,1,.918.076.655.655,0,0,1-.1.926,3.063,3.063,0,0,1-3.908.28,2.871,2.871,0,0,1-1.237-2.126,9.18,9.18,0,0,1,.11-3.34,3.044,3.044,0,0,1,5.027-1.314.658.658,0,0,1,.112.924.627.627,0,0,1-.951.06,1.928,1.928,0,0,0-1.324-.521,1.7,1.7,0,0,0-1.684,1.577C8040.948-961.112,8040.972-960.708,8040.972-960.305Z" transform="translate(-8034.095 986.555)" fill="#1d272b"/>
      <path id="Trazado_165743" data-name="Trazado 165743" d="M8119.913-960.12c0-1.035,0-2.07,0-3.1a2.773,2.773,0,0,1,.046-.513.514.514,0,0,1,.576-.465,1.221,1.221,0,0,1,.622.415c.094.105.076.328.077.5q.006,3.169,0,6.338a1.849,1.849,0,0,1-.056.466.589.589,0,0,1-.638.468.585.585,0,0,1-.589-.528,4.734,4.734,0,0,1-.039-.6C8119.91-958.136,8119.913-959.128,8119.913-960.12Z" transform="translate(-8107.469 986.376)" fill="#1d272b"/>
      <path id="Trazado_165744" data-name="Trazado 165744" d="M8073.5-1139.359c-.229,0-.458.013-.686,0a.619.619,0,0,1-.628-.627.609.609,0,0,1,.568-.644,10.417,10.417,0,0,1,1.538,0,.607.607,0,0,1,.564.646.618.618,0,0,1-.631.624C8073.984-1139.346,8073.741-1139.359,8073.5-1139.359Z" transform="translate(-8063.872 1147.566)" fill="#1d272b"/>
      <path id="Trazado_165745" data-name="Trazado 165745" d="M8015.475-755.125c-2.008,0-4.016.012-6.023-.016a1.056,1.056,0,0,1-.7-.367.634.634,0,0,1,.046-.615.988.988,0,0,1,.66-.284c1.233-.027,2.466-.013,3.7-.013h8.217a3.587,3.587,0,0,1,.43.01.606.606,0,0,1,.575.64.612.612,0,0,1-.541.63,2.36,2.36,0,0,1-.429.015Z" transform="translate(-8005.872 796.565)" fill="#1d272b"/>
    </g>
  </g>
</svg>
