<svg xmlns="http://www.w3.org/2000/svg" xmlns:xlink="http://www.w3.org/1999/xlink" width="79.155" height="79.154" viewBox="0 0 79.155 79.154">
  <defs>
    <radialGradient id="radial-gradient" cx="0.077" cy="0.019" r="1.465" gradientTransform="matrix(1, 0, 0, -1, 0, 9.666)" gradientUnits="objectBoundingBox">
      <stop offset="0" stop-color="#f4f4f5"/>
      <stop offset="0.477" stop-color="#f7f8fa"/>
      <stop offset="0.715" stop-color="#fff"/>
    </radialGradient>
  </defs>
  <g id="icon1" transform="translate(416.994 8924.727)">
    <g id="Group_87331" data-name="Group 87331" transform="translate(-416.994 -8924.727)">
      <g id="Group_18531" data-name="Group 18531">
        <g id="Group_18423" data-name="Group 18423">
          <g id="Group_18421" data-name="Group 18421">
            <g id="Group_18420" data-name="Group 18420">
              <g id="Group_18419" data-name="Group 18419">
                <path id="Path_40936" data-name="Path 40936" d="M201.954,554.407a39.577,39.577,0,1,1-39.578-39.575h0A39.576,39.576,0,0,1,201.954,554.407Z" transform="translate(-122.8 -514.832)" fill="#fff"/>
              </g>
            </g>
          </g>
          <path id="Path_40937" data-name="Path 40937" d="M201.953,554.407a39.42,39.42,0,1,0,0,.312Z" transform="translate(-122.799 -514.832)" fill="url(#radial-gradient)"/>
          <path id="Path_40938" data-name="Path 40938" d="M190.028,551.858a30.209,30.209,0,1,0-30.209,30.209h0a30.1,30.1,0,0,0,30.209-29.984Z" transform="translate(-120.122 -512.151)" fill="none" stroke="#1d272b" stroke-miterlimit="10" stroke-width="5"/>
          <g id="Group_18422" data-name="Group 18422" transform="translate(7.012 22.22)">
            <path id="Path_40939" data-name="Path 40939" d="M195.973,530.78a39.581,39.581,0,0,1-68.14,39.411,39.456,39.456,0,0,0,68.14-39.411Z" transform="translate(-127.833 -530.78)" fill="#e7e9eb"/>
          </g>
        </g>
      </g>
    </g>
    <path id="Trazado_166074" data-name="Trazado 166074" d="M10.107-18.567H-10.51V-27.1H10.107Z" transform="translate(-376.994 -8863.15)" fill="#d93328"/>
  </g>
</svg>
