<svg xmlns="http://www.w3.org/2000/svg" xmlns:xlink="http://www.w3.org/1999/xlink" width="102.493" height="102.494" viewBox="0 0 102.493 102.494">
  <defs>
    <radialGradient id="radial-gradient" cx="0.077" cy="0.019" r="1.465" gradientTransform="matrix(1, 0, 0, -1, 0, 9.666)" gradientUnits="objectBoundingBox">
      <stop offset="0" stop-color="#f4f4f5"/>
      <stop offset="0.477" stop-color="#f7f8fa"/>
      <stop offset="0.715" stop-color="#fff"/>
    </radialGradient>
  </defs>
  <g id="icon3" transform="translate(102.493) rotate(90)">
    <g id="Group_18531" data-name="Group 18531">
      <g id="Group_18423" data-name="Group 18423">
        <g id="Group_18421" data-name="Group 18421">
          <g id="Group_18420" data-name="Group 18420">
            <g id="Group_18419" data-name="Group 18419">
              <path id="Path_40936" data-name="Path 40936" d="M225.293,566.077a51.246,51.246,0,1,1-51.248-51.245h0A51.245,51.245,0,0,1,225.293,566.077Z" transform="translate(-122.8 -514.832)" fill="#fff"/>
            </g>
          </g>
        </g>
        <path id="Path_40937" data-name="Path 40937" d="M225.291,566.077a51.043,51.043,0,1,0,0,.4Z" transform="translate(-122.798 -514.832)" fill="url(#radial-gradient)"/>
        <path id="Path_40938" data-name="Path 40938" d="M207.844,560.766a39.117,39.117,0,1,0-39.116,39.116h0a38.971,38.971,0,0,0,39.116-38.825Z" transform="translate(-117.324 -509.35)" fill="none" stroke="#1d272b" stroke-miterlimit="10" stroke-width="4"/>
        <g id="Group_18422" data-name="Group 18422" transform="translate(9.08 28.771)">
          <path id="Path_40939" data-name="Path 40939" d="M216.065,530.78a51.252,51.252,0,0,1-88.232,51.032,51.089,51.089,0,0,0,88.232-51.032Z" transform="translate(-127.833 -530.78)" fill="#e7e9eb"/>
        </g>
      </g>
    </g>
    <g id="dIE1pE" transform="translate(65.815 444.288) rotate(-90)">
      <g id="Grupo_128638" data-name="Grupo 128638" transform="translate(369.795 -37.128)">
        <path id="Trazado_165651" data-name="Trazado 165651" d="M383.265-5.7l-2.076-1.258q-.52.868-1.037,1.733a1.04,1.04,0,0,1-.68.522,1,1,0,0,1-1.087-.389.987.987,0,0,1-.069-1.151c.327-.568.667-1.129,1-1.693l.149-.254-1.354-1.093c-.423.38-.842.736-1.236,1.116a1.065,1.065,0,0,1-.893.348,1,1,0,0,1-.879-.673,1.017,1.017,0,0,1,.228-1.11c.314-.344.644-.675.965-1.012.057-.06.109-.126.17-.2l-1.532-1.676c-.406.4-.813.791-1.213,1.191a1.044,1.044,0,0,1-.844.338,1,1,0,0,1-.912-.668.977.977,0,0,1,.231-1.1c.426-.435.865-.858,1.3-1.283a1.02,1.02,0,0,1,.16-.108l-1.281-1.929c-.3.23-.578.452-.863.67a1.048,1.048,0,0,1-1.479-.141,1.058,1.058,0,0,1,.169-1.5c.306-.256.617-.509.944-.738a.256.256,0,0,0,.092-.4,12.659,12.659,0,0,1-1.22-3.51,12.622,12.622,0,0,1,.1-5.152,1.067,1.067,0,0,1,1.247-.824,1.043,1.043,0,0,1,.8,1.275,10.358,10.358,0,0,0,.62,6.552,24.274,24.274,0,0,0,2.85,4.792,28.125,28.125,0,0,0,11.622,8.893A33.816,33.816,0,0,0,394.8-3.814a10.609,10.609,0,0,0,9.467-2.74,9.812,9.812,0,0,0,3.194-6.908,11.969,11.969,0,0,0-1.3-6,7.364,7.364,0,0,0-4.249-3.6,19.264,19.264,0,0,0-2.658-.717A6.471,6.471,0,0,1,395.37-26.4a19.683,19.683,0,0,1-1.556-2.516,11.157,11.157,0,0,0-6.477-5.472,11.947,11.947,0,0,0-5.286-.57,11.289,11.289,0,0,0-5.673,2.257,1.112,1.112,0,0,1-1.071.2.951.951,0,0,1-.682-.771.991.991,0,0,1,.431-1.074,24.753,24.753,0,0,1,2.3-1.413,13.366,13.366,0,0,1,7.023-1.339,13.927,13.927,0,0,1,7.792,2.945c.254.2.5.415.794.666.216-.228.434-.461.657-.691.185-.192.368-.387.564-.566a1.083,1.083,0,0,1,1.5.023,1.052,1.052,0,0,1-.008,1.468c-.207.223-.43.432-.649.643s-.441.418-.631.6l1.591,2.646c.428-.381.875-.775,1.319-1.175a1.061,1.061,0,0,1,.835-.294.978.978,0,0,1,.916.7A1.018,1.018,0,0,1,398.75-29c-.45.411-.908.812-1.362,1.218-.077.069-.15.142-.248.236a4.271,4.271,0,0,0,2.594,1.687c.067.01.178-.082.224-.154.468-.738.921-1.487,1.391-2.224a1.062,1.062,0,0,1,1.69-.171,1.062,1.062,0,0,1,.1,1.271c-.315.52-.643,1.033-.964,1.549-.054.087-.1.176-.154.262.6.268,1.188.534,1.78.78.061.025.192-.042.252-.1.548-.555,1.087-1.12,1.63-1.68a1.021,1.021,0,0,1,1.1-.26.97.97,0,0,1,.7.852,1.1,1.1,0,0,1-.366.948l-1.395,1.432,1.569,1.466-.087.124c.222-.121.446-.239.667-.363.722-.4,1.442-.809,2.164-1.21a1.082,1.082,0,0,1,1.5.344,1.047,1.047,0,0,1-.459,1.477q-1.291.728-2.59,1.441c-.167.091-.2.166-.126.35.219.535.411,1.081.626,1.656.285-.02.6-.039.905-.065.549-.047,1.1-.106,1.648-.148a1.044,1.044,0,0,1,1.18.969,1.053,1.053,0,0,1-1.049,1.138c-.729.051-1.457.119-2.22.183.023.262.051.513.067.764.024.37.053.74.054,1.111,0,.175.063.24.223.3q1.125.4,2.239.836a.994.994,0,0,1,.687.955.982.982,0,0,1-.624.994,1.146,1.146,0,0,1-.914-.014l-1.76-.666L408.746-9.4c.344.114.72.231,1.089.363a13.83,13.83,0,0,1,4.409,2.389,6.04,6.04,0,0,1,2.263,3.869,6.164,6.164,0,0,1-.522,3.308A9.183,9.183,0,0,1,412.3,4.943a8.943,8.943,0,0,1-3.849,1.216,22.284,22.284,0,0,1-5-.266,21.217,21.217,0,0,0-2.551-.242,5.2,5.2,0,0,0-4.545,2.221,1.047,1.047,0,0,1-1.908-.666,1.233,1.233,0,0,1,.2-.551,7.127,7.127,0,0,1,4.933-3.021,12.3,12.3,0,0,1,3.55.093,25.667,25.667,0,0,0,4.541.371,6.731,6.731,0,0,0,4.237-1.436,7.477,7.477,0,0,0,2.433-3.811,3.454,3.454,0,0,0-1.018-3.466,9.762,9.762,0,0,0-3.509-2.18c-.6-.236-1.222-.409-1.832-.616a.292.292,0,0,0-.4.142c-.231.358-.494.7-.759,1.062l1.914,1.427c.145.108.293.212.433.326A1.054,1.054,0,0,1,409.385-3a1.046,1.046,0,0,1-1.472.22c-.754-.548-1.495-1.113-2.241-1.671-.106-.079-.214-.156-.324-.237l-1.414,1.064,1.048,2.072c.094.186.19.372.282.56a1.047,1.047,0,0,1-.436,1.442,1.035,1.035,0,0,1-1.437-.506c-.381-.743-.756-1.49-1.134-2.234-.055-.109-.113-.217-.158-.3l-2.641.842c.114.35.235.725.358,1.1.095.288.2.574.287.864a1.048,1.048,0,0,1-.631,1.346A1.057,1.057,0,0,1,398.1.864q-.37-1.076-.716-2.161c-.057-.179-.135-.235-.339-.243-.946-.035-1.892-.1-2.875-.162-.039.29-.089.643-.134,1-.06.471-.112.943-.175,1.414a1.042,1.042,0,0,1-1.068.909A1,1,0,0,1,391.8.555c.06-.8.174-1.586.263-2.379.016-.14.024-.28.036-.422l-2.8-.821q-.2.826-.4,1.653c-.094.387-.181.776-.282,1.161a1.038,1.038,0,0,1-1.253.8,1.046,1.046,0,0,1-.773-1.293c.222-.952.451-1.9.676-2.852.015-.063.021-.128.033-.2l-2.151-.931q-.291.576-.582,1.154c-.072.144-.136.293-.214.434a1.059,1.059,0,0,1-1.42.461,1.063,1.063,0,0,1-.46-1.418C382.726-4.632,383-5.155,383.265-5.7Z" transform="translate(-369.795 37.128)" fill="#1d272b"/>
        <path id="Trazado_165652" data-name="Trazado 165652" d="M529.057,115.786a6.283,6.283,0,1,1-6.114-6.3A6.258,6.258,0,0,1,529.057,115.786Zm-6.273-4.189a4.18,4.18,0,1,0,4.181,4.195A4.187,4.187,0,0,0,522.784,111.6Z" transform="translate(-508.113 -101.115)" fill="#1d272b"/>
        <path id="Trazado_165653" data-name="Trazado 165653" d="M644.943,350.922a3.142,3.142,0,1,1,3.122,3.138A3.144,3.144,0,0,1,644.943,350.922Zm3.142,1.036a1.037,1.037,0,1,0-.01-2.075,1.06,1.06,0,0,0-1.045,1.031A1.042,1.042,0,0,0,648.085,351.957Z" transform="translate(-629.229 -325.792)" fill="#1d272b"/>
        <path id="Trazado_165654" data-name="Trazado 165654" d="M754.854,240.93a3.146,3.146,0,1,1,3.1,3.137A3.151,3.151,0,0,1,754.854,240.93Zm3.129-1.039a1.041,1.041,0,1,0,1.058,1.042A1.05,1.05,0,0,0,757.983,239.891Z" transform="translate(-732.862 -222.083)" fill="#1d272b"/>
        <path id="Trazado_165655" data-name="Trazado 165655" d="M797.631,387.774a3.133,3.133,0,0,1-3.14,3.154,3.142,3.142,0,0,1-.044-6.284A3.108,3.108,0,0,1,797.631,387.774Zm-3.138-1.027a1.028,1.028,0,0,0-1.038,1.025,1.045,1.045,0,1,0,1.038-1.025Z" transform="translate(-767.272 -360.556)" fill="#1d272b"/>
        <path id="Trazado_165656" data-name="Trazado 165656" d="M610.312,32.756a1.057,1.057,0,0,1,1.045,1.06,1.071,1.071,0,0,1-1.066,1.046,1.053,1.053,0,0,1,.021-2.105Z" transform="translate(-595.574 -28.765)" fill="#1d272b"/>
        <path id="Trazado_165657" data-name="Trazado 165657" d="M940.282,362.719a1.053,1.053,0,1,1-1.058,1.04A1.049,1.049,0,0,1,940.282,362.719Z" transform="translate(-906.702 -339.882)" fill="#1d272b"/>
        <path id="Trazado_165658" data-name="Trazado 165658" d="M775.061,790.807a1.047,1.047,0,1,1,1.056,1.044A1.055,1.055,0,0,1,775.061,790.807Z" transform="translate(-751.915 -742.518)" fill="#1d272b"/>
        <path id="Trazado_165659" data-name="Trazado 165659" d="M920.985,271.985a1.05,1.05,0,0,1,1.056-1.045,1.053,1.053,0,1,1-1.056,1.045Z" transform="translate(-889.505 -253.346)" fill="#1d272b"/>
        <path id="Trazado_165660" data-name="Trazado 165660" d="M500.315,69.552a1.045,1.045,0,1,1-1.055,1.038A1.042,1.042,0,0,1,500.315,69.552Z" transform="translate(-491.866 -63.459)" fill="#1d272b"/>
        <path id="Trazado_165661" data-name="Trazado 165661" d="M445.312,181.666a1.041,1.041,0,1,1,1.061-1.036A1.04,1.04,0,0,1,445.312,181.666Z" transform="translate(-440.014 -167.207)" fill="#1d272b"/>
        <path id="Trazado_165662" data-name="Trazado 165662" d="M552.247,353.213a1.027,1.027,0,0,1-1.043-1.043,1.054,1.054,0,0,1,1.05-1.049,1.072,1.072,0,0,1,1.054,1.056A1.049,1.049,0,0,1,552.247,353.213Z" transform="translate(-540.843 -328.946)" fill="#1d272b"/>
        <path id="Trazado_165663" data-name="Trazado 165663" d="M404.205,62.918a1.042,1.042,0,0,1,1.048-1.051,1.063,1.063,0,0,1,1.056,1.051,1.076,1.076,0,0,1-1.058,1.052A1.049,1.049,0,0,1,404.205,62.918Z" transform="translate(-402.24 -56.213)" fill="#1d272b"/>
      </g>
    </g>
  </g>
</svg>
