<svg id="icon18" xmlns="http://www.w3.org/2000/svg" xmlns:xlink="http://www.w3.org/1999/xlink" width="79.155" height="79.154" viewBox="0 0 79.155 79.154">
  <defs>
    <radialGradient id="radial-gradient" cx="0.077" cy="0.019" r="1.465" gradientTransform="matrix(1, 0, 0, -1, 0, 9.666)" gradientUnits="objectBoundingBox">
      <stop offset="0" stop-color="#f4f4f5"/>
      <stop offset="0.477" stop-color="#f7f8fa"/>
      <stop offset="0.715" stop-color="#fff"/>
    </radialGradient>
  </defs>
  <g id="Group_18531" data-name="Group 18531">
    <g id="Group_18423" data-name="Group 18423">
      <g id="Group_18421" data-name="Group 18421">
        <g id="Group_18420" data-name="Group 18420">
          <g id="Group_18419" data-name="Group 18419">
            <path id="Path_40936" data-name="Path 40936" d="M201.954,554.407a39.577,39.577,0,1,1-39.578-39.575h0A39.576,39.576,0,0,1,201.954,554.407Z" transform="translate(-122.8 -514.832)" fill="#fff"/>
          </g>
        </g>
      </g>
      <path id="Path_40937" data-name="Path 40937" d="M201.953,554.407a39.42,39.42,0,1,0,0,.312Z" transform="translate(-122.799 -514.832)" fill="url(#radial-gradient)"/>
      <path id="Path_40938" data-name="Path 40938" d="M190.028,551.858a30.209,30.209,0,1,0-30.209,30.209h0a30.1,30.1,0,0,0,30.209-29.984Z" transform="translate(-120.122 -512.151)" fill="none" stroke="#1d272b" stroke-miterlimit="10" stroke-width="2"/>
      <g id="Group_18422" data-name="Group 18422" transform="translate(7.012 22.22)">
        <path id="Path_40939" data-name="Path 40939" d="M195.973,530.78a39.581,39.581,0,0,1-68.14,39.411,39.456,39.456,0,0,0,68.14-39.411Z" transform="translate(-127.833 -530.78)" fill="#e7e9eb"/>
      </g>
    </g>
  </g>
  <g id="YZBtyY" transform="translate(-7739.34 1420.28)">
    <g id="Grupo_128845" data-name="Grupo 128845" transform="translate(7765.312 -1400.582)">
      <path id="Trazado_165819" data-name="Trazado 165819" d="M7768.316-1343.191a2.331,2.331,0,0,1-2.759-1.8,3.5,3.5,0,0,1,.815-3.848,2.6,2.6,0,0,1,1.681-.562c7.2-.037,14.405-.03,21.609-.02a2.841,2.841,0,0,1,2.816,3.233,3,3,0,0,1-2.774,3.125v1.218q0,8.423,0,16.845a4.895,4.895,0,0,1-4.943,5.027q-5.692.047-11.386,0a4.955,4.955,0,0,1-5.053-5.081c-.018-5.576-.006-11.153-.006-16.729Zm19.8-1.563c.506,0,.923-.031,1.335.006,1.156.1,1.4-.675,1.387-1.537-.012-.836-.194-1.577-1.371-1.572q-10.572.049-21.144,0c-1.177-.005-1.359.736-1.371,1.572-.012.863.231,1.634,1.388,1.539.515-.042,1.036-.007,1.605-.007v1.483q0,9.119,0,18.239a3.212,3.212,0,0,0,2.839,3.4c4.139.1,8.283.082,12.424.01a2.923,2.923,0,0,0,2.675-2.611l-2.864-.142-.026-.56,3.021-.236v-2.7c-.577,0-1.075.018-1.57-.005s-.976-.089-1.463-.137l-.006-.487,3.063-.177v-2.723c-.78,0-1.509.041-2.229-.021-.269-.023-.519-.284-.776-.436a2.248,2.248,0,0,1,.744-.362c.751-.049,1.508-.017,2.252-.017v-2.924H7785c-.008-.176-.015-.352-.021-.528l3.031-.158v-2.634c-1.024-.312-2.134.251-3-.4l.021-.38,3.082-.154Z" transform="translate(-7765.312 1361.311)" fill="#1d272b"/>
      <path id="Trazado_165820" data-name="Trazado 165820" d="M7809.633-1400.582c-.357,1.209-.889,2.123-.808,2.98.082.887.838,1.691,1.156,2.582a3.235,3.235,0,0,1-.819,3.316c-.132.153-.439.156-.666.228.01-.232-.072-.54.046-.684a2.609,2.609,0,0,0,.024-3.74,3.425,3.425,0,0,1,.021-3.917A5.1,5.1,0,0,1,7809.633-1400.582Z" transform="translate(-7798.051 1400.582)" fill="#1d272b"/>
      <path id="Trazado_165821" data-name="Trazado 165821" d="M7841.556-1391.141a4.765,4.765,0,0,1,.36-.886,2.335,2.335,0,0,0-.022-3.248,3.577,3.577,0,0,1-.148-4.117,4.1,4.1,0,0,1,.828-.708l.225.187a2.029,2.029,0,0,1-.144.6c-1,1.616-1.036,2.284.09,3.761C7843.763-1394.213,7843.3-1391.673,7841.556-1391.141Z" transform="translate(-7823.539 1400.212)" fill="#1d272b"/>
      <path id="Trazado_165822" data-name="Trazado 165822" d="M7798.658-1399.666c-.105.193-.2.394-.317.577a2.637,2.637,0,0,0,.063,3.508,3.216,3.216,0,0,1-.178,4.234c-.169.185-.49.231-.74.342.029-.257-.033-.583.1-.761a2.614,2.614,0,0,0-.037-3.657,3.457,3.457,0,0,1,0-3.922,3.736,3.736,0,0,1,.85-.64Z" transform="translate(-7789.59 1400.124)" fill="#1d272b"/>
      <path id="Trazado_165823" data-name="Trazado 165823" d="M7820.4-1400.141c.118.247.156.3.146.311a3.84,3.84,0,0,0,.258,4.945c.711.947.14,2.865-.771,3.6-.145.117-.395.1-.595.152.006-.233-.085-.548.032-.685,1.111-1.3,1.007-2.476-.01-3.846a3.2,3.2,0,0,1,.061-3.808A3.438,3.438,0,0,1,7820.4-1400.141Z" transform="translate(-7806.42 1400.244)" fill="#1d272b"/>
      <path id="Trazado_165824" data-name="Trazado 165824" d="M7831.651-1399.857a4.178,4.178,0,0,1-.277.671,2.659,2.659,0,0,0,.111,3.594,3.313,3.313,0,0,1-.292,4.245,1.99,1.99,0,0,1-.663.281c.02-.261-.061-.6.073-.772a2.646,2.646,0,0,0-.012-3.659,3.248,3.248,0,0,1-.017-3.909,3.435,3.435,0,0,1,.834-.676Z" transform="translate(-7814.915 1400.198)" fill="#1d272b"/>
      <path id="Trazado_165825" data-name="Trazado 165825" d="M7828.141-1283.817c0,.617.017,1.235,0,1.852a2.112,2.112,0,0,0,.748,2,2.091,2.091,0,0,1-.123,3.168,2.212,2.212,0,0,1-3.112-.181,2.122,2.122,0,0,1,.232-3.165,1.492,1.492,0,0,0,.666-1.441c-.023-1.62-.062-3.244.029-4.859.022-.416.5-.807.768-1.21.266.391.7.758.76,1.177A19.908,19.908,0,0,1,7828.141-1283.817Z" transform="translate(-7811.171 1313.891)" fill="#1d272b"/>
      <path id="Trazado_165826" data-name="Trazado 165826" d="M7834.035-1305.527a3.776,3.776,0,0,1-.477,1.244c-.136.154-.954-.013-.957-.063a19.012,19.012,0,0,1,.036-2.647c0-.048.88-.172.953-.04A6.53,6.53,0,0,1,7834.035-1305.527Z" transform="translate(-7816.943 1328.816)" fill="#1d272b"/>
    </g>
  </g>
</svg>
