<svg xmlns="http://www.w3.org/2000/svg" xmlns:xlink="http://www.w3.org/1999/xlink" width="101.785" height="101.787" viewBox="0 0 101.785 101.787">
  <defs>
    <radialGradient id="radial-gradient" cx="0.077" cy="0.019" r="1.465" gradientTransform="matrix(1, 0, 0, -1, 0, 9.666)" gradientUnits="objectBoundingBox">
      <stop offset="0" stop-color="#f4f4f5"/>
      <stop offset="0.477" stop-color="#f7f8fa"/>
      <stop offset="0.715" stop-color="#fff"/>
    </radialGradient>
  </defs>
  <g id="icon5" transform="translate(101.785) rotate(90)">
    <g id="Group_18531" data-name="Group 18531">
      <g id="Group_18423" data-name="Group 18423">
        <g id="Group_18421" data-name="Group 18421">
          <g id="Group_18420" data-name="Group 18420">
            <g id="Group_18419" data-name="Group 18419">
              <path id="Path_40936" data-name="Path 40936" d="M224.585,565.723a50.893,50.893,0,1,1-50.895-50.891h0A50.891,50.891,0,0,1,224.585,565.723Z" transform="translate(-122.8 -514.832)" fill="#fff"/>
            </g>
          </g>
        </g>
        <path id="Path_40937" data-name="Path 40937" d="M224.584,565.723a50.691,50.691,0,1,0,0,.4Z" transform="translate(-122.798 -514.832)" fill="url(#radial-gradient)"/>
        <path id="Path_40938" data-name="Path 40938" d="M207.3,560.5a38.847,38.847,0,1,0-38.846,38.846h0A38.7,38.7,0,0,0,207.3,560.784Z" transform="translate(-117.409 -509.435)" fill="none" stroke="#1d272b" stroke-miterlimit="10" stroke-width="4"/>
        <g id="Group_18422" data-name="Group 18422" transform="translate(9.017 28.573)">
          <path id="Path_40939" data-name="Path 40939" d="M215.456,530.78a50.9,50.9,0,0,1-87.623,50.68,50.737,50.737,0,0,0,87.623-50.68Z" transform="translate(-127.833 -530.78)" fill="#e7e9eb"/>
        </g>
      </g>
    </g>
    <g id="Grupo_128640" data-name="Grupo 128640" transform="translate(29.876 27.17)">
      <path id="Trazado_165665" data-name="Trazado 165665" d="M2467.4,802.507a4.7,4.7,0,0,1,1.456-3.621,1.9,1.9,0,0,0,.412-1.23c.046-1.633.041-3.269,0-4.9a1.687,1.687,0,0,0-.356-1.127,4.5,4.5,0,0,1-1.474-3.962,9.685,9.685,0,0,1,4.635-7.8,4.329,4.329,0,0,1,3.83-.58,1.819,1.819,0,0,0,1.252-.221c1.476-.794,2.925-1.639,4.362-2.5a1.491,1.491,0,0,0,.7-.77,4.936,4.936,0,0,1,3.234-3.6,9.961,9.961,0,0,1,7.925.052,4.693,4.693,0,0,1,3.091,3.537c.059.319.5.625.831.826,1.4.844,2.8,1.676,4.247,2.44a3.7,3.7,0,0,0,1.382.227,11.465,11.465,0,0,1,3.006.25c3.374,1.281,5.955,6.113,5.236,9.648a3.516,3.516,0,0,1-.929,1.927,2.188,2.188,0,0,0-.751,2.376,7.692,7.692,0,0,1,.083,2.19c-.189,1.59-.224,3,1.073,4.321a4.084,4.084,0,0,1,.653,2.8c-.182,3.214-1.924,5.642-4.35,7.586a4.4,4.4,0,0,1-4.154.79,2.122,2.122,0,0,0-1.381.316q-2.045,1.091-4.019,2.314a2.074,2.074,0,0,0-.939,1.035,4.452,4.452,0,0,1-2.413,3.033,9.812,9.812,0,0,1-9.418-.029,4.733,4.733,0,0,1-2.363-2.942,2.175,2.175,0,0,0-.889-1.064c-.837-.523-1.793-.86-2.613-1.405-1.242-.826-2.325-1.72-4.061-1.141a3.643,3.643,0,0,1-2.537-.666A9.824,9.824,0,0,1,2467.4,802.507Zm10.942-19.27c-.341,3.638-1.708,6.693-4.913,8.268a3.2,3.2,0,0,0-2.016,3.566,10.465,10.465,0,0,0,.172,2.182,1.873,1.873,0,0,0,.9,1.144c3.323,1.379,6.162,5.383,5.7,8.892-.246,1.873.591,2.556,1.858,3.266a10.408,10.408,0,0,0,2.071,1.038,2.013,2.013,0,0,0,1.562-.19c2.836-2.148,7.658-2.659,10.435-.506,1.621,1.256,2.674.755,3.99-.007a8.448,8.448,0,0,0,1.822-1.211,2.092,2.092,0,0,0,.606-1.477c-.406-3.526,1.464-7.823,4.687-9.215,2-.863,2.142-2.125,2.083-3.792a9.361,9.361,0,0,0-.178-2.05,1.754,1.754,0,0,0-.836-1.06c-3.352-1.443-6.136-5.168-5.745-8.733.239-2.187-.842-2.892-2.277-3.7-.525-.294-1.08-.535-1.61-.822a1.341,1.341,0,0,0-1.713.237c-2.779,2.295-7.934,2.48-10.765.271a2.076,2.076,0,0,0-2.729-.216c-.33.2-.685.364-1.017.564C2479.05,780.519,2477.291,781.133,2478.34,783.237Zm30.853,19.063c-.156-.386-.287-1.443-.693-1.562a3.223,3.223,0,0,0-2.382.323,7.158,7.158,0,0,0-3.355,5.919,2.444,2.444,0,0,0,.783,1.87,2.144,2.144,0,0,0,1.883-.229A7.95,7.95,0,0,0,2509.193,802.3Zm-19.774,14.747a27.114,27.114,0,0,0,3.868-1.453c1.207-.668,1.135-1.739.039-2.593-1.908-1.489-6.019-1.5-7.924-.016-1.136.884-1.175,2,.1,2.672A28.178,28.178,0,0,0,2489.419,817.047Zm19.636-29.279a7.6,7.6,0,0,0-3.57-5.9,2.26,2.26,0,0,0-1.88-.295,2.375,2.375,0,0,0-.849,1.835,7.411,7.411,0,0,0,3.5,6.123C2507.842,790.563,2509.057,789.831,2509.055,787.768Zm-19.714-8.862a28.087,28.087,0,0,0,4.009-1.512c1.132-.63,1.05-1.7.036-2.52-1.863-1.506-6.175-1.509-8.033-.005-1.037.839-1.128,1.859.015,2.506A27.693,27.693,0,0,0,2489.34,778.906ZM2476,807c0-2.345-1.925-5.43-3.908-6.269-1.437-.607-2.324-.127-2.354,1.413a7.108,7.108,0,0,0,3.532,6.455C2474.918,809.642,2476,808.954,2476,807Zm-6.375-18.819c.175.349.35,1.318.87,1.567a2.586,2.586,0,0,0,2.116-.349,7.211,7.211,0,0,0,3.342-5.8,1.7,1.7,0,0,0-2.88-1.643C2471.009,783.308,2469.972,785.333,2469.621,788.184Z" transform="translate(-2467.398 -771.398)" fill="#1d272b"/>
      <path id="Trazado_165666" data-name="Trazado 165666" d="M2554.958,823.706a4.039,4.039,0,0,1-4.534,3.789,9.829,9.829,0,0,1-7.99-4.573,3.854,3.854,0,0,1,3.592-6.283,9.617,9.617,0,0,1,7.879,4.483A13.3,13.3,0,0,1,2554.958,823.706Zm-9.337-4.883c-.351.184-1.249.366-1.5.87a2.451,2.451,0,0,0,.281,2,7.279,7.279,0,0,0,5.988,3.474,2.329,2.329,0,0,0,1.871-.771,2.4,2.4,0,0,0-.281-2.01C2550.611,820.21,2548.513,819.148,2545.621,818.823Z" transform="translate(-2522.356 -804.926)" fill="#1d272b"/>
      <path id="Trazado_165667" data-name="Trazado 165667" d="M2513.524,843.247a9.091,9.091,0,0,1-1.522,5.112c-1.717,2.407-4.409,2.48-6.275.184-2.321-2.855-2.188-8.438.265-11.182a3.554,3.554,0,0,1,5.607.016A8.725,8.725,0,0,1,2513.524,843.247Zm-1.973-.042a29.28,29.28,0,0,0-1.477-4.035c-.619-1.153-1.693-1.112-2.516-.133-1.581,1.879-1.583,6.247,0,8.125.833.99,1.782,1.085,2.417-.01A28.157,28.157,0,0,0,2511.551,843.2Z" transform="translate(-2494.577 -819.281)" fill="#1d272b"/>
      <path id="Trazado_165668" data-name="Trazado 165668" d="M2554.9,872.349a7.276,7.276,0,0,1-.194,1.023c-1.121,3.654-6.359,6.633-10.082,5.746a3.563,3.563,0,0,1-2.742-4.616c1.1-3.77,6.256-6.82,10.069-5.951A3.567,3.567,0,0,1,2554.9,872.349Zm-8.575,4.657a7.734,7.734,0,0,0,5.874-3.58c.974-1.535.276-2.8-1.529-2.727a7.33,7.33,0,0,0-6.213,3.573C2543.44,875.9,2544.158,877.013,2546.326,877.006Z" transform="translate(-2522.485 -843.299)" fill="#1d272b"/>
    </g>
  </g>
</svg>
