<svg xmlns="http://www.w3.org/2000/svg" xmlns:xlink="http://www.w3.org/1999/xlink" width="101.785" height="101.787" viewBox="0 0 101.785 101.787">
  <defs>
    <radialGradient id="radial-gradient" cx="0.077" cy="0.019" r="1.465" gradientTransform="matrix(1, 0, 0, -1, 0, 9.666)" gradientUnits="objectBoundingBox">
      <stop offset="0" stop-color="#f4f4f5"/>
      <stop offset="0.477" stop-color="#f7f8fa"/>
      <stop offset="0.715" stop-color="#fff"/>
    </radialGradient>
  </defs>
  <g id="icon4" transform="translate(101.785) rotate(90)">
    <g id="Group_18531" data-name="Group 18531">
      <g id="Group_18423" data-name="Group 18423">
        <g id="Group_18421" data-name="Group 18421">
          <g id="Group_18420" data-name="Group 18420">
            <g id="Group_18419" data-name="Group 18419">
              <path id="Path_40936" data-name="Path 40936" d="M224.585,565.723a50.893,50.893,0,1,1-50.895-50.891h0A50.891,50.891,0,0,1,224.585,565.723Z" transform="translate(-122.8 -514.832)" fill="#fff"/>
            </g>
          </g>
        </g>
        <path id="Path_40937" data-name="Path 40937" d="M224.584,565.723a50.691,50.691,0,1,0,0,.4Z" transform="translate(-122.798 -514.832)" fill="url(#radial-gradient)"/>
        <path id="Path_40938" data-name="Path 40938" d="M207.3,560.5a38.847,38.847,0,1,0-38.846,38.846h0A38.7,38.7,0,0,0,207.3,560.784Z" transform="translate(-117.409 -509.435)" fill="none" stroke="#1d272b" stroke-miterlimit="10" stroke-width="4"/>
        <g id="Group_18422" data-name="Group 18422" transform="translate(9.017 28.573)">
          <path id="Path_40939" data-name="Path 40939" d="M215.456,530.78a50.9,50.9,0,0,1-87.623,50.68,50.737,50.737,0,0,0,87.623-50.68Z" transform="translate(-127.833 -530.78)" fill="#e7e9eb"/>
        </g>
      </g>
    </g>
    <g id="Grupo_128641" data-name="Grupo 128641" transform="translate(-742.235 1817.373) rotate(-90)">
      <path id="Trazado_165669" data-name="Trazado 165669" d="M1864.26,791.178a34.546,34.546,0,0,1-3.352,14.416,5.1,5.1,0,0,0-.284,2.6c.505,4.451,1.09,8.894,1.667,13.337a3.4,3.4,0,0,1-1.973,3.876,3.163,3.163,0,0,1-3.878-1.082,6.807,6.807,0,0,1-.793-2.5c-.612-3.949-1.15-7.91-1.731-11.863a7.009,7.009,0,0,0-1.813-3.871c-3.967-4.3-6.044-9.591-7.6-15.115a3.186,3.186,0,0,1,1.8-3.723,2.935,2.935,0,0,1,3.779.951,14.43,14.43,0,0,1,1.367,2.678c1.149,2.58,2.247,5.183,3.421,7.752.169.371.648.6.984.9a3.658,3.658,0,0,0,.589-1.094c.413-2.957.732-5.928,1.17-8.881a10.244,10.244,0,0,1,.9-3.2,2.742,2.742,0,0,1,3.378-1.172,2.961,2.961,0,0,1,2.369,2.846C1864.29,789.077,1864.26,790.128,1864.26,791.178Zm-2.151.148a24.22,24.22,0,0,0-.041-3.023,1.033,1.033,0,0,0-2.025-.293,7.536,7.536,0,0,0-.352,2.013c-.413,3.12-.782,6.246-1.244,9.359a2.637,2.637,0,0,1-2.324,2.315,2.706,2.706,0,0,1-2.9-1.541,25.8,25.8,0,0,1-1.26-2.483c-1.069-2.485-2.088-4.991-3.151-7.479-.277-.649-.666-1.313-1.534-.99-.829.309-.786,1.009-.574,1.732,1.566,5.368,3.757,10.394,7.641,14.559a5.314,5.314,0,0,1,1.24,2.442c.57,2.763,1,5.557,1.438,8.345.321,2.034.561,4.079.862,6.116.109.737.608,1.311,1.313,1.038.443-.171.692-.9.972-1.4.077-.139-.057-.388-.082-.589-.543-4.407-1.133-8.81-1.592-13.226a6.58,6.58,0,0,1,.368-3.318A32.641,32.641,0,0,0,1862.11,791.326Z" transform="translate(-77.108 -10.071)" fill="#1d272b"/>
      <path id="Trazado_165670" data-name="Trazado 165670" d="M1757.272,771.734a2.716,2.716,0,0,1,2.666,1.569c1.785,3.932,3.588,7.869,4.1,12.226.169,1.442.139,2.908.347,4.342a9.091,9.091,0,0,0,.884,3.316c2.318,3.878,4.787,7.665,7.21,11.479a3.261,3.261,0,0,1,.056,3.86,2.885,2.885,0,0,1-3.383,1.287,4.684,4.684,0,0,1-2.239-1.654c-2.111-3.053-4.1-6.193-6.1-9.317a10.683,10.683,0,0,0-4.981-4.371c-5.123-2.139-8.937-6.007-12.517-10.1a3.154,3.154,0,0,1,.089-4.123,3.018,3.018,0,0,1,3.945-.661,17.529,17.529,0,0,1,2.344,1.894c2.1,1.824,4.18,3.678,6.3,5.481a3.639,3.639,0,0,0,1.172.422,3.441,3.441,0,0,0,.159-1.326c-.982-3.156-2.026-6.294-3.056-9.435a3.924,3.924,0,0,1,.142-3.393A3.118,3.118,0,0,1,1757.272,771.734Zm2.372,14.734a2.938,2.938,0,0,1-1.438,2.834,2.418,2.418,0,0,1-2.844-.156c-1.6-1.234-3.151-2.524-4.678-3.842-1.375-1.187-2.673-2.462-4.038-3.661-.5-.441-1.2-.6-1.567.064a1.631,1.631,0,0,0,.094,1.488c3.487,4.031,7.294,7.688,12.352,9.716a8.75,8.75,0,0,1,4.124,3.421q3.474,5.255,6.919,10.529c.469.718,1.017,1.27,1.866.735.867-.547.569-1.26.1-1.984q-3.075-4.72-6.1-9.473c-1.41-2.207-2.5-4.486-2.272-7.249a17.206,17.206,0,0,0-.347-3.608c-.5-3.819-2.11-7.27-3.7-10.715a1.38,1.38,0,0,0-1.213-.574c-.335.092-.653.7-.735,1.131a2.771,2.771,0,0,0,.284,1.278c.644,1.87,1.352,3.719,1.951,5.6C1758.915,783.616,1759.313,785.263,1759.644,786.468Z" transform="translate(0 0)" fill="#1d272b"/>
    </g>
  </g>
</svg>
