<svg xmlns="http://www.w3.org/2000/svg" xmlns:xlink="http://www.w3.org/1999/xlink" width="103.842" height="103.844" viewBox="0 0 103.842 103.844">
  <defs>
    <radialGradient id="radial-gradient" cx="0.077" cy="0.019" r="1.465" gradientTransform="matrix(1, 0, 0, -1, 0, 9.666)" gradientUnits="objectBoundingBox">
      <stop offset="0" stop-color="#f4f4f5"/>
      <stop offset="0.477" stop-color="#f7f8fa"/>
      <stop offset="0.715" stop-color="#fff"/>
    </radialGradient>
  </defs>
  <g id="icon7" transform="translate(103.842) rotate(90)">
    <g id="Group_18531" data-name="Group 18531">
      <g id="Group_18423" data-name="Group 18423">
        <g id="Group_18421" data-name="Group 18421">
          <g id="Group_18420" data-name="Group 18420">
            <g id="Group_18419" data-name="Group 18419">
              <path id="Path_40936" data-name="Path 40936" d="M226.642,566.751a51.921,51.921,0,1,1-51.923-51.919h0A51.919,51.919,0,0,1,226.642,566.751Z" transform="translate(-122.8 -514.832)" fill="#fff"/>
            </g>
          </g>
        </g>
        <path id="Path_40937" data-name="Path 40937" d="M226.64,566.751a51.715,51.715,0,1,0,0,.41Z" transform="translate(-122.798 -514.832)" fill="url(#radial-gradient)"/>
        <path id="Path_40938" data-name="Path 40938" d="M208.873,561.281a39.632,39.632,0,1,0-39.631,39.631h0a39.484,39.484,0,0,0,39.631-39.337Z" transform="translate(-117.163 -509.188)" fill="none" stroke="#1d272b" stroke-miterlimit="10" stroke-width="4"/>
        <g id="Group_18422" data-name="Group 18422" transform="translate(9.199 29.15)">
          <path id="Path_40939" data-name="Path 40939" d="M217.226,530.78a51.927,51.927,0,0,1-89.393,51.7,51.762,51.762,0,0,0,89.393-51.7Z" transform="translate(-127.833 -530.78)" fill="#e7e9eb"/>
        </g>
      </g>
    </g>
    <g id="Grupo_128643" data-name="Grupo 128643" transform="translate(32.029 30.748)">
      <path id="Trazado_165674" data-name="Trazado 165674" d="M1845.15,443.374c-1.091-.579-1.813.092-2.726.459a24.764,24.764,0,0,1-5.635,1.45,2.974,2.974,0,0,1-3.052-2.582,3.013,3.013,0,0,1,2.055-3.439c2.09-.474,4.091-1.631,6.365-1.031a.663.663,0,0,0,.511-.153c1.814-1.586,4.16-1.621,6.328-2.076a2.84,2.84,0,0,1,3.185,2.224,2.894,2.894,0,0,1-1.545,3.574C1848.861,442.473,1846.978,442.863,1845.15,443.374Zm4.188-5.515c-1.739.479-3.3.859-4.815,1.374a1.228,1.228,0,0,0-.442,1.128c.142.364.742.855,1.051.8a36.5,36.5,0,0,0,4.541-1.181,1.26,1.26,0,0,0,.514-1.105C1850.109,438.488,1849.631,438.185,1849.338,437.859Zm-12.692,5.538c1.751-.471,3.319-.837,4.834-1.355.271-.093.537-.894.419-1.234a1.336,1.336,0,0,0-1.109-.684,31.769,31.769,0,0,0-4.324,1.1,1.378,1.378,0,0,0-.634,1.148C1835.866,442.745,1836.368,443.072,1836.645,443.4Z" transform="translate(-1812.242 -402.713)" fill="#1d272b"/>
      <path id="Trazado_165675" data-name="Trazado 165675" d="M1876.567,347.255a3.13,3.13,0,0,1,3.024,3.934,21.517,21.517,0,0,1-1.237,4.169,10.082,10.082,0,0,0-1.144,3.956,18.229,18.229,0,0,1-1.158,4.307,3.121,3.121,0,0,1-5.98-1.778,21.392,21.392,0,0,1,1.27-4.277,9.628,9.628,0,0,0,1.087-3.744,19.423,19.423,0,0,1,1.226-4.525A3.06,3.06,0,0,1,1876.567,347.255Zm-1.134,11.209c-.253-.271-.522-.808-.887-.883a1.374,1.374,0,0,0-1.214.5,30.632,30.632,0,0,0-1.283,4.4c-.07.335.437.993.822,1.152a1.311,1.311,0,0,0,1.163-.574C1874.565,361.624,1874.942,360.136,1875.434,358.464Zm2.329-8.191c-.295-.282-.624-.853-1-.886a1.48,1.48,0,0,0-1.2.725,26,26,0,0,0-1.142,4.081,1.412,1.412,0,0,0,.657,1.213,1.4,1.4,0,0,0,1.279-.515C1876.894,353.467,1877.262,351.976,1877.762,350.273Z" transform="translate(-1840.168 -334.431)" fill="#1d272b"/>
      <path id="Trazado_165676" data-name="Trazado 165676" d="M1777.285,380a5.129,5.129,0,0,1,1.13.361,18.7,18.7,0,0,1,3.848,2.25,9.616,9.616,0,0,0,3.482,1.989,19.555,19.555,0,0,1,3.9,2.171,3.114,3.114,0,0,1-3.094,5.4,19.291,19.291,0,0,1-3.942-2.316,8.919,8.919,0,0,0-3.262-1.877,19.818,19.818,0,0,1-4.2-2.329,3,3,0,0,1-1.136-3.552A3.2,3.2,0,0,1,1777.285,380Zm3.337,6.449c.351-.279.913-.508.954-.809a1.668,1.668,0,0,0-.442-1.35,21.5,21.5,0,0,0-2.764-1.633c-.778-.421-1.7-1.234-2.35,0-.6,1.137.531,1.489,1.258,1.919C1778.329,385.193,1779.406,385.769,1780.622,386.448Zm3.567-.319c-.267.26-.8.54-.82.857a1.669,1.669,0,0,0,.53,1.31c1.1.749,2.294,1.348,3.451,2.009.633.362,1.319.3,1.543-.348a1.665,1.665,0,0,0-.456-1.495,35.225,35.225,0,0,0-3.438-2.024A6.881,6.881,0,0,0,1784.189,386.129Z" transform="translate(-1766.155 -359.639)" fill="#1d272b"/>
      <path id="Trazado_165677" data-name="Trazado 165677" d="M1808.783,317.662c-.257-.445-.512-.891-.77-1.335a14.086,14.086,0,0,1-2.148-6.664,2.769,2.769,0,0,1,.825-1.7,3.072,3.072,0,0,1,5.094,1.087c.674,1.987,1.851,3.885,1.485,6.138a.528.528,0,0,0,.163.4c1.762,1.614,1.894,3.958,2.628,6.013a2.936,2.936,0,0,1-1.715,3.412,2.891,2.891,0,0,1-3.783-.935,18.1,18.1,0,0,1-2.106-6.241Zm2.721-3.435c-.614-1.687-1.106-3.206-1.748-4.66a1.326,1.326,0,0,0-1.245-.371,1.365,1.365,0,0,0-.677,1.139,32.578,32.578,0,0,0,1.509,4.308,1.379,1.379,0,0,0,1.21.487C1810.917,315.061,1811.194,314.543,1811.5,314.227Zm2.725,8.071c-.612-1.7-1.109-3.229-1.738-4.7a1.221,1.221,0,0,0-1.142-.4c-.349.156-.8.787-.72,1.086a36.921,36.921,0,0,0,1.49,4.443,1.258,1.258,0,0,0,1.127.446C1813.63,323.082,1813.915,322.6,1814.229,322.3Z" transform="translate(-1790.817 -303.461)" fill="#1d272b"/>
      <path id="Trazado_165678" data-name="Trazado 165678" d="M1755.981,421.611a3.123,3.123,0,0,1-1.848,3.06,2.8,2.8,0,0,1-3.314-.487c-1.454-1.522-3.515-2.536-4.157-4.773a.509.509,0,0,0-.312-.3c-2.28-.578-3.468-2.553-5.041-4.007a3,3,0,0,1,.021-4.166,2.948,2.948,0,0,1,4.226-.31c1.542,1.486,3.566,2.582,4.269,4.827a.677.677,0,0,0,.417.341c2.309.694,3.539,2.708,5.131,4.256C1755.808,420.481,1755.865,421.291,1755.981,421.611Zm-2.078.134c-.037-.118-.041-.4-.183-.537-1.119-1.095-2.228-2.206-3.433-3.2a1.319,1.319,0,0,0-1.271.229,1.336,1.336,0,0,0-.054,1.3,32.544,32.544,0,0,0,3.3,3.174C1752.948,423.277,1753.879,422.719,1753.9,421.745Zm-6.061-5.7c-.089-.275-.094-.465-.19-.559-1.178-1.141-2.34-2.3-3.589-3.364a1.226,1.226,0,0,0-1.177.245,1.386,1.386,0,0,0-.089,1.3,37.977,37.977,0,0,0,3.319,3.164,1.318,1.318,0,0,0,1.144.019C1747.541,416.722,1747.681,416.282,1747.843,416.041Z" transform="translate(-1740.478 -382.643)" fill="#1d272b"/>
      <path id="Trazado_165679" data-name="Trazado 165679" d="M1744.088,308.933c-2.308-.266-3.943-2.451-2.979-4.389.985-1.979,1.785-4.174,3.816-5.472.191-.122.186-.524.317-.772a39.328,39.328,0,0,1,3.11-5.664,2.844,2.844,0,0,1,4.127-.409c1.564,1.315,1.512,2.473.581,4.321-.854,1.7-1.665,3.54-3.412,4.637a.817.817,0,0,0-.327.555c-.175,2.408-1.851,4.064-3.063,5.919C1745.847,308.289,1744.829,308.52,1744.088,308.933Zm6.412-15.517c-.423.311-.841.475-1.026.78a31.634,31.634,0,0,0-2.012,3.7,1.573,1.573,0,0,0,.526,1.375c.458.349,1.04.234,1.407-.436.621-1.133,1.358-2.2,2-3.328.2-.354.442-.9.3-1.178C1751.515,293.961,1750.98,293.761,1750.5,293.416Zm-3.094,8.557c-.258-.329-.467-.857-.788-.938a1.452,1.452,0,0,0-1.27.33,28.962,28.962,0,0,0-2.26,3.717,1.406,1.406,0,0,0,.338,1.327,1.577,1.577,0,0,0,1.451-.276,19.268,19.268,0,0,0,1.651-2.612C1746.8,303.066,1747.052,302.6,1747.406,301.973Z" transform="translate(-1740.746 -291.528)" fill="#1d272b"/>
      <path id="Trazado_165680" data-name="Trazado 165680" d="M1859.569,306.891l-5.5-2.111c-.173-.066-.375-.24-.51-.2-1.936.625-3.618-.467-5.418-.749a3.281,3.281,0,0,1-2.768-1.93,3.532,3.532,0,0,1,.722-3.494,2.77,2.77,0,0,1,3.063-.643c1.061.394,2.218.527,3.293.892.755.256,1.43.74,2.168,1.058a3.67,3.67,0,0,0,1.051.152c.967.1,1.941.147,2.9.3a20.581,20.581,0,0,1,3.01.671,2.934,2.934,0,0,1,2.046,3.52C1863.155,305.864,1862.425,306.876,1859.569,306.891Zm-11.461-7.554c-.292.27-.917.582-.946.941a1.618,1.618,0,0,0,.684,1.352,30.808,30.808,0,0,0,4.421,1.095,1.216,1.216,0,0,0,1.011-.646c.092-.374-.127-1.135-.4-1.237C1851.4,300.28,1849.852,299.868,1848.108,299.338Zm12.46,5.648c.31-.286.861-.568.979-.975a1.313,1.313,0,0,0-.55-1.171,34.814,34.814,0,0,0-4.542-1.113c-.295-.052-.917.475-.992.82a1.319,1.319,0,0,0,.567,1.158C1857.416,304.191,1858.858,304.521,1860.568,304.985Z" transform="translate(-1821.082 -296.169)" fill="#1d272b"/>
    </g>
  </g>
</svg>
