<svg xmlns="http://www.w3.org/2000/svg" xmlns:xlink="http://www.w3.org/1999/xlink" width="106.073" height="106.075" viewBox="0 0 106.073 106.075">
  <defs>
    <radialGradient id="radial-gradient" cx="0.077" cy="0.019" r="1.465" gradientTransform="matrix(1, 0, 0, -1, 0, 9.666)" gradientUnits="objectBoundingBox">
      <stop offset="0" stop-color="#f4f4f5"/>
      <stop offset="0.477" stop-color="#f7f8fa"/>
      <stop offset="0.715" stop-color="#fff"/>
    </radialGradient>
  </defs>
  <g id="icon8" transform="translate(106.074) rotate(90)">
    <g id="Group_18531" data-name="Group 18531">
      <g id="Group_18423" data-name="Group 18423">
        <g id="Group_18421" data-name="Group 18421">
          <g id="Group_18420" data-name="Group 18420">
            <g id="Group_18419" data-name="Group 18419">
              <path id="Path_40936" data-name="Path 40936" d="M228.873,567.867a53.037,53.037,0,1,1-53.039-53.035h0A53.035,53.035,0,0,1,228.873,567.867Z" transform="translate(-122.8 -514.832)" fill="#fff"/>
            </g>
          </g>
        </g>
        <path id="Path_40937" data-name="Path 40937" d="M228.872,567.867a52.826,52.826,0,1,0,0,.418Z" transform="translate(-122.798 -514.832)" fill="url(#radial-gradient)"/>
        <path id="Path_40938" data-name="Path 40938" d="M210.577,562.132a40.483,40.483,0,1,0-40.482,40.482h0a40.333,40.333,0,0,0,40.482-40.182Z" transform="translate(-116.895 -508.92)" fill="none" stroke="#1d272b" stroke-miterlimit="10" stroke-width="4"/>
        <g id="Group_18422" data-name="Group 18422" transform="translate(9.397 29.777)">
          <path id="Path_40939" data-name="Path 40939" d="M219.147,530.78a53.043,53.043,0,0,1-91.314,52.815,52.874,52.874,0,0,0,91.314-52.815Z" transform="translate(-127.833 -530.78)" fill="#e7e9eb"/>
        </g>
      </g>
    </g>
    <g id="Grupo_128644" data-name="Grupo 128644" transform="translate(30.436 32.136)">
      <path id="Trazado_165681" data-name="Trazado 165681" d="M1781.893,594.928c-3.318.035-5.333-1.693-5.6-4.234a4.494,4.494,0,0,1,3.96-5.133,15.1,15.1,0,0,0,10.686-5.78,4.474,4.474,0,0,1,6.469-.482,4.673,4.673,0,0,1,.883,6.343A22.245,22.245,0,0,1,1781.893,594.928Zm-.018-3.068a19.46,19.46,0,0,0,13.594-7.511c.74-.937.94-1.928-.079-2.708s-1.888-.314-2.641.615a15.882,15.882,0,0,1-11.432,6.167c-1.146.093-2.058.557-1.975,1.876S1780.387,591.934,1781.876,591.86Z" transform="translate(-1772.998 -571.302)" fill="#1d272b"/>
      <path id="Trazado_165682" data-name="Trazado 165682" d="M1856.065,600.639c2.762-.106,4.656.942,5.43,3.017a4.514,4.514,0,0,1-1.5,5.378,6.205,6.205,0,0,1-3,1.028,14.16,14.16,0,0,0-10.09,4.82,4.674,4.674,0,0,1-6.879.419,4.8,4.8,0,0,1-.175-6.791A22.582,22.582,0,0,1,1856.065,600.639Zm.129,3.035a19.8,19.8,0,0,0-13.779,6.535c-.811.881-1.313,1.881-.262,2.841s1.956.42,2.785-.51a15.41,15.41,0,0,1,7.76-4.811c1.424-.367,2.975-.275,4.37-.711a2.657,2.657,0,0,0,1.546-1.791c.064-.429-.99-1.1-1.63-1.522A1.158,1.158,0,0,0,1856.194,603.674Z" transform="translate(-1813.831 -586.047)" fill="#1d272b"/>
      <path id="Trazado_165683" data-name="Trazado 165683" d="M1818.135,657c-2.354.334-4.235-1.492-6.092-2.817a20.507,20.507,0,0,1-7.652-9.883,21.1,21.1,0,0,1-.688-2.121,4.737,4.737,0,0,1,3.133-5.734,4.523,4.523,0,0,1,5.784,2.663,15.189,15.189,0,0,0,8.189,9.416,4.431,4.431,0,0,1,2.022,5.2A5.277,5.277,0,0,1,1818.135,657Zm.359-2.687c.433-.44,1.3-.926,1.288-1.4a2.658,2.658,0,0,0-1.039-2.021,16.875,16.875,0,0,1-8.712-10.12c-.357-1.126-1.076-1.823-2.315-1.365s-1.266,1.486-.908,2.572a19.557,19.557,0,0,0,10.12,11.765A16.093,16.093,0,0,0,1818.495,654.313Z" transform="translate(-1790.893 -609.372)" fill="#1d272b"/>
      <path id="Trazado_165684" data-name="Trazado 165684" d="M1880.152,649.958a4.7,4.7,0,1,1-4.677-4.714A4.714,4.714,0,0,1,1880.152,649.958Zm-2.823.285q-.012-.365-.024-.73c-.645-.4-1.32-1.154-1.927-1.1-.553.046-1.507,1.045-1.433,1.478a2.309,2.309,0,0,0,1.543,1.566C1876.041,651.523,1876.71,650.682,1877.329,650.243Z" transform="translate(-1834.958 -615.301)" fill="#1d272b"/>
      <path id="Trazado_165685" data-name="Trazado 165685" d="M1787.381,567.7a4.811,4.811,0,0,1-4.537-4.882,4.9,4.9,0,0,1,4.9-4.547,4.842,4.842,0,0,1,4.521,4.909A4.749,4.749,0,0,1,1787.381,567.7Zm2.557-4.606c-1.1-.81-1.732-1.644-2.3-1.6-.608.049-1.149.923-1.72,1.437.523.568.985,1.5,1.586,1.6C1788.064,564.623,1788.769,563.83,1789.938,563.094Z" transform="translate(-1777.308 -558.266)" fill="#1d272b"/>
      <path id="Trazado_165686" data-name="Trazado 165686" d="M1776.166,647.213a4.7,4.7,0,1,1-4.725-4.647A4.709,4.709,0,0,1,1776.166,647.213Zm-2.851.428.02-.761c-.626-.413-1.266-1.165-1.873-1.139-.559.024-1.577.97-1.51,1.357a2.376,2.376,0,0,0,1.462,1.655C1771.959,648.854,1772.674,648.047,1773.314,647.641Z" transform="translate(-1766.772 -613.545)" fill="#1d272b"/>
      <path id="Trazado_165687" data-name="Trazado 165687" d="M1859.087,566.5a4.582,4.582,0,0,1-4.578,4.747,4.659,4.659,0,1,1-.177-9.316A4.584,4.584,0,0,1,1859.087,566.5Zm-4.3-1.754-.748,0c-.414.63-1.221,1.322-1.134,1.874a2.293,2.293,0,0,0,1.617,1.444c.411.064,1.362-.906,1.385-1.442C1855.932,566.021,1855.193,565.379,1854.787,564.751Z" transform="translate(-1821.169 -560.672)" fill="#1d272b"/>
    </g>
  </g>
</svg>
