<svg id="icon19" xmlns="http://www.w3.org/2000/svg" xmlns:xlink="http://www.w3.org/1999/xlink" width="79.155" height="79.154" viewBox="0 0 79.155 79.154">
  <defs>
    <radialGradient id="radial-gradient" cx="0.077" cy="0.019" r="1.465" gradientTransform="matrix(1, 0, 0, -1, 0, 9.666)" gradientUnits="objectBoundingBox">
      <stop offset="0" stop-color="#f4f4f5"/>
      <stop offset="0.477" stop-color="#f7f8fa"/>
      <stop offset="0.715" stop-color="#fff"/>
    </radialGradient>
  </defs>
  <g id="Group_18531" data-name="Group 18531">
    <g id="Group_18423" data-name="Group 18423">
      <g id="Group_18421" data-name="Group 18421">
        <g id="Group_18420" data-name="Group 18420">
          <g id="Group_18419" data-name="Group 18419">
            <path id="Path_40936" data-name="Path 40936" d="M201.954,554.407a39.577,39.577,0,1,1-39.578-39.575h0A39.576,39.576,0,0,1,201.954,554.407Z" transform="translate(-122.8 -514.832)" fill="#fff"/>
          </g>
        </g>
      </g>
      <path id="Path_40937" data-name="Path 40937" d="M201.953,554.407a39.42,39.42,0,1,0,0,.312Z" transform="translate(-122.799 -514.832)" fill="url(#radial-gradient)"/>
      <path id="Path_40938" data-name="Path 40938" d="M190.028,551.858a30.209,30.209,0,1,0-30.209,30.209h0a30.1,30.1,0,0,0,30.209-29.984Z" transform="translate(-120.122 -512.151)" fill="none" stroke="#1d272b" stroke-miterlimit="10" stroke-width="2"/>
      <g id="Group_18422" data-name="Group 18422" transform="translate(7.012 22.22)">
        <path id="Path_40939" data-name="Path 40939" d="M195.973,530.78a39.581,39.581,0,0,1-68.14,39.411,39.456,39.456,0,0,0,68.14-39.411Z" transform="translate(-127.833 -530.78)" fill="#e7e9eb"/>
      </g>
    </g>
  </g>
  <g id="hG1g27" transform="translate(-6276.738 1483.673)">
    <g id="Grupo_128849" data-name="Grupo 128849" transform="translate(6294.893 -1466.061)">
      <path id="Trazado_165849" data-name="Trazado 165849" d="M6338.609-1428.879h-4.589v1.413h-13.429c.058-.647.1-1.28.184-1.906.017-.12.2-.253.336-.314,1.39-.626,2.78-1.252,4.184-1.845a.628.628,0,0,0,.473-.676q-.021-8.225-.007-16.449c0-.293-.035-.48-.388-.527a6.95,6.95,0,0,1-4.8-2.838c-.043-.058-.1-.108-.2-.226l-8.725,8.077c.544.174,1.034.305,1.5.488.9.349,1.02.56,1.02,1.515,0,3.956-.03,7.912.018,11.867a2.211,2.211,0,0,1-1.331,2.2,12.574,12.574,0,0,1-4.113,1.18,27.331,27.331,0,0,1-10.029-.318,14.058,14.058,0,0,1-2.677-.984,1.942,1.942,0,0,1-1.146-1.958c.033-4.121.016-8.243,0-12.364a.962.962,0,0,1,.722-.99,20,20,0,0,1,3.028-.774,43.26,43.26,0,0,1,8.754-.272.942.942,0,0,0,.881-.4q6.26-7.568,12.539-15.12a7.231,7.231,0,0,1,4.563-2.553l.367-.063v-3.344h2.351c0,1.021.02,2.028-.01,3.034-.011.384.115.531.48.644a6.826,6.826,0,0,1,4.955,6.561,6.853,6.853,0,0,1-4.952,6.4c-.319.1-.484.2-.483.581q.021,8.114.011,16.228c0,.109.017.217.03.379,1.052.147,2.1.3,3.15.44q3.5.465,7,.917a3.158,3.158,0,0,0,.33.009Zm-31.478-12.885.08.081c.112-.092.229-.179.334-.277q6.193-5.736,12.378-11.48a1.37,1.37,0,0,1,1.025-.4c3.495.014,6.989,0,10.483.017.395,0,.647-.086.677-.505a10.328,10.328,0,0,0,.128-2.556,5.437,5.437,0,0,0-4.29-4.46,5.686,5.686,0,0,0-6.122,1.9c-4.108,4.882-8.166,9.807-12.243,14.715Q6308.355-1443.246,6307.131-1441.764Zm6.26,9.015a23.425,23.425,0,0,1-8.817,1.461,24.3,24.3,0,0,1-8.889-1.268c0,.864.021,1.687-.008,2.509a1,1,0,0,0,.533,1.009,9.854,9.854,0,0,0,1.855.819,25.394,25.394,0,0,0,11.369.358,16.567,16.567,0,0,0,3.269-1.094,1.3,1.3,0,0,0,.658-.911C6313.449-1430.8,6313.391-1431.739,6313.391-1432.749Zm-.031-8.952c-.8.187-1.529.39-2.268.52a16.341,16.341,0,0,1-2.242.26,1.579,1.579,0,0,0-1.378.63,11.14,11.14,0,0,1,.867,2.059,11.349,11.349,0,0,1,.032,2.232,10.525,10.525,0,0,1,4.989,1.717Zm-17.625.051v7.19l4.772-1.524a4.53,4.53,0,0,1,1.523-4.765c-1.134-.1-2.181-.155-3.214-.3S6296.773-1441.445,6295.735-1441.651Zm17.277,8.111a9.017,9.017,0,0,0-4.772-1.642c-.124-.012-.311.15-.4.278a3.929,3.929,0,0,1-6.754.135c-.173-.247-.336-.358-.627-.28-.974.263-1.96.487-2.92.794a14.884,14.884,0,0,0-1.661.761C6298.236-1431.6,6310.216-1431.658,6313.012-1433.54Zm-11.5-3.692a3.046,3.046,0,0,0,2.89,3.146,3.024,3.024,0,0,0,2.909-3.127,2.974,2.974,0,0,0-3.058-3.137A3.026,3.026,0,0,0,6301.517-1437.232Zm-5.731-5.621-.019.23a8.337,8.337,0,0,0,.943.359,34.556,34.556,0,0,0,8.422.758.488.488,0,0,0,.338-.129c.592-.69,1.167-1.393,1.841-2.2C6303.327-1443.936,6299.5-1444,6295.785-1442.853Zm25.822-9.793c2.521,3.427,7.745,2.889,9.557,0Zm-12.623,10.941a10.885,10.885,0,0,0,4.256-1.043,15.924,15.924,0,0,0-2.252-.661.331.331,0,0,0-.246.088C6310.192-1442.824,6309.65-1442.319,6308.984-1441.7Z" transform="translate(-6294.893 1466.061)" fill="#1d272b"/>
    </g>
  </g>
</svg>
