<svg xmlns="http://www.w3.org/2000/svg" width="70.797" height="95.082" viewBox="0 0 70.797 95.082">
  <g id="img-intro6" transform="translate(-2524.845 437.595)">
    <g id="Grupo_128175" data-name="Grupo 128175" transform="translate(2524.845 -437.595)">
      <path id="Trazado_165193" data-name="Trazado 165193" d="M2537.987-342.514c.02-.307.057-.614.058-.921q0-15.268,0-30.537c0-.293-.028-.586-.053-1.076l-1.142,1.408-12.006-8.011c.307-.509.573-.954.842-1.4,1.608-2.638,3.24-5.262,4.821-7.916,2.815-4.725,7.052-6.921,12.446-7.042,2.472-.056,4.947,0,7.42-.012,1.367,0,1.908-.546,1.929-1.9a.9.9,0,0,1,0-.093,10.286,10.286,0,0,0-1.846-7.235,68.843,68.843,0,0,1-3.725-6.511,6.278,6.278,0,0,1-.722-2.714,76.648,76.648,0,0,1,.181-8.8,14.107,14.107,0,0,1,11.41-12.1,14.238,14.238,0,0,1,16.123,9.423,26.186,26.186,0,0,1,.781,3.985,4.741,4.741,0,0,1,.024.834c0,2.135.356,4.354-.113,6.381s-1.761,3.848-2.7,5.757a33.122,33.122,0,0,1-1.884,3.711,11.5,11.5,0,0,0-1.63,7.516c.086,1.174.6,1.723,1.806,1.743,3.152.052,6.32-.092,9.451.19a13.057,13.057,0,0,1,10.284,6.439c1.829,2.937,3.6,5.909,5.4,8.866.158.259.3.527.5.881l-12.05,8.041-.985-1.366a2.384,2.384,0,0,0-.143.531q-.008,15.78,0,31.559a2.108,2.108,0,0,0,.063.362h-3.34c.01-.37.03-.741.03-1.112q0-19.443,0-38.887v-1.157h3.326c-.6,2.321.6,3.956,1.97,5.611l6.824-4.558c-1.492-2.454-2.916-4.8-4.351-7.147a8.774,8.774,0,0,0-.848-1.211,11.063,11.063,0,0,0-8.791-3.817c-2.719.008-5.442.031-8.156-.1a4.405,4.405,0,0,1-4.1-4.077c-.1-1.212-.019-2.44-.019-3.654h-3.127v11.158c1.067.141,2.085.2,3.07.418,6.641,1.44,11.033,6.985,11.087,14.086.051,6.681.067,13.363-.006,20.043-.068,6.345-3.038,10.869-8.881,13.4a27.667,27.667,0,0,1-3.432,1h-7.238a1.291,1.291,0,0,0-.316-.166c-6-1.238-9.859-4.763-11.439-10.727a1.272,1.272,0,0,0-.356-.706c-.938-.627-1.914-1.2-2.976-1.851a17.709,17.709,0,0,0,5.622,10.669l-2.281,2.346L2541.327-347v4.488Zm34.905-21.39c-.482.188-.883.329-1.271.5a18.577,18.577,0,0,1-8.3,1.963c-.851-.039-1.3.53-1.414,1.4-.427,3.308-2.208,4.9-5.5,4.86a3.432,3.432,0,0,0-2.91,1.048,1.543,1.543,0,0,1-2.244.073,1.617,1.617,0,0,1,.019-2.328,5.115,5.115,0,0,1,3.653-1.949,10.044,10.044,0,0,0,2.3-.143,2.186,2.186,0,0,0,1.3-1.08,5.607,5.607,0,0,0,.052-1.962,21.262,21.262,0,0,1-3.229-.032c-1.4-.223-2.616-.186-3.465,1.139a.514.514,0,0,1-.148.11,1.486,1.486,0,0,1-2.03-.085,1.451,1.451,0,0,1-.257-2.007c.123-.2.244-.392.392-.63-.646-.256-1.217-.485-1.789-.708-.109-.043-.227-.063-.488-.134.417,4.429-.91,8.985,1.752,13.125.765-.372,1.471-.741,2.2-1.064a1.6,1.6,0,0,1,2.23.653,1.572,1.572,0,0,1-.787,2.181c-.436.257-.891.483-1.368.739,2.941,2.569,11.22,3.565,14.112,1.723-.237-.358-.5-.7-.705-1.077a2.249,2.249,0,0,0-2.357-1.268c-1.139.077-2.287.02-3.431.016-1.35-.005-2.075-.551-2.1-1.566-.02-1.044.67-1.605,2.023-1.617,1.268-.011,2.536.02,3.8-.007a5.015,5.015,0,0,1,4.58,2.468c.346.533.72,1.048,1.078,1.567,2.807-1.823,4.826-6.344,4.157-9.268l-3.092,1.51a10.455,10.455,0,0,1,1.138.932,1.574,1.574,0,0,1,.075,2.322,1.563,1.563,0,0,1-2.321-.074c-.663-.6-1.294-1.244-1.906-1.9a1.909,1.909,0,0,0-1.5-.721,1.588,1.588,0,0,1-1.713-1.576,1.519,1.519,0,0,1,1.685-1.585c2.762.161,5-1.169,7.3-2.359a.979.979,0,0,0,.459-.674C2572.928-362.183,2572.892-362.987,2572.892-363.9Zm-10.959-70.311v21.976h3.028V-409h-3.016v3.084c1.024,0,1.979-.032,2.931.012a.992.992,0,0,0,1.063-.662c1.691-3.433,3.411-6.852,5.108-10.282a2.258,2.258,0,0,0,.271-.961c-.012-2.289.041-4.585-.117-6.865A10.9,10.9,0,0,0,2561.933-434.215Zm-14.487,64.75c1.118,0,1.918.034,2.715-.009a3.346,3.346,0,0,0,2.482-1.265c1.852-2.235,3.727-4.452,5.557-6.706a2.01,2.01,0,0,0,.385-1.162c.043-2.687.038-5.376.048-8.064,0-.484,0-.968,0-1.439-4.592-.449-9.782,3.294-10.572,8.036C2547.487-376.638,2547.628-373.083,2547.446-369.465Zm11.124-42.86v-21.913a4.753,4.753,0,0,0-.512.052,10.923,10.923,0,0,0-8.8,10.23c-.141,2.293-.024,4.6-.024,6.977,1.172,0,2.188-.022,3.2.005a3.052,3.052,0,0,1,3.015,2.721c.087.63.1,1.269.155,1.928Zm3.373,28.472c.072.056.094.088.12.091a2.952,2.952,0,0,0,.369.028,5.372,5.372,0,0,1,5.235,3.28c.461.942,1,1.849,1.415,2.81a8.042,8.042,0,0,1,.617,2.108,5.348,5.348,0,0,1-2.06,5.071c1.6,1.43,3.424.921,5.255,1,0-2.658,0-5.216,0-7.774a10.566,10.566,0,0,0-3.3-7.884,10.77,10.77,0,0,0-7.65-3.066Zm-11.933-7.164c-.213.1-.353.159-.488.228a4.114,4.114,0,0,0-.4.227,17.545,17.545,0,0,0-7.642,11.358c-.7,3.21,1.035,5.263,2.815,7.426.109-1.684.115-3.345.107-5.007a13.829,13.829,0,0,1,3.036-9.213,47.42,47.42,0,0,1,3.581-3.513Zm8.428,18.324c-.478.573-1.39,1.613-2.241,2.7-1.439,1.838-3,3.469-5.642,3.69,1.544.9,2.957,1.459,4.552.586a7.526,7.526,0,0,1,1.135-.388,11.662,11.662,0,0,0,5.255-3.54Zm3.442-7.8v4.841a2.767,2.767,0,0,0,2.109,2.852,1.783,1.783,0,0,0,2.358-1.159,4.539,4.539,0,0,0-.178-2.3,27.99,27.99,0,0,0-1.345-2.73A2.536,2.536,0,0,0,2561.88-380.5Zm-22.592-3.03-7.653,2.55,4.485,3C2537.344-379.755,2539.023-381.207,2539.289-383.526Zm25.54,14.854-3.4,3.9c2.639.051,5.628.253,8.376-1.492A7.526,7.526,0,0,1,2564.828-368.672Zm-25.166-25.611c-1.681.365-1.687.364-1.944,1.9a12.591,12.591,0,0,0-.233,1.74c-.035,1.365-.011,2.731-.011,4.271a14.774,14.774,0,0,0,1.72-.861,1.124,1.124,0,0,0,.448-.779C2539.679-390.078,2539.662-392.144,2539.662-394.284Zm15.892-8.374a23.919,23.919,0,0,0,3.021,7.977v-7.977Zm-4.015,7.965c.731,1.157,1.44,2.307,2.184,3.435.135.206.432.479.614.451.767-.116,1.518-.333,2.247-.507l-2.473-4.715Zm-21.372,10.444.143.2c.767-.2,1.537-.4,2.3-.609,1.771-.491,1.745-.493,1.68-2.287-.044-1.219-.008-2.441-.008-3.662l-.2-.058Zm12.711-5.333a12.832,12.832,0,0,0,4.05-5.137h-4.05Zm15.677-16.391v-2.976H2555.6v2.976Zm-14.085,41.631c-.087-.994.12-2.072-.31-2.738a18.166,18.166,0,0,0-2.748-2.8A5.586,5.586,0,0,0,2544.47-364.341Zm-.072,6.505c0-.914.026-1.556-.014-2.194a.889.889,0,0,0-.31-.605c-.879-.613-1.786-1.183-2.872-1.891A8.077,8.077,0,0,0,2544.4-357.836Zm7.859-55.914h-1.879l1.743,3.023.136-.088Z" transform="translate(-2524.845 437.595)" fill="#1d272b"/>
      <path id="Trazado_165194" data-name="Trazado 165194" d="M2677.254-367.2a2.492,2.492,0,0,0-2.382-2.371,2.556,2.556,0,0,0-2.4,2.38,2.515,2.515,0,0,0,2.451,2.407A2.454,2.454,0,0,0,2677.254-367.2Z" transform="translate(-2645.008 382.229)" fill="#1d272b"/>
      <path id="Trazado_165195" data-name="Trazado 165195" d="M2734.522-364.788a2.447,2.447,0,0,1-2.353-2.388,2.487,2.487,0,0,1,2.353-2.4,2.546,2.546,0,0,1,2.425,2.446A2.52,2.52,0,0,1,2734.522-364.788Zm.01-1.285c.373-.526.757-.832.728-1.092-.031-.278-.45-.513-.7-.767-.249.249-.66.474-.7.752C2733.823-366.922,2734.185-366.609,2734.532-366.073Z" transform="translate(-2693.593 382.231)" fill="#1d272b"/>
      <path id="Trazado_165196" data-name="Trazado 165196" d="M2677.254-367.2a2.454,2.454,0,0,1-2.327,2.415,2.515,2.515,0,0,1-2.451-2.407,2.556,2.556,0,0,1,2.4-2.38A2.492,2.492,0,0,1,2677.254-367.2Zm-2.349,1.129c.337-.538.7-.857.658-1.118s-.46-.5-.714-.739c-.246.258-.66.5-.688.779C2674.136-366.893,2674.524-366.593,2674.905-366.072Z" transform="translate(-2645.008 382.229)" fill="#1d272b"/>
    </g>
  </g>
</svg>
