<svg xmlns="http://www.w3.org/2000/svg" width="86.371" height="86.265" viewBox="0 0 86.371 86.265">
  <g id="img-intro2" transform="translate(-3783.044 -16.443)">
    <g id="Grupo_127475" data-name="Grupo 127475" transform="translate(3783.044 16.443)">
      <path id="Trazado_163317" data-name="Trazado 163317" d="M3869.415,61.657a8.978,8.978,0,0,0-.116.95c-.07,3.644-.085,7.29-.21,10.931a3.433,3.433,0,0,1-3.47,3.716c-2.227.2-4.473.218-6.711.252-4.185.063-8.371.08-12.556.118-.161,0-.322.021-.6.04-.054,1.388-.1,2.776-.165,4.164a9.685,9.685,0,0,1-.2,2.331,17.1,17.1,0,0,1-1.181,2.42,2.409,2.409,0,0,0-.392.987c.03.939.249,1.874.253,2.81.012,2.969-.069,5.938-.057,8.907.007,1.613-2.171,3.432-3.784,3.42-9.885-.075-19.771-.025-29.657-.023q-5.874,0-11.748-.022a6.8,6.8,0,0,1-1.124-.115.975.975,0,0,1-.831-1.118.854.854,0,0,1,.949-.88c1.4-.035,2.8-.134,4.206-.145,3.754-.029,7.509-.008,11.263-.038,4.428-.035,8.855-.1,13.283-.16.425-.006.849-.081,1.261-.123.234-4.41-.743-8.814.54-13.231-2.391-2.894-5.869-4.178-10.369-3.535.612.713,1.188,1.376,1.754,2.046a4.137,4.137,0,0,1,1.23,2.311,1.946,1.946,0,0,1-.863,1.956q-5.784,3.873-11.6,7.7a1.125,1.125,0,0,1-1-.017c-3.854-2.536-7.7-5.085-11.507-7.688a2.288,2.288,0,0,1-.461-3.246c.627-.842,1.358-1.606,2.047-2.4.167-.193.348-.373.7-.753-1.313,0-2.375-.062-3.427.011a9.629,9.629,0,0,0-9.25,8.965,54.032,54.032,0,0,0-.12,5.984c.028,1.6.441,1.968,2.057,2.069,1.8.113,3.61.188,5.416.269.55.025,1.046.088,1.066.806a1.26,1.26,0,0,1-1.155,1.327c-1.023.061-2.051.052-3.077.051-.864,0-1.728-.015-2.591-.05a4.012,4.012,0,0,1-4.054-3.987,28.515,28.515,0,0,1,.513-9.012,12.257,12.257,0,0,1,10.242-8.7c1.929-.174,3.873-.191,5.874-.282V77.614c-.62-.072-1.231-.131-1.838-.217a4.077,4.077,0,0,1-3.579-3.8c-.077-1-.034-2.006-.186-2.988-.273-1.778-.616-3.547-1-5.306-.369-1.708-.4-1.753-2.161-1.829a3.735,3.735,0,0,1-3.612-3.8c.04-1.781,0-3.564-.02-5.346a3.951,3.951,0,0,1,2.083-3.834,1.3,1.3,0,0,0,.694-1.307c.036-1.94.066-3.888.271-5.815a10.071,10.071,0,0,1,2.966-6.069,2.89,2.89,0,0,0,.839-2.231c0-4.779.053-9.559.092-14.338a4.158,4.158,0,0,1,3.95-4.1c2.129-.1,4.263-.157,6.395-.16q18.8-.035,37.6-.027c2.267,0,4.534.078,6.8.169a1.868,1.868,0,0,1,1.139.455,1.167,1.167,0,0,1,.218,1.007c-.069.218-.524.437-.813.445-3.21.094-6.422.175-9.634.205-4.618.044-9.237.043-13.855.061l-27.628.108a2.309,2.309,0,0,0-1.869,1.78q.018,6.562.074,13.124a7.521,7.521,0,0,0,.1.791c.905-.329,1.754-.6,2.559-.96a1,1,0,0,0,.355-.756c.114-2.723.163-5.449.3-8.171.089-1.814.628-2.337,2.448-2.416,2.427-.1,4.856-.193,7.284-.2q18.76-.029,37.52,0c4.536.008,9.071.093,13.606.158,1.884.027,2.576.683,2.652,2.583.08,2,.112,3.994.117,5.992q.041,17.219.052,34.438c0,1.376-.066,2.752-.126,4.127a2.49,2.49,0,0,1-2.643,2.506h-15.27v3.242h18.85a2.076,2.076,0,0,0,2.37-2.262c.052-.97.062-1.943.063-2.914q.006-15.721,0-31.442c0-5.429-.033-10.857-.054-16.286,0-.458-.042-.916-.05-1.375a1.938,1.938,0,0,0-2.028-1.963c-3.32-.047-6.641-.1-9.96-.167-1.15-.025-1.644-.37-1.636-1.036s.552-1.126,1.6-1.131c3.589-.015,7.18-.03,10.766.084a4.035,4.035,0,0,1,3.557,3.562c.12,1.667.1,3.345.113,5.019.02,4.376.019,8.752.034,13.127a5.323,5.323,0,0,0,.116.776Zm-67.1-28.434c.249.016.459.041.67.042,3.619.02,7.239-.022,10.856.068a12.146,12.146,0,0,1,11.983,11.251c.156,1.874.024,3.772.024,5.659a3.624,3.624,0,0,1,2.832,3.511c.059,2.179.017,4.367-.12,6.543a3.157,3.157,0,0,1-2.721,3c-.838.173-1.7.237-2.458.338l-1.788,5.883c1.517,0,2.994-.019,4.47.011a1.08,1.08,0,0,0,1.054-.564,4.083,4.083,0,0,1,3.182-1.982c.97-.09,1.955-.018,3-.018v-.775c0-5.186-.02-10.372.011-15.557.01-1.724.141-3.448.237-5.171a.912.912,0,0,1,1.018-.991c.749,0,.9.507.949,1.066.082.886.153,1.777.156,2.665q.033,8.791.033,17.582c0,.285,0,.57,0,.869l3.823.189a6.219,6.219,0,0,1,4.844,2.218,1.594,1.594,0,0,0,1.113.439c5,.028,9.993.02,14.989.017.285,0,.57-.029.817-.043V24.542h-.893c-7.561-.026-15.122-.074-22.683-.075q-16.366,0-32.731.05c-.7,0-1.407-.019-2.1.049-.2.019-.534.308-.537.476C3802.308,27.736,3802.318,30.432,3802.318,33.223Zm10.725,15.945c.062-.026,0-.016-.035.017-.228.19-.449.388-.675.579a9.732,9.732,0,0,1-6.063,2.565c-3.316.1-6.634.117-9.951.173-.31.005-.619.028-.956.043,0,3.113-.021,6.132.011,9.15a16.307,16.307,0,0,0,.25,3.54,12.7,12.7,0,0,0,17.39,8.845,11.943,11.943,0,0,0,7.653-10.566c.249-3.545.094-7.119.116-10.68,0-.076-.039-.153-.03-.119a20.82,20.82,0,0,1-4.193-.98A21.162,21.162,0,0,1,3813.043,49.168Zm10.488.968c0-1.823.042-3.5-.008-5.167-.155-5.163-5.186-9.371-9.7-9.261-3.776.092-7.556.05-11.333.038a9.713,9.713,0,0,0-7.949,3.967,10.5,10.5,0,0,0-2.032,7.077c.021,1.092,0,2.184,0,3.294.284.019.416.037.548.035q6.64-.057,13.281-.12a3.1,3.1,0,0,0,1.044-.063c2.656-1.023,4.672-2.671,5.3-5.615.13-.606.249-1.214.388-1.818a.875.875,0,0,1,1.034-.788c.575.063,1.008.305,1.011.935A11.91,11.91,0,0,1,3815,44.9a4.056,4.056,0,0,0,2.266,4.6C3819.267,50.489,3821.392,49.991,3823.531,50.136Zm11.052,34.929c.635,1,.766,1.15,1.584,1.184a37.423,37.423,0,0,0,3.884.02,3.378,3.378,0,0,0,3.091-3.124c.073-3.156,0-6.316.1-9.471.087-2.834-1.186-4.591-4.522-4.525-1.268.025-2.538-.05-3.8-.016a1.318,1.318,0,0,0-1.338,1.347c.01.786.52,1.067,1.208,1.143.241.027.483.048.725.054.917.022,1.837.008,2.752.061.816.047,1.341.524,1.292,1.161-.057.75-.561,1.06-1.265,1.1-.512.026-1.024.035-1.536.063-.753.041-1.514.038-2.257.152-.783.121-1.034.562-.9,1.34.146.83.814.955,1.463,1,1.156.088,2.316.121,3.475.147a.929.929,0,0,1,.99.953,1.012,1.012,0,0,1-.8,1.153,8.055,8.055,0,0,1-1.44.187c-.941.066-1.885.085-2.825.163a.917.917,0,0,0-.913,1.025.965.965,0,0,0,.886,1.067c.557.088,1.125.113,1.689.154.805.059,1.615.077,2.417.17a1.011,1.011,0,0,1,1.036,1.107c-.019.762-.559.922-1.144,1a13.185,13.185,0,0,1-1.855.149A2,2,0,0,0,3834.583,85.065Zm-32.294-8.3a34.285,34.285,0,0,0,.042,4.089,12,12,0,0,0,.973,2.869c.057.145.387.258.592.259,2.781.017,5.562.021,8.343-.007a.964.964,0,0,0,.678-.4c1.386-2.189.959-4.592.9-6.8a28.489,28.489,0,0,1-11.523-.008Zm39.395,17.655h-11.505c0,1.5-.066,2.952.024,4.393a1.537,1.537,0,0,0,1.686,1.442c2.4,0,4.8.009,7.2-.007a10.617,10.617,0,0,0,1.6-.154,1.1,1.1,0,0,0,.979-1.122C3841.707,97.473,3841.684,95.969,3841.684,94.423Zm-14.274-12a6.428,6.428,0,0,0-.781-4.238.946.946,0,0,0-1.026-.662c-2.349.034-4.7.015-7.048.015h-2.233v3.372a22.473,22.473,0,0,1,11.088,1.513Zm14.3,6.31c-2.421,0-4.764-.014-7.106.006-1.267.01-2.535.052-3.8.141-.237.017-.632.306-.649.5-.073.815-.031,1.639-.031,2.521h11.585Zm-48.833-27.567v-8.65c-.6,0-1.143-.036-1.676.008a1.317,1.317,0,0,0-1.374,1.318c-.034,2.042-.015,4.086.035,6.128a1,1,0,0,0,.918,1.066C3791.464,61.1,3792.155,61.126,3792.875,61.169Zm30.353-.081c.622,0,1.156.023,1.688-.005a1.335,1.335,0,0,0,1.366-1.339c.068-1.962.054-3.929.005-5.892a1.243,1.243,0,0,0-1.056-1.269,14.681,14.681,0,0,0-2-.02Zm2.9,10.807c-1.408,0-2.731.077-4.04-.02a3.683,3.683,0,0,0-3.647,1.427,13.549,13.549,0,0,1-1.948,1.788h9.635ZM3811.5,86.47h-6.934l3.392,6.958.235-.016Zm17.046-12,.111,0a17.1,17.1,0,0,1-.011,1.859c-.152,1.383.545,1.876,1.665,2.459.688.358,1.139.175,1.389-.564a1.7,1.7,0,0,0-.072-1.14,3.874,3.874,0,0,1,0-3.58,1.147,1.147,0,0,0,.158-.837,6.441,6.441,0,0,1-.648-3.051c0-.138-.437-.451-.554-.4-.888.372-1.735.864-1.85,1.945C3828.617,72.263,3828.6,73.371,3828.542,74.474ZM3811.185,92.6l.222.181,7.365-4.986-3.4-3.674Zm-6.588.068.2-.215-4.076-8.409-3.365,3.8Zm25.212-11.383c.072,1.077.1,2.15.23,3.21a2.184,2.184,0,0,0,1.67,1.787c.533.181.748-.021.722-.583a8.543,8.543,0,0,1,.047-1.446A2.618,2.618,0,0,0,3829.809,81.288ZM3799.537,75l-2.835-2.377A2.107,2.107,0,0,0,3799.537,75Z" transform="translate(-3783.044 -16.443)" fill="#1d272b"/>
      <path id="Trazado_163318" data-name="Trazado 163318" d="M3918.641,304.6a3.939,3.939,0,0,1-3.5-1.935,1.006,1.006,0,0,1,.222-1.367.972.972,0,0,1,1.322-.134,3.656,3.656,0,0,1,.557.464,1.624,1.624,0,0,0,2.439.124c.254-.2.5-.417.767-.591a1.015,1.015,0,0,1,1.434.258.959.959,0,0,1-.016,1.434A3.98,3.98,0,0,1,3918.641,304.6Z" transform="translate(-3893.541 -254.768)" fill="#1d272b"/>
      <path id="Trazado_163319" data-name="Trazado 163319" d="M3966.856,260.079a3.064,3.064,0,0,1-.154.983c-.187.368-.508.9-.8.924a1.359,1.359,0,0,1-1.137-.618,5,5,0,0,1-.087-2.169c.109-.615.7-.822,1.335-.764s.725.541.79,1.036C3966.824,259.658,3966.835,259.845,3966.856,260.079Z" transform="translate(-3935.116 -219.133)" fill="#1d272b"/>
      <path id="Trazado_163320" data-name="Trazado 163320" d="M3895.744,260.321c.036-.348.081-.695.1-1.043.043-.663.461-.854,1.043-.854a.854.854,0,0,1,.965.86c.042.536.056,1.075.069,1.613a.982.982,0,0,1-1.077,1.125.992.992,0,0,1-1.078-1.131c.006-.189,0-.377,0-.566Z" transform="translate(-3877.444 -219.131)" fill="#1d272b"/>
    </g>
  </g>
</svg>
