<svg xmlns="http://www.w3.org/2000/svg" width="83.182" height="81.839" viewBox="0 0 83.182 81.839">
  <g id="img-intro5" transform="translate(-5221.803 -1709.257)">
    <g id="Grupo_117565" data-name="Grupo 117565" transform="translate(5221.803 1709.257)">
      <path id="Trazado_157841" data-name="Trazado 157841" d="M5263.347,1791.1q-19.484,0-38.968,0c-2.474,0-2.729-.311-2.516-2.788.584-6.788,1.189-13.574,1.7-20.368a8.422,8.422,0,0,1,4.218-7.075c4.567-2.776,9.046-5.7,13.594-8.506a2.528,2.528,0,0,0,1.364-2.226c.5-8.739,1.151-17.47,1.576-26.213.423-8.723,6.486-14.659,15.243-14.616a80.656,80.656,0,0,1,10.557.255c7.2.991,11.943,6.693,12.323,13.923.465,8.857,1.134,17.7,1.618,26.561a2.777,2.777,0,0,0,1.583,2.454c4.538,2.822,9.027,5.725,13.581,8.519a7.8,7.8,0,0,1,3.931,6.308q.92,10.621,1.789,21.245c.181,2.25-.118,2.525-2.449,2.525Q5282.921,1791.1,5263.347,1791.1Zm38.518-2.811a8.183,8.183,0,0,0,.068-.956q-.788-9.925-1.6-19.848a5.139,5.139,0,0,0-2.663-4.11c-4.943-3.063-9.87-6.15-14.736-9.331a3.523,3.523,0,0,1-1.514-2.272c-.676-9.494-1.23-19-1.8-28.5a11.319,11.319,0,0,0-9.742-10.886,84.7,84.7,0,0,0-10.728-.277,11.727,11.727,0,0,0-11.988,11.378c-.563,9.324-1.173,18.646-1.69,27.973a2.976,2.976,0,0,1-1.6,2.657c-4.646,2.868-9.183,5.923-13.9,8.679a6.826,6.826,0,0,0-3.665,6.123c-.188,3.81-.629,7.607-.937,11.411-.21,2.6-.376,5.2-.566,7.85h14.178v-2c0-3.41-.015-6.819.016-10.228.011-1.055-.354-2.531,1.341-2.54,1.783-.009,1.441,1.512,1.454,2.636.028,2.586.008,5.172.008,7.759v4.366h19.787a4.393,4.393,0,0,0,.167-.769q.018-12.785.005-25.57a1.558,1.558,0,0,0-.384-1.07c-.877-.767-3.838-.84-4.831-.2a6.194,6.194,0,0,1-7.766-.807c-1.969-2.05-2.531-5.537-.648-7.573a5.912,5.912,0,0,0,1.571-5.477,6.261,6.261,0,0,1,0-1.408c.113-1.558.834-2.044,2.347-1.534,2.446.825,4.881,1.686,7.321,2.535a11.217,11.217,0,0,0,7.762-.084c2.7-.987,5.4-1.978,8.116-2.913,1.7-.585,2.491-.044,2.5,1.741.007,1.4-.227,2.81-.2,4.212a3.507,3.507,0,0,0,.586,2.025,6.145,6.145,0,0,1-8.193,9.093,2.135,2.135,0,0,0-1.353-.453c-1.3.252-2.574.668-3.816,1.009a3.826,3.826,0,0,0-.125.625c-.007,8.465.012,16.929-.038,25.393-.007,1.332.681,1.354,1.66,1.35,5.7-.023,11.4-.009,17.1-.017.506,0,1.011-.075,1.611-.122,0-4.274,0-8.385,0-12.495,0-1.09-.037-2.292,1.5-2.271,1.491.02,1.306,1.235,1.31,2.218.015,3.7.007,7.407.015,11.11,0,.754-.145,1.579,1.07,1.573C5293.154,1788.27,5297.434,1788.285,5301.865,1788.285Zm-49.224-41.7c-.177,1.927-.071,2.794,1.64,2.954a5.757,5.757,0,0,1,4.926,5.4c.18,2.483.363,2.742,2.877,2.953a25.994,25.994,0,0,0,3.668-.15c1.411-.083,1.956-.7,1.872-2.244a5.768,5.768,0,0,1,4.34-5.89,19.311,19.311,0,0,1,2.7-.307c.088-.882.172-1.717.317-3.192C5267.458,1750.13,5260.171,1751.161,5252.641,1746.581Zm-2.728,8.9a3.245,3.245,0,1,0,3.207-3.249A3.152,3.152,0,0,0,5249.913,1755.478Zm26.952.053a3.139,3.139,0,0,0-3.135-3.307,3.256,3.256,0,1,0-.088,6.51A3.086,3.086,0,0,0,5276.865,1755.531Z" transform="translate(-5221.804 -1709.258)" fill="#1d272b"/>
      <path id="Trazado_157842" data-name="Trazado 157842" d="M5312.923,1763.664c3.462,0,6.925.007,10.388,0,3.338-.008,4.217.837,4.227,4.113,0,1.7.047,3.406-.02,5.106-.081,2.044-1.059,2.986-3.1,3.014-2.583.036-5.167.064-7.746-.019a4.206,4.206,0,0,1-2.278-.7,2.206,2.206,0,0,0-3.118.071,3.121,3.121,0,0,1-1.772.621c-2.875.061-5.752.071-8.626,0a2.43,2.43,0,0,1-2.574-2.558c-.077-2.344-.093-4.7.008-7.039.072-1.724,1.165-2.547,3.338-2.577,3.756-.052,7.513-.014,11.269-.014Zm-11.806,9.435c1.716,0,3.235-.046,4.75.011,2.14.08,4.187.051,5.977-1.475a2.148,2.148,0,0,1,2.058,0c3.331,2.649,7.079.985,10.688,1.505v-6.44h-23.472Z" transform="translate(-5271.278 -1744.469)" fill="#1d272b"/>
    </g>
  </g>
</svg>
