<svg xmlns="http://www.w3.org/2000/svg" width="96.333" height="95.933" viewBox="0 0 96.333 95.933">
  <g id="img-intro3" transform="translate(-3583.846 656.03)">
    <g id="Grupo_128177" data-name="Grupo 128177" transform="translate(3583.846 -656.03)">
      <path id="Trazado_165199" data-name="Trazado 165199" d="M3680.179-610.847h-25.017V-560.1h-46.34v-50.7h-24.977v-28.761h24.968V-656.03h46.322v16.411c.366.021.584.045.8.045q11.75,0,23.5,0a7.146,7.146,0,0,0,.741-.075Zm-68.54-2.814v50.732h7.964v-3.751h2.824v3.815h3.5c1.562,0,2.3-.748,2.3-2.339,0-.489,0-.977,0-1.486h2.844v3.774h1.994v-3.77h2.834c0,.737-.012,1.418,0,2.1.014.615.9,1.688,1.491,1.705,1.4.04,2.8.013,4.341.013v-3.814h2.857v3.761h7.667v-9h-3.842v-2.861h3.958V-613.7h24.937v-23.02h-25.014V-653.11h-12.535c.214.237.33.377.457.505a10.4,10.4,0,0,1,3.239,6.516c.2,2.431-.018,4.9.228,7.322a5.911,5.911,0,0,1-2.467,5.909,15.476,15.476,0,0,0-1.74,1.723l.125.23h14.512v2.75h-44.1V-631H3624.8c-1.384-1.368-2.608-2.535-3.771-3.759a1.967,1.967,0,0,1-.528-1.2c-.043-2.854-.032-5.71-.015-8.565a11.248,11.248,0,0,1,3.339-8.028c.157-.162.287-.351.46-.567h-12.7v16.478h-19.281v2.778h-2.863v-2.78h-2.786v22.98Zm28.966-27.152.291.084c-.086-1.751-.169-3.5-.26-5.252a2.753,2.753,0,0,0-.109-.453,8.761,8.761,0,0,0-9.49-6.63c-3.683.394-7.253,3.583-7.534,7.247-.227,2.962-.157,5.947-.177,8.922a1.443,1.443,0,0,0,.454.856c1.021,1.062,2.178,2.011,3.092,3.156,1.246,1.561,2.74,1.923,4.7,2.013a7.686,7.686,0,0,0,6.361-2.616C3640.018-635.6,3641.653-637.584,3640.605-640.813Z" transform="translate(-3583.846 656.03)" fill="#1d272b"/>
      <path id="Trazado_165200" data-name="Trazado 165200" d="M3801.471-472.167h14.162v21.931h-14.162Zm11.373,7.293h-2.554v-2.851h2.543v-1.581h-8.57v1.628h2.34v2.83h-2.339v2.1h2.345v2.864h-2.343v6.816h2.872v-3.085h2.875v3.1h2.815v-6.88H3810.3v-2.883h2.542Z" transform="translate(-3760.423 506.846)" fill="#1d272b"/>
      <path id="Trazado_165201" data-name="Trazado 165201" d="M3893.8-474.112V-434.7h-2.76v-42.214h12.315v2.8Z" transform="translate(-3833.1 510.694)" fill="#1d272b"/>
      <path id="Trazado_165202" data-name="Trazado 165202" d="M3732.149-474.037h-9.581v-2.822h12.291v42.183h-2.71Z" transform="translate(-3696.403 510.654)" fill="#1d272b"/>
      <path id="Trazado_165203" data-name="Trazado 165203" d="M3673.085-519.494h-8.505v-16.431h8.505Zm-5.685-13.639v10.786h2.844v-10.786Z" transform="translate(-3649.353 558.579)" fill="#1d272b"/>
      <path id="Trazado_165204" data-name="Trazado 165204" d="M3969.105-519.559V-536h8.527v16.445Zm5.7-2.834v-10.782h-2.87v10.782Z" transform="translate(-3896.439 558.643)" fill="#1d272b"/>
      <path id="Trazado_165205" data-name="Trazado 165205" d="M3824.2-319.826v-12.682h-1.948v12.7h-2.771v-15.508h7.544v15.486Z" transform="translate(-3775.04 395.805)" fill="#1d272b"/>
      <path id="Trazado_165206" data-name="Trazado 165206" d="M3856.36-240.339v8.491h-11.418v-8.491Zm-2.808,5.727c0-.87.025-1.648-.019-2.423-.01-.173-.259-.475-.4-.477-1.772-.033-3.546-.022-5.319-.022v2.922Z" transform="translate(-3795.695 318.745)" fill="#1d272b"/>
      <path id="Trazado_165207" data-name="Trazado 165207" d="M3784.833-231.766h-11.384v-8.521h11.384Zm-8.557-5.675v2.835h5.71v-2.835Z" transform="translate(-3737.687 318.703)" fill="#1d272b"/>
      <path id="Trazado_165208" data-name="Trazado 165208" d="M3918.534-402.494h2.733v15.7h-2.733Z" transform="translate(-3855.407 450.315)" fill="#1d272b"/>
      <path id="Trazado_165209" data-name="Trazado 165209" d="M4027.057-520.4v-2.693c1.294-.14,2.446-.244,3.388.966.841,1.08,2.291,1.83,2.77,3.01.493,1.215.142,2.774.152,4.182.007,1.058,0,2.116,0,3.24h-6.3v-2.767h3.3C4031.107-517.894,4029.8-519.734,4027.057-520.4Z" transform="translate(-3943.46 548.235)" fill="#1d272b"/>
      <path id="Trazado_165210" data-name="Trazado 165210" d="M3618.439-511.718c0-2.454-.012-4.857.02-7.259,0-.229.25-.483.436-.675a28.866,28.866,0,0,0,2.428-2.48c.92-1.214,2.079-1.148,3.4-.99v2.621c-3.094,1.206-3.854,2.243-3.385,5.953h3.375v2.831Z" transform="translate(-3611.913 548.26)" fill="#1d272b"/>
      <path id="Trazado_165211" data-name="Trazado 165211" d="M3918.631-581.085h2.735v7.439h-2.735Z" transform="translate(-3855.485 595.221)" fill="#1d272b"/>
      <path id="Trazado_165212" data-name="Trazado 165212" d="M3918.447-630.864h2.769v2.74h-2.769Z" transform="translate(-3855.336 635.611)" fill="#1d272b"/>
      <path id="Trazado_165213" data-name="Trazado 165213" d="M3834.487-494.325h-2.754v-2.732h2.754Z" transform="translate(-3784.978 527.042)" fill="#1d272b"/>
      <path id="Trazado_165214" data-name="Trazado 165214" d="M3918.448-603.153v-2.7h2.782v2.7Z" transform="translate(-3855.337 615.317)" fill="#1d272b"/>
      <path id="Trazado_165215" data-name="Trazado 165215" d="M3743.671-278.449h2.708v2.7h-2.708Z" transform="translate(-3713.526 349.667)" fill="#1d272b"/>
      <path id="Trazado_165216" data-name="Trazado 165216" d="M3743.732-253.575h2.721v2.7h-2.721Z" transform="translate(-3713.575 329.484)" fill="#1d272b"/>
      <path id="Trazado_165217" data-name="Trazado 165217" d="M3809.684-494.251h-2.733v-2.7h2.733Z" transform="translate(-3764.87 526.955)" fill="#1d272b"/>
      <path id="Trazado_165218" data-name="Trazado 165218" d="M3743.684-228.719h2.707V-226h-2.707Z" transform="translate(-3713.536 309.317)" fill="#1d272b"/>
      <path id="Trazado_165219" data-name="Trazado 165219" d="M3746.452-201.1h-2.714v-2.734h2.714Z" transform="translate(-3713.58 289.124)" fill="#1d272b"/>
      <path id="Trazado_165220" data-name="Trazado 165220" d="M3859.33-497.032v2.687h-2.765v-2.687Z" transform="translate(-3805.126 527.022)" fill="#1d272b"/>
      <path id="Trazado_165221" data-name="Trazado 165221" d="M3861.273-590.676h2.7v6.663h-2.7Z" transform="translate(-3808.946 603.003)" fill="#1d272b"/>
      <path id="Trazado_165222" data-name="Trazado 165222" d="M3839.209-628.721v-2.9l3.411.835-1.387,2.568Z" transform="translate(-3791.043 636.221)" fill="#1d272b"/>
      <path id="Trazado_165223" data-name="Trazado 165223" d="M3856.7-615.433l-.96-1.871,2.135-1.949,1.679,3.182Z" transform="translate(-3804.453 626.19)" fill="#1d272b"/>
    </g>
  </g>
</svg>
