<svg xmlns="http://www.w3.org/2000/svg" width="139.817" height="140.483" viewBox="0 0 139.817 140.483">
  <g id="img10" transform="translate(-695.025 -15.247)">
    <g id="Grupo_121006" data-name="Grupo 121006" transform="translate(695.025 15.247)">
      <path id="Trazado_158587" data-name="Trazado 158587" d="M769.342,110.714c2.622-.3,5.082-.515,7.513-.906.409-.066.85-.829,1.018-1.353.735-2.3,1.357-4.63,2.055-6.939.681-2.256,2.176-3.285,4.037-2.834,2.021.49,2.911,2.146,2.291,4.51-.666,2.538-1.351,5.079-2.2,7.559a2.6,2.6,0,0,0,.675,3.027,34.47,34.47,0,0,1,2.517,3.334c3.048-1.341,6.063-2.73,9.13-3.993a3.257,3.257,0,1,1,2.674,5.937c-.689.362-1.415.657-2.128.974-2.251,1-4.505,2-6.886,3.053.419.871.711,1.58,1.088,2.242,1.726,3.034,2.106,3.184,5.586,2.794,2.612-.292,5.231-.551,7.853-.71,2.224-.135,3.744,1.173,3.813,3.088.065,1.8-1.259,3.141-3.388,3.373-2.75.3-5.505.559-8.258.836-.237,2.481-.468,4.9-.721,7.559,2.4,1.246,5.045,2.6,7.677,3.986,2.264,1.189,3.052,3.021,2.1,4.815s-2.854,2.152-5.189.963c-2.277-1.16-4.614-2.228-6.789-3.558s-4.241-1.779-6.683-.1c.881,3.453,1.8,7.068,2.726,10.683.4,1.581.859,3.15,1.208,4.743.454,2.073-.484,3.74-2.255,4.164a3.222,3.222,0,0,1-4.038-2.529c-1.235-4.517-2.375-9.06-3.559-13.591-.142-.542-.316-1.077-.595-2.02-1.983,1.446-3.834,2.7-5.546,4.121-.338.28-.344,1.278-.152,1.822.894,2.542,1.94,5.03,2.873,7.559.734,1.988.062,3.768-1.6,4.484-1.8.776-3.583-.015-4.445-2.081-.953-2.285-1.816-4.609-2.73-6.945a36.5,36.5,0,0,0-4.278,1.332,3.211,3.211,0,0,0-1.373,1.675c-1.5,3.678-2.9,7.4-4.379,11.087-.634,1.58-1.978,2.521-3.538,1.954a5.958,5.958,0,0,1-2.663-2.611c-.318-.544.125-1.641.416-2.415,1.323-3.517,2.714-7.009,4.091-10.534l-6.394-3.33c-2.226,2.57-4.471,5.219-6.781,7.81-1.686,1.891-4.231,1.852-5.45-.047-.993-1.546-.614-2.968.534-4.283,2.01-2.3,3.953-4.665,6.035-6.9.986-1.058,1.014-1.73.251-3.059-1.335-2.329-2.877-2.757-5.37-2.081-3.348.908-6.81,1.4-10.225,2.06-2.321.451-4.037-.5-4.461-2.474-.4-1.834.747-3.412,3-3.893,3.678-.785,7.366-1.541,11.074-2.164,1.546-.26,2.612-.7,2.963-2.417a10.827,10.827,0,0,1,1.388-2.59c-2.61-1.288-5.142-2.525-7.663-3.784-2.367-1.182-3.18-2.87-2.307-4.721s2.788-2.317,5.12-1.192c2.877,1.388,5.761,2.766,8.591,4.244a1.9,1.9,0,0,0,2.587-.421,11.9,11.9,0,0,0,3.348-7.187c.065-.424-.474-1.1-.909-1.417-3.144-2.319-6.34-4.569-9.507-6.857-2.193-1.584-2.731-3.551-1.459-5.214,1.215-1.588,3.138-1.647,5.281-.119,3.525,2.514,7.035,5.048,10.55,7.574l5.626-3.731q-1.279-6.022-2.556-12.05c-.5-2.386.322-4.027,2.278-4.542,1.9-.5,3.53.66,4.072,3.029C767.755,103.239,768.533,106.978,769.342,110.714Zm-5.655,43.029a30.019,30.019,0,0,0,4.675-2.9c5.232-4.526,10.777-8.219,17.835-9.368,3.587-.584,4.608-2.93,3.4-6.355a16.515,16.515,0,0,0-1.342-2.652q-2.848-4.963-5.737-9.9a26.693,26.693,0,0,0-2.8-4.49,4.74,4.74,0,0,0-3.252-1.608c-5.1.335-9.994,1.622-13.983,5.011a8.262,8.262,0,0,0-2.743,4.137c-.939,4.426-3.413,7.722-6.646,10.633-1.319,1.188-2.594,2.425-3.871,3.657a2.158,2.158,0,0,0-.3,3.21c1.606,2.075,3.088,4.258,4.817,6.223C756.109,152.033,759.326,153.134,763.687,153.743Z" transform="translate(-725.352 -75.462)" fill="#868695"/>
      <path id="Trazado_158588" data-name="Trazado 158588" d="M941.635,102.006c-.514,5.306-7.4,10.182-12.112,8.207a6.881,6.881,0,0,1-3.011-3.093,44.343,44.343,0,0,1-2.523-6.539,17.722,17.722,0,0,0-7.365-9.6A55.089,55.089,0,0,1,910.1,86.2c-4.615-4.077-4.143-10.246.923-13.832a6.671,6.671,0,0,1,7.087-.551,27.433,27.433,0,0,1,6.44,4.057,64.351,64.351,0,0,1,14.106,18.041A65.843,65.843,0,0,1,941.635,102.006Z" transform="translate(-829.301 -60.965)" fill="#008f85"/>
      <path id="Trazado_158589" data-name="Trazado 158589" d="M910.023,298.681a52.592,52.592,0,0,1,2.135-7.3,63.77,63.77,0,0,1,13.563-19.974,19.981,19.981,0,0,1,6.522-4.24c4.662-1.789,11.424,3.43,11.069,8.432a6.767,6.767,0,0,1-1.923,3.851,48.6,48.6,0,0,1-5.595,4.582,18.006,18.006,0,0,0-6.691,9.843,53.1,53.1,0,0,1-3.169,9c-1.833,3.768-5.13,4.816-9.621,3.628C912.331,305.454,910.371,302.9,910.023,298.681Z" transform="translate(-831.082 -173.042)" fill="#008f85"/>
      <path id="Trazado_158590" data-name="Trazado 158590" d="M999.993,202.5c.349-1.905.954-5.108,1.52-8.318a14.149,14.149,0,0,0-.813-8.524,19.4,19.4,0,0,1-1.093-13.924,11.348,11.348,0,0,1,17.078-5.847,8.6,8.6,0,0,1,3.691,7.958c-.183,3.381-1.029,6.722-1.339,10.1a22.16,22.16,0,0,0,.285,5.8c.7,3.967,2.126,7.865,2.356,11.844.543,9.355-5.009,13.763-14.208,11.776C1002.311,212.256,999.881,209.169,999.993,202.5Zm17.6-1.037c-.514-2.318-.873-5.7-2.043-8.773-1.526-4.009-1.328-7.813-.439-11.861a33.727,33.727,0,0,0,.65-8.417,4.519,4.519,0,0,0-2.095-3.138,6.844,6.844,0,0,0-10.223,5.044,15.717,15.717,0,0,0,1.248,9.575c1.832,3.8,1.811,7.638,1.024,11.634a69.3,69.3,0,0,0-1.332,8.82,4.614,4.614,0,0,0,1.406,3.525,8.9,8.9,0,0,0,8.727.908C1017.307,207.7,1017.315,204.968,1017.59,201.467Z" transform="translate(-881.899 -114.161)" fill="#1d272b"/>
      <path id="Trazado_158591" data-name="Trazado 158591" d="M870.93,75.981a3.986,3.986,0,0,1-3.685-3.088c-1.843-6.615-3.67-13.234-5.384-19.883a4.352,4.352,0,1,1,8.413-2.229q2.718,9.825,5.27,19.7C876.307,73.448,874.272,76,870.93,75.981Z" transform="translate(-803.412 -47.455)" fill="#1d272b"/>
      <path id="Trazado_158592" data-name="Trazado 158592" d="M852.78,302.026a10.01,10.01,0,0,1-1.33,2.37q-6.271,6.967-12.691,13.8c-1.962,2.1-4.554,2.213-6.415.436a4.285,4.285,0,0,1-.038-6.277q6.379-7.013,12.854-13.939a4.1,4.1,0,0,1,5.034-1.1C851.895,298.093,852.78,299.465,852.78,302.026Z" transform="translate(-785.815 -190.257)" fill="#db8804"/>
      <path id="Trazado_158593" data-name="Trazado 158593" d="M964.966,319.428c.987-1.5,1.508-2.9,2.509-3.7,4.806-3.865,9.717-7.6,14.644-11.314a4.325,4.325,0,0,1,6.092.666,4.238,4.238,0,0,1-.822,6.212c-4.844,3.819-9.754,7.557-14.649,11.313-1.475,1.132-3.217,1.557-4.741.463C966.849,322.235,966.107,320.84,964.966,319.428Z" transform="translate(-862.538 -194.023)" fill="#1d272b"/>
      <path id="Trazado_158594" data-name="Trazado 158594" d="M941.638,175.7c1.1.885,2.531,1.561,3.245,2.691,3.1,4.919,6.043,9.947,8.954,14.985a4.284,4.284,0,0,1-1.518,6.09,4.218,4.218,0,0,1-5.909-1.6c-3.068-5.028-6.1-10.079-9.016-15.2C935.611,179.545,937.808,176,941.638,175.7Z" transform="translate(-846.392 -120.881)" fill="#1d272b"/>
      <path id="Trazado_158595" data-name="Trazado 158595" d="M925.339,229.334a4.088,4.088,0,0,1-2.607,4.04c-5.024,2.131-10.066,4.224-15.142,6.227a4.326,4.326,0,0,1-3.355-7.971c5.075-2.19,10.182-4.314,15.336-6.309A4.214,4.214,0,0,1,925.339,229.334Z" transform="translate(-826.299 -149.114)" fill="#d93328"/>
      <path id="Trazado_158596" data-name="Trazado 158596" d="M797.589,295.088a4.115,4.115,0,0,1-2.735,3.953c-4.747,1.873-9.507,3.717-14.3,5.476a4.341,4.341,0,1,1-3.125-8.1c4.735-1.9,9.5-3.748,14.3-5.476A4.259,4.259,0,0,1,797.589,295.088Z" transform="translate(-753.576 -186.691)" fill="#1d272b"/>
      <path id="Trazado_158597" data-name="Trazado 158597" d="M893.255,283.422c.009,2.933-1.464,4.745-3.552,5.071a4.124,4.124,0,0,1-4.912-3.067c-1.031-5.2-1.913-10.442-2.678-15.692a4.2,4.2,0,0,1,3.675-4.5,4.057,4.057,0,0,1,4.744,2.987C891.6,273.492,892.442,278.807,893.255,283.422Z" transform="translate(-815.081 -172.105)" fill="#1d272b"/>
      <path id="Trazado_158598" data-name="Trazado 158598" d="M808.378,349.8c-.594-.519-2.173-1.309-2.822-2.576-1.834-3.582-3.351-7.332-4.865-11.068a4.34,4.34,0,0,1,8.022-3.316c1.64,3.606,3.241,7.234,4.712,10.91C814.651,346.811,812.514,349.879,808.378,349.8Z" transform="translate(-768.296 -209.316)" fill="#1d272b"/>
      <path id="Trazado_158599" data-name="Trazado 158599" d="M998.378,140.221c-3.382-.292-5.719-3.6-4.188-6.384,2.11-3.839,4.5-7.536,6.959-11.165a4.038,4.038,0,0,1,5.532-.933,4.161,4.161,0,0,1,1.642,5.552c-2.154,3.737-4.443,7.407-6.881,10.964C1000.81,139.177,999.42,139.58,998.378,140.221Z" transform="translate(-878.996 -89.592)" fill="#1d272b"/>
      <path id="Trazado_158600" data-name="Trazado 158600" d="M825.817,155.04a3.913,3.913,0,0,1,4.2,3.592,3.839,3.839,0,0,1-4.075,3.7c-2.348.026-4.162-1.521-4.2-3.577A3.851,3.851,0,0,1,825.817,155.04Z" transform="translate(-780.541 -109.051)" fill="#1d272b"/>
      <path id="Trazado_158601" data-name="Trazado 158601" d="M830.775,191.931a2.645,2.645,0,0,1-2.8-2.564,2.439,2.439,0,0,1,2.681-2.412c1.6-.043,2.768.65,2.9,2.394A2.627,2.627,0,0,1,830.775,191.931Z" transform="translate(-784.103 -127.322)" fill="#1d272b"/>
      <path id="Trazado_158602" data-name="Trazado 158602" d="M800,203.351c-1.407-.161-2.794-.521-2.881-2.212s1.157-2.325,2.647-2.379c1.55-.056,2.943.423,2.991,2.242C802.8,202.723,801.426,203.143,800,203.351Z" transform="translate(-766.436 -134.079)" fill="#1d272b"/>
      <path id="Trazado_158603" data-name="Trazado 158603" d="M1025.05,244.849a3.383,3.383,0,0,1-3.243,3.524,3.459,3.459,0,0,1-3.064-3.708c.052-1.952,1.584-3.641,3.245-3.578A3.606,3.606,0,0,1,1025.05,244.849Z" transform="translate(-893.327 -158.314)" fill="#1d272b"/>
      <path id="Trazado_158604" data-name="Trazado 158604" d="M1024.106,188.01c-.139,1.571-.856,2.787-2.547,2.869s-2.59-1.036-2.782-2.634a2.78,2.78,0,0,1,2.626-3.034C1023.1,185.3,1023.876,186.4,1024.106,188.01Z" transform="translate(-893.337 -126.323)" fill="#1d272b"/>
    </g>
  </g>
</svg>
