<svg xmlns="http://www.w3.org/2000/svg" xmlns:xlink="http://www.w3.org/1999/xlink" width="344.577" height="406.709" viewBox="0 0 344.577 406.709">
  <defs>
    <clipPath id="clip-path">
      <rect id="Rectángulo_34993" data-name="Rectángulo 34993" width="234.437" height="313.152" transform="translate(234.437 313.474) rotate(-179.921)" fill="none"/>
    </clipPath>
    <linearGradient id="linear-gradient" x1="0.5" x2="0.5" y2="1" gradientUnits="objectBoundingBox">
      <stop offset="0" stop-color="#f5f5f5"/>
      <stop offset="0.25" stop-color="#f5f5f5"/>
      <stop offset="1" stop-color="#a7b3cf"/>
    </linearGradient>
  </defs>
  <g id="img19" transform="translate(-313.38 -9806.147)">
    <g id="Grupo_128782" data-name="Grupo 128782" transform="translate(77.957 -8)">
      <path id="Trazado_165336" data-name="Trazado 165336" d="M383.317,470.552c13.182-24.285,16.932-55.8,9.953-83.634-4.413-17.6-12.882-33.942-13.965-52.291-2.166-36.686,25.133-66.344,30.8-102.475,2.489-15.879-.227-34.378-10.9-44.024-10.539-9.527-25.581-7.582-37.512-.91s-22.027,17.352-33.482,25.16-25.56,12.635-37.658,6.421c-12.253-6.295-19.2-22.161-23.1-37.625s-5.8-31.934-12.449-45.944c-10.951-23.09-34.3-35.679-56.059-32.421s-41.2,21.1-51.628,44.548-12.25,51.8-7.059,77.7c2.633,13.133,6.971,25.71,9.336,38.919s2.582,27.666-2.7,39.564c-11.043,24.879-40.174,28.348-55.429,49.684C78.879,370.83,78.484,397.7,85.629,419.358S106.2,458.584,119.592,475.3c62.449,2.552,126.018,2.721,188.467,5.273C332.33,481.565,359.074,472.287,383.317,470.552Z" transform="translate(154.462 9734.121)" fill="#a4a4b4" opacity="0.354" style="mix-blend-mode: multiply;isolation: isolate"/>
      <path id="Trazado_165337" data-name="Trazado 165337" d="M359.21,166.424c-.113,12.1,11.385,22.622,9.384,34.551-1.07,6.382-5.934,12.853-3.107,18.674,2.5,5.151,9.662,6.044,15.139,4.37,12.818-3.921,20.609-17.024,24.335-29.9,3.5-12.112,4.375-25.64-1.238-36.931-4.523-9.1-14.958-17.128-25.554-16.385C368.462,141.483,359.294,157.314,359.21,166.424Z" transform="translate(172.238 9766.969)" fill="#a4a4b4" opacity="0.31" style="mix-blend-mode: multiply;isolation: isolate"/>
      <path id="Trazado_165338" data-name="Trazado 165338" d="M112.811,133.913a45.8,45.8,0,0,0-.914,44.567c2.351,4.314,5.527,8.334,9.814,10.733s9.819,2.934,14.086.5c6.472-3.692,7.9-12.4,7.388-19.833s-2.2-15.226.663-22.1c1.866-4.484,5.449-7.98,8.628-11.652s6.146-7.958,6.31-12.812c.426-12.583-12.934-11.643-20.985-9.03A45.756,45.756,0,0,0,112.811,133.913Z" transform="translate(153.888 9728.539)" fill="#a4a4b4" opacity="0.31" style="mix-blend-mode: multiply;isolation: isolate"/>
      <g id="Grupo_128378" data-name="Grupo 128378" transform="translate(238.626 9834.316)" style="mix-blend-mode: multiply;isolation: isolate">
        <path id="Trazado_151849" data-name="Trazado 151849" d="M385.231,476.236l-1.366-1.489c3.759-4.906,9.76-16.153,7.729-36.375-.9-9-3.145-17.894-5.313-26.492-.967-3.842-1.969-7.814-2.843-11.759-9.322-42.089-5.244-88.519,11.187-127.383,1.459-3.449,3.039-6.91,4.567-10.256,4.529-9.92,9.211-20.18,11.225-31.262,3.532-19.447-3.45-34.023-11.43-39.336-7.657-5.1-18.465-4.32-29.651,2.139a139.1,139.1,0,0,0-11.916,8.046c-5.083,3.694-10.339,7.512-15.983,10.215-22.2,10.638-49.964,1.6-64.572-21.026-7.02-10.871-10.984-24.01-14.818-36.718-1.485-4.923-3.021-10.016-4.71-14.888-5.253-15.147-14.869-34.161-30.841-38.709-14.034-4-28.249,4.789-37.7,12.864A109.906,109.906,0,0,0,152.9,172.724c-3.414,15.2-3.551,31.746-3.684,47.747-.2,23.828-.4,48.468-11.671,68.311-5.126,9.027-12.177,16.229-18.995,23.2-6.386,6.523-12.989,13.269-17.912,21.445-11.154,18.526-13.888,44.756-7.5,71.963,5.739,24.445,17.438,46.135,28.752,67.112l-1.555,1.195c-11.387-21.113-23.163-42.945-28.977-67.71-6.54-27.857-3.7-54.774,7.78-73.848,5.053-8.393,11.742-15.226,18.21-21.835,6.726-6.871,13.681-13.976,18.667-22.756,10.956-19.293,11.148-42.511,11.352-67.093.134-16.139.273-32.826,3.749-48.3a112.162,112.162,0,0,1,36.6-60.14C197.483,103.67,212.21,94.6,226.925,98.8c16.732,4.764,26.7,24.389,32.12,40.012,1.706,4.92,3.25,10.037,4.742,14.985,3.785,12.546,7.7,25.52,14.542,36.117,14.121,21.869,40.956,30.607,62.419,20.324,5.5-2.635,10.69-6.406,15.71-10.051a140.234,140.234,0,0,1,12.071-8.148c11.736-6.775,23.165-7.536,31.358-2.081,8.558,5.7,16.069,21.188,12.337,41.733-2.07,11.393-6.817,21.793-11.41,31.852-1.521,3.331-3.094,6.775-4.539,10.193-16.231,38.388-20.259,84.249-11.05,125.823.865,3.909,1.862,7.863,2.826,11.688,2.19,8.689,4.455,17.674,5.38,26.866C395.549,459.205,389.2,471.054,385.231,476.236Z" transform="translate(-87.906 -97.739)" fill="#a4a4b4"/>
      </g>
    </g>
    <g id="Grupo_128778" data-name="Grupo 128778" transform="translate(413.466 9806.146)">
      <path id="Trazado_166082" data-name="Trazado 166082" d="M10.691-3.369H4.784L3.661,0H.079L6.166-16.352H9.288L15.408,0H11.826Zm-5-2.729H9.782L7.727-12.219ZM29.873-2.066A5.848,5.848,0,0,1,27.3-.376a10.77,10.77,0,0,1-3.684.6A7.3,7.3,0,0,1,19.895-.7a6.18,6.18,0,0,1-2.471-2.69,9.466,9.466,0,0,1-.893-4.144V-8.647a10.053,10.053,0,0,1,.825-4.24,6.106,6.106,0,0,1,2.381-2.74,6.858,6.858,0,0,1,3.644-.949,6.83,6.83,0,0,1,4.548,1.387,5.927,5.927,0,0,1,1.943,4.037H26.594a3.26,3.26,0,0,0-.994-2.055,3.174,3.174,0,0,0-2.117-.651,2.987,2.987,0,0,0-2.617,1.292,6.791,6.791,0,0,0-.91,3.841v1.044A6.465,6.465,0,0,0,20.934-3.8,3.346,3.346,0,0,0,23.8-2.482,3.737,3.737,0,0,0,26.5-3.291V-6.109H23.438V-8.591h6.435ZM42.44-7.086H35.971v4.38h7.592V0H32.6V-16.352H43.541v2.729H35.971v3.9H42.44ZM58.836,0H55.467L48.909-10.759V0H45.54V-16.352h3.369L55.479-5.57V-16.352h3.358ZM74.087-13.623H69.079V0H65.709V-13.623H60.768v-2.729H74.087ZM85.846-7.086H79.377v4.38h7.592V0H76.008V-16.352H86.946v2.729H79.377v3.9h6.469Zm11.579,2.8a1.729,1.729,0,0,0-.674-1.466,8.838,8.838,0,0,0-2.426-1.078,17.2,17.2,0,0,1-2.774-1.117q-2.785-1.5-2.785-4.054a3.949,3.949,0,0,1,.747-2.364,4.872,4.872,0,0,1,2.145-1.623,8.074,8.074,0,0,1,3.139-.584,7.349,7.349,0,0,1,3.122.635,4.971,4.971,0,0,1,2.128,1.791,4.687,4.687,0,0,1,.758,2.628H97.436a2.2,2.2,0,0,0-.708-1.746,2.908,2.908,0,0,0-1.988-.623,3.107,3.107,0,0,0-1.92.522,1.647,1.647,0,0,0-.685,1.376,1.578,1.578,0,0,0,.8,1.336A9.072,9.072,0,0,0,95.3-9.647,10.214,10.214,0,0,1,99.491-7.5,4.272,4.272,0,0,1,100.8-4.312,3.935,3.935,0,0,1,99.2-.983,7.031,7.031,0,0,1,94.875.225a8.349,8.349,0,0,1-3.437-.691,5.438,5.438,0,0,1-2.364-1.892,4.846,4.846,0,0,1-.814-2.785h3.38q0,2.707,3.234,2.707a3.146,3.146,0,0,0,1.875-.489A1.589,1.589,0,0,0,97.424-4.29Zm24.8-3.515a9.852,9.852,0,0,1-.741,3.981,6.834,6.834,0,0,1-2.055,2.712l2.718,2.134L120,2.92l-3.481-2.8a7.369,7.369,0,0,1-1.235.1,6.8,6.8,0,0,1-3.627-.977,6.491,6.491,0,0,1-2.471-2.791,9.589,9.589,0,0,1-.887-4.172v-.809a9.819,9.819,0,0,1,.87-4.251,6.48,6.48,0,0,1,2.459-2.819,6.765,6.765,0,0,1,3.633-.983,6.765,6.765,0,0,1,3.633.983,6.48,6.48,0,0,1,2.459,2.819,9.791,9.791,0,0,1,.87,4.24Zm-3.414-.741a6.881,6.881,0,0,0-.921-3.908,3,3,0,0,0-2.628-1.336,3,3,0,0,0-2.617,1.32,6.8,6.8,0,0,0-.932,3.869v.8a6.967,6.967,0,0,0,.921,3.886,2.993,2.993,0,0,0,2.65,1.381,2.966,2.966,0,0,0,2.605-1.331,6.927,6.927,0,0,0,.921-3.88Zm18.261-7.805v10.77a5.514,5.514,0,0,1-1.679,4.245A6.473,6.473,0,0,1,130.8.225a6.546,6.546,0,0,1-4.548-1.516,5.42,5.42,0,0,1-1.718-4.167V-16.352H127.9V-5.559a3.116,3.116,0,0,0,.769,2.342,2.953,2.953,0,0,0,2.128.736q2.841,0,2.886-2.987V-16.352ZM143.413,0h-3.369V-16.352h3.369Zm-1.044-20.765h3.538L142.8-17.284h-2.639Zm8.569,4.414,4.2,11.859,4.178-11.859h4.425V0h-3.38V-4.47l.337-7.715L156.283,0H153.97l-4.4-12.174.337,7.7V0h-3.369V-16.352ZM170.265,0H166.9V-16.352h3.369Zm15.958-5.447a5.786,5.786,0,0,1-1.948,4.155A6.843,6.843,0,0,1,179.643.225,6.153,6.153,0,0,1,174.7-1.892a8.68,8.68,0,0,1-1.8-5.812v-1a9.8,9.8,0,0,1,.831-4.155,6.228,6.228,0,0,1,2.375-2.757,6.654,6.654,0,0,1,3.588-.96,6.666,6.666,0,0,1,4.56,1.516,6.218,6.218,0,0,1,2,4.256h-3.369A3.415,3.415,0,0,0,182-13.1a3.265,3.265,0,0,0-2.308-.713,2.863,2.863,0,0,0-2.521,1.207,6.766,6.766,0,0,0-.859,3.745v1.235a7.241,7.241,0,0,0,.8,3.875,2.81,2.81,0,0,0,2.532,1.224,3.326,3.326,0,0,0,2.33-.713,3.221,3.221,0,0,0,.882-2.207Zm15.644-2.358a9.871,9.871,0,0,1-.854,4.234,6.428,6.428,0,0,1-2.443,2.808,6.757,6.757,0,0,1-3.644.988A6.8,6.8,0,0,1,191.3-.752a6.491,6.491,0,0,1-2.471-2.791,9.589,9.589,0,0,1-.887-4.172v-.809a9.819,9.819,0,0,1,.87-4.251,6.48,6.48,0,0,1,2.459-2.819,6.765,6.765,0,0,1,3.633-.983,6.765,6.765,0,0,1,3.633.983A6.48,6.48,0,0,1,201-12.775a9.791,9.791,0,0,1,.87,4.24Zm-3.414-.741a6.881,6.881,0,0,0-.921-3.908,3,3,0,0,0-2.628-1.336,3,3,0,0,0-2.617,1.32,6.8,6.8,0,0,0-.932,3.869v.8a6.967,6.967,0,0,0,.921,3.886,2.993,2.993,0,0,0,2.65,1.381,2.966,2.966,0,0,0,2.605-1.331,6.927,6.927,0,0,0,.921-3.88ZM212.795-4.29a1.729,1.729,0,0,0-.674-1.466A8.838,8.838,0,0,0,209.7-6.834a17.2,17.2,0,0,1-2.774-1.117q-2.785-1.5-2.785-4.054a3.949,3.949,0,0,1,.747-2.364,4.871,4.871,0,0,1,2.145-1.623,8.074,8.074,0,0,1,3.139-.584,7.349,7.349,0,0,1,3.122.635,4.971,4.971,0,0,1,2.128,1.791,4.687,4.687,0,0,1,.758,2.628h-3.369a2.2,2.2,0,0,0-.708-1.746,2.908,2.908,0,0,0-1.988-.623,3.107,3.107,0,0,0-1.92.522,1.647,1.647,0,0,0-.685,1.376,1.578,1.578,0,0,0,.8,1.336,9.072,9.072,0,0,0,2.364,1.011A10.214,10.214,0,0,1,214.861-7.5a4.272,4.272,0,0,1,1.314,3.189,3.935,3.935,0,0,1-1.606,3.33A7.031,7.031,0,0,1,210.246.225a8.349,8.349,0,0,1-3.437-.691,5.438,5.438,0,0,1-2.364-1.892,4.846,4.846,0,0,1-.814-2.785h3.38q0,2.707,3.234,2.707a3.146,3.146,0,0,0,1.875-.489A1.589,1.589,0,0,0,212.795-4.29Z" transform="translate(7.842 25.898)" fill="#008f85"/>
      <path id="Trazado_166083" data-name="Trazado 166083" d="M1.523,0V-17.062h5.25A7.973,7.973,0,0,1,10.8-16.049a7.069,7.069,0,0,1,2.771,2.883,8.892,8.892,0,0,1,1,4.248v.785a8.917,8.917,0,0,1-.979,4.23,7.008,7.008,0,0,1-2.76,2.871A8.033,8.033,0,0,1,6.809,0ZM5.039-14.215V-2.824h1.7A3.818,3.818,0,0,0,9.891-4.172,6.09,6.09,0,0,0,11-8.027v-.9a6.187,6.187,0,0,0-1.078-3.943,3.8,3.8,0,0,0-3.152-1.342Zm22.348,6.82h-6.75v4.57h7.922V0H17.121V-17.062H28.535v2.848h-7.9v4.066h6.75ZM39.469-4.477a1.8,1.8,0,0,0-.7-1.529,9.222,9.222,0,0,0-2.531-1.125A17.944,17.944,0,0,1,33.34-8.3q-2.906-1.57-2.906-4.23a4.12,4.12,0,0,1,.779-2.467,5.083,5.083,0,0,1,2.238-1.693,8.425,8.425,0,0,1,3.275-.609,7.668,7.668,0,0,1,3.258.662,5.187,5.187,0,0,1,2.221,1.869A4.891,4.891,0,0,1,43-12.023H39.48a2.3,2.3,0,0,0-.738-1.822,3.035,3.035,0,0,0-2.074-.65,3.242,3.242,0,0,0-2,.545,1.719,1.719,0,0,0-.715,1.436,1.646,1.646,0,0,0,.838,1.395,9.466,9.466,0,0,0,2.467,1.055,10.658,10.658,0,0,1,4.371,2.238A4.458,4.458,0,0,1,43-4.5,4.106,4.106,0,0,1,41.32-1.025,7.336,7.336,0,0,1,36.809.234a8.712,8.712,0,0,1-3.586-.721,5.674,5.674,0,0,1-2.467-1.975,5.057,5.057,0,0,1-.85-2.906h3.527q0,2.824,3.375,2.824a3.283,3.283,0,0,0,1.957-.51A1.658,1.658,0,0,0,39.469-4.477ZM49.113,0H45.6V-17.062h3.516ZM66.246,0H62.73L55.887-11.227V0H52.371V-17.062h3.516l6.855,11.25v-11.25h3.5ZM79.582-6.973h-6.75V0H69.316V-17.062H80.426v2.848H72.832v4.406h6.75ZM92.73-7.395H85.98v4.57H93.9V0H82.465V-17.062H93.879v2.848h-7.9v4.066h6.75Zm16.629,1.711a6.038,6.038,0,0,1-2.033,4.336A7.141,7.141,0,0,1,102.492.234,6.421,6.421,0,0,1,97.33-1.975a9.058,9.058,0,0,1-1.881-6.064V-9.082a10.228,10.228,0,0,1,.867-4.336,6.5,6.5,0,0,1,2.479-2.877,6.943,6.943,0,0,1,3.744-1,6.956,6.956,0,0,1,4.758,1.582,6.488,6.488,0,0,1,2.086,4.441h-3.516a3.563,3.563,0,0,0-.92-2.4,3.407,3.407,0,0,0-2.408-.744,2.987,2.987,0,0,0-2.631,1.26,7.06,7.06,0,0,0-.9,3.908v1.289a7.556,7.556,0,0,0,.838,4.043,2.932,2.932,0,0,0,2.643,1.277,3.471,3.471,0,0,0,2.432-.744,3.361,3.361,0,0,0,.92-2.3Zm14.813-8.531h-5.227V0H115.43V-14.215h-5.156v-2.848h13.9Zm10.23,10.7h-6.164L127.066,0h-3.738l6.352-17.062h3.258L139.324,0h-3.738Zm-5.215-2.848h4.266l-2.145-6.387ZM154.793,0h-3.516l-6.844-11.227V0h-3.516V-17.062h3.516l6.855,11.25v-11.25h3.5Zm15.914-14.215H165.48V0h-3.516V-14.215h-5.156v-2.848h13.9Zm12.27,6.82h-6.75v4.57h7.922V0H172.711V-17.062h11.414v2.848h-7.9v4.066h6.75Zm12.082,2.918a1.8,1.8,0,0,0-.7-1.529,9.222,9.222,0,0,0-2.531-1.125A17.944,17.944,0,0,1,188.93-8.3q-2.906-1.57-2.906-4.23a4.12,4.12,0,0,1,.779-2.467,5.083,5.083,0,0,1,2.238-1.693,8.425,8.425,0,0,1,3.275-.609,7.668,7.668,0,0,1,3.258.662,5.187,5.187,0,0,1,2.221,1.869,4.891,4.891,0,0,1,.791,2.742H195.07a2.3,2.3,0,0,0-.738-1.822,3.035,3.035,0,0,0-2.074-.65,3.242,3.242,0,0,0-2,.545,1.719,1.719,0,0,0-.715,1.436,1.646,1.646,0,0,0,.838,1.395,9.466,9.466,0,0,0,2.467,1.055,10.658,10.658,0,0,1,4.371,2.238A4.458,4.458,0,0,1,198.586-4.5a4.106,4.106,0,0,1-1.676,3.475A7.336,7.336,0,0,1,192.4.234a8.712,8.712,0,0,1-3.586-.721,5.674,5.674,0,0,1-2.467-1.975,5.057,5.057,0,0,1-.85-2.906h3.527q0,2.824,3.375,2.824a3.283,3.283,0,0,0,1.957-.51A1.658,1.658,0,0,0,195.059-4.477Z" transform="translate(7.842 50.984)" fill="#1d272b"/>
      <rect id="Rectángulo_34968" data-name="Rectángulo 34968" width="3.921" height="65.369" transform="translate(0 0)" fill="#d93328"/>
    </g>
    <g id="Grupo_128779" data-name="Grupo 128779" transform="translate(322.925 9871.516)">
      <g id="Grupo_127551" data-name="Grupo 127551" transform="translate(54.241 17.866)">
        <g id="Grupo_127550" data-name="Grupo 127550" transform="translate(0 0)" clip-path="url(#clip-path)">
          <g id="Grupo_127549" data-name="Grupo 127549" transform="translate(-61.926 14.144)">
            <g id="Grupo_127547" data-name="Grupo 127547">
              <path id="Trazado_163421" data-name="Trazado 163421" d="M438.147,677.233l-40.7-.056a64.378,64.378,0,0,1,3.013-9.7l41.46-4.638C440.282,675.046,438.147,677.233,438.147,677.233Z" transform="translate(-397.449 -144.46)" fill="#263238"/>
              <path id="Trazado_163422" data-name="Trazado 163422" d="M383.793,661.318c.9,2.114,21.893,6.694,36.8-1.457a28.386,28.386,0,0,0,4.665-3.177c.3-2.221.6-5.141.991-8.744.22-2.019.456-4.272.708-6.725.173-1.585.361-3.262.55-5.017.519-4.846,1.144-7.081,1.883-13.169,1.272-10.421,6.451-25.823,8.582-39.428l-23.736-10.75c-.4,22.9-1.581,31.111-5.028,41.964-1.842,5.807-5.7,12.791-9.953,19.822-3.784,6.271-7.893,12.6-11.147,18.19a.016.016,0,0,0-.016.016c-.3.481-.561.946-.825,1.412A40.633,40.633,0,0,0,383.793,661.318Z" transform="translate(-380.779 -138.294)" fill="#ebebeb"/>
              <path id="Trazado_163423" data-name="Trazado 163423" d="M395.618,665.714c.565,4.366,21.772,9.891,36.679,1.741,1.648-.9,3.325-5.15,4.786-6.375.3-2.222.6-5.141.991-8.744.22-2.019.456-4.272.708-6.725a21.917,21.917,0,0,1-5.331,2.253c-1.668-7.837-4.274-10.251-13.794-10.776-3.821-.208-6.2-.071-8.577,1.945-2.877,2.435-5.758,7.6-11.147,18.19a.016.016,0,0,0-.016.016Q398,660.987,395.618,665.714Z" transform="translate(-392.604 -142.69)" fill="#263238"/>
              <path id="Trazado_163424" data-name="Trazado 163424" d="M200.044,668.533l-1.275,9.233,85.932.118-1.8-7.427Z" transform="translate(-55.161 -144.85)" fill="#263238"/>
              <path id="Trazado_163425" data-name="Trazado 163425" d="M202.044,663.05s25.888,1.921,49.5,2.614c13.71.389,25.417.552,32.1-.518A183.251,183.251,0,0,1,261,655.607c-19.649-9.4-26.314-16.206-24.214-32.324,1.628-12.5,5.1-31.162,5.1-31.162l-28.768-3.713s-2.073,19.6-3.56,34.971C208.555,633.737,203.563,659.387,202.044,663.05Z" transform="translate(-57.163 -139.36)" fill="#ebebeb"/>
              <g id="Grupo_127529" data-name="Grupo 127529" transform="translate(28.615 203.542)">
                <g id="Grupo_127526" data-name="Grupo 127526">
                  <path id="Trazado_163426" data-name="Trazado 163426" d="M325.033,324.844c3.843,17.745,6.855,27.152,11.54,58.642l-96.848-.134c.252-32.724,4.685-53.393,4.685-53.393Z" transform="translate(-173.799 -324.844)" fill="#263238"/>
                  <path id="Trazado_163427" data-name="Trazado 163427" d="M405.4,363c-3.461,29.277-61.739,183.694-77.656,240.641-17.031,3.4-45.639-6.338-45.639-6.338,7.234-101.563,30.966-119.052,33.11-130.368S333.635,371.9,352.6,328.877Z" transform="translate(-282.109 -325.12)" fill="#263238"/>
                  <path id="Trazado_163428" data-name="Trazado 163428" d="M278.244,324.844c17.946,34.371,14.953,124.768,13.487,170.8s-8.077,108.8-8.077,108.8-21.745,7.783-41.187,1.411c-2.338-101.243-6.058-228.529-6.058-228.529Z" transform="translate(-127.01 -324.844)" fill="#263238"/>
                </g>
                <g id="Grupo_127528" data-name="Grupo 127528" transform="translate(4.077 7.773)">
                  <g id="Grupo_127527" data-name="Grupo 127527" transform="translate(59.643)">
                    <path id="Trazado_163429" data-name="Trazado 163429" d="M286.62,361.567l.01.006h0l-.011-.007Z" transform="translate(-231.259 -335.133)" fill="#38474f"/>
                    <path id="Trazado_163430" data-name="Trazado 163430" d="M335.147,357.353a28.273,28.273,0,0,1-9.2-9.265,27.766,27.766,0,0,1-3.664-9.231c-1.769-.061-3.541-.182-5.26-.216-3.279-.066-6.557-.121-9.835-.2-1.307-.031-2.614-.074-3.921-.108a118.408,118.408,0,0,1-2.387,14.291.974.974,0,0,1-.451.616,2.326,2.326,0,0,1-1.38,2.218,3.507,3.507,0,0,1-3.025-.13c-1.869-.936-2.154-3.135-1.929-5,.491-4.083,1.126-8.144,1.838-12.193-2.8-.075-5.608-.145-8.413-.231l-6.078-.188a1.793,1.793,0,0,1,.319,1.15c-.2,3.148-1.479,6.418-2.289,9.463q-1.179,4.44-2.359,8.882-2.414,9.036-5.3,17.95c-3.874,11.993-7.147,24.12-10.572,36.247a.66.66,0,0,1-1.275-.336c2.978-12.244,6.088-24.416,8.611-36.764q1.872-9.166,4.208-18.237,1.149-4.449,2.311-8.895c.792-3.049,1.288-6.531,2.662-9.372a1.887,1.887,0,0,1,.12-.2q-8.181-.254-16.359-.549a2.845,2.845,0,0,1-.221,1.758,34.4,34.4,0,0,1-8.39,11.182,34.79,34.79,0,0,1-12.319,6.831,1.663,1.663,0,0,1-2.01-1.178,1.7,1.7,0,0,1,1.178-2.01,32.4,32.4,0,0,0,17.319-16.75q-4.611-.187-9.221-.409a1.577,1.577,0,0,1,0-3.151c13.331-.208,26.66-.128,39.993-.088q9.834.028,19.668.125c3.279.035,6.557.089,9.835.133a80.222,80.222,0,0,1,10.469.321,2.475,2.475,0,0,1,1.823,2.741,2.549,2.549,0,0,1-2.465,2.181c-.537.061-1.087.075-1.635.1a27.413,27.413,0,0,0,3.759,7.183,26.881,26.881,0,0,0,8.222,7.144C340.189,354.773,337.835,358.9,335.147,357.353Zm-34.57-19.093c-.807-.021-1.613-.045-2.42-.066-.1,3.029-.238,6.052-.458,9.075q-.091,1.251-.183,2.5a6.6,6.6,0,0,0-.033,1.861c-.007-.032.086.278.13.412h0v0l.009,0,0,0h0l.02.005.017,0c.142-.065.279-.138.422-.2a1.928,1.928,0,0,1,.724-.167A121.7,121.7,0,0,1,300.577,338.26Z" transform="translate(-238.528 -333.189)" fill="#38474f"/>
                  </g>
                  <path id="Trazado_163431" data-name="Trazado 163431" d="M267.614,375.588c-.124-5.166-.49-10.347-.828-15.5q-.257-3.915-.513-7.831c-.168-2.563-.139-5.447-1.231-7.82a1.748,1.748,0,0,0-3.2.178c-.705,2.484-.285,5.274-.06,7.808q.347,3.9.694,7.8c.47,5.282.835,10.637,1.6,15.885.754,5.15,1.486,10.289,2.108,15.462.647,5.38,1.487,10.753,1.948,16.152.02.226.36.157.345-.063C267.743,397,267.869,386.257,267.614,375.588Z" transform="translate(-130.018 -333.894)" fill="#38474f"/>
                  <path id="Trazado_163432" data-name="Trazado 163432" d="M395.976,486.574c3.065-10.171,5.777-20.443,8.867-30.607.074-.244-.293-.333-.378-.1-3.265,8.89-6.792,17.678-10.15,26.532-3.351,8.834-6.388,17.78-9.471,26.711-6.125,17.737-12.238,35.479-18.1,53.3-3.122,9.493-6.39,18.952-9.4,28.482-.335-.032-.669-.071-1-.1-3.587-.326-7.165-.5-10.765-.617-3.7-.125-7.4.081-11.091-.044-1.032-.034-1.288,1.634-.238,1.823,3.513.633,6.958,1.588,10.48,2.224,3.644.657,7.278,1.272,10.954,1.72,3.583.437,7.175.793,10.764,1.171,3.535.373,7.4,1.191,10.9.267a1.842,1.842,0,0,0,.442-3.348c-3.135-1.592-6.917-1.661-10.358-2.031-2.04-.219-4.079-.444-6.119-.663,6.048-16.967,11.7-34.113,17.328-51.22C384.49,522.277,390.568,504.519,395.976,486.574Z" transform="translate(-333.568 -341.585)" fill="#38474f"/>
                  <path id="Trazado_163433" data-name="Trazado 163433" d="M282.625,596.871a10.107,10.107,0,0,0-4.309.248c-.73.118-1.462.223-2.193.337q.394-30.591.692-61.183c.2-20.786.543-41.593.3-62.379-.07-5.91-.126-11.82-.261-17.73s-.461-11.821-.447-17.73a.587.587,0,0,0-1.174,0c-.227,10.5-1.042,21.013-1.419,31.516-.368,10.284-.572,20.572-.758,30.861q-.563,31.188-.971,62.378c-.168,11.631-.269,23.261-.4,34.891-1.985.253-3.971.492-5.965.679a106.962,106.962,0,0,1-17.1.593.992.992,0,0,0-.253,1.944,101.374,101.374,0,0,0,17.666,2.016,66.91,66.91,0,0,0,8.861-.553c2.782-.363,6.461-.456,8.712-2.248C284.947,599.443,284.074,597.267,282.625,596.871Z" transform="translate(-132.955 -340.361)" fill="#38474f"/>
                </g>
              </g>
              <g id="Grupo_127530" data-name="Grupo 127530" transform="translate(87.963 75.832)">
                <path id="Trazado_163434" data-name="Trazado 163434" d="M252.148,188.486c16.111-3.662,42.857,7.355,42.857,7.355s33.114,8.815,43.969,15.967-4.4,76.269-4.493,100.9l-90.067,2.628C238.118,260.034,224.92,194.673,252.148,188.486Z" transform="translate(-235.629 -187.741)" fill="#ebebeb"/>
              </g>
              <path id="Trazado_163435" data-name="Trazado 163435" d="M296.216,318.288s.052-45.834-.942-61.844c-1.282-20.653-3.4-43.384-3.4-43.384L272.5,211.577c5.6,19.734,8.9,107.651,8.9,107.651Z" transform="translate(-135.354 -113.542)" fill="#1d272b"/>
              <path id="Trazado_163436" data-name="Trazado 163436" d="M224.355,304.493s3.982,74.03,6.121,89.017c2.123,14.987,8.8,17,39.734,2.249-2.122-15.274-4.682-30.953-7.31-45.771-.285-1.553-.553-3.089-.837-4.625-7.235-40.034-14.681-72.712-14.681-72.712Z" transform="translate(-64.503 -117.726)" fill="#ebebeb"/>
              <path id="Trazado_163437" data-name="Trazado 163437" d="M372.605,293.283s-14.236,91.793-23.712,108.03-65.58-9.641-65.58-9.641c9.756-45.09,40.345-143.677,40.345-143.677Z" transform="translate(-221.816 -116.037)" fill="#ebebeb"/>
              <g id="Grupo_127532" data-name="Grupo 127532" transform="translate(66.315 170.238)">
                <path id="Trazado_163438" data-name="Trazado 163438" d="M311.119,384.6q1.7.7,3.4,1.377c1.394-6.417,3.211-12.768,4.842-19.1,2.23-8.659,4.5-17.313,6.958-25.908s4.881-17.206,7.212-25.841,5.048-17.163,7.456-25.778a.356.356,0,0,1,.688.182c-2.054,8.709-3.794,17.484-5.925,26.18s-4.167,17.4-6.167,26.117-4.193,17.39-6.423,26.05c-1.667,6.475-3.171,13.061-5.109,19.487a156.281,156.281,0,0,0,22.371,7.007c8.98,1.993,18.809,4.219,27.722,1.1a1.144,1.144,0,0,1,1.271,1.658c-2.617,4.09-7.625,4.506-12.036,4.224a99.274,99.274,0,0,1-16.113-2.6,119.119,119.119,0,0,1-24.206-8.251q-.532,1.619-1.115,3.219a1.425,1.425,0,0,1-2.753-.726c.211-1.362.459-2.719.723-4.074-1.351-.712-2.684-1.45-3.988-2.233C308.566,385.864,309.732,384.03,311.119,384.6Z" transform="translate(-309.322 -289.09)" fill="#dbdbdb"/>
                <g id="Grupo_127531" data-name="Grupo 127531" transform="translate(104.303 95.392)">
                  <path id="Trazado_163439" data-name="Trazado 163439" d="M230.142,398.591a54.873,54.873,0,0,0,20.416-3.9c1.026-.427,2.034-.9,3.026-1.4a20.06,20.06,0,0,1,3.5-1.713,2.165,2.165,0,0,1,2.06,3.6c-1.764,1.733-4.681,2.666-6.951,3.549a40.665,40.665,0,0,1-7.31,2.151,43.019,43.019,0,0,1-15.069.227C228.354,400.861,228.726,398.6,230.142,398.591Z" transform="translate(-228.884 -391.498)" fill="#dbdbdb"/>
                </g>
              </g>
              <path id="Trazado_163440" data-name="Trazado 163440" d="M313.226,348.27c2.288-1.161,5.27.606,7.486,1.369,2.3.792,4.622,1.542,6.948,2.255s4.674,1.337,7.022,1.96a68.136,68.136,0,0,0,7.552,1.825c1.312.192,1.024,2.409-.3,2.308-2.577-.2-5.162-.141-7.736-.408-2.594-.27-5.158-.7-7.713-1.22a70.95,70.95,0,0,1-7.559-1.979c-2.377-.764-5.662-1.368-6.623-3.925A1.948,1.948,0,0,1,313.226,348.27Z" transform="translate(-219.222 -122.881)" fill="#dbdbdb"/>
              <path id="Trazado_163441" data-name="Trazado 163441" d="M295.616,171.27,276.592,176.9l-6.267,10.454,37.831,10.695,4.079-12.455Z" transform="translate(-149.347 -110.781)" fill="#1d272b"/>
              <g id="Grupo_127535" data-name="Grupo 127535" transform="translate(162.437 62.039)">
                <path id="Trazado_163442" data-name="Trazado 163442" d="M235.963,305.037c-11.4-8.812-58.022-39.613-63.938-72.208-4.356-24,13.484-33.11,31.538-17.077s60.432,56.115,60.432,56.115Z" transform="translate(-171.361 -175.317)" fill="#ebebeb"/>
                <path id="Trazado_163443" data-name="Trazado 163443" d="M192.463,230.8,179.9,277.439a27.565,27.565,0,0,1-38.7,17.607l-3.145-1.533,42.783-62.738Z" transform="translate(-68.809 -176.897)" fill="#ac635b"/>
                <g id="Grupo_127534" data-name="Grupo 127534" transform="translate(71.561)">
                  <path id="Trazado_163444" data-name="Trazado 163444" d="M152.256,210.45l-6.7-13.823a2.727,2.727,0,0,1,1.159-3.591h0a2.728,2.728,0,0,1,3.225.473l10.054,10.068Z" transform="translate(-114.619 -174.289)" fill="#824645"/>
                  <path id="Trazado_163445" data-name="Trazado 163445" d="M136.595,211.774c-4.461,18-3.009,29.476,11.931,30.3l7.031-22.256Z" transform="translate(-100.033 -175.595)" fill="#ac635b"/>
                  <path id="Trazado_163446" data-name="Trazado 163446" d="M147.1,182.425l15.415-.4,22.695,16.476a2.293,2.293,0,1,1-2.8,3.631l-20.659-17.187-14.692-1.523a.5.5,0,0,1,.039-1Z" transform="translate(-142.026 -173.557)" fill="#263238"/>
                  <g id="Grupo_127533" data-name="Grupo 127533">
                    <path id="Trazado_163447" data-name="Trazado 163447" d="M191.846,186.864c1.627-2.406,1.81-6.587,1.117-9.348-.668-2.665-3.515-5.9-6.038-4.021-1.9,1.413-.388,4.385-.567,6.3-.206,2.2-2.528,4.491-1.4,6.735A4.069,4.069,0,0,0,191.846,186.864Z" transform="translate(-184.651 -172.934)" fill="#008f85"/>
                    <path id="Trazado_163448" data-name="Trazado 163448" d="M186.522,183.019a7.579,7.579,0,0,0,.889-1.644,5.076,5.076,0,0,0,.383-1.823,8.464,8.464,0,0,0-.235-1.983c-.051-.214.276-.369.374-.151a5.9,5.9,0,0,1,.514,1.975c.03.356,0,.709.014,1.065a6.615,6.615,0,0,1-.044,1.128,6.967,6.967,0,0,1-.621,2.1,8.662,8.662,0,0,1-.516.926c-.313.484-.661.869-1.287.755a.73.73,0,0,1-.532-.533C185.278,184.036,186.126,183.6,186.522,183.019Z" transform="translate(-180.503 -173.234)" fill="#90b9d1"/>
                    <path id="Trazado_163449" data-name="Trazado 163449" d="M189.219,186.393a.64.64,0,0,1,.116-.222s0-.009,0-.014l.007-.007c.011-.015.013-.036.026-.051a.661.661,0,0,1,.125-.114c.026-.023.041-.059.072-.077.008-.008.022-.009.032-.017s.013-.016.022-.02l.082-.034a.621.621,0,0,1,.158-.081l.216-.028a.848.848,0,0,1,.419.112l.182.139a.845.845,0,0,1,.221.386l.028.142a.955.955,0,0,1-.084.635l-.139.182a.634.634,0,0,1-.283.179.416.416,0,0,1-.211.055.635.635,0,0,1-.323-.014l-.2-.083a.864.864,0,0,1-.319-.32l-.063-.11a.639.639,0,0,1-.1-.312A.65.65,0,0,1,189.219,186.393Z" transform="translate(-186.492 -173.81)" fill="#90b9d1"/>
                  </g>
                  <path id="Trazado_163450" data-name="Trazado 163450" d="M146.567,180.107l15.42,0,22.27,17.047a2.293,2.293,0,1,1-2.89,3.559L161.151,183l-14.649-1.9a.5.5,0,0,1,.064-1Z" transform="translate(-140.511 -173.425)" fill="#38474f"/>
                  <path id="Trazado_163451" data-name="Trazado 163451" d="M135.98,188.821l12.207,2.186a3.635,3.635,0,0,1,2.59,1.907l6.482,17.59a9.072,9.072,0,0,1,.038,6.168l-8.379,23.64c-.66-3.139-7.647-4.085-9.613-12.07-2.783-8.382,4.915-24.5,4.915-24.5l-.415-6.847-9.182-3.764a2.271,2.271,0,0,1-1.344-2.636A2.326,2.326,0,0,1,135.98,188.821Z" transform="translate(-101.216 -174.02)" fill="#ac635b"/>
                  <path id="Trazado_163452" data-name="Trazado 163452" d="M148.447,202.4c-6.432-.105-9.279,3.48-7.522,6.838-1.485,3.436-.7,5.708,1.889,7.56-4.368-.76-5.153,3.382-4.139,5.252s8.1,5.931,8.1,5.931l10.079-17.189Z" transform="translate(-104.968 -174.952)" fill="#ac635b"/>
                  <path id="Trazado_163453" data-name="Trazado 163453" d="M137.264,202.527a5,5,0,0,1,2.277.25,8.386,8.386,0,0,1,2.147,1.118,16.38,16.38,0,0,1,3.491,3.155c.174.22-.194.521-.384.314a11.54,11.54,0,0,0-3.563-2.737c-.654-.3-1.332-.563-2-.836a20.653,20.653,0,0,1-2.045-.947A.17.17,0,0,1,137.264,202.527Z" transform="translate(-92.24 -174.959)" fill="#824645"/>
                  <path id="Trazado_163454" data-name="Trazado 163454" d="M142.023,208.352a6.6,6.6,0,0,0,.848-.158,6.507,6.507,0,0,1,.762-.025,10.484,10.484,0,0,1,1.533.2,10.175,10.175,0,0,1,3.084,1.045,11.041,11.041,0,0,1,4.384,4.558.241.241,0,0,1-.411.252,11.156,11.156,0,0,0-4.444-3.93,13.324,13.324,0,0,0-2.725-1.093,10.782,10.782,0,0,0-1.421-.243c-.25-.031-.5-.065-.748-.088a3.149,3.149,0,0,0-.8-.1C141.775,208.825,141.734,208.336,142.023,208.352Z" transform="translate(-104.082 -175.348)" fill="#824645"/>
                  <path id="Trazado_163455" data-name="Trazado 163455" d="M146.706,216.387a2.157,2.157,0,0,1,.753.122,7.028,7.028,0,0,1,.788.282,5.493,5.493,0,0,1,1.339.837,22.227,22.227,0,0,1,2.345,2.165.251.251,0,0,1-.342.366,16.187,16.187,0,0,0-2.582-1.72,11.953,11.953,0,0,1-1.355-.814,4.43,4.43,0,0,1-1.119-.919A.212.212,0,0,1,146.706,216.387Z" transform="translate(-107.774 -175.911)" fill="#824645"/>
                  <path id="Trazado_163456" data-name="Trazado 163456" d="M147.96,227.936a2.774,2.774,0,0,1,1.542,2.642c0,1.34-.708,2.571-.7,3.92a5.63,5.63,0,0,0,.961,3.119,5.169,5.169,0,0,0,1.09,1.167c.46.362,1.172.587,1.416,1.144a.645.645,0,0,1-.5.882c-.6.121-1.176-.4-1.586-.778a7.2,7.2,0,0,1-1.1-1.264,7.962,7.962,0,0,1-1.293-3.1,7.485,7.485,0,0,1,.319-3.483c.314-1.057.88-2.931-.405-3.61C147.327,228.369,147.545,227.762,147.96,227.936Z" transform="translate(-109.03 -176.7)" fill="#824645"/>
                </g>
              </g>
              <g id="Grupo_127536" data-name="Grupo 127536" transform="translate(148.331 74.811)">
                <path id="Trazado_163457" data-name="Trazado 163457" d="M282.043,186.645l2.635,5.607-2.669,19.109-14.657-13.393Z" transform="translate(-267.352 -186.645)" fill="#1d272b"/>
              </g>
              <path id="Trazado_163458" data-name="Trazado 163458" d="M133.967,307.379c13.969,10.523,35.582,7.348,62.864-43.248L174.213,241.9l-39.175,52.627Z" transform="translate(93.072 -115.619)" fill="#ebebeb"/>
              <g id="Grupo_127539" data-name="Grupo 127539" transform="translate(115.597)">
                <path id="Trazado_163459" data-name="Trazado 163459" d="M240.378,117.008c9.627-8.771,18.83-15.343,30.024-6.438s13.513,10.369,13.513,10.369,8.341,14.515-1.276,27.014Z" transform="translate(-212.086 -106.331)" fill="#263238"/>
                <path id="Trazado_163460" data-name="Trazado 163460" d="M309.219,117.8c-25.041-11.158-41.481,17.232-23.27,43.542Z" transform="translate(-269.274 -106.946)" fill="#263238"/>
                <path id="Trazado_163461" data-name="Trazado 163461" d="M271.192,195.667c-.009,6.614,17.884,18.075,17.884,18.075s6.976-8.928,8.2-15.778l5.573-28.221-29.208-12.106-2.414,37.17C271.21,195.093,271.192,195.38,271.192,195.667Z" transform="translate(-256.366 -109.847)" fill="#ac635b"/>
                <path id="Trazado_163462" data-name="Trazado 163462" d="M271.787,169.5c-.017,12.277,7.742,24.02,20.344,24.038l3.757-18.347.226-2.283Z" transform="translate(-250.185 -110.659)" fill="#263238"/>
                <path id="Trazado_163463" data-name="Trazado 163463" d="M295.977,170.829c-3.681,6.889-10.045,12.637-17.68,14.214-10.579,2.207-21.417-3.925-28.123-12.4a40.591,40.591,0,0,1-7.784-16.649c-2.853-13.07.78-27.173,13.093-34.719,8.424-5.165,23.232-6.022,33.444-1.081a19.439,19.439,0,0,1,9.242,8.569C304.291,140.895,302.207,159.192,295.977,170.829Z" transform="translate(-227.674 -107.056)" fill="#ac635b"/>
                <g id="Grupo_127537" data-name="Grupo 127537" transform="translate(0 35.173)">
                  <path id="Trazado_163464" data-name="Trazado 163464" d="M309.435,145.512c-3.189-1.746-7.54-2.065-10.447.086-2.421,1.79-3.342,4.846-3.488,7.722a16.344,16.344,0,0,0,2.983,10.571,13.583,13.583,0,0,0,9.906,5.476c3.968.228,8.107-1.691,9.96-4.982C321.905,158.069,315.163,148.649,309.435,145.512Z" transform="translate(-295.475 -144.092)" fill="#ac635b"/>
                </g>
                <path id="Trazado_163465" data-name="Trazado 163465" d="M302.753,121.471c-6.585,5.66-21.819,8.178-30.413,6.939-1.318,4.274-5.908,9.238-8.57,10.136a101.765,101.765,0,0,1-4.083,17.7c-3.222-2.972-8.377-13.026-8.377-13.026C253.369,119.261,284.412,107.5,302.753,121.471Z" transform="translate(-237.752 -106.958)" fill="#263238"/>
                <path id="Trazado_163466" data-name="Trazado 163466" d="M309.322,154.613c2.682,2.045,3.817,5.791,1.6,6.448-1.224.363-1.686-1.238-2.273-2.941-1.321-3.835-3.836-4.145-3.871-4.7C304.743,152.823,306.929,152.789,309.322,154.613Z" transform="translate(-296.902 -109.533)" fill="#263238"/>
                <g id="Grupo_127538" data-name="Grupo 127538" transform="translate(33.025 33.005)">
                  <path id="Trazado_163467" data-name="Trazado 163467" d="M252.568,158.6c.146,1.645-.69,3.109-1.868,3.27s-2.252-1.042-2.4-2.687.69-3.109,1.869-3.27S252.422,156.951,252.568,158.6Z" transform="translate(-217.788 -142.733)" fill="#263238"/>
                  <path id="Trazado_163468" data-name="Trazado 163468" d="M259.772,165.251c-.9-4.089-2-8.1-3.147-12.122-.111-.39-.714-.3-.633.114.664,3.341,1.357,6.644,2.172,9.956.395,1.6,1.027,3.362.8,5.031a4.12,4.12,0,0,1-2.436,2.908.415.415,0,0,0,.039.758,2.727,2.727,0,0,0,3.052-1.613A7.779,7.779,0,0,0,259.772,165.251Z" transform="translate(-232.491 -142.526)" fill="#263238"/>
                  <path id="Trazado_163469" data-name="Trazado 163469" d="M273.139,144.275c1.037-3.076,9.633-3.393,11.288-.58C287.3,148.58,271.355,149.565,273.139,144.275Z" transform="translate(-272.999 -141.764)" fill="#263238"/>
                  <path id="Trazado_163470" data-name="Trazado 163470" d="M241.253,144.291c1.074-2.6,8.531-2.381,9.8.147C253.259,148.831,239.405,148.766,241.253,144.291Z" transform="translate(-209.789 -141.811)" fill="#263238"/>
                  <path id="Trazado_163471" data-name="Trazado 163471" d="M269.124,159.852a20.857,20.857,0,0,1,4.61-1.117c.654-.1,1.313-.138,1.969-.211a26.649,26.649,0,0,0-6.48-2.886.561.561,0,0,1,.2-1.1c3.094.551,7.461,1.691,9.656,4.1a1.288,1.288,0,0,1,.113.157.71.71,0,0,1,.116.237.859.859,0,0,1,.043.148l0,.013a.275.275,0,0,0,0,.028.741.741,0,0,1-.122.492c-.014.021-.042.023-.058.043a.763.763,0,0,1-.323.24.744.744,0,0,1-.206.052c-.01,0-.018.007-.028.007a90.71,90.71,0,0,0-9.3.7A.465.465,0,0,1,269.124,159.852Z" transform="translate(-263.656 -142.638)" fill="#263238"/>
                  <path id="Trazado_163472" data-name="Trazado 163472" d="M270.273,172.736a12.313,12.313,0,0,0,2.371,2.508,7.069,7.069,0,0,0,3.554,1.471c.416,0,.412.574.035.714a4.918,4.918,0,0,1-4.583-.715,4.455,4.455,0,0,1-1.993-3.776A.354.354,0,0,1,270.273,172.736Z" transform="translate(-261.625 -143.878)" fill="#263238"/>
                </g>
                <path id="Trazado_163473" data-name="Trazado 163473" d="M270.62,125.819a12.191,12.191,0,0,0-.012,4.487,11.861,11.861,0,0,1-.035,4.485,5.024,5.024,0,0,1-3.124,3.47,3.292,3.292,0,0,0-.957-2.409c-.564-.666-1.287-1.235-1.9-1.875a7.094,7.094,0,0,1-1.842-7.023Z" transform="translate(-216.183 -107.667)" fill="#263238"/>
                <path id="Trazado_163474" data-name="Trazado 163474" d="M240.464,120.01c1.18-1.815,3.8-2.126,5.858-1.444s3.765,2.105,5.64,3.188,4.18,1.831,6.187,1.019c-1.26,4.118-6.175,7.276-10.407,6.484-3.642-.682-6.7-3.6-10.4-3.7Z" transform="translate(-180.133 -107.147)" fill="#263238"/>
                <path id="Trazado_163584" data-name="Trazado 163584" d="M.319,414.524s-12.769,1.651-23.347.337S-59.3,394.405-59.3,394.405l1.051,1.734,9.548,13.3s-2.361,12.483-3.223,12.879l-5.5-6.616s-.42.923.9,3.316S-38.74,449.9-18.463,440.864C-18.463,440.864-3.938,429.193.319,414.524Z" transform="translate(73.21 -356.646)" fill="url(#linear-gradient)"/>
              </g>
              <path id="Trazado_163475" data-name="Trazado 163475" d="M301.247,183.931,313.7,198.892l-11.446,12.626-10.476-23.3Z" transform="translate(-170.805 -111.648)" fill="#1d272b"/>
              <path id="Trazado_163476" data-name="Trazado 163476" d="M298.292,196.58,291,213.894l-5.831,14.183-15.251-23.016,9.433-7.476-1.39,9.622,6.8,4.186,7.819-11.346Z" transform="translate(-136.454 -110.341)" fill="#1d272b"/>
              <g id="Grupo_127540" data-name="Grupo 127540" transform="translate(143.52 108.042)">
                <path id="Trazado_163477" data-name="Trazado 163477" d="M287.608,223.848a1.659,1.659,0,0,1,.41-1.065l.311-.25a1.119,1.119,0,0,1,.543-.183.739.739,0,0,1,.377-.009,1.109,1.109,0,0,1,.551.156l.323.234a1.482,1.482,0,0,1,.405.666c.056.2.116.394.177.591a2.893,2.893,0,0,1,.071.3l.031.148a1.669,1.669,0,0,1,.021.843l0,.022-.01.089q-.075.2-.15.4a1.241,1.241,0,0,1-.428.493.809.809,0,0,1-.365.222,1.222,1.222,0,0,1-.607.148l-.416-.043-.4-.149a1.239,1.239,0,0,1-.492-.428,1.223,1.223,0,0,1-.307-.56A4.033,4.033,0,0,1,287.608,223.848Z" transform="translate(-287.546 -222.32)" fill="#868695"/>
                <path id="Trazado_163478" data-name="Trazado 163478" d="M285.9,249.634a1.152,1.152,0,0,1,.11-.577,1.17,1.17,0,0,1,.312-.52,1.717,1.717,0,0,1,1.074-.477l.39.04a1.529,1.529,0,0,1,.706.382l.258.321a1.526,1.526,0,0,1,.219.753l.113,1.216a1.665,1.665,0,0,1-1.576,1.657l-.412-.042a1.615,1.615,0,0,1-.743-.4l-.271-.338a1.616,1.616,0,0,1-.231-.794Q285.871,250.244,285.9,249.634Z" transform="translate(-284.171 -224.084)" fill="#868695"/>
              </g>
              <path id="Trazado_163479" data-name="Trazado 163479" d="M280.549,220.008c2.658,24.356,4.258,48.91,4.658,73.408.113,6.9.152,13.833-.056,20.734a1.392,1.392,0,0,1-2.781,0c-.119-24.5.035-48.983-1.236-73.467q-.537-10.34-1.244-20.672C279.862,219.577,280.5,219.594,280.549,220.008Z" transform="translate(-131.323 -114.098)" fill="#868695"/>
              <g id="Grupo_127546" data-name="Grupo 127546" transform="translate(89.277 46.135)">
                <path id="Trazado_163480" data-name="Trazado 163480" d="M294.369,226.366c-15.86,26.574-56.012,79.8-56.012,79.8l.7.12c25.307,4.335,43.72-11.863,51.484-36.338l22.025-36.989Z" transform="translate(-209.18 -160.69)" fill="#ac635b"/>
                <g id="Grupo_127544" data-name="Grupo 127544" transform="translate(85.189)">
                  <path id="Trazado_163481" data-name="Trazado 163481" d="M225.594,211.394c.012-.015,2.7-3.88,4.888-7.014a6.372,6.372,0,0,1,7.294-2.387l10.119,3.46-4.038,7.374-6.981-1.2Z" transform="translate(-217.808 -158.996)" fill="#ac635b"/>
                  <rect id="Rectángulo_34991" data-name="Rectángulo 34991" width="23.164" height="7.894" rx="2.339" transform="translate(43.179 52.865) rotate(-179.795)" fill="#ac635b"/>
                  <rect id="Rectángulo_34992" data-name="Rectángulo 34992" width="4.705" height="34.277" transform="translate(24.03 70.263) rotate(-165.06)" fill="#263238"/>
                  <path id="Trazado_163482" data-name="Trazado 163482" d="M223.577,204.55A113.2,113.2,0,0,0,210.9,224.843l4.414,10.466,25.489-14.078,11.935-8.878a4.516,4.516,0,0,0,1.3-6.017h0a4.516,4.516,0,0,0-5.885-1.733l-7.835,3.643Z" transform="translate(-210.902 -159.167)" fill="#ac635b"/>
                  <path id="Trazado_163483" data-name="Trazado 163483" d="M248.192,213.254a3.962,3.962,0,0,1,2.193,3.846,3.771,3.771,0,0,1-3.795,3.545,3.7,3.7,0,0,1,1.646,3.569,4.416,4.416,0,0,1-2.748,3.114,3.283,3.283,0,0,1-.719,4.138,9.461,9.461,0,0,1-4.5,1.938,156.666,156.666,0,0,1-27.3,2.529Z" transform="translate(-208.551 -159.792)" fill="#ac635b"/>
                  <g id="Grupo_127542" data-name="Grupo 127542" transform="translate(21.19)">
                    <path id="Trazado_163484" data-name="Trazado 163484" d="M209.775,173.12c-2.573,9.519-.586,18.519,4.395,21.4,5.75.033,12-6.741,14.575-16.271s.589-18.53-4.395-21.4C218.6,156.828,212.347,163.6,209.775,173.12Z" transform="translate(-205.192 -155.927)" fill="url(#linear-gradient)"/>
                    <g id="Grupo_127541" data-name="Grupo 127541" transform="translate(5.784 6.297)">
                      <path id="Trazado_163485" data-name="Trazado 163485" d="M224.6,163.181a2.077,2.077,0,0,1,.894-.541.777.777,0,0,1,.89.389,1.132,1.132,0,0,1,0,.642,42.81,42.81,0,0,1-2.932,9.063c-.436.965-1.1,2.447-2.273,2.687a1.781,1.781,0,0,1-1.945-1.545c-.515-2.21,1.245-5.4,2.388-7.2A16.588,16.588,0,0,1,224.6,163.181Z" transform="translate(-217.311 -162.62)" fill="#fff"/>
                      <path id="Trazado_163486" data-name="Trazado 163486" d="M228.581,179.852a2.577,2.577,0,0,1-.591,2.087,2.214,2.214,0,0,1-2.607.685,2.019,2.019,0,0,1-.882-.992,2.506,2.506,0,0,1,.264-2.423A2.078,2.078,0,0,1,228.581,179.852Z" transform="translate(-224.303 -163.689)" fill="#fff"/>
                    </g>
                    <path id="Trazado_163487" data-name="Trazado 163487" d="M222.423,156.1l3.454.933c6.2,1.676,8.912,11.56,6.07,22.08s-10.166,17.693-16.365,16.017l-3.455-.933c-6.2-1.675-8.912-11.56-6.07-22.08S216.223,154.426,222.423,156.1Zm-8.517,38.348c5.75.033,12-6.741,14.575-16.271s.589-18.53-4.395-21.4c-5.753-.021-12,6.752-14.575,16.271S208.926,191.571,213.907,194.45Z" transform="translate(-204.929 -155.859)" fill="#263238"/>
                  </g>
                  <path id="Trazado_163488" data-name="Trazado 163488" d="M218.98,206.035a4.187,4.187,0,0,1,1.652.445c.628.232,1.265.429,1.906.621a32.965,32.965,0,0,0,4.092.957,38.968,38.968,0,0,0,8.222.609c.158-.008.226.232.062.28a19.682,19.682,0,0,1-8.432.809,22.981,22.981,0,0,1-4.1-.948,19.216,19.216,0,0,1-2.112-.849,3.962,3.962,0,0,1-1.682-1.085A.538.538,0,0,1,218.98,206.035Z" transform="translate(-198.31 -159.297)" fill="#263238"/>
                  <g id="Grupo_127543" data-name="Grupo 127543" transform="translate(27.722 55.006)">
                    <path id="Trazado_163489" data-name="Trazado 163489" d="M216.676,216.424a13.131,13.131,0,0,1,2.51-.111,18.936,18.936,0,0,0,2.686-.227c.854-.134,1.7-.323,2.547-.473a13.387,13.387,0,0,0,2.573-.685c.286-.111.471.358.2.5-.81.42-1.617.852-2.457,1.212a11.3,11.3,0,0,1-2.721.728,20.928,20.928,0,0,1-2.74.246,6.194,6.194,0,0,1-2.708-.376A.446.446,0,0,1,216.676,216.424Z" transform="translate(-216.35 -214.911)" fill="#824645"/>
                    <path id="Trazado_163490" data-name="Trazado 163490" d="M219.322,222.492a3.5,3.5,0,0,1,1.045-.366c.326-.037.651-.072.976-.121.7-.1,1.4-.169,2.1-.332a.277.277,0,0,1,.14.537,19.45,19.45,0,0,1-2.06.63c-.344.073-.69.142-1.038.193a2.782,2.782,0,0,1-1.108-.129A.226.226,0,0,1,219.322,222.492Z" transform="translate(-215.466 -215.374)" fill="#824645"/>
                    <path id="Trazado_163491" data-name="Trazado 163491" d="M219.237,228.462c.145-.063.281-.141.423-.21a1.917,1.917,0,0,1,.608-.139c.353-.045.718-.036,1.073-.05a.363.363,0,0,1,.091.714c-.35.065-.7.146-1.055.192a1.766,1.766,0,0,1-.605.008c-.162-.036-.319-.084-.482-.116A.22.22,0,0,1,219.237,228.462Z" transform="translate(-213.313 -215.812)" fill="#824645"/>
                  </g>
                </g>
                <g id="Grupo_127545" data-name="Grupo 127545" transform="translate(0.404 34.693)">
                  <path id="Trazado_163492" data-name="Trazado 163492" d="M316.511,303.887c-28.319-26.255-32.846-87.1-25.894-103.3,5.088-11.849,17.577-10.752,26.021,11.411s12.066,38.3,28.087,69.463Z" transform="translate(-287.737 -193.104)" fill="#ebebeb"/>
                  <path id="Trazado_163493" data-name="Trazado 163493" d="M238.392,306.711c29.964,31.845,53.971-3.775,74.178-50L289.8,234.325l-34.54,40.212Z" transform="translate(-209.619 -195.928)" fill="#ebebeb"/>
                  <path id="Trazado_163494" data-name="Trazado 163494" d="M253.068,261.388c1.632,2.733-2.546,8.956-5.17,8.188C243.569,268.307,250.431,256.97,253.068,261.388Z" transform="translate(-158.036 -197.713)" fill="#dbdbdb"/>
                </g>
                <path id="Trazado_163495" data-name="Trazado 163495" d="M238.6,220.893c.506,8.481,1.39,16.959,2.651,25.36a139.162,139.162,0,0,0,5.772,24.484c4.6,13.431,12.273,26.092,23.207,35.3a57.228,57.228,0,0,0,9.4,6.448,51.558,51.558,0,0,0,5.058,2.428c1.774.732,5.69,2.317,5.69,2.317a63.821,63.821,0,0,0,12.033-6.307,65.535,65.535,0,0,0,10.915-9.6c7.247-7.861,12.761-17.172,17.739-26.583,2.918-5.517,5.644-11.171,8.26-16.838a.246.246,0,0,1,.156-.132,1.335,1.335,0,0,1-.234-.157c-7.63-7.693-15.26-15.407-22.13-23.793a.389.389,0,0,1,.55-.55c8.328,6.939,15.977,14.631,23.6,22.323a1.442,1.442,0,0,1-1.377,2.383.229.229,0,0,1,.01.164c-4.2,10.638-8.152,21.393-14.036,31.256a77.8,77.8,0,0,1-20.629,23.152c-2.6,1.895-11.669,7.943-15.468,7.5-2.909-.338-7.509-2.435-10.425-3.918a57.974,57.974,0,0,1-8.877-5.621,71.25,71.25,0,0,1-14.785-15.519c-9.334-13.154-13.927-29.115-16.124-44.926a279.347,279.347,0,0,1-1.994-29.171C237.548,220.226,238.559,220.237,238.6,220.893Z" transform="translate(-237.57 -160.281)" fill="#dbdbdb"/>
                <path id="Trazado_163496" data-name="Trazado 163496" d="M277.765,256.463q-2.209-5.906-4.181-11.893c-2.586-7.853-4.812-15.836-6.8-23.861-1.14-4.606-2.091-9.24-3.077-13.88a.4.4,0,0,1,.788-.157c4.284,16.036,9.729,31.806,15.52,47.351q1.189,3.194,2.432,6.369c.717,1.83,1.642,3.717,2.2,5.635,4.539-5.428,9.075-10.858,13.691-16.221q3.645-4.234,7.3-8.463c2.5-2.888,5.15-5.622,7.661-8.49.442-.5,1.321.247.9.776-2.33,2.936-4.5,5.989-6.849,8.913s-4.7,5.854-7.068,8.773c-4.709,5.814-9.49,11.569-14.27,17.324a1.452,1.452,0,0,1-.816,1.233l-.021.012c-1.306,2.6-2.617,5.19-3.911,7.793a60.865,60.865,0,0,0-3.7,8.4.363.363,0,0,1-.689-.225c.772-3.061,1.328-6.174,2.252-9.2.416-1.359.907-2.706,1.448-4.034a54.709,54.709,0,0,0-6.528,5.028,45.037,45.037,0,0,0-8.872,10.48c-.286.491-.984.014-.73-.474a53.092,53.092,0,0,1,7.975-11.84,44.426,44.426,0,0,1,9.954-7.957,33.1,33.1,0,0,1-2.391-5.59Q278.853,259.375,277.765,256.463Z" transform="translate(-234.53 -159.32)" fill="#dbdbdb"/>
              </g>
              <path id="Trazado_163497" data-name="Trazado 163497" d="M180.258,294.888a42.324,42.324,0,0,1,2.481-6.6,65.839,65.839,0,0,1,3.173-6.312,56.414,56.414,0,0,1,3.759-5.783c1.433-1.915,3.088-3.6,4.7-5.355.524-.572,1.309.259.838.84a62.89,62.89,0,0,0-3.858,5.677c-1.212,1.883-2.357,3.8-3.4,5.78a62.943,62.943,0,0,0-2.76,5.956c-.853,2.14-1.443,4.353-2.214,6.516A1.4,1.4,0,0,1,180.258,294.888Z" transform="translate(51.481 -117.589)" fill="#dbdbdb"/>
              <path id="Trazado_163498" data-name="Trazado 163498" d="M179.812,283.4c.342-1.329.684-2.644,1.119-3.947q.313-.937.654-1.868a3.117,3.117,0,0,1,1.216-1.917,1.072,1.072,0,0,1,1.55.656,2.991,2.991,0,0,1-.445,2.057q-.435.966-.836,1.945c-.5,1.224-1.012,2.451-1.449,3.7a61.285,61.285,0,0,0-2.344,7.879c-.13.635-1.047.363-.956-.252A79.845,79.845,0,0,1,179.812,283.4Z" transform="translate(64.187 -117.924)" fill="#dbdbdb"/>
              <path id="Trazado_163499" data-name="Trazado 163499" d="M135.647,242.606c3.627,2.9,6.831,6.284,10.3,9.374,1.711,1.525,3.368,3.087,4.977,4.718,1.689,1.712,5.226,4.746,6.53,6.779.955,1.489-1.021,3.55-2.521,2.513a59.234,59.234,0,0,1-7.015-6.294c-1.624-1.714-3.169-3.477-4.68-5.292-2.99-3.59-6.269-6.928-9.064-10.676C133.486,242.813,134.9,242.008,135.647,242.606Z" transform="translate(132.184 -115.654)" fill="#dbdbdb"/>
              <path id="Trazado_163500" data-name="Trazado 163500" d="M148.657,268.28c1.631,2.733-2.547,8.956-5.17,8.188C139.158,275.2,146.02,263.862,148.657,268.28Z" transform="translate(133.313 -117.357)" fill="#dbdbdb"/>
              <path id="Trazado_163501" data-name="Trazado 163501" d="M200.7,666.785l5.155-23.862c6.774.443,8.517,10.1,16.2,10.554s13.589-10.508,18.437-10.506c7.028,11.64,39.625,16.059,43.069,25.731C272.08,674.841,207.237,672.886,200.7,666.785Z" transform="translate(-55.82 -143.095)" fill="#263238"/>
            </g>
            <path id="Trazado_163502" data-name="Trazado 163502" d="M233.32,358.261c2.464-.1,4.893-.062,7.341-.345,2.362-.284,4.709-.7,7.037-1.205,1.806-.4,3.579-.855,5.351-1.376-.285-1.553-.553-3.089-.837-4.625-1.841.706-3.7,1.345-5.571,1.933-2.279.705-4.591,1.293-6.921,1.846-2.228.521-4.406,1.159-6.684,1.51C231.737,356.2,232.054,358.292,233.32,358.261Z" transform="translate(-54.653 -123.075)" fill="#dbdbdb"/>
            <g id="Grupo_127548" data-name="Grupo 127548" transform="translate(139.471 38.258)">
              <path id="Trazado_163503" data-name="Trazado 163503" d="M237.608,160.918c-1.043,5.859,1.755,11.257,6.251,12.057s8.984-3.3,10.028-9.159-1.755-11.257-6.25-12.057S238.651,155.059,237.608,160.918Z" transform="translate(-200.009 -147.695)" fill="none" stroke="#ebebeb" stroke-miterlimit="10" stroke-width="1"/>
              <ellipse id="Elipse_4372" data-name="Elipse 4372" cx="8.267" cy="10.775" rx="8.267" ry="10.775" transform="matrix(-0.985, -0.175, 0.175, -0.985, 26.345, 24.115)" fill="none" stroke="#ebebeb" stroke-miterlimit="10" stroke-width="1"/>
              <path id="Trazado_163504" data-name="Trazado 163504" d="M264.191,158.674a16.44,16.44,0,0,0-9.913.529" transform="translate(-225.827 -148.138)" fill="none" stroke="#ebebeb" stroke-miterlimit="10" stroke-width="1"/>
              <line id="Línea_2008" data-name="Línea 2008" x1="11.954" y1="5.325" transform="translate(0 5.284)" fill="none" stroke="#ebebeb" stroke-miterlimit="10" stroke-width="1"/>
            </g>
          </g>
        </g>
      </g>
      <g id="Grupo_127555" data-name="Grupo 127555" transform="translate(136.596 216.172)">
        <path id="Trazado_163505" data-name="Trazado 163505" d="M362.062,409.054l-.012,8.469-.011,8.469,22.43.032.008-5.543c0-1.616,1.632-2.924,3.639-2.922l22.38.032c2.008,0,3.634,1.314,3.632,2.931l-.008,5.544,22.43.031.012-8.47.011-8.469Z" transform="translate(-354.808 -300.928)" fill="#38474f"/>
        <path id="Trazado_163506" data-name="Trazado 163506" d="M433.773,412.735a35.145,35.145,0,0,0-6.763-.235l-7.113-.062c-4.67-.038-9.34-.034-14.01-.036l-27.806-.006c-2.587,0-5.173.017-7.76.03a23.727,23.727,0,0,0-7.681.808.519.519,0,0,0,0,1,20.985,20.985,0,0,0,6.6.821c2.37.046,4.743.044,7.113.055,4.671.021,9.341.024,14.011.035,9.267.023,18.538.1,27.806.051q3.879-.021,7.759-.046l3.881-.024a20.027,20.027,0,0,0,3.961-.2A1.134,1.134,0,0,0,433.773,412.735Z" transform="translate(-353.054 -301.157)" fill="#263238"/>
        <path id="Trazado_163507" data-name="Trazado 163507" d="M385.088,379.188l.01-7.541a19.919,19.919,0,0,1,.44-4.137l4.52-21.173A6.748,6.748,0,0,1,396.666,341l8.286.011.015-11.073-11.405-.016-8-.011a8.3,8.3,0,0,0-7.657,5.075l-12.937,30.706a20.665,20.665,0,0,0-1.622,8l-.024,17.874-.012,8.247,21.751.03,50.372.07.007-4.737a3.511,3.511,0,0,0-3.506-3.516l-34.458-.047A12.405,12.405,0,0,1,385.088,379.188Z" transform="translate(-354.855 -295.505)" fill="#dbdbdb"/>
        <rect id="Rectángulo_34994" data-name="Rectángulo 34994" width="89.011" height="8.47" rx="4.232" transform="matrix(1, 0.001, -0.001, 1, 0.012, 103.198)" fill="#38474f"/>
        <g id="Grupo_127554" data-name="Grupo 127554" transform="translate(33.299 0)">
          <rect id="Rectángulo_34995" data-name="Rectángulo 34995" width="8.516" height="14.502" transform="translate(16.767 0) rotate(0.079)" fill="#868695"/>
          <rect id="Rectángulo_34996" data-name="Rectángulo 34996" width="12.21" height="68.311" transform="matrix(1, 0.001, -0.001, 1, 14.913, 4.877)" fill="#263238"/>
          <rect id="Rectángulo_34997" data-name="Rectángulo 34997" width="22.584" height="54.45" transform="matrix(1, 0.001, -0.001, 1, 9.713, 14.492)" fill="#ebebeb"/>
          <g id="Grupo_127552" data-name="Grupo 127552" transform="translate(25.2 19.288)">
            <rect id="Rectángulo_34998" data-name="Rectángulo 34998" width="4.653" height="5.66" transform="translate(0.008 35.471) rotate(0.079)" fill="#fff"/>
            <rect id="Rectángulo_34999" data-name="Rectángulo 34999" width="4.653" height="32.727" transform="translate(0.057 0) rotate(0.079)" fill="#fff"/>
          </g>
          <rect id="Rectángulo_35000" data-name="Rectángulo 35000" width="6.506" height="11.169" transform="matrix(1, 0.001, -0.001, 1, 17.655, 84.947)" fill="#263238"/>
          <g id="Grupo_127553" data-name="Grupo 127553" transform="translate(0 23.401)">
            <path id="Trazado_163508" data-name="Trazado 163508" d="M412.642,327.822a9.712,9.712,0,1,1-9.7-9.725A9.711,9.711,0,0,1,412.642,327.822Z" transform="translate(-393.219 -318.097)" fill="#868695"/>
            <path id="Trazado_163509" data-name="Trazado 163509" d="M409.188,328.09a5.983,5.983,0,1,1-5.975-5.991A5.983,5.983,0,0,1,409.188,328.09Z" transform="translate(-393.493 -318.371)" fill="#868695" stroke="#263238" stroke-miterlimit="10" stroke-width="1"/>
          </g>
          <rect id="Rectángulo_35001" data-name="Rectángulo 35001" width="34.584" height="5.089" rx="2.543" transform="translate(3.618 83.57) rotate(0.079)" fill="#38474f"/>
        </g>
      </g>
      <g id="Grupo_127559" data-name="Grupo 127559" transform="translate(232.202 218.099)">
        <g id="Grupo_127557" data-name="Grupo 127557">
          <path id="Trazado_163510" data-name="Trazado 163510" d="M349.1,170.453c4.1-2.281,8.733-2.469,13.235-3.326,4.688-.892,10.471-3.273,10.936-8.772a.462.462,0,0,1,.923.039c.328,4.438-3.242,8.2-7.069,9.88-4.426,1.943-9.346,2.026-13.891,3.557a12.75,12.75,0,0,0-5.278,3.191,8.748,8.748,0,0,0-2.146,6.241c.063,4.981,2.814,9.43,4.147,14.114,1.366,4.8,1.24,11.134-3.58,13.953-1.059.619-1.987-.86-1.207-1.686,3.137-3.317,2.973-8.165,1.711-12.24-1.427-4.61-3.8-8.865-4.027-13.783A11.807,11.807,0,0,1,349.1,170.453Z" transform="translate(-325.964 -150.451)" fill="#1d272b"/>
          <path id="Trazado_163511" data-name="Trazado 163511" d="M344.1,148.4a5.581,5.581,0,0,1,1.982.808l1.786.89,3.87,1.929c2.585,1.289,5.148,2.611,7.687,3.988.591.321.252,1.289-.4,1-2.679-1.2-5.325-2.458-7.959-3.75l-3.88-1.9-1.939-.952a4.941,4.941,0,0,1-1.693-1.034A.609.609,0,0,1,344.1,148.4Z" transform="translate(-311.824 -146.465)" fill="#dbdbdb"/>
          <path id="Trazado_163512" data-name="Trazado 163512" d="M346.726,155.359a3.2,3.2,0,0,1,1.727.618c.54.289,1.081.573,1.622.859q1.827.967,3.668,1.9c2.416,1.224,4.869,2.38,7.242,3.686a.555.555,0,0,1-.408,1.032,72.176,72.176,0,0,1-7.543-3.34q-1.782-.881-3.547-1.8c-.633-.33-1.262-.669-1.89-1.008a2.954,2.954,0,0,1-1.367-1.072A.639.639,0,0,1,346.726,155.359Z" transform="translate(-315 -149.375)" fill="#dbdbdb"/>
          <path id="Trazado_163513" data-name="Trazado 163513" d="M355.469,164.983a.794.794,0,0,1,.79-.12c2.72,1.444,5.461,2.846,8.178,4.294.6.321.271,1.267-.4,1.01-1.436-.55-2.85-1.119-4.245-1.768s-2.757-1.348-4.118-2.06a.794.794,0,0,1-.494-.627A.749.749,0,0,1,355.469,164.983Z" transform="translate(-323.689 -153.324)" fill="#dbdbdb"/>
          <path id="Trazado_163514" data-name="Trazado 163514" d="M359.41,177.566a10.193,10.193,0,0,1,2.848,1.557c.9.542,1.787,1.091,2.669,1.655,1.833,1.171,3.632,2.4,5.406,3.655.573.406-.066,1.27-.642.876q-2.65-1.81-5.406-3.451c-.9-.539-1.808-1.068-2.725-1.579a11.646,11.646,0,0,1-2.764-1.6A.69.69,0,0,1,359.41,177.566Z" transform="translate(-331.506 -158.658)" fill="#dbdbdb"/>
          <path id="Trazado_163515" data-name="Trazado 163515" d="M358.9,182.646a6.677,6.677,0,0,1,1.952,1.03c.729.438,1.471.854,2.2,1.287q2.118,1.252,4.209,2.55,4.263,2.644,8.364,5.522c.646.453-.066,1.4-.719.98q-4.142-2.666-8.353-5.231-2.027-1.231-4.08-2.42c-.736-.427-1.471-.861-2.217-1.269a7.781,7.781,0,0,1-2.043-1.219A.766.766,0,0,1,358.9,182.646Z" transform="translate(-336.492 -160.781)" fill="#dbdbdb"/>
          <path id="Trazado_163516" data-name="Trazado 163516" d="M364.412,188.845a29.231,29.231,0,0,1,4.208,2.732c1.41.972,2.837,1.923,4.227,2.924,2.783,2,5.594,3.956,8.4,5.924.623.437-.061,1.338-.691.943-2.857-1.8-5.693-3.622-8.581-5.366-1.416-.855-2.8-1.774-4.19-2.665a30.391,30.391,0,0,1-4.269-2.868C362.8,189.807,363.365,188.368,364.412,188.845Z" transform="translate(-345.091 -163.34)" fill="#dbdbdb"/>
          <path id="Trazado_163517" data-name="Trazado 163517" d="M374.128,201.762a.884.884,0,0,1,1.039-.023,25.927,25.927,0,0,1,2.4,1.757q1.2.876,2.433,1.706c1.64,1.1,3.322,2.152,5.027,3.15.6.353.034,1.39-.594,1.075q-2.74-1.372-5.353-2.972-1.269-.778-2.508-1.6a17.134,17.134,0,0,1-2.573-1.89.832.832,0,0,1-.129-.849A.849.849,0,0,1,374.128,201.762Z" transform="translate(-355.058 -168.705)" fill="#dbdbdb"/>
          <path id="Trazado_163518" data-name="Trazado 163518" d="M386.236,215.363a4.77,4.77,0,0,1,1.348.841l1.13.81,2.447,1.755q2.448,1.755,4.869,3.545a.772.772,0,0,1-.912,1.244q-2.481-1.709-4.94-3.448l-2.457-1.741-1.134-.8a4.7,4.7,0,0,1-1.231-1A.775.775,0,0,1,386.236,215.363Z" transform="translate(-372.743 -174.454)" fill="#dbdbdb"/>
          <path id="Trazado_163519" data-name="Trazado 163519" d="M387.179,218.615a10.206,10.206,0,0,1,2.065,1.206q1.1.69,2.181,1.4c1.4.906,2.8,1.8,4.183,2.725,2.811,1.872,5.709,3.672,8.381,5.741.733.568-.063,1.563-.83,1.131-2.948-1.662-5.737-3.635-8.558-5.5-1.387-.917-2.757-1.861-4.133-2.794q-1.07-.726-2.131-1.464a10.087,10.087,0,0,1-1.9-1.441C385.994,219.108,386.6,218.422,387.179,218.615Z" transform="translate(-381.314 -175.815)" fill="#dbdbdb"/>
          <g id="Grupo_127556" data-name="Grupo 127556" transform="translate(0)">
            <path id="Trazado_163520" data-name="Trazado 163520" d="M366.29,184.285c5.57-1.1,11.208.579,16.8.083,4.369-.387,9.6-2.44,10.425-7.311.883-5.193-2.5-9.934-4.733-14.318a20.638,20.638,0,0,1-2.507-8.578,17.083,17.083,0,0,1,2.144-8.744c.35-.662,1.428-.277,1.108.438a15.974,15.974,0,0,0-1.168,8.17A20.262,20.262,0,0,0,391,161.44c2.507,4.606,5.665,9.046,5.546,14.532-.114,5.229-4,9.025-8.791,10.492-5.353,1.639-10.8.554-16.267.415a17.729,17.729,0,0,0-8.147,1.453,11.168,11.168,0,0,0-5.217,5.393,1.156,1.156,0,0,1-2.213-.561C356.11,188.095,361.958,185.14,366.29,184.285Z" transform="translate(-355.91 -145.076)" fill="#008f85"/>
          </g>
        </g>
      </g>
      <g id="Grupo_127563" data-name="Grupo 127563" transform="translate(42.529 50.399)">
        <g id="Grupo_127561" data-name="Grupo 127561" transform="translate(211.66 14.135) rotate(30)">
          <path id="Trazado_163528" data-name="Trazado 163528" d="M38.478,39.477c.794,3.952-.265,7.794-.742,11.7-.5,4.071-.064,9.428,4.316,11.248a.4.4,0,0,1-.273.745c-3.719-.895-5.864-4.8-6.236-8.373-.432-4.131.789-8.18.725-12.3a10.954,10.954,0,0,0-1.23-5.155,7.517,7.517,0,0,0-4.546-3.392c-4.094-1.252-8.455-.165-12.638-.3-4.287-.139-9.438-1.9-10.483-6.584-.23-1.028,1.223-1.4,1.7-.546,1.894,3.436,5.905,4.57,9.57,4.6,4.147.039,8.25-.789,12.336.313A10.144,10.144,0,0,1,38.478,39.477Z" transform="translate(0 -36.331)" fill="#d93328"/>
          <path id="Trazado_163529" data-name="Trazado 163529" d="M11.227.4a4.8,4.8,0,0,1-1.18,1.411L8.85,3.036,6.259,5.7C4.527,7.477,2.774,9.228.981,10.945c-.418.4-1.121-.131-.715-.585C1.95,8.483,3.672,6.646,5.42,4.828L7.994,2.151,9.281.813A4.252,4.252,0,0,1,10.571-.3.523.523,0,0,1,11.227.4Z" transform="translate(39.646 14.965)" fill="#d93328"/>
          <path id="Trazado_163530" data-name="Trazado 163530" d="M10.526.287a2.741,2.741,0,0,1-.958,1.252c-.377.366-.752.735-1.128,1.1q-1.27,1.243-2.519,2.5C4.288,6.8,2.7,8.507,1.008,10.107c-.433.411-1.122-.1-.738-.6A62.019,62.019,0,0,1,4.979,4.2q1.187-1.229,2.4-2.433C7.814,1.339,8.256.913,8.7.488A2.541,2.541,0,0,1,9.934-.351.548.548,0,0,1,10.526.287Z" transform="translate(37.175 13.564)" fill="#d93328"/>
          <path id="Trazado_163531" data-name="Trazado 163531" d="M6.754,0a.682.682,0,0,1-.109.677C4.751,2.526,2.886,4.4.989,6.248c-.42.409-1.108-.11-.722-.591.826-1.032,1.662-2.04,2.558-3.012S4.65.74,5.589-.187a.686.686,0,0,1,.644-.24C6.477-.352,6.675-.267,6.754,0Z" transform="translate(36.29 12.409)" fill="#d93328"/>
          <path id="Trazado_163532" data-name="Trazado 163532" d="M9.388.458A8.745,8.745,0,0,1,7.368,2.381c-.678.591-1.361,1.177-2.053,1.751C3.876,5.326,2.4,6.478.908,7.6c-.482.363-1.022-.387-.549-.755Q2.533,5.151,4.6,3.325q1.015-.9,2.006-1.817A9.977,9.977,0,0,1,8.642-.334.592.592,0,0,1,9.388.458Z" transform="translate(28.736 6.879)" fill="#d93328"/>
          <path id="Trazado_163533" data-name="Trazado 163533" d="M13.9.508a5.744,5.744,0,0,1-1.355,1.328c-.55.483-1.085.981-1.63,1.467Q9.331,4.708,7.722,6.08q-3.28,2.8-6.71,5.4c-.54.41-1.128-.42-.613-.845Q3.664,7.943,6.867,5.169,8.4,3.831,9.915,2.463C10.458,1.972,11,1.485,11.534.98A6.7,6.7,0,0,1,13.067-.373.659.659,0,0,1,13.9.508Z" transform="translate(23.247 1.56)" fill="#d93328"/>
          <path id="Trazado_163534" data-name="Trazado 163534" d="M14.858.757a25.129,25.129,0,0,1-3.338,2.728c-1.165.9-2.318,1.819-3.5,2.7C5.655,7.934,3.317,9.722.972,11.5c-.521.4-1.08-.4-.59-.813C2.6,8.823,4.837,6.981,7.021,5.073,8.092,4.138,9.2,3.249,10.3,2.342A26.066,26.066,0,0,1,13.765-.4C14.495-.816,15.523.025,14.858.757Z" transform="translate(20.113 -2.172)" fill="#d93328"/>
          <path id="Trazado_163535" data-name="Trazado 163535" d="M9.291.011a.761.761,0,0,1-.253.857,22.493,22.493,0,0,1-2.066,1.5Q5.94,3.125,4.939,3.917c-1.333,1.054-2.631,2.156-3.9,3.29C.6,7.607-.1,6.871.319,6.439q1.841-1.884,3.834-3.6Q5.122,2,6.123,1.2A14.664,14.664,0,0,1,8.343-.409a.715.715,0,0,1,.728.116A.722.722,0,0,1,9.291.011Z" transform="translate(19.566 -3.608)" fill="#d93328"/>
          <path id="Trazado_163536" data-name="Trazado 163536" d="M9.542.654A4.091,4.091,0,0,1,8.5,1.537l-.959.713L5.464,3.793Q3.387,5.337,1.288,6.851A.663.663,0,0,1,.509,5.778q2.049-1.583,4.116-3.14L6.694,1.082,7.648.364A4.031,4.031,0,0,1,8.793-.38.666.666,0,0,1,9.542.654Z" transform="translate(14.347 -10.872)" fill="#d93328"/>
          <path id="Trazado_163537" data-name="Trazado 163537" d="M14.619.559a8.808,8.808,0,0,1-1.527,1.374q-.852.716-1.714,1.419c-1.107.9-2.208,1.819-3.325,2.71-2.269,1.81-4.5,3.712-6.894,5.356C.5,11.871-.1,10.959.45,10.444,2.582,8.466,4.927,6.7,7.192,4.878c1.113-.9,2.244-1.769,3.368-2.651q.874-.686,1.757-1.361A8.635,8.635,0,0,1,13.993-.307C14.526-.54,14.927.14,14.619.559Z" transform="translate(9.72 -17.515)" fill="#d93328"/>
          <g id="Grupo_127560" data-name="Grupo 127560" transform="translate(5.218)">
            <path id="Trazado_163538" data-name="Trazado 163538" d="M20.879-12.322C20.321-7.475,17.47-3.3,16.411,1.408,15.585,5.085,15.9,9.9,19.666,11.854c4.019,2.083,8.786.553,12.958-.125a17.729,17.729,0,0,1,7.678.195,14.676,14.676,0,0,1,6.6,4.044c.45.461-.147,1.242-.648.793a13.722,13.722,0,0,0-6.381-3.1,17.4,17.4,0,0,0-6.762.221c-4.426.845-8.887,2.268-13.346.733-4.25-1.462-6.339-5.638-6.286-9.942.06-4.811,2.374-8.984,3.919-13.424a15.223,15.223,0,0,0,.944-7.049,9.594,9.594,0,0,0-3.048-5.682.993.993,0,0,1,1.039-1.664C20.426-21.651,21.313-16.091,20.879-12.322Z" fill="#d93328"/>
          </g>
        </g>
        <g id="Grupo_127562" data-name="Grupo 127562" transform="translate(0 109.271)">
          <path id="Trazado_163539" data-name="Trazado 163539" d="M361.045,103.088a14.871,14.871,0,0,1-4.14-2.924c-1.354-1.133-2.7-2.278-4.015-3.456-2.6-2.328-5.189-4.667-7.827-6.954a.462.462,0,0,1,.588-.712c2.743,2.161,5.526,4.262,8.3,6.382,1.369,1.045,2.715,2.122,4.048,3.213a15.253,15.253,0,0,1,3.75,3.6A.578.578,0,0,1,361.045,103.088Z" transform="translate(-340.561 -81.767)" fill="#1d272b"/>
          <path id="Trazado_163540" data-name="Trazado 163540" d="M347.416,84.533a14.854,14.854,0,0,1-2.5,4.409c-.993,1.46-2,2.911-3.04,4.337-2.059,2.821-4.13,5.626-6.145,8.478a.462.462,0,0,1-.766-.515c1.878-2.943,3.694-5.921,5.527-8.892.9-1.467,1.843-2.912,2.8-4.346a15.271,15.271,0,0,1,3.21-4.088A.577.577,0,0,1,347.416,84.533Z" transform="translate(-317.218 -81.214)" fill="#1d272b"/>
          <path id="Trazado_163541" data-name="Trazado 163541" d="M353.182,121.169a5.261,5.261,0,1,1-.7-8.4c.119-.111.233-.224.353-.333,1.248-1.127,2.53-2.207,3.82-3.284,2.544-2.125,5.025-4.326,7.573-6.447a.58.58,0,0,1,.768.869c-2.418,2.267-4.907,4.458-7.33,6.722-1.2,1.118-2.4,2.226-3.63,3.3-.1.087-.206.17-.309.257A5.258,5.258,0,0,1,353.182,121.169Z" transform="translate(-343.492 -83.229)" fill="#1d272b"/>
          <path id="Trazado_163542" data-name="Trazado 163542" d="M344.121,115.365a.85.85,0,0,1-1.043,1.342,90.6,90.6,0,0,1-7.384-5.647c-2.417-1.939-4.767-3.963-7.175-5.914a.654.654,0,0,1,.8-1.033c2.486,1.852,5.028,3.628,7.5,5.492A90.536,90.536,0,0,1,344.121,115.365Z" transform="translate(-308.305 -83.381)" fill="#1d272b"/>
          <path id="Trazado_163543" data-name="Trazado 163543" d="M349.334,106.894a5.54,5.54,0,1,0-7.82-.483A5.54,5.54,0,0,0,349.334,106.894Z" transform="translate(-325.662 -82.654)" fill="#1d272b"/>
          <path id="Trazado_163544" data-name="Trazado 163544" d="M333.742,117.529a4.682,4.682,0,1,0-4.936,4.412A4.682,4.682,0,0,0,333.742,117.529Z" transform="translate(-294.156 -84.305)" fill="#db8804"/>
          <path id="Trazado_163545" data-name="Trazado 163545" d="M365.564,92.759a5.492,5.492,0,1,0-7.752-.478A5.493,5.493,0,0,0,365.564,92.759Z" transform="translate(-356.435 -81.146)" fill="#d93328"/>
          <path id="Trazado_163546" data-name="Trazado 163546" d="M340.906,85.5a4.145,4.145,0,1,0-4.57,3.672A4.146,4.146,0,0,0,340.906,85.5Z" transform="translate(-308.705 -80.905)" fill="#008f85"/>
        </g>
      </g>
      <g id="Grupo_127573" data-name="Grupo 127573" transform="translate(190.513 3.873)">
        <path id="Trazado_163566" data-name="Trazado 163566" d="M165.7,85.242a31.439,31.439,0,1,1,6.3,49.479l-15.972,4.4,4.528-15.937A31.449,31.449,0,0,1,165.7,85.242Z" transform="translate(-156.02 -76.125)" fill="#fff" stroke="#dbdbdb" stroke-miterlimit="10" stroke-width="1"/>
        <g id="Grupo_127572" data-name="Grupo 127572" transform="translate(8.997 9.981)">
          <path id="Trazado_163567" data-name="Trazado 163567" d="M174.093,88.067A16.043,16.043,0,0,1,178.5,86.84a4.1,4.1,0,0,0,7.92.961,16.035,16.035,0,0,1,3.991,2.245,4.105,4.105,0,0,0,4.929,6.29,16,16,0,0,1,1.226,4.412,4.1,4.1,0,0,0-.96,7.92,16.009,16.009,0,0,1-2.246,3.991,4.105,4.105,0,0,0-6.29,4.929,16.07,16.07,0,0,1-4.412,1.226,4.1,4.1,0,0,0-7.919-.96,16.052,16.052,0,0,1-3.991-2.246,4.105,4.105,0,0,0-4.929-6.29,16,16,0,0,1-1.226-4.412,4.1,4.1,0,0,0,.96-7.92A16.03,16.03,0,0,1,167.8,93a4.106,4.106,0,0,0,6.291-4.929Zm2.318,18.032a5.3,5.3,0,1,0,.9-7.444A5.3,5.3,0,0,0,176.412,106.1Z" transform="translate(-150.305 -86.84)" fill="#1d272b"/>
          <path id="Trazado_163568" data-name="Trazado 163568" d="M191.011,121.8a10.776,10.776,0,0,1,.081-3.084,2.761,2.761,0,0,0,2.182-4.914,10.809,10.809,0,0,1,2.235-2.128,2.766,2.766,0,0,0,5.025-1.935,10.813,10.813,0,0,1,3.085.081A2.76,2.76,0,0,0,208.532,112a10.786,10.786,0,0,1,2.128,2.235,2.766,2.766,0,0,0,1.935,5.025,10.813,10.813,0,0,1-.08,3.085,2.761,2.761,0,0,0-2.182,4.913,10.758,10.758,0,0,1-2.234,2.128,2.767,2.767,0,0,0-5.026,1.935,10.773,10.773,0,0,1-3.084-.08,2.761,2.761,0,0,0-4.914-2.182,10.8,10.8,0,0,1-2.128-2.234,2.767,2.767,0,0,0-1.935-5.026Zm12.076,2.065a3.572,3.572,0,1,0-4.617-2.05A3.573,3.573,0,0,0,203.087,123.868Z" transform="translate(-190.937 -88.404)" fill="#868695"/>
        </g>
      </g>
      <g id="Grupo_127574" data-name="Grupo 127574" transform="translate(12.032 0)">
        <path id="Trazado_163569" data-name="Trazado 163569" d="M74.4,181.322c3.573,0,3.575,5.545,0,5.545S70.829,181.322,74.4,181.322Z" transform="translate(239.84 -79.459)" fill="#1d272b"/>
        <path id="Trazado_163570" data-name="Trazado 163570" d="M252.189,71.967c3.573,0,3.574,5.545,0,5.545S248.614,71.967,252.189,71.967Z" transform="translate(-97.783 -71.967)" fill="#1d272b"/>
        <path id="Trazado_163571" data-name="Trazado 163571" d="M414.828,146.422c3.573,0,3.574,5.545,0,5.545S411.253,146.422,414.828,146.422Z" transform="translate(-406.444 -77.068)" fill="#1d272b"/>
        <path id="Trazado_163572" data-name="Trazado 163572" d="M420.951,295.817c3.573,0,3.574,5.545,0,5.545S417.376,295.817,420.951,295.817Z" transform="translate(-418.271 -87.304)" fill="#1d272b"/>
        <path id="Trazado_163573" data-name="Trazado 163573" d="M99.507,339.9c3.573,0,3.575,5.545,0,5.545S95.932,339.9,99.507,339.9Z" transform="translate(191.354 -90.324)" fill="#1d272b"/>
        <path id="Trazado_163574" data-name="Trazado 163574" d="M307.68,102.951c3.573,0,3.574,5.545,0,5.545S304.105,102.951,307.68,102.951Z" transform="translate(-203.163 -74.09)" fill="#1d272b"/>
        <path id="Trazado_163575" data-name="Trazado 163575" d="M185.837,224.793c3.573,0,3.575,5.546,0,5.546S182.263,224.793,185.837,224.793Z" transform="translate(28.222 -82.438)" fill="#1d272b"/>
        <path id="Trazado_163576" data-name="Trazado 163576" d="M185.225,151.321c3.574,0,3.575,5.545,0,5.545S181.651,151.321,185.225,151.321Z" transform="translate(29.384 -77.404)" fill="#1d272b"/>
        <path id="Trazado_163577" data-name="Trazado 163577" d="M140.4,324.895c3.573,0,3.575,5.545,0,5.545S136.824,324.895,140.4,324.895Z" transform="translate(114.512 -89.296)" fill="#1d272b"/>
        <path id="Trazado_163578" data-name="Trazado 163578" d="M124.362,240.155c3.573,0,3.575,5.545,0,5.545S120.787,240.155,124.362,240.155Z" transform="translate(143.347 -83.49)" fill="#1d272b"/>
        <path id="Trazado_163579" data-name="Trazado 163579" d="M226.248,333.778c3.573,0,3.575,5.545,0,5.545S222.673,333.778,226.248,333.778Z" transform="translate(-48.519 -89.905)" fill="#1d272b"/>
        <path id="Trazado_163580" data-name="Trazado 163580" d="M367.683,271.326c3.573,0,3.574,5.545,0,5.545S364.108,271.326,367.683,271.326Z" transform="translate(-315.384 -85.626)" fill="#1d272b"/>
        <path id="Trazado_163581" data-name="Trazado 163581" d="M327.885,170.3c3.573,0,3.574,5.545,0,5.545S324.31,170.3,327.885,170.3Z" transform="translate(-241.534 -78.704)" fill="#1d272b"/>
        <path id="Trazado_163582" data-name="Trazado 163582" d="M386.052,161.117c3.573,0,3.575,5.545,0,5.545S382.477,161.117,386.052,161.117Z" transform="translate(-350.863 -78.075)" fill="#1d272b"/>
        <path id="Trazado_163583" data-name="Trazado 163583" d="M367.683,319.084c3.573,0,3.574,5.545,0,5.545S364.108,319.084,367.683,319.084Z" transform="translate(-315.384 -88.898)" fill="#1d272b"/>
      </g>
    </g>
    <g id="Grupo_128780" data-name="Grupo 128780" transform="translate(367.375 9893)">
      <path id="Trazado_163521" data-name="Trazado 163521" d="M122.93,158.776c-1.469.973-2.486,2.656-3.514,4.057-1.1,1.508-2.2,3.027-3.251,4.572-2.085,3.052-4.15,6.113-6.281,9.135a.489.489,0,0,0,.785.582c2.271-2.918,4.6-5.784,6.913-8.667,1.143-1.422,2.252-2.871,3.347-4.33,1.067-1.422,2.427-2.923,2.942-4.651A.612.612,0,0,0,122.93,158.776Z" transform="translate(-99.465 -135.391)" fill="#008f85"/>
      <path id="Trazado_163522" data-name="Trazado 163522" d="M143.938,160.006c-1.657-.6-3.614-.411-5.351-.4-1.869.013-3.74.044-5.608.119-3.693.15-7.382.319-11.078.412a.489.489,0,0,0,0,.977c3.7.081,7.386.238,11.08.376,1.823.068,3.648.094,5.472.1,1.778.006,3.793.2,5.487-.415A.611.611,0,0,0,143.938,160.006Z" transform="translate(-100.262 -135.454)" fill="#38474f"/>
      <path id="Trazado_163523" data-name="Trazado 163523" d="M106.858,143.337a5.571,5.571,0,1,0,1.413,8.816c.15.084.3.17.448.252,1.568.841,3.161,1.625,4.76,2.406,3.155,1.54,6.263,3.173,9.42,4.707a.615.615,0,0,0,.569-1.089c-3.062-1.717-6.177-3.338-9.24-5.051-1.514-.845-3.028-1.68-4.571-2.472-.127-.065-.255-.123-.382-.186A5.568,5.568,0,0,0,106.858,143.337Z" transform="translate(-98.705 -134.298)" fill="#38474f"/>
      <path id="Trazado_163524" data-name="Trazado 163524" d="M122.057,138.634a.9.9,0,0,0-1.786.22,95.663,95.663,0,0,0,1.13,9.778c.452,3.251,1.018,6.485,1.486,9.733a.693.693,0,0,0,1.374-.169c-.336-3.265-.572-6.54-.924-9.8A95.539,95.539,0,0,0,122.057,138.634Z" transform="translate(-100.183 -133.968)" fill="#008f85"/>
      <path id="Trazado_163525" data-name="Trazado 163525" d="M125.99,154.646a5.866,5.866,0,1,1-7.917,2.481A5.865,5.865,0,0,1,125.99,154.646Z" transform="translate(-99.986 -135.071)" fill="#008f85"/>
      <path id="Trazado_163526" data-name="Trazado 163526" d="M122.638,134.245a4.957,4.957,0,1,1-6.69,2.1A4.958,4.958,0,0,1,122.638,134.245Z" transform="translate(-99.848 -133.68)" fill="#008f85"/>
      <ellipse id="Elipse_4373" data-name="Elipse 4373" cx="5.815" cy="5.815" rx="5.815" ry="5.815" transform="translate(5.748 35.584)" fill="#008f85"/>
      <path id="Trazado_163527" data-name="Trazado 163527" d="M145.184,157.3a4.389,4.389,0,1,1-5.923,1.856A4.389,4.389,0,0,1,145.184,157.3Z" transform="translate(-101.45 -135.264)" fill="#38474f"/>
    </g>
    <g id="Grupo_128781" data-name="Grupo 128781" transform="translate(313.38 10126.814)">
      <path id="Trazado_163528-2" data-name="Trazado 163528" d="M74.491,244.444c3.025-2.664,6.882-3.668,10.507-5.209,3.774-1.6,8.2-4.659,7.583-9.361a.4.4,0,0,1,.782-.137c1.085,3.668-1.227,7.479-4.133,9.587-3.362,2.44-7.479,3.407-11.016,5.523a10.954,10.954,0,0,0-3.849,3.642,7.517,7.517,0,0,0-.664,5.633c.962,4.171,4.084,7.4,6.059,11.095,2.023,3.782,3.073,9.124-.461,12.371-.776.713-1.825-.359-1.32-1.2,2.029-3.358,1.005-7.4-.8-10.591-2.04-3.611-4.809-6.75-5.9-10.84A10.144,10.144,0,0,1,74.491,244.444Z" transform="translate(-60.105 -225.819)" fill="#d93328"/>
      <path id="Trazado_163529-2" data-name="Trazado 163529" d="M79.774,227.38a4.8,4.8,0,0,1,1.812.317l1.662.422,3.6.913c2.407.611,4.8,1.253,7.183,1.947.555.162.447,1.036-.149.911-2.468-.52-4.919-1.092-7.368-1.7L82.91,229.3l-1.8-.445a4.252,4.252,0,0,1-1.609-.56A.523.523,0,0,1,79.774,227.38Z" transform="translate(-61.007 -225.597)" fill="#d93328"/>
      <path id="Trazado_163530-2" data-name="Trazado 163530" d="M80.1,231.3a2.741,2.741,0,0,1,1.563.2c.505.144,1.012.284,1.518.426,1.141.319,2.283.631,3.429.929,2.252.586,4.522,1.11,6.754,1.774a.477.477,0,0,1-.154.941,62.019,62.019,0,0,1-6.943-1.428q-1.658-.414-3.306-.861c-.592-.162-1.182-.331-1.771-.5a2.541,2.541,0,0,1-1.344-.651A.548.548,0,0,1,80.1,231.3Z" transform="translate(-61.053 -226.014)" fill="#d93328"/>
      <path id="Trazado_163531-2" data-name="Trazado 163531" d="M81.334,236.6a.682.682,0,0,1,.641-.245c2.548.716,5.105,1.393,7.652,2.113a.467.467,0,0,1-.151.921c-1.307-.2-2.6-.42-3.888-.71s-2.562-.628-3.834-.977a.686.686,0,0,1-.53-.437A.643.643,0,0,1,81.334,236.6Z" transform="translate(-61.208 -226.561)" fill="#d93328"/>
      <path id="Trazado_163532-2" data-name="Trazado 163532" d="M79.123,244.245a8.745,8.745,0,0,1,2.675.787c.851.292,1.7.59,2.543.9,1.753.649,3.488,1.35,5.207,2.083a.467.467,0,0,1-.379.853q-2.555-1.036-5.169-1.912c-.855-.287-1.714-.566-2.576-.828a9.977,9.977,0,0,1-2.614-.844A.592.592,0,0,1,79.123,244.245Z" transform="translate(-60.931 -227.409)" fill="#d93328"/>
      <path id="Trazado_163533-2" data-name="Trazado 163533" d="M74.553,248.149a5.744,5.744,0,0,1,1.827.51c.693.235,1.392.449,2.085.678q2.007.665,4,1.373,4.063,1.442,8.032,3.111c.625.262.2,1.187-.425.953q-3.965-1.482-7.969-2.868-1.927-.663-3.868-1.287c-.7-.224-1.392-.454-2.093-.661a6.7,6.7,0,0,1-1.938-.651A.659.659,0,0,1,74.553,248.149Z" transform="translate(-60.434 -227.829)" fill="#d93328"/>
      <path id="Trazado_163534-2" data-name="Trazado 163534" d="M72.355,252.2a25.13,25.13,0,0,1,4.031,1.526c1.362.559,2.734,1.1,4.084,1.684,2.7,1.172,5.419,2.3,8.135,3.442.6.253.193,1.135-.409.918-2.726-.986-5.441-2-8.185-2.94-1.345-.46-2.672-.979-4-1.474A26.066,26.066,0,0,1,71.9,253.73C71.174,253.3,71.389,251.994,72.355,252.2Z" transform="translate(-60.166 -228.261)" fill="#d93328"/>
      <path id="Trazado_163535-2" data-name="Trazado 163535" d="M73.749,259.33a.761.761,0,0,1,.869-.21,22.489,22.489,0,0,1,2.336,1.037q1.168.517,2.354.988c1.579.628,3.182,1.2,4.8,1.728.57.187.282,1.161-.3,1.011q-2.552-.652-5.037-1.519-1.208-.42-2.4-.888a14.662,14.662,0,0,1-2.506-1.118.733.733,0,0,1-.111-1.03Z" transform="translate(-60.393 -229)" fill="#d93328"/>
      <path id="Trazado_163536-2" data-name="Trazado 163536" d="M70.037,267.888a4.091,4.091,0,0,1,1.285.461l1.1.474,2.375,1.027q2.375,1.027,4.736,2.088a.663.663,0,0,1-.539,1.211q-2.4-.983-4.778-1.994l-2.382-1.014-1.1-.468a4.031,4.031,0,0,1-1.218-.62A.666.666,0,0,1,70.037,267.888Z" transform="translate(-59.931 -229.947)" fill="#d93328"/>
      <path id="Trazado_163537-2" data-name="Trazado 163537" d="M63.261,271.226a8.808,8.808,0,0,1,1.954.636q1.046.38,2.086.775c1.337.506,2.679,1,4.01,1.525,2.7,1.06,5.465,2.042,8.086,3.292a.6.6,0,0,1-.49,1.1c-2.779-.857-5.481-2-8.191-3.056-1.332-.516-2.654-1.059-3.98-1.592q-1.031-.414-2.057-.841a8.634,8.634,0,0,1-1.855-.865C62.356,271.856,62.744,271.168,63.261,271.226Z" transform="translate(-59.215 -230.305)" fill="#d93328"/>
      <g id="Grupo_127560-2" data-name="Grupo 127560">
        <path id="Trazado_163538-2" data-name="Trazado 163538" d="M65.988,262.466c4.477-1.941,9.518-1.559,14.124-3,3.6-1.123,7.614-3.8,7.42-8.042-.206-4.522-3.914-7.885-6.587-11.159a17.729,17.729,0,0,1-3.671-6.747,14.676,14.676,0,0,1,.2-7.734c.174-.62,1.149-.494,1.01.165a13.722,13.722,0,0,0,.51,7.074,17.4,17.4,0,0,0,3.572,5.745c2.945,3.41,6.408,6.562,7.308,11.191.859,4.412-1.713,8.309-5.468,10.415-4.2,2.353-8.968,2.436-13.585,3.318A15.223,15.223,0,0,0,64.25,266.4a9.594,9.594,0,0,0-3.4,5.481.993.993,0,0,1-1.96-.068C58.135,267.523,62.506,263.975,65.988,262.466Z" transform="translate(-58.807 -225.385)" fill="#d93328"/>
      </g>
    </g>
  </g>
</svg>
