<svg xmlns="http://www.w3.org/2000/svg" xmlns:xlink="http://www.w3.org/1999/xlink" width="542.266" height="545.385" viewBox="0 0 542.266 545.385">
  <defs>
    <linearGradient id="linear-gradient" x1="0.5" x2="0.5" y2="1" gradientUnits="objectBoundingBox">
      <stop offset="0" stop-color="#f5f5f5"/>
      <stop offset="0.25" stop-color="#f5f5f5"/>
      <stop offset="1" stop-color="#a7b3cf"/>
    </linearGradient>
    <linearGradient id="linear-gradient-8" x1="0.5" x2="0.5" y2="1" gradientUnits="objectBoundingBox">
      <stop offset="0" stop-color="#f5f5f5"/>
      <stop offset="0.25" stop-color="#f5f5f5"/>
      <stop offset="1" stop-color="#eeeef2"/>
    </linearGradient>
    <clipPath id="clip-path">
      <path id="Trazado_150181" data-name="Trazado 150181" d="M-2661.75,1408.422c261.63-2.81,302.385,3.245,303.908-14.495s9.816-254.918-52.908-267.95-228.865-23-241.582,57.119S-2661.75,1408.422-2661.75,1408.422Z" transform="translate(2662.136 -1117.15)" fill="none"/>
    </clipPath>
    <radialGradient id="radial-gradient" cx="0.5" cy="0.5" r="0.5" gradientUnits="objectBoundingBox">
      <stop offset="0" stop-color="#4c5872"/>
      <stop offset="0.75" stop-color="#f5f5f5"/>
      <stop offset="1" stop-color="#f5f5f5"/>
    </radialGradient>
  </defs>
  <g id="img37" transform="translate(6194.266 -7863.533)">
    <g id="Grupo_128962" data-name="Grupo 128962" transform="translate(-7113 -11700)">
      <g id="Grupo_128278" data-name="Grupo 128278" transform="translate(922.291 19563.533)">
        <path id="Trazado_151846" data-name="Trazado 151846" d="M531.827,602.977c19.657-33.018,25.249-75.869,14.841-113.709-6.581-23.923-19.209-46.148-20.824-71.1-3.23-49.878,37.478-90.2,45.923-139.326,3.712-21.589-.338-46.741-16.248-59.855-15.715-12.952-38.145-10.308-55.936-1.237s-32.846,23.592-49.928,34.208-38.115,17.178-56.154,8.73c-18.272-8.558-28.637-30.131-34.442-51.155s-8.655-43.418-18.563-62.466c-16.33-31.393-51.148-48.509-83.594-44.08s-61.436,28.692-76.986,60.568-18.267,70.43-10.527,105.637c3.927,17.856,10.395,34.956,13.922,52.915s3.85,37.615-4.024,53.791c-16.466,33.825-59.907,38.542-82.655,67.551-18.775,23.942-19.364,60.478-8.709,89.921s30.68,53.331,50.644,76.059c93.123,3.47,187.915,3.7,281.039,7.17C455.8,617.951,495.677,605.337,531.827,602.977Z" transform="translate(-80.962 -84.818)" fill="#a4a4b4" opacity="0.354" style="mix-blend-mode: multiply;isolation: isolate"/>
        <path id="Trazado_151847" data-name="Trazado 151847" d="M359.21,178.315c-.132,17.7,13.305,33.1,10.966,50.556-1.25,9.339-6.934,18.806-3.631,27.325,2.922,7.538,11.292,8.845,17.692,6.394,14.98-5.738,24.085-24.91,28.44-43.751,4.1-17.722,5.112-37.518-1.447-54.039-5.286-13.311-17.481-25.062-29.864-23.975C370.023,141.821,359.309,164.984,359.21,178.315Z" transform="translate(89.999 -11.914)" fill="#a4a4b4" opacity="0.31" style="mix-blend-mode: multiply;isolation: isolate"/>
        <path id="Trazado_151848" data-name="Trazado 151848" d="M121.167,158.222a91.183,91.183,0,0,0-2.135,95.542c5.492,9.248,12.91,17.867,22.926,23.009s22.937,6.29,32.906,1.071c15.119-7.915,18.463-26.582,17.259-42.517s-5.137-32.641,1.549-47.388c4.36-9.613,12.73-17.107,20.155-24.979s14.356-17.061,14.739-27.467c.994-26.976-30.213-24.96-49.02-19.358C155.537,123.289,134.186,138.29,121.167,158.222Z" transform="translate(-53.633 -112.66)" fill="#a4a4b4" opacity="0.31" style="mix-blend-mode: multiply;isolation: isolate"/>
        <g id="Grupo_107069" data-name="Grupo 107069" transform="translate(13.779 9.175)" style="mix-blend-mode: multiply;isolation: isolate">
          <path id="Trazado_151849" data-name="Trazado 151849" d="M519.2,612.738l-1.982-2.027c5.453-6.676,14.158-21.979,11.211-49.493-1.311-12.248-4.562-24.347-7.707-36.047-1.4-5.227-2.856-10.632-4.124-16-13.523-57.268-7.607-120.443,16.229-173.323,2.117-4.692,4.408-9.4,6.625-13.954,6.57-13.5,13.362-27.458,16.283-42.536,5.123-26.46-5-46.293-16.581-53.521-11.107-6.939-26.785-5.878-43.012,2.911a203.087,203.087,0,0,0-17.285,10.947c-7.374,5.026-15,10.221-23.185,13.9-32.209,14.474-72.478,2.173-93.667-28.608-10.184-14.792-15.934-32.67-21.494-49.96-2.154-6.7-4.383-13.628-6.833-20.257-7.621-20.61-21.569-46.481-44.738-52.669-20.358-5.44-40.978,6.516-54.688,17.5-26.231,21.022-44.72,49.492-52.066,80.163-4.952,20.684-5.151,43.2-5.345,64.966-.287,32.421-.584,65.947-16.93,92.947-7.436,12.283-17.665,22.082-27.554,31.561-9.263,8.876-18.842,18.054-25.982,29.179C90.2,443.628,86.232,479.316,95.5,516.335c8.325,33.261,25.3,62.773,41.707,91.315l-2.255,1.625c-16.518-28.727-33.6-58.432-42.034-92.129-9.486-37.9-5.373-74.528,11.285-100.48,7.329-11.42,17.033-20.717,26.415-29.709,9.757-9.348,19.846-19.017,27.078-30.963,15.892-26.25,16.172-57.843,16.468-91.29.195-21.959.4-44.664,5.438-65.717,7.5-31.341,26.362-60.4,53.095-81.828,14.163-11.35,35.527-23.684,56.872-17.981,24.271,6.483,38.735,33.184,46.594,54.442,2.475,6.694,4.714,13.656,6.879,20.389,5.49,17.07,11.166,34.723,21.094,49.142,20.483,29.756,59.41,41.645,90.545,27.654,7.979-3.585,15.507-8.716,22.789-13.676a204.712,204.712,0,0,1,17.51-11.087c17.024-9.219,33.6-10.254,45.487-2.831,12.414,7.753,23.309,28.83,17.9,56.784-3,15.5-9.889,29.652-16.551,43.339-2.206,4.533-4.488,9.219-6.584,13.869-23.544,52.233-29.387,114.633-16.029,171.2,1.255,5.319,2.7,10.7,4.1,15.9,3.177,11.823,6.463,24.047,7.8,36.555C534.172,589.565,524.965,605.685,519.2,612.738Z" transform="translate(-87.906 -97.739)" fill="#a4a4b4"/>
        </g>
      </g>
      <g id="Grupo_128277" data-name="Grupo 128277" transform="translate(918.734 19701.951)">
        <g id="Grupo_128220" data-name="Grupo 128220" transform="translate(80.181 65.359)">
          <g id="Grupo_128183" data-name="Grupo 128183" transform="translate(0 0)">
            <rect id="Rectángulo_35444" data-name="Rectángulo 35444" width="370.024" height="328.317" rx="10" fill="url(#linear-gradient)"/>
          </g>
          <g id="Grupo_128189" data-name="Grupo 128189" transform="translate(12 16.171)">
            <g id="Grupo_128184" data-name="Grupo 128184" transform="translate(2.443)">
              <rect id="Rectángulo_35445" data-name="Rectángulo 35445" width="99.176" height="60.386" rx="10" fill="#1d272b"/>
            </g>
            <g id="Grupo_128185" data-name="Grupo 128185" transform="translate(0 9.804)">
              <rect id="Rectángulo_35446" data-name="Rectángulo 35446" width="4.101" height="12.532" rx="2.051" fill="#868695"/>
            </g>
            <g id="Grupo_128186" data-name="Grupo 128186" transform="translate(0 37.146)">
              <rect id="Rectángulo_35447" data-name="Rectángulo 35447" width="4.101" height="12.532" rx="2.051" fill="#868695"/>
            </g>
            <g id="Grupo_128187" data-name="Grupo 128187" transform="translate(100.253 13.905)">
              <rect id="Rectángulo_35448" data-name="Rectángulo 35448" width="7.747" height="32.81" rx="3.873" fill="#868695"/>
            </g>
            <g id="Grupo_128188" data-name="Grupo 128188" transform="translate(35.316 37.146)">
              <rect id="Rectángulo_35449" data-name="Rectángulo 35449" width="29.392" height="16.405" rx="5" fill="url(#linear-gradient)"/>
            </g>
          </g>
          <g id="Grupo_128195" data-name="Grupo 128195" transform="translate(130.48 16.171)">
            <g id="Grupo_128190" data-name="Grupo 128190" transform="translate(2.443)">
              <rect id="Rectángulo_35450" data-name="Rectángulo 35450" width="99.176" height="60.386" rx="10" fill="#1d272b"/>
            </g>
            <g id="Grupo_128191" data-name="Grupo 128191" transform="translate(0 9.804)">
              <rect id="Rectángulo_35451" data-name="Rectángulo 35451" width="4.101" height="12.532" rx="2.051" fill="#868695"/>
            </g>
            <g id="Grupo_128192" data-name="Grupo 128192" transform="translate(0 37.146)">
              <rect id="Rectángulo_35452" data-name="Rectángulo 35452" width="4.101" height="12.532" rx="2.051" fill="#868695"/>
            </g>
            <g id="Grupo_128193" data-name="Grupo 128193" transform="translate(100.253 13.905)">
              <rect id="Rectángulo_35453" data-name="Rectángulo 35453" width="7.747" height="32.81" rx="3.873" fill="#868695"/>
            </g>
            <g id="Grupo_128194" data-name="Grupo 128194" transform="translate(35.316 37.146)">
              <rect id="Rectángulo_35454" data-name="Rectángulo 35454" width="29.392" height="16.405" rx="5" fill="url(#linear-gradient)"/>
            </g>
          </g>
          <g id="Grupo_128201" data-name="Grupo 128201" transform="translate(248.961 16.171)">
            <g id="Grupo_128196" data-name="Grupo 128196" transform="translate(2.443)">
              <rect id="Rectángulo_35455" data-name="Rectángulo 35455" width="99.176" height="60.386" rx="10" fill="#1d272b"/>
            </g>
            <g id="Grupo_128197" data-name="Grupo 128197" transform="translate(0 9.804)">
              <rect id="Rectángulo_35456" data-name="Rectángulo 35456" width="4.101" height="12.532" rx="2.051" fill="#868695"/>
            </g>
            <g id="Grupo_128198" data-name="Grupo 128198" transform="translate(0 37.146)">
              <rect id="Rectángulo_35457" data-name="Rectángulo 35457" width="4.101" height="12.532" rx="2.051" fill="#868695"/>
            </g>
            <g id="Grupo_128199" data-name="Grupo 128199" transform="translate(100.253 13.905)">
              <rect id="Rectángulo_35458" data-name="Rectángulo 35458" width="7.747" height="32.81" rx="3.873" fill="#868695"/>
            </g>
            <g id="Grupo_128200" data-name="Grupo 128200" transform="translate(35.316 37.146)">
              <rect id="Rectángulo_35459" data-name="Rectángulo 35459" width="29.392" height="16.405" rx="5" fill="url(#linear-gradient)"/>
            </g>
          </g>
          <g id="Grupo_128207" data-name="Grupo 128207" transform="translate(12 89.082)">
            <g id="Grupo_128202" data-name="Grupo 128202" transform="translate(2.443)">
              <rect id="Rectángulo_35460" data-name="Rectángulo 35460" width="99.176" height="60.386" rx="10" fill="#1d272b"/>
            </g>
            <g id="Grupo_128203" data-name="Grupo 128203" transform="translate(0 9.804)">
              <rect id="Rectángulo_35461" data-name="Rectángulo 35461" width="4.101" height="12.532" rx="2.051" fill="#868695"/>
            </g>
            <g id="Grupo_128204" data-name="Grupo 128204" transform="translate(0 37.146)">
              <rect id="Rectángulo_35462" data-name="Rectángulo 35462" width="4.101" height="12.532" rx="2.051" fill="#868695"/>
            </g>
            <g id="Grupo_128205" data-name="Grupo 128205" transform="translate(100.253 13.905)">
              <rect id="Rectángulo_35463" data-name="Rectángulo 35463" width="7.747" height="32.81" rx="3.873" fill="#868695"/>
            </g>
            <g id="Grupo_128206" data-name="Grupo 128206" transform="translate(35.316 37.146)">
              <rect id="Rectángulo_35464" data-name="Rectángulo 35464" width="29.392" height="16.405" rx="5" fill="url(#linear-gradient)"/>
            </g>
          </g>
          <g id="Grupo_128213" data-name="Grupo 128213" transform="translate(130.48 89.082)">
            <g id="Grupo_128208" data-name="Grupo 128208" transform="translate(2.443)">
              <rect id="Rectángulo_35465" data-name="Rectángulo 35465" width="99.176" height="60.386" rx="10" fill="#1d272b"/>
            </g>
            <g id="Grupo_128209" data-name="Grupo 128209" transform="translate(0 9.804)">
              <rect id="Rectángulo_35466" data-name="Rectángulo 35466" width="4.101" height="12.532" rx="2.051" fill="#868695"/>
            </g>
            <g id="Grupo_128210" data-name="Grupo 128210" transform="translate(0 37.146)">
              <rect id="Rectángulo_35467" data-name="Rectángulo 35467" width="4.101" height="12.532" rx="2.051" fill="#868695"/>
            </g>
            <g id="Grupo_128211" data-name="Grupo 128211" transform="translate(100.253 13.905)">
              <rect id="Rectángulo_35468" data-name="Rectángulo 35468" width="7.747" height="32.81" rx="3.873" fill="#868695"/>
            </g>
            <g id="Grupo_128212" data-name="Grupo 128212" transform="translate(35.316 37.146)">
              <rect id="Rectángulo_35469" data-name="Rectángulo 35469" width="29.392" height="16.405" rx="5" fill="url(#linear-gradient)"/>
            </g>
          </g>
          <g id="Grupo_128219" data-name="Grupo 128219" transform="translate(248.961 89.082)">
            <g id="Grupo_128214" data-name="Grupo 128214" transform="translate(2.443)">
              <rect id="Rectángulo_35470" data-name="Rectángulo 35470" width="99.176" height="60.386" rx="10" fill="#1d272b"/>
            </g>
            <g id="Grupo_128215" data-name="Grupo 128215" transform="translate(0 9.804)">
              <rect id="Rectángulo_35471" data-name="Rectángulo 35471" width="4.101" height="12.532" rx="2.051" fill="#3e2b9e"/>
            </g>
            <g id="Grupo_128216" data-name="Grupo 128216" transform="translate(0 37.146)">
              <rect id="Rectángulo_35472" data-name="Rectángulo 35472" width="4.101" height="12.532" rx="2.051" fill="#868695"/>
            </g>
            <g id="Grupo_128217" data-name="Grupo 128217" transform="translate(100.253 13.905)">
              <rect id="Rectángulo_35473" data-name="Rectángulo 35473" width="7.747" height="32.81" rx="3.873" fill="#868695"/>
            </g>
            <g id="Grupo_128218" data-name="Grupo 128218" transform="translate(35.316 37.146)">
              <rect id="Rectángulo_35474" data-name="Rectángulo 35474" width="29.392" height="16.405" rx="5" fill="url(#linear-gradient)"/>
            </g>
          </g>
        </g>
        <g id="Grupo_128244" data-name="Grupo 128244" transform="translate(86.141 232.856)">
          <g id="Grupo_128221" data-name="Grupo 128221" transform="translate(43.61 3.952)">
            <path id="Trazado_165244" data-name="Trazado 165244" d="M1011.317,1154.149s-16.406-.1-20.316-3.1c-3.066-2.35-2.285-4.571-7.314-13.445a11.485,11.485,0,0,1-.457-4.942c.388-2.561-4.368-3-3.962,3.3a13.378,13.378,0,0,0-2.387,9.5c.967,5.892,3.218,6.725,3.6,10.615.273,2.745,0,7.568,5.267,8.11,4.88.5,8.531-.726,16.973-.345s10.386-.45,10.386-.45Z" transform="translate(-974.858 -1130.904)" fill="#edbe8c"/>
            <path id="Trazado_165245" data-name="Trazado 165245" d="M973.148,1172.273s-1.4-2.406-2.695-2.535-1.3,1.77-.853,2.277,1.594,1.769,1.931,2.233S973.823,1173.254,973.148,1172.273Z" transform="translate(-969.33 -1159.897)" fill="#edbe8c"/>
            <path id="Trazado_165246" data-name="Trazado 165246" d="M981.891,1142.651a9.6,9.6,0,0,1-.637-2.9,1.16,1.16,0,0,0-2.233-.537c-.8,1.49.194,4.315,1.105,4.6S982.315,1144.016,981.891,1142.651Z" transform="translate(-976.347 -1136.542)" fill="#edbe8c"/>
            <path id="Trazado_165247" data-name="Trazado 165247" d="M977.182,1149.36a9.6,9.6,0,0,1-1.252-2.7,1.16,1.16,0,0,0-2.3-.04c-.457,1.628,1.126,4.17,2.077,4.251S977.892,1150.6,977.182,1149.36Z" transform="translate(-972.483 -1141.904)" fill="#edbe8c"/>
            <path id="Trazado_165248" data-name="Trazado 165248" d="M974.7,1159.723a9.607,9.607,0,0,1-1.31-2.67,1.16,1.16,0,0,0-2.3.01c-.422,1.637,1.216,4.145,2.168,4.2S975.439,1160.948,974.7,1159.723Z" transform="translate(-970.598 -1149.682)" fill="#edbe8c"/>
          </g>
          <g id="Grupo_128223" data-name="Grupo 128223" transform="translate(42.404 36.892)">
            <g id="Grupo_128222" data-name="Grupo 128222">
              <path id="Trazado_165249" data-name="Trazado 165249" d="M1187.083,1374.216a4.856,4.856,0,0,1-2.091-.474L967.35,1270.232a4.876,4.876,0,0,1,4.189-8.807l217.642,103.511a4.877,4.877,0,0,1-2.1,9.28Z" transform="translate(-964.568 -1260.952)" fill="#1d272b"/>
            </g>
          </g>
          <g id="Grupo_128225" data-name="Grupo 128225" transform="translate(66.783 36.892)">
            <g id="Grupo_128224" data-name="Grupo 128224">
              <path id="Trazado_165250" data-name="Trazado 165250" d="M1065.7,1374.216a4.877,4.877,0,0,1-2.1-9.28l217.642-103.511a4.876,4.876,0,0,1,4.189,8.807L1067.79,1373.742A4.856,4.856,0,0,1,1065.7,1374.216Z" transform="translate(-1060.819 -1260.951)" fill="#1d272b"/>
            </g>
          </g>
          <g id="Grupo_128226" data-name="Grupo 128226" transform="translate(184.868 81.773)" opacity="0.5" style="mix-blend-mode: multiply;isolation: isolate">
            <path id="Trazado_165251" data-name="Trazado 165251" d="M1535.935,1438.146l-8.908,4.265,2.688,9.52,11.773-5.794Z" transform="translate(-1527.027 -1438.146)" fill="#3e2b9e"/>
          </g>
          <g id="Grupo_128228" data-name="Grupo 128228" transform="translate(187.474 13.36)">
            <g id="Grupo_128227" data-name="Grupo 128227">
              <ellipse id="Elipse_4387" data-name="Elipse 4387" cx="18.125" cy="12.747" rx="18.125" ry="12.747" fill="#3e2b9e"/>
            </g>
          </g>
          <g id="Grupo_128230" data-name="Grupo 128230" transform="translate(14.628 49.794)">
            <g id="Grupo_128229" data-name="Grupo 128229">
              <path id="Trazado_165252" data-name="Trazado 165252" d="M1185.654,1321.64H859.784a4.876,4.876,0,1,1,0-9.752h325.87a4.876,4.876,0,1,1,0,9.752Z" transform="translate(-854.908 -1311.888)" fill="#1d272b"/>
            </g>
          </g>
          <g id="Grupo_128231" data-name="Grupo 128231" transform="translate(130.913 83.669)" opacity="0.5" style="mix-blend-mode: multiply;isolation: isolate">
            <path id="Trazado_165253" data-name="Trazado 165253" d="M1314.009,1448.906l11.554,5.495,15.07-3.631-10.488-5.138Z" transform="translate(-1314.009 -1445.632)" fill="#3e2b9e"/>
          </g>
          <g id="Grupo_128233" data-name="Grupo 128233" transform="translate(0 36.385)">
            <g id="Grupo_128232" data-name="Grupo 128232">
              <rect id="Rectángulo_35475" data-name="Rectángulo 35475" width="360.814" height="13.815" rx="6.907" fill="#1d272b"/>
            </g>
          </g>
          <path id="Trazado_165254" data-name="Trazado 165254" d="M1017.454,1281.719l-12.461.028s-.271-15.313-3.251-17.456-8.988-2.629-13.027-5.7c0,0,28.128-.339,28.67.107S1020.84,1278.469,1017.454,1281.719Z" transform="translate(-940.196 -1222.202)" fill="#3e2b9e" opacity="0.5" style="mix-blend-mode: multiply;isolation: isolate"/>
          <g id="Grupo_128234" data-name="Grupo 128234" transform="translate(334.959 36.536)" opacity="0.5" style="mix-blend-mode: multiply;isolation: isolate">
            <path id="Trazado_165255" data-name="Trazado 165255" d="M2123.064,1259.547h2.438s-2.3,9.584-2.438,13.257l8.7.33s2.439.979,2.781,2.762c0,0-9.536.14-11.482,6.659l-3.115-.255S2118.053,1259.7,2123.064,1259.547Z" transform="translate(-2119.598 -1259.547)" fill="#3e2b9e"/>
          </g>
          <g id="Grupo_128236" data-name="Grupo 128236" transform="translate(71.558)">
            <g id="Grupo_128235" data-name="Grupo 128235">
              <path id="Trazado_165256" data-name="Trazado 165256" d="M1081.309,1175.969a181.945,181.945,0,0,0-.542-26.664c-.968-8.813-2.941-10.308,3.115-10.582,34.4-1.557,51.2-9.635,64.537-12.068,11.175-2.038,40.289-9.051,58.69-7.493,19.119,1.619,46.445-3.861,62.636-3.861,18.42,0,22.605,11.925,31.319,9.932,2.983-.683-.216-5.472,6.852-5.472,4.842,0,7-3.455,8.951-1.94a24.151,24.151,0,0,0,10.608,4.676c5.629,1.169,11.872,10.8,10.4,19.182-1.283,7.287,9.2,6.159,8.939,9.481-.382,4.85-2.438,7.433-2.047,18.81.231,6.721-32.876,3.92-52.143-1.059s-32.473-3.247-45.246-1.3-35.07-8.01-45.245-9.093-44.163,7.577-56.5,5.629a100.021,100.021,0,0,0-36.824.851C1097.114,1167.6,1077.652,1205.9,1081.309,1175.969Z" transform="translate(-1079.673 -1115.3)" fill="url(#linear-gradient-8)"/>
            </g>
          </g>
          <g id="Grupo_128238" data-name="Grupo 128238" transform="translate(71.274 26.362)">
            <g id="Grupo_128237" data-name="Grupo 128237">
              <path id="Trazado_165257" data-name="Trazado 165257" d="M1307.078,1226.5c-.791-.578-83.319-1.732-103.1-5.773s-81.555,2.309-82.421,2.309-34.987-3.577-37.561-1.719c-5.957,4.3-2.573,8.594-3.32,27.084-.265,6.548-4.181,27.242-.665,33.284,5.068,8.707,7.668,1.164,58.182-1.722,36.032-2.059,45.135-13.759,53.217-10.519s7.794,19.853,32.617,28.8,36.37-17.319,45.895-18.265,24.464,12.043,51.885,17.816,20.444-45.75,22.67-59.822S1307.868,1227.074,1307.078,1226.5Z" transform="translate(-1078.549 -1219.378)" fill="url(#linear-gradient-8)"/>
            </g>
          </g>
          <g id="Grupo_128240" data-name="Grupo 128240" transform="translate(157.537 34.004)" style="mix-blend-mode: screen;isolation: isolate">
            <g id="Grupo_128239" data-name="Grupo 128239" opacity="0.5" style="mix-blend-mode: screen;isolation: isolate">
              <path id="Trazado_165258" data-name="Trazado 165258" d="M1591.048,1252.8h-170.3a1.625,1.625,0,0,1,0-3.251h170.3a1.625,1.625,0,1,1,0,3.251Z" transform="translate(-1419.121 -1249.551)" fill="#3e2b9e"/>
            </g>
          </g>
          <g id="Grupo_128242" data-name="Grupo 128242" transform="translate(85.752 34.004)" style="mix-blend-mode: screen;isolation: isolate">
            <g id="Grupo_128241" data-name="Grupo 128241" opacity="0.5" style="mix-blend-mode: screen;isolation: isolate">
              <path id="Trazado_165259" data-name="Trazado 165259" d="M1195.5,1252.8h-58.163a1.625,1.625,0,1,1,0-3.251H1195.5a1.625,1.625,0,0,1,0,3.251Z" transform="translate(-1135.712 -1249.551)" fill="#3e2b9e"/>
            </g>
          </g>
          <g id="Grupo_128243" data-name="Grupo 128243" transform="translate(147.357 99.321)" opacity="0.5" style="mix-blend-mode: multiply;isolation: isolate">
            <path id="Trazado_165260" data-name="Trazado 165260" d="M1388.513,1507.427l11.353,5.4-19.08,9.074-1.854-9.917Z" transform="translate(-1378.932 -1507.427)" fill="#3e2b9e"/>
          </g>
        </g>
        <g id="Grupo_128252" data-name="Grupo 128252" transform="translate(0 216.825)">
          <g id="Grupo_128245" data-name="Grupo 128245" transform="translate(0 52.416)">
            <rect id="Rectángulo_35476" data-name="Rectángulo 35476" width="69.887" height="13.815" rx="6.907" fill="url(#linear-gradient)"/>
          </g>
          <g id="Grupo_128246" data-name="Grupo 128246" transform="translate(5.282 65.011)">
            <path id="Trazado_165261" data-name="Trazado 165261" d="M531.557,1318.431H482.8a4.876,4.876,0,1,1,0-9.752h48.759a4.876,4.876,0,1,1,0,9.752Z" transform="translate(-477.922 -1308.679)" fill="#1d272b"/>
          </g>
          <g id="Grupo_128247" data-name="Grupo 128247" transform="translate(10.565 65.824)">
            <path id="Trazado_165262" data-name="Trazado 165262" d="M503.654,1416.333a4.876,4.876,0,0,1-4.876-4.876v-94.693a4.876,4.876,0,0,1,9.752,0v94.693A4.876,4.876,0,0,1,503.654,1416.333Z" transform="translate(-498.778 -1311.888)" fill="#1d272b"/>
          </g>
          <g id="Grupo_128248" data-name="Grupo 128248" transform="translate(48.759 65.824)">
            <path id="Trazado_165263" data-name="Trazado 165263" d="M654.448,1416.333a4.876,4.876,0,0,1-4.876-4.876v-94.693a4.876,4.876,0,0,1,9.752,0v94.693A4.876,4.876,0,0,1,654.448,1416.333Z" transform="translate(-649.572 -1311.888)" fill="#1d272b"/>
          </g>
          <g id="Grupo_128249" data-name="Grupo 128249" transform="translate(10.158 8.126)">
            <rect id="Rectángulo_35477" data-name="Rectángulo 35477" width="22.754" height="44.831" rx="5" fill="#868695"/>
          </g>
          <g id="Grupo_128250" data-name="Grupo 128250" transform="translate(15.44)">
            <rect id="Rectángulo_35478" data-name="Rectángulo 35478" width="12.596" height="13.409" rx="5" fill="#1d272b"/>
          </g>
          <g id="Grupo_128251" data-name="Grupo 128251" transform="translate(37.788 43.477)">
            <path id="Trazado_165264" data-name="Trazado 165264" d="M638.357,1228.127c0,2.458-2.56,4.469-5.688,4.469H611.946c-3.129,0-5.689-2.011-5.689-4.469s2.56-4.47,5.689-4.47h20.723C635.8,1223.658,638.357,1225.669,638.357,1228.127Z" transform="translate(-606.257 -1223.658)" fill="#008f85"/>
          </g>
        </g>
        <g id="Grupo_128253" data-name="Grupo 128253" transform="translate(140.181 373.665)">
          <rect id="Rectángulo_35479" data-name="Rectángulo 35479" width="37.382" height="15.034" rx="7.517" transform="translate(0 0)" fill="#008f85"/>
        </g>
        <g id="Grupo_128254" data-name="Grupo 128254" transform="translate(335.216 373.665)">
          <rect id="Rectángulo_35480" data-name="Rectángulo 35480" width="37.382" height="15.034" rx="7.517" transform="translate(0 0)" fill="#008f85"/>
        </g>
        <g id="Grupo_128275" data-name="Grupo 128275" transform="translate(4.024 271.694)">
          <path id="Trazado_165270" data-name="Trazado 165270" d="M532.276,1271.888h-57.7a1.625,1.625,0,1,1,0-3.251h57.7a1.625,1.625,0,0,1,0,3.251Z" transform="translate(-472.953 -1268.637)" fill="#1d272b"/>
        </g>
        <g id="Grupo_128844" data-name="Grupo 128844" transform="translate(64.972 283.958)">
          <g id="Grupo_90783" data-name="Grupo 90783" transform="translate(10.939 9.559)">
            <g id="Grupo_90780" data-name="Grupo 90780" transform="translate(38.397 5.013)">
              <path id="Trazado_149804" data-name="Trazado 149804" d="M222.192,156.964a3.261,3.261,0,0,1-.708-.3c-2.755-1.543-5.233-3.019-5.257-3.034a.211.211,0,0,1,.217-.363c.024.015,2.5,1.487,5.247,3.028.645.361,1.139.417,1.469.166.805-.611.727-2.993.233-5.03-.628-2.593-4.478-3.82-5.913-3.749a13.143,13.143,0,0,0-3.2.639.211.211,0,0,1-.14-.4,13.327,13.327,0,0,1,3.316-.663c1.818-.089,5.7,1.427,6.345,4.072.393,1.622.754,4.6-.388,5.467A1.335,1.335,0,0,1,222.192,156.964Z" transform="translate(-214.002 -147.252)" fill="#efebe9"/>
            </g>
            <g id="Grupo_90781" data-name="Grupo 90781" transform="translate(0 6.018)">
              <path id="Trazado_149805" data-name="Trazado 149805" d="M108.178,158.355a12.783,12.783,0,0,1-1.38-.469,6.582,6.582,0,0,1-4.077-3.878c-.537-1.588-.5-2.661.127-3.281,1.243-1.237,4.478-.128,6.84.684.335.115.65.223.937.317,3.025.99,4.554.447,4.57.441a.211.211,0,1,1,.146.4c-.067.025-1.684.6-4.847-.436-.289-.094-.607-.2-.943-.319-2.13-.731-5.348-1.836-6.4-.784-.49.488-.5,1.445-.025,2.846a6.181,6.181,0,0,0,3.836,3.622c4.045,1.65,10.326,1.229,13.24-.25a.212.212,0,1,1,.192.377C117.7,158.988,112.336,159.518,108.178,158.355Z" transform="translate(-102.348 -150.173)" fill="#97e8ce"/>
            </g>
            <path id="Trazado_149806" data-name="Trazado 149806" d="M167.372,144.167l-2.583-5.8a.424.424,0,0,0-.259-.233c-1.264-.393-2.259-1.157-6.521-4.261-4.46-3.248-9.207.988-11.768,2.467-1.912,1.1-6.329,3.366-7.838,4.135a.428.428,0,0,0-.113.68l5.017,5.187a.43.43,0,0,0,.351.128c3.327-.318,3.655.7,8.309,1.329,4.748.645,7.764-.366,10.22-2.168a6,6,0,0,1,4.71-.867A.428.428,0,0,0,167.372,144.167Z" transform="translate(-125.85 -132.674)" fill="#b2f2ef"/>
            <path id="Trazado_149807" data-name="Trazado 149807" d="M144.751,144.08a.586.586,0,0,1,.153-.929c2.018-1.038,4.756-2.465,6.182-3.29.424-.245.891-.551,1.385-.876,2.04-1.34,4.833-3.174,7.414-2.452a4.989,4.989,0,0,1,1.587.788l.836.609c3.149,2.3,4.331,3.157,5.467,3.627a.583.583,0,0,1,.311.3l1.391,3.124a.588.588,0,0,1-.491.823,6.545,6.545,0,0,0-3.339,1.225c-2.542,1.865-5.41,2.462-9.3,1.934a25.488,25.488,0,0,1-3.718-.772l-.49-.138a10.354,10.354,0,0,0-3.726-.474.586.586,0,0,1-.45-.178Z" transform="translate(-130.061 -135.099)" fill="#00a79e"/>
            <g id="Grupo_90782" data-name="Grupo 90782" transform="translate(14.898 2.296)">
              <path id="Trazado_149808" data-name="Trazado 149808" d="M151.8,143.3c.451-.261.946-.586,1.47-.93,2.132-1.4,5.052-3.318,7.717-2.572a5.134,5.134,0,0,1,1.632.81l.884.644c3.338,2.434,4.588,3.344,5.8,3.847a.139.139,0,0,0,.072.008l-.156-.352a37.974,37.974,0,0,1-5.555-3.732l-.883-.644a5.4,5.4,0,0,0-1.722-.854c-2.789-.78-5.77,1.178-7.949,2.609-.52.341-1.011.664-1.455.921-1.377.8-3.914,2.125-5.983,3.192l.2.212C147.934,145.4,150.43,144.09,151.8,143.3Z" transform="translate(-145.671 -139.35)" fill="#008f85"/>
              <path id="Trazado_149809" data-name="Trazado 149809" d="M172.887,150.683c-1.185-.489-2.427-1.394-5.747-3.814l-.883-.644a5.406,5.406,0,0,0-1.722-.854c-2.789-.78-5.771,1.178-7.954,2.612-.518.34-1.007.661-1.45.917-1.186.685-3.231,1.766-5.1,2.734l.2.211c1.849-.96,3.861-2.023,5.035-2.7.45-.26.942-.583,1.469-.93,2.132-1.4,5.052-3.318,7.717-2.573a5.124,5.124,0,0,1,1.631.811l.886.645c3.338,2.433,4.587,3.343,5.8,3.846a.139.139,0,0,0,.184-.076A.141.141,0,0,0,172.887,150.683Z" transform="translate(-148.534 -143.184)" fill="#008f85"/>
              <path id="Trazado_149810" data-name="Trazado 149810" d="M169.731,152.069a5.406,5.406,0,0,0-1.722-.854c-2.789-.78-5.77,1.179-7.954,2.613-.518.34-1.007.661-1.45.917-1,.578-2.613,1.438-4.214,2.274l.007.007a.587.587,0,0,0,.284.16c1.551-.812,3.094-1.636,4.064-2.2.45-.26.942-.583,1.47-.93,2.132-1.4,5.052-3.318,7.717-2.572a5.123,5.123,0,0,1,1.632.81l.884.644c1.716,1.251,2.879,2.1,3.771,2.7q.189-.05.376-.088c-.911-.6-2.119-1.479-3.982-2.836Z" transform="translate(-151.392 -147.018)" fill="#008f85"/>
              <path id="Trazado_149811" data-name="Trazado 149811" d="M177.021,157.912a5.4,5.4,0,0,0-1.721-.854c-2.789-.78-5.771,1.179-7.948,2.608-.52.341-1.01.664-1.456.921-.37.214-.824.467-1.33.742.132.033.264.067.4.1.4-.221.767-.424,1.073-.6.452-.261.946-.586,1.469-.929,2.132-1.4,5.052-3.318,7.717-2.573a5.128,5.128,0,0,1,1.631.81l.886.646c.649.473,1.217.887,1.724,1.253q.14-.076.281-.144c-.534-.386-1.141-.828-1.841-1.338Z" transform="translate(-158.068 -150.852)" fill="#008f85"/>
              <path id="Trazado_149812" data-name="Trazado 149812" d="M183,163.755a5.419,5.419,0,0,0-1.722-.854c-2.789-.78-5.77,1.178-7.948,2.609-.2.132-.4.26-.589.384l.393.081.352-.231c2.132-1.4,5.051-3.317,7.717-2.572a5.124,5.124,0,0,1,1.632.811l.865.631c.082-.055.163-.113.245-.171l-.061-.044Z" transform="translate(-163.432 -154.685)" fill="#008f85"/>
            </g>
          </g>
          <g id="Grupo_90787" data-name="Grupo 90787" transform="translate(23.407 15.922)">
            <g id="Grupo_90784" data-name="Grupo 90784" transform="translate(38.397 5.013)">
              <path id="Trazado_149813" data-name="Trazado 149813" d="M258.448,175.466a3.259,3.259,0,0,1-.707-.3c-2.755-1.543-5.233-3.019-5.257-3.033a.212.212,0,0,1,.216-.364c.025.015,2.5,1.488,5.248,3.028.644.361,1.139.417,1.469.166.805-.611.727-2.993.233-5.03-.628-2.593-4.478-3.82-5.913-3.749a13.118,13.118,0,0,0-3.2.639.212.212,0,0,1-.14-.4,13.333,13.333,0,0,1,3.316-.663c1.818-.089,5.7,1.427,6.345,4.072.393,1.623.754,4.6-.389,5.467A1.334,1.334,0,0,1,258.448,175.466Z" transform="translate(-250.258 -165.754)" fill="#efebe9"/>
            </g>
            <g id="Grupo_90785" data-name="Grupo 90785" transform="translate(0 6.018)">
              <path id="Trazado_149814" data-name="Trazado 149814" d="M144.435,176.857a12.614,12.614,0,0,1-1.38-.469,6.582,6.582,0,0,1-4.078-3.878c-.537-1.588-.5-2.661.128-3.281,1.243-1.237,4.478-.128,6.84.684.334.115.65.223.937.317,3.026.99,4.555.447,4.57.441a.211.211,0,0,1,.146.4c-.067.025-1.684.595-4.848-.436-.289-.094-.607-.2-.943-.319-2.13-.73-5.348-1.836-6.4-.784-.49.488-.5,1.445-.025,2.846A6.18,6.18,0,0,0,143.215,176c4.045,1.65,10.326,1.229,13.24-.25a.212.212,0,1,1,.192.377C153.954,177.49,148.592,178.019,144.435,176.857Z" transform="translate(-138.604 -168.675)" fill="#9de2f5"/>
            </g>
            <path id="Trazado_149815" data-name="Trazado 149815" d="M203.628,162.669l-2.583-5.8a.422.422,0,0,0-.259-.233c-1.265-.393-2.259-1.158-6.52-4.261-4.46-3.248-9.207.988-11.768,2.467-1.912,1.1-6.329,3.366-7.838,4.135a.428.428,0,0,0-.113.68l5.017,5.187a.432.432,0,0,0,.351.128c3.327-.319,3.655.7,8.309,1.329,4.748.645,7.764-.366,10.22-2.168a6,6,0,0,1,4.71-.867A.428.428,0,0,0,203.628,162.669Z" transform="translate(-162.107 -151.176)" fill="#b2f2ef"/>
            <path id="Trazado_149816" data-name="Trazado 149816" d="M181.008,162.582a.586.586,0,0,1,.153-.929c2.018-1.038,4.756-2.465,6.182-3.289.424-.245.891-.552,1.385-.876,2.04-1.34,4.833-3.174,7.414-2.452a4.986,4.986,0,0,1,1.587.788l.836.609c3.149,2.3,4.331,3.157,5.468,3.626a.583.583,0,0,1,.311.3l1.391,3.124a.587.587,0,0,1-.491.823,6.546,6.546,0,0,0-3.339,1.225c-2.542,1.866-5.41,2.462-9.3,1.934a25.551,25.551,0,0,1-3.718-.773l-.49-.138a10.356,10.356,0,0,0-3.726-.475.586.586,0,0,1-.45-.177Z" transform="translate(-166.318 -153.601)" fill="#00a79e"/>
            <g id="Grupo_90786" data-name="Grupo 90786" transform="translate(14.898 2.296)">
              <path id="Trazado_149817" data-name="Trazado 149817" d="M188.052,161.8c.451-.261.945-.585,1.47-.93,2.132-1.4,5.051-3.318,7.717-2.573a5.127,5.127,0,0,1,1.631.811l.884.644c3.339,2.434,4.588,3.344,5.8,3.847a.137.137,0,0,0,.073.008l-.156-.351a37.971,37.971,0,0,1-5.555-3.732l-.883-.644a5.41,5.41,0,0,0-1.722-.854c-2.789-.78-5.771,1.178-7.949,2.609-.52.341-1.011.664-1.455.921-1.377.8-3.914,2.125-5.984,3.193l.2.212C184.191,163.9,186.687,162.593,188.052,161.8Z" transform="translate(-181.927 -157.853)" fill="#008f85"/>
              <path id="Trazado_149818" data-name="Trazado 149818" d="M209.143,169.185c-1.185-.489-2.426-1.394-5.747-3.814l-.883-.643a5.4,5.4,0,0,0-1.722-.854c-2.789-.78-5.77,1.179-7.954,2.612-.518.34-1.007.661-1.45.917-1.186.685-3.231,1.766-5.1,2.734l.2.211c1.849-.96,3.861-2.023,5.035-2.7.45-.26.942-.583,1.469-.929,2.132-1.4,5.052-3.318,7.717-2.573a5.126,5.126,0,0,1,1.631.81l.885.645c3.338,2.433,4.586,3.344,5.8,3.846a.138.138,0,0,0,.184-.076A.141.141,0,0,0,209.143,169.185Z" transform="translate(-184.79 -161.687)" fill="#008f85"/>
              <path id="Trazado_149819" data-name="Trazado 149819" d="M205.988,170.571a5.4,5.4,0,0,0-1.721-.854c-2.789-.78-5.771,1.178-7.954,2.612-.518.34-1.007.661-1.449.917-1,.578-2.613,1.438-4.214,2.274l.007.007a.585.585,0,0,0,.284.159c1.551-.812,3.094-1.636,4.065-2.2.45-.26.942-.583,1.47-.93,2.132-1.4,5.051-3.318,7.717-2.572a5.13,5.13,0,0,1,1.631.81l.884.644c1.716,1.251,2.88,2.1,3.771,2.7.126-.033.252-.063.376-.089-.911-.6-2.119-1.479-3.982-2.836Z" transform="translate(-187.649 -165.52)" fill="#008f85"/>
              <path id="Trazado_149820" data-name="Trazado 149820" d="M213.278,176.414a5.408,5.408,0,0,0-1.722-.854c-2.789-.78-5.77,1.178-7.948,2.608-.519.341-1.01.663-1.455.921-.37.214-.824.466-1.33.742.132.033.264.067.4.1.4-.22.767-.424,1.073-.6.452-.261.946-.586,1.469-.93,2.132-1.4,5.052-3.318,7.717-2.573a5.132,5.132,0,0,1,1.631.81l.886.646c.649.473,1.217.887,1.723,1.253q.14-.076.281-.144c-.534-.386-1.141-.828-1.841-1.338Z" transform="translate(-194.325 -169.354)" fill="#008f85"/>
              <path id="Trazado_149821" data-name="Trazado 149821" d="M219.257,182.257a5.405,5.405,0,0,0-1.722-.854c-2.789-.78-5.77,1.178-7.948,2.608-.2.132-.4.26-.589.384.127.027.257.055.393.082l.352-.231c2.132-1.4,5.052-3.317,7.717-2.572a5.122,5.122,0,0,1,1.631.811l.866.631c.082-.055.163-.113.244-.171l-.061-.044Z" transform="translate(-199.689 -173.188)" fill="#008f85"/>
            </g>
          </g>
          <g id="Grupo_90795" data-name="Grupo 90795" transform="translate(0 0)">
            <g id="Grupo_90788" data-name="Grupo 90788" transform="translate(12.22 4.901)">
              <rect id="Rectángulo_33170" data-name="Rectángulo 33170" width="4.843" height="4.843" transform="translate(6.109 4.603) rotate(161.881)" fill="#cfd8dc"/>
              <rect id="Rectángulo_33171" data-name="Rectángulo 33171" width="3.293" height="4.843" transform="matrix(-0.95, 0.311, -0.311, -0.95, 5.373, 4.844)" fill="#37474f"/>
              <rect id="Rectángulo_33172" data-name="Rectángulo 33172" width="1.317" height="4.843" transform="translate(4.434 5.151) rotate(161.882)" fill="#fff"/>
            </g>
            <path id="Trazado_149822" data-name="Trazado 149822" d="M88.437,105.839l1.277,3.9a1.4,1.4,0,0,1-.892,1.76l-6.408,2.1a1.4,1.4,0,0,1-1.759-.892l-.337-1.031a1.4,1.4,0,0,0-1.76-.892l-7.586,2.482-.434-1.326,16.139-6.993A1.4,1.4,0,0,1,88.437,105.839Z" transform="translate(-70.538 -104.877)" fill="#fff"/>
            <g id="Grupo_90790" data-name="Grupo 90790" transform="translate(11.588 8.246)">
              <rect id="Rectángulo_33173" data-name="Rectángulo 33173" width="8.912" height="3.41" rx="1.662" transform="translate(0 2.771) rotate(-18.119)" fill="#37474f"/>
              <g id="Grupo_90789" data-name="Grupo 90789" transform="translate(0.928 0.767)">
                <path id="Trazado_149823" data-name="Trazado 149823" d="M125.927,131.1a.368.368,0,0,1,.464.236l.53,1.62a.368.368,0,0,1-.7.229l-.53-1.62A.368.368,0,0,1,125.927,131.1Z" transform="translate(-119.229 -131.086)" fill="#2a383e"/>
                <path id="Trazado_149824" data-name="Trazado 149824" d="M122.179,132.33a.368.368,0,0,1,.464.236l.53,1.62a.368.368,0,1,1-.7.229l-.53-1.62A.368.368,0,0,1,122.179,132.33Z" transform="translate(-116.77 -131.89)" fill="#2a383e"/>
                <path id="Trazado_149825" data-name="Trazado 149825" d="M118.431,133.557a.368.368,0,0,1,.464.235l.53,1.62a.368.368,0,0,1-.7.229l-.53-1.62A.368.368,0,0,1,118.431,133.557Z" transform="translate(-114.311 -132.695)" fill="#2a383e"/>
                <path id="Trazado_149826" data-name="Trazado 149826" d="M114.683,134.783a.368.368,0,0,1,.464.236l.53,1.62a.368.368,0,1,1-.7.229l-.53-1.62A.368.368,0,0,1,114.683,134.783Z" transform="translate(-111.852 -133.499)" fill="#2a383e"/>
                <path id="Trazado_149827" data-name="Trazado 149827" d="M110.935,136.009a.368.368,0,0,1,.464.236l.53,1.62a.368.368,0,1,1-.7.229l-.53-1.62A.368.368,0,0,1,110.935,136.009Z" transform="translate(-109.393 -134.304)" fill="#2a383e"/>
                <path id="Trazado_149828" data-name="Trazado 149828" d="M107.187,137.236a.368.368,0,0,1,.464.235l.53,1.62a.368.368,0,0,1-.7.229l-.53-1.62A.368.368,0,0,1,107.187,137.236Z" transform="translate(-106.934 -135.109)" fill="#2a383e"/>
              </g>
            </g>
            <path id="Trazado_149829" data-name="Trazado 149829" d="M74.227,110.911a18.879,18.879,0,0,1,5.785-1.207,1.753,1.753,0,0,1,.987.25,4.82,4.82,0,0,1,.688.841,2.24,2.24,0,0,0,1.824.654,6.628,6.628,0,0,0,1.93-.518,3.875,3.875,0,0,0,2.072-1.366c.9-1.485.188-3.221-1.042-4.529l.2-.089a1.4,1.4,0,0,1,1.76.892l1.277,3.9a1.4,1.4,0,0,1-.892,1.76l-6.408,2.1a1.4,1.4,0,0,1-1.759-.892l-.337-1.031a1.4,1.4,0,0,0-1.76-.892l-7.586,2.482-.434-1.326.963-.417A17.3,17.3,0,0,0,74.227,110.911Z" transform="translate(-70.538 -104.877)" fill="#cfd8dc"/>
            <g id="Grupo_90792" data-name="Grupo 90792" transform="translate(8.63 11.812)">
              <g id="Grupo_90791" data-name="Grupo 90791">
                <path id="Trazado_149830" data-name="Trazado 149830" d="M95.817,153.071c-1.3-5.616,4.744-11.7,4.744-11.7l1.726-.565,3.114-1.019,1.726-.565s8.471,1.333,10.74,6.632,5.7,21.117,4.463,23.052c-.606.942-3.037,2.664-6.1,3.979q-.187.08-.376.158a16.909,16.909,0,0,1-2.344.767q-.2.049-.393.095c-3.246.749-6.226.8-7.271.4C103.7,173.476,97.121,158.689,95.817,153.071Z" transform="translate(-95.633 -139.225)" fill="#cfd8dc"/>
                <path id="Trazado_149831" data-name="Trazado 149831" d="M116.3,174.492c.366-.12.732-.254,1.088-.4q.183-.075.362-.152c2.986-1.282,5.184-2.9,5.639-3.585.253-.562.171-3.606-1.089-9.742a77.1,77.1,0,0,0-3.444-12.381c-1.825-4.264-8.427-5.738-9.743-5.992l-6.081,1.99c-.91.981-5.365,6.074-4.318,10.593a77.186,77.186,0,0,0,4.541,12.022c2.612,5.7,4.345,8.2,4.881,8.5.772.284,3.5.29,6.669-.442l.378-.091C115.561,174.72,115.936,174.612,116.3,174.492Z" transform="translate(-97.553 -141.203)" fill="#fff"/>
              </g>
              <path id="Trazado_149832" data-name="Trazado 149832" d="M122.906,170.872c-2.134-5.872-4.193-11.9-5.124-15.008a26.531,26.531,0,0,1-.891-11.047l2.128-.7a26.514,26.514,0,0,1,5.811,9.437c1.085,3.053,2.989,9.135,4.74,15.134.81,2.777,1.433,5.007,1.9,6.74-.459.23-.94.455-1.438.669q-.187.08-.376.157a16.909,16.909,0,0,1-2.344.767q-.2.049-.393.095c-.528.122-1.049.225-1.556.311C124.71,175.757,123.894,173.59,122.906,170.872Z" transform="translate(-109.433 -142.437)" fill="#bdbdbd"/>
            </g>
            <g id="Grupo_90794" data-name="Grupo 90794" transform="translate(10.666 22.516)">
              <path id="Trazado_149833" data-name="Trazado 149833" d="M105.244,186.955a56.2,56.2,0,0,0,19.992-6.541l-2.8-10.061a56.264,56.264,0,0,1-20.885,6.834Z" transform="translate(-101.553 -170.352)" fill="#ebfdff"/>
              <g id="Grupo_90793" data-name="Grupo 90793" transform="translate(8.805 5.76)">
                <path id="Trazado_149834" data-name="Trazado 149834" d="M127.158,190.395q.947-.249,1.883-.53l-.638-1.914q1.308-.393,2.6-.849l.617,1.921q.922-.327,1.833-.686l.817,2.618q-.9.354-1.812.677l.593,1.846q-1.252.443-2.524.826l-.613-1.839q-.925.278-1.861.525Z" transform="translate(-127.158 -187.101)" fill="#0090b8"/>
              </g>
            </g>
          </g>
          <g id="Grupo_90798" data-name="Grupo 90798" transform="translate(2.267 23.581)">
            <path id="Trazado_149835" data-name="Trazado 149835" d="M90.7,207.832,97.183,282.4a4.481,4.481,0,0,0,4.464,4.093H143.36a4.481,4.481,0,0,0,4.464-4.093l6.485-74.569Z" transform="translate(-86.032 -196.007)" fill="#d93328"/>
            <path id="Trazado_149836" data-name="Trazado 149836" d="M146.7,224.689H108.094a6,6,0,0,0-5.974,6.517l5.371,57.863a2.943,2.943,0,0,0,2.932,2.688h38.513a2.943,2.943,0,0,0,2.943-2.943l-2.235-61.182A2.943,2.943,0,0,0,146.7,224.689Z" transform="translate(-93.511 -207.067)" fill="#b42218"/>
            <path id="Trazado_149837" data-name="Trazado 149837" d="M128.987,328.535h-7.745a1.924,1.924,0,0,0-1.917,2.091l2.1,24.132a1.922,1.922,0,0,0,2.707,1.586q2.8-1.275,5.885-2.432a2.942,2.942,0,0,0,1.912-2.752V331.475A2.94,2.94,0,0,0,128.987,328.535Z" transform="translate(-104.81 -275.202)" fill="#d93328"/>
            <path id="Trazado_149838" data-name="Trazado 149838" d="M148.423,173.447H78.781a1.813,1.813,0,0,0-1.65,1.959l.085,7.956a1.805,1.805,0,0,0,1.65,1.91h69.472a1.805,1.805,0,0,0,1.65-1.91l.085-7.956A1.814,1.814,0,0,0,148.423,173.447Z" transform="translate(-77.131 -173.447)" fill="#b42218"/>
            <g id="Grupo_90796" data-name="Grupo 90796" transform="translate(3.118 3.095)">
              <path id="Trazado_149839" data-name="Trazado 149839" d="M110.81,182.447H87.223a1.025,1.025,0,0,0-1.024,1.036l.038,3.585a1.025,1.025,0,0,0,1.025,1.014H93.9a.537.537,0,0,0,.394-.162c1.732-1.851,7.92-3.44,16.574-4.421a.529.529,0,0,0,.47-.523h0A.528.528,0,0,0,110.81,182.447Z" transform="translate(-86.199 -182.447)" fill="#d93328"/>
            </g>
            <g id="Grupo_90797" data-name="Grupo 90797" transform="translate(17.751 22.552)">
              <path id="Trazado_149840" data-name="Trazado 149840" d="M183.454,258.967c-.4-.232-.8-.435-1.159-.688a.522.522,0,0,1-.148-.443,2.245,2.245,0,0,0-1.537-2.6c-.111-.033-.266-.17-.272-.267-.03-.438-.013-.88-.013-1.313a7.423,7.423,0,0,0,1.406-14.609c1.919-.183,5.358,2.232,6.754,4.777a9.8,9.8,0,0,1,.563,8.344,9.78,9.78,0,0,1,7.862,12.609c.477-4.425-1.1-7.61-5.437-8.842C188.218,255.013,185.539,256.259,183.454,258.967Z" transform="translate(-162.586 -239.035)" fill="#f8f8f8"/>
              <path id="Trazado_149841" data-name="Trazado 149841" d="M166.371,306.171a9.735,9.735,0,0,1-14.984-.369,9.71,9.71,0,0,1-9.056,3.488,9.1,9.1,0,0,1-5.535-2.9c3.25,2.319,6.585,2.628,9.732,0,2.849-2.377,3.228-5.493,1.886-8.92.384-.226.771-.471,1.178-.676a.466.466,0,0,1,.373.1,2.21,2.21,0,0,0,2.943,0,.49.49,0,0,1,.418-.05c.4.2.771.437,1.158.663-1.5,3.859-.891,7.233,2.635,9.563C160.323,309.192,163.492,308.586,166.371,306.171Z" transform="translate(-134.029 -276.921)" fill="#f8f8f8"/>
              <path id="Trazado_149842" data-name="Trazado 149842" d="M142.737,258.9a7.5,7.5,0,0,0-9.017-2.82,7.307,7.307,0,0,0-3.824,3.551,7.634,7.634,0,0,0-.578,5.138c-1.8-4.212.655-11.553,7.667-12.71a9.712,9.712,0,0,1,7.384-13.034,7.684,7.684,0,0,0-4.177,2.833,7.219,7.219,0,0,0-1.43,4.872,7.492,7.492,0,0,0,6.937,6.919c0,.434.021.877-.013,1.314a.525.525,0,0,1-.29.326,2.243,2.243,0,0,0-1.408,2.548.529.529,0,0,1-.164.424C143.49,258.5,143.12,258.682,142.737,258.9Z" transform="translate(-128.748 -239.027)" fill="#f8f8f8"/>
              <path id="Trazado_149843" data-name="Trazado 149843" d="M158.1,298.824a9.211,9.211,0,0,1-5.616-9.146c.015-.287.094-.44.415-.356.538.141,1.088.246,1.61.427a.649.649,0,0,1,.343.485,6.883,6.883,0,0,0,3.538,6.1.532.532,0,0,1,.241.41C158.487,297.427,158.293,298.1,158.1,298.824Z" transform="translate(-144.312 -272.011)" fill="#f8f8f8"/>
              <path id="Trazado_149844" data-name="Trazado 149844" d="M194.373,289.375a9.078,9.078,0,0,1-5.531,9.576c-.183-.719-.377-1.42-.522-2.131-.02-.1.18-.286.317-.368a6.826,6.826,0,0,0,3.336-4.677,7.807,7.807,0,0,0,.134-1.372c.007-.269.069-.442.338-.513Z" transform="translate(-167.832 -272.061)" fill="#f8f8f8"/>
              <path id="Trazado_149845" data-name="Trazado 149845" d="M174.3,267.454c-.532.52-1.024,1.018-1.542,1.486a.47.47,0,0,1-.427.006,6.92,6.92,0,0,0-7.144-.007.51.51,0,0,1-.465-.022c-.509-.456-.987-.947-1.481-1.431A9.043,9.043,0,0,1,174.3,267.454Z" transform="translate(-151.381 -256.451)" fill="#f8f8f8"/>
            </g>
          </g>
        </g>
        <g id="Grupo_128851" data-name="Grupo 128851" transform="translate(236.776 115.693)">
          <g id="Grupo_90984" data-name="Grupo 90984" transform="translate(0 0)" clip-path="url(#clip-path)">
            <g id="Grupo_91824" data-name="Grupo 91824" transform="translate(12.034 7.702)">
              <path id="Trazado_150872" data-name="Trazado 150872" d="M928.974,1116.436c9.8-47.648,25.362-139.371,25.362-139.371l88.172-1.073c13.984,9.067,11.325,120.01,14.8,130.735s40.529,77.76,36.65,101.71-37.74,4.391-37.74,4.391-30.757-52.665-38.779-65.816c-9.042-14.82-11.707-24.5-11.707-24.5-9.959-21.651-14.709-57.466-14.709-57.466-1.516,36.909-13.462,66.184-12.186,72.048,0,0-15.875,79.157-21.08,85.023s-28.473,5.856-37.369-12.711C920.384,1209.405,922.524,1147.845,928.974,1116.436Z" transform="translate(-831.939 -720.004)" fill="url(#linear-gradient)"/>
              <path id="Trazado_150873" data-name="Trazado 150873" d="M993.173,999.307c-6.383-4.406-51.73,3.208-72.725-11,1.214-7.043,1.924-11.238,1.924-11.238l88.172-1.073c13.984,9.067,11.325,120.01,14.8,130.735,3.424,10.579,39.466,75.841,36.756,100.637l-42.544-2.573c-.138-.231-.264-.455-.4-.688,7.12-1.21,23.66-5.032,24.654-14.659,1.268-12.285-16.151-3.491-16.119-13.253.037-9.777,7.879-19.552,3.525-25.415s-24.706-7.656-24.077-24.84,8.043-35.75,0-49.436-20.018-20.521-17.5-36.154S1000.264,1004.192,993.173,999.307Z" transform="translate(-799.974 -720.004)" fill="url(#radial-gradient)"/>
              <path id="Trazado_150874" data-name="Trazado 150874" d="M1162.589,1260.3c-5.2,5.858-28.473,5.856-37.369-12.711,0,0,.215-6.045.705-15.3,3.958,1.847,23.973,10.712,30.192,4.563,6.905-6.846-7.487-29.317-4.195-45.934s15.035-15.775,17.838-29.392-8.533-23.381-5.037-33.152,16.516-34.207,13.909-44.959,9.616-18.926,9.616-18.926,3.448,18.2,7.458,41.732c-2.011,35.484-13.277,63.355-12.037,69.06C1183.669,1175.28,1167.795,1254.437,1162.589,1260.3Z" transform="translate(-1036.775 -758.191)" fill="#7999c6"/>
              <path id="Trazado_150875" data-name="Trazado 150875" d="M1189.479,1202.652s-27.154,28.489-40.477,33.225" transform="translate(-1042.549 -817.812)" fill="none" stroke="#5179aa" stroke-linecap="round" stroke-miterlimit="10" stroke-width="2.579"/>
              <path id="Trazado_150876" data-name="Trazado 150876" d="M1200.7,1248.207s-31.218,9.362-43.371,14.21" transform="translate(-1057.968 -837.469)" fill="none" stroke="#5179aa" stroke-linecap="round" stroke-miterlimit="10" stroke-width="2.579"/>
              <g id="Grupo_91823" data-name="Grupo 91823" transform="translate(29.174 0)">
                <g id="Grupo_91822" data-name="Grupo 91822">
                  <path id="Trazado_150877" data-name="Trazado 150877" d="M970.22,677.267a3.957,3.957,0,0,0,3.7,4.164h18.457a3.955,3.955,0,0,0,3.7-4.164h0a3.952,3.952,0,0,0-3.7-4.162H973.92a3.954,3.954,0,0,0-3.7,4.162Z" transform="translate(-788.101 -589.303)" fill="#00111c"/>
                  <path id="Trazado_150878" data-name="Trazado 150878" d="M1035.834,678.217a3.95,3.95,0,0,0,3.7,4.161h18.457a3.949,3.949,0,0,0,3.7-4.161h0a3.952,3.952,0,0,0-3.7-4.166h-18.457a3.953,3.953,0,0,0-3.7,4.166Z" transform="translate(-886.826 -589.711)" fill="#00111c"/>
                  <path id="Trazado_150879" data-name="Trazado 150879" d="M1012.506,681.379v12.706l-55.52.486,1.384-13.193Z" transform="translate(-797.852 -592.873)" fill="#00111c"/>
                  <g id="Grupo_91821" data-name="Grupo 91821">
                    <path id="Trazado_150880" data-name="Trazado 150880" d="M1221.25,834.766s-33.411-6.95-37.962-5.158-12.577,17.35.431,27.607,57.661,27.511,59.682,22.379S1241.682,838.433,1221.25,834.766Z" transform="translate(-1140.073 -656.709)" fill="url(#linear-gradient)"/>
                    <path id="Trazado_150881" data-name="Trazado 150881" d="M1212.338,716.621s-10.414,4.846-13.663,9.9,1.175,71.174,9.7,87.26S1212.338,716.621,1212.338,716.621Z" transform="translate(-1120.329 -608.081)" fill="url(#linear-gradient)"/>
                    <path id="Trazado_150882" data-name="Trazado 150882" d="M935.068,825.936c0,9.724,6.992,17.6,15.615,17.6h34c8.624,0,15.618-7.877,15.618-17.6V712.841c0-9.715-6.994-17.587-15.618-17.587h-34c-8.622,0-15.615,7.872-15.615,17.587Z" transform="translate(-774.586 -598.86)" fill="#db8804"/>
                    <path id="Trazado_150883" data-name="Trazado 150883" d="M935.068,825.936V712.841c0-9.715,6.986-17.587,15.613-17.587h5.277c8.624,0,15.618,7.872,15.618,17.587V825.936c0,9.724-6.994,17.6-15.618,17.6H950.68C942.054,843.537,935.068,835.66,935.068,825.936Z" transform="translate(-745.861 -598.86)" fill="#f7b242"/>
                    <g id="Grupo_91816" data-name="Grupo 91816" transform="translate(205.871 207.787)">
                      <path id="Trazado_150884" data-name="Trazado 150884" d="M952.956,907.936c-3.647,0-6.611-3.342-6.611-7.452s2.965-7.453,6.611-7.453,6.616,3.344,6.616,7.453S956.605,907.936,952.956,907.936Z" transform="translate(-945.418 -891.992)" fill="#a2c2e7"/>
                      <path id="Trazado_150885" data-name="Trazado 150885" d="M952.047,893.284c-3.14,0-5.687,2.878-5.687,6.411s2.547,6.413,5.687,6.413,5.693-2.874,5.693-6.413-2.547-6.411-5.693-6.411m0-2.081c4.158,0,7.542,3.808,7.542,8.492s-3.385,8.494-7.542,8.494-7.538-3.81-7.538-8.494,3.381-8.492,7.538-8.492Z" transform="translate(-944.509 -891.203)" fill="#00111c"/>
                    </g>
                    <g id="Grupo_91819" data-name="Grupo 91819" transform="translate(85.343 99.05)">
                      <g id="Grupo_91818" data-name="Grupo 91818">
                        <g id="Grupo_91817" data-name="Grupo 91817">
                          <path id="Trazado_150886" data-name="Trazado 150886" d="M1012.072,958.842s.014,14.381,3.055,15.416c0,0,52.165,14.444,92.5-7l1.133-13.328Z" transform="translate(-1007.247 -809.531)" fill="#1d272b"/>
                          <path id="Trazado_150887" data-name="Trazado 150887" d="M1060.951,699.926s37.87,9.571,43.032,16.4-9.972,62.971-11.382,69.327,5.545,54.949,4.135,61.829-65.438,18.687-96.42,1.754c0,0-1.739-74.707-1.739-76.3s-8.453-64.74,6-65.464c3.767-.182,19.813-7.55,19.813-7.55Z" transform="translate(-995.492 -699.926)" fill="#ecedea"/>
                          <path id="Trazado_150888" data-name="Trazado 150888" d="M1112.842,852.163c-1.409,6.875-65.437,18.687-96.419,1.754,0,0-1.739-74.707-1.739-76.3s-8.453-64.74,6-65.464a22.051,22.051,0,0,0,5.023-1.384l8.687,8.17h41.881s28.491,10.543,30.947,18.609c1.35,4.439,1.569,26.079,2.46,48.769-.471,1.881-.816,3.282-.978,4.013C1107.3,796.676,1114.251,845.284,1112.842,852.163Z" transform="translate(-1011.597 -704.607)" fill="url(#linear-gradient)"/>
                          <path id="Trazado_150889" data-name="Trazado 150889" d="M966.523,976.545S935.437,954.8,961.97,934.59c17.677-13.455,138.887,32.364,115.88-25.473" transform="translate(-948.538 -790.196)" fill="none" stroke="#1d272d" stroke-linecap="round" stroke-miterlimit="10" stroke-width="7.736"/>
                          <path id="Trazado_150890" data-name="Trazado 150890" d="M1203.448,711.742s-4.871,83.132-5.732,117.119c0,0-8.139-79.3-1.847-107.435C1197.98,711.96,1198.52,711.742,1203.448,711.742Z" transform="translate(-1193.482 -705.025)" fill="#1d272b"/>
                          <path id="Trazado_150891" data-name="Trazado 150891" d="M1030.84,716.24s-35.6,64.268,2.917,121.767c0,0,5.285,6.671,0,9.364,0,0-29.888-26.052-25.989-77.158,0,0,4.449-38.768,17.406-56.176C1025.174,714.037,1029.622,711.423,1030.84,716.24Z" transform="translate(-932.244 -705.71)" fill="#1d272b"/>
                          <path id="Trazado_150892" data-name="Trazado 150892" d="M1079.47,797.28h19.4V782.7h-19.4Z" transform="translate(-1031.374 -735.644)" fill="#008f85"/>
                          <rect id="Rectángulo_34024" data-name="Rectángulo 34024" width="15.912" height="2.263" transform="translate(48.768 53.213)" fill="#1d272b"/>
                          <path id="Trazado_150893" data-name="Trazado 150893" d="M1095.775,770.918l1.3,9.409h3.541l.264-9.409Z" transform="translate(-1041.601 -730.56)" fill="#1d272b"/>
                        </g>
                      </g>
                    </g>
                    <path id="Trazado_150894" data-name="Trazado 150894" d="M1054.6,536.384c2.73-2.5,12.7-9.162,28.437-10.632,10.848-1.006,21.9,10.772,29.677,21.256,5.829,7.868,2.817,31.7,1.224,42.275,0,0,2.856,31.371.329,40.184,0,0-45.538,10.6-50.856,9.54s-12.537-6.7-15.033-12.338-2.289-33.676-2.289-33.676S1048.028,542.386,1054.6,536.384Z" transform="translate(-946.46 -525.691)" fill="#ecedea"/>
                    <path id="Trazado_150895" data-name="Trazado 150895" d="M1060.609,575.953s-.9-20.163,2.817-24.925,27.866-5.135,33.681-2.572,7.773,29.957,7.449,37.518c0,0,11.713-7.206,13.333-4.586s-13.663,5.341-12.681,8.376,10.731,1.974,11.38,5.8-12.032-1.763-12.685,1.219-2.279,1.223.653,4.484,15.287,5.46,11.384,7.656-15.033-5.012-14.672-1.954,18.9,9.644,15.321,11.665-15.977-5.336-15.634-2.025,18.587,9.7,13.375,10.35c-5.228.655-10.138-2.847-13.375,0-2.356,2.078-1.131,10.517-.276,16.329-12.689,2.684-26.905,5.423-29.738,4.859-4.374-.869-10.012-4.834-13.279-9.343-.294-8.918-1.153-32.321,1.768-47.608Z" transform="translate(-953.987 -534.835)" fill="url(#linear-gradient)"/>
                    <path id="Trazado_150896" data-name="Trazado 150896" d="M1092.129,582.111a35.472,35.472,0,0,0-.258,14.008,19.5,19.5,0,0,1-.254,8.465c-1.207,4-2.446,22.069,2.084,30.458,3.191,5.9,21.8,11.052,30.823,0,7.491-9.171,8.5-28.935,8.291-35.517s-1.808-24.347-16.738-22.768C1102.193,578.222,1092.84,575.613,1092.129,582.111Z" transform="translate(-985.559 -547.684)" fill="#fca977"/>
                    <path id="Trazado_150897" data-name="Trazado 150897" d="M1113.37,592.588s-3.024.557-.834,2.321,7.885.624,11.169,1.326a5.987,5.987,0,0,0-2.706-2.523C1118.808,592.47,1113.37,592.588,1113.37,592.588Z" transform="translate(-987.146 -554.557)" fill="#1a1715"/>
                    <path id="Trazado_150898" data-name="Trazado 150898" d="M1164.932,595.8s2.035.555.562,2.316-4.45.439-6.661,1.146a1.261,1.261,0,0,1-.033-2.2C1160.274,595.834,1164.932,595.8,1164.932,595.8Z" transform="translate(-1052.891 -555.946)" fill="#1a1715"/>
                    <path id="Trazado_150899" data-name="Trazado 150899" d="M1127.963,613.371c0,1.653-.682,3-1.514,3s-1.514-1.346-1.514-3,.676-3,1.514-3S1127.963,611.712,1127.963,613.371Z" transform="translate(-998.062 -562.232)" fill="#1a1715"/>
                    <path id="Trazado_150900" data-name="Trazado 150900" d="M1163.382,613.371c0,1.653-.477,3-1.066,3s-1.072-1.346-1.072-3,.477-3,1.072-3S1163.382,611.713,1163.382,613.371Z" transform="translate(-1051.805 -562.232)" fill="#1a1715"/>
                    <path id="Trazado_150901" data-name="Trazado 150901" d="M1140.187,610.533s.489,9.784-1.666,11.912-19.886-2.721-21.143-3.633c0,0-11.514,3.7-11.615,2.949s-1.051-10.157-.5-13.341l29.358-.837Z" transform="translate(-1000.32 -561.028)" fill="#8e2f2b" opacity="0.5" style="mix-blend-mode: multiply;isolation: isolate"/>
                    <g id="Grupo_91820" data-name="Grupo 91820" transform="translate(103.757 46.249)">
                      <path id="Trazado_150902" data-name="Trazado 150902" d="M1117.064,607.049l.106,0h0Z" transform="translate(-1087.055 -607.047)" fill="#1d272b"/>
                      <path id="Trazado_150903" data-name="Trazado 150903" d="M1102.248,608.251l1.674-.069c-.138,1.323-1,10.5,1.332,11.642,0,0,7.84-2.3,10.661-2.3s15.774,4.5,18.686,3.489,2.1-10.7,2.1-10.7l-4.295-3.237,6.952,3.237s2.113,12.858-2.557,13.957-18.979-5.312-21.908-4.394-10.18,3.715-11.432,2.774S1102.248,608.251,1102.248,608.251Z" transform="translate(-1102.248 -607.06)" fill="#1d272b"/>
                    </g>
                    <path id="Trazado_150904" data-name="Trazado 150904" d="M1134.192,612.317s-8.774-4.535-12.261-5.42-29.88-.7-31.237,0c0,0-.895,1.43,1.686,1.718,0,0,23.769-1.7,29.551,0l11.92,5.041Z" transform="translate(-986.936 -560.476)" fill="#1d272b"/>
                    <path id="Trazado_150905" data-name="Trazado 150905" d="M1124.322,633.074a7.973,7.973,0,0,1,5.963,0c4.164,1.437,13.966,8.163,14.251,10.855s-5.681,17.589-12.441,19.664c-4.9,1.508-13.538-1.965-17.11-15.7,0,0-.723-5.823.883-8.974S1124.322,633.074,1124.322,633.074Z" transform="translate(-1009.541 -571.791)" fill="#eeebf5"/>
                    <path id="Trazado_150906" data-name="Trazado 150906" d="M1091.115,642.419s11.839-8.41,13.2-9.9l-.142,3.28-11.832,8.125Z" transform="translate(-957.349 -571.791)" fill="#eeebf5"/>
                    <path id="Trazado_150907" data-name="Trazado 150907" d="M1099.355,667.923s9.75-1.137,11.987-1.943l-.79,1.943-11.812,2.107Z" transform="translate(-968.222 -586.228)" fill="#eeebf5"/>
                    <path id="Trazado_150908" data-name="Trazado 150908" d="M1043.822,693.665l-5.606,9.035s7.1,18.527,24.834,20.73,53.52-19.786,53.52-19.786l-4.844-12.855s-35.62,20.461-50.46,16.4C1044.881,702.7,1043.822,693.665,1043.822,693.665Z" transform="translate(-942.907 -596.933)" fill="#008f85"/>
                    <path id="Trazado_150909" data-name="Trazado 150909" d="M1042.793,711.76l35.3-16.506,3.88,10.317s-25.171,15.463-43.756,19.153Z" transform="translate(-908.309 -598.86)" fill="#008f85"/>
                    <path id="Trazado_150910" data-name="Trazado 150910" d="M1064.458,707.184c14.84,4.066,50.46-16.4,50.46-16.4l1.484,3.928c-9.73,5.561-35.46,19.269-49.64,17.512-11.331-1.41-18.319-9.469-21.888-15.118l2.141-3.446S1048.072,702.7,1064.458,707.184Z" transform="translate(-946.098 -596.933)" fill="#1d272b"/>
                    <path id="Trazado_150911" data-name="Trazado 150911" d="M1043.389,728.585s-9.111-2.936-15.614,11.2-11.309,64.2-11.309,64.2-41.126,62.34-44.952,64.439.6,16.188,12.153,18.331c7.91,1.468,55.039-47.853,58.985-55.889,0,0,1.95,1.466,14.4-71.624C1059.217,746.539,1054.345,728.33,1043.389,728.585Z" transform="translate(-849.555 -613.134)" fill="#ecedea"/>
                    <path id="Trazado_150912" data-name="Trazado 150912" d="M1330.4,823.772s4.207,17.213-5.632,22.744l-15.545-10.694s-9.036,1.767-11.561,1.485-16.679-6.873-17.938-9.142.433-10.273,1.95-13.686,8.924-3.324,11.2-3.886,7.061-.286,9.08,0,3.785,2.558,4.544,4.261,7.579,6.049,9.349,6.9S1330.4,823.772,1330.4,823.772Z" transform="translate(-1279.277 -648.488)" fill="#f7b242"/>
                  </g>
                </g>
                <path id="Trazado_150913" data-name="Trazado 150913" d="M999.7,838.906s23.743,4.506,23.406,19.97" transform="translate(-830.008 -660.849)" fill="none" stroke="#868695" stroke-linecap="round" stroke-miterlimit="10" stroke-width="2.579"/>
                <line id="Línea_1693" data-name="Línea 1693" y1="2.771" x2="26.405" transform="translate(172.131 172.604)" fill="none" stroke="#868695" stroke-linecap="round" stroke-miterlimit="10" stroke-width="2.579"/>
                <path id="Trazado_150914" data-name="Trazado 150914" d="M981.943,811.8s19.035-14.509,24.077-18.269" transform="translate(-803.96 -641.269)" fill="none" stroke="#868695" stroke-linecap="round" stroke-miterlimit="10" stroke-width="2.579"/>
              </g>
              <path id="Trazado_150915" data-name="Trazado 150915" d="M1300.025,786.633a19.118,19.118,0,0,0-4.879,19.784l72.157,15.755.526-4.51Z" transform="translate(-1294.146 -638.292)" fill="#1d272b"/>
              <path id="Trazado_150916" data-name="Trazado 150916" d="M1337.88,810.488s-3.124.8-4.342,2.425-2.386,6.4-1.3,8.277,5-2.53,5.646-4.115c0,0,3.057.111,4.767-1" transform="translate(-1287.968 -648.586)" fill="#f7b242"/>
              <path id="Trazado_150917" data-name="Trazado 150917" d="M1358.926,834.214a2.082,2.082,0,0,1-1.947,2.2h0a2.084,2.084,0,0,1-1.95-2.2v-9.284a2.081,2.081,0,0,1,1.95-2.2h0a2.079,2.079,0,0,1,1.947,2.2Z" transform="translate(-1315.966 -653.869)" fill="#f7b242"/>
              <path id="Trazado_150918" data-name="Trazado 150918" d="M1366.036,831.787a2.087,2.087,0,0,1-1.957,2.2h0a2.084,2.084,0,0,1-1.952-2.2v-9.282a2.083,2.083,0,0,1,1.952-2.2h0a2.086,2.086,0,0,1,1.957,2.2Z" transform="translate(-1326.658 -652.824)" fill="#f7b242"/>
              <path id="Trazado_150919" data-name="Trazado 150919" d="M1373.776,829.977a2.084,2.084,0,0,1-1.945,2.194h0a2.089,2.089,0,0,1-1.958-2.194v-9.288a2.086,2.086,0,0,1,1.958-2.2h0a2.08,2.08,0,0,1,1.945,2.2Z" transform="translate(-1338.307 -652.04)" fill="#f7b242"/>
              <path id="Trazado_150920" data-name="Trazado 150920" d="M1381.508,829.165a2.083,2.083,0,0,1-1.949,2.2h0a2.086,2.086,0,0,1-1.952-2.2v-9.28a2.087,2.087,0,0,1,1.952-2.205h0a2.085,2.085,0,0,1,1.949,2.205Z" transform="translate(-1349.942 -651.689)" fill="#f7b242"/>
              <path id="Trazado_150921" data-name="Trazado 150921" d="M1115.373,842.555a36.5,36.5,0,0,1,22.99,22.451c6.5,18.076,5.642,175.908,35.089,198.625,0,0,42.993,26.568,33.809-40.311-8.006-58.283-20.3-78.428-20.3-78.428" transform="translate(-1044.648 -662.423)" fill="none" stroke="#1d272d" stroke-linecap="round" stroke-miterlimit="10" stroke-width="7.736"/>
              <path id="Trazado_150922" data-name="Trazado 150922" d="M1133.937,975.992l-11.7,16.59s-2.006-.134-5.965,2.447-6.614,1.636-7.4,4.656-1.318,2.307-.8,4.257-4.316,5.33-4,8.8,6.525,6.968,10.98,9.224c1.122.562,8.587,1.384,11.678-.682s6.756-15.3,8.323-18.307,14.368-14.861,14.368-14.861S1144.02,979.292,1133.937,975.992Z" transform="translate(-979.802 -720.004)" fill="#f7b242"/>
              <path id="Trazado_150923" data-name="Trazado 150923" d="M892.462,1419.553s-22.522,24.348-23.878,25.5-.55,4.133.357,5.325,54.842-23.965,58.144-25.537,7.532-2.94,8.453-4.887-2.151-12.833-8.082-20.923l-17.767-41.115s.187-6-3.363-6.444c0,0-21.211,13.954-39.529,19.752,0,0,3.893,7.177,7.215,10.544C881.119,1388.962,892.462,1419.553,892.462,1419.553Z" transform="translate(-646.357 -882.029)" fill="#00111c"/>
              <path id="Trazado_150924" data-name="Trazado 150924" d="M1215.006,1434.314s-30.756,6-32.451,6.1-2.512,3.078-2.342,4.635,57.357,14.674,60.874,15.451,7.706,2.305,9.438,1.268,4.583-12,3.682-22.44l5.677-45.279s3.126-4.854.4-7.461c0,0-24.5-1.783-42.577-8.519,0,0-.329,8.405.755,13.291C1220.79,1401.806,1215.006,1434.314,1215.006,1434.314Z" transform="translate(-1130.212 -893.509)" fill="#00111c"/>
              <path id="Trazado_150925" data-name="Trazado 150925" d="M1016.616,1209.52s-6.731,24.245-13.282,43.982" transform="translate(-796.177 -820.775)" fill="none" stroke="#5179aa" stroke-linecap="round" stroke-miterlimit="10" stroke-width="2.579"/>
              <path id="Trazado_150926" data-name="Trazado 150926" d="M1006.02,1240.6s-16.062,30.567-24.077,37.06" transform="translate(-774.785 -834.188)" fill="none" stroke="#5179aa" stroke-linecap="round" stroke-miterlimit="10" stroke-width="2.579"/>
            </g>
          </g>
        </g>
      </g>
      <g id="Grupo_127707" data-name="Grupo 127707" transform="translate(954.152 19645.234)">
        <path id="Trazado_163848" data-name="Trazado 163848" d="M202.862,339.612a5.258,5.258,0,0,0,5.87,4.572l12.537-1.578a5.258,5.258,0,0,0,4.571-5.879h0a5.262,5.262,0,0,0-5.883-4.558l-12.525,1.573a5.256,5.256,0,0,0-4.571,5.87Z" transform="translate(-202.821 -239.338)" fill="#1d272b"/>
        <path id="Trazado_163849" data-name="Trazado 163849" d="M213.185,399.976c13.731,26.578,43.182,30.187,74.785,15.823,31.586-14.35,46.572-50.315,29.42-74.811-14.442-20.617-44.4-28.862-74.1-10.3C212.274,350.075,200.4,375.228,213.185,399.976Z" transform="translate(-185.049 -278.894)" fill="#1d272b"/>
        <path id="Trazado_163850" data-name="Trazado 163850" d="M213.025,390.592c8.668,20.394,37.865,26.517,65.241,13.622,27.376-12.877,42.559-39.878,33.908-60.286S274.3,317.411,246.937,330.3C219.544,343.187,204.375,370.175,213.025,390.592Z" transform="translate(-176.717 -268.15)" fill="url(#linear-gradient)"/>
        <path id="Trazado_163851" data-name="Trazado 163851" d="M221.242,350.615c3.591,5.582,11.5,6.9,17.693,2.924s8.276-11.714,4.689-17.3-11.509-6.9-17.684-2.924C219.747,337.285,217.651,345.024,221.242,350.615Z" transform="translate(-146.856 -243.06)" fill="#db8804"/>
        <path id="Trazado_163852" data-name="Trazado 163852" d="M216.2,350.8c3.791,4.035,11.047,3.1,16.237-2.1,5.173-5.2,6.31-12.677,2.528-16.7s-11.051-3.1-16.229,2.1S212.422,346.759,216.2,350.8Z" transform="translate(-165.386 -248.194)" fill="#db8804"/>
        <path id="Trazado_163853" data-name="Trazado 163853" d="M249.241,335.247c.357,5.521-5.29,10.171-12.633,10.415-7.33.222-13.566-4.066-13.923-9.579s5.29-10.184,12.625-10.406C242.652,325.437,248.883,329.726,249.241,335.247Z" transform="translate(-136.175 -261.025)" fill="#db8804"/>
        <path id="Trazado_163854" data-name="Trazado 163854" d="M214.655,346.913c-.405-4.855,4.493-9.047,10.951-9.378s12.006,3.356,12.411,8.2-4.493,9.051-10.943,9.374S215.06,351.767,214.655,346.913Z" transform="translate(-163.161 -221.242)" fill="#db8804"/>
        <path id="Trazado_163855" data-name="Trazado 163855" d="M248.373,332.8c-3.857-3.961-11.1-2.885-16.2,2.4-5.073,5.295-6.066,12.795-2.214,16.756s11.1,2.894,16.189-2.406S252.234,336.772,248.373,332.8Z" transform="translate(-119.57 -245.105)" fill="#db8804"/>
        <path id="Trazado_163856" data-name="Trazado 163856" d="M243.1,341.118c-2.31-4.284-8.694-5.121-14.294-1.878-5.574,3.251-8.232,9.361-5.922,13.649s8.7,5.134,14.285,1.878S245.407,345.419,243.1,341.118Z" transform="translate(-138.242 -222.084)" fill="#db8804"/>
        <path id="Trazado_163857" data-name="Trazado 163857" d="M213.744,407.063V376.2l65.727-39.965V258.227L266.623,271.9l-2.037,55.631-60.648,47.574.728,33.773Z" transform="translate(-199.066 -310.834)" fill="#1d272b"/>
      </g>
    </g>
    <g id="Grupo_128963" data-name="Grupo 128963" transform="translate(-6337.266 2490.373)">
      <path id="Trazado_166084" data-name="Trazado 166084" d="M1.27,0V-14.219H5.645A6.644,6.644,0,0,1,9-13.374a5.89,5.89,0,0,1,2.31,2.4,7.41,7.41,0,0,1,.83,3.54v.654a7.431,7.431,0,0,1-.815,3.525,5.84,5.84,0,0,1-2.3,2.393A6.694,6.694,0,0,1,5.674,0ZM4.2-11.846v9.492H5.615A3.181,3.181,0,0,0,8.242-3.477,5.075,5.075,0,0,0,9.17-6.689v-.752a5.156,5.156,0,0,0-.9-3.286,3.171,3.171,0,0,0-2.627-1.118ZM22.822-6.162H17.2v3.809h6.6V0H14.268V-14.219h9.512v2.373H17.2v3.389h5.625ZM32.891-3.73A1.5,1.5,0,0,0,32.3-5,7.685,7.685,0,0,0,30.2-5.942a14.953,14.953,0,0,1-2.412-.972,3.941,3.941,0,0,1-2.422-3.525,3.434,3.434,0,0,1,.649-2.056,4.236,4.236,0,0,1,1.865-1.411,7.02,7.02,0,0,1,2.729-.508,6.39,6.39,0,0,1,2.715.552A4.323,4.323,0,0,1,35.171-12.3a4.076,4.076,0,0,1,.659,2.285H32.9a1.917,1.917,0,0,0-.615-1.519,2.529,2.529,0,0,0-1.729-.542,2.7,2.7,0,0,0-1.67.454,1.432,1.432,0,0,0-.6,1.2,1.372,1.372,0,0,0,.7,1.162,7.889,7.889,0,0,0,2.056.879,8.882,8.882,0,0,1,3.643,1.865A3.715,3.715,0,0,1,35.83-3.75a3.422,3.422,0,0,1-1.4,2.9A6.113,6.113,0,0,1,30.674.2a7.26,7.26,0,0,1-2.988-.6A4.729,4.729,0,0,1,25.63-2.051a4.214,4.214,0,0,1-.708-2.422h2.939q0,2.354,2.813,2.354A2.736,2.736,0,0,0,32.3-2.544,1.382,1.382,0,0,0,32.891-3.73ZM40.928,0H38V-14.219h2.93ZM55.205,0h-2.93l-5.7-9.355V0h-2.93V-14.219h2.93l5.713,9.375v-9.375h2.92ZM66.318-5.811H60.693V0h-2.93V-14.219h9.258v2.373H60.693v3.672h5.625Zm10.957-.352H71.65v3.809h6.6V0H68.721V-14.219h9.512v2.373H71.65v3.389h5.625ZM91.133-4.736a5.031,5.031,0,0,1-1.694,3.613A5.951,5.951,0,0,1,85.41.2a5.351,5.351,0,0,1-4.3-1.841A7.548,7.548,0,0,1,79.541-6.7v-.869a8.523,8.523,0,0,1,.723-3.613,5.416,5.416,0,0,1,2.065-2.4,5.786,5.786,0,0,1,3.12-.835A5.8,5.8,0,0,1,89.414-13.1a5.407,5.407,0,0,1,1.738,3.7h-2.93a2.97,2.97,0,0,0-.767-2,2.839,2.839,0,0,0-2.007-.62,2.489,2.489,0,0,0-2.192,1.05,5.883,5.883,0,0,0-.747,3.257v1.074a6.3,6.3,0,0,0,.7,3.369A2.443,2.443,0,0,0,85.41-2.2a2.892,2.892,0,0,0,2.026-.62A2.8,2.8,0,0,0,88.2-4.736Zm13.086,0a5.031,5.031,0,0,1-1.694,3.613A5.951,5.951,0,0,1,98.5.2a5.351,5.351,0,0,1-4.3-1.841A7.548,7.548,0,0,1,92.627-6.7v-.869a8.523,8.523,0,0,1,.723-3.613,5.416,5.416,0,0,1,2.065-2.4,5.786,5.786,0,0,1,3.12-.835A5.8,5.8,0,0,1,102.5-13.1a5.407,5.407,0,0,1,1.738,3.7h-2.93a2.97,2.97,0,0,0-.767-2,2.839,2.839,0,0,0-2.007-.62,2.489,2.489,0,0,0-2.192,1.05A5.883,5.883,0,0,0,95.6-7.705v1.074a6.3,6.3,0,0,0,.7,3.369A2.443,2.443,0,0,0,98.5-2.2a2.892,2.892,0,0,0,2.026-.62,2.8,2.8,0,0,0,.767-1.919ZM109.258,0h-2.93V-14.219h2.93Zm14.395-6.787a8.584,8.584,0,0,1-.742,3.682,5.589,5.589,0,0,1-2.124,2.441A5.875,5.875,0,0,1,117.617.2a5.915,5.915,0,0,1-3.154-.85,5.644,5.644,0,0,1-2.148-2.427,8.338,8.338,0,0,1-.771-3.628v-.7a8.538,8.538,0,0,1,.757-3.7,5.635,5.635,0,0,1,2.139-2.451,5.883,5.883,0,0,1,3.159-.854,5.883,5.883,0,0,1,3.159.854,5.635,5.635,0,0,1,2.139,2.451,8.514,8.514,0,0,1,.757,3.687Zm-2.969-.645a5.984,5.984,0,0,0-.8-3.4,2.61,2.61,0,0,0-2.285-1.162,2.611,2.611,0,0,0-2.275,1.147,5.915,5.915,0,0,0-.811,3.364v.693a6.058,6.058,0,0,0,.8,3.379,2.6,2.6,0,0,0,2.3,1.2,2.579,2.579,0,0,0,2.266-1.157,6.023,6.023,0,0,0,.8-3.374Zm-2.52-10.6h3.076L118.535-15H116.24ZM137.344,0h-2.93l-5.7-9.355V0h-2.93V-14.219h2.93l5.713,9.375v-9.375h2.92Z" transform="translate(360 5436)" fill="#008f85"/>
      <path id="Trazado_166085" data-name="Trazado 166085" d="M4.409-2.471h6.532V0H1.333V-14.93H4.409Zm16.919-.6H15.935L14.909,0H11.638L17.2-14.93h2.851L25.635,0H22.364ZM16.765-5.568H20.5l-1.876-5.588ZM27.029,0V-14.93h5.229a6.867,6.867,0,0,1,4.122,1.041,3.559,3.559,0,0,1,1.4,3.051,3.373,3.373,0,0,1-.564,1.933A3.258,3.258,0,0,1,35.653-7.68a3.152,3.152,0,0,1,1.81,1.159,3.426,3.426,0,0,1,.661,2.133A3.94,3.94,0,0,1,36.75-1.128,6.186,6.186,0,0,1,32.833,0Zm3.076-6.5v4.03h2.635a2.543,2.543,0,0,0,1.7-.518,1.776,1.776,0,0,0,.61-1.43A1.875,1.875,0,0,0,32.925-6.5Zm0-2.174h2.276q2.328-.041,2.328-1.856a1.715,1.715,0,0,0-.59-1.461,3.1,3.1,0,0,0-1.861-.446H30.105ZM52.695-7.126a9.013,9.013,0,0,1-.779,3.866A5.869,5.869,0,0,1,49.685-.7a6.169,6.169,0,0,1-3.327.9,6.211,6.211,0,0,1-3.312-.892A5.926,5.926,0,0,1,40.79-3.235a8.755,8.755,0,0,1-.81-3.809v-.738a8.965,8.965,0,0,1,.795-3.881,5.917,5.917,0,0,1,2.246-2.574,6.177,6.177,0,0,1,3.317-.9,6.177,6.177,0,0,1,3.317.9A5.917,5.917,0,0,1,51.9-11.664a8.94,8.94,0,0,1,.795,3.871ZM49.578-7.8a6.283,6.283,0,0,0-.841-3.568,2.74,2.74,0,0,0-2.4-1.22,2.741,2.741,0,0,0-2.389,1.2A6.211,6.211,0,0,0,43.1-7.854v.728a6.361,6.361,0,0,0,.841,3.548,2.733,2.733,0,0,0,2.42,1.261,2.708,2.708,0,0,0,2.379-1.215,6.324,6.324,0,0,0,.841-3.543ZM60.457-5.465H58.006V0H54.93V-14.93h5.547a6.271,6.271,0,0,1,4.081,1.179,4.07,4.07,0,0,1,1.436,3.333,4.593,4.593,0,0,1-.661,2.548,4.511,4.511,0,0,1-2,1.625l3.23,6.1V0h-3.3ZM58.006-7.957h2.481a2.541,2.541,0,0,0,1.794-.59,2.107,2.107,0,0,0,.636-1.625,2.256,2.256,0,0,0-.6-1.661,2.493,2.493,0,0,0-1.841-.6H58.006ZM76.761-3.076H71.367L70.342,0H67.071l5.558-14.93h2.851L81.067,0H77.8ZM72.2-5.568H75.93l-1.876-5.588Zm20.272-6.87H87.9V0H84.82V-12.438H80.309V-14.93H92.47ZM106.2-7.126a9.013,9.013,0,0,1-.779,3.866A5.869,5.869,0,0,1,103.19-.7a6.169,6.169,0,0,1-3.327.9,6.211,6.211,0,0,1-3.312-.892,5.926,5.926,0,0,1-2.256-2.548,8.755,8.755,0,0,1-.81-3.809v-.738a8.965,8.965,0,0,1,.795-3.881,5.917,5.917,0,0,1,2.246-2.574,6.177,6.177,0,0,1,3.317-.9,6.177,6.177,0,0,1,3.317.9,5.917,5.917,0,0,1,2.246,2.574,8.94,8.94,0,0,1,.795,3.871ZM103.083-7.8a6.283,6.283,0,0,0-.841-3.568,2.74,2.74,0,0,0-2.4-1.22,2.741,2.741,0,0,0-2.389,1.2A6.211,6.211,0,0,0,96.6-7.854v.728a6.361,6.361,0,0,0,.841,3.548,2.733,2.733,0,0,0,2.42,1.261,2.708,2.708,0,0,0,2.379-1.215,6.324,6.324,0,0,0,.841-3.543Zm10.879,2.338h-2.451V0h-3.076V-14.93h5.547a6.271,6.271,0,0,1,4.081,1.179,4.07,4.07,0,0,1,1.436,3.333,4.593,4.593,0,0,1-.661,2.548,4.511,4.511,0,0,1-2,1.625l3.23,6.1V0h-3.3Zm-2.451-2.492h2.481a2.541,2.541,0,0,0,1.794-.59,2.107,2.107,0,0,0,.636-1.625,2.256,2.256,0,0,0-.6-1.661,2.493,2.493,0,0,0-1.841-.6h-2.471ZM125.108,0h-3.076V-14.93h3.076Zm15.114-7.126a9.013,9.013,0,0,1-.779,3.866A5.869,5.869,0,0,1,137.213-.7a6.169,6.169,0,0,1-3.327.9,6.211,6.211,0,0,1-3.312-.892,5.926,5.926,0,0,1-2.256-2.548,8.755,8.755,0,0,1-.81-3.809v-.738a8.965,8.965,0,0,1,.795-3.881,5.917,5.917,0,0,1,2.246-2.574,6.177,6.177,0,0,1,3.317-.9,6.177,6.177,0,0,1,3.317.9,5.917,5.917,0,0,1,2.246,2.574,8.94,8.94,0,0,1,.795,3.871ZM137.1-7.8a6.283,6.283,0,0,0-.841-3.568,2.74,2.74,0,0,0-2.4-1.22,2.741,2.741,0,0,0-2.389,1.2,6.211,6.211,0,0,0-.851,3.532v.728a6.361,6.361,0,0,0,.841,3.548,2.733,2.733,0,0,0,2.42,1.261,2.708,2.708,0,0,0,2.379-1.215,6.324,6.324,0,0,0,.841-3.543Zm21.205-4.635h-4.573V0h-3.076V-12.438h-4.512V-14.93H158.31Zm8.952,9.362h-5.394L160.843,0h-3.271l5.558-14.93h2.851L171.568,0H168.3ZM162.7-5.568h3.732l-1.876-5.588ZM185.1,0h-3.076l-5.988-9.823V0h-3.076V-14.93h3.076l6,9.844V-14.93H185.1Zm11.115-3.076h-5.394L189.8,0h-3.271l5.558-14.93h2.851L200.525,0h-3.271Zm-4.563-2.492h3.732l-1.876-5.588Zm20.272-6.87h-4.573V0h-3.076V-12.438h-4.512V-14.93h12.161Zm13.73,5.312a9.013,9.013,0,0,1-.779,3.866A5.869,5.869,0,0,1,222.648-.7a6.169,6.169,0,0,1-3.327.9,6.211,6.211,0,0,1-3.312-.892,5.926,5.926,0,0,1-2.256-2.548,8.755,8.755,0,0,1-.81-3.809v-.738a8.965,8.965,0,0,1,.795-3.881,5.917,5.917,0,0,1,2.246-2.574,6.177,6.177,0,0,1,3.317-.9,6.177,6.177,0,0,1,3.317.9,5.917,5.917,0,0,1,2.246,2.574,8.94,8.94,0,0,1,.795,3.871ZM222.541-7.8a6.283,6.283,0,0,0-.841-3.568,2.74,2.74,0,0,0-2.4-1.22,2.741,2.741,0,0,0-2.389,1.2,6.211,6.211,0,0,0-.851,3.532v.728a6.361,6.361,0,0,0,.841,3.548,2.733,2.733,0,0,0,2.42,1.261A2.708,2.708,0,0,0,221.7-3.532a6.324,6.324,0,0,0,.841-3.543Zm8.429,2.543V0h-3.076V-14.93h5.824a6.738,6.738,0,0,1,2.958.615,4.534,4.534,0,0,1,1.964,1.748,4.875,4.875,0,0,1,.687,2.579,4.287,4.287,0,0,1-1.5,3.461,6.257,6.257,0,0,1-4.158,1.266Zm0-2.492h2.748a2.7,2.7,0,0,0,1.861-.574,2.088,2.088,0,0,0,.641-1.641,2.463,2.463,0,0,0-.646-1.774,2.413,2.413,0,0,0-1.784-.7h-2.82Zm16,2.287h-2.451V0h-3.076V-14.93h5.547a6.271,6.271,0,0,1,4.081,1.179,4.07,4.07,0,0,1,1.436,3.333,4.593,4.593,0,0,1-.661,2.548,4.511,4.511,0,0,1-2,1.625l3.23,6.1V0h-3.3Zm-2.451-2.492H247a2.541,2.541,0,0,0,1.794-.59,2.107,2.107,0,0,0,.636-1.625,2.256,2.256,0,0,0-.6-1.661,2.493,2.493,0,0,0-1.841-.6h-2.471Zm18.754,4.881h-5.394L256.85,0h-3.271l5.558-14.93h2.851L267.576,0H264.3Zm-4.563-2.492h3.732l-1.876-5.588Zm15.606-4.214,2.8-5.147h3.538l-4.348,7.4L280.762,0h-3.579l-2.871-5.229L271.441,0h-3.579l4.46-7.526-4.348-7.4h3.538ZM285.582,0h-3.076V-14.93h3.076Zm11.279-3.076h-5.394L290.442,0h-3.271l5.558-14.93h2.851L301.167,0H297.9ZM292.3-5.568h3.732l-1.876-5.588Z" transform="translate(360 5455)" fill="#1d272b"/>
      <rect id="Rectángulo_34968" data-name="Rectángulo 34968" width="5" height="60" transform="translate(350 5408)" fill="#d93328"/>
    </g>
  </g>
</svg>
