<svg id="img36" xmlns="http://www.w3.org/2000/svg" width="123.406" height="133.135" viewBox="0 0 123.406 133.135">
  <path id="Trazado_114962" data-name="Trazado 114962" d="M-989.264,1453.139a29.888,29.888,0,0,1-3.168.363q-38.233.031-76.466.021c-.442,0-.885,0-1.325-.031a2.112,2.112,0,0,1-2.241-2.354c-.036-2.16-.066-4.324.011-6.482.042-1.187-.406-1.549-1.542-1.508-1.815.067-3.634.034-5.451,0-1.751-.037-2.5-.792-2.526-2.538-.029-2.16-.011-4.321-.01-6.482q0-49.209,0-98.418c0-3.067.539-3.6,3.582-3.6l76.319,0c2.914,0,3.489.585,3.49,3.548,0,1.866.025,3.733-.014,5.6-.018.864.25,1.23,1.178,1.2,1.766-.059,3.535-.016,5.3,0,2.275.017,3,.743,3,2.989,0,7.317.016,14.635-.018,21.952a2.427,2.427,0,0,0,1.013,2.1c7.859,6.474,14.105,14.16,17.782,23.775,2.364,6.182,2.526,12.531,1.7,19-.522,4.08-1.107,8.172-1.265,12.275a25.629,25.629,0,0,0,2.736,12.389,41.428,41.428,0,0,0,2.762,4.331c1.676,2.539,3.381,5.058,5.049,7.6,1.245,1.9,1.021,2.923-.89,4.151q-8.793,5.653-17.6,11.289c-2.255,1.443-3.137,1.264-4.59-.92-1.983-2.983-3.948-5.979-5.926-8.964C-988.68,1453.936-989.03,1453.469-989.264,1453.139Zm-16.794-36.258a7.722,7.722,0,0,0-1.011-1.236c-.883-.719-1.8-1.368-.864-2.418l-1.442-.358a6.308,6.308,0,0,1,1.17-1.027,7.673,7.673,0,0,1,1.61-.45l-.116-.505-3.508.765a4.568,4.568,0,0,1-.54-1.036c-.425-1.882-1.695-2.064-3.386-2.056-12.573.066-25.146.037-37.719.036-2.541,0-3.568-.653-3.562-2.252.007-1.515,1.047-2.155,3.485-2.155q19.154,0,38.308.019c1.1,0,1.775-.2,2.176-1.392a4.633,4.633,0,0,1,4-3.258,35.759,35.759,0,0,1,4.235-.032v-62.808h-74.319v2.154q0,48.991,0,97.981c0,1.9,0,1.9,1.943,1.9q34.92,0,69.84,0c3.165,0,2.615.287,2.653-2.649.039-2.9-.281-5.839.136-8.677.57-3.891.4-7.363-2.741-10.152-.144-.128-.264-.285-.4-.427.711-.773,1.466-1.59.805-2.7a7.283,7.283,0,0,0-1.409-1.358l-.466.32C-1005.081,1413.959-1005.816,1415.479-1006.058,1416.882Zm17.552-42.135-.516.291c-.027.371-.077.741-.078,1.111-.01,3.045-.085,6.093.032,9.133a4.459,4.459,0,0,0,.993,2.589,17.508,17.508,0,0,1,4.053,7.741,45.919,45.919,0,0,1,1.226,7.53c.336,5.92-.4,11.663-3.83,16.749a3.384,3.384,0,0,1-3.074,1.644,4.837,4.837,0,0,1-3.9-2.308c-1.735-2.545-3.288-5.216-4.869-7.864-.9-1.513-1.624-3.143-2.594-4.612a5.846,5.846,0,0,0-4.846-2.913c-1.055-.031-1.605.462-1.635,1.446-.089,2.948,1.687,5.083,3.348,7.212,1.643,2.107,3.453,4.082,5.122,6.172.155.193-.192.789-.329,1.28l1.44.234c0,3.142-.121,6.274.03,9.392.194,3.991.54,8.143,3.328,11.215,2.654,2.923,5.892,5.316,9.108,8.148,4.146-2.649,9.066-5.777,13.951-8.959a1.267,1.267,0,0,0,.228-1.18c-3.5-7.785-3.621-15.85-2.194-24.09a41.729,41.729,0,0,0,.568-13.91c-1.119-6.862-4.327-12.793-8.545-18.183C-983.654,1379.854-986.157,1377.36-988.505,1374.746Zm-10.447,68.07a32.851,32.851,0,0,1-3.291.331q-30.857.03-61.714.017c-4.176,0-4.115,0-4.155,4.184-.014,1.448.485,1.773,1.852,1.771q35.5-.057,70.993-.029h1.541l.244-.457Zm4.995-32.564.3-.1v-63.106h-4.929v1.967c0,16.735.032,33.47-.039,50.205a8.782,8.782,0,0,0,1.739,5.828A39.1,39.1,0,0,1-993.958,1410.253Zm30.024,39.814-4.356-6.548-15.524,9.65,4.5,6.768Zm-25.116-35.586c2.688-4.092,2.158-16.666,0-18.839Z" transform="translate(1081.987 -1332.103)" fill="#1d272b"/>
  <path id="Trazado_114969" data-name="Trazado 114969" d="M-827.065,1609.924l.046.038c.241-1.4.976-2.923-1.116-3.777l.466-.32a7.241,7.241,0,0,1,1.41,1.358C-825.6,1608.334-826.354,1609.151-827.065,1609.924Z" transform="translate(902.949 -1525.183)" fill="#1d272b"/>
  <path id="Trazado_114971" data-name="Trazado 114971" d="M-1006.559,1503.612q-13.181,0-26.361,0a8.678,8.678,0,0,1-1.467-.055,2.3,2.3,0,0,1-2.006-2.348,2.347,2.347,0,0,1,2.272-2.091c.342-.026.687-.01,1.031-.01q26.36,0,52.721,0c2.4,0,3.448.679,3.453,2.229s-1.115,2.278-3.429,2.277Q-993.452,1503.61-1006.559,1503.612Z" transform="translate(1049.833 -1449.884)" fill="#1d272b"/>
  <path id="Trazado_114973" data-name="Trazado 114973" d="M-1006.681,1658.417h-25.925c-.2,0-.393,0-.589,0-2.14-.017-3.169-.739-3.155-2.209s1.054-2.217,3.212-2.214c9.468.014,18.936.064,28.4.067q12.507,0,25.015-.068c1.282-.006,2.378.249,2.745,1.655.432,1.653-.682,2.848-2.606,2.843q-10.309-.03-20.619-.071C-1002.36,1658.412-1004.521,1658.417-1006.681,1658.417Z" transform="translate(1049.8 -1559.126)" fill="#1d272b"/>
  <path id="Trazado_114981" data-name="Trazado 114981" d="M-1006.681,1658.417h-25.925c-.2,0-.393,0-.589,0-2.14-.017-3.169-.739-3.155-2.209s1.054-2.217,3.212-2.214c9.468.014,18.936.064,28.4.067q12.507,0,25.015-.068c1.282-.006,2.378.249,2.745,1.655.432,1.653-.682,2.848-2.606,2.843q-10.309-.03-20.619-.071C-1002.36,1658.412-1004.521,1658.417-1006.681,1658.417Z" transform="translate(1049.8 -1568.274)" fill="#1d272b"/>
  <path id="Trazado_114974" data-name="Trazado 114974" d="M-968.767,1542.322h-19.444c-.541,0-1.083.02-1.619-.027a2.147,2.147,0,0,1-2.094-2.214,2.131,2.131,0,0,1,2.033-2.136,11.6,11.6,0,0,1,1.618-.025l39.772-.005a8.753,8.753,0,0,1,.883.021,2.111,2.111,0,0,1,2.058,2.232,2.019,2.019,0,0,1-2.143,2.121c-2.9.053-5.793.033-8.691.035Q-962.58,1542.328-968.767,1542.322Z" transform="translate(1018.469 -1477.25)" fill="#1d272b"/>
  <path id="Trazado_114975" data-name="Trazado 114975" d="M-909.531,1383.073q5.077,0,10.153,0c1.837,0,2.886.811,2.887,2.2,0,1.418-.977,2.277-2.849,2.281q-10.371.015-20.744-.065c-1.634-.011-2.516-.873-2.495-2.26.02-1.34.949-2.137,2.6-2.146C-916.495,1383.062-913.013,1383.075-909.531,1383.073Z" transform="translate(969.559 -1368.049)" fill="#1d272b"/>
  <path id="Trazado_114976" data-name="Trazado 114976" d="M-909.6,1464.954c-3.433,0-6.865.009-10.3,0-1.737-.006-2.654-.809-2.64-2.254.012-1.375.889-2.173,2.568-2.178q10.445-.033,20.89,0c1.57,0,2.62.925,2.625,2.174.005,1.35-1.041,2.252-2.7,2.259C-902.635,1464.967-906.116,1464.956-909.6,1464.954Z" transform="translate(969.529 -1422.661)" fill="#1d272b"/>
  <path id="Trazado_114977" data-name="Trazado 114977" d="M-909.588,1426.258c-3.432,0-6.863.006-10.295-.006-1.764-.006-2.7-.777-2.711-2.183-.011-1.383.957-2.2,2.7-2.2q10.295-.012,20.59.005c1.767,0,2.774.784,2.807,2.113.036,1.433-.97,2.265-2.794,2.271C-902.724,1426.267-906.156,1426.26-909.588,1426.258Z" transform="translate(969.569 -1395.409)" fill="#1d272b"/>
  <path id="Trazado_114978" data-name="Trazado 114978" d="M-1024.709,1542.781a2.266,2.266,0,0,1-2.369-2.282,2.3,2.3,0,0,1,2.448-2.213,2.23,2.23,0,0,1,2.347,2.289A2.239,2.239,0,0,1-1024.709,1542.781Z" transform="translate(1043.261 -1477.521)" fill="#1d272b"/>
  <path id="Trazado_114979" data-name="Trazado 114979" d="M-1022.376,1578.517a2.209,2.209,0,0,1-2.32,2.3,2.35,2.35,0,0,1-2.5-2.18,2.429,2.429,0,0,1,2.382-2.331A2.277,2.277,0,0,1-1022.376,1578.517Z" transform="translate(1043.347 -1504.334)" fill="#1d272b"/>
  <path id="Trazado_114980" data-name="Trazado 114980" d="M-925.661,1628.548l2.722-.125.017.37c-1.455.43-2.274.341-2.7-.29Z" transform="translate(971.733 -1541.094)" fill="#1d272b"/>
  <g id="Grupo_91485" data-name="Grupo 91485" transform="translate(9.032 11.335)">
    <g id="Grupo_90944" data-name="Grupo 90944">
      <path id="Trazado_150122" data-name="Trazado 150122" d="M-2272.606,2431.126c3.477-5.242-1.995-11.557-1.995-11.557,4.61,8.211-3.838,13.376-7.016,14.966a1.994,1.994,0,0,1,1.548,1.942,1.987,1.987,0,0,1-.074.527c3.071-1.908,11.788-6.309,16.365,1.844C-2263.778,2438.847-2266.321,2430.886-2272.606,2431.126Z" transform="translate(2300.35 -2419.569)" fill="#1d272b"/>
      <path id="Trazado_150123" data-name="Trazado 150123" d="M-2355.948,2557.649a1.988,1.988,0,0,1-1.434.61,1.986,1.986,0,0,1-1.434-.61c.154,3.658-.321,13.309-9.62,13.309,0,0,8.186,1.679,11.054-3.918,2.869,5.6,11.054,3.918,11.054,3.918C-2355.626,2570.958-2356.1,2561.307-2355.948,2557.649Z" transform="translate(2375.667 -2539.357)" fill="#1d272b"/>
      <path id="Trazado_150124" data-name="Trazado 150124" d="M-2406.734,2436.476a1.994,1.994,0,0,1,1.548-1.942c-3.179-1.589-11.626-6.755-7.016-14.966,0,0-5.472,6.315-2,11.557-6.284-.24-8.827,7.721-8.827,7.721,4.576-8.153,13.293-3.753,16.364-1.844A2.037,2.037,0,0,1-2406.734,2436.476Z" transform="translate(2423.025 -2419.569)" fill="#1d272b"/>
    </g>
    <g id="Grupo_90945" data-name="Grupo 90945" transform="translate(8.421 7.043)">
      <path id="Trazado_150125" data-name="Trazado 150125" d="M-2357.148,2536.048a7.6,7.6,0,0,1,.109-1.272,12.994,12.994,0,0,0-2.27-.43,9.871,9.871,0,0,0-.147,1.7,9.867,9.867,0,0,0,6.536,9.288,12.767,12.767,0,0,0,.755-2.183A7.556,7.556,0,0,1-2357.148,2536.048Z" transform="translate(2359.457 -2526.183)" fill="#1d272b"/>
      <path id="Trazado_150126" data-name="Trazado 150126" d="M-2258.268,2536.048a9.92,9.92,0,0,0-.147-1.7,12.986,12.986,0,0,0-2.271.43,7.551,7.551,0,0,1,.109,1.272,7.557,7.557,0,0,1-4.981,7.1,12.638,12.638,0,0,0,.753,2.183A9.866,9.866,0,0,0-2258.268,2536.048Z" transform="translate(2277.998 -2526.183)" fill="#1d272b"/>
      <path id="Trazado_150127" data-name="Trazado 150127" d="M-2332.25,2476.86a7.527,7.527,0,0,1,4.915-1.819,7.524,7.524,0,0,1,4.914,1.819,13.086,13.086,0,0,0,1.552-1.714,9.824,9.824,0,0,0-6.466-2.415,9.82,9.82,0,0,0-6.466,2.415A13.047,13.047,0,0,0-2332.25,2476.86Z" transform="translate(2337.2 -2472.732)" fill="#1d272b"/>
    </g>
  </g>
</svg>
