<svg xmlns="http://www.w3.org/2000/svg" xmlns:xlink="http://www.w3.org/1999/xlink" width="451.311" height="538.45" viewBox="0 0 451.311 538.45">
  <defs>
    <linearGradient id="linear-gradient" x1="0.5" x2="0.5" y2="1" gradientUnits="objectBoundingBox">
      <stop offset="0" stop-color="#f5f5f5"/>
      <stop offset="0.25" stop-color="#f5f5f5"/>
      <stop offset="1" stop-color="#a7b3cf"/>
    </linearGradient>
    <linearGradient id="linear-gradient-8" x1="0.5" x2="0.5" y2="1" gradientUnits="objectBoundingBox">
      <stop offset="0" stop-color="#fff"/>
      <stop offset="1" stop-color="#d2e6ee"/>
    </linearGradient>
    <linearGradient id="linear-gradient-12" x1="0.5" x2="0.5" y2="1" gradientUnits="objectBoundingBox">
      <stop offset="0" stop-color="#fff"/>
      <stop offset="1" stop-color="#f8f8f8"/>
    </linearGradient>
    <linearGradient id="linear-gradient-13" x1="0.5" x2="0.5" y2="1" gradientUnits="objectBoundingBox">
      <stop offset="0" stop-color="#f5f5f5"/>
      <stop offset="0.25" stop-color="#f5f5f5"/>
      <stop offset="1" stop-color="#eeeef2"/>
    </linearGradient>
  </defs>
  <g id="img40" transform="translate(-861.293 -21134.242)">
    <g id="Grupo_128904" data-name="Grupo 128904">
      <path id="Trazado_165948" data-name="Trazado 165948" d="M444.405,613.683c15.846-33.724,20.354-77.492,11.963-116.14-5.3-24.435-15.485-47.135-16.786-72.616-2.6-50.945,30.211-92.131,37.019-142.3,2.992-22.051-.272-47.74-13.1-61.135-12.668-13.229-30.749-10.529-45.09-1.264s-26.477,24.1-40.247,34.94-30.725,17.546-45.266,8.916c-14.729-8.741-23.084-30.775-27.764-52.249s-6.977-44.346-14.964-63.8c-13.163-32.064-41.23-49.547-67.385-45.023s-49.523,29.306-62.058,61.863-14.725,71.936-8.486,107.9c3.165,18.238,8.379,35.7,11.222,54.047s3.1,38.419-3.244,54.941c-13.274,34.549-48.291,39.367-66.628,69-15.135,24.454-15.609,61.771-7.021,91.843S111.3,597.063,127.4,620.277c75.067,3.544,151.479,3.779,226.546,7.323C383.117,628.977,415.264,616.093,444.405,613.683Z" transform="translate(811.076 21035.391)" fill="#a4a4b4" opacity="0.354" style="mix-blend-mode: multiply;isolation: isolate"/>
      <path id="Trazado_165949" data-name="Trazado 165949" d="M359.21,182.831c-.185,19.826,18.661,37.081,15.381,56.634-1.754,10.462-9.726,21.067-5.092,30.61,4.1,8.444,15.838,9.908,24.814,7.163,21.011-6.428,33.782-27.9,39.889-49.012,5.745-19.853,7.171-42.029-2.03-60.536-7.414-14.911-24.518-28.075-41.887-26.858C374.377,141.949,359.349,167.9,359.21,182.831Z" transform="translate(873.809 21090.344)" fill="#a4a4b4" opacity="0.31" style="mix-blend-mode: multiply;isolation: isolate"/>
      <path id="Trazado_165950" data-name="Trazado 165950" d="M116.809,147.5c-13.1,21.861-13.694,50.674-1.5,73.053,3.854,7.071,9.059,13.661,16.087,17.593s16.094,4.809,23.09.819c10.609-6.052,12.955-20.325,12.111-32.51s-3.6-24.958,1.087-36.234c3.059-7.35,8.932-13.081,14.143-19.1s10.073-13.045,10.343-21c.7-20.626-21.2-19.085-34.4-14.8A75,75,0,0,0,116.809,147.5Z" transform="translate(826.494 21032.865)" fill="#a4a4b4" opacity="0.31" style="mix-blend-mode: multiply;isolation: isolate"/>
      <g id="Grupo_128901" data-name="Grupo 128901" transform="translate(897.289 21134.242)" style="mix-blend-mode: multiply;isolation: isolate">
        <path id="Trazado_151849" data-name="Trazado 151849" d="M443.426,623.388l-1.634-2.069c4.495-6.814,11.67-22.433,9.241-50.517-1.081-12.5-3.761-24.85-6.353-36.792-1.157-5.335-2.354-10.852-3.4-16.33-11.147-58.452-6.271-122.933,13.377-176.907,1.745-4.79,3.633-9.6,5.461-14.243,5.415-13.777,11.014-28.025,13.422-43.416,4.223-27.007-4.125-47.25-13.668-54.628-9.155-7.082-22.079-6-35.455,2.971a167.322,167.322,0,0,0-14.248,11.173c-6.078,5.13-12.362,10.432-19.111,14.187-26.55,14.773-59.744,2.218-77.21-29.2-8.394-15.1-13.134-33.345-17.718-50.993-1.776-6.838-3.613-13.91-5.632-20.676-6.282-21.037-17.779-47.442-36.878-53.758-16.781-5.553-33.779,6.651-45.08,17.865-21.622,21.456-36.863,50.515-42.918,81.821-4.082,21.111-4.246,44.089-4.406,66.31-.236,33.092-.482,67.311-13.956,94.869-6.13,12.537-14.561,22.539-22.713,32.213-7.636,9.059-15.531,18.428-21.417,29.783-13.337,25.729-16.606,62.156-8.969,99.941,6.863,33.949,20.851,64.071,34.379,93.2l-1.859,1.659c-13.616-29.321-27.7-59.641-34.649-94.035-7.82-38.687-4.429-76.069,9.3-102.558,6.042-11.656,14.04-21.145,21.774-30.323,8.043-9.542,16.359-19.41,22.321-31.6,13.1-26.793,13.331-59.039,13.574-93.178.161-22.413.326-45.588,4.483-67.076,6.186-31.989,21.73-61.65,43.766-83.521,11.675-11.585,29.285-24.174,46.88-18.353,20.007,6.617,31.929,33.871,38.407,55.568,2.04,6.833,3.886,13.939,5.67,20.81,4.526,17.423,9.2,35.441,17.388,50.158,16.884,30.371,48.972,42.506,74.637,28.226,6.577-3.659,12.783-8.9,18.785-13.959A168.657,168.657,0,0,1,423.456,228.7c14.033-9.409,27.7-10.466,37.5-2.889,10.233,7.914,19.214,29.426,14.752,57.958-2.475,15.822-8.152,30.266-13.643,44.235-1.819,4.626-3.7,9.409-5.427,14.156-19.408,53.313-24.224,117-13.213,174.74,1.034,5.429,2.227,10.92,3.379,16.232,2.619,12.067,5.327,24.545,6.432,37.31C455.764,599.736,448.175,616.19,443.426,623.388Z" transform="translate(-87.906 -97.739)" fill="#a4a4b4"/>
      </g>
      <g id="Grupo_128905" data-name="Grupo 128905" transform="translate(302.354 20234.088)">
        <path id="Trazado_165850" data-name="Trazado 165850" d="M1158.734,1067.843c.528-12.7-1.343-25.244-7.026-37.07-4.89-10.174-16.987-15.947-28.02-15.961-35.032-.045-39.487,46.241-61.787,64.095-6.813,5.455-14.43,9.9-20.877,15.782-23.808,21.724-13.084,61.937,8.777,80.983,15.171,13.216,39.014,20.725,57.711,10.394,9.761-5.393,17.17-14.358,22.449-24.181,7.491-13.94,12.321-30.025,17.649-44.882C1153.281,1101.188,1158.034,1084.726,1158.734,1067.843Z" transform="translate(-296.036 -37.193)" fill="#12263f"/>
        <g id="Grupo_128895" data-name="Grupo 128895" transform="translate(597.129 958.147)">
          <g id="Grupo_128884" data-name="Grupo 128884" transform="translate(177.372 28.007)">
            <path id="Trazado_165851" data-name="Trazado 165851" d="M1192.3,1142.932l16.9-17.833s18.093,9.95,39.183,19.457c5.8-10.092,15.261-43.287,15.77-44.87s-11.083-21.529-8.49-22.029,5.96,10.649,8.7,9.519,9.791-27,11.44-25.584c3.087,2.642-3.708,16.088-2.081,17.068s5.755-14.9,8.9-14.227-5.307,14.46-4.38,15.785,9.759-11.606,11.583-8.611c.991,1.626-8.146,11.26-6.267,12.338s10.114-4.99,11.1-3.025-7.683,4.014-10.089,8.988-6.781,6.911-8.233,16.315-5.42,59.669-15.667,63.706C1251.715,1173.453,1192.3,1142.932,1192.3,1142.932Z" transform="translate(-1147.318 -1045.121)" fill="#f4b1a4"/>
            <path id="Trazado_165852" data-name="Trazado 165852" d="M1217.335,1170.339a53.486,53.486,0,0,1,5.186,1.8c8.291,4.183,30.662,20.967,30.662,20.967s-4.96,17.585-10.371,24.349l-37.876-15.557Z" transform="translate(-1153.208 -1095.824)" fill="url(#linear-gradient)"/>
            <path id="Trazado_165853" data-name="Trazado 165853" d="M1338.871,1079.07c-2.062-1.183,8.04-11.226,6.953-13.01-2-3.287-11.693,10.9-12.711,9.449s8.255-16.579,4.807-17.323-7.979,16.688-9.765,15.614,5.671-15.831,2.284-18.73c-1.811-1.549-9.186,24.958-12.2,26.2s-7.063-9.117-9.909-8.569,9.877,22.431,9.318,24.175c-.092.286-.449,1.51-1.011,3.405,4.522.411,10.546,1.215,14.551,2.746,1.743-9.446,6.31-11.608,8.861-16.881,2.64-5.458,12.15-7.706,11.071-9.863S1340.934,1080.253,1338.871,1079.07Z" transform="translate(-1201.2 -1042.076)" fill="#f7b242"/>
            <path id="Trazado_165854" data-name="Trazado 165854" d="M1327.512,1134.076s7.256-2.357,11.162,2.047C1338.674,1136.123,1335.636,1133.766,1327.512,1134.076Z" transform="translate(-1210.33 -1078.631)" fill="#d1d1d1"/>
            <g id="Grupo_128882" data-name="Grupo 128882">
              <g id="Grupo_128881" data-name="Grupo 128881">
                <path id="Trazado_165855" data-name="Trazado 165855" d="M1239.591,1478.556c.7-5.941,1.267-10.292,1.669-12.562,3.626-20.506-1.9-51.786-1.9-51.786l-12.855-4.828-20.044,69.176Z" transform="translate(-1153.921 -1207.22)" fill="#1d272b"/>
                <path id="Trazado_165856" data-name="Trazado 165856" d="M1180.823,1470.833l8.65-25.185,9.026-52.841-54.381,7.1s-15.227,22.873-18.852,41.8c-1.2,6.276-1.315,16.868-1.182,29.125Z" transform="translate(-1115.511 -1199.497)" fill="#1d272b"/>
                <path id="Trazado_165857" data-name="Trazado 165857" d="M1158.831,1162.333s-20.161-1.282-28.137,7.394,17.693,77.307,19.143,88.349-7.394,40.4-7.394,40.4,47.36,9.511,60.9.572c0,0,1.45-79.4,0-87.29s-13.535-39.964-16.436-43.118S1158.831,1162.333,1158.831,1162.333Z" transform="translate(-1117.897 -1092.062)" fill="url(#linear-gradient)"/>
                <path id="Trazado_165858" data-name="Trazado 165858" d="M1190.839,1111.652s-.1.592-.292,1.6c-.9,4.837-4.361,20.884-6.7,25.3-2.826,5.331,9.675,22.335,21.707,20.26,3.582-.618-3.027-15.623-2.71-17.213.608-3.043,1.433-7.193,2.276-11.449.476-2.4.958-4.835,1.411-7.123,1.286-6.5,2.336-11.82,2.336-11.82Z" transform="translate(-1143.193 -1068.265)" fill="#ffc3b5"/>
                <path id="Trazado_165859" data-name="Trazado 165859" d="M1196.268,1113.252c.187-1.008.292-1.6.292-1.6l18.03-.449s-1.05,5.318-2.336,11.82c-.451,2.275-.93,4.695-1.4,7.083a16.9,16.9,0,0,1-8.608-4.307,22.7,22.7,0,0,1-6.521-9.678C1195.944,1114.983,1196.128,1114,1196.268,1113.252Z" transform="translate(-1148.914 -1068.265)" fill="#fc8899"/>
                <path id="Trazado_165860" data-name="Trazado 165860" d="M1202.768,1035.411s-8.5-.98-13.825,5.9-11.068,28.138,2.165,39.7,26.306-1.525,28.245-15.4S1222.045,1034.91,1202.768,1035.411Z" transform="translate(-1142.988 -1032.923)" fill="#ffc3b5"/>
                <path id="Trazado_165861" data-name="Trazado 165861" d="M1252.078,1085c-1.579,3.065-4.231,4.761-5.921,3.79s-1.782-4.243-.2-7.307,4.23-4.76,5.921-3.79S1253.657,1081.935,1252.078,1085Z" transform="translate(-1171.798 -1052.521)" fill="#ffc3b5"/>
                <path id="Trazado_165862" data-name="Trazado 165862" d="M1196.782,1031.009s-11.353,20.22-19.475,21.154-9.188,11.678-9.188,11.678,2.9-24.757,10.945-29.531S1196.782,1031.009,1196.782,1031.009Z" transform="translate(-1136.052 -1030.794)" fill="#12263f"/>
                <g id="Grupo_128879" data-name="Grupo 128879" transform="translate(37.376 20.703)">
                  <path id="Trazado_165863" data-name="Trazado 165863" d="M1184.654,1090.347c-.64-.884-6.265-8.712-6.509-11.153-.007-.069-.657-6.867,1.721-9a2.426,2.426,0,0,1,2.2-.565c3.647.768,6.833,6.383,6.968,6.622l-1.147.628c-.031-.054-2.973-5.391-6.074-6.044a1.192,1.192,0,0,0-1.124.276c-1.465,1.316-1.52,5.932-1.317,7.961.16,1.6,3.844,7.189,6.281,10.554Z" transform="translate(-1178.059 -1069.565)" fill="#fcfcfc"/>
                </g>
                <path id="Trazado_165864" data-name="Trazado 165864" d="M1181.9,1075.347c.661,3.59-.647,7.042-2.946,7.513s-4.72-2.215-5.38-5.806.668-6.884,2.967-7.355S1181.24,1071.756,1181.9,1075.347Z" transform="translate(-1138.515 -1048.898)" fill="#ffc3b5"/>
                <g id="Grupo_128880" data-name="Grupo 128880" transform="translate(0 77.198)">
                  <path id="Trazado_165865" data-name="Trazado 165865" d="M1256.553,1218.048c-8.716,7.01-22.786,22.482-33.969,29.957-12.632-8.015-33.944-28.6-33.944-28.6l-17.107,21.042c-.421.086,47.705,33.45,55.194,31.754,8.839-2,27.8-29.129,37.943-47.616Z" transform="translate(-1137.641 -1195.254)" fill="#ffc3b5"/>
                  <path id="Trazado_165866" data-name="Trazado 165866" d="M1175.078,1210.849s-30.338-30.2-42.648-34.427-23.587,4.808-24.356,16.348,47.745,44.586,47.745,44.586Z" transform="translate(-1108.066 -1175.362)" fill="url(#linear-gradient)"/>
                </g>
                <path id="Trazado_165867" data-name="Trazado 165867" d="M1251,1076.688a4.614,4.614,0,0,1,.288,1.2l-1.718,3.708-.831-.005,2.11-5.013A.7.7,0,0,1,1251,1076.688Z" transform="translate(-1173.622 -1052.131)" fill="#fcfcfc"/>
                <path id="Trazado_165868" data-name="Trazado 165868" d="M1219.657,1081.643a80.382,80.382,0,0,1-13.3-2.018c-7.51-1.76-17.212-.514-17.212-.514l-5.551,10.9s1.759,14.609,18.069,18.833c0,0,5.281,1.056,11.852-4.811S1219.657,1081.643,1219.657,1081.643Z" transform="translate(-1143.265 -1053.111)" fill="#fcfcfc"/>
              </g>
            </g>
            <g id="Grupo_128883" data-name="Grupo 128883" transform="translate(121.001 73.685)">
              <path id="Trazado_165869" data-name="Trazado 165869" d="M1346.592,1173.234c-1.713.057-5.3.477-6.145,1.969,0,.012-1.367,3.191-1.589,19.263l-4.194-.3c1.362-18.347,3.106-20.48,3.006-20.258,1.314-2.685,5.588-3.323,8.566-3.279l.505.015Z" transform="translate(-1334.664 -1169.644)" fill="#d93328"/>
              <rect id="Rectángulo_35677" data-name="Rectángulo 35677" width="3.585" height="4.392" transform="translate(47.354 5.885) rotate(180)" fill="#d93328"/>
              <path id="Trazado_165870" data-name="Trazado 165870" d="M1365.485,1235.226a41.352,41.352,0,0,0-4.45-18.659l-.576-1.139-14.08-.1-1.332,3.095a41.37,41.37,0,0,0-3.363,16.5l.163,41.828h0v0c0,1.432,5.291,2.593,11.818,2.593s11.818-1.161,11.818-2.593Z" transform="translate(-1337.936 -1190.475)" fill="#1d272b"/>
              <rect id="Rectángulo_35678" data-name="Rectángulo 35678" width="13.054" height="10.635" transform="translate(22.589 28.2) rotate(180)" fill="#466eb6"/>
              <path id="Trazado_165871" data-name="Trazado 165871" d="M1355.26,1168.784h34.295v6.423a4.929,4.929,0,0,1-4.929,4.929h-10.949c-1.988,0-5.463,1.751-5.463,3.739l-.845,5.75-9.718.071v-9.559h-2.39Z" transform="translate(-1344.262 -1168.784)" fill="#d1d1d1"/>
            </g>
            <path id="Trazado_165872" data-name="Trazado 165872" d="M1316.693,1199.356s7.564-13.1,9.424-15.641,1.9-10.735,2.581-12.764,5.58.677,4.058,4.4-.123,4.649,1.23,5.325,13.527-1.127,15.894.676,1.353,4.96,0,5.411c0,0,1.916,1.917,1.24,3.946s-1.578,2.367-1.578,2.367.789.338.45,2.48a2.821,2.821,0,0,1-2.029,2.48,3.388,3.388,0,0,0-.564,2.367c.113,1.578-2.029,1.353-6.876,1.917s-6.29-.395-7.981.845-3.156,5.918-3.156,5.918Z" transform="translate(-1205.289 -1095.785)" fill="#f7b242"/>
          </g>
          <g id="Grupo_128894" data-name="Grupo 128894" transform="translate(0 0)">
            <g id="Grupo_128887" data-name="Grupo 128887">
              <path id="Trazado_165873" data-name="Trazado 165873" d="M645.495,1298.852s-22.617,9.674-26.177,9.065a34.065,34.065,0,0,0-5.241-1.718c-3.523-.918-12.532-1.294-17.517.62s-9.306,1.9-9.365,3.463.727,2.058,2.929,1.975,8.077-1.58,8.1-1.515c.3.844.51.186-1,.79-1.275.509-14.2,6.425-18.231,8.269a1.345,1.345,0,0,0-.676,1.753h0a1.345,1.345,0,0,0,1.73.722l13.456-5.306a.145.145,0,0,1,.172.053h0a.144.144,0,0,1-.061.211l-15.5,6.828a1.646,1.646,0,0,0-.917,1.964h0a1.645,1.645,0,0,0,2.206,1.064l16.073-6.613a.14.14,0,0,1,.186.082h0a.14.14,0,0,1-.076.176l-15.345,6.708a1.564,1.564,0,0,0-.869,1.889h0a1.564,1.564,0,0,0,2.075.995l14.809-5.9a.133.133,0,0,1,.178.092h0a.133.133,0,0,1-.076.154l-12.327,5.35a1.677,1.677,0,0,0-.927,2.058h0a1.677,1.677,0,0,0,1.613,1.157c2.979-.033,11.065-3,18.682-5.064,9.64-2.616,48.087-13.25,48.087-13.25s.461-8.056-2.991-11.158S645.482,1301.606,645.495,1298.852Z" transform="translate(-577.126 -1139.881)" fill="#f4b1a4"/>
              <path id="Trazado_165874" data-name="Trazado 165874" d="M722.819,1171.325l-13.066,59.032-30.375,11.156,8.192,18.064,42.751-8.97-6.272-31.362Z" transform="translate(-624.777 -1080.452)" fill="url(#linear-gradient)"/>
              <g id="Grupo_128885" data-name="Grupo 128885" transform="translate(102.004 211.585)">
                <path id="Trazado_165875" data-name="Trazado 165875" d="M848.891,1470.405c0,.016.011.038.017.066Z" transform="translate(-805.776 -1431.412)" fill="#f7cc7f"/>
                <path id="Trazado_165876" data-name="Trazado 165876" d="M809.835,1472.965c1.235-14.44,1.2-37.334,1.429-36.589l-9.853-38.994c-11.233.048-22.149.1-31.826.1-.32,2.126-.639,4.383-.955,6.816-2.075,16.225,2.959,44.2,7.524,68.67Z" transform="translate(-768.149 -1397.382)" fill="#293241"/>
              </g>
              <path id="Trazado_165877" data-name="Trazado 165877" d="M835.241,1472.964h35.345c-1.771-16.687,13.365-55.41,11.561-70.065-16.179-.265-37.922-5.6-56.635-5.518l-5.645,18.679c3.285,14.938,3.7,55.033,4.707,56.8Z" transform="translate(-690.246 -1185.796)"/>
              <path id="Trazado_165878" data-name="Trazado 165878" d="M762.743,1161.471l11.961-4.051s21.537-6.126,25.584-6.967c.35-.073,12.686,37.3,22.8,65.367s21.844,87.8,21.844,87.8a115.518,115.518,0,0,1-35.984,11.034c-20.929,2.65-49.557,1.815-49.557,1.815s6.479-77.811,6.185-95.909S762.743,1161.471,762.743,1161.471Z" transform="translate(-662.065 -1070.725)" fill="#1d272b"/>
              <path id="Trazado_165879" data-name="Trazado 165879" d="M742.454,1230.146l8.877-65.415,15.621-7.556s-6.257,30.062-6.109,54.958-2.412,118.756-2.412,118.756-11.181,4.153-15.774-2.088S742.454,1230.146,742.454,1230.146Z" transform="translate(-653.289 -1073.858)" fill="url(#linear-gradient)"/>
              <path id="Trazado_165880" data-name="Trazado 165880" d="M870.791,1240.3c2.941-70.155-12.88-86.742-12.88-86.742l-33.156-3.058s-17.788,41.69-11.172,98.408c3.518,30.157,10.811,57.36,23.3,71.009,9.1,9.952,44.231-2.212,50.5-15.113C888.509,1303.026,869.331,1275.14,870.791,1240.3Z" transform="translate(-686.63 -1070.748)" fill="url(#linear-gradient)"/>
              <path id="Trazado_165881" data-name="Trazado 165881" d="M808.836,1107.1l3.47,23.178s-5.03,22.59-14.353,21.422c-7.823-.98-10.782-14.068-10.782-14.068s.054-5.159-.075-11.132c-.09-4.174-.475-8.6-1.523-11.6C783.024,1107.594,808.836,1107.1,808.836,1107.1Z" transform="translate(-674.182 -1050.521)" fill="#f4b1a4"/>
              <path id="Trazado_165882" data-name="Trazado 165882" d="M785.545,1115.954c-2.548-7.3,19.143-6.1,19.143-6.1l3.977-.48a21.242,21.242,0,0,1-3.348,7.581c-4.17,5.515-12,9.217-18.249,10.561C786.976,1123.357,786.59,1118.946,785.545,1115.954Z" transform="translate(-674.155 -1051.583)" fill="#fc8899"/>
              <g id="Grupo_128886" data-name="Grupo 128886" transform="translate(89.75)">
                <path id="Trazado_165883" data-name="Trazado 165883" d="M750.426,1037.231s-1.951,15.353,2.288,25.365a56.282,56.282,0,0,0,9.582,15.632l10.061-41.586Z" transform="translate(-747.427 -1017.688)" fill="#12263f"/>
                <path id="Trazado_165884" data-name="Trazado 165884" d="M785.016,1035.048c.5-.4,14.134,27.846,9.221,38.57s-18.589,18.475-26.081,13.826c-8.287-5.143-18.655-37.154-9.581-49.529S785.016,1035.048,785.016,1035.048Z" transform="translate(-749.792 -1015.319)" fill="#ffc3b5"/>
                <path id="Trazado_165885" data-name="Trazado 165885" d="M827.357,1101.822c1.142-2.494,1.282-5.935.818-9.742l-.375.1-1.675,11.979A23.958,23.958,0,0,0,827.357,1101.822Z" transform="translate(-782.913 -1043.523)" fill="#f47458"/>
                <path id="Trazado_165886" data-name="Trazado 165886" d="M773.821,1002.285c8.984,2.395,14,4.908,23.073,12.579,11.153,9.432,6.964,26.992.736,36.226s-3.684,16.374-3.684,16.374l-2.552-3.147c-1.951-2.586-2.092-16.735-1.873-18.62.579-4.97.658-6.024-2.316-9-2.29-2.3-4.218-8.9-7.9-12.726l-12.92,3.256s-8.174,1.857-13.968-.575C735.783,1019.665,749.987,995.68,773.821,1002.285Z" transform="translate(-745.201 -1001.147)" fill="#12263f"/>
                <path id="Trazado_165887" data-name="Trazado 165887" d="M757.362,1090.842s2.1,18.9,10.849,23.6c5.476,2.941,19.585-1.516,26.029-12.888,0,0-6.444-9.982-6.823-14.657,0,0-11.57,1.213-20.392,2.474C761.091,1090.219,757.362,1090.842,757.362,1090.842Z" transform="translate(-750.868 -1041.108)" fill="#fcfcfc"/>
                <path id="Trazado_165888" data-name="Trazado 165888" d="M816.209,1065.6l-6.823,13.267,1.516.126,6.255-12.951Z" transform="translate(-775.112 -1031.184)" fill="#fcfcfc"/>
                <path id="Trazado_165889" data-name="Trazado 165889" d="M826.015,1088.25,823.74,1101.9l1.432.21,2.19-14.025Z" transform="translate(-781.801 -1041.659)" fill="#fcfcfc"/>
                <path id="Trazado_165890" data-name="Trazado 165890" d="M821.527,1069.964c.1,3.819,1.979,6.869,4.2,6.812s3.939-3.2,3.839-7.018-1.978-6.869-4.2-6.811S821.429,1066.145,821.527,1069.964Z" transform="translate(-780.768 -1029.946)" fill="#ffc3b5"/>
              </g>
              <path id="Trazado_165891" data-name="Trazado 165891" d="M615.184,1345.292a5.411,5.411,0,0,1,3.028-5.691,4.745,4.745,0,1,1,9.047-2.591l1.845,12.174a4.088,4.088,0,1,1-8.084,1.225,4.046,4.046,0,0,1-.045-.543A5.409,5.409,0,0,1,615.184,1345.292Z" transform="translate(-594.833 -1155.782)" fill="#fff"/>
              <path id="Trazado_165892" data-name="Trazado 165892" d="M629.583,1314.668a4.959,4.959,0,0,1,.586,6,3.825,3.825,0,0,1,.878.653,4.772,4.772,0,0,1-6.687,6.733l-7.846-7.793a4.112,4.112,0,0,1,5.761-5.8,3.233,3.233,0,0,1,.32.371A5.112,5.112,0,0,1,629.583,1314.668Z" transform="translate(-595.015 -1146.645)" fill="#fff"/>
              <path id="Trazado_165893" data-name="Trazado 165893" d="M633.12,1326.073a2.12,2.12,0,1,1-2.408-1.955A2.2,2.2,0,0,1,633.12,1326.073Z" transform="translate(-601.257 -1151.646)" fill="#fff"/>
              <path id="Trazado_165894" data-name="Trazado 165894" d="M626.5,1342.088h0a7.625,7.625,0,0,1-10.77-.548l-6-6.646a7.626,7.626,0,0,1,.548-10.77h0a7.625,7.625,0,0,1,10.77.548l6,6.646A7.624,7.624,0,0,1,626.5,1342.088Z" transform="translate(-591.402 -1150.742)" fill="#f67"/>
              <path id="Trazado_165895" data-name="Trazado 165895" d="M654.726,1329.877c-6.157,2.007-17.841,3.036-20.345,2.146,0,0-1.222-.428-4.7-2.013s-12.116-2.117-17.621-1.032-9.973.3-10.315,1.9.382,2.261,2.676,2.571,8.649-.182,8.656-.11c.029.311-.733.551-1.179.637-1.415.276-15.855,4.093-20.356,5.277a1.413,1.413,0,0,0,.646,2.751l14.881-3.069a.151.151,0,0,1,.067.294l-17.275,4.275a1.729,1.729,0,0,0,.789,3.365l17.825-3.951a.147.147,0,0,1,.067.287l-17.088,4.18a1.642,1.642,0,0,0,.728,3.2l16.522-3.17c.083-.017.153.085.159.17,0,.068.121.57.054.586l-14,2.56a1.76,1.76,0,0,0-1.329,1.963h0a1.76,1.76,0,0,0,1.461,1.486c3.089.5,10.337-1.085,18.591-1.854,3.568-.332,12.064-3.125,19.84-4.352a46.768,46.768,0,0,1,23.413,2c.677-2.328,2.916-8.234,2.091-10.689C657.857,1335.966,656,1333.05,654.726,1329.877Z" transform="translate(-582.447 -1153.654)" fill="#ffc3b5"/>
              <path id="Trazado_165896" data-name="Trazado 165896" d="M633.74,1352.694a2.758,2.758,0,1,1-3.131-2.529A2.849,2.849,0,0,1,633.74,1352.694Z" transform="translate(-600.954 -1163.781)" fill="#fff"/>
              <path id="Trazado_165897" data-name="Trazado 165897" d="M628.594,1355a2.758,2.758,0,1,1-3.131-2.53A2.849,2.849,0,0,1,628.594,1355Z" transform="translate(-598.556 -1164.855)" fill="#fff"/>
              <path id="Trazado_165898" data-name="Trazado 165898" d="M624.769,1361.6a1.866,1.866,0,1,1-2.105-1.59A1.865,1.865,0,0,1,624.769,1361.6Z" transform="translate(-597.598 -1168.373)" fill="#fff"/>
              <path id="Trazado_165899" data-name="Trazado 165899" d="M630.78,1367.9a2.23,2.23,0,1,1-2.422-1.5A2.032,2.032,0,0,1,630.78,1367.9Z" transform="translate(-600.099 -1171.348)" fill="#fff"/>
              <path id="Trazado_165900" data-name="Trazado 165900" d="M631.344,1361.825a2.231,2.231,0,1,1-2.423-1.5A2.032,2.032,0,0,1,631.344,1361.825Z" transform="translate(-600.361 -1168.517)" fill="#fff"/>
              <path id="Trazado_165901" data-name="Trazado 165901" d="M697.866,1247.673l2.31,22.685s78.7-2.314,83.74-4.415,26.886-67.634,26.886-67.634,5.8-39.287-6.13-42.538-19.916,8.931-24.957,26.995-15.124,53.351-15.124,53.351Z" transform="translate(-633.392 -1072.958)" fill="url(#linear-gradient)"/>
            </g>
            <g id="Grupo_128893" data-name="Grupo 128893" transform="translate(70.146 149.155)">
              <path id="Trazado_165902" data-name="Trazado 165902" d="M986.9,1110.774c4.32-13.79,1.609-39.573-5.105-51.931-13.245-24.379-51.626-45.759-72.692-26.126-21.426,4.712-38.213,26.509-38.837,48.363-23.252,12.811-37.771,42.317-16.539,65.656-6.558,20.263,9.608,49.224,25.041,63.382,3.7,3.4-2.3,27.018,20.258,37.6C914.97,1255.2,1042.272,1248.365,986.9,1110.774Z" transform="translate(-810.879 -1025.033)" fill="#12263f"/>
              <g id="Grupo_128892" data-name="Grupo 128892" transform="translate(0 14.482)">
                <path id="Trazado_165903" data-name="Trazado 165903" d="M965.524,1054.454a26.1,26.1,0,0,1,14.337,10.693c5.527,8.556,9.784,35.3-7.947,46.751s-32.061-6.934-32.482-23.031S942.119,1051.331,965.524,1054.454Z" transform="translate(-850.236 -1051.453)" fill="#ffc3b5"/>
                <path id="Trazado_165904" data-name="Trazado 165904" d="M932.9,1102.056c.365,3.805,2.457,6.718,4.674,6.506s3.718-3.469,3.354-7.275-2.457-6.718-4.674-6.505S932.534,1098.251,932.9,1102.056Z" transform="translate(-847.549 -1068.108)" fill="#ffc3b5"/>
                <path id="Trazado_165905" data-name="Trazado 165905" d="M972.217,1049.579s13.765,30.2,22.979,32.3,9.081,13.939,9.081,13.939-2.348-32.028-10.983-38.3S972.217,1049.579,972.217,1049.579Z" transform="translate(-863.692 -1049.579)" fill="#12263f"/>
                <path id="Trazado_165906" data-name="Trazado 165906" d="M1004.17,1109.85c-1.213,3.82-.1,7.582,2.479,8.4s5.659-1.612,6.872-5.433.1-7.583-2.48-8.4S1005.383,1106.029,1004.17,1109.85Z" transform="translate(-876.591 -1071.998)" fill="#ffc3b5"/>
                <g id="Grupo_128888" data-name="Grupo 128888" transform="translate(0 21.469)">
                  <path id="Trazado_165907" data-name="Trazado 165907" d="M788.967,1146.364c-4.958-8.518,17.744-24.058,34.451-37.4a89.649,89.649,0,0,1,11.841-8.828c4.627-4.017,13.008-10.908,21.055-14.008,1.313-.505,12.943.363,14.015.38s7.885,2.094,6.234,4.632c-.391.6-4.983-.075-8-.548,3.4.731,9.6,2.8,10.107,3.888,1.19,2.549-10.312,1.156-13.65.386-2.669-.616-7.062,4.232-8.715,6.2l-.012.014a1.685,1.685,0,0,0,.91,2.7,4.07,4.07,0,0,0,2.482-.052c.348-.143,1.794-2.841,3.029-3.509,1.962-1.062,3.681.126,1.822,3.081a58.324,58.324,0,0,1-3.644,5.112c-2.188,2.774-12.178,4.1-14.568,3.7-1.2.02-4.551.981-5.213.98,0,0-14.379,12.382-24.639,26.064,14,3.883,37.5,11.672,37.5,11.672s1.538,29.722.061,28.825S794.746,1156.291,788.967,1146.364Z" transform="translate(-788.275 -1085.967)" fill="#ffc3b5"/>
                </g>
                <g id="Grupo_128889" data-name="Grupo 128889" transform="translate(143.684 20.805)">
                  <path id="Trazado_165908" data-name="Trazado 165908" d="M1046.847,1084.842c.018,0-7.2.463-7.178.458-3.342.973-7.354,2.955-7.785,4.082-1.005,2.628,8.5-.444,11.773-1.451,2.166-.666,9.645,2.065,12.533,3.776Z" transform="translate(-1031.809 -1084.842)" fill="#f48c7f"/>
                  <path id="Trazado_165909" data-name="Trazado 165909" d="M1073.132,1096.475l1.4,1.027A6.918,6.918,0,0,0,1073.132,1096.475Z" transform="translate(-1048.752 -1089.611)" fill="#f79c8d"/>
                </g>
                <path id="Trazado_165910" data-name="Trazado 165910" d="M1018.571,1494.57c.032-50.9-19.932-65.683-22.933-63.647l-74.388,7.737L905.9,1494.57Z" transform="translate(-836.5 -1205.858)" fill="#1d272b"/>
                <path id="Trazado_165911" data-name="Trazado 165911" d="M844.332,1205.49l7.194-27.935,61.229,7.554s17.194-1.1,26.455-.808c6.564.208,43.975-5.34,68.855-11.5.142.329,4.494,22.826,8.858,31.157-18.675,9.347-28.067,10.324-40.933,21.384-.006.047-1.324,55.159-2.627,87.617,2.8,8.067,9.829,24.405,9.829,24.405s-22.912,13.092-57.726,10.117a186.229,186.229,0,0,1-36-6.546s6.424-23.239,8.141-36.8c-7.48-33.267-18.752-80.623-18.752-80.623Z" transform="translate(-811.258 -1100.102)" fill="url(#linear-gradient-8)"/>
                <path id="Trazado_165912" data-name="Trazado 165912" d="M980.728,1142.44s1.967,22.678,4.5,28.963,2.148,28.888-11.528,32.968-13.43-24.927-14-31.645-1.19-28.7-1.19-28.7Z" transform="translate(-858.072 -1087.652)" fill="#ffc3b5"/>
                <path id="Trazado_165913" data-name="Trazado 165913" d="M981.415,1149.321a24.818,24.818,0,0,1-4.919,4.1c-6.624,4.218-12.7,4.159-17.633,1.636-.211-5.988-.354-11.026-.354-11.026l22.218-1.586S980.978,1145.324,981.415,1149.321Z" transform="translate(-858.072 -1087.652)" fill="#fc8899"/>
                <path id="Trazado_165914" data-name="Trazado 165914" d="M939.568,1102.789l-4.276,21.686s8.654,11.2,17.41,12.218,6.923.611,11.606-.2,15-7.941,15-7.941-1.221-18.123-.2-21.381C979.106,1107.167,956.876,1112.156,939.568,1102.789Z" transform="translate(-848.553 -1071.395)" fill="#fcfcfc"/>
                <g id="Grupo_128890" data-name="Grupo 128890" transform="translate(125.588 26.348)">
                  <path id="Trazado_165915" data-name="Trazado 165915" d="M1002.227,1127.664l-.87-1.376c.047-.031,4.811-3.048,9.743-6.491,8.558-5.973,10.526-8.245,10.937-9.068,1.6-3.2,1.128-12.084-.766-14.4-.461-.562-.784-.475-.939-.433-2.949.8-12.17,8.092-15.473,10.836l-.015.012c-.413.326-2.486,1.966-2.8,2.177l-.9-1.356c.192-.129,1.684-1.3,2.687-2.093.594-.493,12.206-10.1,16.081-11.149a2.463,2.463,0,0,1,2.625.974c2.478,3.029,2.73,12.628.964,16.161-.318.637-1.287,2.574-11.465,9.679C1007.066,1124.6,1002.276,1127.634,1002.227,1127.664Z" transform="translate(-1001.137 -1094.237)" fill="#fcfcfc"/>
                </g>
                <g id="Grupo_128891" data-name="Grupo 128891" transform="translate(73.547 24.914)">
                  <path id="Trazado_165916" data-name="Trazado 165916" d="M929.932,1121.922c-.038-.019-3.867-1.952-7.8-4.347a55.842,55.842,0,0,1-5.662-3.863c-1.919-1.535-3.014-2.805-3.346-3.885-.719-2.336.716-6.591,1.366-8.311a24.907,24.907,0,0,1,4.757-8.25c1.224-1.226,2.384-1.683,3.445-1.358,3.854,1.178,10.689,9.379,10.978,9.727l-1.254,1.04c-1.882-2.27-7.386-8.35-10.2-9.21-.422-.129-1.084.218-1.816.952a23.653,23.653,0,0,0-4.387,7.675c-1.194,3.16-1.717,6.008-1.333,7.256.815,2.65,10.234,8.226,15.979,11.119Z" transform="translate(-912.931 -1091.806)" fill="#fcfcfc"/>
                </g>
                <ellipse id="Elipse_4453" data-name="Elipse 4453" cx="18.566" cy="23.207" rx="18.566" ry="23.207" transform="translate(67.126 108.311)" fill="url(#linear-gradient-8)"/>
                <ellipse id="Elipse_4454" data-name="Elipse 4454" cx="18.566" cy="23.207" rx="18.566" ry="23.207" transform="translate(129.787 106.918)" fill="url(#linear-gradient-8)"/>
                <path id="Trazado_165917" data-name="Trazado 165917" d="M1041.581,1090.7c-4.735.305-6.806-1.154-8.485-.238s3.971,3.87,6.109,4.786,12.98,3.307,15.271,2.239,8.4,2.748,14.049,8.246,25.666,25.156,25.666,25.156l-12.991,6.761,7.635,22.754s34.377-15.465,37.431-22.8c.835-2-9.93-15.886-23.216-26.271s-37.427-22.4-39.412-24.542-13.439-7.941-14.355-8.552-11.639.238-11.639.238-10.646,5.494-10.046,7.195c.916,2.6,10.113-2.511,10.521-2.511.226,0,3.034,1.133,6.516,2.58,2.634,1.094,1.9,3.258.679,3.936A9.174,9.174,0,0,1,1041.581,1090.7Z" transform="translate(-886.388 -1061.241)" fill="#ffc3b5"/>
                <path id="Trazado_165918" data-name="Trazado 165918" d="M1108.677,1172.8c-5.818,1.44-12.321,2.846-18.954,4.153l10.847,34.617c4.781-2.376,10.388-4.321,16.965-7.613C1113.171,1195.63,1108.819,1173.133,1108.677,1172.8Z" transform="translate(-911.87 -1100.102)" fill="url(#linear-gradient-8)"/>
                <path id="Trazado_165919" data-name="Trazado 165919" d="M912.337,1109.861c-1.235.669-2.682,3.367-3.029,3.509l1.207,4.684a58.306,58.306,0,0,0,3.644-5.112C916.018,1109.987,914.3,1108.8,912.337,1109.861Z" transform="translate(-837.899 -1074.138)" fill="#f7a491"/>
              </g>
            </g>
          </g>
        </g>
        <g id="Grupo_128899" data-name="Grupo 128899" transform="translate(558.94 1058.359)">
          <g id="Grupo_128898" data-name="Grupo 128898" transform="translate(2.944)">
            <path id="Trazado_165942" data-name="Trazado 165942" d="M618.467,1216.294H608.394l-.922-9.215h11.918Z" transform="translate(-556.022 -1197.326)" fill="#1d272b"/>
            <path id="Trazado_165943" data-name="Trazado 165943" d="M568.265,1188.814h-25.83a31.313,31.313,0,0,0-31.313,31.313l.03,62.6h10.382l.08-62.6a20.821,20.821,0,0,1,20.821-20.821h32.953v-3.369A7.123,7.123,0,0,0,568.265,1188.814Z" transform="translate(-511.122 -1188.814)" fill="#d1d1d1"/>
          </g>
          <path id="Trazado_165944" data-name="Trazado 165944" d="M535.279,1318.145l-13.806,11.236a10.929,10.929,0,1,0,5.958,8.913l14.585-11.87a5.337,5.337,0,0,0-6.737-8.278Z" transform="translate(-505.608 -1248.526)" fill="#1d272b"/>
          <path id="Trazado_165945" data-name="Trazado 165945" d="M626.01,1293.377a2.724,2.724,0,1,1-5.448,0c0-1.5,2.724-17.558,2.724-17.558S626.01,1291.872,626.01,1293.377Z" transform="translate(-559.178 -1229.359)" fill="#fcfcfc"/>
          <path id="Trazado_165946" data-name="Trazado 165946" d="M618.417,1247.558a2.724,2.724,0,0,1-5.448,0c0-1.5,2.724-20.23,2.724-20.23S618.417,1246.054,618.417,1247.558Z" transform="translate(-555.64 -1206.762)" fill="#fcfcfc"/>
          <path id="Trazado_165947" data-name="Trazado 165947" d="M608.753,1274.706a2.724,2.724,0,1,1-5.448,0c0-1.5,2.724-18.387,2.724-18.387S608.753,1273.2,608.753,1274.706Z" transform="translate(-551.136 -1220.272)" fill="#fcfcfc"/>
        </g>
      </g>
      <g id="Grupo_128906" data-name="Grupo 128906" transform="translate(294.193 21364.424)">
        <g id="Grupo_128922" data-name="Grupo 128922" transform="translate(821.87 134.667)">
          <path id="Trazado_165959" data-name="Trazado 165959" d="M311.3,636.753l-4.734.133a2.109,2.109,0,0,1,.076.505l.187,6.77a2.079,2.079,0,0,1-.02.349l4.7-.211a1.492,1.492,0,0,0,1.415-1.5l-.128-4.635A1.46,1.46,0,0,0,311.3,636.753Z" transform="translate(-231.381 -628.417)" fill="#1d272b" fill-rule="evenodd"/>
          <g id="Grupo_128916" data-name="Grupo 128916" transform="translate(0 42.196)">
            <path id="Trazado_165960" data-name="Trazado 165960" d="M119.971,737.855a5.841,5.841,0,0,1,1.62-2.121l8.777-.242h0l8.11-.223c8,2.276,8.754,12.345,11.888,14.309,3.93,2.463,4.78,5.93,3.487,10.157-1.122,3.669-.9,9.688,2.754,11.816,6.325,3.683,4.768,8.209,2.105,12.9-.2.355,3.342,45.931,3.249,52.782-.12,8.82-3.56,20.014-13.129,21.84H108.479C66.391,845.363,98.118,763.149,119.971,737.855Z" transform="translate(-87.818 -735.269)" fill="#d8dce8" fill-rule="evenodd"/>
            <path id="Trazado_165961" data-name="Trazado 165961" d="M177.293,735.269c8,2.276,8.754,12.345,11.888,14.309,3.93,2.463,4.78,5.93,3.487,10.157-1.122,3.669-.9,9.688,2.755,11.816,6.325,3.683,4.768,8.209,2.105,12.9-.2.355,3.342,45.931,3.249,52.782-.12,8.82-3.56,20.014-13.129,21.84-51.51-5.477-45.719-91.458-28.153-121.22a4.075,4.075,0,0,1,1.039-2.121l8.711-.242h0Z" transform="translate(-126.634 -735.269)" fill="#bdc8d3" fill-rule="evenodd"/>
          </g>
          <g id="Grupo_128917" data-name="Grupo 128917" transform="translate(28.042 16.069)">
            <path id="Trazado_165962" data-name="Trazado 165962" d="M169.4,674.005a21.552,21.552,0,0,1,7.748,11.9l.1,0,14.248-.392a23.012,23.012,0,0,1,8.141-14.731Z" transform="translate(-169.405 -666.819)" fill="#008f85" fill-rule="evenodd"/>
            <path id="Trazado_165963" data-name="Trazado 165963" d="M265.709,659.253l8.109,25.623c1.711,5.406,8.865,1.259,6.786-1.762a29.438,29.438,0,0,1-4.907-22.6Z" transform="translate(-232.608 -659.253)" fill="#008f85" fill-rule="evenodd"/>
          </g>
          <path id="Trazado_165964" data-name="Trazado 165964" d="M199.5,629.4l-50.64,1.394a2.574,2.574,0,0,0-2.495,2.637l.316,11.475a2.523,2.523,0,0,0,2.636,2.5l50.549-4.7a2.64,2.64,0,0,0,2.5-2.636l-.225-8.172A2.574,2.574,0,0,0,199.5,629.4Z" transform="translate(-126.241 -623.59)" fill="#04776f" fill-rule="evenodd"/>
          <path id="Trazado_165965" data-name="Trazado 165965" d="M212.388,618.364l-41.305-5.844c-1.186-.168-2.125.85-2.086,2.261l.131,4.774Z" transform="translate(-141.094 -612.502)" fill="#04776f" fill-rule="evenodd"/>
          <path id="Trazado_165966" data-name="Trazado 165966" d="M173.391,622.981l32.331-.89L175.4,617.8c-1.186-.168-2.125.85-2.086,2.26Z" transform="translate(-143.925 -615.968)" fill="#01655e" fill-rule="evenodd"/>
          <g id="Grupo_128920" data-name="Grupo 128920" transform="translate(31.716 83.144)">
            <rect id="Rectángulo_35693" data-name="Rectángulo 35693" width="32.092" height="47.979" rx="5.78" fill="#008f85"/>
            <g id="Grupo_128919" data-name="Grupo 128919" transform="translate(5.831 12.928)">
              <rect id="Rectángulo_35694" data-name="Rectángulo 35694" width="16.403" height="0.969" transform="translate(2.013 13.329)" fill="#fff"/>
              <rect id="Rectángulo_35695" data-name="Rectángulo 35695" width="16.403" height="0.969" transform="translate(2.013 15.328)" fill="#fff"/>
              <rect id="Rectángulo_35696" data-name="Rectángulo 35696" width="16.403" height="0.969" transform="translate(2.013 17.327)" fill="#fff"/>
              <rect id="Rectángulo_35697" data-name="Rectángulo 35697" width="16.403" height="0.969" transform="translate(2.013 19.327)" fill="#fff"/>
              <rect id="Rectángulo_35698" data-name="Rectángulo 35698" width="16.403" height="0.969" transform="translate(2.013 21.326)" fill="#fff"/>
              <rect id="Rectángulo_35699" data-name="Rectángulo 35699" width="16.403" height="0.969" transform="translate(2.013 23.325)" fill="#fff"/>
              <rect id="Rectángulo_35700" data-name="Rectángulo 35700" width="16.403" height="0.969" transform="translate(2.013 28.778)" fill="#fff"/>
              <g id="Grupo_128918" data-name="Grupo 128918">
                <rect id="Rectángulo_35701" data-name="Rectángulo 35701" width="20.429" height="3.764" transform="translate(0 5.142)" fill="#fff"/>
                <rect id="Rectángulo_35702" data-name="Rectángulo 35702" width="17.779" height="3.764" transform="translate(1.325)" fill="#fff"/>
              </g>
            </g>
            <path id="Trazado_165967" data-name="Trazado 165967" d="M217.257,860.964H219.7v3.122h3.122v2.446H219.7v3.122h-2.446v-3.122h-3.122v-2.446h3.122Z" transform="translate(-202.434 -858.71)" fill="#f7f7fb" fill-rule="evenodd"/>
          </g>
          <g id="Grupo_128921" data-name="Grupo 128921" transform="translate(32.119 34.752)">
            <path id="Trazado_165968" data-name="Trazado 165968" d="M199.368,713.613l-14.336.4a2.893,2.893,0,0,0-2.656,2.381l-1.111,7.324,22.4-.626-1.518-7.251A2.894,2.894,0,0,0,199.368,713.613Z" transform="translate(-181.266 -713.612)" fill="#1d272b" fill-rule="evenodd"/>
          </g>
        </g>
        <g id="Grupo_128915" data-name="Grupo 128915" transform="translate(794.639 165.469)">
          <path id="Trazado_165951" data-name="Trazado 165951" d="M496.135,923.114H454.98a5.463,5.463,0,0,1-5.447-5.447V832.847h52.049v84.82A5.463,5.463,0,0,1,496.135,923.114Z" transform="translate(-449.533 -787.915)" fill="#bdc8d3" fill-rule="evenodd"/>
          <g id="Grupo_128906-2" data-name="Grupo 128906" transform="translate(20.732 5.361)">
            <rect id="Rectángulo_35679" data-name="Rectángulo 35679" width="10.586" height="21.526" fill="#aab7c4"/>
            <rect id="Rectángulo_35680" data-name="Rectángulo 35680" width="5.177" height="21.526" transform="translate(1.449)" fill="#d8dce8"/>
          </g>
          <g id="Grupo_128909" data-name="Grupo 128909" transform="translate(9.3 17.877)">
            <g id="Grupo_128908" data-name="Grupo 128908" transform="translate(1.615)">
              <g id="Grupo_128907" data-name="Grupo 128907">
                <path id="Trazado_165952" data-name="Trazado 165952" d="M481.29,765.833v-9.32a2.387,2.387,0,0,1,2.38-2.38h25.458a2.387,2.387,0,0,1,2.38,2.38v9.32Z" transform="translate(-481.29 -754.133)" fill="#1d272b" fill-rule="evenodd"/>
              </g>
              <rect id="Rectángulo_35681" data-name="Rectángulo 35681" width="2.235" height="6.422" rx="1.117" transform="translate(19.726 1.552)" fill="#fff"/>
            </g>
            <rect id="Rectángulo_35682" data-name="Rectángulo 35682" width="33.449" height="2.794" rx="1.397" transform="translate(0 11.7)" fill="#1d272b"/>
          </g>
          <g id="Grupo_128910" data-name="Grupo 128910" transform="translate(0 32.371)">
            <path id="Trazado_165954" data-name="Trazado 165954" d="M490.914,796.3H460.2l-10.668,12.561h52.049Z" transform="translate(-449.533 -796.303)" fill="#d8dce8" fill-rule="evenodd"/>
            <path id="Trazado_165955" data-name="Trazado 165955" d="M507.932,796.3H492.441l-5.381,12.561h26.253Z" transform="translate(-474.162 -796.303)" fill="#f4f5fa" fill-rule="evenodd"/>
          </g>
          <g id="Grupo_128911" data-name="Grupo 128911" transform="translate(7.579 0)">
            <path id="Trazado_165956" data-name="Trazado 165956" d="M518.466,714.091C500.2,712.858,496,694,471.585,706.225v10.839c23.833-13.975,28.25.032,46.881.936Z" transform="translate(-471.585 -702.12)" fill="#008f85" fill-rule="evenodd"/>
            <path id="Trazado_165957" data-name="Trazado 165957" d="M471.585,712.849v8.562c23.833-13.975,28.25.032,46.881.936v-1.632C500.2,719.482,496,700.625,471.585,712.849Z" transform="translate(-471.585 -706.468)" fill="#008f85" fill-rule="evenodd"/>
          </g>
          <g id="Grupo_128914" data-name="Grupo 128914" transform="translate(5.674 54.53)">
            <rect id="Rectángulo_35683" data-name="Rectángulo 35683" width="40.702" height="60.851" rx="7.331" fill="#008f85"/>
            <g id="Grupo_128913" data-name="Grupo 128913" transform="translate(7.396 16.397)">
              <rect id="Rectángulo_35684" data-name="Rectángulo 35684" width="20.805" height="1.229" transform="translate(2.553 16.905)" fill="#fff"/>
              <rect id="Rectángulo_35685" data-name="Rectángulo 35685" width="20.805" height="1.229" transform="translate(2.553 19.44)" fill="#fff"/>
              <rect id="Rectángulo_35686" data-name="Rectángulo 35686" width="20.805" height="1.229" transform="translate(2.553 21.976)" fill="#fff"/>
              <rect id="Rectángulo_35687" data-name="Rectángulo 35687" width="20.805" height="1.229" transform="translate(2.553 24.512)" fill="#fff"/>
              <rect id="Rectángulo_35688" data-name="Rectángulo 35688" width="20.805" height="1.229" transform="translate(2.553 27.047)" fill="#fff"/>
              <rect id="Rectángulo_35689" data-name="Rectángulo 35689" width="20.805" height="1.229" transform="translate(2.553 29.583)" fill="#fff"/>
              <rect id="Rectángulo_35690" data-name="Rectángulo 35690" width="20.805" height="1.229" transform="translate(2.553 36.499)" fill="#fff"/>
              <g id="Grupo_128912" data-name="Grupo 128912">
                <rect id="Rectángulo_35691" data-name="Rectángulo 35691" width="25.911" height="4.774" transform="translate(0 6.521)" fill="#fff"/>
                <rect id="Rectángulo_35692" data-name="Rectángulo 35692" width="22.549" height="4.774" transform="translate(1.681)" fill="#fff"/>
              </g>
            </g>
            <path id="Trazado_165958" data-name="Trazado 165958" d="M516.278,869.09h-3.1v3.96h-3.96v3.1h3.96v3.96h3.1v-3.96h3.96v-3.1h-3.96Z" transform="translate(-494.376 -866.231)" fill="#f7f7fb" fill-rule="evenodd"/>
          </g>
        </g>
        <g id="Grupo_128929" data-name="Grupo 128929" transform="translate(700.2 205.699)">
          <g id="Grupo_128925" data-name="Grupo 128925" transform="translate(28.773)">
            <g id="Grupo_128923" data-name="Grupo 128923" transform="translate(30.441)">
              <path id="Trazado_165970" data-name="Trazado 165970" d="M1239.079,384.015c-23.425-4.615-40.269-10.825-39.82-16.637-21.513,11.848-5.368,30.189-22.635,52.616l13.288,6.418C1216.3,414.146,1216.458,395.254,1239.079,384.015Z" transform="translate(-1176.623 -367.378)" fill-rule="evenodd" fill="url(#linear-gradient-12)"/>
              <path id="Trazado_165971" data-name="Trazado 165971" d="M1211.979,386.433c-11.652,13.316-10.471,26.76-25.314,47.733l7.3,3.527c17.223-14.817,24.132-30.5,38.434-44.14C1223.728,391.345,1216.644,388.92,1211.979,386.433Z" transform="translate(-1183.214 -379.884)" fill-rule="evenodd" fill="url(#linear-gradient-13)"/>
            </g>
            <g id="Grupo_128924" data-name="Grupo 128924" transform="translate(0 24.903)">
              <path id="Trazado_165972" data-name="Trazado 165972" d="M1122.228,439.831c-15.957,3.765-29.709,4.367-34.049,0-1.989,15.168,20.948,23.61,29.524,45.189l12.044.63C1133.972,468.7,1119.179,454.894,1122.228,439.831Z" transform="translate(-1088.057 -439.831)" fill-rule="evenodd" fill="url(#linear-gradient-13)"/>
              <path id="Trazado_165973" data-name="Trazado 165973" d="M1112.8,446.315c4.355,13.238,15.564,22.666,24.271,42.45l6.62.347c-2.606-16.025-11.322-29.545-14.539-43.824A68.431,68.431,0,0,1,1112.8,446.315Z" transform="translate(-1104.295 -443.412)" fill-rule="evenodd" fill="url(#linear-gradient-13)"/>
            </g>
          </g>
          <g id="Grupo_128928" data-name="Grupo 128928" transform="translate(0 51.376)">
            <rect id="Rectángulo_35703" data-name="Rectángulo 35703" width="98.557" height="43.593" transform="translate(22.055)" fill="#1d272b"/>
            <rect id="Rectángulo_35704" data-name="Rectángulo 35704" width="22.055" height="43.593" fill="url(#linear-gradient)"/>
            <rect id="Rectángulo_35705" data-name="Rectángulo 35705" width="94.419" height="43.593" transform="translate(24.124)" fill="url(#linear-gradient)"/>
            <rect id="Rectángulo_35706" data-name="Rectángulo 35706" width="38.22" height="36.282" rx="6.535" transform="translate(52.224 3.655)" fill="#1d272b"/>
            <g id="Grupo_128927" data-name="Grupo 128927" transform="translate(61.566 6.778)">
              <g id="Grupo_128926" data-name="Grupo 128926" transform="translate(0 14.635)">
                <rect id="Rectángulo_35707" data-name="Rectángulo 35707" width="19.536" height="1.154" transform="translate(0 4.723)" fill="#fff"/>
                <rect id="Rectángulo_35708" data-name="Rectángulo 35708" width="19.536" height="1.154" transform="translate(0 7.105)" fill="#fff"/>
                <rect id="Rectángulo_35709" data-name="Rectángulo 35709" width="19.536" height="1.154" transform="translate(0 9.486)" fill="#fff"/>
                <rect id="Rectángulo_35710" data-name="Rectángulo 35710" width="19.536" height="1.154" transform="translate(0 11.867)" fill="#fff"/>
                <rect id="Rectángulo_35711" data-name="Rectángulo 35711" width="19.536" height="1.154" transform="translate(0 14.248)" fill="#fff"/>
                <rect id="Rectángulo_35712" data-name="Rectángulo 35712" width="14.997" height="3.154" transform="translate(2.269)" fill="#fff"/>
              </g>
              <path id="Trazado_165974" data-name="Trazado 165974" d="M1197.926,536.575h3.587v4.579h4.579v3.587h-4.579v4.579h-3.587V544.74h-4.579v-3.587h4.579Z" transform="translate(-1189.951 -536.575)" fill="#f7f7fb" fill-rule="evenodd"/>
            </g>
          </g>
        </g>
      </g>
      <g id="Grupo_128907-2" data-name="Grupo 128907" transform="translate(939 21497.424)">
        <g id="Grupo_128245" data-name="Grupo 128245" transform="translate(0 52.416)">
          <rect id="Rectángulo_35476" data-name="Rectángulo 35476" width="69.887" height="13.815" rx="6.907" fill="url(#linear-gradient)"/>
        </g>
        <g id="Grupo_128246" data-name="Grupo 128246" transform="translate(5.282 65.011)">
          <path id="Trazado_165261" data-name="Trazado 165261" d="M531.557,1318.431H482.8a4.876,4.876,0,1,1,0-9.752h48.759a4.876,4.876,0,1,1,0,9.752Z" transform="translate(-477.922 -1308.679)" fill="#1d272b"/>
        </g>
        <g id="Grupo_128247" data-name="Grupo 128247" transform="translate(10.565 65.824)">
          <path id="Trazado_165262" data-name="Trazado 165262" d="M503.654,1416.333a4.876,4.876,0,0,1-4.876-4.876v-94.693a4.876,4.876,0,0,1,9.752,0v94.693A4.876,4.876,0,0,1,503.654,1416.333Z" transform="translate(-498.778 -1311.888)" fill="#1d272b"/>
        </g>
        <g id="Grupo_128248" data-name="Grupo 128248" transform="translate(48.759 65.824)">
          <path id="Trazado_165263" data-name="Trazado 165263" d="M654.448,1416.333a4.876,4.876,0,0,1-4.876-4.876v-94.693a4.876,4.876,0,0,1,9.752,0v94.693A4.876,4.876,0,0,1,654.448,1416.333Z" transform="translate(-649.572 -1311.888)" fill="#1d272b"/>
        </g>
        <g id="Grupo_128249" data-name="Grupo 128249" transform="translate(10.158 8.126)">
          <rect id="Rectángulo_35477" data-name="Rectángulo 35477" width="22.754" height="44.831" rx="5" fill="#868695"/>
        </g>
        <g id="Grupo_128250" data-name="Grupo 128250" transform="translate(15.44)">
          <rect id="Rectángulo_35478" data-name="Rectángulo 35478" width="12.596" height="13.409" rx="5" fill="#1d272b"/>
        </g>
        <g id="Grupo_128251" data-name="Grupo 128251" transform="translate(37.788 43.477)">
          <path id="Trazado_165264" data-name="Trazado 165264" d="M638.357,1228.127c0,2.458-2.56,4.469-5.688,4.469H611.946c-3.129,0-5.689-2.011-5.689-4.469s2.56-4.47,5.689-4.47h20.723C635.8,1223.658,638.357,1225.669,638.357,1228.127Z" transform="translate(-606.257 -1223.658)" fill="#008f85"/>
        </g>
      </g>
      <g id="Grupo_128908-2" data-name="Grupo 128908" transform="translate(1170 21558.625)">
        <g id="Grupo_90783" data-name="Grupo 90783" transform="translate(10.939 9.559)">
          <g id="Grupo_90780" data-name="Grupo 90780" transform="translate(38.397 5.013)">
            <path id="Trazado_149804" data-name="Trazado 149804" d="M222.192,156.964a3.261,3.261,0,0,1-.708-.3c-2.755-1.543-5.233-3.019-5.257-3.034a.211.211,0,0,1,.217-.363c.024.015,2.5,1.487,5.247,3.028.645.361,1.139.417,1.469.166.805-.611.727-2.993.233-5.03-.628-2.593-4.478-3.82-5.913-3.749a13.143,13.143,0,0,0-3.2.639.211.211,0,0,1-.14-.4,13.327,13.327,0,0,1,3.316-.663c1.818-.089,5.7,1.427,6.345,4.072.393,1.622.754,4.6-.388,5.467A1.335,1.335,0,0,1,222.192,156.964Z" transform="translate(-214.002 -147.252)" fill="#efebe9"/>
          </g>
          <g id="Grupo_90781" data-name="Grupo 90781" transform="translate(0 6.018)">
            <path id="Trazado_149805" data-name="Trazado 149805" d="M108.178,158.355a12.783,12.783,0,0,1-1.38-.469,6.582,6.582,0,0,1-4.077-3.878c-.537-1.588-.5-2.661.127-3.281,1.243-1.237,4.478-.128,6.84.684.335.115.65.223.937.317,3.025.99,4.554.447,4.57.441a.211.211,0,1,1,.146.4c-.067.025-1.684.6-4.847-.436-.289-.094-.607-.2-.943-.319-2.13-.731-5.348-1.836-6.4-.784-.49.488-.5,1.445-.025,2.846a6.181,6.181,0,0,0,3.836,3.622c4.045,1.65,10.326,1.229,13.24-.25a.212.212,0,1,1,.192.377C117.7,158.988,112.336,159.518,108.178,158.355Z" transform="translate(-102.348 -150.173)" fill="#97e8ce"/>
          </g>
          <path id="Trazado_149806" data-name="Trazado 149806" d="M167.372,144.167l-2.583-5.8a.424.424,0,0,0-.259-.233c-1.264-.393-2.259-1.157-6.521-4.261-4.46-3.248-9.207.988-11.768,2.467-1.912,1.1-6.329,3.366-7.838,4.135a.428.428,0,0,0-.113.68l5.017,5.187a.43.43,0,0,0,.351.128c3.327-.318,3.655.7,8.309,1.329,4.748.645,7.764-.366,10.22-2.168a6,6,0,0,1,4.71-.867A.428.428,0,0,0,167.372,144.167Z" transform="translate(-125.85 -132.674)" fill="#b2f2ef"/>
          <path id="Trazado_149807" data-name="Trazado 149807" d="M144.751,144.08a.586.586,0,0,1,.153-.929c2.018-1.038,4.756-2.465,6.182-3.29.424-.245.891-.551,1.385-.876,2.04-1.34,4.833-3.174,7.414-2.452a4.989,4.989,0,0,1,1.587.788l.836.609c3.149,2.3,4.331,3.157,5.467,3.627a.583.583,0,0,1,.311.3l1.391,3.124a.588.588,0,0,1-.491.823,6.545,6.545,0,0,0-3.339,1.225c-2.542,1.865-5.41,2.462-9.3,1.934a25.488,25.488,0,0,1-3.718-.772l-.49-.138a10.354,10.354,0,0,0-3.726-.474.586.586,0,0,1-.45-.178Z" transform="translate(-130.061 -135.099)" fill="#00a79e"/>
          <g id="Grupo_90782" data-name="Grupo 90782" transform="translate(14.898 2.296)">
            <path id="Trazado_149808" data-name="Trazado 149808" d="M151.8,143.3c.451-.261.946-.586,1.47-.93,2.132-1.4,5.052-3.318,7.717-2.572a5.134,5.134,0,0,1,1.632.81l.884.644c3.338,2.434,4.588,3.344,5.8,3.847a.139.139,0,0,0,.072.008l-.156-.352a37.974,37.974,0,0,1-5.555-3.732l-.883-.644a5.4,5.4,0,0,0-1.722-.854c-2.789-.78-5.77,1.178-7.949,2.609-.52.341-1.011.664-1.455.921-1.377.8-3.914,2.125-5.983,3.192l.2.212C147.934,145.4,150.43,144.09,151.8,143.3Z" transform="translate(-145.671 -139.35)" fill="#008f85"/>
            <path id="Trazado_149809" data-name="Trazado 149809" d="M172.887,150.683c-1.185-.489-2.427-1.394-5.747-3.814l-.883-.644a5.406,5.406,0,0,0-1.722-.854c-2.789-.78-5.771,1.178-7.954,2.612-.518.34-1.007.661-1.45.917-1.186.685-3.231,1.766-5.1,2.734l.2.211c1.849-.96,3.861-2.023,5.035-2.7.45-.26.942-.583,1.469-.93,2.132-1.4,5.052-3.318,7.717-2.573a5.124,5.124,0,0,1,1.631.811l.886.645c3.338,2.433,4.587,3.343,5.8,3.846a.139.139,0,0,0,.184-.076A.141.141,0,0,0,172.887,150.683Z" transform="translate(-148.534 -143.184)" fill="#008f85"/>
            <path id="Trazado_149810" data-name="Trazado 149810" d="M169.731,152.069a5.406,5.406,0,0,0-1.722-.854c-2.789-.78-5.77,1.179-7.954,2.613-.518.34-1.007.661-1.45.917-1,.578-2.613,1.438-4.214,2.274l.007.007a.587.587,0,0,0,.284.16c1.551-.812,3.094-1.636,4.064-2.2.45-.26.942-.583,1.47-.93,2.132-1.4,5.052-3.318,7.717-2.572a5.123,5.123,0,0,1,1.632.81l.884.644c1.716,1.251,2.879,2.1,3.771,2.7q.189-.05.376-.088c-.911-.6-2.119-1.479-3.982-2.836Z" transform="translate(-151.392 -147.018)" fill="#008f85"/>
            <path id="Trazado_149811" data-name="Trazado 149811" d="M177.021,157.912a5.4,5.4,0,0,0-1.721-.854c-2.789-.78-5.771,1.179-7.948,2.608-.52.341-1.01.664-1.456.921-.37.214-.824.467-1.33.742.132.033.264.067.4.1.4-.221.767-.424,1.073-.6.452-.261.946-.586,1.469-.929,2.132-1.4,5.052-3.318,7.717-2.573a5.128,5.128,0,0,1,1.631.81l.886.646c.649.473,1.217.887,1.724,1.253q.14-.076.281-.144c-.534-.386-1.141-.828-1.841-1.338Z" transform="translate(-158.068 -150.852)" fill="#008f85"/>
            <path id="Trazado_149812" data-name="Trazado 149812" d="M183,163.755a5.419,5.419,0,0,0-1.722-.854c-2.789-.78-5.77,1.178-7.948,2.609-.2.132-.4.26-.589.384l.393.081.352-.231c2.132-1.4,5.051-3.317,7.717-2.572a5.124,5.124,0,0,1,1.632.811l.865.631c.082-.055.163-.113.245-.171l-.061-.044Z" transform="translate(-163.432 -154.685)" fill="#008f85"/>
          </g>
        </g>
        <g id="Grupo_90787" data-name="Grupo 90787" transform="translate(23.407 15.922)">
          <g id="Grupo_90784" data-name="Grupo 90784" transform="translate(38.397 5.013)">
            <path id="Trazado_149813" data-name="Trazado 149813" d="M258.448,175.466a3.259,3.259,0,0,1-.707-.3c-2.755-1.543-5.233-3.019-5.257-3.033a.212.212,0,0,1,.216-.364c.025.015,2.5,1.488,5.248,3.028.644.361,1.139.417,1.469.166.805-.611.727-2.993.233-5.03-.628-2.593-4.478-3.82-5.913-3.749a13.118,13.118,0,0,0-3.2.639.212.212,0,0,1-.14-.4,13.333,13.333,0,0,1,3.316-.663c1.818-.089,5.7,1.427,6.345,4.072.393,1.623.754,4.6-.389,5.467A1.334,1.334,0,0,1,258.448,175.466Z" transform="translate(-250.258 -165.754)" fill="#efebe9"/>
          </g>
          <g id="Grupo_90785" data-name="Grupo 90785" transform="translate(0 6.018)">
            <path id="Trazado_149814" data-name="Trazado 149814" d="M144.435,176.857a12.614,12.614,0,0,1-1.38-.469,6.582,6.582,0,0,1-4.078-3.878c-.537-1.588-.5-2.661.128-3.281,1.243-1.237,4.478-.128,6.84.684.334.115.65.223.937.317,3.026.99,4.555.447,4.57.441a.211.211,0,0,1,.146.4c-.067.025-1.684.595-4.848-.436-.289-.094-.607-.2-.943-.319-2.13-.73-5.348-1.836-6.4-.784-.49.488-.5,1.445-.025,2.846A6.18,6.18,0,0,0,143.215,176c4.045,1.65,10.326,1.229,13.24-.25a.212.212,0,1,1,.192.377C153.954,177.49,148.592,178.019,144.435,176.857Z" transform="translate(-138.604 -168.675)" fill="#9de2f5"/>
          </g>
          <path id="Trazado_149815" data-name="Trazado 149815" d="M203.628,162.669l-2.583-5.8a.422.422,0,0,0-.259-.233c-1.265-.393-2.259-1.158-6.52-4.261-4.46-3.248-9.207.988-11.768,2.467-1.912,1.1-6.329,3.366-7.838,4.135a.428.428,0,0,0-.113.68l5.017,5.187a.432.432,0,0,0,.351.128c3.327-.319,3.655.7,8.309,1.329,4.748.645,7.764-.366,10.22-2.168a6,6,0,0,1,4.71-.867A.428.428,0,0,0,203.628,162.669Z" transform="translate(-162.107 -151.176)" fill="#b2f2ef"/>
          <path id="Trazado_149816" data-name="Trazado 149816" d="M181.008,162.582a.586.586,0,0,1,.153-.929c2.018-1.038,4.756-2.465,6.182-3.289.424-.245.891-.552,1.385-.876,2.04-1.34,4.833-3.174,7.414-2.452a4.986,4.986,0,0,1,1.587.788l.836.609c3.149,2.3,4.331,3.157,5.468,3.626a.583.583,0,0,1,.311.3l1.391,3.124a.587.587,0,0,1-.491.823,6.546,6.546,0,0,0-3.339,1.225c-2.542,1.866-5.41,2.462-9.3,1.934a25.551,25.551,0,0,1-3.718-.773l-.49-.138a10.356,10.356,0,0,0-3.726-.475.586.586,0,0,1-.45-.177Z" transform="translate(-166.318 -153.601)" fill="#00a79e"/>
          <g id="Grupo_90786" data-name="Grupo 90786" transform="translate(14.898 2.296)">
            <path id="Trazado_149817" data-name="Trazado 149817" d="M188.052,161.8c.451-.261.945-.585,1.47-.93,2.132-1.4,5.051-3.318,7.717-2.573a5.127,5.127,0,0,1,1.631.811l.884.644c3.339,2.434,4.588,3.344,5.8,3.847a.137.137,0,0,0,.073.008l-.156-.351a37.971,37.971,0,0,1-5.555-3.732l-.883-.644a5.41,5.41,0,0,0-1.722-.854c-2.789-.78-5.771,1.178-7.949,2.609-.52.341-1.011.664-1.455.921-1.377.8-3.914,2.125-5.984,3.193l.2.212C184.191,163.9,186.687,162.593,188.052,161.8Z" transform="translate(-181.927 -157.853)" fill="#008f85"/>
            <path id="Trazado_149818" data-name="Trazado 149818" d="M209.143,169.185c-1.185-.489-2.426-1.394-5.747-3.814l-.883-.643a5.4,5.4,0,0,0-1.722-.854c-2.789-.78-5.77,1.179-7.954,2.612-.518.34-1.007.661-1.45.917-1.186.685-3.231,1.766-5.1,2.734l.2.211c1.849-.96,3.861-2.023,5.035-2.7.45-.26.942-.583,1.469-.929,2.132-1.4,5.052-3.318,7.717-2.573a5.126,5.126,0,0,1,1.631.81l.885.645c3.338,2.433,4.586,3.344,5.8,3.846a.138.138,0,0,0,.184-.076A.141.141,0,0,0,209.143,169.185Z" transform="translate(-184.79 -161.687)" fill="#008f85"/>
            <path id="Trazado_149819" data-name="Trazado 149819" d="M205.988,170.571a5.4,5.4,0,0,0-1.721-.854c-2.789-.78-5.771,1.178-7.954,2.612-.518.34-1.007.661-1.449.917-1,.578-2.613,1.438-4.214,2.274l.007.007a.585.585,0,0,0,.284.159c1.551-.812,3.094-1.636,4.065-2.2.45-.26.942-.583,1.47-.93,2.132-1.4,5.051-3.318,7.717-2.572a5.13,5.13,0,0,1,1.631.81l.884.644c1.716,1.251,2.88,2.1,3.771,2.7.126-.033.252-.063.376-.089-.911-.6-2.119-1.479-3.982-2.836Z" transform="translate(-187.649 -165.52)" fill="#008f85"/>
            <path id="Trazado_149820" data-name="Trazado 149820" d="M213.278,176.414a5.408,5.408,0,0,0-1.722-.854c-2.789-.78-5.77,1.178-7.948,2.608-.519.341-1.01.663-1.455.921-.37.214-.824.466-1.33.742.132.033.264.067.4.1.4-.22.767-.424,1.073-.6.452-.261.946-.586,1.469-.93,2.132-1.4,5.052-3.318,7.717-2.573a5.132,5.132,0,0,1,1.631.81l.886.646c.649.473,1.217.887,1.723,1.253q.14-.076.281-.144c-.534-.386-1.141-.828-1.841-1.338Z" transform="translate(-194.325 -169.354)" fill="#008f85"/>
            <path id="Trazado_149821" data-name="Trazado 149821" d="M219.257,182.257a5.405,5.405,0,0,0-1.722-.854c-2.789-.78-5.77,1.178-7.948,2.608-.2.132-.4.26-.589.384.127.027.257.055.393.082l.352-.231c2.132-1.4,5.052-3.317,7.717-2.572a5.122,5.122,0,0,1,1.631.811l.866.631c.082-.055.163-.113.244-.171l-.061-.044Z" transform="translate(-199.689 -173.188)" fill="#008f85"/>
          </g>
        </g>
        <g id="Grupo_90795" data-name="Grupo 90795" transform="translate(0 0)">
          <g id="Grupo_90788" data-name="Grupo 90788" transform="translate(12.22 4.901)">
            <rect id="Rectángulo_33170" data-name="Rectángulo 33170" width="4.843" height="4.843" transform="translate(6.109 4.603) rotate(161.881)" fill="#cfd8dc"/>
            <rect id="Rectángulo_33171" data-name="Rectángulo 33171" width="3.293" height="4.843" transform="matrix(-0.95, 0.311, -0.311, -0.95, 5.373, 4.844)" fill="#37474f"/>
            <rect id="Rectángulo_33172" data-name="Rectángulo 33172" width="1.317" height="4.843" transform="translate(4.434 5.151) rotate(161.882)" fill="#fff"/>
          </g>
          <path id="Trazado_149822" data-name="Trazado 149822" d="M88.437,105.839l1.277,3.9a1.4,1.4,0,0,1-.892,1.76l-6.408,2.1a1.4,1.4,0,0,1-1.759-.892l-.337-1.031a1.4,1.4,0,0,0-1.76-.892l-7.586,2.482-.434-1.326,16.139-6.993A1.4,1.4,0,0,1,88.437,105.839Z" transform="translate(-70.538 -104.877)" fill="#fff"/>
          <g id="Grupo_90790" data-name="Grupo 90790" transform="translate(11.588 8.246)">
            <rect id="Rectángulo_33173" data-name="Rectángulo 33173" width="8.912" height="3.41" rx="1.662" transform="translate(0 2.771) rotate(-18.119)" fill="#37474f"/>
            <g id="Grupo_90789" data-name="Grupo 90789" transform="translate(0.928 0.767)">
              <path id="Trazado_149823" data-name="Trazado 149823" d="M125.927,131.1a.368.368,0,0,1,.464.236l.53,1.62a.368.368,0,0,1-.7.229l-.53-1.62A.368.368,0,0,1,125.927,131.1Z" transform="translate(-119.229 -131.086)" fill="#2a383e"/>
              <path id="Trazado_149824" data-name="Trazado 149824" d="M122.179,132.33a.368.368,0,0,1,.464.236l.53,1.62a.368.368,0,1,1-.7.229l-.53-1.62A.368.368,0,0,1,122.179,132.33Z" transform="translate(-116.77 -131.89)" fill="#2a383e"/>
              <path id="Trazado_149825" data-name="Trazado 149825" d="M118.431,133.557a.368.368,0,0,1,.464.235l.53,1.62a.368.368,0,0,1-.7.229l-.53-1.62A.368.368,0,0,1,118.431,133.557Z" transform="translate(-114.311 -132.695)" fill="#2a383e"/>
              <path id="Trazado_149826" data-name="Trazado 149826" d="M114.683,134.783a.368.368,0,0,1,.464.236l.53,1.62a.368.368,0,1,1-.7.229l-.53-1.62A.368.368,0,0,1,114.683,134.783Z" transform="translate(-111.852 -133.499)" fill="#2a383e"/>
              <path id="Trazado_149827" data-name="Trazado 149827" d="M110.935,136.009a.368.368,0,0,1,.464.236l.53,1.62a.368.368,0,1,1-.7.229l-.53-1.62A.368.368,0,0,1,110.935,136.009Z" transform="translate(-109.393 -134.304)" fill="#2a383e"/>
              <path id="Trazado_149828" data-name="Trazado 149828" d="M107.187,137.236a.368.368,0,0,1,.464.235l.53,1.62a.368.368,0,0,1-.7.229l-.53-1.62A.368.368,0,0,1,107.187,137.236Z" transform="translate(-106.934 -135.109)" fill="#2a383e"/>
            </g>
          </g>
          <path id="Trazado_149829" data-name="Trazado 149829" d="M74.227,110.911a18.879,18.879,0,0,1,5.785-1.207,1.753,1.753,0,0,1,.987.25,4.82,4.82,0,0,1,.688.841,2.24,2.24,0,0,0,1.824.654,6.628,6.628,0,0,0,1.93-.518,3.875,3.875,0,0,0,2.072-1.366c.9-1.485.188-3.221-1.042-4.529l.2-.089a1.4,1.4,0,0,1,1.76.892l1.277,3.9a1.4,1.4,0,0,1-.892,1.76l-6.408,2.1a1.4,1.4,0,0,1-1.759-.892l-.337-1.031a1.4,1.4,0,0,0-1.76-.892l-7.586,2.482-.434-1.326.963-.417A17.3,17.3,0,0,0,74.227,110.911Z" transform="translate(-70.538 -104.877)" fill="#cfd8dc"/>
          <g id="Grupo_90792" data-name="Grupo 90792" transform="translate(8.63 11.812)">
            <g id="Grupo_90791" data-name="Grupo 90791">
              <path id="Trazado_149830" data-name="Trazado 149830" d="M95.817,153.071c-1.3-5.616,4.744-11.7,4.744-11.7l1.726-.565,3.114-1.019,1.726-.565s8.471,1.333,10.74,6.632,5.7,21.117,4.463,23.052c-.606.942-3.037,2.664-6.1,3.979q-.187.08-.376.158a16.909,16.909,0,0,1-2.344.767q-.2.049-.393.095c-3.246.749-6.226.8-7.271.4C103.7,173.476,97.121,158.689,95.817,153.071Z" transform="translate(-95.633 -139.225)" fill="#cfd8dc"/>
              <path id="Trazado_149831" data-name="Trazado 149831" d="M116.3,174.492c.366-.12.732-.254,1.088-.4q.183-.075.362-.152c2.986-1.282,5.184-2.9,5.639-3.585.253-.562.171-3.606-1.089-9.742a77.1,77.1,0,0,0-3.444-12.381c-1.825-4.264-8.427-5.738-9.743-5.992l-6.081,1.99c-.91.981-5.365,6.074-4.318,10.593a77.186,77.186,0,0,0,4.541,12.022c2.612,5.7,4.345,8.2,4.881,8.5.772.284,3.5.29,6.669-.442l.378-.091C115.561,174.72,115.936,174.612,116.3,174.492Z" transform="translate(-97.553 -141.203)" fill="#fff"/>
            </g>
            <path id="Trazado_149832" data-name="Trazado 149832" d="M122.906,170.872c-2.134-5.872-4.193-11.9-5.124-15.008a26.531,26.531,0,0,1-.891-11.047l2.128-.7a26.514,26.514,0,0,1,5.811,9.437c1.085,3.053,2.989,9.135,4.74,15.134.81,2.777,1.433,5.007,1.9,6.74-.459.23-.94.455-1.438.669q-.187.08-.376.157a16.909,16.909,0,0,1-2.344.767q-.2.049-.393.095c-.528.122-1.049.225-1.556.311C124.71,175.757,123.894,173.59,122.906,170.872Z" transform="translate(-109.433 -142.437)" fill="#bdbdbd"/>
          </g>
          <g id="Grupo_90794" data-name="Grupo 90794" transform="translate(10.666 22.516)">
            <path id="Trazado_149833" data-name="Trazado 149833" d="M105.244,186.955a56.2,56.2,0,0,0,19.992-6.541l-2.8-10.061a56.264,56.264,0,0,1-20.885,6.834Z" transform="translate(-101.553 -170.352)" fill="#ebfdff"/>
            <g id="Grupo_90793" data-name="Grupo 90793" transform="translate(8.805 5.76)">
              <path id="Trazado_149834" data-name="Trazado 149834" d="M127.158,190.395q.947-.249,1.883-.53l-.638-1.914q1.308-.393,2.6-.849l.617,1.921q.922-.327,1.833-.686l.817,2.618q-.9.354-1.812.677l.593,1.846q-1.252.443-2.524.826l-.613-1.839q-.925.278-1.861.525Z" transform="translate(-127.158 -187.101)" fill="#0090b8"/>
            </g>
          </g>
        </g>
        <g id="Grupo_90798" data-name="Grupo 90798" transform="translate(2.267 23.581)">
          <path id="Trazado_149835" data-name="Trazado 149835" d="M90.7,207.832,97.183,282.4a4.481,4.481,0,0,0,4.464,4.093H143.36a4.481,4.481,0,0,0,4.464-4.093l6.485-74.569Z" transform="translate(-86.032 -196.007)" fill="#d93328"/>
          <path id="Trazado_149836" data-name="Trazado 149836" d="M146.7,224.689H108.094a6,6,0,0,0-5.974,6.517l5.371,57.863a2.943,2.943,0,0,0,2.932,2.688h38.513a2.943,2.943,0,0,0,2.943-2.943l-2.235-61.182A2.943,2.943,0,0,0,146.7,224.689Z" transform="translate(-93.511 -207.067)" fill="#b42218"/>
          <path id="Trazado_149837" data-name="Trazado 149837" d="M128.987,328.535h-7.745a1.924,1.924,0,0,0-1.917,2.091l2.1,24.132a1.922,1.922,0,0,0,2.707,1.586q2.8-1.275,5.885-2.432a2.942,2.942,0,0,0,1.912-2.752V331.475A2.94,2.94,0,0,0,128.987,328.535Z" transform="translate(-104.81 -275.202)" fill="#d93328"/>
          <path id="Trazado_149838" data-name="Trazado 149838" d="M148.423,173.447H78.781a1.813,1.813,0,0,0-1.65,1.959l.085,7.956a1.805,1.805,0,0,0,1.65,1.91h69.472a1.805,1.805,0,0,0,1.65-1.91l.085-7.956A1.814,1.814,0,0,0,148.423,173.447Z" transform="translate(-77.131 -173.447)" fill="#b42218"/>
          <g id="Grupo_90796" data-name="Grupo 90796" transform="translate(3.118 3.095)">
            <path id="Trazado_149839" data-name="Trazado 149839" d="M110.81,182.447H87.223a1.025,1.025,0,0,0-1.024,1.036l.038,3.585a1.025,1.025,0,0,0,1.025,1.014H93.9a.537.537,0,0,0,.394-.162c1.732-1.851,7.92-3.44,16.574-4.421a.529.529,0,0,0,.47-.523h0A.528.528,0,0,0,110.81,182.447Z" transform="translate(-86.199 -182.447)" fill="#d93328"/>
          </g>
          <g id="Grupo_90797" data-name="Grupo 90797" transform="translate(17.751 22.552)">
            <path id="Trazado_149840" data-name="Trazado 149840" d="M183.454,258.967c-.4-.232-.8-.435-1.159-.688a.522.522,0,0,1-.148-.443,2.245,2.245,0,0,0-1.537-2.6c-.111-.033-.266-.17-.272-.267-.03-.438-.013-.88-.013-1.313a7.423,7.423,0,0,0,1.406-14.609c1.919-.183,5.358,2.232,6.754,4.777a9.8,9.8,0,0,1,.563,8.344,9.78,9.78,0,0,1,7.862,12.609c.477-4.425-1.1-7.61-5.437-8.842C188.218,255.013,185.539,256.259,183.454,258.967Z" transform="translate(-162.586 -239.035)" fill="#f8f8f8"/>
            <path id="Trazado_149841" data-name="Trazado 149841" d="M166.371,306.171a9.735,9.735,0,0,1-14.984-.369,9.71,9.71,0,0,1-9.056,3.488,9.1,9.1,0,0,1-5.535-2.9c3.25,2.319,6.585,2.628,9.732,0,2.849-2.377,3.228-5.493,1.886-8.92.384-.226.771-.471,1.178-.676a.466.466,0,0,1,.373.1,2.21,2.21,0,0,0,2.943,0,.49.49,0,0,1,.418-.05c.4.2.771.437,1.158.663-1.5,3.859-.891,7.233,2.635,9.563C160.323,309.192,163.492,308.586,166.371,306.171Z" transform="translate(-134.029 -276.921)" fill="#f8f8f8"/>
            <path id="Trazado_149842" data-name="Trazado 149842" d="M142.737,258.9a7.5,7.5,0,0,0-9.017-2.82,7.307,7.307,0,0,0-3.824,3.551,7.634,7.634,0,0,0-.578,5.138c-1.8-4.212.655-11.553,7.667-12.71a9.712,9.712,0,0,1,7.384-13.034,7.684,7.684,0,0,0-4.177,2.833,7.219,7.219,0,0,0-1.43,4.872,7.492,7.492,0,0,0,6.937,6.919c0,.434.021.877-.013,1.314a.525.525,0,0,1-.29.326,2.243,2.243,0,0,0-1.408,2.548.529.529,0,0,1-.164.424C143.49,258.5,143.12,258.682,142.737,258.9Z" transform="translate(-128.748 -239.027)" fill="#f8f8f8"/>
            <path id="Trazado_149843" data-name="Trazado 149843" d="M158.1,298.824a9.211,9.211,0,0,1-5.616-9.146c.015-.287.094-.44.415-.356.538.141,1.088.246,1.61.427a.649.649,0,0,1,.343.485,6.883,6.883,0,0,0,3.538,6.1.532.532,0,0,1,.241.41C158.487,297.427,158.293,298.1,158.1,298.824Z" transform="translate(-144.312 -272.011)" fill="#f8f8f8"/>
            <path id="Trazado_149844" data-name="Trazado 149844" d="M194.373,289.375a9.078,9.078,0,0,1-5.531,9.576c-.183-.719-.377-1.42-.522-2.131-.02-.1.18-.286.317-.368a6.826,6.826,0,0,0,3.336-4.677,7.807,7.807,0,0,0,.134-1.372c.007-.269.069-.442.338-.513Z" transform="translate(-167.832 -272.061)" fill="#f8f8f8"/>
            <path id="Trazado_149845" data-name="Trazado 149845" d="M174.3,267.454c-.532.52-1.024,1.018-1.542,1.486a.47.47,0,0,1-.427.006,6.92,6.92,0,0,0-7.144-.007.51.51,0,0,1-.465-.022c-.509-.456-.987-.947-1.481-1.431A9.043,9.043,0,0,1,174.3,267.454Z" transform="translate(-151.381 -256.451)" fill="#f8f8f8"/>
          </g>
        </g>
      </g>
    </g>
    <g id="Grupo_128930" data-name="Grupo 128930" transform="translate(702.256 15741.497)">
      <path id="Trazado_166098" data-name="Trazado 166098" d="M5.879-7.014V0h-4.1V-19.906H9.543a8.984,8.984,0,0,1,3.944.82,6.045,6.045,0,0,1,2.618,2.331,6.5,6.5,0,0,1,.916,3.438,5.716,5.716,0,0,1-2,4.614A8.342,8.342,0,0,1,9.475-7.014Zm0-3.322H9.543a3.6,3.6,0,0,0,2.481-.766,2.785,2.785,0,0,0,.854-2.187,3.283,3.283,0,0,0-.861-2.365,3.217,3.217,0,0,0-2.379-.93H5.879ZM27.207-7.287H23.939V0h-4.1V-19.906h7.4a8.361,8.361,0,0,1,5.441,1.572,5.426,5.426,0,0,1,1.914,4.443,6.124,6.124,0,0,1-.882,3.4,6.014,6.014,0,0,1-2.673,2.167L35.342-.191V0h-4.4Zm-3.268-3.322h3.309a3.388,3.388,0,0,0,2.393-.786,2.81,2.81,0,0,0,.848-2.167,3.008,3.008,0,0,0-.8-2.215,3.324,3.324,0,0,0-2.454-.807H23.939ZM54.059-9.5A12.017,12.017,0,0,1,53.02-4.348,7.825,7.825,0,0,1,50.046-.93a8.226,8.226,0,0,1-4.437,1.2A8.282,8.282,0,0,1,41.193-.916a7.9,7.9,0,0,1-3.008-3.4,11.673,11.673,0,0,1-1.08-5.079v-.984a11.954,11.954,0,0,1,1.06-5.175,7.889,7.889,0,0,1,2.994-3.432,8.236,8.236,0,0,1,4.423-1.2A8.236,8.236,0,0,1,50-18.983,7.889,7.889,0,0,1,53-15.552a11.92,11.92,0,0,1,1.06,5.161ZM49.9-10.4a8.377,8.377,0,0,0-1.121-4.758,3.653,3.653,0,0,0-3.2-1.627A3.655,3.655,0,0,0,42.4-15.183a8.281,8.281,0,0,0-1.135,4.71V-9.5a8.482,8.482,0,0,0,1.121,4.73A3.644,3.644,0,0,0,45.609-3.09a3.611,3.611,0,0,0,3.172-1.62A8.432,8.432,0,0,0,49.9-9.434ZM72.666-6.631a7.044,7.044,0,0,1-2.372,5.059A8.331,8.331,0,0,1,64.654.273,7.491,7.491,0,0,1,58.632-2.3a10.567,10.567,0,0,1-2.194-7.075V-10.6a11.933,11.933,0,0,1,1.012-5.059,7.582,7.582,0,0,1,2.892-3.356,8.1,8.1,0,0,1,4.368-1.169,8.115,8.115,0,0,1,5.551,1.846,7.57,7.57,0,0,1,2.434,5.182h-4.1a4.157,4.157,0,0,0-1.073-2.8,3.974,3.974,0,0,0-2.81-.868,3.485,3.485,0,0,0-3.069,1.47,8.237,8.237,0,0,0-1.046,4.56v1.5a8.816,8.816,0,0,0,.978,4.717,3.42,3.42,0,0,0,3.083,1.49,4.049,4.049,0,0,0,2.837-.868,3.921,3.921,0,0,0,1.073-2.687Zm14.67-2H79.461v5.332H88.7V0H75.359V-19.906H88.676v3.322H79.461v4.744h7.875Zm14.1,3.4a2.1,2.1,0,0,0-.82-1.784,10.76,10.76,0,0,0-2.953-1.312,20.935,20.935,0,0,1-3.377-1.36q-3.391-1.832-3.391-4.936a4.807,4.807,0,0,1,.909-2.878,5.931,5.931,0,0,1,2.611-1.976,9.829,9.829,0,0,1,3.821-.711,8.946,8.946,0,0,1,3.8.772,6.052,6.052,0,0,1,2.591,2.181,5.706,5.706,0,0,1,.923,3.2h-4.1a2.684,2.684,0,0,0-.861-2.126,3.541,3.541,0,0,0-2.42-.759,3.783,3.783,0,0,0-2.338.636,2.005,2.005,0,0,0-.834,1.675,1.921,1.921,0,0,0,.978,1.627,11.044,11.044,0,0,0,2.878,1.23,12.435,12.435,0,0,1,5.1,2.611,5.2,5.2,0,0,1,1.6,3.883A4.791,4.791,0,0,1,103.592-1.2,8.559,8.559,0,0,1,98.328.273a10.164,10.164,0,0,1-4.184-.841,6.62,6.62,0,0,1-2.878-2.3,5.9,5.9,0,0,1-.991-3.391h4.115q0,3.295,3.938,3.295a3.83,3.83,0,0,0,2.283-.595A1.935,1.935,0,0,0,101.432-5.223ZM124.674-9.5a12.017,12.017,0,0,1-1.039,5.154A7.825,7.825,0,0,1,120.661-.93a8.226,8.226,0,0,1-4.437,1.2,8.282,8.282,0,0,1-4.416-1.189,7.9,7.9,0,0,1-3.008-3.4,11.673,11.673,0,0,1-1.08-5.079v-.984a11.954,11.954,0,0,1,1.06-5.175,7.889,7.889,0,0,1,2.994-3.432,8.236,8.236,0,0,1,4.423-1.2,8.236,8.236,0,0,1,4.423,1.2,7.889,7.889,0,0,1,2.994,3.432,11.92,11.92,0,0,1,1.06,5.161Zm-4.156-.9a8.377,8.377,0,0,0-1.121-4.758,3.653,3.653,0,0,0-3.2-1.627,3.655,3.655,0,0,0-3.186,1.606,8.281,8.281,0,0,0-1.135,4.71V-9.5A8.482,8.482,0,0,0,113-4.771a3.644,3.644,0,0,0,3.227,1.682A3.611,3.611,0,0,0,119.4-4.71a8.433,8.433,0,0,0,1.121-4.724Zm17.459,5.182a2.1,2.1,0,0,0-.82-1.784A10.76,10.76,0,0,0,134.2-8.319a20.934,20.934,0,0,1-3.377-1.36q-3.391-1.832-3.391-4.936a4.807,4.807,0,0,1,.909-2.878,5.931,5.931,0,0,1,2.611-1.976,9.829,9.829,0,0,1,3.821-.711,8.946,8.946,0,0,1,3.8.772,6.052,6.052,0,0,1,2.591,2.181,5.706,5.706,0,0,1,.923,3.2h-4.1a2.684,2.684,0,0,0-.861-2.126,3.541,3.541,0,0,0-2.42-.759,3.783,3.783,0,0,0-2.338.636,2.005,2.005,0,0,0-.834,1.675,1.921,1.921,0,0,0,.978,1.627,11.044,11.044,0,0,0,2.878,1.23,12.435,12.435,0,0,1,5.1,2.611,5.2,5.2,0,0,1,1.6,3.883A4.791,4.791,0,0,1,140.137-1.2a8.559,8.559,0,0,1-5.264,1.47,10.164,10.164,0,0,1-4.184-.841,6.62,6.62,0,0,1-2.878-2.3,5.9,5.9,0,0,1-.991-3.391h4.115q0,3.295,3.938,3.295a3.83,3.83,0,0,0,2.283-.595A1.935,1.935,0,0,0,137.977-5.223ZM151.84,0V-19.906h6.125a9.3,9.3,0,0,1,4.7,1.183,8.247,8.247,0,0,1,3.233,3.363,10.374,10.374,0,0,1,1.162,4.956v.916a10.4,10.4,0,0,1-1.142,4.936A8.176,8.176,0,0,1,162.7-1.2,9.372,9.372,0,0,1,158.006,0Zm4.1-16.584V-3.295h1.982A4.454,4.454,0,0,0,161.6-4.867a7.1,7.1,0,0,0,1.3-4.5v-1.053a7.218,7.218,0,0,0-1.258-4.6,4.439,4.439,0,0,0-3.678-1.565Zm26.072,7.957h-7.875v5.332h9.242V0H170.037V-19.906h13.316v3.322h-9.215v4.744h7.875Z" transform="translate(358.744 5437.504)" fill="#008f85"/>
      <path id="Trazado_166099" data-name="Trazado 166099" d="M3.779-2.118h5.6V0H1.143V-12.8H3.779ZM13.693,0H11.057V-12.8h2.637Zm5.889-12.8,3.287,9.281,3.27-9.281H29.6V0H26.956V-3.5l.264-6.038L23.766,0H21.955L18.51-9.527,18.773-3.5V0H16.137V-12.8ZM34.541-4.509V0H31.9V-12.8H36.9a5.776,5.776,0,0,1,2.536.527,3.886,3.886,0,0,1,1.683,1.5,4.178,4.178,0,0,1,.589,2.21,3.674,3.674,0,0,1-1.288,2.966,5.363,5.363,0,0,1-3.564,1.085Zm0-2.136H36.9a2.316,2.316,0,0,0,1.6-.492,1.79,1.79,0,0,0,.549-1.406,2.111,2.111,0,0,0-.554-1.521,2.068,2.068,0,0,0-1.529-.6H34.541ZM46.318,0H43.682V-12.8h2.637ZM56.461-5.546H51.4v3.428H57.34V0H48.762V-12.8h8.561v2.136H51.4v3.05h5.063Zm5.221,3.428h6.451V0H58.386V-1.547l6.328-9.114H58.395V-12.8h9.6v1.512Zm15.451-.519H72.51L71.631,0h-2.8l4.764-12.8h2.443L80.824,0h-2.8ZM73.222-4.772h3.2l-1.608-4.79ZM90.914-7.031,93.577-12.8H96.46l-4.2,8.156V0H89.578V-4.641l-4.2-8.156h2.892ZM102.111,0V-12.8h3.938a5.98,5.98,0,0,1,3.019.76,5.3,5.3,0,0,1,2.079,2.162,6.669,6.669,0,0,1,.747,3.186V-6.1a6.688,6.688,0,0,1-.734,3.173,5.256,5.256,0,0,1-2.07,2.153A6.025,6.025,0,0,1,106.075,0Zm2.637-10.661v8.543h1.274a2.863,2.863,0,0,0,2.364-1.011,4.567,4.567,0,0,0,.835-2.892V-6.7a4.64,4.64,0,0,0-.809-2.958,2.854,2.854,0,0,0-2.364-1.006Zm16.761,5.115h-5.062v3.428h5.941V0H113.81V-12.8h8.561v2.136h-5.924v3.05h5.063Zm9.062,2.188a1.353,1.353,0,0,0-.527-1.147,6.917,6.917,0,0,0-1.9-.844,13.458,13.458,0,0,1-2.171-.875,3.547,3.547,0,0,1-2.18-3.173,3.09,3.09,0,0,1,.584-1.85,3.812,3.812,0,0,1,1.679-1.27,6.318,6.318,0,0,1,2.457-.457,5.751,5.751,0,0,1,2.443.5,3.891,3.891,0,0,1,1.666,1.4,3.668,3.668,0,0,1,.593,2.057h-2.637a1.726,1.726,0,0,0-.554-1.367,2.276,2.276,0,0,0-1.556-.488,2.432,2.432,0,0,0-1.5.409,1.289,1.289,0,0,0-.536,1.077,1.235,1.235,0,0,0,.628,1.046,7.1,7.1,0,0,0,1.85.791,7.994,7.994,0,0,1,3.278,1.679,3.343,3.343,0,0,1,1.028,2.5,3.08,3.08,0,0,1-1.257,2.606,5.5,5.5,0,0,1-3.384.945,6.534,6.534,0,0,1-2.689-.541,4.256,4.256,0,0,1-1.85-1.481,3.793,3.793,0,0,1-.637-2.18h2.646q0,2.118,2.531,2.118a2.462,2.462,0,0,0,1.468-.382A1.244,1.244,0,0,0,130.57-3.357ZM137.8,0h-2.637V-12.8H137.8Zm12.85,0h-2.637l-5.133-8.42V0h-2.637V-12.8h2.637l5.142,8.438V-12.8h2.628Zm10-5.229h-5.062V0h-2.637V-12.8h8.332v2.136h-5.7v3.3h5.063Zm9.861-.316h-5.062v3.428H171.4V0h-8.578V-12.8h8.561v2.136h-5.924v3.05h5.063Zm12.472,1.283a4.528,4.528,0,0,1-1.525,3.252A5.355,5.355,0,0,1,177.838.176a4.816,4.816,0,0,1-3.872-1.657,6.793,6.793,0,0,1-1.411-4.548v-.782a7.671,7.671,0,0,1,.65-3.252,4.874,4.874,0,0,1,1.859-2.158,5.207,5.207,0,0,1,2.808-.751,5.217,5.217,0,0,1,3.568,1.187,4.866,4.866,0,0,1,1.564,3.331h-2.637a2.673,2.673,0,0,0-.69-1.8,2.555,2.555,0,0,0-1.806-.558,2.24,2.24,0,0,0-1.973.945,5.3,5.3,0,0,0-.672,2.931v.967a5.667,5.667,0,0,0,.628,3.032,2.2,2.2,0,0,0,1.982.958,2.6,2.6,0,0,0,1.824-.558,2.521,2.521,0,0,0,.69-1.727Zm11.777,0a4.528,4.528,0,0,1-1.525,3.252A5.355,5.355,0,0,1,189.615.176a4.816,4.816,0,0,1-3.872-1.657,6.793,6.793,0,0,1-1.411-4.548v-.782a7.671,7.671,0,0,1,.65-3.252,4.874,4.874,0,0,1,1.859-2.158,5.207,5.207,0,0,1,2.808-.751,5.217,5.217,0,0,1,3.568,1.187,4.866,4.866,0,0,1,1.564,3.331h-2.637a2.673,2.673,0,0,0-.69-1.8,2.555,2.555,0,0,0-1.806-.558,2.24,2.24,0,0,0-1.973.945A5.3,5.3,0,0,0,187-6.935v.967a5.667,5.667,0,0,0,.628,3.032,2.2,2.2,0,0,0,1.982.958,2.6,2.6,0,0,0,1.824-.558,2.521,2.521,0,0,0,.69-1.727ZM199.3,0h-2.637V-12.8H199.3Zm12.955-6.108a7.725,7.725,0,0,1-.668,3.313,5.03,5.03,0,0,1-1.912,2.2,5.288,5.288,0,0,1-2.852.773,5.324,5.324,0,0,1-2.839-.765,5.08,5.08,0,0,1-1.934-2.184,7.5,7.5,0,0,1-.694-3.265v-.633A7.685,7.685,0,0,1,202.039-10a5.072,5.072,0,0,1,1.925-2.206,5.3,5.3,0,0,1,2.843-.769,5.3,5.3,0,0,1,2.843.769A5.072,5.072,0,0,1,211.575-10a7.663,7.663,0,0,1,.681,3.318Zm-2.672-.58a5.385,5.385,0,0,0-.721-3.059,2.349,2.349,0,0,0-2.057-1.046,2.349,2.349,0,0,0-2.048,1.033,5.324,5.324,0,0,0-.729,3.028v.624a5.453,5.453,0,0,0,.721,3.041,2.342,2.342,0,0,0,2.074,1.081,2.321,2.321,0,0,0,2.039-1.042,5.421,5.421,0,0,0,.721-3.037Zm-2.268-9.536h2.769L207.65-13.5h-2.065ZM224.578,0h-2.637l-5.133-8.42V0h-2.637V-12.8h2.637l5.142,8.438V-12.8h2.628Z" transform="translate(359.322 5455.761)" fill="#1d272b"/>
      <rect id="Rectángulo_34968" data-name="Rectángulo 34968" width="4.661" height="55.93" transform="translate(350 5408)" fill="#d93328"/>
    </g>
  </g>
</svg>
