<svg id="img5" xmlns="http://www.w3.org/2000/svg" xmlns:xlink="http://www.w3.org/1999/xlink" width="79.155" height="79.154" viewBox="0 0 79.155 79.154">
  <defs>
    <radialGradient id="radial-gradient" cx="0.077" cy="0.019" r="1.465" gradientTransform="matrix(1, 0, 0, -1, 0, 9.666)" gradientUnits="objectBoundingBox">
      <stop offset="0" stop-color="#f4f4f5"/>
      <stop offset="0.477" stop-color="#f7f8fa"/>
      <stop offset="0.715" stop-color="#fff"/>
    </radialGradient>
  </defs>
  <g id="Group_18531" data-name="Group 18531">
    <g id="Group_18423" data-name="Group 18423">
      <g id="Group_18421" data-name="Group 18421">
        <g id="Group_18420" data-name="Group 18420">
          <g id="Group_18419" data-name="Group 18419">
            <path id="Path_40936" data-name="Path 40936" d="M201.954,554.407a39.577,39.577,0,1,1-39.578-39.575h0A39.576,39.576,0,0,1,201.954,554.407Z" transform="translate(-122.8 -514.832)" fill="#fff"/>
          </g>
        </g>
      </g>
      <path id="Path_40937" data-name="Path 40937" d="M201.953,554.407a39.42,39.42,0,1,0,0,.312Z" transform="translate(-122.799 -514.832)" fill="url(#radial-gradient)"/>
      <path id="Path_40938" data-name="Path 40938" d="M190.028,551.858a30.209,30.209,0,1,0-30.209,30.209h0a30.1,30.1,0,0,0,30.209-29.984Z" transform="translate(-120.122 -512.151)" fill="none" stroke="#1d272b" stroke-miterlimit="10" stroke-width="2"/>
      <g id="Group_18422" data-name="Group 18422" transform="translate(7.012 22.22)">
        <path id="Path_40939" data-name="Path 40939" d="M195.973,530.78a39.581,39.581,0,0,1-68.14,39.411,39.456,39.456,0,0,0,68.14-39.411Z" transform="translate(-127.833 -530.78)" fill="#e7e9eb"/>
      </g>
    </g>
  </g>
  <g id="w1LOms" transform="translate(-5203.011 -1692.353)">
    <g id="Grupo_117565" data-name="Grupo 117565" transform="translate(5221.803 1709.257)">
      <path id="Trazado_157841" data-name="Trazado 157841" d="M5242.8,1750.611q-9.845,0-19.691,0c-1.25,0-1.379-.157-1.271-1.409.3-3.43.6-6.859.861-10.292a4.255,4.255,0,0,1,2.131-3.575c2.308-1.4,4.571-2.879,6.869-4.3a1.276,1.276,0,0,0,.689-1.125c.255-4.416.582-8.828.8-13.246a7.357,7.357,0,0,1,7.7-7.386,40.748,40.748,0,0,1,5.334.129,7.177,7.177,0,0,1,6.227,7.035c.235,4.476.573,8.946.817,13.422a1.4,1.4,0,0,0,.8,1.24c2.293,1.426,4.561,2.893,6.863,4.3a3.941,3.941,0,0,1,1.986,3.188q.465,5.367.9,10.735c.092,1.137-.06,1.276-1.237,1.276Q5252.686,1750.612,5242.8,1750.611Zm19.463-1.42a4.083,4.083,0,0,0,.034-.483q-.4-5.015-.807-10.03a2.6,2.6,0,0,0-1.346-2.077c-2.5-1.548-4.987-3.107-7.446-4.715a1.78,1.78,0,0,1-.765-1.148c-.342-4.8-.622-9.6-.911-14.4a5.72,5.72,0,0,0-4.923-5.5,42.808,42.808,0,0,0-5.421-.14,5.925,5.925,0,0,0-6.057,5.749c-.285,4.712-.593,9.422-.854,14.135a1.5,1.5,0,0,1-.811,1.343c-2.348,1.449-4.641,2.993-7.022,4.386a3.45,3.45,0,0,0-1.852,3.094c-.095,1.925-.318,3.844-.473,5.766-.106,1.314-.19,2.63-.286,3.967h7.164v-1.009c0-1.723-.008-3.446.008-5.168.005-.533-.179-1.279.678-1.283.9,0,.728.764.734,1.332.014,1.307,0,2.614,0,3.921v2.206h10a2.188,2.188,0,0,0,.084-.388q.01-6.46,0-12.921a.788.788,0,0,0-.194-.541,2.929,2.929,0,0,0-2.441-.1,3.13,3.13,0,0,1-3.924-.408,2.9,2.9,0,0,1-.328-3.827,2.987,2.987,0,0,0,.794-2.768,3.155,3.155,0,0,1,0-.712c.057-.787.421-1.033,1.186-.775,1.236.417,2.467.852,3.7,1.281a5.668,5.668,0,0,0,3.922-.043c1.365-.5,2.728-1,4.1-1.472.86-.3,1.259-.022,1.263.88,0,.709-.115,1.42-.1,2.129a1.772,1.772,0,0,0,.3,1.023,3.105,3.105,0,0,1-4.14,4.595,1.08,1.08,0,0,0-.684-.229c-.658.127-1.3.338-1.928.51a1.943,1.943,0,0,0-.063.316c0,4.277.006,8.555-.019,12.832,0,.673.344.684.838.682,2.881-.012,5.763,0,8.644-.008.255,0,.511-.038.814-.062,0-2.16,0-4.237,0-6.314,0-.551-.019-1.158.757-1.148.753.01.66.624.662,1.12.008,1.871,0,3.743.008,5.614,0,.381-.073.8.541.795C5257.857,1749.183,5260.02,1749.191,5262.259,1749.191Zm-24.874-21.073c-.089.974-.036,1.412.829,1.493a2.909,2.909,0,0,1,2.489,2.728c.091,1.255.184,1.386,1.454,1.492a13.117,13.117,0,0,0,1.854-.076c.713-.042.988-.352.946-1.134a2.914,2.914,0,0,1,2.193-2.976,9.753,9.753,0,0,1,1.367-.155c.044-.446.087-.868.161-1.613C5244.873,1729.911,5241.19,1730.432,5237.385,1728.117Zm-1.378,4.5a1.64,1.64,0,1,0,1.621-1.641A1.593,1.593,0,0,0,5236.007,1732.613Zm13.619.027a1.586,1.586,0,0,0-1.584-1.671,1.645,1.645,0,1,0-.045,3.29A1.559,1.559,0,0,0,5249.626,1732.64Z" transform="translate(-5221.803 -1709.257)" fill="#1d272b"/>
      <path id="Trazado_157842" data-name="Trazado 157842" d="M5305.661,1763.663c1.749,0,3.5,0,5.249,0,1.687,0,2.131.423,2.136,2.078,0,.86.024,1.721-.01,2.58a1.386,1.386,0,0,1-1.564,1.523c-1.3.018-2.611.032-3.914-.01a2.125,2.125,0,0,1-1.151-.354,1.115,1.115,0,0,0-1.576.036,1.576,1.576,0,0,1-.9.314c-1.453.031-2.907.036-4.359,0a1.228,1.228,0,0,1-1.3-1.293c-.039-1.185-.047-2.373,0-3.557.037-.871.589-1.287,1.687-1.3,1.9-.026,3.8-.007,5.694-.007Zm-5.966,4.768c.867,0,1.635-.023,2.4.005a4.041,4.041,0,0,0,3.02-.746,1.085,1.085,0,0,1,1.04,0c1.683,1.339,3.577.5,5.4.761V1765.2H5299.7Z" transform="translate(-5284.617 -1753.963)" fill="#1d272b"/>
    </g>
  </g>
</svg>
